<?xml version="1.0" encoding="utf-8"?>
<!-- Generator: Adobe Illustrator 23.0.3, SVG Export Plug-In . SVG Version: 6.00 Build 0)  -->
<svg version="1.1" id="Layer_1" xmlns="http://www.w3.org/2000/svg" xmlns:xlink="http://www.w3.org/1999/xlink" x="0px" y="0px"
	 viewBox="0 0 500 500" style="enable-background:new 0 0 500 500;" xml:space="preserve">
<g>
	<path style="fill:#FFFFFF;" d="M116.8525,421.9722c-5.7041,0-10.3442-4.3127-10.3442-9.6129V88.183
		c0-5.3002,4.6401-9.6117,10.3442-9.6117H320.858c3.0347,0,9.3959,0.5498,11.7506,2.6302l0.3545,0.3442l58.905,63.2912
		c2.3101,2.491,2.9202,8.4928,2.9202,11.3184v256.2039c0,5.3002-4.6407,9.6129-10.3436,9.6129H116.8525z"/>
	<g>
		<g>
			<g>
				<path style="fill:#767676;" d="M384.4445,423.2066H116.852c-6.3839,0-11.5786-4.8658-11.5786-10.8474V88.1831
					c0-5.9804,5.1947-10.8461,11.5786-10.8461h204.0062c0.377,0,9.2786,0.0329,12.568,2.9389l0.3947,0.3833l58.9508,63.337
					c3.2135,3.4652,3.2514,11.7924,3.2514,12.1593v256.2036C396.0231,418.3408,390.8284,423.2066,384.4445,423.2066z
					 M116.5079,411.9189c0.0848,0.0278,0.1999,0.0531,0.3441,0.0531h267.5925c0.1442,0,0.2581-0.0253,0.3441-0.0531V156.1556
					c-0.0076-0.9033-0.3593-3.7347-0.7034-5.0037l-57.6527-61.9416c-1.4651-0.3176-4.4533-0.6389-5.5742-0.6389H116.852
					c-0.143,0-0.2594,0.024-0.3441,0.0531V411.9189z M383.9612,150.7699L383.9612,150.7699L383.9612,150.7699z M327.0321,89.371
					v0.0013V89.371z"/>
			</g>
		</g>
	</g>
	<g>
		<g>
			<path style="fill:#5B7FC0;" d="M189.0874,210.1754l0.0012-0.0012c7.7751,0.0012,15.0295,4.1862,18.932,10.9234
				c1.9177,3.3159,2.9305,7.1011,2.9293,10.9378c0,5.8394-2.2733,11.3304-6.4032,15.4604
				c-4.1288,4.1288-9.6186,6.4032-15.458,6.4032c-5.8394,0-11.328-2.2733-15.458-6.4032s-6.4032-9.6186-6.4056-15.4628
				c0.0012-6.025,2.454-11.4897,6.4116-15.4473C177.5953,212.627,183.0601,210.1742,189.0874,210.1754z M197.0804,232.033
				c0.0012-1.4042-0.3687-2.7868-1.063-3.9887c-1.4293-2.4684-4.0833-3.9995-6.9299-4.0019c-4.4077,0.0024-7.993,3.5877-7.993,7.993
				c0,2.1356,0.832,4.1431,2.3427,5.6539c1.5083,1.5083,3.5159,2.3403,5.6503,2.3415c2.1356,0,4.1443-0.8308,5.6539-2.3403
				S197.0816,234.1722,197.0804,232.033z"/>
			<path style="opacity:0.3;fill:#FFFFFF;" d="M189.0898,210.176c7.7763,0,15.0283,4.1826,18.926,10.9151
				c1.9201,3.3136,2.9377,7.0988,2.9353,10.9462c0.0024,12.0643-9.8065,21.8636-21.8613,21.8613
				c-12.0547,0.0024-21.8636-9.8066-21.8612-21.8613c0-6.0285,2.4516-11.4921,6.4116-15.452
				C177.5977,212.6276,183.0612,210.176,189.0898,210.176z M197.0839,232.0372c0-1.4078-0.3711-2.7892-1.0702-3.9959
				c-1.4269-2.466-4.0797-3.9983-6.924-3.9983c-4.4005-0.0048-7.9918,3.5817-7.9942,7.9942
				c0.0024,4.4077,3.5865,7.9918,7.9942,7.9942c2.2027,0,4.2018-0.8978,5.6479-2.3439
				C196.1861,236.239,197.0839,234.2399,197.0839,232.0372z"/>
			<g>
				<defs>
					<path id="SVGID_1_" d="M194.7376,237.6875c-1.4461,1.4461-3.4452,2.3439-5.6479,2.3439
						c-4.4077-0.0024-7.9918-3.5865-7.9942-7.9942c0.0024-4.4125,3.5937-7.999,7.9942-7.9942c2.8443,0,5.497,1.5323,6.924,3.9983
						c0.6991,1.2067,1.0702,2.5881,1.0702,3.9959C197.0839,234.2399,196.1861,236.239,194.7376,237.6875z"/>
				</defs>
				<clipPath id="SVGID_2_">
					<use xlink:href="#SVGID_1_"  style="overflow:visible;"/>
				</clipPath>
				<path style="clip-path:url(#SVGID_2_);fill:#FFFFFF;" d="M190.0704,225.0237c-4.4005-0.0048-7.9918,3.5817-7.9942,7.9942
					c0.0011,1.9546,0.7088,3.7452,1.8782,5.1354c-1.7447-1.4674-2.8575-3.663-2.8588-6.116
					c0.0024-4.4125,3.5936-7.999,7.9942-7.9942c2.3802-0.0001,4.616,1.0833,6.1218,2.8788
					C193.7885,225.7247,191.9774,225.0237,190.0704,225.0237z"/>
				<path style="opacity:0.13;clip-path:url(#SVGID_2_);fill:#020202;" d="M190.0704,225.0237
					c-4.4005-0.0048-7.9918,3.5817-7.9942,7.9942c0.0011,1.9546,0.7088,3.7452,1.8782,5.1354
					c-1.7447-1.4674-2.8575-3.663-2.8588-6.116c0.0024-4.4125,3.5936-7.999,7.9942-7.9942c2.3802-0.0001,4.616,1.0833,6.1218,2.8788
					C193.7885,225.7247,191.9774,225.0237,190.0704,225.0237z"/>
			</g>
			<g>
				<defs>
					<path id="SVGID_3_" d="M189.0898,210.176c7.7763,0,15.0283,4.1826,18.926,10.9151c1.9201,3.3136,2.9377,7.0988,2.9353,10.9462
						c0.0024,12.0643-9.8065,21.8636-21.8613,21.8613c-12.0547,0.0024-21.8636-9.8066-21.8612-21.8613
						c0-6.0285,2.4516-11.4921,6.4116-15.452C177.5977,212.6276,183.0612,210.176,189.0898,210.176z M197.0839,232.0372
						c0-1.4078-0.3711-2.7892-1.0702-3.9959c-1.4269-2.466-4.0797-3.9983-6.924-3.9983c-4.4005-0.0048-7.9918,3.5817-7.9942,7.9942
						c0.0024,4.4077,3.5865,7.9918,7.9942,7.9942c2.2027,0,4.2018-0.8978,5.6479-2.3439
						C196.1861,236.239,197.0839,234.2399,197.0839,232.0372z"/>
				</defs>
				<clipPath id="SVGID_4_">
					<use xlink:href="#SVGID_3_"  style="overflow:visible;"/>
				</clipPath>
				<path style="clip-path:url(#SVGID_4_);fill:#5B7FC0;" d="M172.6595,215.6045c-3.96,3.96-6.4116,9.4235-6.4116,15.452
					c-0.0024,12.0547,9.8066,21.8636,21.8613,21.8612c12.0547,0.0024,21.8636-9.797,21.8613-21.8612
					c0.0024-3.8475-1.0151-7.6326-2.9353-10.9462c-3.8977-6.7324-11.1497-10.9151-18.926-10.9151
					C182.0806,209.1953,176.6171,211.647,172.6595,215.6045z"/>
			</g>
		</g>
		<rect x="198.8952" y="225.1043" style="fill:#5B7FC0;" width="122.6266" height="13.8671"/>
	</g>
	<g>
		<path style="fill:#D95140;" d="M189.0874,155.7611l0.0012-0.0012c7.7751,0.0012,15.0295,4.1862,18.932,10.9234
			c1.9177,3.3159,2.9305,7.1011,2.9293,10.9378c0,5.8394-2.2733,11.3304-6.4032,15.4604c-4.1288,4.1288-9.6186,6.4032-15.458,6.4032
			c-5.8394,0-11.328-2.2733-15.458-6.4032s-6.4032-9.6186-6.4056-15.4628c0.0012-6.0249,2.454-11.4897,6.4116-15.4473
			C177.5953,158.2128,183.0601,155.7599,189.0874,155.7611z M197.0804,177.6188c0.0012-1.4042-0.3687-2.7868-1.063-3.9887
			c-1.4293-2.4684-4.0833-3.9995-6.9299-4.0019c-4.4077,0.0024-7.993,3.5877-7.993,7.993c0,2.1356,0.832,4.1431,2.3427,5.6539
			c1.5083,1.5083,3.5159,2.3403,5.6503,2.3415c2.1356,0,4.1443-0.8308,5.6539-2.3403
			C196.2508,181.7667,197.0816,179.758,197.0804,177.6188z"/>
		<path style="opacity:0.3;fill:#FFFFFF;" d="M189.0898,155.7617c7.7763,0,15.0283,4.1826,18.926,10.9151
			c1.9201,3.3135,2.9377,7.0987,2.9353,10.9462c0.0024,12.0643-9.8065,21.8636-21.8613,21.8613
			c-12.0547,0.0024-21.8636-9.8066-21.8612-21.8613c0-6.0285,2.4516-11.4921,6.4116-15.452
			C177.5977,158.2134,183.0612,155.7617,189.0898,155.7617z M197.0839,177.623c0-1.4078-0.3711-2.7892-1.0702-3.9959
			c-1.4269-2.466-4.0797-3.9983-6.924-3.9983c-4.4005-0.0048-7.9918,3.5817-7.9942,7.9942
			c0.0024,4.4077,3.5865,7.9918,7.9942,7.9942c2.2027,0,4.2018-0.8978,5.6479-2.3439
			C196.1861,181.8248,197.0839,179.8256,197.0839,177.623z"/>
		<g>
			<defs>
				<path id="SVGID_5_" d="M194.7376,183.2733c-1.4461,1.4461-3.4452,2.3439-5.6479,2.3439
					c-4.4077-0.0024-7.9918-3.5865-7.9942-7.9942c0.0024-4.4125,3.5937-7.9989,7.9942-7.9942c2.8443,0,5.497,1.5323,6.924,3.9983
					c0.6991,1.2067,1.0702,2.5881,1.0702,3.9959C197.0839,179.8256,196.1861,181.8248,194.7376,183.2733z"/>
			</defs>
			<clipPath id="SVGID_6_">
				<use xlink:href="#SVGID_5_"  style="overflow:visible;"/>
			</clipPath>
			<path style="clip-path:url(#SVGID_6_);fill:#FFFFFF;" d="M190.0704,170.6095c-4.4005-0.0048-7.9918,3.5817-7.9942,7.9942
				c0.0011,1.9546,0.7088,3.7452,1.8782,5.1354c-1.7447-1.4674-2.8575-3.663-2.8588-6.116c0.0024-4.4125,3.5936-7.999,7.9942-7.9942
				c2.3802-0.0001,4.616,1.0833,6.1218,2.8788C193.7885,171.3104,191.9774,170.6095,190.0704,170.6095z"/>
			<path style="opacity:0.13;clip-path:url(#SVGID_6_);fill:#020202;" d="M190.0704,170.6095
				c-4.4005-0.0048-7.9918,3.5817-7.9942,7.9942c0.0011,1.9546,0.7088,3.7452,1.8782,5.1354
				c-1.7447-1.4674-2.8575-3.663-2.8588-6.116c0.0024-4.4125,3.5936-7.999,7.9942-7.9942c2.3802-0.0001,4.616,1.0833,6.1218,2.8788
				C193.7885,171.3104,191.9774,170.6095,190.0704,170.6095z"/>
		</g>
		<g>
			<defs>
				<path id="SVGID_7_" d="M189.0898,155.7617c7.7763,0,15.0283,4.1826,18.926,10.9151c1.9201,3.3135,2.9377,7.0987,2.9353,10.9462
					c0.0024,12.0643-9.8065,21.8636-21.8613,21.8613c-12.0547,0.0024-21.8636-9.8066-21.8612-21.8613
					c0-6.0285,2.4516-11.4921,6.4116-15.452C177.5977,158.2134,183.0612,155.7617,189.0898,155.7617z M197.0839,177.623
					c0-1.4078-0.3711-2.7892-1.0702-3.9959c-1.4269-2.466-4.0797-3.9983-6.924-3.9983c-4.4005-0.0048-7.9918,3.5817-7.9942,7.9942
					c0.0024,4.4077,3.5865,7.9918,7.9942,7.9942c2.2027,0,4.2018-0.8978,5.6479-2.3439
					C196.1861,181.8248,197.0839,179.8256,197.0839,177.623z"/>
			</defs>
			<clipPath id="SVGID_8_">
				<use xlink:href="#SVGID_7_"  style="overflow:visible;"/>
			</clipPath>
			<path style="clip-path:url(#SVGID_8_);fill:#D95140;" d="M172.6595,161.1903c-3.96,3.96-6.4116,9.4235-6.4116,15.452
				c-0.0024,12.0547,9.8066,21.8636,21.8613,21.8613c12.0547,0.0024,21.8636-9.797,21.8613-21.8613
				c0.0024-3.8474-1.0151-7.6326-2.9353-10.9462c-3.8977-6.7324-11.1497-10.9151-18.926-10.9151
				C182.0806,154.7811,176.6171,157.2327,172.6595,161.1903z"/>
		</g>
		<rect x="198.8952" y="170.69" style="fill:#D95140;" width="122.6266" height="13.8671"/>
	</g>
	<g>
		<g>
			<path style="fill:#56A55C;" d="M189.5379,264.6147l0.0012-0.0012c7.7751,0.0012,15.0294,4.1862,18.932,10.9235
				c1.9177,3.3159,2.9305,7.1011,2.9293,10.9378c0,5.8394-2.2733,11.3304-6.4032,15.4604
				c-4.1288,4.1288-9.6186,6.4032-15.458,6.4032c-5.8394,0-11.3281-2.2733-15.458-6.4032c-4.13-4.13-6.4032-9.6186-6.4056-15.4628
				c0.0012-6.0249,2.454-11.4897,6.4116-15.4472C178.0458,267.0663,183.5105,264.6135,189.5379,264.6147z M197.5309,286.4723
				c0.0012-1.4042-0.3687-2.7868-1.063-3.9887c-1.4293-2.4684-4.0833-3.9995-6.9299-4.0019c-4.4077,0.0024-7.993,3.5877-7.993,7.993
				c0,2.1356,0.832,4.1431,2.3427,5.6538c1.5083,1.5083,3.5159,2.3403,5.6503,2.3415c2.1356,0,4.1443-0.8308,5.6539-2.3403
				C196.7013,290.6202,197.5321,288.6115,197.5309,286.4723z"/>
			<path style="opacity:0.3;fill:#FFFFFF;" d="M189.5403,264.6153c7.7763,0,15.0283,4.1826,18.926,10.9151
				c1.9201,3.3135,2.9377,7.0987,2.9353,10.9462c0.0024,12.0643-9.8065,21.8636-21.8613,21.8613
				c-12.0547,0.0024-21.8636-9.8065-21.8612-21.8613c0-6.0285,2.4516-11.492,6.4116-15.452
				C178.0482,267.0669,183.5117,264.6153,189.5403,264.6153z M197.5344,286.4765c0-1.4078-0.3711-2.7892-1.0702-3.9959
				c-1.4269-2.466-4.0797-3.9983-6.924-3.9983c-4.4005-0.0048-7.9918,3.5817-7.9942,7.9941
				c0.0024,4.4077,3.5865,7.9918,7.9942,7.9942c2.2027,0,4.2018-0.8978,5.6479-2.3439
				C196.6366,290.6783,197.5344,288.6792,197.5344,286.4765z"/>
			<g>
				<defs>
					<path id="SVGID_9_" d="M195.1881,292.1268c-1.4461,1.4461-3.4452,2.3439-5.6479,2.3439
						c-4.4077-0.0024-7.9918-3.5865-7.9942-7.9942c0.0024-4.4125,3.5937-7.9989,7.9942-7.9941c2.8443,0,5.497,1.5323,6.924,3.9983
						c0.6991,1.2067,1.0702,2.5881,1.0702,3.9959C197.5344,288.6792,196.6366,290.6783,195.1881,292.1268z"/>
				</defs>
				<clipPath id="SVGID_10_">
					<use xlink:href="#SVGID_9_"  style="overflow:visible;"/>
				</clipPath>
				<path style="clip-path:url(#SVGID_10_);fill:#FFFFFF;" d="M190.5209,279.463c-4.4005-0.0048-7.9918,3.5817-7.9942,7.9941
					c0.0011,1.9547,0.7088,3.7452,1.8782,5.1354c-1.7446-1.4674-2.8575-3.6631-2.8588-6.1161
					c0.0024-4.4125,3.5936-7.999,7.9942-7.9941c2.3802-0.0001,4.616,1.0833,6.1218,2.8788
					C194.239,280.164,192.4279,279.463,190.5209,279.463z"/>
				<path style="opacity:0.13;clip-path:url(#SVGID_10_);fill:#020202;" d="M190.5209,279.463
					c-4.4005-0.0048-7.9918,3.5817-7.9942,7.9941c0.0011,1.9547,0.7088,3.7452,1.8782,5.1354
					c-1.7446-1.4674-2.8575-3.6631-2.8588-6.1161c0.0024-4.4125,3.5936-7.999,7.9942-7.9941
					c2.3802-0.0001,4.616,1.0833,6.1218,2.8788C194.239,280.164,192.4279,279.463,190.5209,279.463z"/>
			</g>
			<g>
				<defs>
					<path id="SVGID_11_" d="M189.5403,264.6153c7.7763,0,15.0283,4.1826,18.926,10.9151
						c1.9201,3.3135,2.9377,7.0987,2.9353,10.9462c0.0024,12.0643-9.8065,21.8636-21.8613,21.8613
						c-12.0547,0.0024-21.8636-9.8065-21.8612-21.8613c0-6.0285,2.4516-11.492,6.4116-15.452
						C178.0482,267.0669,183.5117,264.6153,189.5403,264.6153z M197.5344,286.4765c0-1.4078-0.3711-2.7892-1.0702-3.9959
						c-1.4269-2.466-4.0797-3.9983-6.924-3.9983c-4.4005-0.0048-7.9918,3.5817-7.9942,7.9941
						c0.0024,4.4077,3.5865,7.9918,7.9942,7.9942c2.2027,0,4.2018-0.8978,5.6479-2.3439
						C196.6366,290.6783,197.5344,288.6792,197.5344,286.4765z"/>
				</defs>
				<clipPath id="SVGID_12_">
					<use xlink:href="#SVGID_11_"  style="overflow:visible;"/>
				</clipPath>
				<path style="clip-path:url(#SVGID_12_);fill:#56A55C;" d="M173.11,270.0439c-3.96,3.96-6.4116,9.4235-6.4116,15.452
					c-0.0024,12.0547,9.8066,21.8636,21.8613,21.8613c12.0547,0.0024,21.8636-9.797,21.8613-21.8613
					c0.0024-3.8474-1.0151-7.6326-2.9353-10.9462c-3.8977-6.7325-11.1497-10.9151-18.926-10.9151
					C182.5311,263.6346,177.0676,266.0863,173.11,270.0439z"/>
			</g>
		</g>
		<rect x="199.3456" y="279.5436" style="fill:#56A55C;" width="122.6266" height="13.8671"/>
	</g>
	<g>
		<g>
			<path style="fill:#F1BC42;" d="M189.0874,318.7208l0.0012-0.0012c7.7751,0.0012,15.0295,4.1862,18.932,10.9234
				c1.9177,3.3159,2.9305,7.1011,2.9293,10.9378c0,5.8394-2.2733,11.3305-6.4032,15.4604
				c-4.1288,4.1288-9.6186,6.4032-15.458,6.4032c-5.8394,0-11.328-2.2733-15.458-6.4032c-4.13-4.1299-6.4032-9.6186-6.4056-15.4628
				c0.0012-6.025,2.454-11.4897,6.4116-15.4472C177.5953,321.1724,183.0601,318.7196,189.0874,318.7208z M197.0804,340.5784
				c0.0012-1.4042-0.3687-2.7868-1.063-3.9887c-1.4293-2.4684-4.0833-3.9995-6.9299-4.0019c-4.4077,0.0024-7.993,3.5877-7.993,7.993
				c0,2.1356,0.832,4.1431,2.3427,5.6539c1.5083,1.5083,3.5159,2.3403,5.6503,2.3415c2.1356,0,4.1443-0.8308,5.6539-2.3403
				S197.0816,342.7176,197.0804,340.5784z"/>
			<path style="opacity:0.3;fill:#FFFFFF;" d="M189.0898,318.7214c7.7763,0,15.0283,4.1826,18.926,10.915
				c1.9201,3.3136,2.9377,7.0988,2.9353,10.9462c0.0024,12.0643-9.8065,21.8636-21.8613,21.8612
				c-12.0547,0.0024-21.8636-9.8065-21.8612-21.8612c0-6.0285,2.4516-11.4921,6.4116-15.452
				C177.5977,321.173,183.0612,318.7214,189.0898,318.7214z M197.0839,340.5826c0-1.4078-0.3711-2.7892-1.0702-3.9959
				c-1.4269-2.466-4.0797-3.9983-6.924-3.9983c-4.4005-0.0048-7.9918,3.5817-7.9942,7.9942
				c0.0024,4.4077,3.5865,7.9918,7.9942,7.9942c2.2027,0,4.2018-0.8978,5.6479-2.3439
				C196.1861,344.7844,197.0839,342.7853,197.0839,340.5826z"/>
			<g>
				<defs>
					<path id="SVGID_13_" d="M194.7376,346.2329c-1.4461,1.4461-3.4452,2.3439-5.6479,2.3439
						c-4.4077-0.0024-7.9918-3.5865-7.9942-7.9942c0.0024-4.4125,3.5937-7.999,7.9942-7.9942c2.8443,0,5.497,1.5323,6.924,3.9983
						c0.6991,1.2067,1.0702,2.5881,1.0702,3.9959C197.0839,342.7853,196.1861,344.7844,194.7376,346.2329z"/>
				</defs>
				<clipPath id="SVGID_14_">
					<use xlink:href="#SVGID_13_"  style="overflow:visible;"/>
				</clipPath>
				<path style="clip-path:url(#SVGID_14_);fill:#FFFFFF;" d="M190.0704,333.5691c-4.4005-0.0048-7.9918,3.5817-7.9942,7.9942
					c0.0011,1.9547,0.7088,3.7452,1.8782,5.1354c-1.7447-1.4674-2.8575-3.6631-2.8588-6.1161
					c0.0024-4.4125,3.5936-7.999,7.9942-7.9942c2.3802-0.0001,4.616,1.0834,6.1218,2.8788
					C193.7885,334.2701,191.9774,333.5691,190.0704,333.5691z"/>
				<path style="opacity:0.13;clip-path:url(#SVGID_14_);fill:#020202;" d="M190.0704,333.5691
					c-4.4005-0.0048-7.9918,3.5817-7.9942,7.9942c0.0011,1.9547,0.7088,3.7452,1.8782,5.1354
					c-1.7447-1.4674-2.8575-3.6631-2.8588-6.1161c0.0024-4.4125,3.5936-7.999,7.9942-7.9942
					c2.3802-0.0001,4.616,1.0834,6.1218,2.8788C193.7885,334.2701,191.9774,333.5691,190.0704,333.5691z"/>
			</g>
			<g>
				<defs>
					<path id="SVGID_15_" d="M189.0898,318.7214c7.7763,0,15.0283,4.1826,18.926,10.915c1.9201,3.3136,2.9377,7.0988,2.9353,10.9462
						c0.0024,12.0643-9.8065,21.8636-21.8613,21.8612c-12.0547,0.0024-21.8636-9.8065-21.8612-21.8612
						c0-6.0285,2.4516-11.4921,6.4116-15.452C177.5977,321.173,183.0612,318.7214,189.0898,318.7214z M197.0839,340.5826
						c0-1.4078-0.3711-2.7892-1.0702-3.9959c-1.4269-2.466-4.0797-3.9983-6.924-3.9983c-4.4005-0.0048-7.9918,3.5817-7.9942,7.9942
						c0.0024,4.4077,3.5865,7.9918,7.9942,7.9942c2.2027,0,4.2018-0.8978,5.6479-2.3439
						C196.1861,344.7844,197.0839,342.7853,197.0839,340.5826z"/>
				</defs>
				<clipPath id="SVGID_16_">
					<use xlink:href="#SVGID_15_"  style="overflow:visible;"/>
				</clipPath>
				<path style="clip-path:url(#SVGID_16_);fill:#F1BC42;" d="M172.6595,324.15c-3.96,3.96-6.4116,9.4235-6.4116,15.452
					c-0.0024,12.0547,9.8066,21.8636,21.8613,21.8612c12.0547,0.0024,21.8636-9.797,21.8613-21.8612
					c0.0024-3.8474-1.0151-7.6327-2.9353-10.9462c-3.8977-6.7324-11.1497-10.9151-18.926-10.9151
					C182.0806,317.7407,176.6171,320.1924,172.6595,324.15z"/>
			</g>
		</g>
		<rect x="198.8952" y="333.6497" style="fill:#F1BC42;" width="122.6266" height="13.8671"/>
	</g>
</g>
</svg>
