<svg version="1.1" viewBox="0.0 0.0 600.0 371.0" fill="none" stroke="none" stroke-linecap="square" stroke-miterlimit="10" width="600" height="371" xmlns:xlink="http://www.w3.org/1999/xlink" xmlns="http://www.w3.org/2000/svg"><path fill="#ffffff" d="M0 0L600.0 0L600.0 371.0L0 371.0L0 0Z" fill-rule="nonzero"/><path stroke="#333333" stroke-width="1.0" stroke-linecap="butt" d="M66.5 332.5L581.5 332.5" fill-rule="nonzero"/><path stroke="#cccccc" stroke-width="1.0" stroke-linecap="butt" d="M66.5 283.5L581.5 283.5" fill-rule="nonzero"/><path stroke="#cccccc" stroke-width="1.0" stroke-linecap="butt" d="M66.5 234.5L581.5 234.5" fill-rule="nonzero"/><path stroke="#cccccc" stroke-width="1.0" stroke-linecap="butt" d="M66.5 185.5L581.5 185.5" fill-rule="nonzero"/><path stroke="#cccccc" stroke-width="1.0" stroke-linecap="butt" d="M66.5 137.5L581.5 137.5" fill-rule="nonzero"/><path stroke="#cccccc" stroke-width="1.0" stroke-linecap="butt" d="M66.5 88.5L581.5 88.5" fill-rule="nonzero"/><clipPath id="id_0"><path d="M66.55 88.28333L581.45 88.28333L581.45 332.45L66.55 332.45L66.55 88.28333Z" clip-rule="nonzero"/></clipPath><path stroke="#000000" stroke-width="2.0" stroke-linecap="butt" stroke-opacity="0.0" clip-path="url(#id_0)" d="M323.0 332.0L201.0 332.0L201.0 128.0C201.0 126.89543 201.89543 126.0 203.0 126.0L321.0 126.0C322.10458 126.0 323.0 126.89543 323.0 128.0Z" fill-rule="nonzero"/><path fill="#5891ad" clip-path="url(#id_0)" d="M323.0 332.0L201.0 332.0L201.0 128.0C201.0 126.89543 201.89543 126.0 203.0 126.0L321.0 126.0C322.10458 126.0 323.0 126.89543 323.0 128.0Z" fill-rule="nonzero"/><path stroke="#000000" stroke-width="2.0" stroke-linecap="butt" stroke-opacity="0.0" clip-path="url(#id_0)" d="M447.0 332.0L325.0 332.0L325.0 225.0C325.0 223.89543 325.89542 223.0 327.0 223.0L445.0 223.0C446.10458 223.0 447.0 223.89543 447.0 225.0Z" fill-rule="nonzero"/><path fill="#004561" clip-path="url(#id_0)" d="M447.0 332.0L325.0 332.0L325.0 225.0C325.0 223.89543 325.89542 223.0 327.0 223.0L445.0 223.0C446.10458 223.0 447.0 223.89543 447.0 225.0Z" fill-rule="nonzero"/><path fill="#000000" d="M26.05 332.21564Q26.05 330.6844 26.3625 329.7625Q26.675 328.825 27.284374 328.325Q27.909374 327.825 28.846874 327.825Q29.534374 327.825 30.05 328.10626Q30.58125 328.3875 30.925 328.91876Q31.26875 329.4344 31.45625 330.1844Q31.64375 330.9344 31.64375 332.21564Q31.64375 333.73126 31.33125 334.65314Q31.034374 335.575 30.409374 336.09064Q29.8 336.59064 28.846874 336.59064Q27.6125 336.59064 26.89375 335.7Q26.05 334.6375 26.05 332.21564ZM27.128124 332.21564Q27.128124 334.325 27.628124 335.02814Q28.128124 335.73126 28.846874 335.73126Q29.58125 335.73126 30.065624 335.02814Q30.565624 334.325 30.565624 332.21564Q30.565624 330.09064 30.065624 329.40314Q29.58125 328.7 28.83125 328.7Q28.1125 328.7 27.675 329.3094Q27.128124 330.09064 27.128124 332.21564ZM33.64375 336.45L33.64375 335.2469L34.846874 335.2469L34.846874 336.45L33.64375 336.45ZM36.05 332.21564Q36.05 330.6844 36.3625 329.7625Q36.675 328.825 37.284374 328.325Q37.909374 327.825 38.846874 327.825Q39.534374 327.825 40.05 328.10626Q40.58125 328.3875 40.925 328.91876Q41.26875 329.4344 41.45625 330.1844Q41.64375 330.9344 41.64375 332.21564Q41.64375 333.73126 41.33125 334.65314Q41.034374 335.575 40.409374 336.09064Q39.8 336.59064 38.846874 336.59064Q37.6125 336.59064 36.89375 335.7Q36.05 334.6375 36.05 332.21564ZM37.128124 332.21564Q37.128124 334.325 37.628124 335.02814Q38.128124 335.73126 38.846874 335.73126Q39.58125 335.73126 40.065624 335.02814Q40.565624 334.325 40.565624 332.21564Q40.565624 330.09064 40.065624 329.40314Q39.58125 328.7 38.83125 328.7Q38.1125 328.7 37.675 329.3094Q37.128124 330.09064 37.128124 332.21564ZM43.05 332.21564Q43.05 330.6844 43.3625 329.7625Q43.675 328.825 44.284374 328.325Q44.909374 327.825 45.846874 327.825Q46.534374 327.825 47.05 328.10626Q47.58125 328.3875 47.925 328.91876Q48.26875 329.4344 48.45625 330.1844Q48.64375 330.9344 48.64375 332.21564Q48.64375 333.73126 48.33125 334.65314Q48.034374 335.575 47.409374 336.09064Q46.8 336.59064 45.846874 336.59064Q44.6125 336.59064 43.89375 335.7Q43.05 334.6375 43.05 332.21564ZM44.128124 332.21564Q44.128124 334.325 44.628124 335.02814Q45.128124 335.73126 45.846874 335.73126Q46.58125 335.73126 47.065624 335.02814Q47.565624 334.325 47.565624 332.21564Q47.565624 330.09064 47.065624 329.40314Q46.58125 328.7 45.83125 328.7Q45.1125 328.7 44.675 329.3094Q44.128124 330.09064 44.128124 332.21564ZM50.253124 329.91876Q50.253124 328.9969 50.70625 328.35626Q51.175 327.71564 52.05 327.71564Q52.8625 327.71564 53.39375 328.29376Q53.925 328.8719 53.925 329.98126Q53.925 331.075 53.378124 331.66876Q52.846874 332.2469 52.065624 332.2469Q51.284374 332.2469 50.76875 331.66876Q50.253124 331.09064 50.253124 329.91876ZM52.08125 328.4344Q51.690624 328.4344 51.425 328.77814Q51.175 329.1219 51.175 330.02814Q51.175 330.85626 51.425 331.2Q51.690624 331.52814 52.08125 331.52814Q52.4875 331.52814 52.7375 331.1844Q53.003124 330.84064 53.003124 329.95Q53.003124 329.10626 52.7375 328.77814Q52.471874 328.4344 52.08125 328.4344ZM52.08125 336.7625L56.784374 327.71564L57.64375 327.71564L52.95625 336.7625L52.08125 336.7625ZM55.8 334.4344Q55.8 333.5125 56.253124 332.8719Q56.721874 332.23126 57.6125 332.23126Q58.425 332.23126 58.95625 332.8094Q59.4875 333.3719 59.4875 334.4969Q59.4875 335.59064 58.940624 336.1844Q58.409374 336.7625 57.6125 336.7625Q56.846874 336.7625 56.315624 336.1844Q55.8 335.60626 55.8 334.4344ZM57.64375 332.95Q57.2375 332.95 56.971874 333.29376Q56.721874 333.6375 56.721874 334.54376Q56.721874 335.35626 56.9875 335.7Q57.253124 336.04376 57.64375 336.04376Q58.034374 336.04376 58.3 335.7Q58.565624 335.35626 58.565624 334.45Q58.565624 333.6219 58.3 333.29376Q58.034374 332.95 57.64375 332.95Z" fill-rule="nonzero"/><path fill="#000000" d="M23.01875 287.61667L21.971874 287.61667L21.971874 280.89792Q21.58125 281.2573 20.95625 281.6323Q20.346874 281.99167 19.8625 282.16354L19.8625 281.14792Q20.7375 280.72604 21.39375 280.14792Q22.065624 279.55417 22.346874 278.99167L23.01875 278.99167L23.01875 287.61667ZM26.05 283.3823Q26.05 281.85104 26.3625 280.92917Q26.675 279.99167 27.284374 279.49167Q27.909374 278.99167 28.846874 278.99167Q29.534374 278.99167 30.05 279.27292Q30.58125 279.55417 30.925 280.08542Q31.26875 280.60104 31.45625 281.35104Q31.64375 282.10104 31.64375 283.3823Q31.64375 284.89792 31.33125 285.8198Q31.034374 286.74167 30.409374 287.2573Q29.8 287.7573 28.846874 287.7573Q27.6125 287.7573 26.89375 286.86667Q26.05 285.80417 26.05 283.3823ZM27.128124 283.3823Q27.128124 285.49167 27.628124 286.1948Q28.128124 286.89792 28.846874 286.89792Q29.58125 286.89792 30.065624 286.1948Q30.565624 285.49167 30.565624 283.3823Q30.565624 281.2573 30.065624 280.5698Q29.58125 279.86667 28.83125 279.86667Q28.1125 279.86667 27.675 280.47604Q27.128124 281.2573 27.128124 283.3823ZM33.64375 287.61667L33.64375 286.41354L34.846874 286.41354L34.846874 287.61667L33.64375 287.61667ZM36.05 283.3823Q36.05 281.85104 36.3625 280.92917Q36.675 279.99167 37.284374 279.49167Q37.909374 278.99167 38.846874 278.99167Q39.534374 278.99167 40.05 279.27292Q40.58125 279.55417 40.925 280.08542Q41.26875 280.60104 41.45625 281.35104Q41.64375 282.10104 41.64375 283.3823Q41.64375 284.89792 41.33125 285.8198Q41.034374 286.74167 40.409374 287.2573Q39.8 287.7573 38.846874 287.7573Q37.6125 287.7573 36.89375 286.86667Q36.05 285.80417 36.05 283.3823ZM37.128124 283.3823Q37.128124 285.49167 37.628124 286.1948Q38.128124 286.89792 38.846874 286.89792Q39.58125 286.89792 40.065624 286.1948Q40.565624 285.49167 40.565624 283.3823Q40.565624 281.2573 40.065624 280.5698Q39.58125 279.86667 38.83125 279.86667Q38.1125 279.86667 37.675 280.47604Q37.128124 281.2573 37.128124 283.3823ZM43.05 283.3823Q43.05 281.85104 43.3625 280.92917Q43.675 279.99167 44.284374 279.49167Q44.909374 278.99167 45.846874 278.99167Q46.534374 278.99167 47.05 279.27292Q47.58125 279.55417 47.925 280.08542Q48.26875 280.60104 48.45625 281.35104Q48.64375 282.10104 48.64375 283.3823Q48.64375 284.89792 48.33125 285.8198Q48.034374 286.74167 47.409374 287.2573Q46.8 287.7573 45.846874 287.7573Q44.6125 287.7573 43.89375 286.86667Q43.05 285.80417 43.05 283.3823ZM44.128124 283.3823Q44.128124 285.49167 44.628124 286.1948Q45.128124 286.89792 45.846874 286.89792Q46.58125 286.89792 47.065624 286.1948Q47.565624 285.49167 47.565624 283.3823Q47.565624 281.2573 47.065624 280.5698Q46.58125 279.86667 45.83125 279.86667Q45.1125 279.86667 44.675 280.47604Q44.128124 281.2573 44.128124 283.3823ZM50.253124 281.08542Q50.253124 280.16354 50.70625 279.52292Q51.175 278.8823 52.05 278.8823Q52.8625 278.8823 53.39375 279.46042Q53.925 280.03854 53.925 281.14792Q53.925 282.24167 53.378124 282.83542Q52.846874 283.41354 52.065624 283.41354Q51.284374 283.41354 50.76875 282.83542Q50.253124 282.2573 50.253124 281.08542ZM52.08125 279.60104Q51.690624 279.60104 51.425 279.9448Q51.175 280.28854 51.175 281.1948Q51.175 282.02292 51.425 282.36667Q51.690624 282.6948 52.08125 282.6948Q52.4875 282.6948 52.7375 282.35104Q53.003124 282.0073 53.003124 281.11667Q53.003124 280.27292 52.7375 279.9448Q52.471874 279.60104 52.08125 279.60104ZM52.08125 287.92917L56.784374 278.8823L57.64375 278.8823L52.95625 287.92917L52.08125 287.92917ZM55.8 285.60104Q55.8 284.67917 56.253124 284.03854Q56.721874 283.39792 57.6125 283.39792Q58.425 283.39792 58.95625 283.97604Q59.4875 284.53854 59.4875 285.66354Q59.4875 286.7573 58.940624 287.35104Q58.409374 287.92917 57.6125 287.92917Q56.846874 287.92917 56.315624 287.35104Q55.8 286.77292 55.8 285.60104ZM57.64375 284.11667Q57.2375 284.11667 56.971874 284.46042Q56.721874 284.80417 56.721874 285.71042Q56.721874 286.52292 56.9875 286.86667Q57.253124 287.21042 57.64375 287.21042Q58.034374 287.21042 58.3 286.86667Q58.565624 286.52292 58.565624 285.61667Q58.565624 284.78854 58.3 284.46042Q58.034374 284.11667 57.64375 284.11667Z" fill-rule="nonzero"/><path fill="#000000" d="M24.596874 237.76772L24.596874 238.78334L18.909374 238.78334Q18.909374 238.40834 19.034374 238.04897Q19.253124 237.47084 19.721874 236.90834Q20.20625 236.34584 21.1125 235.61147Q22.51875 234.45522 23.003124 233.78334Q23.503124 233.11147 23.503124 232.51772Q23.503124 231.89272 23.05 231.47084Q22.596874 231.03334 21.878124 231.03334Q21.1125 231.03334 20.659374 231.48647Q20.20625 231.93959 20.190624 232.75209L19.1125 232.64272Q19.221874 231.42397 19.940624 230.79897Q20.675 230.15834 21.909374 230.15834Q23.14375 230.15834 23.8625 230.84584Q24.58125 231.53334 24.58125 232.54897Q24.58125 233.06459 24.3625 233.56459Q24.159374 234.04897 23.659374 234.61147Q23.175 235.15834 22.05 236.11147Q21.096874 236.90834 20.815624 237.20522Q20.55 237.48647 20.378124 237.76772L24.596874 237.76772ZM26.05 234.54897Q26.05 233.01772 26.3625 232.09584Q26.675 231.15834 27.284374 230.65834Q27.909374 230.15834 28.846874 230.15834Q29.534374 230.15834 30.05 230.43959Q30.58125 230.72084 30.925 231.25209Q31.26875 231.76772 31.45625 232.51772Q31.64375 233.26772 31.64375 234.54897Q31.64375 236.06459 31.33125 236.98647Q31.034374 237.90834 30.409374 238.42397Q29.8 238.92397 28.846874 238.92397Q27.6125 238.92397 26.89375 238.03334Q26.05 236.97084 26.05 234.54897ZM27.128124 234.54897Q27.128124 236.65834 27.628124 237.36147Q28.128124 238.06459 28.846874 238.06459Q29.58125 238.06459 30.065624 237.36147Q30.565624 236.65834 30.565624 234.54897Q30.565624 232.42397 30.065624 231.73647Q29.58125 231.03334 28.83125 231.03334Q28.1125 231.03334 27.675 231.64272Q27.128124 232.42397 27.128124 234.54897ZM33.64375 238.78334L33.64375 237.58022L34.846874 237.58022L34.846874 238.78334L33.64375 238.78334ZM36.05 234.54897Q36.05 233.01772 36.3625 232.09584Q36.675 231.15834 37.284374 230.65834Q37.909374 230.15834 38.846874 230.15834Q39.534374 230.15834 40.05 230.43959Q40.58125 230.72084 40.925 231.25209Q41.26875 231.76772 41.45625 232.51772Q41.64375 233.26772 41.64375 234.54897Q41.64375 236.06459 41.33125 236.98647Q41.034374 237.90834 40.409374 238.42397Q39.8 238.92397 38.846874 238.92397Q37.6125 238.92397 36.89375 238.03334Q36.05 236.97084 36.05 234.54897ZM37.128124 234.54897Q37.128124 236.65834 37.628124 237.36147Q38.128124 238.06459 38.846874 238.06459Q39.58125 238.06459 40.065624 237.36147Q40.565624 236.65834 40.565624 234.54897Q40.565624 232.42397 40.065624 231.73647Q39.58125 231.03334 38.83125 231.03334Q38.1125 231.03334 37.675 231.64272Q37.128124 232.42397 37.128124 234.54897ZM43.05 234.54897Q43.05 233.01772 43.3625 232.09584Q43.675 231.15834 44.284374 230.65834Q44.909374 230.15834 45.846874 230.15834Q46.534374 230.15834 47.05 230.43959Q47.58125 230.72084 47.925 231.25209Q48.26875 231.76772 48.45625 232.51772Q48.64375 233.26772 48.64375 234.54897Q48.64375 236.06459 48.33125 236.98647Q48.034374 237.90834 47.409374 238.42397Q46.8 238.92397 45.846874 238.92397Q44.6125 238.92397 43.89375 238.03334Q43.05 236.97084 43.05 234.54897ZM44.128124 234.54897Q44.128124 236.65834 44.628124 237.36147Q45.128124 238.06459 45.846874 238.06459Q46.58125 238.06459 47.065624 237.36147Q47.565624 236.65834 47.565624 234.54897Q47.565624 232.42397 47.065624 231.73647Q46.58125 231.03334 45.83125 231.03334Q45.1125 231.03334 44.675 231.64272Q44.128124 232.42397 44.128124 234.54897ZM50.253124 232.25209Q50.253124 231.33022 50.70625 230.68959Q51.175 230.04897 52.05 230.04897Q52.8625 230.04897 53.39375 230.62709Q53.925 231.20522 53.925 232.31459Q53.925 233.40834 53.378124 234.00209Q52.846874 234.58022 52.065624 234.58022Q51.284374 234.58022 50.76875 234.00209Q50.253124 233.42397 50.253124 232.25209ZM52.08125 230.76772Q51.690624 230.76772 51.425 231.11147Q51.175 231.45522 51.175 232.36147Q51.175 233.18959 51.425 233.53334Q51.690624 233.86147 52.08125 233.86147Q52.4875 233.86147 52.7375 233.51772Q53.003124 233.17397 53.003124 232.28334Q53.003124 231.43959 52.7375 231.11147Q52.471874 230.76772 52.08125 230.76772ZM52.08125 239.09584L56.784374 230.04897L57.64375 230.04897L52.95625 239.09584L52.08125 239.09584ZM55.8 236.76772Q55.8 235.84584 56.253124 235.20522Q56.721874 234.56459 57.6125 234.56459Q58.425 234.56459 58.95625 235.14272Q59.4875 235.70522 59.4875 236.83022Q59.4875 237.92397 58.940624 238.51772Q58.409374 239.09584 57.6125 239.09584Q56.846874 239.09584 56.315624 238.51772Q55.8 237.93959 55.8 236.76772ZM57.64375 235.28334Q57.2375 235.28334 56.971874 235.62709Q56.721874 235.97084 56.721874 236.87709Q56.721874 237.68959 56.9875 238.03334Q57.253124 238.37709 57.64375 238.37709Q58.034374 238.37709 58.3 238.03334Q58.565624 237.68959 58.565624 236.78334Q58.565624 235.95522 58.3 235.62709Q58.034374 235.28334 57.64375 235.28334Z" fill-rule="nonzero"/><path fill="#000000" d="M19.05 187.68437L20.1125 187.54375Q20.284374 188.43437 20.721874 188.84062Q21.159374 189.23125 21.784374 189.23125Q22.534374 189.23125 23.05 188.71562Q23.565624 188.2 23.565624 187.43437Q23.565624 186.71562 23.08125 186.24687Q22.6125 185.7625 21.878124 185.7625Q21.58125 185.7625 21.128124 185.8875L21.253124 184.95Q21.3625 184.96562 21.425 184.96562Q22.096874 184.96562 22.628124 184.62187Q23.175 184.2625 23.175 183.52812Q23.175 182.95 22.784374 182.575Q22.39375 182.18437 21.76875 182.18437Q21.159374 182.18437 20.7375 182.575Q20.33125 182.96562 20.221874 183.73125L19.159374 183.54375Q19.346874 182.49687 20.034374 181.91875Q20.721874 181.325 21.7375 181.325Q22.440624 181.325 23.034374 181.6375Q23.628124 181.93437 23.940624 182.45Q24.253124 182.96562 24.253124 183.55937Q24.253124 184.10625 23.95625 184.575Q23.659374 185.02812 23.08125 185.29375Q23.83125 185.46562 24.253124 186.02812Q24.675 186.575 24.675 187.41875Q24.675 188.54375 23.846874 189.325Q23.034374 190.10625 21.784374 190.10625Q20.659374 190.10625 19.909374 189.43437Q19.159374 188.74687 19.05 187.68437ZM26.05 185.71562Q26.05 184.18437 26.3625 183.2625Q26.675 182.325 27.284374 181.825Q27.909374 181.325 28.846874 181.325Q29.534374 181.325 30.05 181.60625Q30.58125 181.8875 30.925 182.41875Q31.26875 182.93437 31.45625 183.68437Q31.64375 184.43437 31.64375 185.71562Q31.64375 187.23125 31.33125 188.15312Q31.034374 189.075 30.409374 189.59062Q29.8 190.09062 28.846874 190.09062Q27.6125 190.09062 26.89375 189.2Q26.05 188.1375 26.05 185.71562ZM27.128124 185.71562Q27.128124 187.825 27.628124 188.52812Q28.128124 189.23125 28.846874 189.23125Q29.58125 189.23125 30.065624 188.52812Q30.565624 187.825 30.565624 185.71562Q30.565624 183.59062 30.065624 182.90312Q29.58125 182.2 28.83125 182.2Q28.1125 182.2 27.675 182.80937Q27.128124 183.59062 27.128124 185.71562ZM33.64375 189.95L33.64375 188.74687L34.846874 188.74687L34.846874 189.95L33.64375 189.95ZM36.05 185.71562Q36.05 184.18437 36.3625 183.2625Q36.675 182.325 37.284374 181.825Q37.909374 181.325 38.846874 181.325Q39.534374 181.325 40.05 181.60625Q40.58125 181.8875 40.925 182.41875Q41.26875 182.93437 41.45625 183.68437Q41.64375 184.43437 41.64375 185.71562Q41.64375 187.23125 41.33125 188.15312Q41.034374 189.075 40.409374 189.59062Q39.8 190.09062 38.846874 190.09062Q37.6125 190.09062 36.89375 189.2Q36.05 188.1375 36.05 185.71562ZM37.128124 185.71562Q37.128124 187.825 37.628124 188.52812Q38.128124 189.23125 38.846874 189.23125Q39.58125 189.23125 40.065624 188.52812Q40.565624 187.825 40.565624 185.71562Q40.565624 183.59062 40.065624 182.90312Q39.58125 182.2 38.83125 182.2Q38.1125 182.2 37.675 182.80937Q37.128124 183.59062 37.128124 185.71562ZM43.05 185.71562Q43.05 184.18437 43.3625 183.2625Q43.675 182.325 44.284374 181.825Q44.909374 181.325 45.846874 181.325Q46.534374 181.325 47.05 181.60625Q47.58125 181.8875 47.925 182.41875Q48.26875 182.93437 48.45625 183.68437Q48.64375 184.43437 48.64375 185.71562Q48.64375 187.23125 48.33125 188.15312Q48.034374 189.075 47.409374 189.59062Q46.8 190.09062 45.846874 190.09062Q44.6125 190.09062 43.89375 189.2Q43.05 188.1375 43.05 185.71562ZM44.128124 185.71562Q44.128124 187.825 44.628124 188.52812Q45.128124 189.23125 45.846874 189.23125Q46.58125 189.23125 47.065624 188.52812Q47.565624 187.825 47.565624 185.71562Q47.565624 183.59062 47.065624 182.90312Q46.58125 182.2 45.83125 182.2Q45.1125 182.2 44.675 182.80937Q44.128124 183.59062 44.128124 185.71562ZM50.253124 183.41875Q50.253124 182.49687 50.70625 181.85625Q51.175 181.21562 52.05 181.21562Q52.8625 181.21562 53.39375 181.79375Q53.925 182.37187 53.925 183.48125Q53.925 184.575 53.378124 185.16875Q52.846874 185.74687 52.065624 185.74687Q51.284374 185.74687 50.76875 185.16875Q50.253124 184.59062 50.253124 183.41875ZM52.08125 181.93437Q51.690624 181.93437 51.425 182.27812Q51.175 182.62187 51.175 183.52812Q51.175 184.35625 51.425 184.7Q51.690624 185.02812 52.08125 185.02812Q52.4875 185.02812 52.7375 184.68437Q53.003124 184.34062 53.003124 183.45Q53.003124 182.60625 52.7375 182.27812Q52.471874 181.93437 52.08125 181.93437ZM52.08125 190.2625L56.784374 181.21562L57.64375 181.21562L52.95625 190.2625L52.08125 190.2625ZM55.8 187.93437Q55.8 187.0125 56.253124 186.37187Q56.721874 185.73125 57.6125 185.73125Q58.425 185.73125 58.95625 186.30937Q59.4875 186.87187 59.4875 187.99687Q59.4875 189.09062 58.940624 189.68437Q58.409374 190.2625 57.6125 190.2625Q56.846874 190.2625 56.315624 189.68437Q55.8 189.10625 55.8 187.93437ZM57.64375 186.45Q57.2375 186.45 56.971874 186.79375Q56.721874 187.1375 56.721874 188.04375Q56.721874 188.85625 56.9875 189.2Q57.253124 189.54375 57.64375 189.54375Q58.034374 189.54375 58.3 189.2Q58.565624 188.85625 58.565624 187.95Q58.565624 187.12187 58.3 186.79375Q58.034374 186.45 57.64375 186.45Z" fill-rule="nonzero"/><path fill="#000000" d="M22.425 141.11667L22.425 139.05417L18.70625 139.05417L18.70625 138.08542L22.628124 132.52292L23.4875 132.52292L23.4875 138.08542L24.64375 138.08542L24.64375 139.05417L23.4875 139.05417L23.4875 141.11667L22.425 141.11667ZM22.425 138.08542L22.425 134.22604L19.7375 138.08542L22.425 138.08542ZM26.05 136.8823Q26.05 135.35104 26.3625 134.42917Q26.675 133.49167 27.284374 132.99167Q27.909374 132.49167 28.846874 132.49167Q29.534374 132.49167 30.05 132.77292Q30.58125 133.05417 30.925 133.58542Q31.26875 134.10104 31.45625 134.85104Q31.64375 135.60104 31.64375 136.8823Q31.64375 138.39792 31.33125 139.3198Q31.034374 140.24167 30.409374 140.7573Q29.8 141.2573 28.846874 141.2573Q27.6125 141.2573 26.89375 140.36667Q26.05 139.30417 26.05 136.8823ZM27.128124 136.8823Q27.128124 138.99167 27.628124 139.6948Q28.128124 140.39792 28.846874 140.39792Q29.58125 140.39792 30.065624 139.6948Q30.565624 138.99167 30.565624 136.8823Q30.565624 134.7573 30.065624 134.0698Q29.58125 133.36667 28.83125 133.36667Q28.1125 133.36667 27.675 133.97604Q27.128124 134.7573 27.128124 136.8823ZM33.64375 141.11667L33.64375 139.91354L34.846874 139.91354L34.846874 141.11667L33.64375 141.11667ZM36.05 136.8823Q36.05 135.35104 36.3625 134.42917Q36.675 133.49167 37.284374 132.99167Q37.909374 132.49167 38.846874 132.49167Q39.534374 132.49167 40.05 132.77292Q40.58125 133.05417 40.925 133.58542Q41.26875 134.10104 41.45625 134.85104Q41.64375 135.60104 41.64375 136.8823Q41.64375 138.39792 41.33125 139.3198Q41.034374 140.24167 40.409374 140.7573Q39.8 141.2573 38.846874 141.2573Q37.6125 141.2573 36.89375 140.36667Q36.05 139.30417 36.05 136.8823ZM37.128124 136.8823Q37.128124 138.99167 37.628124 139.6948Q38.128124 140.39792 38.846874 140.39792Q39.58125 140.39792 40.065624 139.6948Q40.565624 138.99167 40.565624 136.8823Q40.565624 134.7573 40.065624 134.0698Q39.58125 133.36667 38.83125 133.36667Q38.1125 133.36667 37.675 133.97604Q37.128124 134.7573 37.128124 136.8823ZM43.05 136.8823Q43.05 135.35104 43.3625 134.42917Q43.675 133.49167 44.284374 132.99167Q44.909374 132.49167 45.846874 132.49167Q46.534374 132.49167 47.05 132.77292Q47.58125 133.05417 47.925 133.58542Q48.26875 134.10104 48.45625 134.85104Q48.64375 135.60104 48.64375 136.8823Q48.64375 138.39792 48.33125 139.3198Q48.034374 140.24167 47.409374 140.7573Q46.8 141.2573 45.846874 141.2573Q44.6125 141.2573 43.89375 140.36667Q43.05 139.30417 43.05 136.8823ZM44.128124 136.8823Q44.128124 138.99167 44.628124 139.6948Q45.128124 140.39792 45.846874 140.39792Q46.58125 140.39792 47.065624 139.6948Q47.565624 138.99167 47.565624 136.8823Q47.565624 134.7573 47.065624 134.0698Q46.58125 133.36667 45.83125 133.36667Q45.1125 133.36667 44.675 133.97604Q44.128124 134.7573 44.128124 136.8823ZM50.253124 134.58542Q50.253124 133.66354 50.70625 133.02292Q51.175 132.3823 52.05 132.3823Q52.8625 132.3823 53.39375 132.96042Q53.925 133.53854 53.925 134.64792Q53.925 135.74167 53.378124 136.33542Q52.846874 136.91354 52.065624 136.91354Q51.284374 136.91354 50.76875 136.33542Q50.253124 135.7573 50.253124 134.58542ZM52.08125 133.10104Q51.690624 133.10104 51.425 133.4448Q51.175 133.78854 51.175 134.6948Q51.175 135.52292 51.425 135.86667Q51.690624 136.1948 52.08125 136.1948Q52.4875 136.1948 52.7375 135.85104Q53.003124 135.5073 53.003124 134.61667Q53.003124 133.77292 52.7375 133.4448Q52.471874 133.10104 52.08125 133.10104ZM52.08125 141.42917L56.784374 132.3823L57.64375 132.3823L52.95625 141.42917L52.08125 141.42917ZM55.8 139.10104Q55.8 138.17917 56.253124 137.53854Q56.721874 136.89792 57.6125 136.89792Q58.425 136.89792 58.95625 137.47604Q59.4875 138.03854 59.4875 139.16354Q59.4875 140.2573 58.940624 140.85104Q58.409374 141.42917 57.6125 141.42917Q56.846874 141.42917 56.315624 140.85104Q55.8 140.27292 55.8 139.10104ZM57.64375 137.61667Q57.2375 137.61667 56.971874 137.96042Q56.721874 138.30417 56.721874 139.21042Q56.721874 140.02292 56.9875 140.36667Q57.253124 140.71042 57.64375 140.71042Q58.034374 140.71042 58.3 140.36667Q58.565624 140.02292 58.565624 139.11667Q58.565624 138.28854 58.3 137.96042Q58.034374 137.61667 57.64375 137.61667Z" fill-rule="nonzero"/><path fill="#000000" d="M19.05 90.03333L20.159374 89.93958Q20.284374 90.75208 20.721874 91.15833Q21.175 91.56458 21.815624 91.56458Q22.565624 91.56458 23.096874 90.98646Q23.628124 90.40833 23.628124 89.47083Q23.628124 88.56458 23.1125 88.04896Q22.6125 87.51771 21.784374 87.51771Q21.284374 87.51771 20.8625 87.75208Q20.45625 87.98646 20.221874 88.34583L19.2375 88.22083L20.065624 83.81458L24.346874 83.81458L24.346874 84.81458L20.909374 84.81458L20.45625 87.12708Q21.221874 86.58021 22.065624 86.58021Q23.190624 86.58021 23.95625 87.36146Q24.7375 88.14271 24.7375 89.37708Q24.7375 90.53333 24.065624 91.39271Q23.2375 92.42396 21.815624 92.42396Q20.64375 92.42396 19.89375 91.76771Q19.159374 91.11146 19.05 90.03333ZM26.05 88.04896Q26.05 86.51771 26.3625 85.59583Q26.675 84.65833 27.284374 84.15833Q27.909374 83.65833 28.846874 83.65833Q29.534374 83.65833 30.05 83.93958Q30.58125 84.22083 30.925 84.75208Q31.26875 85.26771 31.45625 86.01771Q31.64375 86.76771 31.64375 88.04896Q31.64375 89.56458 31.33125 90.48646Q31.034374 91.40833 30.409374 91.92396Q29.8 92.42396 28.846874 92.42396Q27.6125 92.42396 26.89375 91.53333Q26.05 90.47083 26.05 88.04896ZM27.128124 88.04896Q27.128124 90.15833 27.628124 90.86146Q28.128124 91.56458 28.846874 91.56458Q29.58125 91.56458 30.065624 90.86146Q30.565624 90.15833 30.565624 88.04896Q30.565624 85.92396 30.065624 85.23646Q29.58125 84.53333 28.83125 84.53333Q28.1125 84.53333 27.675 85.14271Q27.128124 85.92396 27.128124 88.04896ZM33.64375 92.28333L33.64375 91.08021L34.846874 91.08021L34.846874 92.28333L33.64375 92.28333ZM36.05 88.04896Q36.05 86.51771 36.3625 85.59583Q36.675 84.65833 37.284374 84.15833Q37.909374 83.65833 38.846874 83.65833Q39.534374 83.65833 40.05 83.93958Q40.58125 84.22083 40.925 84.75208Q41.26875 85.26771 41.45625 86.01771Q41.64375 86.76771 41.64375 88.04896Q41.64375 89.56458 41.33125 90.48646Q41.034374 91.40833 40.409374 91.92396Q39.8 92.42396 38.846874 92.42396Q37.6125 92.42396 36.89375 91.53333Q36.05 90.47083 36.05 88.04896ZM37.128124 88.04896Q37.128124 90.15833 37.628124 90.86146Q38.128124 91.56458 38.846874 91.56458Q39.58125 91.56458 40.065624 90.86146Q40.565624 90.15833 40.565624 88.04896Q40.565624 85.92396 40.065624 85.23646Q39.58125 84.53333 38.83125 84.53333Q38.1125 84.53333 37.675 85.14271Q37.128124 85.92396 37.128124 88.04896ZM43.05 88.04896Q43.05 86.51771 43.3625 85.59583Q43.675 84.65833 44.284374 84.15833Q44.909374 83.65833 45.846874 83.65833Q46.534374 83.65833 47.05 83.93958Q47.58125 84.22083 47.925 84.75208Q48.26875 85.26771 48.45625 86.01771Q48.64375 86.76771 48.64375 88.04896Q48.64375 89.56458 48.33125 90.48646Q48.034374 91.40833 47.409374 91.92396Q46.8 92.42396 45.846874 92.42396Q44.6125 92.42396 43.89375 91.53333Q43.05 90.47083 43.05 88.04896ZM44.128124 88.04896Q44.128124 90.15833 44.628124 90.86146Q45.128124 91.56458 45.846874 91.56458Q46.58125 91.56458 47.065624 90.86146Q47.565624 90.15833 47.565624 88.04896Q47.565624 85.92396 47.065624 85.23646Q46.58125 84.53333 45.83125 84.53333Q45.1125 84.53333 44.675 85.14271Q44.128124 85.92396 44.128124 88.04896ZM50.253124 85.75208Q50.253124 84.83021 50.70625 84.18958Q51.175 83.54896 52.05 83.54896Q52.8625 83.54896 53.39375 84.12708Q53.925 84.70521 53.925 85.81458Q53.925 86.90833 53.378124 87.50208Q52.846874 88.08021 52.065624 88.08021Q51.284374 88.08021 50.76875 87.50208Q50.253124 86.92396 50.253124 85.75208ZM52.08125 84.26771Q51.690624 84.26771 51.425 84.61146Q51.175 84.95521 51.175 85.86146Q51.175 86.68958 51.425 87.03333Q51.690624 87.36146 52.08125 87.36146Q52.4875 87.36146 52.7375 87.01771Q53.003124 86.67396 53.003124 85.78333Q53.003124 84.93958 52.7375 84.61146Q52.471874 84.26771 52.08125 84.26771ZM52.08125 92.59583L56.784374 83.54896L57.64375 83.54896L52.95625 92.59583L52.08125 92.59583ZM55.8 90.26771Q55.8 89.34583 56.253124 88.70521Q56.721874 88.06458 57.6125 88.06458Q58.425 88.06458 58.95625 88.64271Q59.4875 89.20521 59.4875 90.33021Q59.4875 91.42396 58.940624 92.01771Q58.409374 92.59583 57.6125 92.59583Q56.846874 92.59583 56.315624 92.01771Q55.8 91.43958 55.8 90.26771ZM57.64375 88.78333Q57.2375 88.78333 56.971874 89.12708Q56.721874 89.47083 56.721874 90.37708Q56.721874 91.18958 56.9875 91.53333Q57.253124 91.87708 57.64375 91.87708Q58.034374 91.87708 58.3 91.53333Q58.565624 91.18958 58.565624 90.28333Q58.565624 89.45521 58.3 89.12708Q58.034374 88.78333 57.64375 88.78333Z" fill-rule="nonzero"/><path fill="#000000" d="M291.98438 349.45L295.28125 340.85626L296.5 340.85626L300.01562 349.45L298.73438 349.45L297.71875 346.84064L294.14062 346.84064L293.1875 349.45L291.98438 349.45ZM294.46875 345.91876L297.375 345.91876L296.48438 343.54376Q296.0625 342.46564 295.875 341.7625Q295.70312 342.59064 295.40625 343.40314L294.46875 345.91876ZM300.76562 349.45L299.78125 349.45L299.78125 340.85626L300.84375 340.85626L300.84375 343.91876Q301.51562 343.09064 302.54688 343.09064Q303.125 343.09064 303.625 343.325Q304.14062 343.54376 304.46875 343.96564Q304.8125 344.3875 305.0 344.98126Q305.1875 345.575 305.1875 346.2469Q305.1875 347.84064 304.39062 348.71564Q303.59375 349.59064 302.5 349.59064Q301.39062 349.59064 300.76562 348.66876L300.76562 349.45ZM300.75 346.29376Q300.75 347.40314 301.0625 347.90314Q301.5625 348.71564 302.40625 348.71564Q303.09375 348.71564 303.59375 348.1219Q304.10938 347.52814 304.10938 346.325Q304.10938 345.10626 303.625 344.52814Q303.14062 343.95 302.45312 343.95Q301.76562 343.95 301.25 344.5594Q300.75 345.15314 300.75 346.29376ZM306.375 347.59064L307.40625 347.4344Q307.5 348.0594 307.89062 348.3875Q308.29688 348.71564 309.03125 348.71564Q309.75 348.71564 310.09375 348.4344Q310.45312 348.1375 310.45312 347.73126Q310.45312 347.3719 310.14062 347.16876Q309.92188 347.02814 309.0625 346.8094Q307.90625 346.5125 307.45312 346.3094Q307.01562 346.09064 306.78125 345.71564Q306.54688 345.34064 306.54688 344.8719Q306.54688 344.46564 306.73438 344.10626Q306.92188 343.7469 307.25 343.5125Q307.5 343.34064 307.92188 343.21564Q308.34375 343.09064 308.84375 343.09064Q309.5625 343.09064 310.10938 343.3094Q310.67188 343.5125 310.9375 343.8719Q311.20312 344.23126 311.29688 344.825L310.26562 344.96564Q310.20312 344.4969 309.85938 344.23126Q309.53125 343.95 308.90625 343.95Q308.1875 343.95 307.875 344.2Q307.5625 344.4344 307.5625 344.7625Q307.5625 344.96564 307.6875 345.1219Q307.82812 345.29376 308.09375 345.40314Q308.25 345.46564 309.03125 345.66876Q310.15625 345.98126 310.59375 346.16876Q311.03125 346.35626 311.28125 346.71564Q311.53125 347.075 311.53125 347.6219Q311.53125 348.15314 311.21875 348.6219Q310.92188 349.075 310.34375 349.34064Q309.76562 349.59064 309.03125 349.59064Q307.8125 349.59064 307.17188 349.09064Q306.54688 348.575 306.375 347.59064ZM318.04688 347.45L319.14062 347.575Q318.89062 348.52814 318.1875 349.0594Q317.48438 349.59064 316.40625 349.59064Q315.04688 349.59064 314.23438 348.7469Q313.4375 347.90314 313.4375 346.3875Q313.4375 344.825 314.25 343.96564Q315.0625 343.09064 316.34375 343.09064Q317.59375 343.09064 318.375 343.9344Q319.17188 344.77814 319.17188 346.325Q319.17188 346.41876 319.17188 346.60626L314.53125 346.60626Q314.59375 347.6375 315.10938 348.1844Q315.625 348.71564 316.40625 348.71564Q316.98438 348.71564 317.39062 348.41876Q317.8125 348.10626 318.04688 347.45ZM314.59375 345.7469L318.0625 345.7469Q318.0 344.95 317.67188 344.5594Q317.15625 343.95 316.35938 343.95Q315.625 343.95 315.125 344.4344Q314.64062 344.91876 314.59375 345.7469ZM320.79688 342.075L320.79688 340.85626L321.85938 340.85626L321.85938 342.075L320.79688 342.075ZM320.79688 349.45L320.79688 343.23126L321.85938 343.23126L321.85938 349.45L320.79688 349.45ZM323.76562 349.45L323.76562 340.85626L324.82812 340.85626L324.82812 349.45L323.76562 349.45ZM330.76562 349.45L329.78125 349.45L329.78125 340.85626L330.84375 340.85626L330.84375 343.91876Q331.51562 343.09064 332.54688 343.09064Q333.125 343.09064 333.625 343.325Q334.14062 343.54376 334.46875 343.96564Q334.8125 344.3875 335.0 344.98126Q335.1875 345.575 335.1875 346.2469Q335.1875 347.84064 334.39062 348.71564Q333.59375 349.59064 332.5 349.59064Q331.39062 349.59064 330.76562 348.66876L330.76562 349.45ZM330.75 346.29376Q330.75 347.40314 331.0625 347.90314Q331.5625 348.71564 332.40625 348.71564Q333.09375 348.71564 333.59375 348.1219Q334.10938 347.52814 334.10938 346.325Q334.10938 345.10626 333.625 344.52814Q333.14062 343.95 332.45312 343.95Q331.76562 343.95 331.25 344.5594Q330.75 345.15314 330.75 346.29376ZM340.875 349.45L340.875 348.52814Q340.14062 349.59064 338.89062 349.59064Q338.34375 349.59064 337.85938 349.3875Q337.39062 349.16876 337.15625 348.85626Q336.92188 348.52814 336.82812 348.0594Q336.76562 347.7625 336.76562 347.075L336.76562 343.23126L337.82812 343.23126L337.82812 346.6844Q337.82812 347.4969 337.89062 347.79376Q337.98438 348.2 338.29688 348.45Q338.625 348.6844 339.10938 348.6844Q339.57812 348.6844 339.98438 348.45Q340.40625 348.2 340.57812 347.77814Q340.76562 347.35626 340.76562 346.5594L340.76562 343.23126L341.8125 343.23126L341.8125 349.45L340.875 349.45ZM343.79688 342.075L343.79688 340.85626L344.85938 340.85626L344.85938 342.075L343.79688 342.075ZM343.79688 349.45L343.79688 343.23126L344.85938 343.23126L344.85938 349.45L343.79688 349.45ZM346.76562 349.45L346.76562 340.85626L347.82812 340.85626L347.82812 349.45L346.76562 349.45ZM353.82812 349.45L353.82812 348.66876Q353.23438 349.59064 352.09375 349.59064Q351.34375 349.59064 350.71875 349.1844Q350.09375 348.7625 349.75 348.02814Q349.40625 347.29376 349.40625 346.34064Q349.40625 345.41876 349.71875 344.65314Q350.03125 343.8875 350.65625 343.4969Q351.28125 343.09064 352.04688 343.09064Q352.60938 343.09064 353.04688 343.325Q353.48438 343.5594 353.76562 343.9344L353.76562 340.85626L354.8125 340.85626L354.8125 349.45L353.82812 349.45ZM350.5 346.34064Q350.5 347.54376 351.0 348.1375Q351.5 348.71564 352.1875 348.71564Q352.875 348.71564 353.35938 348.15314Q353.84375 347.59064 353.84375 346.4344Q353.84375 345.15314 353.34375 344.5594Q352.85938 343.96564 352.14062 343.96564Q351.4375 343.96564 350.96875 344.54376Q350.5 345.10626 350.5 346.34064Z" fill-rule="nonzero"/><path fill="#5891ad" d="M208.0 56.916668C208.0 56.364384 208.44771 55.916668 209.0 55.916668L219.0 55.916668C219.55229 55.916668 220.0 56.364384 220.0 56.916668L220.0 66.916664C220.0 67.46895 219.55229 67.916664 219.0 67.916664L209.0 67.916664C208.44771 67.916664 208.0 67.46895 208.0 66.916664Z" fill-rule="nonzero"/><path fill="#1a1a1a" d="M228.92188 65.916664L228.92188 57.322914L230.07812 57.322914L234.59375 64.072914L234.59375 57.322914L235.6875 57.322914L235.6875 65.916664L234.51562 65.916664L230.0 59.166664L230.0 65.916664L228.92188 65.916664ZM237.40625 62.80729Q237.40625 61.072914 238.35938 60.24479Q239.15625 59.55729 240.3125 59.55729Q241.59375 59.55729 242.40625 60.40104Q243.23438 61.229164 243.23438 62.71354Q243.23438 63.916664 242.875 64.604164Q242.51562 65.291664 241.8125 65.68229Q241.125 66.05729 240.3125 66.05729Q239.01562 66.05729 238.20312 65.229164Q237.40625 64.385414 237.40625 62.80729ZM238.48438 62.80729Q238.48438 63.99479 239.0 64.58854Q239.53125 65.18229 240.3125 65.18229Q241.10938 65.18229 241.625 64.58854Q242.14062 63.99479 242.14062 62.77604Q242.14062 61.61979 241.60938 61.02604Q241.09375 60.43229 240.3125 60.43229Q239.53125 60.43229 239.0 61.02604Q238.48438 61.604164 238.48438 62.80729ZM247.57812 61.729164Q247.57812 59.58854 248.71875 58.385414Q249.875 57.166664 251.6875 57.166664Q252.89062 57.166664 253.84375 57.74479Q254.79688 58.30729 255.29688 59.322914Q255.79688 60.33854 255.79688 61.635414Q255.79688 62.93229 255.26562 63.96354Q254.73438 64.99479 253.76562 65.52604Q252.8125 66.05729 251.6875 66.05729Q250.46875 66.05729 249.51562 65.479164Q248.5625 64.885414 248.0625 63.885414Q247.57812 62.86979 247.57812 61.729164ZM248.75 61.74479Q248.75 63.30729 249.57812 64.197914Q250.42188 65.08854 251.6875 65.08854Q252.96875 65.08854 253.79688 64.197914Q254.625 63.291664 254.625 61.61979Q254.625 60.572914 254.26562 59.791664Q253.92188 59.010414 253.23438 58.58854Q252.54688 58.15104 251.70312 58.15104Q250.5 58.15104 249.625 58.979164Q248.75 59.80729 248.75 61.74479ZM258.51562 65.916664L256.15625 59.697914L257.26562 59.697914L258.60938 63.416664Q258.8125 64.02604 259.0 64.666664Q259.14062 64.18229 259.39062 63.49479L260.78125 59.697914L261.85938 59.697914L259.5 65.916664L258.51562 65.916664ZM266.04688 63.916664L267.14062 64.041664Q266.89062 64.99479 266.1875 65.52604Q265.48438 66.05729 264.40625 66.05729Q263.04688 66.05729 262.23438 65.21354Q261.4375 64.36979 261.4375 62.854164Q261.4375 61.291664 262.25 60.43229Q263.0625 59.55729 264.34375 59.55729Q265.59375 59.55729 266.375 60.40104Q267.17188 61.24479 267.17188 62.791664Q267.17188 62.885414 267.17188 63.072914L262.53125 63.072914Q262.59375 64.104164 263.10938 64.65104Q263.625 65.18229 264.40625 65.18229Q264.98438 65.18229 265.39062 64.885414Q265.8125 64.572914 266.04688 63.916664ZM262.59375 62.21354L266.0625 62.21354Q266.0 61.416664 265.67188 61.02604Q265.15625 60.416664 264.35938 60.416664Q263.625 60.416664 263.125 60.90104Q262.64062 61.385414 262.59375 62.21354ZM268.78125 65.916664L268.78125 59.697914L269.73438 59.697914L269.73438 60.635414Q270.09375 59.979164 270.39062 59.77604Q270.70312 59.55729 271.07812 59.55729Q271.60938 59.55729 272.15625 59.885414L271.79688 60.86979Q271.40625 60.635414 271.03125 60.635414Q270.67188 60.635414 270.39062 60.854164Q270.125 61.05729 270.01562 61.43229Q269.82812 61.99479 269.82812 62.65104L269.82812 65.916664L268.78125 65.916664ZM272.76562 65.916664L272.76562 57.322914L273.82812 57.322914L273.82812 65.916664L272.76562 65.916664ZM279.85938 65.15104Q279.26562 65.65104 278.71875 65.854164Q278.1875 66.05729 277.5625 66.05729Q276.53125 66.05729 275.98438 65.55729Q275.4375 65.05729 275.4375 64.27604Q275.4375 63.822914 275.64062 63.447914Q275.84375 63.05729 276.1875 62.83854Q276.53125 62.604164 276.95312 62.49479Q277.25 62.40104 277.89062 62.322914Q279.15625 62.18229 279.76562 61.96354Q279.76562 61.74479 279.76562 61.697914Q279.76562 61.041664 279.46875 60.77604Q279.0625 60.43229 278.26562 60.43229Q277.53125 60.43229 277.17188 60.697914Q276.8125 60.947914 276.64062 61.604164L275.60938 61.46354Q275.75 60.80729 276.07812 60.40104Q276.40625 59.99479 277.01562 59.77604Q277.625 59.55729 278.42188 59.55729Q279.21875 59.55729 279.71875 59.74479Q280.21875 59.93229 280.45312 60.21354Q280.6875 60.49479 280.78125 60.93229Q280.82812 61.197914 280.82812 61.90104L280.82812 63.30729Q280.82812 64.77604 280.89062 65.166664Q280.96875 65.55729 281.17188 65.916664L280.0625 65.916664Q279.90625 65.58854 279.85938 65.15104ZM279.76562 62.791664Q279.1875 63.02604 278.04688 63.197914Q277.39062 63.291664 277.125 63.416664Q276.85938 63.52604 276.70312 63.74479Q276.5625 63.96354 276.5625 64.24479Q276.5625 64.666664 276.875 64.947914Q277.20312 65.229164 277.8125 65.229164Q278.42188 65.229164 278.89062 64.96354Q279.375 64.697914 279.59375 64.229164Q279.76562 63.86979 279.76562 63.18229L279.76562 62.791664ZM282.75 68.30729L282.625 67.322914Q282.96875 67.416664 283.23438 67.416664Q283.57812 67.416664 283.78125 67.291664Q284.0 67.18229 284.14062 66.979164Q284.23438 66.80729 284.46875 66.18229Q284.48438 66.104164 284.5625 65.93229L282.1875 59.697914L283.32812 59.697914L284.625 63.291664Q284.875 63.979164 285.07812 64.74479Q285.26562 64.010414 285.51562 63.322914L286.84375 59.697914L287.89062 59.697914L285.53125 66.02604Q285.14062 67.041664 284.9375 67.43229Q284.65625 67.96354 284.28125 68.197914Q283.92188 68.447914 283.42188 68.447914Q283.125 68.447914 282.75 68.30729Z" fill-rule="nonzero"/><path fill="#004561" d="M303.0 56.916668C303.0 56.364384 303.44772 55.916668 304.0 55.916668L314.0 55.916668C314.55228 55.916668 315.0 56.364384 315.0 56.916668L315.0 66.916664C315.0 67.46895 314.55228 67.916664 314.0 67.916664L304.0 67.916664C303.44772 67.916664 303.0 67.46895 303.0 66.916664Z" fill-rule="nonzero"/><path fill="#1a1a1a" d="M323.9375 65.916664L323.9375 57.322914L327.75 57.322914Q328.90625 57.322914 329.5 57.55729Q330.09375 57.791664 330.45312 58.385414Q330.8125 58.96354 330.8125 59.666664Q330.8125 60.58854 330.21875 61.21354Q329.625 61.83854 328.39062 62.010414Q328.84375 62.229164 329.07812 62.43229Q329.57812 62.885414 330.01562 63.572914L331.51562 65.916664L330.07812 65.916664L328.95312 64.135414Q328.45312 63.354164 328.125 62.947914Q327.8125 62.541664 327.54688 62.385414Q327.29688 62.21354 327.03125 62.135414Q326.84375 62.104164 326.40625 62.104164L325.07812 62.104164L325.07812 65.916664L323.9375 65.916664ZM325.07812 61.11979L327.53125 61.11979Q328.29688 61.11979 328.73438 60.96354Q329.1875 60.791664 329.40625 60.447914Q329.64062 60.08854 329.64062 59.666664Q329.64062 59.05729 329.1875 58.666664Q328.75 58.27604 327.79688 58.27604L325.07812 58.27604L325.07812 61.11979ZM332.40625 62.80729Q332.40625 61.072914 333.35938 60.24479Q334.15625 59.55729 335.3125 59.55729Q336.59375 59.55729 337.40625 60.40104Q338.23438 61.229164 338.23438 62.71354Q338.23438 63.916664 337.875 64.604164Q337.51562 65.291664 336.8125 65.68229Q336.125 66.05729 335.3125 66.05729Q334.01562 66.05729 333.20312 65.229164Q332.40625 64.385414 332.40625 62.80729ZM333.48438 62.80729Q333.48438 63.99479 334.0 64.58854Q334.53125 65.18229 335.3125 65.18229Q336.10938 65.18229 336.625 64.58854Q337.14062 63.99479 337.14062 62.77604Q337.14062 61.61979 336.60938 61.02604Q336.09375 60.43229 335.3125 60.43229Q334.53125 60.43229 334.0 61.02604Q333.48438 61.604164 333.48438 62.80729ZM339.40625 62.80729Q339.40625 61.072914 340.35938 60.24479Q341.15625 59.55729 342.3125 59.55729Q343.59375 59.55729 344.40625 60.40104Q345.23438 61.229164 345.23438 62.71354Q345.23438 63.916664 344.875 64.604164Q344.51562 65.291664 343.8125 65.68229Q343.125 66.05729 342.3125 66.05729Q341.01562 66.05729 340.20312 65.229164Q339.40625 64.385414 339.40625 62.80729ZM340.48438 62.80729Q340.48438 63.99479 341.0 64.58854Q341.53125 65.18229 342.3125 65.18229Q343.10938 65.18229 343.625 64.58854Q344.14062 63.99479 344.14062 62.77604Q344.14062 61.61979 343.60938 61.02604Q343.09375 60.43229 342.3125 60.43229Q341.53125 60.43229 341.0 61.02604Q340.48438 61.604164 340.48438 62.80729ZM349.09375 64.979164L349.25 65.90104Q348.79688 65.99479 348.45312 65.99479Q347.875 65.99479 347.5625 65.822914Q347.25 65.635414 347.10938 65.33854Q346.98438 65.041664 346.98438 64.08854L346.98438 60.510414L346.21875 60.510414L346.21875 59.697914L346.98438 59.697914L346.98438 58.15104L348.03125 57.52604L348.03125 59.697914L349.09375 59.697914L349.09375 60.510414L348.03125 60.510414L348.03125 64.15104Q348.03125 64.604164 348.07812 64.729164Q348.14062 64.854164 348.26562 64.93229Q348.39062 65.010414 348.625 65.010414Q348.8125 65.010414 349.09375 64.979164ZM352.57812 61.729164Q352.57812 59.58854 353.71875 58.385414Q354.875 57.166664 356.6875 57.166664Q357.89062 57.166664 358.84375 57.74479Q359.79688 58.30729 360.29688 59.322914Q360.79688 60.33854 360.79688 61.635414Q360.79688 62.93229 360.26562 63.96354Q359.73438 64.99479 358.76562 65.52604Q357.8125 66.05729 356.6875 66.05729Q355.46875 66.05729 354.51562 65.479164Q353.5625 64.885414 353.0625 63.885414Q352.57812 62.86979 352.57812 61.729164ZM353.75 61.74479Q353.75 63.30729 354.57812 64.197914Q355.42188 65.08854 356.6875 65.08854Q357.96875 65.08854 358.79688 64.197914Q359.625 63.291664 359.625 61.61979Q359.625 60.572914 359.26562 59.791664Q358.92188 59.010414 358.23438 58.58854Q357.54688 58.15104 356.70312 58.15104Q355.5 58.15104 354.625 58.979164Q353.75 59.80729 353.75 61.74479ZM363.51562 65.916664L361.15625 59.697914L362.26562 59.697914L363.60938 63.416664Q363.8125 64.02604 364.0 64.666664Q364.14062 64.18229 364.39062 63.49479L365.78125 59.697914L366.85938 59.697914L364.5 65.916664L363.51562 65.916664ZM371.04688 63.916664L372.14062 64.041664Q371.89062 64.99479 371.1875 65.52604Q370.48438 66.05729 369.40625 66.05729Q368.04688 66.05729 367.23438 65.21354Q366.4375 64.36979 366.4375 62.854164Q366.4375 61.291664 367.25 60.43229Q368.0625 59.55729 369.34375 59.55729Q370.59375 59.55729 371.375 60.40104Q372.17188 61.24479 372.17188 62.791664Q372.17188 62.885414 372.17188 63.072914L367.53125 63.072914Q367.59375 64.104164 368.10938 64.65104Q368.625 65.18229 369.40625 65.18229Q369.98438 65.18229 370.39062 64.885414Q370.8125 64.572914 371.04688 63.916664ZM367.59375 62.21354L371.0625 62.21354Q371.0 61.416664 370.67188 61.02604Q370.15625 60.416664 369.35938 60.416664Q368.625 60.416664 368.125 60.90104Q367.64062 61.385414 367.59375 62.21354ZM373.78125 65.916664L373.78125 59.697914L374.73438 59.697914L374.73438 60.635414Q375.09375 59.979164 375.39062 59.77604Q375.70312 59.55729 376.07812 59.55729Q376.60938 59.55729 377.15625 59.885414L376.79688 60.86979Q376.40625 60.635414 376.03125 60.635414Q375.67188 60.635414 375.39062 60.854164Q375.125 61.05729 375.01562 61.43229Q374.82812 61.99479 374.82812 62.65104L374.82812 65.916664L373.78125 65.916664ZM377.76562 65.916664L377.76562 57.322914L378.82812 57.322914L378.82812 65.916664L377.76562 65.916664ZM384.85938 65.15104Q384.26562 65.65104 383.71875 65.854164Q383.1875 66.05729 382.5625 66.05729Q381.53125 66.05729 380.98438 65.55729Q380.4375 65.05729 380.4375 64.27604Q380.4375 63.822914 380.64062 63.447914Q380.84375 63.05729 381.1875 62.83854Q381.53125 62.604164 381.95312 62.49479Q382.25 62.40104 382.89062 62.322914Q384.15625 62.18229 384.76562 61.96354Q384.76562 61.74479 384.76562 61.697914Q384.76562 61.041664 384.46875 60.77604Q384.0625 60.43229 383.26562 60.43229Q382.53125 60.43229 382.17188 60.697914Q381.8125 60.947914 381.64062 61.604164L380.60938 61.46354Q380.75 60.80729 381.07812 60.40104Q381.40625 59.99479 382.01562 59.77604Q382.625 59.55729 383.42188 59.55729Q384.21875 59.55729 384.71875 59.74479Q385.21875 59.93229 385.45312 60.21354Q385.6875 60.49479 385.78125 60.93229Q385.82812 61.197914 385.82812 61.90104L385.82812 63.30729Q385.82812 64.77604 385.89062 65.166664Q385.96875 65.55729 386.17188 65.916664L385.0625 65.916664Q384.90625 65.58854 384.85938 65.15104ZM384.76562 62.791664Q384.1875 63.02604 383.04688 63.197914Q382.39062 63.291664 382.125 63.416664Q381.85938 63.52604 381.70312 63.74479Q381.5625 63.96354 381.5625 64.24479Q381.5625 64.666664 381.875 64.947914Q382.20312 65.229164 382.8125 65.229164Q383.42188 65.229164 383.89062 64.96354Q384.375 64.697914 384.59375 64.229164Q384.76562 63.86979 384.76562 63.18229L384.76562 62.791664ZM387.75 68.30729L387.625 67.322914Q387.96875 67.416664 388.23438 67.416664Q388.57812 67.416664 388.78125 67.291664Q389.0 67.18229 389.14062 66.979164Q389.23438 66.80729 389.46875 66.18229Q389.48438 66.104164 389.5625 65.93229L387.1875 59.697914L388.32812 59.697914L389.625 63.291664Q389.875 63.979164 390.07812 64.74479Q390.26562 64.010414 390.51562 63.322914L391.84375 59.697914L392.89062 59.697914L390.53125 66.02604Q390.14062 67.041664 389.9375 67.43229Q389.65625 67.96354 389.28125 68.197914Q388.92188 68.447914 388.42188 68.447914Q388.125 68.447914 387.75 68.30729Z" fill-rule="nonzero"/><path fill="#757575" d="M19.45625 32.95625L21.2375 32.8Q21.3625 33.8625 21.815624 34.55Q22.284374 35.2375 23.253124 35.675Q24.2375 36.096874 25.471874 36.096874Q26.55 36.096874 27.378124 35.784374Q28.20625 35.45625 28.6125 34.89375Q29.01875 34.33125 29.01875 33.659374Q29.01875 32.9875 28.628124 32.4875Q28.2375 31.9875 27.346874 31.64375Q26.76875 31.409374 24.784374 30.940624Q22.815624 30.471874 22.034374 30.05Q21.003124 29.51875 20.503124 28.721874Q20.003124 27.925 20.003124 26.940624Q20.003124 25.846874 20.6125 24.909374Q21.221874 23.971874 22.409374 23.4875Q23.596874 22.9875 25.034374 22.9875Q26.628124 22.9875 27.846874 23.503124Q29.065624 24.01875 29.70625 25.01875Q30.3625 26.003124 30.409374 27.26875L28.596874 27.409374Q28.45625 26.05 27.6125 25.3625Q26.76875 24.659374 25.1125 24.659374Q23.39375 24.659374 22.596874 25.3Q21.815624 25.925 21.815624 26.8Q21.815624 27.58125 22.378124 28.08125Q22.925 28.58125 25.2375 29.096874Q27.55 29.6125 28.409374 30.003124Q29.659374 30.58125 30.253124 31.471874Q30.846874 32.346874 30.846874 33.503124Q30.846874 34.64375 30.190624 35.659374Q29.534374 36.675 28.3 37.2375Q27.08125 37.8 25.55 37.8Q23.6125 37.8 22.3 37.2375Q20.9875 36.659374 20.2375 35.51875Q19.4875 34.378124 19.45625 32.95625ZM39.64375 36.26875Q38.659374 37.096874 37.753124 37.440624Q36.846874 37.784374 35.815624 37.784374Q34.1125 37.784374 33.190624 36.95625Q32.26875 36.1125 32.26875 34.815624Q32.26875 34.05 32.6125 33.425Q32.971874 32.8 33.534374 32.425Q34.096874 32.034374 34.8 31.83125Q35.315624 31.70625 36.3625 31.565624Q38.4875 31.315624 39.4875 30.971874Q39.503124 30.6125 39.503124 30.503124Q39.503124 29.440624 39.003124 28.9875Q38.33125 28.39375 37.003124 28.39375Q35.753124 28.39375 35.159374 28.83125Q34.58125 29.26875 34.3 30.378124L32.58125 30.14375Q32.815624 29.034374 33.346874 28.3625Q33.878124 27.675 34.89375 27.315624Q35.909374 26.940624 37.253124 26.940624Q38.58125 26.940624 39.409374 27.253124Q40.2375 27.565624 40.628124 28.05Q41.01875 28.51875 41.175 29.2375Q41.26875 29.690624 41.26875 30.8625L41.26875 33.20625Q41.26875 35.659374 41.378124 36.315624Q41.4875 36.95625 41.83125 37.55L39.9875 37.55Q39.721874 37.003124 39.64375 36.26875ZM39.4875 32.346874Q38.534374 32.7375 36.6125 33.003124Q35.534374 33.159374 35.08125 33.3625Q34.64375 33.55 34.39375 33.925Q34.14375 34.3 34.14375 34.76875Q34.14375 35.471874 34.675 35.940624Q35.20625 36.409374 36.2375 36.409374Q37.253124 36.409374 38.034374 35.971874Q38.83125 35.51875 39.20625 34.753124Q39.4875 34.14375 39.4875 32.9875L39.4875 32.346874ZM43.8625 37.55L43.8625 27.175L45.45625 27.175L45.45625 28.659374Q46.596874 26.940624 48.753124 26.940624Q49.690624 26.940624 50.471874 27.284374Q51.26875 27.6125 51.659374 28.159374Q52.05 28.70625 52.20625 29.45625Q52.3 29.95625 52.3 31.175L52.3 37.55L50.534374 37.55L50.534374 31.2375Q50.534374 30.159374 50.33125 29.628124Q50.128124 29.096874 49.596874 28.784374Q49.08125 28.471874 48.378124 28.471874Q47.253124 28.471874 46.440624 29.190624Q45.628124 29.89375 45.628124 31.878124L45.628124 37.55L43.8625 37.55ZM60.596874 37.55L60.596874 36.2375Q59.6125 37.784374 57.690624 37.784374Q56.45625 37.784374 55.409374 37.096874Q54.378124 36.409374 53.8 35.190624Q53.2375 33.971874 53.2375 32.378124Q53.2375 30.815624 53.753124 29.55Q54.26875 28.284374 55.3 27.6125Q56.346874 26.940624 57.6125 26.940624Q58.55 26.940624 59.284374 27.346874Q60.01875 27.7375 60.4875 28.3625L60.4875 23.2375L62.221874 23.2375L62.221874 37.55L60.596874 37.55ZM55.034374 32.378124Q55.034374 34.3625 55.878124 35.346874Q56.721874 36.33125 57.8625 36.33125Q59.01875 36.33125 59.815624 35.39375Q60.628124 34.45625 60.628124 32.51875Q60.628124 30.39375 59.8 29.39375Q58.9875 28.39375 57.784374 28.39375Q56.6125 28.39375 55.815624 29.3625Q55.034374 30.315624 55.034374 32.378124ZM66.4875 37.55L64.8625 37.55L64.8625 23.2375L66.6125 23.2375L66.6125 28.346874Q67.7375 26.940624 69.45625 26.940624Q70.40938 26.940624 71.26875 27.33125Q72.12813 27.721874 72.675 28.425Q73.22188 29.1125 73.53438 30.096874Q73.84688 31.08125 73.84688 32.20625Q73.84688 34.878124 72.53438 36.33125Q71.22188 37.784374 69.37813 37.784374Q67.53438 37.784374 66.4875 36.253124L66.4875 37.55ZM66.47188 32.284374Q66.47188 34.14375 66.97188 34.9875Q67.81563 36.33125 69.22188 36.33125Q70.37813 36.33125 71.20625 35.33125Q72.05 34.33125 72.05 32.346874Q72.05 30.315624 71.2375 29.3625Q70.44063 28.39375 69.3 28.39375Q68.14375 28.39375 67.3 29.39375Q66.47188 30.39375 66.47188 32.284374ZM75.22188 32.3625Q75.22188 29.4875 76.81563 28.096874Q78.15938 26.940624 80.08125 26.940624Q82.22188 26.940624 83.56563 28.346874Q84.925 29.753124 84.925 32.221874Q84.925 34.221874 84.33125 35.378124Q83.7375 36.51875 82.58125 37.159374Q81.44063 37.784374 80.08125 37.784374Q77.89375 37.784374 76.55 36.39375Q75.22188 34.9875 75.22188 32.3625ZM77.01875 32.3625Q77.01875 34.3625 77.87813 35.346874Q78.75313 36.33125 80.08125 36.33125Q81.39375 36.33125 82.25313 35.346874Q83.12813 34.346874 83.12813 32.3Q83.12813 30.378124 82.25313 29.39375Q81.37813 28.39375 80.08125 28.39375Q78.75313 28.39375 77.87813 29.39375Q77.01875 30.378124 77.01875 32.3625ZM85.69063 37.55L89.4875 32.159374L85.9875 27.175L88.175 27.175L89.76875 29.6125Q90.22188 30.3 90.4875 30.76875Q90.925 30.128124 91.28438 29.628124L93.03438 27.175L95.12813 27.175L91.55 32.065624L95.40938 37.55L93.25313 37.55L91.1125 34.33125L90.55 33.45625L87.83125 37.55L85.69063 37.55ZM101.51875 30.58125Q101.51875 27.01875 103.425 25.003124Q105.34688 22.971874 108.37813 22.971874Q110.3625 22.971874 111.94063 23.925Q113.53438 24.878124 114.3625 26.58125Q115.20625 28.26875 115.20625 30.409374Q115.20625 32.58125 114.33125 34.3Q113.45625 36.01875 111.83125 36.909374Q110.22188 37.8 108.3625 37.8Q106.34688 37.8 104.75313 36.83125Q103.15938 35.846874 102.33125 34.159374Q101.51875 32.45625 101.51875 30.58125ZM103.47188 30.6125Q103.47188 33.190624 104.8625 34.690624Q106.25313 36.175 108.34688 36.175Q110.4875 36.175 111.8625 34.675Q113.25313 33.159374 113.25313 30.39375Q113.25313 28.659374 112.65938 27.3625Q112.08125 26.05 110.94063 25.33125Q109.8 24.6125 108.37813 24.6125Q106.37813 24.6125 104.925 26.003124Q103.47188 27.378124 103.47188 30.6125ZM120.75313 37.55L116.8 27.175L118.65938 27.175L120.89375 33.39375Q121.25313 34.39375 121.55 35.471874Q121.78438 34.659374 122.20625 33.503124L124.50313 27.175L126.31563 27.175L122.39375 37.55L120.75313 37.55ZM133.97188 34.20625L135.78438 34.440624Q135.3625 36.01875 134.19063 36.909374Q133.03438 37.784374 131.22188 37.784374Q128.95625 37.784374 127.6125 36.39375Q126.28438 34.9875 126.28438 32.45625Q126.28438 29.83125 127.62813 28.39375Q128.97188 26.940624 131.12813 26.940624Q133.20625 26.940624 134.51875 28.3625Q135.84688 29.76875 135.84688 32.346874Q135.84688 32.503124 135.83125 32.815624L128.09688 32.815624Q128.19063 34.51875 129.06563 35.425Q129.94063 36.33125 131.2375 36.33125Q132.20625 36.33125 132.87813 35.83125Q133.56563 35.315624 133.97188 34.20625ZM128.19063 31.3625L133.9875 31.3625Q133.87813 30.065624 133.33125 29.409374Q132.4875 28.39375 131.14375 28.39375Q129.94063 28.39375 129.1125 29.20625Q128.28438 30.003124 128.19063 31.3625ZM137.84688 37.55L137.84688 27.175L139.425 27.175L139.425 28.753124Q140.03438 27.64375 140.55 27.3Q141.06563 26.940624 141.675 26.940624Q142.56563 26.940624 143.4875 27.503124L142.87813 29.14375Q142.2375 28.753124 141.59688 28.753124Q141.01875 28.753124 140.55 29.1125Q140.09688 29.45625 139.89375 30.065624Q139.6125 31.003124 139.6125 32.1125L139.6125 37.55L137.84688 37.55ZM144.8625 37.55L144.8625 23.2375L146.62813 23.2375L146.62813 28.3625Q147.8625 26.940624 149.7375 26.940624Q150.87813 26.940624 151.72188 27.39375Q152.58125 27.846874 152.94063 28.659374Q153.31563 29.45625 153.31563 30.971874L153.31563 37.55L151.56563 37.55L151.56563 30.971874Q151.56563 29.659374 150.9875 29.065624Q150.40938 28.45625 149.37813 28.45625Q148.59688 28.45625 147.89375 28.8625Q147.20625 29.26875 146.90938 29.971874Q146.62813 30.659374 146.62813 31.878124L146.62813 37.55L144.8625 37.55ZM161.97188 34.20625L163.78438 34.440624Q163.3625 36.01875 162.19063 36.909374Q161.03438 37.784374 159.22188 37.784374Q156.95625 37.784374 155.6125 36.39375Q154.28438 34.9875 154.28438 32.45625Q154.28438 29.83125 155.62813 28.39375Q156.97188 26.940624 159.12813 26.940624Q161.20625 26.940624 162.51875 28.3625Q163.84688 29.76875 163.84688 32.346874Q163.84688 32.503124 163.83125 32.815624L156.09688 32.815624Q156.19063 34.51875 157.06563 35.425Q157.94063 36.33125 159.2375 36.33125Q160.20625 36.33125 160.87813 35.83125Q161.56563 35.315624 161.97188 34.20625ZM156.19063 31.3625L161.9875 31.3625Q161.87813 30.065624 161.33125 29.409374Q160.4875 28.39375 159.14375 28.39375Q157.94063 28.39375 157.1125 29.20625Q156.28438 30.003124 156.19063 31.3625ZM172.64375 36.26875Q171.65938 37.096874 170.75313 37.440624Q169.84688 37.784374 168.81563 37.784374Q167.1125 37.784374 166.19063 36.95625Q165.26875 36.1125 165.26875 34.815624Q165.26875 34.05 165.6125 33.425Q165.97188 32.8 166.53438 32.425Q167.09688 32.034374 167.8 31.83125Q168.31563 31.70625 169.3625 31.565624Q171.4875 31.315624 172.4875 30.971874Q172.50313 30.6125 172.50313 30.503124Q172.50313 29.440624 172.00313 28.9875Q171.33125 28.39375 170.00313 28.39375Q168.75313 28.39375 168.15938 28.83125Q167.58125 29.26875 167.3 30.378124L165.58125 30.14375Q165.81563 29.034374 166.34688 28.3625Q166.87813 27.675 167.89375 27.315624Q168.90938 26.940624 170.25313 26.940624Q171.58125 26.940624 172.40938 27.253124Q173.2375 27.565624 173.62813 28.05Q174.01875 28.51875 174.175 29.2375Q174.26875 29.690624 174.26875 30.8625L174.26875 33.20625Q174.26875 35.659374 174.37813 36.315624Q174.4875 36.95625 174.83125 37.55L172.9875 37.55Q172.72188 37.003124 172.64375 36.26875ZM172.4875 32.346874Q171.53438 32.7375 169.6125 33.003124Q168.53438 33.159374 168.08125 33.3625Q167.64375 33.55 167.39375 33.925Q167.14375 34.3 167.14375 34.76875Q167.14375 35.471874 167.675 35.940624Q168.20625 36.409374 169.2375 36.409374Q170.25313 36.409374 171.03438 35.971874Q171.83125 35.51875 172.20625 34.753124Q172.4875 34.14375 172.4875 32.9875L172.4875 32.346874ZM183.59688 37.55L183.59688 36.2375Q182.6125 37.784374 180.69063 37.784374Q179.45625 37.784374 178.40938 37.096874Q177.37813 36.409374 176.8 35.190624Q176.2375 33.971874 176.2375 32.378124Q176.2375 30.815624 176.75313 29.55Q177.26875 28.284374 178.3 27.6125Q179.34688 26.940624 180.6125 26.940624Q181.55 26.940624 182.28438 27.346874Q183.01875 27.7375 183.4875 28.3625L183.4875 23.2375L185.22188 23.2375L185.22188 37.55L183.59688 37.55ZM178.03438 32.378124Q178.03438 34.3625 178.87813 35.346874Q179.72188 36.33125 180.8625 36.33125Q182.01875 36.33125 182.81563 35.39375Q183.62813 34.45625 183.62813 32.51875Q183.62813 30.39375 182.8 29.39375Q181.9875 28.39375 180.78438 28.39375Q179.6125 28.39375 178.81563 29.3625Q178.03438 30.315624 178.03438 32.378124Z" fill-rule="nonzero"/></svg>