<svg version="1.1" viewBox="0.0 0.0 600.0 371.0" fill="none" stroke="none" stroke-linecap="square" stroke-miterlimit="10" width="600" height="371" xmlns:xlink="http://www.w3.org/1999/xlink" xmlns="http://www.w3.org/2000/svg"><path fill="#ffffff" d="M0 0L600.0 0L600.0 371.0L0 371.0L0 0Z" fill-rule="nonzero"/><path stroke="#333333" stroke-width="1.0" stroke-linecap="butt" d="M137.5 54.5L137.5 300.5" fill-rule="nonzero"/><path stroke="#cccccc" stroke-width="1.0" stroke-linecap="butt" d="M248.5 54.5L248.5 300.5" fill-rule="nonzero"/><path stroke="#cccccc" stroke-width="1.0" stroke-linecap="butt" d="M359.5 54.5L359.5 300.5" fill-rule="nonzero"/><path stroke="#cccccc" stroke-width="1.0" stroke-linecap="butt" d="M470.5 54.5L470.5 300.5" fill-rule="nonzero"/><path stroke="#cccccc" stroke-width="1.0" stroke-linecap="butt" d="M581.5 54.5L581.5 300.5" fill-rule="nonzero"/><clipPath id="id_0"><path d="M137.13 54.916668L581.45 54.916668L581.45 300.45L137.13 300.45L137.13 54.916668Z" clip-rule="nonzero"/></clipPath><path stroke="#000000" stroke-width="2.0" stroke-linecap="butt" stroke-opacity="0.0" clip-path="url(#id_0)" d="M137.0 159.0L137.0 91.0L477.0 91.0C478.10458 91.0 479.0 91.89543 479.0 93.0L479.0 157.0C479.0 158.10457 478.10458 159.0 477.0 159.0Z" fill-rule="nonzero"/><path fill="#4285f4" clip-path="url(#id_0)" d="M137.0 159.0L137.0 91.0L477.0 91.0C478.10458 91.0 479.0 91.89543 479.0 93.0L479.0 157.0C479.0 158.10457 478.10458 159.0 477.0 159.0Z" fill-rule="nonzero"/><path stroke="#000000" stroke-width="2.0" stroke-linecap="butt" stroke-opacity="0.0" clip-path="url(#id_0)" d="M137.0 264.0L137.0 196.0L140.0 196.0C141.10457 196.0 142.0 196.89543 142.0 198.0L142.0 262.0C142.0 263.10458 141.10457 264.0 140.0 264.0Z" fill-rule="nonzero"/><path fill="#4285f4" clip-path="url(#id_0)" d="M137.0 264.0L137.0 196.0L140.0 196.0C141.10457 196.0 142.0 196.89543 142.0 198.0L142.0 262.0C142.0 263.10458 141.10457 264.0 140.0 264.0Z" fill-rule="nonzero"/><path stroke="#4285f4" stroke-width="3.0" stroke-linejoin="round" stroke-linecap="round" d="M441.72202 129.5L440.6439 129.5L440.6439 122.28125L438.4564 123.078125L438.4564 122.09375L441.56577 120.921875L441.72202 120.921875L441.72202 129.5ZM445.65952 125.21875L446.09702 120.96875L450.47202 120.96875L450.47202 121.96875L447.0189 121.96875L446.75327 124.296875Q447.3939 123.921875 448.19077 123.921875Q449.34702 123.921875 450.03452 124.703125Q450.72202 125.46875 450.72202 126.78125Q450.72202 128.09375 450.00327 128.85938Q449.30014 129.625 448.0189 129.625Q446.8939 129.625 446.17514 129.0Q445.4564 128.35938 445.36264 127.25L446.37827 127.25Q446.48764 127.984375 446.90952 128.35938Q447.3314 128.73438 448.0189 128.73438Q448.7689 128.73438 449.2064 128.21875Q449.6439 127.703125 449.6439 126.796875Q449.6439 125.9375 449.17514 125.421875Q448.7064 124.90625 447.92514 124.90625Q447.22202 124.90625 446.81577 125.203125L446.53452 125.4375L445.65952 125.21875ZM452.23764 131.20312L451.62827 130.78125Q452.17514 130.01562 452.2064 129.1875L452.2064 128.21875L453.2689 128.21875L453.2689 129.0625Q453.2689 129.65625 452.97202 130.25Q452.67514 130.84375 452.23764 131.20312ZM458.73764 126.640625L459.92514 126.640625L459.92514 127.515625L458.73764 127.515625L458.73764 129.5L457.65952 129.5L457.65952 127.515625L453.7689 127.515625L453.7689 126.875L457.5814 120.96875L458.73764 120.96875L458.73764 126.640625ZM455.00327 126.640625L457.65952 126.640625L457.65952 122.453125L457.5189 122.6875L455.00327 126.640625ZM466.5189 125.859375Q466.5189 127.765625 465.86264 128.70312Q465.22202 129.625 463.8314 129.625Q462.47202 129.625 461.81577 128.71875Q461.15952 127.8125 461.12827 126.0L461.12827 124.5625Q461.12827 122.671875 461.7689 121.765625Q462.42514 120.84375 463.81577 120.84375Q465.19077 120.84375 465.84702 121.734375Q466.50327 122.609375 466.5189 124.453125L466.5189 125.859375ZM465.42514 124.375Q465.42514 123.0 465.03452 122.375Q464.65952 121.734375 463.81577 121.734375Q462.98764 121.734375 462.59702 122.375Q462.22202 123.0 462.22202 124.296875L462.22202 126.03125Q462.22202 127.40625 462.61264 128.07812Q463.0189 128.73438 463.8314 128.73438Q464.62827 128.73438 465.0189 128.10938Q465.40952 127.484375 465.42514 126.15625L465.42514 124.375ZM473.5189 125.859375Q473.5189 127.765625 472.86264 128.70312Q472.22202 129.625 470.8314 129.625Q469.47202 129.625 468.81577 128.71875Q468.15952 127.8125 468.12827 126.0L468.12827 124.5625Q468.12827 122.671875 468.7689 121.765625Q469.42514 120.84375 470.81577 120.84375Q472.19077 120.84375 472.84702 121.734375Q473.50327 122.609375 473.5189 124.453125L473.5189 125.859375ZM472.42514 124.375Q472.42514 123.0 472.03452 122.375Q471.65952 121.734375 470.81577 121.734375Q469.98764 121.734375 469.59702 122.375Q469.22202 123.0 469.22202 124.296875L469.22202 126.03125Q469.22202 127.40625 469.61264 128.07812Q470.0189 128.73438 470.8314 128.73438Q471.62827 128.73438 472.0189 128.10938Q472.40952 127.484375 472.42514 126.15625L472.42514 124.375Z" fill-rule="nonzero"/><path fill="#ffffff" d="M441.72202 129.5L440.6439 129.5L440.6439 122.28125L438.4564 123.078125L438.4564 122.09375L441.56577 120.921875L441.72202 120.921875L441.72202 129.5ZM445.65952 125.21875L446.09702 120.96875L450.47202 120.96875L450.47202 121.96875L447.0189 121.96875L446.75327 124.296875Q447.3939 123.921875 448.19077 123.921875Q449.34702 123.921875 450.03452 124.703125Q450.72202 125.46875 450.72202 126.78125Q450.72202 128.09375 450.00327 128.85938Q449.30014 129.625 448.0189 129.625Q446.8939 129.625 446.17514 129.0Q445.4564 128.35938 445.36264 127.25L446.37827 127.25Q446.48764 127.984375 446.90952 128.35938Q447.3314 128.73438 448.0189 128.73438Q448.7689 128.73438 449.2064 128.21875Q449.6439 127.703125 449.6439 126.796875Q449.6439 125.9375 449.17514 125.421875Q448.7064 124.90625 447.92514 124.90625Q447.22202 124.90625 446.81577 125.203125L446.53452 125.4375L445.65952 125.21875ZM452.23764 131.20312L451.62827 130.78125Q452.17514 130.01562 452.2064 129.1875L452.2064 128.21875L453.2689 128.21875L453.2689 129.0625Q453.2689 129.65625 452.97202 130.25Q452.67514 130.84375 452.23764 131.20312ZM458.73764 126.640625L459.92514 126.640625L459.92514 127.515625L458.73764 127.515625L458.73764 129.5L457.65952 129.5L457.65952 127.515625L453.7689 127.515625L453.7689 126.875L457.5814 120.96875L458.73764 120.96875L458.73764 126.640625ZM455.00327 126.640625L457.65952 126.640625L457.65952 122.453125L457.5189 122.6875L455.00327 126.640625ZM466.5189 125.859375Q466.5189 127.765625 465.86264 128.70312Q465.22202 129.625 463.8314 129.625Q462.47202 129.625 461.81577 128.71875Q461.15952 127.8125 461.12827 126.0L461.12827 124.5625Q461.12827 122.671875 461.7689 121.765625Q462.42514 120.84375 463.81577 120.84375Q465.19077 120.84375 465.84702 121.734375Q466.50327 122.609375 466.5189 124.453125L466.5189 125.859375ZM465.42514 124.375Q465.42514 123.0 465.03452 122.375Q464.65952 121.734375 463.81577 121.734375Q462.98764 121.734375 462.59702 122.375Q462.22202 123.0 462.22202 124.296875L462.22202 126.03125Q462.22202 127.40625 462.61264 128.07812Q463.0189 128.73438 463.8314 128.73438Q464.62827 128.73438 465.0189 128.10938Q465.40952 127.484375 465.42514 126.15625L465.42514 124.375ZM473.5189 125.859375Q473.5189 127.765625 472.86264 128.70312Q472.22202 129.625 470.8314 129.625Q469.47202 129.625 468.81577 128.71875Q468.15952 127.8125 468.12827 126.0L468.12827 124.5625Q468.12827 122.671875 468.7689 121.765625Q469.42514 120.84375 470.81577 120.84375Q472.19077 120.84375 472.84702 121.734375Q473.50327 122.609375 473.5189 124.453125L473.5189 125.859375ZM472.42514 124.375Q472.42514 123.0 472.03452 122.375Q471.65952 121.734375 470.81577 121.734375Q469.98764 121.734375 469.59702 122.375Q469.22202 123.0 469.22202 124.296875L469.22202 126.03125Q469.22202 127.40625 469.61264 128.07812Q470.0189 128.73438 470.8314 128.73438Q471.62827 128.73438 472.0189 128.10938Q472.40952 127.484375 472.42514 126.15625L472.42514 124.375Z" fill-rule="nonzero"/><path stroke="#ffffff" stroke-width="3.0" stroke-linejoin="round" stroke-linecap="round" d="M160.7365 234.5L155.14275 234.5L155.14275 233.71875L158.09587 230.4375Q158.75212 229.6875 159.00212 229.23438Q159.25212 228.76562 159.25212 228.26562Q159.25212 227.59375 158.84587 227.17188Q158.45525 226.73438 157.76775 226.73438Q156.97087 226.73438 156.51775 227.20312Q156.06462 227.65625 156.06462 228.48438L154.9865 228.48438Q154.9865 227.29688 155.7365 226.57812Q156.50212 225.84375 157.76775 225.84375Q158.97087 225.84375 159.65837 226.46875Q160.34587 227.09375 160.34587 228.14062Q160.34587 229.39062 158.7365 231.14062L156.45525 233.60938L160.7365 233.60938L160.7365 234.5ZM163.72087 229.70312L164.53337 229.70312Q165.31462 229.6875 165.75212 229.29688Q166.18962 228.90625 166.18962 228.23438Q166.18962 226.73438 164.68962 226.73438Q163.9865 226.73438 163.56462 227.14062Q163.15837 227.54688 163.15837 228.20312L162.06462 228.20312Q162.06462 227.1875 162.799 226.51562Q163.549 225.84375 164.68962 225.84375Q165.89275 225.84375 166.58025 226.48438Q167.26775 227.125 167.26775 228.26562Q167.26775 228.82812 166.90837 229.34375Q166.549 229.85938 165.924 230.125Q166.62712 230.34375 167.00212 230.85938Q167.39275 231.375 167.39275 232.125Q167.39275 233.26562 166.64275 233.95312Q165.89275 234.625 164.68962 234.625Q163.50212 234.625 162.7365 233.96875Q161.9865 233.3125 161.9865 232.25L163.08025 232.25Q163.08025 232.92188 163.51775 233.32812Q163.95525 233.73438 164.70525 233.73438Q165.4865 233.73438 165.89275 233.32812Q166.31462 232.90625 166.31462 232.14062Q166.31462 231.40625 165.8615 231.01562Q165.40837 230.60938 164.53337 230.59375L163.72087 230.59375L163.72087 229.70312ZM173.299 230.75Q172.97087 231.15625 172.4865 231.40625Q172.01775 231.64062 171.45525 231.64062Q170.72087 231.64062 170.174 231.28125Q169.62712 230.92188 169.33025 230.26562Q169.03337 229.59375 169.03337 228.79688Q169.03337 227.95312 169.34587 227.26562Q169.674 226.57812 170.26775 226.21875Q170.87712 225.84375 171.674 225.84375Q172.93962 225.84375 173.65837 226.79688Q174.39275 227.75 174.39275 229.375L174.39275 229.6875Q174.39275 232.1875 173.40837 233.32812Q172.424 234.46875 170.43962 234.5L170.22087 234.5L170.22087 233.59375L170.45525 233.59375Q171.799 233.5625 172.51775 232.89062Q173.2365 232.21875 173.299 230.75ZM171.62712 230.75Q172.174 230.75 172.62712 230.42188Q173.09587 230.07812 173.31462 229.59375L173.31462 229.15625Q173.31462 228.09375 172.84587 227.42188Q172.37712 226.75 171.674 226.75Q170.95525 226.75 170.51775 227.29688Q170.09587 227.84375 170.09587 228.75Q170.09587 229.625 170.50212 230.1875Q170.924 230.75 171.62712 230.75Z" fill-rule="nonzero"/><path fill="#4285f4" d="M160.7365 234.5L155.14275 234.5L155.14275 233.71875L158.09587 230.4375Q158.75212 229.6875 159.00212 229.23438Q159.25212 228.76562 159.25212 228.26562Q159.25212 227.59375 158.84587 227.17188Q158.45525 226.73438 157.76775 226.73438Q156.97087 226.73438 156.51775 227.20312Q156.06462 227.65625 156.06462 228.48438L154.9865 228.48438Q154.9865 227.29688 155.7365 226.57812Q156.50212 225.84375 157.76775 225.84375Q158.97087 225.84375 159.65837 226.46875Q160.34587 227.09375 160.34587 228.14062Q160.34587 229.39062 158.7365 231.14062L156.45525 233.60938L160.7365 233.60938L160.7365 234.5ZM163.72087 229.70312L164.53337 229.70312Q165.31462 229.6875 165.75212 229.29688Q166.18962 228.90625 166.18962 228.23438Q166.18962 226.73438 164.68962 226.73438Q163.9865 226.73438 163.56462 227.14062Q163.15837 227.54688 163.15837 228.20312L162.06462 228.20312Q162.06462 227.1875 162.799 226.51562Q163.549 225.84375 164.68962 225.84375Q165.89275 225.84375 166.58025 226.48438Q167.26775 227.125 167.26775 228.26562Q167.26775 228.82812 166.90837 229.34375Q166.549 229.85938 165.924 230.125Q166.62712 230.34375 167.00212 230.85938Q167.39275 231.375 167.39275 232.125Q167.39275 233.26562 166.64275 233.95312Q165.89275 234.625 164.68962 234.625Q163.50212 234.625 162.7365 233.96875Q161.9865 233.3125 161.9865 232.25L163.08025 232.25Q163.08025 232.92188 163.51775 233.32812Q163.95525 233.73438 164.70525 233.73438Q165.4865 233.73438 165.89275 233.32812Q166.31462 232.90625 166.31462 232.14062Q166.31462 231.40625 165.8615 231.01562Q165.40837 230.60938 164.53337 230.59375L163.72087 230.59375L163.72087 229.70312ZM173.299 230.75Q172.97087 231.15625 172.4865 231.40625Q172.01775 231.64062 171.45525 231.64062Q170.72087 231.64062 170.174 231.28125Q169.62712 230.92188 169.33025 230.26562Q169.03337 229.59375 169.03337 228.79688Q169.03337 227.95312 169.34587 227.26562Q169.674 226.57812 170.26775 226.21875Q170.87712 225.84375 171.674 225.84375Q172.93962 225.84375 173.65837 226.79688Q174.39275 227.75 174.39275 229.375L174.39275 229.6875Q174.39275 232.1875 173.40837 233.32812Q172.424 234.46875 170.43962 234.5L170.22087 234.5L170.22087 233.59375L170.45525 233.59375Q171.799 233.5625 172.51775 232.89062Q173.2365 232.21875 173.299 230.75ZM171.62712 230.75Q172.174 230.75 172.62712 230.42188Q173.09587 230.07812 173.31462 229.59375L173.31462 229.15625Q173.31462 228.09375 172.84587 227.42188Q172.37712 226.75 171.674 226.75Q170.95525 226.75 170.51775 227.29688Q170.09587 227.84375 170.09587 228.75Q170.09587 229.625 170.50212 230.1875Q170.924 230.75 171.62712 230.75Z" fill-rule="nonzero"/><path fill="#000000" d="M304.89938 349.45L304.89938 341.8719L302.07126 341.8719L302.07126 340.85626L308.88376 340.85626L308.88376 341.8719L306.04 341.8719L306.04 349.45L304.89938 349.45ZM309.58688 342.075L309.58688 340.85626L310.64938 340.85626L310.64938 342.075L309.58688 342.075ZM309.58688 349.45L309.58688 343.23126L310.64938 343.23126L310.64938 349.45L309.58688 349.45ZM312.58688 349.45L312.58688 343.23126L313.52438 343.23126L313.52438 344.10626Q313.82126 343.6375 314.30563 343.3719Q314.79 343.09064 315.415 343.09064Q316.1025 343.09064 316.54 343.3719Q316.99313 343.65314 317.165 344.16876Q317.915 343.09064 319.08688 343.09064Q320.02438 343.09064 320.50876 343.60626Q321.00876 344.10626 321.00876 345.1844L321.00876 349.45L319.96188 349.45L319.96188 345.52814Q319.96188 344.90314 319.8525 344.6219Q319.75876 344.34064 319.49313 344.16876Q319.2275 343.9969 318.8525 343.9969Q318.19626 343.9969 317.75876 344.4344Q317.33688 344.8719 317.33688 345.84064L317.33688 349.45L316.27438 349.45L316.27438 345.40314Q316.27438 344.7 316.00876 344.35626Q315.75876 343.9969 315.18063 343.9969Q314.7275 343.9969 314.3525 344.23126Q313.9775 344.46564 313.80563 344.91876Q313.63376 345.3719 313.63376 346.21564L313.63376 349.45L312.58688 349.45ZM327.83688 347.45L328.93063 347.575Q328.68063 348.52814 327.9775 349.0594Q327.27438 349.59064 326.19626 349.59064Q324.83688 349.59064 324.02438 348.7469Q323.2275 347.90314 323.2275 346.3875Q323.2275 344.825 324.04 343.96564Q324.8525 343.09064 326.13376 343.09064Q327.38376 343.09064 328.165 343.9344Q328.96188 344.77814 328.96188 346.325Q328.96188 346.41876 328.96188 346.60626L324.32126 346.60626Q324.38376 347.6375 324.89938 348.1844Q325.415 348.71564 326.19626 348.71564Q326.77438 348.71564 327.18063 348.41876Q327.6025 348.10626 327.83688 347.45ZM324.38376 345.7469L327.8525 345.7469Q327.79 344.95 327.46188 344.5594Q326.94626 343.95 326.14938 343.95Q325.415 343.95 324.915 344.4344Q324.43063 344.91876 324.38376 345.7469ZM335.6025 351.98126Q334.7275 350.8719 334.11813 349.40314Q333.52438 347.91876 333.52438 346.34064Q333.52438 344.95 333.96188 343.66876Q334.49313 342.1844 335.6025 340.71564L336.3525 340.71564Q335.64938 341.9344 335.415 342.45Q335.05563 343.2625 334.8525 344.1375Q334.6025 345.23126 334.6025 346.34064Q334.6025 349.16876 336.3525 351.98126L335.6025 351.98126ZM337.58688 349.45L337.58688 343.23126L338.52438 343.23126L338.52438 344.10626Q339.21188 343.09064 340.50876 343.09064Q341.07126 343.09064 341.54 343.29376Q342.02438 343.4969 342.25876 343.825Q342.49313 344.15314 342.58688 344.59064Q342.63376 344.8875 342.63376 345.6219L342.63376 349.45L341.58688 349.45L341.58688 345.66876Q341.58688 345.0125 341.46188 344.7Q341.33688 344.3875 341.02438 344.2Q340.71188 343.9969 340.29 343.9969Q339.61813 343.9969 339.11813 344.4344Q338.63376 344.85626 338.63376 346.04376L338.63376 349.45L337.58688 349.45ZM348.64938 348.6844Q348.05563 349.1844 347.50876 349.3875Q346.9775 349.59064 346.3525 349.59064Q345.32126 349.59064 344.77438 349.09064Q344.2275 348.59064 344.2275 347.8094Q344.2275 347.35626 344.43063 346.98126Q344.63376 346.59064 344.9775 346.3719Q345.32126 346.1375 345.74313 346.02814Q346.04 345.9344 346.68063 345.85626Q347.94626 345.71564 348.55563 345.4969Q348.55563 345.27814 348.55563 345.23126Q348.55563 344.575 348.25876 344.3094Q347.8525 343.96564 347.05563 343.96564Q346.32126 343.96564 345.96188 344.23126Q345.6025 344.48126 345.43063 345.1375L344.39938 344.9969Q344.54 344.34064 344.86813 343.9344Q345.19626 343.52814 345.80563 343.3094Q346.415 343.09064 347.21188 343.09064Q348.00876 343.09064 348.50876 343.27814Q349.00876 343.46564 349.24313 343.7469Q349.4775 344.02814 349.57126 344.46564Q349.61813 344.73126 349.61813 345.4344L349.61813 346.84064Q349.61813 348.3094 349.68063 348.7Q349.75876 349.09064 349.96188 349.45L348.8525 349.45Q348.69626 349.1219 348.64938 348.6844ZM348.55563 346.325Q347.9775 346.5594 346.83688 346.73126Q346.18063 346.825 345.915 346.95Q345.64938 347.0594 345.49313 347.27814Q345.3525 347.4969 345.3525 347.77814Q345.3525 348.2 345.665 348.48126Q345.99313 348.7625 346.6025 348.7625Q347.21188 348.7625 347.68063 348.4969Q348.165 348.23126 348.38376 347.7625Q348.55563 347.40314 348.55563 346.71564L348.55563 346.325ZM351.58688 349.45L351.58688 343.23126L352.52438 343.23126L352.52438 344.10626Q353.21188 343.09064 354.50876 343.09064Q355.07126 343.09064 355.54 343.29376Q356.02438 343.4969 356.25876 343.825Q356.49313 344.15314 356.58688 344.59064Q356.63376 344.8875 356.63376 345.6219L356.63376 349.45L355.58688 349.45L355.58688 345.66876Q355.58688 345.0125 355.46188 344.7Q355.33688 344.3875 355.02438 344.2Q354.71188 343.9969 354.29 343.9969Q353.61813 343.9969 353.11813 344.4344Q352.63376 344.85626 352.63376 346.04376L352.63376 349.45L351.58688 349.45ZM358.19626 346.34064Q358.19626 344.60626 359.14938 343.77814Q359.94626 343.09064 361.1025 343.09064Q362.38376 343.09064 363.19626 343.9344Q364.02438 344.7625 364.02438 346.2469Q364.02438 347.45 363.665 348.1375Q363.30563 348.825 362.6025 349.21564Q361.915 349.59064 361.1025 349.59064Q359.80563 349.59064 358.99313 348.7625Q358.19626 347.91876 358.19626 346.34064ZM359.27438 346.34064Q359.27438 347.52814 359.79 348.1219Q360.32126 348.71564 361.1025 348.71564Q361.89938 348.71564 362.415 348.1219Q362.93063 347.52814 362.93063 346.3094Q362.93063 345.15314 362.39938 344.5594Q361.88376 343.96564 361.1025 343.96564Q360.32126 343.96564 359.79 344.5594Q359.27438 345.1375 359.27438 346.34064ZM365.165 347.59064L366.19626 347.4344Q366.29 348.0594 366.68063 348.3875Q367.08688 348.71564 367.82126 348.71564Q368.54 348.71564 368.88376 348.4344Q369.24313 348.1375 369.24313 347.73126Q369.24313 347.3719 368.93063 347.16876Q368.71188 347.02814 367.8525 346.8094Q366.69626 346.5125 366.24313 346.3094Q365.80563 346.09064 365.57126 345.71564Q365.33688 345.34064 365.33688 344.8719Q365.33688 344.46564 365.52438 344.10626Q365.71188 343.7469 366.04 343.5125Q366.29 343.34064 366.71188 343.21564Q367.13376 343.09064 367.63376 343.09064Q368.3525 343.09064 368.89938 343.3094Q369.46188 343.5125 369.7275 343.8719Q369.99313 344.23126 370.08688 344.825L369.05563 344.96564Q368.99313 344.4969 368.64938 344.23126Q368.32126 343.95 367.69626 343.95Q366.9775 343.95 366.665 344.2Q366.3525 344.4344 366.3525 344.7625Q366.3525 344.96564 366.4775 345.1219Q366.61813 345.29376 366.88376 345.40314Q367.04 345.46564 367.82126 345.66876Q368.94626 345.98126 369.38376 346.16876Q369.82126 346.35626 370.07126 346.71564Q370.32126 347.075 370.32126 347.6219Q370.32126 348.15314 370.00876 348.6219Q369.71188 349.075 369.13376 349.34064Q368.55563 349.59064 367.82126 349.59064Q366.6025 349.59064 365.96188 349.09064Q365.33688 348.575 365.165 347.59064ZM376.83688 347.45L377.93063 347.575Q377.68063 348.52814 376.9775 349.0594Q376.27438 349.59064 375.19626 349.59064Q373.83688 349.59064 373.02438 348.7469Q372.2275 347.90314 372.2275 346.3875Q372.2275 344.825 373.04 343.96564Q373.8525 343.09064 375.13376 343.09064Q376.38376 343.09064 377.165 343.9344Q377.96188 344.77814 377.96188 346.325Q377.96188 346.41876 377.96188 346.60626L373.32126 346.60626Q373.38376 347.6375 373.89938 348.1844Q374.415 348.71564 375.19626 348.71564Q375.77438 348.71564 376.18063 348.41876Q376.6025 348.10626 376.83688 347.45ZM373.38376 345.7469L376.8525 345.7469Q376.79 344.95 376.46188 344.5594Q375.94626 343.95 375.14938 343.95Q374.415 343.95 373.915 344.4344Q373.43063 344.91876 373.38376 345.7469ZM383.64938 347.16876L384.68063 347.3094Q384.50876 348.3719 383.80563 348.98126Q383.1025 349.59064 382.08688 349.59064Q380.80563 349.59064 380.02438 348.7625Q379.25876 347.91876 379.25876 346.35626Q379.25876 345.35626 379.58688 344.60626Q379.93063 343.84064 380.6025 343.46564Q381.29 343.09064 382.1025 343.09064Q383.1025 343.09064 383.74313 343.60626Q384.39938 344.10626 384.58688 345.0594L383.55563 345.21564Q383.415 344.59064 383.04 344.27814Q382.665 343.95 382.13376 343.95Q381.33688 343.95 380.83688 344.52814Q380.33688 345.09064 380.33688 346.325Q380.33688 347.59064 380.82126 348.15314Q381.30563 348.71564 382.07126 348.71564Q382.69626 348.71564 383.1025 348.34064Q383.52438 347.96564 383.64938 347.16876ZM385.19626 346.34064Q385.19626 344.60626 386.14938 343.77814Q386.94626 343.09064 388.1025 343.09064Q389.38376 343.09064 390.19626 343.9344Q391.02438 344.7625 391.02438 346.2469Q391.02438 347.45 390.665 348.1375Q390.30563 348.825 389.6025 349.21564Q388.915 349.59064 388.1025 349.59064Q386.80563 349.59064 385.99313 348.7625Q385.19626 347.91876 385.19626 346.34064ZM386.27438 346.34064Q386.27438 347.52814 386.79 348.1219Q387.32126 348.71564 388.1025 348.71564Q388.89938 348.71564 389.415 348.1219Q389.93063 347.52814 389.93063 346.3094Q389.93063 345.15314 389.39938 344.5594Q388.88376 343.96564 388.1025 343.96564Q387.32126 343.96564 386.79 344.5594Q386.27438 345.1375 386.27438 346.34064ZM392.58688 349.45L392.58688 343.23126L393.52438 343.23126L393.52438 344.10626Q394.21188 343.09064 395.50876 343.09064Q396.07126 343.09064 396.54 343.29376Q397.02438 343.4969 397.25876 343.825Q397.49313 344.15314 397.58688 344.59064Q397.63376 344.8875 397.63376 345.6219L397.63376 349.45L396.58688 349.45L396.58688 345.66876Q396.58688 345.0125 396.46188 344.7Q396.33688 344.3875 396.02438 344.2Q395.71188 343.9969 395.29 343.9969Q394.61813 343.9969 394.11813 344.4344Q393.63376 344.85626 393.63376 346.04376L393.63376 349.45L392.58688 349.45ZM403.61813 349.45L403.61813 348.66876Q403.02438 349.59064 401.88376 349.59064Q401.13376 349.59064 400.50876 349.1844Q399.88376 348.7625 399.54 348.02814Q399.19626 347.29376 399.19626 346.34064Q399.19626 345.41876 399.50876 344.65314Q399.82126 343.8875 400.44626 343.4969Q401.07126 343.09064 401.83688 343.09064Q402.39938 343.09064 402.83688 343.325Q403.27438 343.5594 403.55563 343.9344L403.55563 340.85626L404.6025 340.85626L404.6025 349.45L403.61813 349.45ZM400.29 346.34064Q400.29 347.54376 400.79 348.1375Q401.29 348.71564 401.9775 348.71564Q402.665 348.71564 403.14938 348.15314Q403.63376 347.59064 403.63376 346.4344Q403.63376 345.15314 403.13376 344.5594Q402.64938 343.96564 401.93063 343.96564Q401.2275 343.96564 400.75876 344.54376Q400.29 345.10626 400.29 346.34064ZM406.165 347.59064L407.19626 347.4344Q407.29 348.0594 407.68063 348.3875Q408.08688 348.71564 408.82126 348.71564Q409.54 348.71564 409.88376 348.4344Q410.24313 348.1375 410.24313 347.73126Q410.24313 347.3719 409.93063 347.16876Q409.71188 347.02814 408.8525 346.8094Q407.69626 346.5125 407.24313 346.3094Q406.80563 346.09064 406.57126 345.71564Q406.33688 345.34064 406.33688 344.8719Q406.33688 344.46564 406.52438 344.10626Q406.71188 343.7469 407.04 343.5125Q407.29 343.34064 407.71188 343.21564Q408.13376 343.09064 408.63376 343.09064Q409.3525 343.09064 409.89938 343.3094Q410.46188 343.5125 410.7275 343.8719Q410.99313 344.23126 411.08688 344.825L410.05563 344.96564Q409.99313 344.4969 409.64938 344.23126Q409.32126 343.95 408.69626 343.95Q407.9775 343.95 407.665 344.2Q407.3525 344.4344 407.3525 344.7625Q407.3525 344.96564 407.4775 345.1219Q407.61813 345.29376 407.88376 345.40314Q408.04 345.46564 408.82126 345.66876Q409.94626 345.98126 410.38376 346.16876Q410.82126 346.35626 411.07126 346.71564Q411.32126 347.075 411.32126 347.6219Q411.32126 348.15314 411.00876 348.6219Q410.71188 349.075 410.13376 349.34064Q409.55563 349.59064 408.82126 349.59064Q407.6025 349.59064 406.96188 349.09064Q406.33688 348.575 406.165 347.59064ZM414.27438 351.98126L413.52438 351.98126Q415.27438 349.16876 415.27438 346.34064Q415.27438 345.2469 415.02438 344.15314Q414.82126 343.27814 414.46188 342.46564Q414.2275 341.95 413.52438 340.71564L414.27438 340.71564Q415.36813 342.1844 415.89938 343.66876Q416.3525 344.95 416.3525 346.34064Q416.3525 347.91876 415.74313 349.40314Q415.13376 350.8719 414.27438 351.98126Z" fill-rule="nonzero"/><path fill="#000000" d="M61.72375 122.957825L62.755 123.114075Q62.8175 123.582825 63.114376 123.801575Q63.505 124.09845 64.17688 124.09845Q64.911255 124.09845 65.30188 123.801575Q65.70813 123.5047 65.848755 122.989075Q65.942505 122.66095 65.92688 121.6297Q65.23938 122.4422 64.20813 122.4422Q62.926876 122.4422 62.22375 121.520325Q61.520626 120.582825 61.520626 119.301575Q61.520626 118.41095 61.833126 117.66095Q62.16125 116.895325 62.770626 116.489075Q63.38 116.082825 64.20813 116.082825Q65.317505 116.082825 66.036255 116.97345L66.036255 116.22345L67.005005 116.22345L67.005005 121.59845Q67.005005 123.051575 66.70813 123.66095Q66.411255 124.270325 65.77063 124.614075Q65.130005 124.97345 64.192505 124.97345Q63.083126 124.97345 62.395626 124.47345Q61.708126 123.97345 61.72375 122.957825ZM62.59875 119.22345Q62.59875 120.4422 63.083126 121.0047Q63.5675 121.5672 64.30188 121.5672Q65.036255 121.5672 65.52063 121.0047Q66.02063 120.4422 66.02063 119.2547Q66.02063 118.114075 65.505005 117.53595Q65.005005 116.957825 64.286255 116.957825Q63.583126 116.957825 63.083126 117.53595Q62.59875 118.09845 62.59875 119.22345ZM70.64563 122.4422L68.286255 116.22345L69.39563 116.22345L70.73938 119.9422Q70.942505 120.551575 71.130005 121.1922Q71.27063 120.707825 71.52063 120.020325L72.911255 116.22345L73.98938 116.22345L71.630005 122.4422L70.64563 122.4422ZM73.92688 115.0672L73.92688 113.84845L74.98938 113.84845L74.98938 115.0672L73.92688 115.0672ZM73.92688 122.4422L73.92688 116.22345L74.98938 116.22345L74.98938 122.4422L73.92688 122.4422ZM76.505005 120.582825L77.536255 120.426575Q77.630005 121.051575 78.02063 121.3797Q78.42688 121.707825 79.161255 121.707825Q79.880005 121.707825 80.223755 121.426575Q80.58313 121.1297 80.58313 120.72345Q80.58313 120.364075 80.27063 120.16095Q80.05188 120.020325 79.192505 119.801575Q78.036255 119.5047 77.58313 119.301575Q77.14563 119.082825 76.911255 118.707825Q76.67688 118.332825 76.67688 117.864075Q76.67688 117.457825 76.86438 117.09845Q77.05188 116.739075 77.380005 116.5047Q77.630005 116.332825 78.05188 116.207825Q78.473755 116.082825 78.973755 116.082825Q79.692505 116.082825 80.23938 116.301575Q80.80188 116.5047 81.067505 116.864075Q81.33313 117.22345 81.42688 117.8172L80.39563 117.957825Q80.33313 117.489075 79.98938 117.22345Q79.661255 116.9422 79.036255 116.9422Q78.317505 116.9422 78.005005 117.1922Q77.692505 117.426575 77.692505 117.7547Q77.692505 117.957825 77.817505 118.114075Q77.95813 118.28595 78.223755 118.395325Q78.380005 118.457825 79.161255 118.66095Q80.286255 118.97345 80.723755 119.16095Q81.161255 119.34845 81.411255 119.707825Q81.661255 120.0672 81.661255 120.614075Q81.661255 121.145325 81.348755 121.614075Q81.05188 122.0672 80.473755 122.332825Q79.89563 122.582825 79.161255 122.582825Q77.942505 122.582825 77.30188 122.082825Q76.67688 121.5672 76.505005 120.582825ZM83.536255 119.332825Q83.536255 117.59845 84.48938 116.770325Q85.286255 116.082825 86.442505 116.082825Q87.723755 116.082825 88.536255 116.926575Q89.36438 117.7547 89.36438 119.239075Q89.36438 120.4422 89.005005 121.1297Q88.64563 121.8172 87.942505 122.207825Q87.255005 122.582825 86.442505 122.582825Q85.14563 122.582825 84.33313 121.7547Q83.536255 120.91095 83.536255 119.332825ZM84.61438 119.332825Q84.61438 120.520325 85.130005 121.114075Q85.661255 121.707825 86.442505 121.707825Q87.23938 121.707825 87.755005 121.114075Q88.27063 120.520325 88.27063 119.301575Q88.27063 118.145325 87.73938 117.551575Q87.223755 116.957825 86.442505 116.957825Q85.661255 116.957825 85.130005 117.551575Q84.61438 118.1297 84.61438 119.332825ZM90.911255 122.4422L90.911255 116.22345L91.86438 116.22345L91.86438 117.16095Q92.223755 116.5047 92.52063 116.301575Q92.83313 116.082825 93.20813 116.082825Q93.73938 116.082825 94.286255 116.41095L93.92688 117.395325Q93.536255 117.16095 93.161255 117.16095Q92.80188 117.16095 92.52063 117.3797Q92.255005 117.582825 92.14563 117.957825Q91.95813 118.520325 91.95813 119.176575L91.95813 122.4422L90.911255 122.4422ZM97.92688 124.832825L97.92688 116.22345L98.880005 116.22345L98.880005 117.020325Q99.223755 116.551575 99.64563 116.3172Q100.08313 116.082825 100.692505 116.082825Q101.48938 116.082825 102.098755 116.489075Q102.70813 116.895325 103.005005 117.645325Q103.317505 118.395325 103.317505 119.28595Q103.317505 120.239075 102.973755 121.0047Q102.64563 121.770325 101.98938 122.176575Q101.33313 122.582825 100.61438 122.582825Q100.08313 122.582825 99.661255 122.364075Q99.23938 122.1297 98.973755 121.801575L98.973755 124.832825L97.92688 124.832825ZM98.880005 119.364075Q98.880005 120.5672 99.36438 121.145325Q99.848755 121.707825 100.536255 121.707825Q101.23938 121.707825 101.73938 121.114075Q102.23938 120.520325 102.23938 119.270325Q102.23938 118.082825 101.755005 117.5047Q101.27063 116.91095 100.58313 116.91095Q99.911255 116.91095 99.39563 117.53595Q98.880005 118.16095 98.880005 119.364075ZM107.223755 121.5047L107.380005 122.426575Q106.92688 122.520325 106.58313 122.520325Q106.005005 122.520325 105.692505 122.34845Q105.380005 122.16095 105.23938 121.864075Q105.11438 121.5672 105.11438 120.614075L105.11438 117.03595L104.348755 117.03595L104.348755 116.22345L105.11438 116.22345L105.11438 114.676575L106.161255 114.051575L106.161255 116.22345L107.223755 116.22345L107.223755 117.03595L106.161255 117.03595L106.161255 120.676575Q106.161255 121.1297 106.20813 121.2547Q106.27063 121.3797 106.39563 121.457825Q106.52063 121.53595 106.755005 121.53595Q106.942505 121.53595 107.223755 121.5047ZM107.911255 122.4422L107.911255 116.22345L108.86438 116.22345L108.86438 117.16095Q109.223755 116.5047 109.52063 116.301575Q109.83313 116.082825 110.20813 116.082825Q110.73938 116.082825 111.286255 116.41095L110.92688 117.395325Q110.536255 117.16095 110.161255 117.16095Q109.80188 117.16095 109.52063 117.3797Q109.255005 117.582825 109.14563 117.957825Q108.95813 118.520325 108.95813 119.176575L108.95813 122.4422L107.911255 122.4422ZM115.98938 121.676575Q115.39563 122.176575 114.848755 122.3797Q114.317505 122.582825 113.692505 122.582825Q112.661255 122.582825 112.11438 122.082825Q111.567505 121.582825 111.567505 120.801575Q111.567505 120.34845 111.77063 119.97345Q111.973755 119.582825 112.317505 119.364075Q112.661255 119.1297 113.08313 119.020325Q113.380005 118.926575 114.02063 118.84845Q115.286255 118.707825 115.89563 118.489075Q115.89563 118.270325 115.89563 118.22345Q115.89563 117.5672 115.598755 117.301575Q115.192505 116.957825 114.39563 116.957825Q113.661255 116.957825 113.30188 117.22345Q112.942505 117.47345 112.77063 118.1297L111.73938 117.989075Q111.880005 117.332825 112.20813 116.926575Q112.536255 116.520325 113.14563 116.301575Q113.755005 116.082825 114.55188 116.082825Q115.348755 116.082825 115.848755 116.270325Q116.348755 116.457825 116.58313 116.739075Q116.817505 117.020325 116.911255 117.457825Q116.95813 117.72345 116.95813 118.426575L116.95813 119.832825Q116.95813 121.301575 117.02063 121.6922Q117.098755 122.082825 117.30188 122.4422L116.192505 122.4422Q116.036255 122.114075 115.98938 121.676575ZM115.89563 119.3172Q115.317505 119.551575 114.17688 119.72345Q113.52063 119.8172 113.255005 119.9422Q112.98938 120.051575 112.83313 120.270325Q112.692505 120.489075 112.692505 120.770325Q112.692505 121.1922 113.005005 121.47345Q113.33313 121.7547 113.942505 121.7547Q114.55188 121.7547 115.02063 121.489075Q115.505005 121.22345 115.723755 120.7547Q115.89563 120.395325 115.89563 119.707825L115.89563 119.3172ZM122.98938 120.16095L124.02063 120.301575Q123.848755 121.364075 123.14563 121.97345Q122.442505 122.582825 121.42688 122.582825Q120.14563 122.582825 119.36438 121.7547Q118.598755 120.91095 118.598755 119.34845Q118.598755 118.34845 118.92688 117.59845Q119.27063 116.832825 119.942505 116.457825Q120.630005 116.082825 121.442505 116.082825Q122.442505 116.082825 123.08313 116.59845Q123.73938 117.09845 123.92688 118.051575L122.89563 118.207825Q122.755005 117.582825 122.380005 117.270325Q122.005005 116.9422 121.473755 116.9422Q120.67688 116.9422 120.17688 117.520325Q119.67688 118.082825 119.67688 119.3172Q119.67688 120.582825 120.161255 121.145325Q120.64563 121.707825 121.411255 121.707825Q122.036255 121.707825 122.442505 121.332825Q122.86438 120.957825 122.98938 120.16095ZM129.17688 120.4422L130.27063 120.5672Q130.02063 121.520325 129.3175 122.051575Q128.61438 122.582825 127.536255 122.582825Q126.17688 122.582825 125.36438 121.739075Q124.567505 120.895325 124.567505 119.3797Q124.567505 117.8172 125.380005 116.957825Q126.192505 116.082825 127.473755 116.082825Q128.72375 116.082825 129.505 116.926575Q130.30188 117.770325 130.30188 119.3172Q130.30188 119.41095 130.30188 119.59845L125.661255 119.59845Q125.723755 120.6297 126.23938 121.176575Q126.755005 121.707825 127.536255 121.707825Q128.11438 121.707825 128.52063 121.41095Q128.9425 121.09845 129.17688 120.4422ZM125.723755 118.739075L129.1925 118.739075Q129.13 117.9422 128.80188 117.551575Q128.28625 116.9422 127.48938 116.9422Q126.755005 116.9422 126.255005 117.426575Q125.77063 117.91095 125.723755 118.739075Z" fill-rule="nonzero"/><path fill="#000000" d="M86.92687 138.83282L86.92687 130.22345L87.88 130.22345L87.88 131.02032Q88.22375 130.55157 88.64562 130.3172Q89.08312 130.08282 89.6925 130.08282Q90.48937 130.08282 91.09875 130.48907Q91.70812 130.89532 92.005 131.64532Q92.3175 132.39532 92.3175 133.28595Q92.3175 134.23907 91.97375 135.0047Q91.64562 135.77032 90.98937 136.17657Q90.33312 136.58282 89.61437 136.58282Q89.08312 136.58282 88.66125 136.36407Q88.23937 136.1297 87.97375 135.80157L87.97375 138.83282L86.92687 138.83282ZM87.88 133.36407Q87.88 134.5672 88.36437 135.14532Q88.84875 135.70782 89.53625 135.70782Q90.23937 135.70782 90.73937 135.11407Q91.23937 134.52032 91.23937 133.27032Q91.23937 132.08282 90.755 131.5047Q90.27062 130.91095 89.58312 130.91095Q88.91125 130.91095 88.39562 131.53595Q87.88 132.16095 87.88 133.36407ZM93.89562 136.4422L93.89562 127.84845L94.95812 127.84845L94.95812 136.4422L93.89562 136.4422ZM100.98937 135.67657Q100.39562 136.17657 99.84875 136.3797Q99.3175 136.58282 98.6925 136.58282Q97.66125 136.58282 97.11437 136.08282Q96.5675 135.58282 96.5675 134.80157Q96.5675 134.34845 96.77062 133.97345Q96.97375 133.58282 97.3175 133.36407Q97.66125 133.1297 98.08312 133.02032Q98.38 132.92657 99.02062 132.84845Q100.28625 132.70782 100.89562 132.48907Q100.89562 132.27032 100.89562 132.22345Q100.89562 131.5672 100.59875 131.30157Q100.1925 130.95782 99.39562 130.95782Q98.66125 130.95782 98.30187 131.22345Q97.9425 131.47345 97.77062 132.1297L96.73937 131.98907Q96.88 131.33282 97.20812 130.92657Q97.53625 130.52032 98.14562 130.30157Q98.755 130.08282 99.55187 130.08282Q100.34875 130.08282 100.84875 130.27032Q101.34875 130.45782 101.58312 130.73907Q101.8175 131.02032 101.91125 131.45782Q101.95812 131.72345 101.95812 132.42657L101.95812 133.83282Q101.95812 135.30157 102.02062 135.6922Q102.09875 136.08282 102.30187 136.4422L101.1925 136.4422Q101.03625 136.11407 100.98937 135.67657ZM100.89562 133.3172Q100.3175 133.55157 99.17687 133.72345Q98.52062 133.8172 98.255 133.9422Q97.98937 134.05157 97.83312 134.27032Q97.6925 134.48907 97.6925 134.77032Q97.6925 135.1922 98.005 135.47345Q98.33312 135.7547 98.9425 135.7547Q99.55187 135.7547 100.02062 135.48907Q100.505 135.22345 100.72375 134.7547Q100.89562 134.39532 100.89562 133.70782L100.89562 133.3172ZM106.22375 135.5047L106.38 136.42657Q105.92687 136.52032 105.58312 136.52032Q105.005 136.52032 104.6925 136.34845Q104.38 136.16095 104.23937 135.86407Q104.11437 135.5672 104.11437 134.61407L104.11437 131.03595L103.34875 131.03595L103.34875 130.22345L104.11437 130.22345L104.11437 128.67657L105.16125 128.05157L105.16125 130.22345L106.22375 130.22345L106.22375 131.03595L105.16125 131.03595L105.16125 134.67657Q105.16125 135.1297 105.20812 135.2547Q105.27062 135.3797 105.39562 135.45782Q105.52062 135.53595 105.755 135.53595Q105.9425 135.53595 106.22375 135.5047ZM107.17687 136.4422L107.17687 131.03595L106.23937 131.03595L106.23937 130.22345L107.17687 130.22345L107.17687 129.55157Q107.17687 128.92657 107.28625 128.6297Q107.4425 128.20782 107.8175 127.957825Q108.20812 127.707825 108.89562 127.707825Q109.34875 127.707825 109.88 127.8172L109.72375 128.72345Q109.39562 128.67657 109.09875 128.67657Q108.61437 128.67657 108.41125 128.8797Q108.22375 129.08282 108.22375 129.64532L108.22375 130.22345L109.4425 130.22345L109.4425 131.03595L108.22375 131.03595L108.22375 136.4422L107.17687 136.4422ZM109.53625 133.33282Q109.53625 131.59845 110.48937 130.77032Q111.28625 130.08282 112.4425 130.08282Q113.72375 130.08282 114.53625 130.92657Q115.36437 131.7547 115.36437 133.23907Q115.36437 134.4422 115.005 135.1297Q114.64562 135.8172 113.9425 136.20782Q113.255 136.58282 112.4425 136.58282Q111.14562 136.58282 110.33312 135.7547Q109.53625 134.91095 109.53625 133.33282ZM110.61437 133.33282Q110.61437 134.52032 111.13 135.11407Q111.66125 135.70782 112.4425 135.70782Q113.23937 135.70782 113.755 135.11407Q114.27062 134.52032 114.27062 133.30157Q114.27062 132.14532 113.73937 131.55157Q113.22375 130.95782 112.4425 130.95782Q111.66125 130.95782 111.13 131.55157Q110.61437 132.1297 110.61437 133.33282ZM116.91125 136.4422L116.91125 130.22345L117.86437 130.22345L117.86437 131.16095Q118.22375 130.5047 118.52062 130.30157Q118.83312 130.08282 119.20812 130.08282Q119.73937 130.08282 120.28625 130.41095L119.92687 131.39532Q119.53625 131.16095 119.16125 131.16095Q118.80187 131.16095 118.52062 131.3797Q118.255 131.58282 118.14562 131.95782Q117.95812 132.52032 117.95812 133.17657L117.95812 136.4422L116.91125 136.4422ZM120.92687 136.4422L120.92687 130.22345L121.86437 130.22345L121.86437 131.09845Q122.16125 130.6297 122.64562 130.36407Q123.13 130.08282 123.755 130.08282Q124.4425 130.08282 124.88 130.36407Q125.33312 130.64532 125.505 131.16095Q126.255 130.08282 127.42687 130.08282Q128.36438 130.08282 128.84875 130.59845Q129.34875 131.09845 129.34875 132.17657L129.34875 136.4422L128.30188 136.4422L128.30188 132.52032Q128.30188 131.89532 128.1925 131.61407Q128.09875 131.33282 127.83312 131.16095Q127.5675 130.98907 127.1925 130.98907Q126.53625 130.98907 126.09875 131.42657Q125.67687 131.86407 125.67687 132.83282L125.67687 136.4422L124.61437 136.4422L124.61437 132.39532Q124.61437 131.6922 124.34875 131.34845Q124.09875 130.98907 123.52062 130.98907Q123.0675 130.98907 122.6925 131.22345Q122.3175 131.45782 122.14562 131.91095Q121.97375 132.36407 121.97375 133.20782L121.97375 136.4422L120.92687 136.4422Z" fill-rule="nonzero"/><path fill="#000000" d="M47.005 226.92447L47.005 218.33072L48.145626 218.33072L48.145626 225.90884L52.38 225.90884L52.38 226.92447L47.005 226.92447ZM53.926876 219.54947L53.926876 218.33072L54.989376 218.33072L54.989376 219.54947L53.926876 219.54947ZM53.926876 226.92447L53.926876 220.70572L54.989376 220.70572L54.989376 226.92447L53.926876 226.92447ZM56.926876 226.92447L56.926876 220.70572L57.864376 220.70572L57.864376 221.58072Q58.551876 220.5651 59.84875 220.5651Q60.41125 220.5651 60.88 220.76822Q61.364376 220.97134 61.59875 221.29947Q61.833126 221.6276 61.926876 222.0651Q61.97375 222.36197 61.97375 223.09634L61.97375 226.92447L60.926876 226.92447L60.926876 223.14322Q60.926876 222.48697 60.801876 222.17447Q60.676876 221.86197 60.364376 221.67447Q60.051876 221.47134 59.63 221.47134Q58.958126 221.47134 58.458126 221.90884Q57.97375 222.33072 57.97375 223.51822L57.97375 226.92447L56.926876 226.92447ZM68.005005 226.92447L68.005005 226.0026Q67.27063 227.0651 66.02063 227.0651Q65.473755 227.0651 64.98938 226.86197Q64.52063 226.64322 64.286255 226.33072Q64.05188 226.0026 63.958126 225.53384Q63.895626 225.23697 63.895626 224.54947L63.895626 220.70572L64.95813 220.70572L64.95813 224.15884Q64.95813 224.97134 65.02063 225.26822Q65.11438 225.67447 65.42688 225.92447Q65.755005 226.15884 66.23938 226.15884Q66.70813 226.15884 67.11438 225.92447Q67.536255 225.67447 67.70813 225.2526Q67.89563 224.83072 67.89563 224.03384L67.89563 220.70572L68.942505 220.70572L68.942505 226.92447L68.005005 226.92447ZM70.223755 226.92447L72.48938 223.6901L70.39563 220.70572L71.70813 220.70572L72.661255 222.15884Q72.92688 222.58072 73.098755 222.86197Q73.348755 222.47134 73.567505 222.17447L74.61438 220.70572L75.880005 220.70572L73.723755 223.6276L76.036255 226.92447L74.755005 226.92447L73.473755 224.98697L73.130005 224.47134L71.48938 226.92447L70.223755 226.92447ZM78.92688 226.92447L78.92688 220.70572L79.86438 220.70572L79.86438 221.58072Q80.55188 220.5651 81.848755 220.5651Q82.411255 220.5651 82.880005 220.76822Q83.36438 220.97134 83.598755 221.29947Q83.83313 221.6276 83.92688 222.0651Q83.973755 222.36197 83.973755 223.09634L83.973755 226.92447L82.92688 226.92447L82.92688 223.14322Q82.92688 222.48697 82.80188 222.17447Q82.67688 221.86197 82.36438 221.67447Q82.05188 221.47134 81.630005 221.47134Q80.95813 221.47134 80.45813 221.90884Q79.973755 222.33072 79.973755 223.51822L79.973755 226.92447L78.92688 226.92447ZM89.98938 226.15884Q89.39563 226.65884 88.848755 226.86197Q88.317505 227.0651 87.692505 227.0651Q86.661255 227.0651 86.11438 226.5651Q85.567505 226.0651 85.567505 225.28384Q85.567505 224.83072 85.77063 224.45572Q85.973755 224.0651 86.317505 223.84634Q86.661255 223.61197 87.08313 223.5026Q87.380005 223.40884 88.02063 223.33072Q89.286255 223.1901 89.89563 222.97134Q89.89563 222.7526 89.89563 222.70572Q89.89563 222.04947 89.598755 221.78384Q89.192505 221.4401 88.39563 221.4401Q87.661255 221.4401 87.30188 221.70572Q86.942505 221.95572 86.77063 222.61197L85.73938 222.47134Q85.880005 221.8151 86.20813 221.40884Q86.536255 221.0026 87.14563 220.78384Q87.755005 220.5651 88.55188 220.5651Q89.348755 220.5651 89.848755 220.7526Q90.348755 220.9401 90.58313 221.22134Q90.817505 221.5026 90.911255 221.9401Q90.95813 222.20572 90.95813 222.90884L90.95813 224.3151Q90.95813 225.78384 91.02063 226.17447Q91.098755 226.5651 91.30188 226.92447L90.192505 226.92447Q90.036255 226.59634 89.98938 226.15884ZM89.89563 223.79947Q89.317505 224.03384 88.17688 224.20572Q87.52063 224.29947 87.255005 224.42447Q86.98938 224.53384 86.83313 224.7526Q86.692505 224.97134 86.692505 225.2526Q86.692505 225.67447 87.005005 225.95572Q87.33313 226.23697 87.942505 226.23697Q88.55188 226.23697 89.02063 225.97134Q89.505005 225.70572 89.723755 225.23697Q89.89563 224.8776 89.89563 224.1901L89.89563 223.79947ZM95.223755 225.98697L95.380005 226.90884Q94.92688 227.0026 94.58313 227.0026Q94.005005 227.0026 93.692505 226.83072Q93.380005 226.64322 93.23938 226.34634Q93.11438 226.04947 93.11438 225.09634L93.11438 221.51822L92.348755 221.51822L92.348755 220.70572L93.11438 220.70572L93.11438 219.15884L94.161255 218.53384L94.161255 220.70572L95.223755 220.70572L95.223755 221.51822L94.161255 221.51822L94.161255 225.15884Q94.161255 225.61197 94.20813 225.73697Q94.27063 225.86197 94.39563 225.9401Q94.52063 226.01822 94.755005 226.01822Q94.942505 226.01822 95.223755 225.98697ZM95.92688 219.54947L95.92688 218.33072L96.98938 218.33072L96.98938 219.54947L95.92688 219.54947ZM95.92688 226.92447L95.92688 220.70572L96.98938 220.70572L96.98938 226.92447L95.92688 226.92447ZM100.64563 226.92447L98.286255 220.70572L99.39563 220.70572L100.73938 224.42447Q100.942505 225.03384 101.130005 225.67447Q101.27063 225.1901 101.52063 224.5026L102.911255 220.70572L103.98938 220.70572L101.630005 226.92447L100.64563 226.92447ZM108.17688 224.92447L109.27063 225.04947Q109.02063 226.0026 108.317505 226.53384Q107.61438 227.0651 106.536255 227.0651Q105.17688 227.0651 104.36438 226.22134Q103.567505 225.3776 103.567505 223.86197Q103.567505 222.29947 104.380005 221.4401Q105.192505 220.5651 106.473755 220.5651Q107.723755 220.5651 108.505005 221.40884Q109.30188 222.2526 109.30188 223.79947Q109.30188 223.89322 109.30188 224.08072L104.661255 224.08072Q104.723755 225.11197 105.23938 225.65884Q105.755005 226.1901 106.536255 226.1901Q107.11438 226.1901 107.52063 225.89322Q107.942505 225.58072 108.17688 224.92447ZM104.723755 223.22134L108.192505 223.22134Q108.130005 222.42447 107.80188 222.03384Q107.286255 221.42447 106.48938 221.42447Q105.755005 221.42447 105.255005 221.90884Q104.77063 222.39322 104.723755 223.22134ZM115.942505 229.45572Q115.067505 228.34634 114.45813 226.8776Q113.86438 225.39322 113.86438 223.8151Q113.86438 222.42447 114.30188 221.14322Q114.83313 219.65884 115.942505 218.1901L116.692505 218.1901Q115.98938 219.40884 115.755005 219.92447Q115.39563 220.73697 115.192505 221.61197Q114.942505 222.70572 114.942505 223.8151Q114.942505 226.64322 116.692505 229.45572L115.942505 229.45572ZM117.92688 226.92447L117.92688 220.70572L118.86438 220.70572L118.86438 221.58072Q119.55188 220.5651 120.848755 220.5651Q121.411255 220.5651 121.880005 220.76822Q122.36438 220.97134 122.598755 221.29947Q122.83313 221.6276 122.92688 222.0651Q122.973755 222.36197 122.973755 223.09634L122.973755 226.92447L121.92688 226.92447L121.92688 223.14322Q121.92688 222.48697 121.80188 222.17447Q121.67688 221.86197 121.36438 221.67447Q121.05188 221.47134 120.630005 221.47134Q119.95813 221.47134 119.45813 221.90884Q118.973755 222.33072 118.973755 223.51822L118.973755 226.92447L117.92688 226.92447ZM124.536255 223.8151Q124.536255 222.08072 125.48938 221.2526Q126.286255 220.5651 127.442505 220.5651Q128.72375 220.5651 129.53625 221.40884Q130.36438 222.23697 130.36438 223.72134Q130.36438 224.92447 130.005 225.61197Q129.64563 226.29947 128.9425 226.6901Q128.255 227.0651 127.442505 227.0651Q126.14563 227.0651 125.33313 226.23697Q124.536255 225.39322 124.536255 223.8151ZM125.61438 223.8151Q125.61438 225.0026 126.130005 225.59634Q126.661255 226.1901 127.442505 226.1901Q128.23938 226.1901 128.755 225.59634Q129.27063 225.0026 129.27063 223.78384Q129.27063 222.6276 128.73938 222.03384Q128.22375 221.4401 127.442505 221.4401Q126.661255 221.4401 126.130005 222.03384Q125.61438 222.61197 125.61438 223.8151Z" fill-rule="nonzero"/><path fill="#000000" d="M80.505 239.0651L81.53625 238.90884Q81.63 239.53384 82.02062 239.86197Q82.42687 240.1901 83.16125 240.1901Q83.88 240.1901 84.22375 239.90884Q84.58312 239.61197 84.58312 239.20572Q84.58312 238.84634 84.27062 238.64322Q84.05187 238.5026 83.1925 238.28384Q82.03625 237.98697 81.58312 237.78384Q81.14562 237.5651 80.91125 237.1901Q80.67687 236.8151 80.67687 236.34634Q80.67687 235.9401 80.86437 235.58072Q81.05187 235.22134 81.38 234.98697Q81.63 234.8151 82.05187 234.6901Q82.47375 234.5651 82.97375 234.5651Q83.6925 234.5651 84.23937 234.78384Q84.80187 234.98697 85.0675 235.34634Q85.33312 235.70572 85.42687 236.29947L84.39562 236.4401Q84.33312 235.97134 83.98937 235.70572Q83.66125 235.42447 83.03625 235.42447Q82.3175 235.42447 82.005 235.67447Q81.6925 235.90884 81.6925 236.23697Q81.6925 236.4401 81.8175 236.59634Q81.95812 236.76822 82.22375 236.8776Q82.38 236.9401 83.16125 237.14322Q84.28625 237.45572 84.72375 237.64322Q85.16125 237.83072 85.41125 238.1901Q85.66125 238.54947 85.66125 239.09634Q85.66125 239.6276 85.34875 240.09634Q85.05187 240.54947 84.47375 240.8151Q83.89562 241.0651 83.16125 241.0651Q81.9425 241.0651 81.30187 240.5651Q80.67687 240.04947 80.505 239.0651ZM91.98937 240.15884Q91.39562 240.65884 90.84875 240.86197Q90.3175 241.0651 89.6925 241.0651Q88.66125 241.0651 88.11437 240.5651Q87.5675 240.0651 87.5675 239.28384Q87.5675 238.83072 87.77062 238.45572Q87.97375 238.0651 88.3175 237.84634Q88.66125 237.61197 89.08312 237.5026Q89.38 237.40884 90.02062 237.33072Q91.28625 237.1901 91.89562 236.97134Q91.89562 236.7526 91.89562 236.70572Q91.89562 236.04947 91.59875 235.78384Q91.1925 235.4401 90.39562 235.4401Q89.66125 235.4401 89.30187 235.70572Q88.9425 235.95572 88.77062 236.61197L87.73937 236.47134Q87.88 235.8151 88.20812 235.40884Q88.53625 235.0026 89.14562 234.78384Q89.755 234.5651 90.55187 234.5651Q91.34875 234.5651 91.84875 234.7526Q92.34875 234.9401 92.58312 235.22134Q92.8175 235.5026 92.91125 235.9401Q92.95812 236.20572 92.95812 236.90884L92.95812 238.3151Q92.95812 239.78384 93.02062 240.17447Q93.09875 240.5651 93.30187 240.92447L92.1925 240.92447Q92.03625 240.59634 91.98937 240.15884ZM91.89562 237.79947Q91.3175 238.03384 90.17687 238.20572Q89.52062 238.29947 89.255 238.42447Q88.98937 238.53384 88.83312 238.7526Q88.6925 238.97134 88.6925 239.2526Q88.6925 239.67447 89.005 239.95572Q89.33312 240.23697 89.9425 240.23697Q90.55187 240.23697 91.02062 239.97134Q91.505 239.70572 91.72375 239.23697Q91.89562 238.8776 91.89562 238.1901L91.89562 237.79947ZM94.92687 240.92447L94.92687 234.70572L95.86437 234.70572L95.86437 235.58072Q96.55187 234.5651 97.84875 234.5651Q98.41125 234.5651 98.88 234.76822Q99.36437 234.97134 99.59875 235.29947Q99.83312 235.6276 99.92687 236.0651Q99.97375 236.36197 99.97375 237.09634L99.97375 240.92447L98.92687 240.92447L98.92687 237.14322Q98.92687 236.48697 98.80187 236.17447Q98.67687 235.86197 98.36437 235.67447Q98.05187 235.47134 97.63 235.47134Q96.95812 235.47134 96.45812 235.90884Q95.97375 236.33072 95.97375 237.51822L95.97375 240.92447L94.92687 240.92447ZM105.95812 240.92447L105.95812 240.14322Q105.36437 241.0651 104.22375 241.0651Q103.47375 241.0651 102.84875 240.65884Q102.22375 240.23697 101.88 239.5026Q101.53625 238.76822 101.53625 237.8151Q101.53625 236.89322 101.84875 236.1276Q102.16125 235.36197 102.78625 234.97134Q103.41125 234.5651 104.17687 234.5651Q104.73937 234.5651 105.17687 234.79947Q105.61437 235.03384 105.89562 235.40884L105.89562 232.33072L106.9425 232.33072L106.9425 240.92447L105.95812 240.92447ZM102.63 237.8151Q102.63 239.01822 103.13 239.61197Q103.63 240.1901 104.3175 240.1901Q105.005 240.1901 105.48937 239.6276Q105.97375 239.0651 105.97375 237.90884Q105.97375 236.6276 105.47375 236.03384Q104.98937 235.4401 104.27062 235.4401Q103.5675 235.4401 103.09875 236.01822Q102.63 236.58072 102.63 237.8151ZM109.89562 240.92447L108.91125 240.92447L108.91125 232.33072L109.97375 232.33072L109.97375 235.39322Q110.64562 234.5651 111.67687 234.5651Q112.255 234.5651 112.755 234.79947Q113.27062 235.01822 113.59875 235.4401Q113.9425 235.86197 114.13 236.45572Q114.3175 237.04947 114.3175 237.72134Q114.3175 239.3151 113.52062 240.1901Q112.72375 241.0651 111.63 241.0651Q110.52062 241.0651 109.89562 240.14322L109.89562 240.92447ZM109.88 237.76822Q109.88 238.8776 110.1925 239.3776Q110.6925 240.1901 111.53625 240.1901Q112.22375 240.1901 112.72375 239.59634Q113.23937 239.0026 113.23937 237.79947Q113.23937 236.58072 112.755 236.0026Q112.27062 235.42447 111.58312 235.42447Q110.89562 235.42447 110.38 236.03384Q109.88 236.6276 109.88 237.76822ZM115.53625 237.8151Q115.53625 236.08072 116.48937 235.2526Q117.28625 234.5651 118.4425 234.5651Q119.72375 234.5651 120.53625 235.40884Q121.36437 236.23697 121.36437 237.72134Q121.36437 238.92447 121.005 239.61197Q120.64562 240.29947 119.9425 240.6901Q119.255 241.0651 118.4425 241.0651Q117.14562 241.0651 116.33312 240.23697Q115.53625 239.39322 115.53625 237.8151ZM116.61437 237.8151Q116.61437 239.0026 117.13 239.59634Q117.66125 240.1901 118.4425 240.1901Q119.23937 240.1901 119.755 239.59634Q120.27062 239.0026 120.27062 237.78384Q120.27062 236.6276 119.73937 236.03384Q119.22375 235.4401 118.4425 235.4401Q117.66125 235.4401 117.13 236.03384Q116.61437 236.61197 116.61437 237.8151ZM122.22375 240.92447L124.48937 237.6901L122.39562 234.70572L123.70812 234.70572L124.66125 236.15884Q124.92687 236.58072 125.09875 236.86197Q125.34875 236.47134 125.5675 236.17447L126.61437 234.70572L127.88 234.70572L125.72375 237.6276L128.03625 240.92447L126.755 240.92447L125.47375 238.98697L125.13 238.47134L123.48937 240.92447L122.22375 240.92447ZM128.61438 243.45572L127.86437 243.45572Q129.61438 240.64322 129.61438 237.8151Q129.61438 236.72134 129.36438 235.6276Q129.16125 234.7526 128.80188 233.9401Q128.5675 233.42447 127.86437 232.1901L128.61438 232.1901Q129.70813 233.65884 130.23938 235.14322Q130.6925 236.42447 130.6925 237.8151Q130.6925 239.39322 130.08313 240.8776Q129.47375 242.34634 128.61438 243.45572Z" fill-rule="nonzero"/><path fill="#000000" d="M134.13 313.21564Q134.13 311.6844 134.4425 310.7625Q134.755 309.825 135.36438 309.325Q135.98938 308.825 136.92688 308.825Q137.61438 308.825 138.13 309.10626Q138.66125 309.3875 139.005 309.91876Q139.34875 310.4344 139.53625 311.1844Q139.72375 311.9344 139.72375 313.21564Q139.72375 314.73126 139.41125 315.65314Q139.11438 316.575 138.48938 317.09064Q137.88 317.59064 136.92688 317.59064Q135.6925 317.59064 134.97375 316.7Q134.13 315.6375 134.13 313.21564ZM135.20813 313.21564Q135.20813 315.325 135.70813 316.02814Q136.20813 316.73126 136.92688 316.73126Q137.66125 316.73126 138.14563 316.02814Q138.64563 315.325 138.64563 313.21564Q138.64563 311.09064 138.14563 310.40314Q137.66125 309.7 136.91125 309.7Q136.1925 309.7 135.755 310.3094Q135.20813 311.09064 135.20813 313.21564Z" fill-rule="nonzero"/><path fill="#000000" d="M233.21 315.2L234.31938 315.10626Q234.44438 315.91876 234.88188 316.325Q235.335 316.73126 235.97563 316.73126Q236.72563 316.73126 237.25688 316.15314Q237.78813 315.575 237.78813 314.6375Q237.78813 313.73126 237.2725 313.21564Q236.7725 312.6844 235.94438 312.6844Q235.44438 312.6844 235.0225 312.91876Q234.61626 313.15314 234.38188 313.5125L233.3975 313.3875L234.22563 308.98126L238.50688 308.98126L238.50688 309.98126L235.06938 309.98126L234.61626 312.29376Q235.38188 311.7469 236.22563 311.7469Q237.35063 311.7469 238.11626 312.52814Q238.8975 313.3094 238.8975 314.54376Q238.8975 315.7 238.22563 316.5594Q237.3975 317.59064 235.97563 317.59064Q234.80376 317.59064 234.05376 316.9344Q233.31938 316.27814 233.21 315.2ZM240.7725 317.45L240.7725 316.2469L241.97563 316.2469L241.97563 317.45Q241.97563 318.10626 241.74126 318.5125Q241.50688 318.9344 241.00688 319.15314L240.71 318.7Q241.03813 318.5594 241.19438 318.2625Q241.35063 317.98126 241.38188 317.45L240.7725 317.45ZM243.21 313.21564Q243.21 311.6844 243.5225 310.7625Q243.835 309.825 244.44438 309.325Q245.06938 308.825 246.00688 308.825Q246.69438 308.825 247.21 309.10626Q247.74126 309.3875 248.085 309.91876Q248.42876 310.4344 248.61626 311.1844Q248.80376 311.9344 248.80376 313.21564Q248.80376 314.73126 248.49126 315.65314Q248.19438 316.575 247.56938 317.09064Q246.96 317.59064 246.00688 317.59064Q244.7725 317.59064 244.05376 316.7Q243.21 315.6375 243.21 313.21564ZM244.28813 313.21564Q244.28813 315.325 244.78813 316.02814Q245.28813 316.73126 246.00688 316.73126Q246.74126 316.73126 247.22563 316.02814Q247.72563 315.325 247.72563 313.21564Q247.72563 311.09064 247.22563 310.40314Q246.74126 309.7 245.99126 309.7Q245.2725 309.7 244.835 310.3094Q244.28813 311.09064 244.28813 313.21564ZM250.21 313.21564Q250.21 311.6844 250.5225 310.7625Q250.835 309.825 251.44438 309.325Q252.06938 308.825 253.00688 308.825Q253.69438 308.825 254.21 309.10626Q254.74126 309.3875 255.085 309.91876Q255.42876 310.4344 255.61626 311.1844Q255.80376 311.9344 255.80376 313.21564Q255.80376 314.73126 255.49126 315.65314Q255.19438 316.575 254.56938 317.09064Q253.96 317.59064 253.00688 317.59064Q251.7725 317.59064 251.05376 316.7Q250.21 315.6375 250.21 313.21564ZM251.28813 313.21564Q251.28813 315.325 251.78813 316.02814Q252.28813 316.73126 253.00688 316.73126Q253.74126 316.73126 254.22563 316.02814Q254.72563 315.325 254.72563 313.21564Q254.72563 311.09064 254.22563 310.40314Q253.74126 309.7 252.99126 309.7Q252.2725 309.7 251.835 310.3094Q251.28813 311.09064 251.28813 313.21564ZM257.21002 313.21564Q257.21002 311.6844 257.52252 310.7625Q257.83502 309.825 258.4444 309.325Q259.0694 308.825 260.0069 308.825Q260.6944 308.825 261.21002 309.10626Q261.74127 309.3875 262.08502 309.91876Q262.42877 310.4344 262.61627 311.1844Q262.80377 311.9344 262.80377 313.21564Q262.80377 314.73126 262.49127 315.65314Q262.1944 316.575 261.5694 317.09064Q260.96002 317.59064 260.0069 317.59064Q258.77252 317.59064 258.05377 316.7Q257.21002 315.6375 257.21002 313.21564ZM258.28815 313.21564Q258.28815 315.325 258.78815 316.02814Q259.28815 316.73126 260.0069 316.73126Q260.74127 316.73126 261.22565 316.02814Q261.72565 315.325 261.72565 313.21564Q261.72565 311.09064 261.22565 310.40314Q260.74127 309.7 259.99127 309.7Q259.27252 309.7 258.83502 310.3094Q258.28815 311.09064 258.28815 313.21564Z" fill-rule="nonzero"/><path fill="#000000" d="M344.75876 317.45L343.71188 317.45L343.71188 310.73126Q343.32126 311.09064 342.69626 311.46564Q342.08688 311.825 341.6025 311.9969L341.6025 310.98126Q342.4775 310.5594 343.13376 309.98126Q343.80563 309.3875 344.08688 308.825L344.75876 308.825L344.75876 317.45ZM347.79 313.21564Q347.79 311.6844 348.1025 310.7625Q348.415 309.825 349.02438 309.325Q349.64938 308.825 350.58688 308.825Q351.27438 308.825 351.79 309.10626Q352.32126 309.3875 352.665 309.91876Q353.00876 310.4344 353.19626 311.1844Q353.38376 311.9344 353.38376 313.21564Q353.38376 314.73126 353.07126 315.65314Q352.77438 316.575 352.14938 317.09064Q351.54 317.59064 350.58688 317.59064Q349.3525 317.59064 348.63376 316.7Q347.79 315.6375 347.79 313.21564ZM348.86813 313.21564Q348.86813 315.325 349.36813 316.02814Q349.86813 316.73126 350.58688 316.73126Q351.32126 316.73126 351.80563 316.02814Q352.30563 315.325 352.30563 313.21564Q352.30563 311.09064 351.80563 310.40314Q351.32126 309.7 350.57126 309.7Q349.8525 309.7 349.415 310.3094Q348.86813 311.09064 348.86813 313.21564ZM355.3525 317.45L355.3525 316.2469L356.55563 316.2469L356.55563 317.45Q356.55563 318.10626 356.32126 318.5125Q356.08688 318.9344 355.58688 319.15314L355.29 318.7Q355.61813 318.5594 355.77438 318.2625Q355.93063 317.98126 355.96188 317.45L355.3525 317.45ZM357.79 313.21564Q357.79 311.6844 358.1025 310.7625Q358.415 309.825 359.02438 309.325Q359.64938 308.825 360.58688 308.825Q361.27438 308.825 361.79 309.10626Q362.32126 309.3875 362.665 309.91876Q363.00876 310.4344 363.19626 311.1844Q363.38376 311.9344 363.38376 313.21564Q363.38376 314.73126 363.07126 315.65314Q362.77438 316.575 362.14938 317.09064Q361.54 317.59064 360.58688 317.59064Q359.3525 317.59064 358.63376 316.7Q357.79 315.6375 357.79 313.21564ZM358.86813 313.21564Q358.86813 315.325 359.36813 316.02814Q359.86813 316.73126 360.58688 316.73126Q361.32126 316.73126 361.80563 316.02814Q362.30563 315.325 362.30563 313.21564Q362.30563 311.09064 361.80563 310.40314Q361.32126 309.7 360.57126 309.7Q359.8525 309.7 359.415 310.3094Q358.86813 311.09064 358.86813 313.21564ZM364.79 313.21564Q364.79 311.6844 365.1025 310.7625Q365.415 309.825 366.02438 309.325Q366.64938 308.825 367.58688 308.825Q368.27438 308.825 368.79 309.10626Q369.32126 309.3875 369.665 309.91876Q370.00876 310.4344 370.19626 311.1844Q370.38376 311.9344 370.38376 313.21564Q370.38376 314.73126 370.07126 315.65314Q369.77438 316.575 369.14938 317.09064Q368.54 317.59064 367.58688 317.59064Q366.3525 317.59064 365.63376 316.7Q364.79 315.6375 364.79 313.21564ZM365.86813 313.21564Q365.86813 315.325 366.36813 316.02814Q366.86813 316.73126 367.58688 316.73126Q368.32126 316.73126 368.80563 316.02814Q369.30563 315.325 369.30563 313.21564Q369.30563 311.09064 368.80563 310.40314Q368.32126 309.7 367.57126 309.7Q366.8525 309.7 366.415 310.3094Q365.86813 311.09064 365.86813 313.21564ZM371.79 313.21564Q371.79 311.6844 372.1025 310.7625Q372.415 309.825 373.02438 309.325Q373.64938 308.825 374.58688 308.825Q375.27438 308.825 375.79 309.10626Q376.32126 309.3875 376.665 309.91876Q377.00876 310.4344 377.19626 311.1844Q377.38376 311.9344 377.38376 313.21564Q377.38376 314.73126 377.07126 315.65314Q376.77438 316.575 376.14938 317.09064Q375.54 317.59064 374.58688 317.59064Q373.3525 317.59064 372.63376 316.7Q371.79 315.6375 371.79 313.21564ZM372.86813 313.21564Q372.86813 315.325 373.36813 316.02814Q373.86813 316.73126 374.58688 316.73126Q375.32126 316.73126 375.80563 316.02814Q376.30563 315.325 376.30563 313.21564Q376.30563 311.09064 375.80563 310.40314Q375.32126 309.7 374.57126 309.7Q373.8525 309.7 373.415 310.3094Q372.86813 311.09064 372.86813 313.21564Z" fill-rule="nonzero"/><path fill="#000000" d="M455.83875 317.45L454.79187 317.45L454.79187 310.73126Q454.40125 311.09064 453.77625 311.46564Q453.16687 311.825 452.6825 311.9969L452.6825 310.98126Q453.5575 310.5594 454.21375 309.98126Q454.88562 309.3875 455.16687 308.825L455.83875 308.825L455.83875 317.45ZM458.87 315.2L459.97937 315.10626Q460.10437 315.91876 460.54187 316.325Q460.995 316.73126 461.63562 316.73126Q462.38562 316.73126 462.91687 316.15314Q463.44812 315.575 463.44812 314.6375Q463.44812 313.73126 462.9325 313.21564Q462.4325 312.6844 461.60437 312.6844Q461.10437 312.6844 460.6825 312.91876Q460.27625 313.15314 460.04187 313.5125L459.0575 313.3875L459.88562 308.98126L464.16687 308.98126L464.16687 309.98126L460.72937 309.98126L460.27625 312.29376Q461.04187 311.7469 461.88562 311.7469Q463.01062 311.7469 463.77625 312.52814Q464.5575 313.3094 464.5575 314.54376Q464.5575 315.7 463.88562 316.5594Q463.0575 317.59064 461.63562 317.59064Q460.46375 317.59064 459.71375 316.9344Q458.97937 316.27814 458.87 315.2ZM466.4325 317.45L466.4325 316.2469L467.63562 316.2469L467.63562 317.45Q467.63562 318.10626 467.40125 318.5125Q467.16687 318.9344 466.66687 319.15314L466.37 318.7Q466.69812 318.5594 466.85437 318.2625Q467.01062 317.98126 467.04187 317.45L466.4325 317.45ZM468.87 313.21564Q468.87 311.6844 469.1825 310.7625Q469.495 309.825 470.10437 309.325Q470.72937 308.825 471.66687 308.825Q472.35437 308.825 472.87 309.10626Q473.40125 309.3875 473.745 309.91876Q474.08875 310.4344 474.27625 311.1844Q474.46375 311.9344 474.46375 313.21564Q474.46375 314.73126 474.15125 315.65314Q473.85437 316.575 473.22937 317.09064Q472.62 317.59064 471.66687 317.59064Q470.4325 317.59064 469.71375 316.7Q468.87 315.6375 468.87 313.21564ZM469.94812 313.21564Q469.94812 315.325 470.44812 316.02814Q470.94812 316.73126 471.66687 316.73126Q472.40125 316.73126 472.88562 316.02814Q473.38562 315.325 473.38562 313.21564Q473.38562 311.09064 472.88562 310.40314Q472.40125 309.7 471.65125 309.7Q470.9325 309.7 470.495 310.3094Q469.94812 311.09064 469.94812 313.21564ZM475.87 313.21564Q475.87 311.6844 476.1825 310.7625Q476.495 309.825 477.10437 309.325Q477.72937 308.825 478.66687 308.825Q479.35437 308.825 479.87 309.10626Q480.40125 309.3875 480.745 309.91876Q481.08875 310.4344 481.27625 311.1844Q481.46375 311.9344 481.46375 313.21564Q481.46375 314.73126 481.15125 315.65314Q480.85437 316.575 480.22937 317.09064Q479.62 317.59064 478.66687 317.59064Q477.4325 317.59064 476.71375 316.7Q475.87 315.6375 475.87 313.21564ZM476.94812 313.21564Q476.94812 315.325 477.44812 316.02814Q477.94812 316.73126 478.66687 316.73126Q479.40125 316.73126 479.88562 316.02814Q480.38562 315.325 480.38562 313.21564Q480.38562 311.09064 479.88562 310.40314Q479.40125 309.7 478.65125 309.7Q477.9325 309.7 477.495 310.3094Q476.94812 311.09064 476.94812 313.21564ZM482.87 313.21564Q482.87 311.6844 483.1825 310.7625Q483.495 309.825 484.10437 309.325Q484.72937 308.825 485.66687 308.825Q486.35437 308.825 486.87 309.10626Q487.40125 309.3875 487.745 309.91876Q488.08875 310.4344 488.27625 311.1844Q488.46375 311.9344 488.46375 313.21564Q488.46375 314.73126 488.15125 315.65314Q487.85437 316.575 487.22937 317.09064Q486.62 317.59064 485.66687 317.59064Q484.4325 317.59064 483.71375 316.7Q482.87 315.6375 482.87 313.21564ZM483.94812 313.21564Q483.94812 315.325 484.44812 316.02814Q484.94812 316.73126 485.66687 316.73126Q486.40125 316.73126 486.88562 316.02814Q487.38562 315.325 487.38562 313.21564Q487.38562 311.09064 486.88562 310.40314Q486.40125 309.7 485.65125 309.7Q484.9325 309.7 484.495 310.3094Q483.94812 311.09064 483.94812 313.21564Z" fill-rule="nonzero"/><path fill="#757575" d="M19.55 38.409374L21.253124 38.659374Q21.3625 39.45625 21.846874 39.815624Q22.503124 40.3 23.64375 40.3Q24.8625 40.3 25.51875 39.815624Q26.190624 39.33125 26.425 38.45625Q26.565624 37.909374 26.55 36.190624Q25.39375 37.55 23.675 37.55Q21.534374 37.55 20.3625 36.003124Q19.190624 34.45625 19.190624 32.3Q19.190624 30.815624 19.721874 29.565624Q20.26875 28.315624 21.284374 27.628124Q22.315624 26.940624 23.690624 26.940624Q25.51875 26.940624 26.721874 28.425L26.721874 27.175L28.33125 27.175L28.33125 36.14375Q28.33125 38.565624 27.83125 39.565624Q27.346874 40.58125 26.26875 41.159374Q25.20625 41.753124 23.64375 41.753124Q21.8 41.753124 20.64375 40.925Q19.503124 40.096874 19.55 38.409374ZM21.003124 32.175Q21.003124 34.221874 21.815624 35.159374Q22.628124 36.096874 23.846874 36.096874Q25.05 36.096874 25.8625 35.159374Q26.690624 34.221874 26.690624 32.2375Q26.690624 30.33125 25.846874 29.3625Q25.003124 28.39375 23.815624 28.39375Q22.64375 28.39375 21.815624 29.346874Q21.003124 30.3 21.003124 32.175ZM37.971874 34.20625L39.784374 34.440624Q39.3625 36.01875 38.190624 36.909374Q37.034374 37.784374 35.221874 37.784374Q32.95625 37.784374 31.6125 36.39375Q30.284374 34.9875 30.284374 32.45625Q30.284374 29.83125 31.628124 28.39375Q32.971874 26.940624 35.128124 26.940624Q37.20625 26.940624 38.51875 28.3625Q39.846874 29.76875 39.846874 32.346874Q39.846874 32.503124 39.83125 32.815624L32.096874 32.815624Q32.190624 34.51875 33.065624 35.425Q33.940624 36.33125 35.2375 36.33125Q36.20625 36.33125 36.878124 35.83125Q37.565624 35.315624 37.971874 34.20625ZM32.190624 31.3625L37.9875 31.3625Q37.878124 30.065624 37.33125 29.409374Q36.4875 28.39375 35.14375 28.39375Q33.940624 28.39375 33.1125 29.20625Q32.284374 30.003124 32.190624 31.3625ZM45.70625 35.971874L45.95625 37.534374Q45.221874 37.690624 44.628124 37.690624Q43.675 37.690624 43.14375 37.39375Q42.628124 37.08125 42.409374 36.596874Q42.190624 36.096874 42.190624 34.51875L42.190624 28.55L40.909374 28.55L40.909374 27.175L42.190624 27.175L42.190624 24.6125L43.940624 23.55L43.940624 27.175L45.70625 27.175L45.70625 28.55L43.940624 28.55L43.940624 34.6125Q43.940624 35.3625 44.034374 35.58125Q44.128124 35.784374 44.33125 35.925Q44.55 36.05 44.940624 36.05Q45.221874 36.05 45.70625 35.971874ZM47.8625 41.51875L47.8625 27.175L49.471874 27.175L49.471874 28.51875Q50.034374 27.7375 50.7375 27.346874Q51.45625 26.940624 52.471874 26.940624Q53.8 26.940624 54.815624 27.628124Q55.83125 28.315624 56.346874 29.565624Q56.878124 30.8 56.878124 32.284374Q56.878124 33.878124 56.3 35.159374Q55.7375 36.425 54.64375 37.1125Q53.55 37.784374 52.346874 37.784374Q51.471874 37.784374 50.76875 37.409374Q50.08125 37.034374 49.628124 36.471874L49.628124 41.51875L47.8625 41.51875ZM49.45625 32.425Q49.45625 34.425 50.26875 35.378124Q51.08125 36.33125 52.2375 36.33125Q53.409374 36.33125 54.2375 35.346874Q55.08125 34.3625 55.08125 32.26875Q55.08125 30.3 54.253124 29.315624Q53.440624 28.315624 52.315624 28.315624Q51.190624 28.315624 50.315624 29.378124Q49.45625 30.425 49.45625 32.425ZM58.878124 25.253124L58.878124 23.2375L60.64375 23.2375L60.64375 25.253124L58.878124 25.253124ZM58.878124 37.55L58.878124 27.175L60.64375 27.175L60.64375 37.55L58.878124 37.55ZM69.59688 37.55L69.59688 36.2375Q68.6125 37.784374 66.69063 37.784374Q65.45625 37.784374 64.40938 37.096874Q63.378124 36.409374 62.8 35.190624Q62.2375 33.971874 62.2375 32.378124Q62.2375 30.815624 62.753124 29.55Q63.26875 28.284374 64.3 27.6125Q65.34688 26.940624 66.6125 26.940624Q67.55 26.940624 68.28438 27.346874Q69.01875 27.7375 69.4875 28.3625L69.4875 23.2375L71.22188 23.2375L71.22188 37.55L69.59688 37.55ZM64.03438 32.378124Q64.03438 34.3625 64.87813 35.346874Q65.72188 36.33125 66.8625 36.33125Q68.01875 36.33125 68.81563 35.39375Q69.62813 34.45625 69.62813 32.51875Q69.62813 30.39375 68.8 29.39375Q67.9875 28.39375 66.78438 28.39375Q65.6125 28.39375 64.81563 29.3625Q64.03438 30.315624 64.03438 32.378124ZM80.01875 37.55L80.01875 23.2375L85.39375 23.2375Q87.03438 23.2375 88.01875 23.675Q89.00313 24.096874 89.56563 25.003124Q90.12813 25.909374 90.12813 26.89375Q90.12813 27.815624 89.62813 28.628124Q89.14375 29.440624 88.12813 29.925Q89.425 30.315624 90.12813 31.2375Q90.83125 32.14375 90.83125 33.39375Q90.83125 34.409374 90.39375 35.26875Q89.97188 36.128124 89.34688 36.596874Q88.72188 37.065624 87.78438 37.315624Q86.84688 37.55 85.47188 37.55L80.01875 37.55ZM81.90938 29.253124L85.00313 29.253124Q86.26875 29.253124 86.81563 29.08125Q87.53438 28.8625 87.89375 28.378124Q88.26875 27.878124 88.26875 27.1125Q88.26875 26.409374 87.925 25.8625Q87.58125 25.315624 86.94063 25.128124Q86.31563 24.925 84.76875 24.925L81.90938 24.925L81.90938 29.253124ZM81.90938 35.8625L85.47188 35.8625Q86.39375 35.8625 86.76875 35.784374Q87.425 35.675 87.8625 35.409374Q88.3 35.128124 88.58125 34.6125Q88.8625 34.08125 88.8625 33.39375Q88.8625 32.596874 88.45625 32.003124Q88.05 31.409374 87.31563 31.175Q86.58125 30.940624 85.22188 30.940624L81.90938 30.940624L81.90938 35.8625ZM99.97188 34.20625L101.78438 34.440624Q101.3625 36.01875 100.19063 36.909374Q99.03438 37.784374 97.22188 37.784374Q94.95625 37.784374 93.6125 36.39375Q92.28438 34.9875 92.28438 32.45625Q92.28438 29.83125 93.62813 28.39375Q94.97188 26.940624 97.12813 26.940624Q99.20625 26.940624 100.51875 28.3625Q101.84688 29.76875 101.84688 32.346874Q101.84688 32.503124 101.83125 32.815624L94.09688 32.815624Q94.19063 34.51875 95.06563 35.425Q95.94063 36.33125 97.2375 36.33125Q98.20625 36.33125 98.87813 35.83125Q99.56563 35.315624 99.97188 34.20625ZM94.19063 31.3625L99.9875 31.3625Q99.87813 30.065624 99.33125 29.409374Q98.4875 28.39375 97.14375 28.39375Q95.94063 28.39375 95.1125 29.20625Q94.28438 30.003124 94.19063 31.3625ZM103.8625 37.55L103.8625 27.175L105.45625 27.175L105.45625 28.659374Q106.59688 26.940624 108.75313 26.940624Q109.69063 26.940624 110.47188 27.284374Q111.26875 27.6125 111.65938 28.159374Q112.05 28.70625 112.20625 29.45625Q112.3 29.95625 112.3 31.175L112.3 37.55L110.53438 37.55L110.53438 31.2375Q110.53438 30.159374 110.33125 29.628124Q110.12813 29.096874 109.59688 28.784374Q109.08125 28.471874 108.37813 28.471874Q107.25313 28.471874 106.44063 29.190624Q105.62813 29.89375 105.62813 31.878124L105.62813 37.55L103.8625 37.55ZM120.64375 33.753124L122.3625 33.971874Q122.08125 35.76875 120.90938 36.784374Q119.75313 37.784374 118.05 37.784374Q115.925 37.784374 114.62813 36.39375Q113.33125 35.003124 113.33125 32.409374Q113.33125 30.721874 113.87813 29.471874Q114.44063 28.20625 115.58125 27.58125Q116.72188 26.940624 118.06563 26.940624Q119.75313 26.940624 120.81563 27.8Q121.89375 28.659374 122.20625 30.221874L120.4875 30.4875Q120.25313 29.440624 119.62813 28.925Q119.00313 28.39375 118.12813 28.39375Q116.8 28.39375 115.97188 29.346874Q115.14375 30.3 115.14375 32.346874Q115.14375 34.440624 115.94063 35.39375Q116.7375 36.33125 118.03438 36.33125Q119.06563 36.33125 119.75313 35.70625Q120.45625 35.065624 120.64375 33.753124ZM123.8625 37.55L123.8625 23.2375L125.62813 23.2375L125.62813 28.3625Q126.8625 26.940624 128.7375 26.940624Q129.87813 26.940624 130.72188 27.39375Q131.58125 27.846874 131.94063 28.659374Q132.31563 29.45625 132.31563 30.971874L132.31563 37.55L130.56563 37.55L130.56563 30.971874Q130.56563 29.659374 129.9875 29.065624Q129.40938 28.45625 128.37813 28.45625Q127.59688 28.45625 126.89375 28.8625Q126.20625 29.26875 125.90938 29.971874Q125.62813 30.659374 125.62813 31.878124L125.62813 37.55L123.8625 37.55ZM133.8625 37.55L133.8625 27.175L135.44063 27.175L135.44063 28.628124Q135.925 27.878124 136.7375 27.409374Q137.55 26.940624 138.58125 26.940624Q139.7375 26.940624 140.47188 27.425Q141.20625 27.89375 141.51875 28.753124Q142.75313 26.940624 144.72188 26.940624Q146.26875 26.940624 147.09688 27.8Q147.925 28.659374 147.925 30.425L147.925 37.55L146.175 37.55L146.175 31.01875Q146.175 29.95625 146.00313 29.503124Q145.83125 29.034374 145.37813 28.753124Q144.94063 28.471874 144.33125 28.471874Q143.2375 28.471874 142.50313 29.20625Q141.78438 29.925 141.78438 31.51875L141.78438 37.55L140.03438 37.55L140.03438 30.815624Q140.03438 29.64375 139.59688 29.065624Q139.175 28.471874 138.19063 28.471874Q137.45625 28.471874 136.81563 28.8625Q136.19063 29.253124 135.90938 30.003124Q135.62813 30.753124 135.62813 32.175L135.62813 37.55L133.8625 37.55ZM156.64375 36.26875Q155.65938 37.096874 154.75313 37.440624Q153.84688 37.784374 152.81563 37.784374Q151.1125 37.784374 150.19063 36.95625Q149.26875 36.1125 149.26875 34.815624Q149.26875 34.05 149.6125 33.425Q149.97188 32.8 150.53438 32.425Q151.09688 32.034374 151.8 31.83125Q152.31563 31.70625 153.3625 31.565624Q155.4875 31.315624 156.4875 30.971874Q156.50313 30.6125 156.50313 30.503124Q156.50313 29.440624 156.00313 28.9875Q155.33125 28.39375 154.00313 28.39375Q152.75313 28.39375 152.15938 28.83125Q151.58125 29.26875 151.3 30.378124L149.58125 30.14375Q149.81563 29.034374 150.34688 28.3625Q150.87813 27.675 151.89375 27.315624Q152.90938 26.940624 154.25313 26.940624Q155.58125 26.940624 156.40938 27.253124Q157.2375 27.565624 157.62813 28.05Q158.01875 28.51875 158.175 29.2375Q158.26875 29.690624 158.26875 30.8625L158.26875 33.20625Q158.26875 35.659374 158.37813 36.315624Q158.4875 36.95625 158.83125 37.55L156.9875 37.55Q156.72188 37.003124 156.64375 36.26875ZM156.4875 32.346874Q155.53438 32.7375 153.6125 33.003124Q152.53438 33.159374 152.08125 33.3625Q151.64375 33.55 151.39375 33.925Q151.14375 34.3 151.14375 34.76875Q151.14375 35.471874 151.675 35.940624Q152.20625 36.409374 153.2375 36.409374Q154.25313 36.409374 155.03438 35.971874Q155.83125 35.51875 156.20625 34.753124Q156.4875 34.14375 156.4875 32.9875L156.4875 32.346874ZM160.84688 37.55L160.84688 27.175L162.425 27.175L162.425 28.753124Q163.03438 27.64375 163.55 27.3Q164.06563 26.940624 164.675 26.940624Q165.56563 26.940624 166.4875 27.503124L165.87813 29.14375Q165.2375 28.753124 164.59688 28.753124Q164.01875 28.753124 163.55 29.1125Q163.09688 29.45625 162.89375 30.065624Q162.6125 31.003124 162.6125 32.1125L162.6125 37.55L160.84688 37.55ZM167.87813 37.55L167.87813 23.2375L169.64375 23.2375L169.64375 31.39375L173.8 27.175L176.06563 27.175L172.1125 31.01875L176.47188 37.55L174.3 37.55L170.87813 32.253124L169.64375 33.440624L169.64375 37.55L167.87813 37.55ZM178.3625 29.175L178.3625 27.175L180.3625 27.175L180.3625 29.175L178.3625 29.175ZM178.3625 37.55L178.3625 35.55L180.3625 35.55L180.3625 37.55L178.3625 37.55ZM188.51875 37.55L194.01875 23.2375L196.06563 23.2375L201.925 37.55L199.76875 37.55L198.09688 33.20625L192.1125 33.20625L190.53438 37.55L188.51875 37.55ZM192.65938 31.675L197.50313 31.675L196.01875 27.70625Q195.33125 25.89375 195.00313 24.7375Q194.72188 26.1125 194.22188 27.471874L192.65938 31.675ZM205.75313 37.55L201.8 27.175L203.65938 27.175L205.89375 33.39375Q206.25313 34.39375 206.55 35.471874Q206.78438 34.659374 207.20625 33.503124L209.50313 27.175L211.31563 27.175L207.39375 37.55L205.75313 37.55ZM218.97188 34.20625L220.78438 34.440624Q220.3625 36.01875 219.19063 36.909374Q218.03438 37.784374 216.22188 37.784374Q213.95625 37.784374 212.6125 36.39375Q211.28438 34.9875 211.28438 32.45625Q211.28438 29.83125 212.62813 28.39375Q213.97188 26.940624 216.12813 26.940624Q218.20625 26.940624 219.51875 28.3625Q220.84688 29.76875 220.84688 32.346874Q220.84688 32.503124 220.83125 32.815624L213.09688 32.815624Q213.19063 34.51875 214.06563 35.425Q214.94063 36.33125 216.2375 36.33125Q217.20625 36.33125 217.87813 35.83125Q218.56563 35.315624 218.97188 34.20625ZM213.19063 31.3625L218.9875 31.3625Q218.87813 30.065624 218.33125 29.409374Q217.4875 28.39375 216.14375 28.39375Q214.94063 28.39375 214.1125 29.20625Q213.28438 30.003124 213.19063 31.3625ZM222.84688 37.55L222.84688 27.175L224.425 27.175L224.425 28.753124Q225.03438 27.64375 225.55 27.3Q226.06563 26.940624 226.675 26.940624Q227.56563 26.940624 228.4875 27.503124L227.87813 29.14375Q227.2375 28.753124 226.59688 28.753124Q226.01875 28.753124 225.55 29.1125Q225.09688 29.45625 224.89375 30.065624Q224.6125 31.003124 224.6125 32.1125L224.6125 37.55L222.84688 37.55ZM236.64375 36.26875Q235.65938 37.096874 234.75313 37.440624Q233.84688 37.784374 232.81563 37.784374Q231.1125 37.784374 230.19063 36.95625Q229.26875 36.1125 229.26875 34.815624Q229.26875 34.05 229.6125 33.425Q229.97188 32.8 230.53438 32.425Q231.09688 32.034374 231.8 31.83125Q232.31563 31.70625 233.3625 31.565624Q235.4875 31.315624 236.4875 30.971874Q236.50313 30.6125 236.50313 30.503124Q236.50313 29.440624 236.00313 28.9875Q235.33125 28.39375 234.00313 28.39375Q232.75313 28.39375 232.15938 28.83125Q231.58125 29.26875 231.3 30.378124L229.58125 30.14375Q229.81563 29.034374 230.34688 28.3625Q230.87813 27.675 231.89375 27.315624Q232.90938 26.940624 234.25313 26.940624Q235.58125 26.940624 236.40938 27.253124Q237.2375 27.565624 237.62813 28.05Q238.01875 28.51875 238.175 29.2375Q238.26875 29.690624 238.26875 30.8625L238.26875 33.20625Q238.26875 35.659374 238.37813 36.315624Q238.4875 36.95625 238.83125 37.55L236.9875 37.55Q236.72188 37.003124 236.64375 36.26875ZM236.4875 32.346874Q235.53438 32.7375 233.6125 33.003124Q232.53438 33.159374 232.08125 33.3625Q231.64375 33.55 231.39375 33.925Q231.14375 34.3 231.14375 34.76875Q231.14375 35.471874 231.675 35.940624Q232.20625 36.409374 233.2375 36.409374Q234.25313 36.409374 235.03438 35.971874Q235.83125 35.51875 236.20625 34.753124Q236.4875 34.14375 236.4875 32.9875L236.4875 32.346874ZM240.55 38.409374L242.25313 38.659374Q242.3625 39.45625 242.84688 39.815624Q243.50313 40.3 244.64375 40.3Q245.8625 40.3 246.51875 39.815624Q247.19063 39.33125 247.425 38.45625Q247.56563 37.909374 247.55 36.190624Q246.39375 37.55 244.675 37.55Q242.53438 37.55 241.3625 36.003124Q240.19063 34.45625 240.19063 32.3Q240.19063 30.815624 240.72188 29.565624Q241.26875 28.315624 242.28438 27.628124Q243.31563 26.940624 244.69063 26.940624Q246.51875 26.940624 247.72188 28.425L247.72188 27.175L249.33125 27.175L249.33125 36.14375Q249.33125 38.565624 248.83125 39.565624Q248.34688 40.58125 247.26875 41.159374Q246.20625 41.753124 244.64375 41.753124Q242.8 41.753124 241.64375 40.925Q240.50313 40.096874 240.55 38.409374ZM242.00313 32.175Q242.00313 34.221874 242.81563 35.159374Q243.62813 36.096874 244.84688 36.096874Q246.05 36.096874 246.8625 35.159374Q247.69063 34.221874 247.69063 32.2375Q247.69063 30.33125 246.84688 29.3625Q246.00313 28.39375 244.81563 28.39375Q243.64375 28.39375 242.81563 29.346874Q242.00313 30.3 242.00313 32.175ZM258.97186 34.20625L260.78436 34.440624Q260.3625 36.01875 259.1906 36.909374Q258.03436 37.784374 256.22186 37.784374Q253.95625 37.784374 252.6125 36.39375Q251.28438 34.9875 251.28438 32.45625Q251.28438 29.83125 252.62813 28.39375Q253.97188 26.940624 256.1281 26.940624Q258.20624 26.940624 259.51874 28.3625Q260.84686 29.76875 260.84686 32.346874Q260.84686 32.503124 260.83124 32.815624L253.09688 32.815624Q253.19063 34.51875 254.06563 35.425Q254.94063 36.33125 256.2375 36.33125Q257.20624 36.33125 257.8781 35.83125Q258.5656 35.315624 258.97186 34.20625ZM253.19063 31.3625L258.9875 31.3625Q258.8781 30.065624 258.33124 29.409374Q257.4875 28.39375 256.14374 28.39375Q254.94063 28.39375 254.1125 29.20625Q253.28438 30.003124 253.19063 31.3625ZM272.70624 35.971874L272.95624 37.534374Q272.22186 37.690624 271.6281 37.690624Q270.675 37.690624 270.14374 37.39375Q269.6281 37.08125 269.40936 36.596874Q269.1906 36.096874 269.1906 34.51875L269.1906 28.55L267.90936 28.55L267.90936 27.175L269.1906 27.175L269.1906 24.6125L270.9406 23.55L270.9406 27.175L272.70624 27.175L272.70624 28.55L270.9406 28.55L270.9406 34.6125Q270.9406 35.3625 271.03436 35.58125Q271.1281 35.784374 271.33124 35.925Q271.55 36.05 271.9406 36.05Q272.22186 36.05 272.70624 35.971874ZM274.8781 25.253124L274.8781 23.2375L276.64374 23.2375L276.64374 25.253124L274.8781 25.253124ZM274.8781 37.55L274.8781 27.175L276.64374 27.175L276.64374 37.55L274.8781 37.55ZM278.8625 37.55L278.8625 27.175L280.4406 27.175L280.4406 28.628124Q280.925 27.878124 281.7375 27.409374Q282.55 26.940624 283.58124 26.940624Q284.7375 26.940624 285.47186 27.425Q286.20624 27.89375 286.51874 28.753124Q287.7531 26.940624 289.72186 26.940624Q291.26874 26.940624 292.09686 27.8Q292.925 28.659374 292.925 30.425L292.925 37.55L291.175 37.55L291.175 31.01875Q291.175 29.95625 291.0031 29.503124Q290.83124 29.034374 290.3781 28.753124Q289.9406 28.471874 289.33124 28.471874Q288.2375 28.471874 287.5031 29.20625Q286.78436 29.925 286.78436 31.51875L286.78436 37.55L285.03436 37.55L285.03436 30.815624Q285.03436 29.64375 284.59686 29.065624Q284.175 28.471874 283.1906 28.471874Q282.45624 28.471874 281.8156 28.8625Q281.1906 29.253124 280.90936 30.003124Q280.6281 30.753124 280.6281 32.175L280.6281 37.55L278.8625 37.55ZM301.97186 34.20625L303.78436 34.440624Q303.3625 36.01875 302.1906 36.909374Q301.03436 37.784374 299.22186 37.784374Q296.95624 37.784374 295.6125 36.39375Q294.28436 34.9875 294.28436 32.45625Q294.28436 29.83125 295.6281 28.39375Q296.97186 26.940624 299.1281 26.940624Q301.20624 26.940624 302.51874 28.3625Q303.84686 29.76875 303.84686 32.346874Q303.84686 32.503124 303.83124 32.815624L296.09686 32.815624Q296.1906 34.51875 297.0656 35.425Q297.9406 36.33125 299.2375 36.33125Q300.20624 36.33125 300.8781 35.83125Q301.5656 35.315624 301.97186 34.20625ZM296.1906 31.3625L301.9875 31.3625Q301.8781 30.065624 301.33124 29.409374Q300.4875 28.39375 299.14374 28.39375Q297.9406 28.39375 297.1125 29.20625Q296.28436 30.003124 296.1906 31.3625ZM315.70624 35.971874L315.95624 37.534374Q315.22186 37.690624 314.6281 37.690624Q313.675 37.690624 313.14374 37.39375Q312.6281 37.08125 312.40936 36.596874Q312.1906 36.096874 312.1906 34.51875L312.1906 28.55L310.90936 28.55L310.90936 27.175L312.1906 27.175L312.1906 24.6125L313.9406 23.55L313.9406 27.175L315.70624 27.175L315.70624 28.55L313.9406 28.55L313.9406 34.6125Q313.9406 35.3625 314.03436 35.58125Q314.1281 35.784374 314.33124 35.925Q314.55 36.05 314.9406 36.05Q315.22186 36.05 315.70624 35.971874ZM317.22186 32.3625Q317.22186 29.4875 318.8156 28.096874Q320.15936 26.940624 322.08124 26.940624Q324.22186 26.940624 325.5656 28.346874Q326.925 29.753124 326.925 32.221874Q326.925 34.221874 326.33124 35.378124Q325.7375 36.51875 324.58124 37.159374Q323.4406 37.784374 322.08124 37.784374Q319.89374 37.784374 318.55 36.39375Q317.22186 34.9875 317.22186 32.3625ZM319.01874 32.3625Q319.01874 34.3625 319.8781 35.346874Q320.7531 36.33125 322.08124 36.33125Q323.39374 36.33125 324.2531 35.346874Q325.1281 34.346874 325.1281 32.3Q325.1281 30.378124 324.2531 29.39375Q323.3781 28.39375 322.08124 28.39375Q320.7531 28.39375 319.8781 29.39375Q319.01874 30.378124 319.01874 32.3625ZM334.8625 41.51875L334.8625 27.175L336.47186 27.175L336.47186 28.51875Q337.03436 27.7375 337.7375 27.346874Q338.45624 26.940624 339.47186 26.940624Q340.8 26.940624 341.8156 27.628124Q342.83124 28.315624 343.34686 29.565624Q343.8781 30.8 343.8781 32.284374Q343.8781 33.878124 343.3 35.159374Q342.7375 36.425 341.64374 37.1125Q340.55 37.784374 339.34686 37.784374Q338.47186 37.784374 337.76874 37.409374Q337.08124 37.034374 336.6281 36.471874L336.6281 41.51875L334.8625 41.51875ZM336.45624 32.425Q336.45624 34.425 337.26874 35.378124Q338.08124 36.33125 339.2375 36.33125Q340.40936 36.33125 341.2375 35.346874Q342.08124 34.3625 342.08124 32.26875Q342.08124 30.3 341.2531 29.315624Q340.4406 28.315624 339.3156 28.315624Q338.1906 28.315624 337.3156 29.378124Q336.45624 30.425 336.45624 32.425ZM352.97186 34.20625L354.78436 34.440624Q354.3625 36.01875 353.1906 36.909374Q352.03436 37.784374 350.22186 37.784374Q347.95624 37.784374 346.6125 36.39375Q345.28436 34.9875 345.28436 32.45625Q345.28436 29.83125 346.6281 28.39375Q347.97186 26.940624 350.1281 26.940624Q352.20624 26.940624 353.51874 28.3625Q354.84686 29.76875 354.84686 32.346874Q354.84686 32.503124 354.83124 32.815624L347.09686 32.815624Q347.1906 34.51875 348.0656 35.425Q348.9406 36.33125 350.2375 36.33125Q351.20624 36.33125 351.8781 35.83125Q352.5656 35.315624 352.97186 34.20625ZM347.1906 31.3625L352.9875 31.3625Q352.8781 30.065624 352.33124 29.409374Q351.4875 28.39375 350.14374 28.39375Q348.9406 28.39375 348.1125 29.20625Q347.28436 30.003124 347.1906 31.3625ZM356.84686 37.55L356.84686 27.175L358.425 27.175L358.425 28.753124Q359.03436 27.64375 359.55 27.3Q360.0656 26.940624 360.675 26.940624Q361.5656 26.940624 362.4875 27.503124L361.8781 29.14375Q361.2375 28.753124 360.59686 28.753124Q360.01874 28.753124 359.55 29.1125Q359.09686 29.45625 358.89374 30.065624Q358.6125 31.003124 358.6125 32.1125L358.6125 37.55L356.84686 37.55ZM364.28436 37.55L364.28436 28.55L362.7375 28.55L362.7375 27.175L364.28436 27.175L364.28436 26.08125Q364.28436 25.034374 364.47186 24.51875Q364.72186 23.83125 365.3625 23.409374Q366.0031 22.9875 367.15936 22.9875Q367.90936 22.9875 368.8 23.159374L368.53436 24.690624Q367.9875 24.596874 367.5031 24.596874Q366.70624 24.596874 366.3625 24.940624Q366.03436 25.284374 366.03436 26.221874L366.03436 27.175L368.0656 27.175L368.0656 28.55L366.03436 28.55L366.03436 37.55L364.28436 37.55ZM369.22186 32.3625Q369.22186 29.4875 370.8156 28.096874Q372.15936 26.940624 374.08124 26.940624Q376.22186 26.940624 377.5656 28.346874Q378.925 29.753124 378.925 32.221874Q378.925 34.221874 378.33124 35.378124Q377.7375 36.51875 376.58124 37.159374Q375.4406 37.784374 374.08124 37.784374Q371.89374 37.784374 370.55 36.39375Q369.22186 34.9875 369.22186 32.3625ZM371.01874 32.3625Q371.01874 34.3625 371.8781 35.346874Q372.7531 36.33125 374.08124 36.33125Q375.39374 36.33125 376.2531 35.346874Q377.1281 34.346874 377.1281 32.3Q377.1281 30.378124 376.2531 29.39375Q375.3781 28.39375 374.08124 28.39375Q372.7531 28.39375 371.8781 29.39375Q371.01874 30.378124 371.01874 32.3625ZM380.84686 37.55L380.84686 27.175L382.425 27.175L382.425 28.753124Q383.03436 27.64375 383.55 27.3Q384.0656 26.940624 384.675 26.940624Q385.5656 26.940624 386.4875 27.503124L385.8781 29.14375Q385.2375 28.753124 384.59686 28.753124Q384.01874 28.753124 383.55 29.1125Q383.09686 29.45625 382.89374 30.065624Q382.6125 31.003124 382.6125 32.1125L382.6125 37.55L380.84686 37.55ZM387.8625 37.55L387.8625 27.175L389.4406 27.175L389.4406 28.628124Q389.925 27.878124 390.7375 27.409374Q391.55 26.940624 392.58124 26.940624Q393.7375 26.940624 394.47186 27.425Q395.20624 27.89375 395.51874 28.753124Q396.7531 26.940624 398.72186 26.940624Q400.26874 26.940624 401.09686 27.8Q401.925 28.659374 401.925 30.425L401.925 37.55L400.175 37.55L400.175 31.01875Q400.175 29.95625 400.0031 29.503124Q399.83124 29.034374 399.3781 28.753124Q398.9406 28.471874 398.33124 28.471874Q397.2375 28.471874 396.5031 29.20625Q395.78436 29.925 395.78436 31.51875L395.78436 37.55L394.03436 37.55L394.03436 30.815624Q394.03436 29.64375 393.59686 29.065624Q393.175 28.471874 392.1906 28.471874Q391.45624 28.471874 390.8156 28.8625Q390.1906 29.253124 389.90936 30.003124Q389.6281 30.753124 389.6281 32.175L389.6281 37.55L387.8625 37.55ZM409.55 38.409374L411.2531 38.659374Q411.3625 39.45625 411.84686 39.815624Q412.5031 40.3 413.64374 40.3Q414.8625 40.3 415.51874 39.815624Q416.1906 39.33125 416.425 38.45625Q416.5656 37.909374 416.55 36.190624Q415.39374 37.55 413.675 37.55Q411.53436 37.55 410.3625 36.003124Q409.1906 34.45625 409.1906 32.3Q409.1906 30.815624 409.72186 29.565624Q410.26874 28.315624 411.28436 27.628124Q412.3156 26.940624 413.6906 26.940624Q415.51874 26.940624 416.72186 28.425L416.72186 27.175L418.33124 27.175L418.33124 36.14375Q418.33124 38.565624 417.83124 39.565624Q417.34686 40.58125 416.26874 41.159374Q415.20624 41.753124 413.64374 41.753124Q411.8 41.753124 410.64374 40.925Q409.5031 40.096874 409.55 38.409374ZM411.0031 32.175Q411.0031 34.221874 411.8156 35.159374Q412.6281 36.096874 413.84686 36.096874Q415.05 36.096874 415.8625 35.159374Q416.6906 34.221874 416.6906 32.2375Q416.6906 30.33125 415.84686 29.3625Q415.0031 28.39375 413.8156 28.39375Q412.64374 28.39375 411.8156 29.346874Q411.0031 30.3 411.0031 32.175ZM427.97186 34.20625L429.78436 34.440624Q429.3625 36.01875 428.1906 36.909374Q427.03436 37.784374 425.22186 37.784374Q422.95624 37.784374 421.6125 36.39375Q420.28436 34.9875 420.28436 32.45625Q420.28436 29.83125 421.6281 28.39375Q422.97186 26.940624 425.1281 26.940624Q427.20624 26.940624 428.51874 28.3625Q429.84686 29.76875 429.84686 32.346874Q429.84686 32.503124 429.83124 32.815624L422.09686 32.815624Q422.1906 34.51875 423.0656 35.425Q423.9406 36.33125 425.2375 36.33125Q426.20624 36.33125 426.8781 35.83125Q427.5656 35.315624 427.97186 34.20625ZM422.1906 31.3625L427.9875 31.3625Q427.8781 30.065624 427.33124 29.409374Q426.4875 28.39375 425.14374 28.39375Q423.9406 28.39375 423.1125 29.20625Q422.28436 30.003124 422.1906 31.3625ZM435.70624 35.971874L435.95624 37.534374Q435.22186 37.690624 434.6281 37.690624Q433.675 37.690624 433.14374 37.39375Q432.6281 37.08125 432.40936 36.596874Q432.1906 36.096874 432.1906 34.51875L432.1906 28.55L430.90936 28.55L430.90936 27.175L432.1906 27.175L432.1906 24.6125L433.9406 23.55L433.9406 27.175L435.70624 27.175L435.70624 28.55L433.9406 28.55L433.9406 34.6125Q433.9406 35.3625 434.03436 35.58125Q434.1281 35.784374 434.33124 35.925Q434.55 36.05 434.9406 36.05Q435.22186 36.05 435.70624 35.971874ZM437.8625 41.51875L437.8625 27.175L439.47186 27.175L439.47186 28.51875Q440.03436 27.7375 440.7375 27.346874Q441.45624 26.940624 442.47186 26.940624Q443.8 26.940624 444.8156 27.628124Q445.83124 28.315624 446.34686 29.565624Q446.8781 30.8 446.8781 32.284374Q446.8781 33.878124 446.3 35.159374Q445.7375 36.425 444.64374 37.1125Q443.55 37.784374 442.34686 37.784374Q441.47186 37.784374 440.76874 37.409374Q440.08124 37.034374 439.6281 36.471874L439.6281 41.51875L437.8625 41.51875ZM439.45624 32.425Q439.45624 34.425 440.26874 35.378124Q441.08124 36.33125 442.2375 36.33125Q443.40936 36.33125 444.2375 35.346874Q445.08124 34.3625 445.08124 32.26875Q445.08124 30.3 444.2531 29.315624Q443.4406 28.315624 442.3156 28.315624Q441.1906 28.315624 440.3156 29.378124Q439.45624 30.425 439.45624 32.425ZM448.8781 25.253124L448.8781 23.2375L450.64374 23.2375L450.64374 25.253124L448.8781 25.253124ZM448.8781 37.55L448.8781 27.175L450.64374 27.175L450.64374 37.55L448.8781 37.55ZM459.59686 37.55L459.59686 36.2375Q458.6125 37.784374 456.6906 37.784374Q455.45624 37.784374 454.40936 37.096874Q453.3781 36.409374 452.8 35.190624Q452.2375 33.971874 452.2375 32.378124Q452.2375 30.815624 452.7531 29.55Q453.26874 28.284374 454.3 27.6125Q455.34686 26.940624 456.6125 26.940624Q457.55 26.940624 458.28436 27.346874Q459.01874 27.7375 459.4875 28.3625L459.4875 23.2375L461.22186 23.2375L461.22186 37.55L459.59686 37.55ZM454.03436 32.378124Q454.03436 34.3625 454.8781 35.346874Q455.72186 36.33125 456.8625 36.33125Q458.01874 36.33125 458.8156 35.39375Q459.6281 34.45625 459.6281 32.51875Q459.6281 30.39375 458.8 29.39375Q457.9875 28.39375 456.78436 28.39375Q455.6125 28.39375 454.8156 29.3625Q454.03436 30.315624 454.03436 32.378124Z" fill-rule="nonzero"/></svg>