<svg version="1.1" viewBox="0.0 0.0 600.0 371.0" fill="none" stroke="none" stroke-linecap="square" stroke-miterlimit="10" width="600" height="371" xmlns:xlink="http://www.w3.org/1999/xlink" xmlns="http://www.w3.org/2000/svg"><path fill="#ffffff" d="M0 0L600.0 0L600.0 371.0L0 371.0L0 0Z" fill-rule="nonzero"/><path stroke="#333333" stroke-width="1.0" stroke-linecap="butt" d="M101.5 332.5L581.5 332.5" fill-rule="nonzero"/><path stroke="#cccccc" stroke-width="1.0" stroke-linecap="butt" d="M101.5 283.5L581.5 283.5" fill-rule="nonzero"/><path stroke="#cccccc" stroke-width="1.0" stroke-linecap="butt" d="M101.5 234.5L581.5 234.5" fill-rule="nonzero"/><path stroke="#cccccc" stroke-width="1.0" stroke-linecap="butt" d="M101.5 185.5L581.5 185.5" fill-rule="nonzero"/><path stroke="#cccccc" stroke-width="1.0" stroke-linecap="butt" d="M101.5 137.5L581.5 137.5" fill-rule="nonzero"/><path stroke="#cccccc" stroke-width="1.0" stroke-linecap="butt" d="M101.5 88.5L581.5 88.5" fill-rule="nonzero"/><clipPath id="id_0"><path d="M101.55 88.28333L581.45 88.28333L581.45 332.45L101.55 332.45L101.55 88.28333Z" clip-rule="nonzero"/></clipPath><path stroke="#000000" stroke-width="2.0" stroke-linecap="butt" stroke-opacity="0.0" clip-path="url(#id_0)" d="M341.0 332.0L227.0 332.0L227.0 95.0C227.0 93.89543 227.89543 93.0 229.0 93.0L339.0 93.0C340.10458 93.0 341.0 93.89543 341.0 95.0Z" fill-rule="nonzero"/><path fill="#4285f4" clip-path="url(#id_0)" d="M341.0 332.0L227.0 332.0L227.0 95.0C227.0 93.89543 227.89543 93.0 229.0 93.0L339.0 93.0C340.10458 93.0 341.0 93.89543 341.0 95.0Z" fill-rule="nonzero"/><path stroke="#000000" stroke-width="2.0" stroke-linecap="butt" stroke-opacity="0.0" clip-path="url(#id_0)" d="M457.0 332.0L343.0 332.0L343.0 228.0C343.0 226.89543 343.89542 226.0 345.0 226.0L455.0 226.0C456.10458 226.0 457.0 226.89543 457.0 228.0Z" fill-rule="nonzero"/><path fill="#ea4335" clip-path="url(#id_0)" d="M457.0 332.0L343.0 332.0L343.0 228.0C343.0 226.89543 343.89542 226.0 345.0 226.0L455.0 226.0C456.10458 226.0 457.0 226.89543 457.0 228.0Z" fill-rule="nonzero"/><path fill="#000000" d="M29.550013 240.2573L21.971888 240.2573L21.971888 243.08542L20.956263 243.08542L20.956263 236.27292L21.971888 236.27292L21.971888 239.11667L29.550013 239.11667L29.550013 240.2573ZM22.175013 235.5698L20.956263 235.5698L20.956263 234.5073L22.175013 234.5073L22.175013 235.5698ZM29.550013 235.5698L23.331263 235.5698L23.331263 234.5073L29.550013 234.5073L29.550013 235.5698ZM29.550013 232.5698L23.331263 232.5698L23.331263 231.6323L24.206263 231.6323Q23.737513 231.33542 23.471888 230.85104Q23.190638 230.36667 23.190638 229.74167Q23.190638 229.05417 23.471888 228.61667Q23.753138 228.16354 24.268763 227.99167Q23.190638 227.24167 23.190638 226.0698Q23.190638 225.1323 23.706263 224.64792Q24.206263 224.14792 25.284388 224.14792L29.550013 224.14792L29.550013 225.1948L25.628138 225.1948Q25.003138 225.1948 24.721888 225.30417Q24.440638 225.39792 24.268763 225.66354Q24.096888 225.92917 24.096888 226.30417Q24.096888 226.96042 24.534388 227.39792Q24.971888 227.8198 25.940638 227.8198L29.550013 227.8198L29.550013 228.8823L25.503138 228.8823Q24.800013 228.8823 24.456263 229.14792Q24.096888 229.39792 24.096888 229.97604Q24.096888 230.42917 24.331263 230.80417Q24.565638 231.17917 25.018763 231.35104Q25.471888 231.52292 26.315638 231.52292L29.550013 231.52292L29.550013 232.5698ZM27.550013 217.3198L27.675013 216.22604Q28.628138 216.47604 29.159388 217.17917Q29.690638 217.8823 29.690638 218.96042Q29.690638 220.3198 28.846888 221.1323Q28.003138 221.92917 26.487513 221.92917Q24.925013 221.92917 24.065638 221.11667Q23.190638 220.30417 23.190638 219.02292Q23.190638 217.77292 24.034388 216.99167Q24.878138 216.1948 26.425013 216.1948Q26.518763 216.1948 26.706263 216.1948L26.706263 220.83542Q27.737513 220.77292 28.284388 220.2573Q28.815638 219.74167 28.815638 218.96042Q28.815638 218.3823 28.518763 217.97604Q28.206263 217.55417 27.550013 217.3198ZM25.846888 220.77292L25.846888 217.30417Q25.050013 217.36667 24.659388 217.6948Q24.050013 218.21042 24.050013 219.0073Q24.050013 219.74167 24.534388 220.24167Q25.018763 220.72604 25.846888 220.77292ZM32.08126 209.55417Q30.971888 210.42917 29.503138 211.03854Q28.018763 211.6323 26.440638 211.6323Q25.050013 211.6323 23.768763 211.1948Q22.284388 210.66354 20.815638 209.55417L20.815638 208.80417Q22.034388 209.5073 22.550013 209.74167Q23.362513 210.10104 24.237513 210.30417Q25.331263 210.55417 26.440638 210.55417Q29.268763 210.55417 32.08126 208.80417L32.08126 209.55417ZM29.550013 207.5698L23.331263 207.5698L23.331263 206.6323L24.206263 206.6323Q23.190638 205.9448 23.190638 204.64792Q23.190638 204.08542 23.393763 203.61667Q23.596888 203.1323 23.925013 202.89792Q24.253138 202.66354 24.690638 202.5698Q24.987513 202.52292 25.721888 202.52292L29.550013 202.52292L29.550013 203.5698L25.768763 203.5698Q25.112513 203.5698 24.800013 203.6948Q24.487513 203.8198 24.300013 204.1323Q24.096888 204.4448 24.096888 204.86667Q24.096888 205.53854 24.534388 206.03854Q24.956263 206.52292 26.143763 206.52292L29.550013 206.52292L29.550013 207.5698ZM27.690638 200.99167L27.534388 199.96042Q28.159388 199.86667 28.487513 199.47604Q28.815638 199.0698 28.815638 198.33542Q28.815638 197.61667 28.534388 197.27292Q28.237513 196.91354 27.831263 196.91354Q27.471888 196.91354 27.268763 197.22604Q27.128138 197.4448 26.909388 198.30417Q26.612513 199.46042 26.409388 199.91354Q26.190638 200.35104 25.815638 200.58542Q25.440638 200.8198 24.971888 200.8198Q24.565638 200.8198 24.206263 200.6323Q23.846888 200.4448 23.612513 200.11667Q23.440638 199.86667 23.315638 199.4448Q23.190638 199.02292 23.190638 198.52292Q23.190638 197.80417 23.409388 197.2573Q23.612513 196.6948 23.971888 196.42917Q24.331263 196.16354 24.925013 196.0698L25.065638 197.10104Q24.596888 197.16354 24.331263 197.5073Q24.050013 197.83542 24.050013 198.46042Q24.050013 199.17917 24.300013 199.49167Q24.534388 199.80417 24.862513 199.80417Q25.065638 199.80417 25.221888 199.67917Q25.393763 199.53854 25.503138 199.27292Q25.565638 199.11667 25.768763 198.33542Q26.081263 197.21042 26.268763 196.77292Q26.456263 196.33542 26.815638 196.08542Q27.175013 195.83542 27.721888 195.83542Q28.253138 195.83542 28.721888 196.14792Q29.175013 196.4448 29.440638 197.02292Q29.690638 197.60104 29.690638 198.33542Q29.690638 199.55417 29.190638 200.1948Q28.675013 200.8198 27.690638 200.99167ZM32.08126 192.8823L32.08126 193.6323Q29.268763 191.8823 26.440638 191.8823Q25.346888 191.8823 24.253138 192.1323Q23.378138 192.33542 22.565638 192.6948Q22.050013 192.92917 20.815638 193.6323L20.815638 192.8823Q22.284388 191.78854 23.768763 191.2573Q25.050013 190.80417 26.440638 190.80417Q28.018763 190.80417 29.503138 191.41354Q30.971888 192.02292 32.08126 192.8823Z" fill-rule="nonzero"/><path fill="#000000" d="M89.05 332.21564Q89.05 330.6844 89.3625 329.7625Q89.675 328.825 90.28438 328.325Q90.90938 327.825 91.84688 327.825Q92.53438 327.825 93.05 328.10626Q93.58125 328.3875 93.925 328.91876Q94.26875 329.4344 94.45625 330.1844Q94.64375 330.9344 94.64375 332.21564Q94.64375 333.73126 94.33125 334.65314Q94.03438 335.575 93.40938 336.09064Q92.8 336.59064 91.84688 336.59064Q90.6125 336.59064 89.89375 335.7Q89.05 334.6375 89.05 332.21564ZM90.12813 332.21564Q90.12813 334.325 90.62813 335.02814Q91.12813 335.73126 91.84688 335.73126Q92.58125 335.73126 93.06563 335.02814Q93.56563 334.325 93.56563 332.21564Q93.56563 330.09064 93.06563 329.40314Q92.58125 328.7 91.83125 328.7Q91.1125 328.7 90.675 329.3094Q90.12813 330.09064 90.12813 332.21564Z" fill-rule="nonzero"/><path fill="#000000" d="M63.596874 286.60104L63.596874 287.61667L57.909374 287.61667Q57.909374 287.24167 58.034374 286.8823Q58.253124 286.30417 58.721874 285.74167Q59.20625 285.17917 60.1125 284.4448Q61.51875 283.28854 62.003124 282.61667Q62.503124 281.9448 62.503124 281.35104Q62.503124 280.72604 62.05 280.30417Q61.596874 279.86667 60.878124 279.86667Q60.1125 279.86667 59.659374 280.3198Q59.20625 280.77292 59.190624 281.58542L58.1125 281.47604Q58.221874 280.2573 58.940624 279.6323Q59.675 278.99167 60.909374 278.99167Q62.14375 278.99167 62.8625 279.67917Q63.58125 280.36667 63.58125 281.3823Q63.58125 281.89792 63.3625 282.39792Q63.159374 282.8823 62.659374 283.4448Q62.175 283.99167 61.05 284.9448Q60.096874 285.74167 59.815624 286.03854Q59.55 286.3198 59.378124 286.60104L63.596874 286.60104ZM65.05 285.36667L66.15938 285.27292Q66.28438 286.08542 66.72188 286.49167Q67.175 286.89792 67.81563 286.89792Q68.56563 286.89792 69.09688 286.3198Q69.62813 285.74167 69.62813 284.80417Q69.62813 283.89792 69.1125 283.3823Q68.6125 282.85104 67.78438 282.85104Q67.28438 282.85104 66.8625 283.08542Q66.45625 283.3198 66.22188 283.67917L65.2375 283.55417L66.06563 279.14792L70.34688 279.14792L70.34688 280.14792L66.90938 280.14792L66.45625 282.46042Q67.22188 281.91354 68.06563 281.91354Q69.19063 281.91354 69.95625 282.6948Q70.7375 283.47604 70.7375 284.71042Q70.7375 285.86667 70.06563 286.72604Q69.2375 287.7573 67.81563 287.7573Q66.64375 287.7573 65.89375 287.10104Q65.15938 286.4448 65.05 285.36667ZM72.6125 287.61667L72.6125 286.41354L73.81563 286.41354L73.81563 287.61667Q73.81563 288.27292 73.58125 288.67917Q73.34688 289.10104 72.84688 289.3198L72.55 288.86667Q72.87813 288.72604 73.03438 288.42917Q73.19063 288.14792 73.22188 287.61667L72.6125 287.61667ZM75.05 283.3823Q75.05 281.85104 75.3625 280.92917Q75.675 279.99167 76.28438 279.49167Q76.90938 278.99167 77.84688 278.99167Q78.53438 278.99167 79.05 279.27292Q79.58125 279.55417 79.925 280.08542Q80.26875 280.60104 80.45625 281.35104Q80.64375 282.10104 80.64375 283.3823Q80.64375 284.89792 80.33125 285.8198Q80.03438 286.74167 79.40938 287.2573Q78.8 287.7573 77.84688 287.7573Q76.6125 287.7573 75.89375 286.86667Q75.05 285.80417 75.05 283.3823ZM76.12813 283.3823Q76.12813 285.49167 76.62813 286.1948Q77.12813 286.89792 77.84688 286.89792Q78.58125 286.89792 79.06563 286.1948Q79.56563 285.49167 79.56563 283.3823Q79.56563 281.2573 79.06563 280.5698Q78.58125 279.86667 77.83125 279.86667Q77.1125 279.86667 76.675 280.47604Q76.12813 281.2573 76.12813 283.3823ZM82.05 283.3823Q82.05 281.85104 82.3625 280.92917Q82.675 279.99167 83.28438 279.49167Q83.90938 278.99167 84.84688 278.99167Q85.53438 278.99167 86.05 279.27292Q86.58125 279.55417 86.925 280.08542Q87.26875 280.60104 87.45625 281.35104Q87.64375 282.10104 87.64375 283.3823Q87.64375 284.89792 87.33125 285.8198Q87.03438 286.74167 86.40938 287.2573Q85.8 287.7573 84.84688 287.7573Q83.6125 287.7573 82.89375 286.86667Q82.05 285.80417 82.05 283.3823ZM83.12813 283.3823Q83.12813 285.49167 83.62813 286.1948Q84.12813 286.89792 84.84688 286.89792Q85.58125 286.89792 86.06563 286.1948Q86.56563 285.49167 86.56563 283.3823Q86.56563 281.2573 86.06563 280.5698Q85.58125 279.86667 84.83125 279.86667Q84.1125 279.86667 83.675 280.47604Q83.12813 281.2573 83.12813 283.3823ZM89.05 283.3823Q89.05 281.85104 89.3625 280.92917Q89.675 279.99167 90.28438 279.49167Q90.90938 278.99167 91.84688 278.99167Q92.53438 278.99167 93.05 279.27292Q93.58125 279.55417 93.925 280.08542Q94.26875 280.60104 94.45625 281.35104Q94.64375 282.10104 94.64375 283.3823Q94.64375 284.89792 94.33125 285.8198Q94.03438 286.74167 93.40938 287.2573Q92.8 287.7573 91.84688 287.7573Q90.6125 287.7573 89.89375 286.86667Q89.05 285.80417 89.05 283.3823ZM90.12813 283.3823Q90.12813 285.49167 90.62813 286.1948Q91.12813 286.89792 91.84688 286.89792Q92.58125 286.89792 93.06563 286.1948Q93.56563 285.49167 93.56563 283.3823Q93.56563 281.2573 93.06563 280.5698Q92.58125 279.86667 91.83125 279.86667Q91.1125 279.86667 90.675 280.47604Q90.12813 281.2573 90.12813 283.3823Z" fill-rule="nonzero"/><path fill="#000000" d="M58.05 236.53334L59.159374 236.43959Q59.284374 237.25209 59.721874 237.65834Q60.175 238.06459 60.815624 238.06459Q61.565624 238.06459 62.096874 237.48647Q62.628124 236.90834 62.628124 235.97084Q62.628124 235.06459 62.1125 234.54897Q61.6125 234.01772 60.784374 234.01772Q60.284374 234.01772 59.8625 234.25209Q59.45625 234.48647 59.221874 234.84584L58.2375 234.72084L59.065624 230.31459L63.346874 230.31459L63.346874 231.31459L59.909374 231.31459L59.45625 233.62709Q60.221874 233.08022 61.065624 233.08022Q62.190624 233.08022 62.95625 233.86147Q63.7375 234.64272 63.7375 235.87709Q63.7375 237.03334 63.065624 237.89272Q62.2375 238.92397 60.815624 238.92397Q59.64375 238.92397 58.89375 238.26772Q58.159374 237.61147 58.05 236.53334ZM65.05 234.54897Q65.05 233.01772 65.3625 232.09584Q65.675 231.15834 66.28438 230.65834Q66.90938 230.15834 67.84688 230.15834Q68.53438 230.15834 69.05 230.43959Q69.58125 230.72084 69.925 231.25209Q70.26875 231.76772 70.45625 232.51772Q70.64375 233.26772 70.64375 234.54897Q70.64375 236.06459 70.33125 236.98647Q70.03438 237.90834 69.40938 238.42397Q68.8 238.92397 67.84688 238.92397Q66.6125 238.92397 65.89375 238.03334Q65.05 236.97084 65.05 234.54897ZM66.12813 234.54897Q66.12813 236.65834 66.62813 237.36147Q67.12813 238.06459 67.84688 238.06459Q68.58125 238.06459 69.06563 237.36147Q69.56563 236.65834 69.56563 234.54897Q69.56563 232.42397 69.06563 231.73647Q68.58125 231.03334 67.83125 231.03334Q67.1125 231.03334 66.675 231.64272Q66.12813 232.42397 66.12813 234.54897ZM72.6125 238.78334L72.6125 237.58022L73.81563 237.58022L73.81563 238.78334Q73.81563 239.43959 73.58125 239.84584Q73.34688 240.26772 72.84688 240.48647L72.55 240.03334Q72.87813 239.89272 73.03438 239.59584Q73.19063 239.31459 73.22188 238.78334L72.6125 238.78334ZM75.05 234.54897Q75.05 233.01772 75.3625 232.09584Q75.675 231.15834 76.28438 230.65834Q76.90938 230.15834 77.84688 230.15834Q78.53438 230.15834 79.05 230.43959Q79.58125 230.72084 79.925 231.25209Q80.26875 231.76772 80.45625 232.51772Q80.64375 233.26772 80.64375 234.54897Q80.64375 236.06459 80.33125 236.98647Q80.03438 237.90834 79.40938 238.42397Q78.8 238.92397 77.84688 238.92397Q76.6125 238.92397 75.89375 238.03334Q75.05 236.97084 75.05 234.54897ZM76.12813 234.54897Q76.12813 236.65834 76.62813 237.36147Q77.12813 238.06459 77.84688 238.06459Q78.58125 238.06459 79.06563 237.36147Q79.56563 236.65834 79.56563 234.54897Q79.56563 232.42397 79.06563 231.73647Q78.58125 231.03334 77.83125 231.03334Q77.1125 231.03334 76.675 231.64272Q76.12813 232.42397 76.12813 234.54897ZM82.05 234.54897Q82.05 233.01772 82.3625 232.09584Q82.675 231.15834 83.28438 230.65834Q83.90938 230.15834 84.84688 230.15834Q85.53438 230.15834 86.05 230.43959Q86.58125 230.72084 86.925 231.25209Q87.26875 231.76772 87.45625 232.51772Q87.64375 233.26772 87.64375 234.54897Q87.64375 236.06459 87.33125 236.98647Q87.03438 237.90834 86.40938 238.42397Q85.8 238.92397 84.84688 238.92397Q83.6125 238.92397 82.89375 238.03334Q82.05 236.97084 82.05 234.54897ZM83.12813 234.54897Q83.12813 236.65834 83.62813 237.36147Q84.12813 238.06459 84.84688 238.06459Q85.58125 238.06459 86.06563 237.36147Q86.56563 236.65834 86.56563 234.54897Q86.56563 232.42397 86.06563 231.73647Q85.58125 231.03334 84.83125 231.03334Q84.1125 231.03334 83.675 231.64272Q83.12813 232.42397 83.12813 234.54897ZM89.05 234.54897Q89.05 233.01772 89.3625 232.09584Q89.675 231.15834 90.28438 230.65834Q90.90938 230.15834 91.84688 230.15834Q92.53438 230.15834 93.05 230.43959Q93.58125 230.72084 93.925 231.25209Q94.26875 231.76772 94.45625 232.51772Q94.64375 233.26772 94.64375 234.54897Q94.64375 236.06459 94.33125 236.98647Q94.03438 237.90834 93.40938 238.42397Q92.8 238.92397 91.84688 238.92397Q90.6125 238.92397 89.89375 238.03334Q89.05 236.97084 89.05 234.54897ZM90.12813 234.54897Q90.12813 236.65834 90.62813 237.36147Q91.12813 238.06459 91.84688 238.06459Q92.58125 238.06459 93.06563 237.36147Q93.56563 236.65834 93.56563 234.54897Q93.56563 232.42397 93.06563 231.73647Q92.58125 231.03334 91.83125 231.03334Q91.1125 231.03334 90.675 231.64272Q90.12813 232.42397 90.12813 234.54897Z" fill-rule="nonzero"/><path fill="#000000" d="M58.1125 182.48125L58.1125 181.46562L63.675 181.46562L63.675 182.29375Q62.8625 183.16875 62.05 184.62187Q61.253124 186.05937 60.815624 187.59062Q60.4875 188.66875 60.409374 189.95L59.315624 189.95Q59.33125 188.93437 59.70625 187.49687Q60.096874 186.05937 60.8 184.73125Q61.51875 183.40312 62.33125 182.48125L58.1125 182.48125ZM65.05 187.7L66.15938 187.60625Q66.28438 188.41875 66.72188 188.825Q67.175 189.23125 67.81563 189.23125Q68.56563 189.23125 69.09688 188.65312Q69.62813 188.075 69.62813 187.1375Q69.62813 186.23125 69.1125 185.71562Q68.6125 185.18437 67.78438 185.18437Q67.28438 185.18437 66.8625 185.41875Q66.45625 185.65312 66.22188 186.0125L65.2375 185.8875L66.06563 181.48125L70.34688 181.48125L70.34688 182.48125L66.90938 182.48125L66.45625 184.79375Q67.22188 184.24687 68.06563 184.24687Q69.19063 184.24687 69.95625 185.02812Q70.7375 185.80937 70.7375 187.04375Q70.7375 188.2 70.06563 189.05937Q69.2375 190.09062 67.81563 190.09062Q66.64375 190.09062 65.89375 189.43437Q65.15938 188.77812 65.05 187.7ZM72.6125 189.95L72.6125 188.74687L73.81563 188.74687L73.81563 189.95Q73.81563 190.60625 73.58125 191.0125Q73.34688 191.43437 72.84688 191.65312L72.55 191.2Q72.87813 191.05937 73.03438 190.7625Q73.19063 190.48125 73.22188 189.95L72.6125 189.95ZM75.05 185.71562Q75.05 184.18437 75.3625 183.2625Q75.675 182.325 76.28438 181.825Q76.90938 181.325 77.84688 181.325Q78.53438 181.325 79.05 181.60625Q79.58125 181.8875 79.925 182.41875Q80.26875 182.93437 80.45625 183.68437Q80.64375 184.43437 80.64375 185.71562Q80.64375 187.23125 80.33125 188.15312Q80.03438 189.075 79.40938 189.59062Q78.8 190.09062 77.84688 190.09062Q76.6125 190.09062 75.89375 189.2Q75.05 188.1375 75.05 185.71562ZM76.12813 185.71562Q76.12813 187.825 76.62813 188.52812Q77.12813 189.23125 77.84688 189.23125Q78.58125 189.23125 79.06563 188.52812Q79.56563 187.825 79.56563 185.71562Q79.56563 183.59062 79.06563 182.90312Q78.58125 182.2 77.83125 182.2Q77.1125 182.2 76.675 182.80937Q76.12813 183.59062 76.12813 185.71562ZM82.05 185.71562Q82.05 184.18437 82.3625 183.2625Q82.675 182.325 83.28438 181.825Q83.90938 181.325 84.84688 181.325Q85.53438 181.325 86.05 181.60625Q86.58125 181.8875 86.925 182.41875Q87.26875 182.93437 87.45625 183.68437Q87.64375 184.43437 87.64375 185.71562Q87.64375 187.23125 87.33125 188.15312Q87.03438 189.075 86.40938 189.59062Q85.8 190.09062 84.84688 190.09062Q83.6125 190.09062 82.89375 189.2Q82.05 188.1375 82.05 185.71562ZM83.12813 185.71562Q83.12813 187.825 83.62813 188.52812Q84.12813 189.23125 84.84688 189.23125Q85.58125 189.23125 86.06563 188.52812Q86.56563 187.825 86.56563 185.71562Q86.56563 183.59062 86.06563 182.90312Q85.58125 182.2 84.83125 182.2Q84.1125 182.2 83.675 182.80937Q83.12813 183.59062 83.12813 185.71562ZM89.05 185.71562Q89.05 184.18437 89.3625 183.2625Q89.675 182.325 90.28438 181.825Q90.90938 181.325 91.84688 181.325Q92.53438 181.325 93.05 181.60625Q93.58125 181.8875 93.925 182.41875Q94.26875 182.93437 94.45625 183.68437Q94.64375 184.43437 94.64375 185.71562Q94.64375 187.23125 94.33125 188.15312Q94.03438 189.075 93.40938 189.59062Q92.8 190.09062 91.84688 190.09062Q90.6125 190.09062 89.89375 189.2Q89.05 188.1375 89.05 185.71562ZM90.12813 185.71562Q90.12813 187.825 90.62813 188.52812Q91.12813 189.23125 91.84688 189.23125Q92.58125 189.23125 93.06563 188.52812Q93.56563 187.825 93.56563 185.71562Q93.56563 183.59062 93.06563 182.90312Q92.58125 182.2 91.83125 182.2Q91.1125 182.2 90.675 182.80937Q90.12813 183.59062 90.12813 185.71562Z" fill-rule="nonzero"/><path fill="#000000" d="M55.01875 141.11667L53.971874 141.11667L53.971874 134.39792Q53.58125 134.7573 52.95625 135.1323Q52.346874 135.49167 51.8625 135.66354L51.8625 134.64792Q52.7375 134.22604 53.39375 133.64792Q54.065624 133.05417 54.346874 132.49167L55.01875 132.49167L55.01875 141.11667ZM58.05 136.8823Q58.05 135.35104 58.3625 134.42917Q58.675 133.49167 59.284374 132.99167Q59.909374 132.49167 60.846874 132.49167Q61.534374 132.49167 62.05 132.77292Q62.58125 133.05417 62.925 133.58542Q63.26875 134.10104 63.45625 134.85104Q63.64375 135.60104 63.64375 136.8823Q63.64375 138.39792 63.33125 139.3198Q63.034374 140.24167 62.409374 140.7573Q61.8 141.2573 60.846874 141.2573Q59.6125 141.2573 58.89375 140.36667Q58.05 139.30417 58.05 136.8823ZM59.128124 136.8823Q59.128124 138.99167 59.628124 139.6948Q60.128124 140.39792 60.846874 140.39792Q61.58125 140.39792 62.065624 139.6948Q62.565624 138.99167 62.565624 136.8823Q62.565624 134.7573 62.065624 134.0698Q61.58125 133.36667 60.83125 133.36667Q60.1125 133.36667 59.675 133.97604Q59.128124 134.7573 59.128124 136.8823ZM65.05 136.8823Q65.05 135.35104 65.3625 134.42917Q65.675 133.49167 66.28438 132.99167Q66.90938 132.49167 67.84688 132.49167Q68.53438 132.49167 69.05 132.77292Q69.58125 133.05417 69.925 133.58542Q70.26875 134.10104 70.45625 134.85104Q70.64375 135.60104 70.64375 136.8823Q70.64375 138.39792 70.33125 139.3198Q70.03438 140.24167 69.40938 140.7573Q68.8 141.2573 67.84688 141.2573Q66.6125 141.2573 65.89375 140.36667Q65.05 139.30417 65.05 136.8823ZM66.12813 136.8823Q66.12813 138.99167 66.62813 139.6948Q67.12813 140.39792 67.84688 140.39792Q68.58125 140.39792 69.06563 139.6948Q69.56563 138.99167 69.56563 136.8823Q69.56563 134.7573 69.06563 134.0698Q68.58125 133.36667 67.83125 133.36667Q67.1125 133.36667 66.675 133.97604Q66.12813 134.7573 66.12813 136.8823ZM72.6125 141.11667L72.6125 139.91354L73.81563 139.91354L73.81563 141.11667Q73.81563 141.77292 73.58125 142.17917Q73.34688 142.60104 72.84688 142.8198L72.55 142.36667Q72.87813 142.22604 73.03438 141.92917Q73.19063 141.64792 73.22188 141.11667L72.6125 141.11667ZM75.05 136.8823Q75.05 135.35104 75.3625 134.42917Q75.675 133.49167 76.28438 132.99167Q76.90938 132.49167 77.84688 132.49167Q78.53438 132.49167 79.05 132.77292Q79.58125 133.05417 79.925 133.58542Q80.26875 134.10104 80.45625 134.85104Q80.64375 135.60104 80.64375 136.8823Q80.64375 138.39792 80.33125 139.3198Q80.03438 140.24167 79.40938 140.7573Q78.8 141.2573 77.84688 141.2573Q76.6125 141.2573 75.89375 140.36667Q75.05 139.30417 75.05 136.8823ZM76.12813 136.8823Q76.12813 138.99167 76.62813 139.6948Q77.12813 140.39792 77.84688 140.39792Q78.58125 140.39792 79.06563 139.6948Q79.56563 138.99167 79.56563 136.8823Q79.56563 134.7573 79.06563 134.0698Q78.58125 133.36667 77.83125 133.36667Q77.1125 133.36667 76.675 133.97604Q76.12813 134.7573 76.12813 136.8823ZM82.05 136.8823Q82.05 135.35104 82.3625 134.42917Q82.675 133.49167 83.28438 132.99167Q83.90938 132.49167 84.84688 132.49167Q85.53438 132.49167 86.05 132.77292Q86.58125 133.05417 86.925 133.58542Q87.26875 134.10104 87.45625 134.85104Q87.64375 135.60104 87.64375 136.8823Q87.64375 138.39792 87.33125 139.3198Q87.03438 140.24167 86.40938 140.7573Q85.8 141.2573 84.84688 141.2573Q83.6125 141.2573 82.89375 140.36667Q82.05 139.30417 82.05 136.8823ZM83.12813 136.8823Q83.12813 138.99167 83.62813 139.6948Q84.12813 140.39792 84.84688 140.39792Q85.58125 140.39792 86.06563 139.6948Q86.56563 138.99167 86.56563 136.8823Q86.56563 134.7573 86.06563 134.0698Q85.58125 133.36667 84.83125 133.36667Q84.1125 133.36667 83.675 133.97604Q83.12813 134.7573 83.12813 136.8823ZM89.05 136.8823Q89.05 135.35104 89.3625 134.42917Q89.675 133.49167 90.28438 132.99167Q90.90938 132.49167 91.84688 132.49167Q92.53438 132.49167 93.05 132.77292Q93.58125 133.05417 93.925 133.58542Q94.26875 134.10104 94.45625 134.85104Q94.64375 135.60104 94.64375 136.8823Q94.64375 138.39792 94.33125 139.3198Q94.03438 140.24167 93.40938 140.7573Q92.8 141.2573 91.84688 141.2573Q90.6125 141.2573 89.89375 140.36667Q89.05 139.30417 89.05 136.8823ZM90.12813 136.8823Q90.12813 138.99167 90.62813 139.6948Q91.12813 140.39792 91.84688 140.39792Q92.58125 140.39792 93.06563 139.6948Q93.56563 138.99167 93.56563 136.8823Q93.56563 134.7573 93.06563 134.0698Q92.58125 133.36667 91.83125 133.36667Q91.1125 133.36667 90.675 133.97604Q90.12813 134.7573 90.12813 136.8823Z" fill-rule="nonzero"/><path fill="#000000" d="M55.01875 92.28333L53.971874 92.28333L53.971874 85.56458Q53.58125 85.92396 52.95625 86.29896Q52.346874 86.65833 51.8625 86.83021L51.8625 85.81458Q52.7375 85.39271 53.39375 84.81458Q54.065624 84.22083 54.346874 83.65833L55.01875 83.65833L55.01875 92.28333ZM63.596874 91.26771L63.596874 92.28333L57.909374 92.28333Q57.909374 91.90833 58.034374 91.54896Q58.253124 90.97083 58.721874 90.40833Q59.20625 89.84583 60.1125 89.11146Q61.51875 87.95521 62.003124 87.28333Q62.503124 86.61146 62.503124 86.01771Q62.503124 85.39271 62.05 84.97083Q61.596874 84.53333 60.878124 84.53333Q60.1125 84.53333 59.659374 84.98646Q59.20625 85.43958 59.190624 86.25208L58.1125 86.14271Q58.221874 84.92396 58.940624 84.29896Q59.675 83.65833 60.909374 83.65833Q62.14375 83.65833 62.8625 84.34583Q63.58125 85.03333 63.58125 86.04896Q63.58125 86.56458 63.3625 87.06458Q63.159374 87.54896 62.659374 88.11146Q62.175 88.65833 61.05 89.61146Q60.096874 90.40833 59.815624 90.70521Q59.55 90.98646 59.378124 91.26771L63.596874 91.26771ZM65.05 90.03333L66.15938 89.93958Q66.28438 90.75208 66.72188 91.15833Q67.175 91.56458 67.81563 91.56458Q68.56563 91.56458 69.09688 90.98646Q69.62813 90.40833 69.62813 89.47083Q69.62813 88.56458 69.1125 88.04896Q68.6125 87.51771 67.78438 87.51771Q67.28438 87.51771 66.8625 87.75208Q66.45625 87.98646 66.22188 88.34583L65.2375 88.22083L66.06563 83.81458L70.34688 83.81458L70.34688 84.81458L66.90938 84.81458L66.45625 87.12708Q67.22188 86.58021 68.06563 86.58021Q69.19063 86.58021 69.95625 87.36146Q70.7375 88.14271 70.7375 89.37708Q70.7375 90.53333 70.06563 91.39271Q69.2375 92.42396 67.81563 92.42396Q66.64375 92.42396 65.89375 91.76771Q65.15938 91.11146 65.05 90.03333ZM72.6125 92.28333L72.6125 91.08021L73.81563 91.08021L73.81563 92.28333Q73.81563 92.93958 73.58125 93.34583Q73.34688 93.76771 72.84688 93.98646L72.55 93.53333Q72.87813 93.39271 73.03438 93.09583Q73.19063 92.81458 73.22188 92.28333L72.6125 92.28333ZM75.05 88.04896Q75.05 86.51771 75.3625 85.59583Q75.675 84.65833 76.28438 84.15833Q76.90938 83.65833 77.84688 83.65833Q78.53438 83.65833 79.05 83.93958Q79.58125 84.22083 79.925 84.75208Q80.26875 85.26771 80.45625 86.01771Q80.64375 86.76771 80.64375 88.04896Q80.64375 89.56458 80.33125 90.48646Q80.03438 91.40833 79.40938 91.92396Q78.8 92.42396 77.84688 92.42396Q76.6125 92.42396 75.89375 91.53333Q75.05 90.47083 75.05 88.04896ZM76.12813 88.04896Q76.12813 90.15833 76.62813 90.86146Q77.12813 91.56458 77.84688 91.56458Q78.58125 91.56458 79.06563 90.86146Q79.56563 90.15833 79.56563 88.04896Q79.56563 85.92396 79.06563 85.23646Q78.58125 84.53333 77.83125 84.53333Q77.1125 84.53333 76.675 85.14271Q76.12813 85.92396 76.12813 88.04896ZM82.05 88.04896Q82.05 86.51771 82.3625 85.59583Q82.675 84.65833 83.28438 84.15833Q83.90938 83.65833 84.84688 83.65833Q85.53438 83.65833 86.05 83.93958Q86.58125 84.22083 86.925 84.75208Q87.26875 85.26771 87.45625 86.01771Q87.64375 86.76771 87.64375 88.04896Q87.64375 89.56458 87.33125 90.48646Q87.03438 91.40833 86.40938 91.92396Q85.8 92.42396 84.84688 92.42396Q83.6125 92.42396 82.89375 91.53333Q82.05 90.47083 82.05 88.04896ZM83.12813 88.04896Q83.12813 90.15833 83.62813 90.86146Q84.12813 91.56458 84.84688 91.56458Q85.58125 91.56458 86.06563 90.86146Q86.56563 90.15833 86.56563 88.04896Q86.56563 85.92396 86.06563 85.23646Q85.58125 84.53333 84.83125 84.53333Q84.1125 84.53333 83.675 85.14271Q83.12813 85.92396 83.12813 88.04896ZM89.05 88.04896Q89.05 86.51771 89.3625 85.59583Q89.675 84.65833 90.28438 84.15833Q90.90938 83.65833 91.84688 83.65833Q92.53438 83.65833 93.05 83.93958Q93.58125 84.22083 93.925 84.75208Q94.26875 85.26771 94.45625 86.01771Q94.64375 86.76771 94.64375 88.04896Q94.64375 89.56458 94.33125 90.48646Q94.03438 91.40833 93.40938 91.92396Q92.8 92.42396 91.84688 92.42396Q90.6125 92.42396 89.89375 91.53333Q89.05 90.47083 89.05 88.04896ZM90.12813 88.04896Q90.12813 90.15833 90.62813 90.86146Q91.12813 91.56458 91.84688 91.56458Q92.58125 91.56458 93.06563 90.86146Q93.56563 90.15833 93.56563 88.04896Q93.56563 85.92396 93.06563 85.23646Q92.58125 84.53333 91.83125 84.53333Q91.1125 84.53333 90.675 85.14271Q90.12813 85.92396 90.12813 88.04896Z" fill-rule="nonzero"/><path fill="#ffffff" d="M318.10938 349.45L318.10938 341.8719L315.28125 341.8719L315.28125 340.85626L322.09375 340.85626L322.09375 341.8719L319.25 341.8719L319.25 349.45L318.10938 349.45ZM322.79688 342.075L322.79688 340.85626L323.85938 340.85626L323.85938 342.075L322.79688 342.075ZM322.79688 349.45L322.79688 343.23126L323.85938 343.23126L323.85938 349.45L322.79688 349.45ZM325.79688 349.45L325.79688 343.23126L326.73438 343.23126L326.73438 344.10626Q327.03125 343.6375 327.51562 343.3719Q328.0 343.09064 328.625 343.09064Q329.3125 343.09064 329.75 343.3719Q330.20312 343.65314 330.375 344.16876Q331.125 343.09064 332.29688 343.09064Q333.23438 343.09064 333.71875 343.60626Q334.21875 344.10626 334.21875 345.1844L334.21875 349.45L333.17188 349.45L333.17188 345.52814Q333.17188 344.90314 333.0625 344.6219Q332.96875 344.34064 332.70312 344.16876Q332.4375 343.9969 332.0625 343.9969Q331.40625 343.9969 330.96875 344.4344Q330.54688 344.8719 330.54688 345.84064L330.54688 349.45L329.48438 349.45L329.48438 345.40314Q329.48438 344.7 329.21875 344.35626Q328.96875 343.9969 328.39062 343.9969Q327.9375 343.9969 327.5625 344.23126Q327.1875 344.46564 327.01562 344.91876Q326.84375 345.3719 326.84375 346.21564L326.84375 349.45L325.79688 349.45ZM341.04688 347.45L342.14062 347.575Q341.89062 348.52814 341.1875 349.0594Q340.48438 349.59064 339.40625 349.59064Q338.04688 349.59064 337.23438 348.7469Q336.4375 347.90314 336.4375 346.3875Q336.4375 344.825 337.25 343.96564Q338.0625 343.09064 339.34375 343.09064Q340.59375 343.09064 341.375 343.9344Q342.17188 344.77814 342.17188 346.325Q342.17188 346.41876 342.17188 346.60626L337.53125 346.60626Q337.59375 347.6375 338.10938 348.1844Q338.625 348.71564 339.40625 348.71564Q339.98438 348.71564 340.39062 348.41876Q340.8125 348.10626 341.04688 347.45ZM337.59375 345.7469L341.0625 345.7469Q341.0 344.95 340.67188 344.5594Q340.15625 343.95 339.35938 343.95Q338.625 343.95 338.125 344.4344Q337.64062 344.91876 337.59375 345.7469ZM348.8125 351.98126Q347.9375 350.8719 347.32812 349.40314Q346.73438 347.91876 346.73438 346.34064Q346.73438 344.95 347.17188 343.66876Q347.70312 342.1844 348.8125 340.71564L349.5625 340.71564Q348.85938 341.9344 348.625 342.45Q348.26562 343.2625 348.0625 344.1375Q347.8125 345.23126 347.8125 346.34064Q347.8125 349.16876 349.5625 351.98126L348.8125 351.98126ZM350.79688 349.45L350.79688 343.23126L351.73438 343.23126L351.73438 344.10626Q352.42188 343.09064 353.71875 343.09064Q354.28125 343.09064 354.75 343.29376Q355.23438 343.4969 355.46875 343.825Q355.70312 344.15314 355.79688 344.59064Q355.84375 344.8875 355.84375 345.6219L355.84375 349.45L354.79688 349.45L354.79688 345.66876Q354.79688 345.0125 354.67188 344.7Q354.54688 344.3875 354.23438 344.2Q353.92188 343.9969 353.5 343.9969Q352.82812 343.9969 352.32812 344.4344Q351.84375 344.85626 351.84375 346.04376L351.84375 349.45L350.79688 349.45ZM357.375 347.59064L358.40625 347.4344Q358.5 348.0594 358.89062 348.3875Q359.29688 348.71564 360.03125 348.71564Q360.75 348.71564 361.09375 348.4344Q361.45312 348.1375 361.45312 347.73126Q361.45312 347.3719 361.14062 347.16876Q360.92188 347.02814 360.0625 346.8094Q358.90625 346.5125 358.45312 346.3094Q358.01562 346.09064 357.78125 345.71564Q357.54688 345.34064 357.54688 344.8719Q357.54688 344.46564 357.73438 344.10626Q357.92188 343.7469 358.25 343.5125Q358.5 343.34064 358.92188 343.21564Q359.34375 343.09064 359.84375 343.09064Q360.5625 343.09064 361.10938 343.3094Q361.67188 343.5125 361.9375 343.8719Q362.20312 344.23126 362.29688 344.825L361.26562 344.96564Q361.20312 344.4969 360.85938 344.23126Q360.53125 343.95 359.90625 343.95Q359.1875 343.95 358.875 344.2Q358.5625 344.4344 358.5625 344.7625Q358.5625 344.96564 358.6875 345.1219Q358.82812 345.29376 359.09375 345.40314Q359.25 345.46564 360.03125 345.66876Q361.15625 345.98126 361.59375 346.16876Q362.03125 346.35626 362.28125 346.71564Q362.53125 347.075 362.53125 347.6219Q362.53125 348.15314 362.21875 348.6219Q361.92188 349.075 361.34375 349.34064Q360.76562 349.59064 360.03125 349.59064Q358.8125 349.59064 358.17188 349.09064Q357.54688 348.575 357.375 347.59064ZM365.48438 351.98126L364.73438 351.98126Q366.48438 349.16876 366.48438 346.34064Q366.48438 345.2469 366.23438 344.15314Q366.03125 343.27814 365.67188 342.46564Q365.4375 341.95 364.73438 340.71564L365.48438 340.71564Q366.57812 342.1844 367.10938 343.66876Q367.5625 344.95 367.5625 346.34064Q367.5625 347.91876 366.95312 349.40314Q366.34375 350.8719 365.48438 351.98126Z" fill-rule="nonzero"/><path fill="#4285f4" d="M234.0 56.916668C234.0 56.364384 234.44771 55.916668 235.0 55.916668L245.0 55.916668C245.55229 55.916668 246.0 56.364384 246.0 56.916668L246.0 66.916664C246.0 67.46895 245.55229 67.916664 245.0 67.916664L235.0 67.916664C234.44771 67.916664 234.0 67.46895 234.0 66.916664Z" fill-rule="nonzero"/><path fill="#1a1a1a" d="M254.875 65.916664L254.875 57.322914L256.01562 57.322914L256.01562 64.90104L260.25 64.90104L260.25 65.916664L254.875 65.916664ZM261.79688 58.541664L261.79688 57.322914L262.85938 57.322914L262.85938 58.541664L261.79688 58.541664ZM261.79688 65.916664L261.79688 59.697914L262.85938 59.697914L262.85938 65.916664L261.79688 65.916664ZM264.375 64.05729L265.40625 63.90104Q265.5 64.52604 265.89062 64.854164Q266.29688 65.18229 267.03125 65.18229Q267.75 65.18229 268.09375 64.90104Q268.45312 64.604164 268.45312 64.197914Q268.45312 63.83854 268.14062 63.635414Q267.92188 63.49479 267.0625 63.27604Q265.90625 62.979164 265.45312 62.77604Q265.01562 62.55729 264.78125 62.18229Q264.54688 61.80729 264.54688 61.33854Q264.54688 60.93229 264.73438 60.572914Q264.92188 60.21354 265.25 59.979164Q265.5 59.80729 265.92188 59.68229Q266.34375 59.55729 266.84375 59.55729Q267.5625 59.55729 268.10938 59.77604Q268.67188 59.979164 268.9375 60.33854Q269.20312 60.697914 269.29688 61.291664L268.26562 61.43229Q268.20312 60.96354 267.85938 60.697914Q267.53125 60.416664 266.90625 60.416664Q266.1875 60.416664 265.875 60.666664Q265.5625 60.90104 265.5625 61.229164Q265.5625 61.43229 265.6875 61.58854Q265.82812 61.760414 266.09375 61.86979Q266.25 61.93229 267.03125 62.135414Q268.15625 62.447914 268.59375 62.635414Q269.03125 62.822914 269.28125 63.18229Q269.53125 63.541664 269.53125 64.08854Q269.53125 64.61979 269.21875 65.08854Q268.92188 65.541664 268.34375 65.80729Q267.76562 66.05729 267.03125 66.05729Q265.8125 66.05729 265.17188 65.55729Q264.54688 65.041664 264.375 64.05729ZM275.85938 65.15104Q275.26562 65.65104 274.71875 65.854164Q274.1875 66.05729 273.5625 66.05729Q272.53125 66.05729 271.98438 65.55729Q271.4375 65.05729 271.4375 64.27604Q271.4375 63.822914 271.64062 63.447914Q271.84375 63.05729 272.1875 62.83854Q272.53125 62.604164 272.95312 62.49479Q273.25 62.40104 273.89062 62.322914Q275.15625 62.18229 275.76562 61.96354Q275.76562 61.74479 275.76562 61.697914Q275.76562 61.041664 275.46875 60.77604Q275.0625 60.43229 274.26562 60.43229Q273.53125 60.43229 273.17188 60.697914Q272.8125 60.947914 272.64062 61.604164L271.60938 61.46354Q271.75 60.80729 272.07812 60.40104Q272.40625 59.99479 273.01562 59.77604Q273.625 59.55729 274.42188 59.55729Q275.21875 59.55729 275.71875 59.74479Q276.21875 59.93229 276.45312 60.21354Q276.6875 60.49479 276.78125 60.93229Q276.82812 61.197914 276.82812 61.90104L276.82812 63.30729Q276.82812 64.77604 276.89062 65.166664Q276.96875 65.55729 277.17188 65.916664L276.0625 65.916664Q275.90625 65.58854 275.85938 65.15104ZM275.76562 62.791664Q275.1875 63.02604 274.04688 63.197914Q273.39062 63.291664 273.125 63.416664Q272.85938 63.52604 272.70312 63.74479Q272.5625 63.96354 272.5625 64.24479Q272.5625 64.666664 272.875 64.947914Q273.20312 65.229164 273.8125 65.229164Q274.42188 65.229164 274.89062 64.96354Q275.375 64.697914 275.59375 64.229164Q275.76562 63.86979 275.76562 63.18229L275.76562 62.791664ZM279.04688 65.916664L279.04688 60.510414L278.10938 60.510414L278.10938 59.697914L279.04688 59.697914L279.04688 59.02604Q279.04688 58.40104 279.15625 58.104164Q279.3125 57.68229 279.6875 57.43229Q280.07812 57.18229 280.76562 57.18229Q281.21875 57.18229 281.75 57.291664L281.59375 58.197914Q281.26562 58.15104 280.96875 58.15104Q280.48438 58.15104 280.28125 58.354164Q280.09375 58.55729 280.09375 59.11979L280.09375 59.697914L281.3125 59.697914L281.3125 60.510414L280.09375 60.510414L280.09375 65.916664L279.04688 65.916664ZM281.375 64.05729L282.40625 63.90104Q282.5 64.52604 282.89062 64.854164Q283.29688 65.18229 284.03125 65.18229Q284.75 65.18229 285.09375 64.90104Q285.45312 64.604164 285.45312 64.197914Q285.45312 63.83854 285.14062 63.635414Q284.92188 63.49479 284.0625 63.27604Q282.90625 62.979164 282.45312 62.77604Q282.01562 62.55729 281.78125 62.18229Q281.54688 61.80729 281.54688 61.33854Q281.54688 60.93229 281.73438 60.572914Q281.92188 60.21354 282.25 59.979164Q282.5 59.80729 282.92188 59.68229Q283.34375 59.55729 283.84375 59.55729Q284.5625 59.55729 285.10938 59.77604Q285.67188 59.979164 285.9375 60.33854Q286.20312 60.697914 286.29688 61.291664L285.26562 61.43229Q285.20312 60.96354 284.85938 60.697914Q284.53125 60.416664 283.90625 60.416664Q283.1875 60.416664 282.875 60.666664Q282.5625 60.90104 282.5625 61.229164Q282.5625 61.43229 282.6875 61.58854Q282.82812 61.760414 283.09375 61.86979Q283.25 61.93229 284.03125 62.135414Q285.15625 62.447914 285.59375 62.635414Q286.03125 62.822914 286.28125 63.18229Q286.53125 63.541664 286.53125 64.08854Q286.53125 64.61979 286.21875 65.08854Q285.92188 65.541664 285.34375 65.80729Q284.76562 66.05729 284.03125 66.05729Q282.8125 66.05729 282.17188 65.55729Q281.54688 65.041664 281.375 64.05729Z" fill-rule="nonzero"/><path fill="#ea4335" d="M304.0 56.916668C304.0 56.364384 304.44772 55.916668 305.0 55.916668L315.0 55.916668C315.55228 55.916668 316.0 56.364384 316.0 56.916668L316.0 66.916664C316.0 67.46895 315.55228 67.916664 315.0 67.916664L305.0 67.916664C304.44772 67.916664 304.0 67.46895 304.0 66.916664Z" fill-rule="nonzero"/><path fill="#1a1a1a" d="M324.92188 65.916664L324.92188 57.322914L327.89062 57.322914Q328.89062 57.322914 329.42188 57.447914Q330.15625 57.61979 330.67188 58.05729Q331.35938 58.635414 331.6875 59.541664Q332.03125 60.43229 332.03125 61.572914Q332.03125 62.55729 331.79688 63.30729Q331.57812 64.05729 331.21875 64.55729Q330.85938 65.05729 330.42188 65.33854Q330.0 65.61979 329.40625 65.77604Q328.8125 65.916664 328.03125 65.916664L324.92188 65.916664ZM326.0625 64.90104L327.89062 64.90104Q328.75 64.90104 329.23438 64.74479Q329.71875 64.58854 330.0 64.291664Q330.40625 63.90104 330.625 63.21354Q330.85938 62.52604 330.85938 61.55729Q330.85938 60.21354 330.40625 59.49479Q329.96875 58.760414 329.34375 58.510414Q328.875 58.33854 327.875 58.33854L326.0625 58.33854L326.0625 64.90104ZM333.79688 58.541664L333.79688 57.322914L334.85938 57.322914L334.85938 58.541664L333.79688 58.541664ZM333.79688 65.916664L333.79688 59.697914L334.85938 59.697914L334.85938 65.916664L333.79688 65.916664ZM336.78125 65.916664L336.78125 59.697914L337.73438 59.697914L337.73438 60.635414Q338.09375 59.979164 338.39062 59.77604Q338.70312 59.55729 339.07812 59.55729Q339.60938 59.55729 340.15625 59.885414L339.79688 60.86979Q339.40625 60.635414 339.03125 60.635414Q338.67188 60.635414 338.39062 60.854164Q338.125 61.05729 338.01562 61.43229Q337.82812 61.99479 337.82812 62.65104L337.82812 65.916664L336.78125 65.916664ZM345.04688 63.916664L346.14062 64.041664Q345.89062 64.99479 345.1875 65.52604Q344.48438 66.05729 343.40625 66.05729Q342.04688 66.05729 341.23438 65.21354Q340.4375 64.36979 340.4375 62.854164Q340.4375 61.291664 341.25 60.43229Q342.0625 59.55729 343.34375 59.55729Q344.59375 59.55729 345.375 60.40104Q346.17188 61.24479 346.17188 62.791664Q346.17188 62.885414 346.17188 63.072914L341.53125 63.072914Q341.59375 64.104164 342.10938 64.65104Q342.625 65.18229 343.40625 65.18229Q343.98438 65.18229 344.39062 64.885414Q344.8125 64.572914 345.04688 63.916664ZM341.59375 62.21354L345.0625 62.21354Q345.0 61.416664 344.67188 61.02604Q344.15625 60.416664 343.35938 60.416664Q342.625 60.416664 342.125 60.90104Q341.64062 61.385414 341.59375 62.21354ZM351.85938 63.635414L352.89062 63.77604Q352.71875 64.83854 352.01562 65.447914Q351.3125 66.05729 350.29688 66.05729Q349.01562 66.05729 348.23438 65.229164Q347.46875 64.385414 347.46875 62.822914Q347.46875 61.822914 347.79688 61.072914Q348.14062 60.30729 348.8125 59.93229Q349.5 59.55729 350.3125 59.55729Q351.3125 59.55729 351.95312 60.072914Q352.60938 60.572914 352.79688 61.52604L351.76562 61.68229Q351.625 61.05729 351.25 60.74479Q350.875 60.416664 350.34375 60.416664Q349.54688 60.416664 349.04688 60.99479Q348.54688 61.55729 348.54688 62.791664Q348.54688 64.05729 349.03125 64.61979Q349.51562 65.18229 350.28125 65.18229Q350.90625 65.18229 351.3125 64.80729Q351.73438 64.43229 351.85938 63.635414ZM356.09375 64.979164L356.25 65.90104Q355.79688 65.99479 355.45312 65.99479Q354.875 65.99479 354.5625 65.822914Q354.25 65.635414 354.10938 65.33854Q353.98438 65.041664 353.98438 64.08854L353.98438 60.510414L353.21875 60.510414L353.21875 59.697914L353.98438 59.697914L353.98438 58.15104L355.03125 57.52604L355.03125 59.697914L356.09375 59.697914L356.09375 60.510414L355.03125 60.510414L355.03125 64.15104Q355.03125 64.604164 355.07812 64.729164Q355.14062 64.854164 355.26562 64.93229Q355.39062 65.010414 355.625 65.010414Q355.8125 65.010414 356.09375 64.979164ZM357.04688 65.916664L357.04688 60.510414L356.10938 60.510414L356.10938 59.697914L357.04688 59.697914L357.04688 59.02604Q357.04688 58.40104 357.15625 58.104164Q357.3125 57.68229 357.6875 57.43229Q358.07812 57.18229 358.76562 57.18229Q359.21875 57.18229 359.75 57.291664L359.59375 58.197914Q359.26562 58.15104 358.96875 58.15104Q358.48438 58.15104 358.28125 58.354164Q358.09375 58.55729 358.09375 59.11979L358.09375 59.697914L359.3125 59.697914L359.3125 60.510414L358.09375 60.510414L358.09375 65.916664L357.04688 65.916664ZM359.375 64.05729L360.40625 63.90104Q360.5 64.52604 360.89062 64.854164Q361.29688 65.18229 362.03125 65.18229Q362.75 65.18229 363.09375 64.90104Q363.45312 64.604164 363.45312 64.197914Q363.45312 63.83854 363.14062 63.635414Q362.92188 63.49479 362.0625 63.27604Q360.90625 62.979164 360.45312 62.77604Q360.01562 62.55729 359.78125 62.18229Q359.54688 61.80729 359.54688 61.33854Q359.54688 60.93229 359.73438 60.572914Q359.92188 60.21354 360.25 59.979164Q360.5 59.80729 360.92188 59.68229Q361.34375 59.55729 361.84375 59.55729Q362.5625 59.55729 363.10938 59.77604Q363.67188 59.979164 363.9375 60.33854Q364.20312 60.697914 364.29688 61.291664L363.26562 61.43229Q363.20312 60.96354 362.85938 60.697914Q362.53125 60.416664 361.90625 60.416664Q361.1875 60.416664 360.875 60.666664Q360.5625 60.90104 360.5625 61.229164Q360.5625 61.43229 360.6875 61.58854Q360.82812 61.760414 361.09375 61.86979Q361.25 61.93229 362.03125 62.135414Q363.15625 62.447914 363.59375 62.635414Q364.03125 62.822914 364.28125 63.18229Q364.53125 63.541664 364.53125 64.08854Q364.53125 64.61979 364.21875 65.08854Q363.92188 65.541664 363.34375 65.80729Q362.76562 66.05729 362.03125 66.05729Q360.8125 66.05729 360.17188 65.55729Q359.54688 65.041664 359.375 64.05729Z" fill-rule="nonzero"/><path fill="#757575" d="M19.45625 32.95625L21.2375 32.8Q21.3625 33.8625 21.815624 34.55Q22.284374 35.2375 23.253124 35.675Q24.2375 36.096874 25.471874 36.096874Q26.55 36.096874 27.378124 35.784374Q28.20625 35.45625 28.6125 34.89375Q29.01875 34.33125 29.01875 33.659374Q29.01875 32.9875 28.628124 32.4875Q28.2375 31.9875 27.346874 31.64375Q26.76875 31.409374 24.784374 30.940624Q22.815624 30.471874 22.034374 30.05Q21.003124 29.51875 20.503124 28.721874Q20.003124 27.925 20.003124 26.940624Q20.003124 25.846874 20.6125 24.909374Q21.221874 23.971874 22.409374 23.4875Q23.596874 22.9875 25.034374 22.9875Q26.628124 22.9875 27.846874 23.503124Q29.065624 24.01875 29.70625 25.01875Q30.3625 26.003124 30.409374 27.26875L28.596874 27.409374Q28.45625 26.05 27.6125 25.3625Q26.76875 24.659374 25.1125 24.659374Q23.39375 24.659374 22.596874 25.3Q21.815624 25.925 21.815624 26.8Q21.815624 27.58125 22.378124 28.08125Q22.925 28.58125 25.2375 29.096874Q27.55 29.6125 28.409374 30.003124Q29.659374 30.58125 30.253124 31.471874Q30.846874 32.346874 30.846874 33.503124Q30.846874 34.64375 30.190624 35.659374Q29.534374 36.675 28.3 37.2375Q27.08125 37.8 25.55 37.8Q23.6125 37.8 22.3 37.2375Q20.9875 36.659374 20.2375 35.51875Q19.4875 34.378124 19.45625 32.95625ZM36.70625 35.971874L36.95625 37.534374Q36.221874 37.690624 35.628124 37.690624Q34.675 37.690624 34.14375 37.39375Q33.628124 37.08125 33.409374 36.596874Q33.190624 36.096874 33.190624 34.51875L33.190624 28.55L31.909374 28.55L31.909374 27.175L33.190624 27.175L33.190624 24.6125L34.940624 23.55L34.940624 27.175L36.70625 27.175L36.70625 28.55L34.940624 28.55L34.940624 34.6125Q34.940624 35.3625 35.034374 35.58125Q35.128124 35.784374 35.33125 35.925Q35.55 36.05 35.940624 36.05Q36.221874 36.05 36.70625 35.971874ZM45.64375 36.26875Q44.659374 37.096874 43.753124 37.440624Q42.846874 37.784374 41.815624 37.784374Q40.1125 37.784374 39.190624 36.95625Q38.26875 36.1125 38.26875 34.815624Q38.26875 34.05 38.6125 33.425Q38.971874 32.8 39.534374 32.425Q40.096874 32.034374 40.8 31.83125Q41.315624 31.70625 42.3625 31.565624Q44.4875 31.315624 45.4875 30.971874Q45.503124 30.6125 45.503124 30.503124Q45.503124 29.440624 45.003124 28.9875Q44.33125 28.39375 43.003124 28.39375Q41.753124 28.39375 41.159374 28.83125Q40.58125 29.26875 40.3 30.378124L38.58125 30.14375Q38.815624 29.034374 39.346874 28.3625Q39.878124 27.675 40.89375 27.315624Q41.909374 26.940624 43.253124 26.940624Q44.58125 26.940624 45.409374 27.253124Q46.2375 27.565624 46.628124 28.05Q47.01875 28.51875 47.175 29.2375Q47.26875 29.690624 47.26875 30.8625L47.26875 33.20625Q47.26875 35.659374 47.378124 36.315624Q47.4875 36.95625 47.83125 37.55L45.9875 37.55Q45.721874 37.003124 45.64375 36.26875ZM45.4875 32.346874Q44.534374 32.7375 42.6125 33.003124Q41.534374 33.159374 41.08125 33.3625Q40.64375 33.55 40.39375 33.925Q40.14375 34.3 40.14375 34.76875Q40.14375 35.471874 40.675 35.940624Q41.20625 36.409374 42.2375 36.409374Q43.253124 36.409374 44.034374 35.971874Q44.83125 35.51875 45.20625 34.753124Q45.4875 34.14375 45.4875 32.9875L45.4875 32.346874ZM53.70625 35.971874L53.95625 37.534374Q53.221874 37.690624 52.628124 37.690624Q51.675 37.690624 51.14375 37.39375Q50.628124 37.08125 50.409374 36.596874Q50.190624 36.096874 50.190624 34.51875L50.190624 28.55L48.909374 28.55L48.909374 27.175L50.190624 27.175L50.190624 24.6125L51.940624 23.55L51.940624 27.175L53.70625 27.175L53.70625 28.55L51.940624 28.55L51.940624 34.6125Q51.940624 35.3625 52.034374 35.58125Q52.128124 35.784374 52.33125 35.925Q52.55 36.05 52.940624 36.05Q53.221874 36.05 53.70625 35.971874ZM62.01875 37.55L62.01875 23.2375L67.39375 23.2375Q69.03438 23.2375 70.01875 23.675Q71.00313 24.096874 71.56563 25.003124Q72.12813 25.909374 72.12813 26.89375Q72.12813 27.815624 71.62813 28.628124Q71.14375 29.440624 70.12813 29.925Q71.425 30.315624 72.12813 31.2375Q72.83125 32.14375 72.83125 33.39375Q72.83125 34.409374 72.39375 35.26875Q71.97188 36.128124 71.34688 36.596874Q70.72188 37.065624 69.78438 37.315624Q68.84688 37.55 67.47188 37.55L62.01875 37.55ZM63.909374 29.253124L67.00313 29.253124Q68.26875 29.253124 68.81563 29.08125Q69.53438 28.8625 69.89375 28.378124Q70.26875 27.878124 70.26875 27.1125Q70.26875 26.409374 69.925 25.8625Q69.58125 25.315624 68.94063 25.128124Q68.31563 24.925 66.76875 24.925L63.909374 24.925L63.909374 29.253124ZM63.909374 35.8625L67.47188 35.8625Q68.39375 35.8625 68.76875 35.784374Q69.425 35.675 69.8625 35.409374Q70.3 35.128124 70.58125 34.6125Q70.8625 34.08125 70.8625 33.39375Q70.8625 32.596874 70.45625 32.003124Q70.05 31.409374 69.31563 31.175Q68.58125 30.940624 67.22188 30.940624L63.909374 30.940624L63.909374 35.8625ZM81.97188 34.20625L83.78438 34.440624Q83.3625 36.01875 82.19063 36.909374Q81.03438 37.784374 79.22188 37.784374Q76.95625 37.784374 75.6125 36.39375Q74.28438 34.9875 74.28438 32.45625Q74.28438 29.83125 75.62813 28.39375Q76.97188 26.940624 79.12813 26.940624Q81.20625 26.940624 82.51875 28.3625Q83.84688 29.76875 83.84688 32.346874Q83.84688 32.503124 83.83125 32.815624L76.09688 32.815624Q76.19063 34.51875 77.06563 35.425Q77.94063 36.33125 79.2375 36.33125Q80.20625 36.33125 80.87813 35.83125Q81.56563 35.315624 81.97188 34.20625ZM76.19063 31.3625L81.9875 31.3625Q81.87813 30.065624 81.33125 29.409374Q80.4875 28.39375 79.14375 28.39375Q77.94063 28.39375 77.1125 29.20625Q76.28438 30.003124 76.19063 31.3625ZM85.8625 37.55L85.8625 27.175L87.45625 27.175L87.45625 28.659374Q88.59688 26.940624 90.75313 26.940624Q91.69063 26.940624 92.47188 27.284374Q93.26875 27.6125 93.65938 28.159374Q94.05 28.70625 94.20625 29.45625Q94.3 29.95625 94.3 31.175L94.3 37.55L92.53438 37.55L92.53438 31.2375Q92.53438 30.159374 92.33125 29.628124Q92.12813 29.096874 91.59688 28.784374Q91.08125 28.471874 90.37813 28.471874Q89.25313 28.471874 88.44063 29.190624Q87.62813 29.89375 87.62813 31.878124L87.62813 37.55L85.8625 37.55ZM102.64375 33.753124L104.3625 33.971874Q104.08125 35.76875 102.90938 36.784374Q101.75313 37.784374 100.05 37.784374Q97.925 37.784374 96.62813 36.39375Q95.33125 35.003124 95.33125 32.409374Q95.33125 30.721874 95.87813 29.471874Q96.44063 28.20625 97.58125 27.58125Q98.72188 26.940624 100.06563 26.940624Q101.75313 26.940624 102.81563 27.8Q103.89375 28.659374 104.20625 30.221874L102.4875 30.4875Q102.25313 29.440624 101.62813 28.925Q101.00313 28.39375 100.12813 28.39375Q98.8 28.39375 97.97188 29.346874Q97.14375 30.3 97.14375 32.346874Q97.14375 34.440624 97.94063 35.39375Q98.7375 36.33125 100.03438 36.33125Q101.06563 36.33125 101.75313 35.70625Q102.45625 35.065624 102.64375 33.753124ZM105.8625 37.55L105.8625 23.2375L107.62813 23.2375L107.62813 28.3625Q108.8625 26.940624 110.7375 26.940624Q111.87813 26.940624 112.72188 27.39375Q113.58125 27.846874 113.94063 28.659374Q114.31563 29.45625 114.31563 30.971874L114.31563 37.55L112.56563 37.55L112.56563 30.971874Q112.56563 29.659374 111.9875 29.065624Q111.40938 28.45625 110.37813 28.45625Q109.59688 28.45625 108.89375 28.8625Q108.20625 29.26875 107.90938 29.971874Q107.62813 30.659374 107.62813 31.878124L107.62813 37.55L105.8625 37.55ZM115.8625 37.55L115.8625 27.175L117.44063 27.175L117.44063 28.628124Q117.925 27.878124 118.7375 27.409374Q119.55 26.940624 120.58125 26.940624Q121.7375 26.940624 122.47188 27.425Q123.20625 27.89375 123.51875 28.753124Q124.75313 26.940624 126.72188 26.940624Q128.26875 26.940624 129.09688 27.8Q129.925 28.659374 129.925 30.425L129.925 37.55L128.175 37.55L128.175 31.01875Q128.175 29.95625 128.00313 29.503124Q127.83125 29.034374 127.37813 28.753124Q126.94063 28.471874 126.33125 28.471874Q125.2375 28.471874 124.50313 29.20625Q123.78438 29.925 123.78438 31.51875L123.78438 37.55L122.03438 37.55L122.03438 30.815624Q122.03438 29.64375 121.59688 29.065624Q121.175 28.471874 120.19063 28.471874Q119.45625 28.471874 118.81563 28.8625Q118.19063 29.253124 117.90938 30.003124Q117.62813 30.753124 117.62813 32.175L117.62813 37.55L115.8625 37.55ZM138.64375 36.26875Q137.65938 37.096874 136.75313 37.440624Q135.84688 37.784374 134.81563 37.784374Q133.1125 37.784374 132.19063 36.95625Q131.26875 36.1125 131.26875 34.815624Q131.26875 34.05 131.6125 33.425Q131.97188 32.8 132.53438 32.425Q133.09688 32.034374 133.8 31.83125Q134.31563 31.70625 135.3625 31.565624Q137.4875 31.315624 138.4875 30.971874Q138.50313 30.6125 138.50313 30.503124Q138.50313 29.440624 138.00313 28.9875Q137.33125 28.39375 136.00313 28.39375Q134.75313 28.39375 134.15938 28.83125Q133.58125 29.26875 133.3 30.378124L131.58125 30.14375Q131.81563 29.034374 132.34688 28.3625Q132.87813 27.675 133.89375 27.315624Q134.90938 26.940624 136.25313 26.940624Q137.58125 26.940624 138.40938 27.253124Q139.2375 27.565624 139.62813 28.05Q140.01875 28.51875 140.175 29.2375Q140.26875 29.690624 140.26875 30.8625L140.26875 33.20625Q140.26875 35.659374 140.37813 36.315624Q140.4875 36.95625 140.83125 37.55L138.9875 37.55Q138.72188 37.003124 138.64375 36.26875ZM138.4875 32.346874Q137.53438 32.7375 135.6125 33.003124Q134.53438 33.159374 134.08125 33.3625Q133.64375 33.55 133.39375 33.925Q133.14375 34.3 133.14375 34.76875Q133.14375 35.471874 133.675 35.940624Q134.20625 36.409374 135.2375 36.409374Q136.25313 36.409374 137.03438 35.971874Q137.83125 35.51875 138.20625 34.753124Q138.4875 34.14375 138.4875 32.9875L138.4875 32.346874ZM142.84688 37.55L142.84688 27.175L144.425 27.175L144.425 28.753124Q145.03438 27.64375 145.55 27.3Q146.06563 26.940624 146.675 26.940624Q147.56563 26.940624 148.4875 27.503124L147.87813 29.14375Q147.2375 28.753124 146.59688 28.753124Q146.01875 28.753124 145.55 29.1125Q145.09688 29.45625 144.89375 30.065624Q144.6125 31.003124 144.6125 32.1125L144.6125 37.55L142.84688 37.55ZM149.87813 37.55L149.87813 23.2375L151.64375 23.2375L151.64375 31.39375L155.8 27.175L158.06563 27.175L154.1125 31.01875L158.47188 37.55L156.3 37.55L152.87813 32.253124L151.64375 33.440624L151.64375 37.55L149.87813 37.55ZM169.22188 41.753124Q167.76875 39.925 166.76875 37.471874Q165.76875 35.003124 165.76875 32.3625Q165.76875 30.034374 166.51875 27.909374Q167.39375 25.440624 169.22188 22.9875L170.4875 22.9875Q169.3 25.01875 168.925 25.89375Q168.33125 27.2375 167.9875 28.70625Q167.56563 30.534374 167.56563 32.378124Q167.56563 37.065624 170.4875 41.753124L169.22188 41.753124ZM172.15938 34.45625L173.90938 34.175Q174.05 35.221874 174.72188 35.784374Q175.39375 36.33125 176.59688 36.33125Q177.8 36.33125 178.37813 35.846874Q178.97188 35.346874 178.97188 34.690624Q178.97188 34.096874 178.45625 33.753124Q178.09688 33.51875 176.65938 33.159374Q174.72188 32.659374 173.97188 32.315624Q173.2375 31.95625 172.84688 31.33125Q172.45625 30.690624 172.45625 29.925Q172.45625 29.2375 172.76875 28.64375Q173.09688 28.05 173.64375 27.659374Q174.05 27.3625 174.75313 27.159374Q175.47188 26.940624 176.28438 26.940624Q177.50313 26.940624 178.425 27.3Q179.34688 27.64375 179.78438 28.253124Q180.22188 28.846874 180.39375 29.846874L178.675 30.08125Q178.55 29.284374 177.9875 28.846874Q177.425 28.39375 176.40938 28.39375Q175.19063 28.39375 174.675 28.8Q174.15938 29.190624 174.15938 29.721874Q174.15938 30.065624 174.37813 30.346874Q174.58125 30.628124 175.05 30.815624Q175.31563 30.909374 176.59688 31.253124Q178.47188 31.753124 179.20625 32.08125Q179.94063 32.39375 180.3625 33.003124Q180.78438 33.596874 180.78438 34.503124Q180.78438 35.378124 180.26875 36.159374Q179.75313 36.940624 178.78438 37.3625Q177.81563 37.784374 176.59688 37.784374Q174.58125 37.784374 173.51875 36.940624Q172.45625 36.096874 172.15938 34.45625ZM182.78438 41.55L182.59688 39.89375Q183.175 40.05 183.59688 40.05Q184.19063 40.05 184.53438 39.846874Q184.89375 39.659374 185.1125 39.315624Q185.28438 39.05 185.65938 38.003124Q185.70625 37.846874 185.81563 37.565624L181.87813 27.175L183.76875 27.175L185.925 33.190624Q186.34688 34.33125 186.675 35.58125Q186.9875 34.378124 187.39375 33.221874L189.6125 27.175L191.37813 27.175L187.425 37.721874Q186.8 39.440624 186.44063 40.08125Q185.97188 40.95625 185.3625 41.346874Q184.76875 41.753124 183.925 41.753124Q183.40938 41.753124 182.78438 41.55ZM192.15938 34.45625L193.90938 34.175Q194.05 35.221874 194.72188 35.784374Q195.39375 36.33125 196.59688 36.33125Q197.8 36.33125 198.37813 35.846874Q198.97188 35.346874 198.97188 34.690624Q198.97188 34.096874 198.45625 33.753124Q198.09688 33.51875 196.65938 33.159374Q194.72188 32.659374 193.97188 32.315624Q193.2375 31.95625 192.84688 31.33125Q192.45625 30.690624 192.45625 29.925Q192.45625 29.2375 192.76875 28.64375Q193.09688 28.05 193.64375 27.659374Q194.05 27.3625 194.75313 27.159374Q195.47188 26.940624 196.28438 26.940624Q197.50313 26.940624 198.425 27.3Q199.34688 27.64375 199.78438 28.253124Q200.22188 28.846874 200.39375 29.846874L198.675 30.08125Q198.55 29.284374 197.9875 28.846874Q197.425 28.39375 196.40938 28.39375Q195.19063 28.39375 194.675 28.8Q194.15938 29.190624 194.15938 29.721874Q194.15938 30.065624 194.37813 30.346874Q194.58125 30.628124 195.05 30.815624Q195.31563 30.909374 196.59688 31.253124Q198.47188 31.753124 199.20625 32.08125Q199.94063 32.39375 200.3625 33.003124Q200.78438 33.596874 200.78438 34.503124Q200.78438 35.378124 200.26875 36.159374Q199.75313 36.940624 198.78438 37.3625Q197.81563 37.784374 196.59688 37.784374Q194.58125 37.784374 193.51875 36.940624Q192.45625 36.096874 192.15938 34.45625ZM206.70625 35.971874L206.95625 37.534374Q206.22188 37.690624 205.62813 37.690624Q204.675 37.690624 204.14375 37.39375Q203.62813 37.08125 203.40938 36.596874Q203.19063 36.096874 203.19063 34.51875L203.19063 28.55L201.90938 28.55L201.90938 27.175L203.19063 27.175L203.19063 24.6125L204.94063 23.55L204.94063 27.175L206.70625 27.175L206.70625 28.55L204.94063 28.55L204.94063 34.6125Q204.94063 35.3625 205.03438 35.58125Q205.12813 35.784374 205.33125 35.925Q205.55 36.05 205.94063 36.05Q206.22188 36.05 206.70625 35.971874ZM208.84688 37.55L208.84688 27.175L210.425 27.175L210.425 28.753124Q211.03438 27.64375 211.55 27.3Q212.06563 26.940624 212.675 26.940624Q213.56563 26.940624 214.4875 27.503124L213.87813 29.14375Q213.2375 28.753124 212.59688 28.753124Q212.01875 28.753124 211.55 29.1125Q211.09688 29.45625 210.89375 30.065624Q210.6125 31.003124 210.6125 32.1125L210.6125 37.55L208.84688 37.55ZM222.64375 36.26875Q221.65938 37.096874 220.75313 37.440624Q219.84688 37.784374 218.81563 37.784374Q217.1125 37.784374 216.19063 36.95625Q215.26875 36.1125 215.26875 34.815624Q215.26875 34.05 215.6125 33.425Q215.97188 32.8 216.53438 32.425Q217.09688 32.034374 217.8 31.83125Q218.31563 31.70625 219.3625 31.565624Q221.4875 31.315624 222.4875 30.971874Q222.50313 30.6125 222.50313 30.503124Q222.50313 29.440624 222.00313 28.9875Q221.33125 28.39375 220.00313 28.39375Q218.75313 28.39375 218.15938 28.83125Q217.58125 29.26875 217.3 30.378124L215.58125 30.14375Q215.81563 29.034374 216.34688 28.3625Q216.87813 27.675 217.89375 27.315624Q218.90938 26.940624 220.25313 26.940624Q221.58125 26.940624 222.40938 27.253124Q223.2375 27.565624 223.62813 28.05Q224.01875 28.51875 224.175 29.2375Q224.26875 29.690624 224.26875 30.8625L224.26875 33.20625Q224.26875 35.659374 224.37813 36.315624Q224.4875 36.95625 224.83125 37.55L222.9875 37.55Q222.72188 37.003124 222.64375 36.26875ZM222.4875 32.346874Q221.53438 32.7375 219.6125 33.003124Q218.53438 33.159374 218.08125 33.3625Q217.64375 33.55 217.39375 33.925Q217.14375 34.3 217.14375 34.76875Q217.14375 35.471874 217.675 35.940624Q218.20625 36.409374 219.2375 36.409374Q220.25313 36.409374 221.03438 35.971874Q221.83125 35.51875 222.20625 34.753124Q222.4875 34.14375 222.4875 32.9875L222.4875 32.346874ZM226.8625 41.51875L226.8625 27.175L228.47188 27.175L228.47188 28.51875Q229.03438 27.7375 229.7375 27.346874Q230.45625 26.940624 231.47188 26.940624Q232.8 26.940624 233.81563 27.628124Q234.83125 28.315624 235.34688 29.565624Q235.87813 30.8 235.87813 32.284374Q235.87813 33.878124 235.3 35.159374Q234.7375 36.425 233.64375 37.1125Q232.55 37.784374 231.34688 37.784374Q230.47188 37.784374 229.76875 37.409374Q229.08125 37.034374 228.62813 36.471874L228.62813 41.51875L226.8625 41.51875ZM228.45625 32.425Q228.45625 34.425 229.26875 35.378124Q230.08125 36.33125 231.2375 36.33125Q232.40938 36.33125 233.2375 35.346874Q234.08125 34.3625 234.08125 32.26875Q234.08125 30.3 233.25313 29.315624Q232.44063 28.315624 231.31563 28.315624Q230.19063 28.315624 229.31563 29.378124Q228.45625 30.425 228.45625 32.425ZM238.33125 37.55L238.33125 35.55L240.33125 35.55L240.33125 37.55Q240.33125 38.659374 239.94063 39.33125Q239.55 40.01875 238.70625 40.378124L238.20625 39.628124Q238.76875 39.39375 239.03438 38.909374Q239.3 38.440624 239.33125 37.55L238.33125 37.55ZM251.4875 37.55L249.8625 37.55L249.8625 23.2375L251.6125 23.2375L251.6125 28.346874Q252.7375 26.940624 254.45625 26.940624Q255.40938 26.940624 256.26874 27.33125Q257.1281 27.721874 257.675 28.425Q258.22186 29.1125 258.53436 30.096874Q258.84686 31.08125 258.84686 32.20625Q258.84686 34.878124 257.53436 36.33125Q256.22186 37.784374 254.37813 37.784374Q252.53438 37.784374 251.4875 36.253124L251.4875 37.55ZM251.47188 32.284374Q251.47188 34.14375 251.97188 34.9875Q252.81563 36.33125 254.22188 36.33125Q255.37813 36.33125 256.20624 35.33125Q257.05 34.33125 257.05 32.346874Q257.05 30.315624 256.2375 29.3625Q255.44063 28.39375 254.3 28.39375Q253.14375 28.39375 252.3 29.39375Q251.47188 30.39375 251.47188 32.284374ZM260.8781 25.253124L260.8781 23.2375L262.64374 23.2375L262.64374 25.253124L260.8781 25.253124ZM260.8781 37.55L260.8781 27.175L262.64374 27.175L262.64374 37.55L260.8781 37.55ZM264.8625 37.55L264.8625 27.175L266.45624 27.175L266.45624 28.659374Q267.59686 26.940624 269.7531 26.940624Q270.6906 26.940624 271.47186 27.284374Q272.26874 27.6125 272.65936 28.159374Q273.05 28.70625 273.20624 29.45625Q273.3 29.95625 273.3 31.175L273.3 37.55L271.53436 37.55L271.53436 31.2375Q271.53436 30.159374 271.33124 29.628124Q271.1281 29.096874 270.59686 28.784374Q270.08124 28.471874 269.3781 28.471874Q268.2531 28.471874 267.4406 29.190624Q266.6281 29.89375 266.6281 31.878124L266.6281 37.55L264.8625 37.55ZM281.59686 37.55L281.59686 36.2375Q280.6125 37.784374 278.6906 37.784374Q277.45624 37.784374 276.40936 37.096874Q275.3781 36.409374 274.8 35.190624Q274.2375 33.971874 274.2375 32.378124Q274.2375 30.815624 274.7531 29.55Q275.26874 28.284374 276.3 27.6125Q277.34686 26.940624 278.6125 26.940624Q279.55 26.940624 280.28436 27.346874Q281.01874 27.7375 281.4875 28.3625L281.4875 23.2375L283.22186 23.2375L283.22186 37.55L281.59686 37.55ZM276.03436 32.378124Q276.03436 34.3625 276.8781 35.346874Q277.72186 36.33125 278.8625 36.33125Q280.01874 36.33125 280.8156 35.39375Q281.6281 34.45625 281.6281 32.51875Q281.6281 30.39375 280.8 29.39375Q279.9875 28.39375 278.78436 28.39375Q277.6125 28.39375 276.8156 29.3625Q276.03436 30.315624 276.03436 32.378124ZM291.8625 37.55L291.8625 27.175L293.4406 27.175L293.4406 28.628124Q293.925 27.878124 294.7375 27.409374Q295.55 26.940624 296.58124 26.940624Q297.7375 26.940624 298.47186 27.425Q299.20624 27.89375 299.51874 28.753124Q300.7531 26.940624 302.72186 26.940624Q304.26874 26.940624 305.09686 27.8Q305.925 28.659374 305.925 30.425L305.925 37.55L304.175 37.55L304.175 31.01875Q304.175 29.95625 304.0031 29.503124Q303.83124 29.034374 303.3781 28.753124Q302.9406 28.471874 302.33124 28.471874Q301.2375 28.471874 300.5031 29.20625Q299.78436 29.925 299.78436 31.51875L299.78436 37.55L298.03436 37.55L298.03436 30.815624Q298.03436 29.64375 297.59686 29.065624Q297.175 28.471874 296.1906 28.471874Q295.45624 28.471874 294.8156 28.8625Q294.1906 29.253124 293.90936 30.003124Q293.6281 30.753124 293.6281 32.175L293.6281 37.55L291.8625 37.55ZM307.22186 32.3625Q307.22186 29.4875 308.8156 28.096874Q310.15936 26.940624 312.08124 26.940624Q314.22186 26.940624 315.5656 28.346874Q316.925 29.753124 316.925 32.221874Q316.925 34.221874 316.33124 35.378124Q315.7375 36.51875 314.58124 37.159374Q313.4406 37.784374 312.08124 37.784374Q309.89374 37.784374 308.55 36.39375Q307.22186 34.9875 307.22186 32.3625ZM309.01874 32.3625Q309.01874 34.3625 309.8781 35.346874Q310.7531 36.33125 312.08124 36.33125Q313.39374 36.33125 314.2531 35.346874Q315.1281 34.346874 315.1281 32.3Q315.1281 30.378124 314.2531 29.39375Q313.3781 28.39375 312.08124 28.39375Q310.7531 28.39375 309.8781 29.39375Q309.01874 30.378124 309.01874 32.3625ZM325.65936 37.55L325.65936 36.01875Q324.45624 37.784374 322.3781 37.784374Q321.45624 37.784374 320.65936 37.440624Q319.8625 37.08125 319.47186 36.55Q319.09686 36.01875 318.9406 35.2375Q318.83124 34.721874 318.83124 33.596874L318.83124 27.175L320.58124 27.175L320.58124 32.925Q320.58124 34.3 320.6906 34.784374Q320.8625 35.471874 321.39374 35.878124Q321.9406 36.26875 322.72186 36.26875Q323.51874 36.26875 324.20624 35.8625Q324.90936 35.45625 325.1906 34.76875Q325.4875 34.065624 325.4875 32.7375L325.4875 27.175L327.2375 27.175L327.2375 37.55L325.65936 37.55ZM328.8625 37.55L328.8625 27.175L330.45624 27.175L330.45624 28.659374Q331.59686 26.940624 333.7531 26.940624Q334.6906 26.940624 335.47186 27.284374Q336.26874 27.6125 336.65936 28.159374Q337.05 28.70625 337.20624 29.45625Q337.3 29.95625 337.3 31.175L337.3 37.55L335.53436 37.55L335.53436 31.2375Q335.53436 30.159374 335.33124 29.628124Q335.1281 29.096874 334.59686 28.784374Q334.08124 28.471874 333.3781 28.471874Q332.2531 28.471874 331.4406 29.190624Q330.6281 29.89375 330.6281 31.878124L330.6281 37.55L328.8625 37.55ZM342.70624 35.971874L342.95624 37.534374Q342.22186 37.690624 341.6281 37.690624Q340.675 37.690624 340.14374 37.39375Q339.6281 37.08125 339.40936 36.596874Q339.1906 36.096874 339.1906 34.51875L339.1906 28.55L337.90936 28.55L337.90936 27.175L339.1906 27.175L339.1906 24.6125L340.9406 23.55L340.9406 27.175L342.70624 27.175L342.70624 28.55L340.9406 28.55L340.9406 34.6125Q340.9406 35.3625 341.03436 35.58125Q341.1281 35.784374 341.33124 35.925Q341.55 36.05 341.9406 36.05Q342.22186 36.05 342.70624 35.971874ZM346.01874 41.753124L344.76874 41.753124Q347.675 37.065624 347.675 32.378124Q347.675 30.534374 347.26874 28.7375Q346.925 27.26875 346.33124 25.925Q345.95624 25.034374 344.76874 22.9875L346.01874 22.9875Q347.8625 25.440624 348.7375 27.909374Q349.4875 30.034374 349.4875 32.3625Q349.4875 35.003124 348.47186 37.471874Q347.47186 39.925 346.01874 41.753124ZM357.1906 33.253124L357.1906 31.4875L362.58124 31.4875L362.58124 33.253124L357.1906 33.253124ZM371.01874 37.55L371.01874 23.2375L372.90936 23.2375L372.90936 35.8625L379.95624 35.8625L379.95624 37.55L371.01874 37.55ZM381.22186 32.3625Q381.22186 29.4875 382.8156 28.096874Q384.15936 26.940624 386.08124 26.940624Q388.22186 26.940624 389.5656 28.346874Q390.925 29.753124 390.925 32.221874Q390.925 34.221874 390.33124 35.378124Q389.7375 36.51875 388.58124 37.159374Q387.4406 37.784374 386.08124 37.784374Q383.89374 37.784374 382.55 36.39375Q381.22186 34.9875 381.22186 32.3625ZM383.01874 32.3625Q383.01874 34.3625 383.8781 35.346874Q384.7531 36.33125 386.08124 36.33125Q387.39374 36.33125 388.2531 35.346874Q389.1281 34.346874 389.1281 32.3Q389.1281 30.378124 388.2531 29.39375Q387.3781 28.39375 386.08124 28.39375Q384.7531 28.39375 383.8781 29.39375Q383.01874 30.378124 383.01874 32.3625ZM394.78436 37.55L391.6125 27.175L393.425 27.175L395.08124 33.159374L395.6906 35.39375Q395.7375 35.221874 396.22186 33.253124L397.8781 27.175L399.6906 27.175L401.2375 33.190624L401.7531 35.175L402.34686 33.175L404.1281 27.175L405.83124 27.175L402.59686 37.55L400.76874 37.55L399.1125 31.33125L398.72186 29.565624L396.6125 37.55L394.78436 37.55ZM414.97186 34.20625L416.78436 34.440624Q416.3625 36.01875 415.1906 36.909374Q414.03436 37.784374 412.22186 37.784374Q409.95624 37.784374 408.6125 36.39375Q407.28436 34.9875 407.28436 32.45625Q407.28436 29.83125 408.6281 28.39375Q409.97186 26.940624 412.1281 26.940624Q414.20624 26.940624 415.51874 28.3625Q416.84686 29.76875 416.84686 32.346874Q416.84686 32.503124 416.83124 32.815624L409.09686 32.815624Q409.1906 34.51875 410.0656 35.425Q410.9406 36.33125 412.2375 36.33125Q413.20624 36.33125 413.8781 35.83125Q414.5656 35.315624 414.97186 34.20625ZM409.1906 31.3625L414.9875 31.3625Q414.8781 30.065624 414.33124 29.409374Q413.4875 28.39375 412.14374 28.39375Q410.9406 28.39375 410.1125 29.20625Q409.28436 30.003124 409.1906 31.3625ZM418.84686 37.55L418.84686 27.175L420.425 27.175L420.425 28.753124Q421.03436 27.64375 421.55 27.3Q422.0656 26.940624 422.675 26.940624Q423.5656 26.940624 424.4875 27.503124L423.8781 29.14375Q423.2375 28.753124 422.59686 28.753124Q422.01874 28.753124 421.55 29.1125Q421.09686 29.45625 420.89374 30.065624Q420.6125 31.003124 420.6125 32.1125L420.6125 37.55L418.84686 37.55ZM431.8781 25.253124L431.8781 23.2375L433.64374 23.2375L433.64374 25.253124L431.8781 25.253124ZM431.8781 37.55L431.8781 27.175L433.64374 27.175L433.64374 37.55L431.8781 37.55ZM435.15936 34.45625L436.90936 34.175Q437.05 35.221874 437.72186 35.784374Q438.39374 36.33125 439.59686 36.33125Q440.8 36.33125 441.3781 35.846874Q441.97186 35.346874 441.97186 34.690624Q441.97186 34.096874 441.45624 33.753124Q441.09686 33.51875 439.65936 33.159374Q437.72186 32.659374 436.97186 32.315624Q436.2375 31.95625 435.84686 31.33125Q435.45624 30.690624 435.45624 29.925Q435.45624 29.2375 435.76874 28.64375Q436.09686 28.05 436.64374 27.659374Q437.05 27.3625 437.7531 27.159374Q438.47186 26.940624 439.28436 26.940624Q440.5031 26.940624 441.425 27.3Q442.34686 27.64375 442.78436 28.253124Q443.22186 28.846874 443.39374 29.846874L441.675 30.08125Q441.55 29.284374 440.9875 28.846874Q440.425 28.39375 439.40936 28.39375Q438.1906 28.39375 437.675 28.8Q437.15936 29.190624 437.15936 29.721874Q437.15936 30.065624 437.3781 30.346874Q437.58124 30.628124 438.05 30.815624Q438.3156 30.909374 439.59686 31.253124Q441.47186 31.753124 442.20624 32.08125Q442.9406 32.39375 443.3625 33.003124Q443.78436 33.596874 443.78436 34.503124Q443.78436 35.378124 443.26874 36.159374Q442.7531 36.940624 441.78436 37.3625Q440.8156 37.784374 439.59686 37.784374Q437.58124 37.784374 436.51874 36.940624Q435.45624 36.096874 435.15936 34.45625ZM453.4875 37.55L451.8625 37.55L451.8625 23.2375L453.6125 23.2375L453.6125 28.346874Q454.7375 26.940624 456.45624 26.940624Q457.40936 26.940624 458.26874 27.33125Q459.1281 27.721874 459.675 28.425Q460.22186 29.1125 460.53436 30.096874Q460.84686 31.08125 460.84686 32.20625Q460.84686 34.878124 459.53436 36.33125Q458.22186 37.784374 456.3781 37.784374Q454.53436 37.784374 453.4875 36.253124L453.4875 37.55ZM453.47186 32.284374Q453.47186 34.14375 453.97186 34.9875Q454.8156 36.33125 456.22186 36.33125Q457.3781 36.33125 458.20624 35.33125Q459.05 34.33125 459.05 32.346874Q459.05 30.315624 458.2375 29.3625Q457.4406 28.39375 456.3 28.39375Q455.14374 28.39375 454.3 29.39375Q453.47186 30.39375 453.47186 32.284374ZM469.97186 34.20625L471.78436 34.440624Q471.3625 36.01875 470.1906 36.909374Q469.03436 37.784374 467.22186 37.784374Q464.95624 37.784374 463.6125 36.39375Q462.28436 34.9875 462.28436 32.45625Q462.28436 29.83125 463.6281 28.39375Q464.97186 26.940624 467.1281 26.940624Q469.20624 26.940624 470.51874 28.3625Q471.84686 29.76875 471.84686 32.346874Q471.84686 32.503124 471.83124 32.815624L464.09686 32.815624Q464.1906 34.51875 465.0656 35.425Q465.9406 36.33125 467.2375 36.33125Q468.20624 36.33125 468.8781 35.83125Q469.5656 35.315624 469.97186 34.20625ZM464.1906 31.3625L469.9875 31.3625Q469.8781 30.065624 469.33124 29.409374Q468.4875 28.39375 467.14374 28.39375Q465.9406 28.39375 465.1125 29.20625Q464.28436 30.003124 464.1906 31.3625ZM477.70624 35.971874L477.95624 37.534374Q477.22186 37.690624 476.6281 37.690624Q475.675 37.690624 475.14374 37.39375Q474.6281 37.08125 474.40936 36.596874Q474.1906 36.096874 474.1906 34.51875L474.1906 28.55L472.90936 28.55L472.90936 27.175L474.1906 27.175L474.1906 24.6125L475.9406 23.55L475.9406 27.175L477.70624 27.175L477.70624 28.55L475.9406 28.55L475.9406 34.6125Q475.9406 35.3625 476.03436 35.58125Q476.1281 35.784374 476.33124 35.925Q476.55 36.05 476.9406 36.05Q477.22186 36.05 477.70624 35.971874ZM483.70624 35.971874L483.95624 37.534374Q483.22186 37.690624 482.6281 37.690624Q481.675 37.690624 481.14374 37.39375Q480.6281 37.08125 480.40936 36.596874Q480.1906 36.096874 480.1906 34.51875L480.1906 28.55L478.90936 28.55L478.90936 27.175L480.1906 27.175L480.1906 24.6125L481.9406 23.55L481.9406 27.175L483.70624 27.175L483.70624 28.55L481.9406 28.55L481.9406 34.6125Q481.9406 35.3625 482.03436 35.58125Q482.1281 35.784374 482.33124 35.925Q482.55 36.05 482.9406 36.05Q483.22186 36.05 483.70624 35.971874ZM492.97186 34.20625L494.78436 34.440624Q494.3625 36.01875 493.1906 36.909374Q492.03436 37.784374 490.22186 37.784374Q487.95624 37.784374 486.6125 36.39375Q485.28436 34.9875 485.28436 32.45625Q485.28436 29.83125 486.6281 28.39375Q487.97186 26.940624 490.1281 26.940624Q492.20624 26.940624 493.51874 28.3625Q494.84686 29.76875 494.84686 32.346874Q494.84686 32.503124 494.83124 32.815624L487.09686 32.815624Q487.1906 34.51875 488.0656 35.425Q488.9406 36.33125 490.2375 36.33125Q491.20624 36.33125 491.8781 35.83125Q492.5656 35.315624 492.97186 34.20625ZM487.1906 31.3625L492.9875 31.3625Q492.8781 30.065624 492.33124 29.409374Q491.4875 28.39375 490.14374 28.39375Q488.9406 28.39375 488.1125 29.20625Q487.28436 30.003124 487.1906 31.3625ZM496.84686 37.55L496.84686 27.175L498.425 27.175L498.425 28.753124Q499.03436 27.64375 499.55 27.3Q500.0656 26.940624 500.675 26.940624Q501.5656 26.940624 502.4875 27.503124L501.8781 29.14375Q501.2375 28.753124 500.59686 28.753124Q500.01874 28.753124 499.55 29.1125Q499.09686 29.45625 498.89374 30.065624Q498.6125 31.003124 498.6125 32.1125L498.6125 37.55L496.84686 37.55Z" fill-rule="nonzero"/></svg>