<svg xmlns="http://www.w3.org/2000/svg" viewBox="0 0 1600 1600">
  <defs>
    <style>
      .a {
        fill: #fff;
      }

      .b {
        fill: #7c7c7c;
      }
    </style>
  </defs>
  <title>Logo Square Color</title>
  <rect x="635.29" y="651.72" width="960" height="320"/>
  <g>
    <path class="a" d="M822.86,721C858.29,721,881,744.43,881,776s-22.68,54.8-58.11,54.8H781.57v71.62H754V721Zm-41.29,24.72v60.41h39.76c19.37,0,32.12-11,32.12-30.08,0-19.37-12.74-30.33-32.12-30.33Z"/>
    <path class="a" d="M984.71,721c34.41,0,56.33,22.17,56.33,53,0,26-15.8,42.57-36.19,48.17l41.8,80.29h-32.12L976.3,826H941.89v76.46H914.37V721Zm-42.82,24.72v56.84h40.78c18.35,0,30.84-10.45,30.84-28.29s-12.49-28.55-30.84-28.55Z"/>
    <path class="a" d="M1197.29,745.71h-88.44v53h75.45v24.72h-75.45v54.29h88.44v24.72h-116V721h116Z"/>
    <path class="a" d="M1342.06,740.1l-17.33,17.33c-11.21-10.71-24.47-14-40-14-21.41,0-32.88,11.72-32.88,28.29,0,6.63,1.78,12.74,6.63,16.82,4.59,4.08,9.94,6.63,19.88,8.16L1300,800c16.57,2.55,25.74,6.37,33.64,13.51,9.69,8.92,14.78,21.41,14.78,37.21,0,33.39-27,53.27-65.25,53.27-27.27,0-46.64-6.37-64.23-24l18.1-18.1c13.25,13.25,28.29,17.59,46.64,17.59,24,0,37.47-10.2,37.47-28,0-8.16-2-14.53-7.14-18.86-4.59-4.08-10.71-6.37-19.88-7.65l-21.41-3.06c-14.78-2.29-26.25-6.88-34.15-14.53-8.92-8.16-13.51-19.88-13.51-34.92,0-31.61,22.94-53,60.66-53C1309.95,719.45,1326.52,725.57,1342.06,740.1Z"/>
    <path class="a" d="M1491.18,740.1l-17.33,17.33c-11.21-10.71-24.47-14-40-14-21.41,0-32.88,11.72-32.88,28.29,0,6.63,1.78,12.74,6.63,16.82,4.59,4.08,9.94,6.63,19.88,8.16l21.67,3.31c16.57,2.55,25.74,6.37,33.64,13.51,9.69,8.92,14.78,21.41,14.78,37.21,0,33.39-27,53.27-65.25,53.27-27.27,0-46.64-6.37-64.23-24l18.1-18.1c13.25,13.25,28.29,17.59,46.64,17.59,24,0,37.47-10.2,37.47-28,0-8.16-2-14.53-7.14-18.86-4.59-4.08-10.71-6.37-19.88-7.65l-21.41-3.06c-14.78-2.29-26.25-6.88-34.15-14.53-8.92-8.16-13.51-19.88-13.51-34.92,0-31.61,22.94-53,60.66-53C1459.06,719.45,1475.63,725.57,1491.18,740.1Z"/>
  </g>
  <rect y="1078.14" width="1600" height="320"/>
  <g>
    <path class="a" d="M188.08,1174.11H102.29v53.65h73.18v24H102.29v74.42H75.59v-176H188.08Z"/>
    <path class="a" d="M317.64,1166.44c17.31,17.31,17.8,34.86,17.8,71.7s-.49,54.39-17.8,71.7c-11.37,11.37-26.21,17.8-45.49,17.8s-34.12-6.43-45.49-17.8c-17.31-17.31-17.8-34.86-17.8-71.7s.49-54.39,17.8-71.7c11.37-11.37,26.21-17.8,45.49-17.8S306.26,1155.07,317.64,1166.44Zm-71.7,16.81c-8.65,9.39-10.38,20-10.38,54.89s1.73,45.24,10.38,54.64a37,37,0,0,0,52.41,0c8.9-9.15,10.38-19.78,10.38-54.64s-1.48-45.74-10.38-54.89c-6.68-6.92-15.58-10.63-26.21-10.63S252.61,1176.33,245.94,1183.26Z"/>
    <path class="a" d="M498.62,1266.82c0,36.34-27.44,60.82-63.29,60.82s-63-24.48-63-60.82v-116.7H399v115.46c0,23.49,14.34,38.07,36.34,38.07s36.59-14.59,36.59-38.07V1150.13h26.7Z"/>
    <path class="a" d="M674.4,1326.16H649.93l-81.34-123.87v123.87h-26.7v-176h24.48L647.7,1274V1150.13h26.7Z"/>
    <path class="a" d="M782.2,1150.13c22,0,37.58,6.92,49.94,22.25,12.86,15.82,13.35,37.58,13.35,65.76s-.49,49.94-13.35,65.76c-12.36,15.33-27.94,22.25-49.94,22.25H720.39v-176Zm-35.11,24v128.07h32.14c12.61,0,22.75-3.21,30.16-11.87,8.65-9.64,9.39-26,9.39-52.17s-.74-42.52-9.39-52.17c-7.42-8.65-17.55-11.87-30.16-11.87Z"/>
    <path class="a" d="M1012.13,1326.16H983.7l-12.11-35.35H902.11L890,1326.16H861.56l64.53-176H947.6Zm-102.36-58.1h54.14l-27.2-78.13Z"/>
    <path class="a" d="M1129.08,1174.11h-48.46v152.05h-26.7V1174.11h-48.46v-24h123.62Z"/>
    <path class="a" d="M1186.19,1326.16h-26.7v-176h26.7Z"/>
    <path class="a" d="M1334.53,1166.44c17.31,17.31,17.8,34.86,17.8,71.7s-.49,54.39-17.8,71.7c-11.37,11.37-26.21,17.8-45.49,17.8s-34.12-6.43-45.49-17.8c-17.31-17.31-17.8-34.86-17.8-71.7s.49-54.39,17.8-71.7c11.37-11.37,26.21-17.8,45.49-17.8S1323.16,1155.07,1334.53,1166.44Zm-71.7,16.81c-8.65,9.39-10.38,20-10.38,54.89s1.73,45.24,10.38,54.64a37,37,0,0,0,52.41,0c8.9-9.15,10.38-19.78,10.38-54.64s-1.48-45.74-10.38-54.89c-6.68-6.92-15.58-10.63-26.21-10.63S1269.51,1176.33,1262.83,1183.26Z"/>
    <path class="a" d="M1524.41,1326.16h-24.48l-81.34-123.87v123.87h-26.7v-176h24.48L1497.71,1274V1150.13h26.7Z"/>
  </g>
  <rect y="225.3" width="1198.13" height="320"/>
  <g>
    <path class="a" d="M167.51,321.26H81.72v53.65H154.9v24H81.72v74.42H55v-176H167.51Z"/>
    <path class="a" d="M267.89,297.28c33.38,0,54.64,21.51,54.64,51.43,0,25.22-15.33,41.29-35.11,46.73L328,473.31H296.81l-37.09-74.17H226.35v74.17h-26.7v-176Zm-41.54,24V376.4h39.56c17.8,0,29.92-10.14,29.92-27.44s-12.11-27.69-29.92-27.69Z"/>
    <path class="a" d="M474.08,321.26H388.29v51.43h73.18v24H388.29v52.66h85.79v24H361.59v-176H474.08Z"/>
    <path class="a" d="M623.17,321.26H537.38v51.43h73.18v24H537.38v52.66h85.79v24H510.68v-176H623.17Z"/>
    <path class="a" d="M721.57,297.28c22,0,37.58,6.92,49.94,22.25,12.86,15.82,13.35,37.58,13.35,65.76s-.49,49.94-13.35,65.76c-12.36,15.33-27.94,22.25-49.94,22.25H659.76v-176Zm-35.11,24V449.33H718.6c12.61,0,22.75-3.21,30.16-11.87,8.65-9.64,9.39-26,9.39-52.17s-.74-42.52-9.39-52.17c-7.42-8.65-17.55-11.87-30.16-11.87Z"/>
    <path class="a" d="M926.78,313.6c17.31,17.31,17.8,34.86,17.8,71.7s-.49,54.39-17.8,71.7c-11.37,11.37-26.21,17.8-45.49,17.8s-34.12-6.43-45.49-17.8c-17.31-17.31-17.8-34.86-17.8-71.7s.49-54.39,17.8-71.7c11.37-11.37,26.21-17.8,45.49-17.8S915.4,302.23,926.78,313.6Zm-71.7,16.81c-8.65,9.39-10.38,20-10.38,54.89s1.73,45.24,10.38,54.64a37,37,0,0,0,52.41,0c8.9-9.15,10.38-19.78,10.38-54.64s-1.48-45.74-10.38-54.89c-6.68-6.92-15.58-10.63-26.21-10.63S861.75,323.49,855.08,330.41Z"/>
    <path class="a" d="M1139.4,473.31h-26.7V355.63l-40.55,85.79h-19.78l-41.54-85.79V473.31h-26.7v-176h26.7l51.43,109.53,50.44-109.53h26.7Z"/>
  </g>
  <g>
    <path class="b" d="M1381.54,313.6c17.31,17.31,17.8,34.86,17.8,71.7s-.49,54.39-17.8,71.7c-11.37,11.37-26.21,17.8-45.49,17.8s-34.12-6.43-45.49-17.8c-17.31-17.31-17.8-34.86-17.8-71.7s.49-54.39,17.8-71.7c11.37-11.37,26.21-17.8,45.49-17.8S1370.17,302.23,1381.54,313.6Zm-71.7,16.81c-8.65,9.39-10.38,20-10.38,54.89s1.73,45.24,10.38,54.64a37,37,0,0,0,52.41,0c8.9-9.15,10.38-19.78,10.38-54.64s-1.48-45.74-10.38-54.89c-6.68-6.92-15.58-10.63-26.21-10.63S1316.52,323.49,1309.84,330.41Z"/>
    <path class="b" d="M1551.39,321.26H1465.6v53.65h73.18v24H1465.6v74.42h-26.7v-176h112.49Z"/>
  </g>
  <g>
    <path class="b" d="M240.37,746.47H191.91V898.52h-26.7V746.47H116.75v-24H240.37Z"/>
    <path class="b" d="M395.64,898.52h-26.7V821.63H297.49v76.89h-26.7v-176h26.7v75.16h71.45V722.48h26.7Z"/>
    <path class="b" d="M554.12,746.47H468.33v51.43h73.18v24H468.33v52.66h85.79v24H441.63v-176H554.12Z"/>
  </g>
</svg>