<?xml version="1.0" encoding="UTF-8" standalone="no"?>
<!-- Created with Inkscape (http://www.inkscape.org/) -->

<svg
   xmlns:dc="http://purl.org/dc/elements/1.1/"
   xmlns:cc="http://creativecommons.org/ns#"
   xmlns:rdf="http://www.w3.org/1999/02/22-rdf-syntax-ns#"
   xmlns:svg="http://www.w3.org/2000/svg"
   xmlns="http://www.w3.org/2000/svg"
   xmlns:sodipodi="http://sodipodi.sourceforge.net/DTD/sodipodi-0.dtd"
   xmlns:inkscape="http://www.inkscape.org/namespaces/inkscape"
   version="1.1"
   id="svg2"
   xml:space="preserve"
   width="786.19244"
   height="334.21716"
   viewBox="0 0 786.19246 334.21718"
   sodipodi:docname="logo_with_text_on_dark_full.svg"
   inkscape:version="0.92.3 (2405546, 2018-03-11)"><metadata
     id="metadata8"><rdf:RDF><cc:Work
         rdf:about=""><dc:format>image/svg+xml</dc:format><dc:type
           rdf:resource="http://purl.org/dc/dcmitype/StillImage" /><dc:title></dc:title></cc:Work></rdf:RDF></metadata><defs
     id="defs6"><clipPath
       clipPathUnits="userSpaceOnUse"
       id="clipPath20"><path
         d="M 0,821.614 H 1366 V 0 H 0 Z"
         id="path18"
         inkscape:connector-curvature="0" /></clipPath></defs><sodipodi:namedview
     pagecolor="#ffffff"
     bordercolor="#666666"
     borderopacity="1"
     objecttolerance="10"
     gridtolerance="10"
     guidetolerance="10"
     inkscape:pageopacity="0"
     inkscape:pageshadow="2"
     inkscape:window-width="567"
     inkscape:window-height="462"
     id="namedview4"
     showgrid="false"
     fit-margin-top="0"
     fit-margin-left="0"
     fit-margin-right="0"
     fit-margin-bottom="0"
     inkscape:zoom="0.3046635"
     inkscape:cx="541.19762"
     inkscape:cy="67.525134"
     inkscape:window-x="0"
     inkscape:window-y="0"
     inkscape:window-maximized="0"
     inkscape:current-layer="g10" /><g
     id="g10"
     inkscape:groupmode="layer"
     inkscape:label="gvisor_final-logo_20190313"
     transform="matrix(1.3333333,0,0,-1.3333333,-524.53324,714.8519)"><path
       d="M 393.39994,285.47606 H 983.04431 V 536.13894 H 393.39994 Z"
       style="fill:#262262;fill-opacity:1;fill-rule:nonzero;stroke:none;stroke-width:0.36289462"
       id="path12"
       inkscape:connector-curvature="0" /><g
       id="g14"><g
         id="g16"
         clip-path="url(#clipPath20)"><g
           id="g22"
           transform="translate(668.8995,400.2874)"><path
             d="m 0,0 c -0.698,-5.233 -4.362,-8.375 -10.991,-9.421 -9.072,0.349 -13.783,5.408 -14.132,15.178 0.698,8.375 5.408,12.719 14.132,13.033 C -4.362,17.777 -0.698,14.341 0,8.479 Z m 0,26.117 c -2.442,2.826 -6.629,4.414 -12.561,4.763 -8.026,0 -14.219,-2.443 -18.581,-7.327 -4.361,-4.886 -6.542,-11.166 -6.542,-18.842 0,-8.026 2.006,-14.394 6.019,-19.105 4.012,-4.71 10.031,-7.065 18.057,-7.065 5.164,0 9.7,1.569 13.608,4.71 v -2.616 c 0,-3.141 -0.986,-6.02 -2.957,-8.636 -1.972,-2.618 -5.749,-3.926 -11.331,-3.926 -5.479,0.349 -10.137,1.919 -13.975,4.71 l -6.804,-7.85 c 5.582,-5.582 13.433,-8.48 23.553,-8.689 l 3.14,0.314 c 6.629,0.28 12.124,2.879 16.487,7.798 4.361,4.92 6.542,11.044 6.542,18.373 V 29.31 L 0,30.88 Z"
             style="fill:#ffffff;fill-opacity:1;fill-rule:nonzero;stroke:none"
             id="path24"
             inkscape:connector-curvature="0" /></g><g
           id="g26"
           transform="translate(720.3033,399.9339)"><path
             d="m 0,0 -19.986,51.175 h -17.527 l 29.056,-72.28 H 8.891 l 28.984,72.28 H 20.348 Z"
             style="fill:#ffffff;fill-opacity:1;fill-rule:nonzero;stroke:none"
             id="path28"
             inkscape:connector-curvature="0" /></g><path
           d="m 762.522,378.828 h 14.655 v 52.392 h -14.655 z"
           style="fill:#ffffff;fill-opacity:1;fill-rule:nonzero;stroke:none"
           id="path30"
           inkscape:connector-curvature="0" /><g
           id="g32"
           transform="translate(769.7443,451.1087)"><path
             d="m 0,0 c -2.373,0 -4.257,-0.706 -5.652,-2.12 -1.397,-1.413 -2.094,-3.166 -2.094,-5.26 0,-2.094 0.697,-3.839 2.094,-5.233 1.395,-1.397 3.315,-2.094 5.757,-2.094 2.442,0 4.361,0.697 5.757,2.094 1.395,1.394 2.094,3.139 2.094,5.233 0,2.094 -0.699,3.847 -2.094,5.26 C 4.466,-0.706 2.512,0 0,0"
             style="fill:#ffffff;fill-opacity:1;fill-rule:nonzero;stroke:none"
             id="path34"
             inkscape:connector-curvature="0" /></g><g
           id="g36"
           transform="translate(816.9264,406.8294)"><path
             d="m 0,0 c -3.315,2.478 -7.572,3.96 -12.771,4.449 -3.524,0.697 -5.879,1.578 -7.065,2.644 -1.187,1.063 -1.187,2.25 0,3.558 1.186,1.309 3.541,1.963 7.065,1.963 3.56,0 6.525,-1.413 8.898,-4.239 l 8.165,9.211 c -2.374,2.338 -4.92,4.101 -7.642,5.286 -2.721,1.187 -6.542,1.78 -11.462,1.78 -4.257,0 -8.4,-1.422 -12.43,-4.265 -4.03,-2.845 -6.046,-6.971 -6.046,-12.379 0,-5.897 1.771,-9.91 5.313,-12.038 3.541,-2.128 7.44,-3.437 11.697,-3.925 4.712,-0.454 7.476,-1.335 8.297,-2.644 0.819,-1.308 0.645,-2.616 -0.523,-3.924 -1.171,-1.309 -3.761,-1.963 -7.774,-1.963 -4.99,0.453 -8.67,2.092 -11.043,4.92 l -8.113,-9.16 c 2.373,-2.374 5.208,-4.266 8.505,-5.678 3.298,-1.414 7.424,-2.121 12.379,-2.121 5.199,0 9.752,1.361 13.66,4.083 3.908,2.722 5.862,6.559 5.862,11.515 C 4.972,-6.787 3.315,-2.478 0,0"
             style="fill:#ffffff;fill-opacity:1;fill-rule:nonzero;stroke:none"
             id="path38"
             inkscape:connector-curvature="0" /></g><g
           id="g40"
           transform="translate(862.2008,394.9749)"><path
             d="m 0,0 c -2.478,-2.669 -5.705,-4.004 -9.683,-4.004 -3.977,0 -7.205,1.335 -9.682,4.004 -2.478,2.67 -3.717,5.992 -3.717,9.97 0,3.978 1.239,7.31 3.717,9.998 2.477,2.685 5.686,4.029 9.63,4.029 4.012,0 7.257,-1.344 9.735,-4.029 C 2.477,17.28 3.716,13.948 3.716,9.97 3.716,5.992 2.477,2.67 0,0 m -9.63,36.716 c -7.608,0 -13.957,-2.547 -19.052,-7.642 -5.095,-5.095 -7.641,-11.445 -7.641,-19.051 0,-7.572 2.546,-13.914 7.641,-19.025 5.095,-5.112 11.444,-7.669 19.052,-7.669 7.606,0 13.956,2.548 19.051,7.642 5.095,5.094 7.641,11.445 7.641,19.052 0,7.606 -2.546,13.956 -7.641,19.051 -5.095,5.095 -11.445,7.642 -19.051,7.642"
             style="fill:#ffffff;fill-opacity:1;fill-rule:nonzero;stroke:none"
             id="path42"
             inkscape:connector-curvature="0" /></g><g
           id="g44"
           transform="translate(911.9489,431.1673)"><path
             d="m 0,0 c -5.374,0 -9.927,-1.919 -13.66,-5.757 v 5.81 l -14.655,-1.571 v -50.821 h 14.655 v 32.189 c 2.372,4.92 5.338,7.502 8.898,7.746 3.175,-0.105 5.617,-0.925 7.327,-2.46 L 4.868,-0.419 C 3.332,-0.14 1.709,0 0,0"
             style="fill:#ffffff;fill-opacity:1;fill-rule:nonzero;stroke:none"
             id="path46"
             inkscape:connector-curvature="0" /></g><g
           id="g48"
           transform="translate(548.2423,363.2484)"><path
             d="m 0,0 c 16.655,21.121 22.696,44.434 18.328,70.995 3.068,0 5.743,-0.023 8.417,0.007 2.222,0.025 4.443,0.102 6.664,0.175 4.79,0.154 4.818,0.165 5.88,-4.582 3.145,-14.05 2.18,-28.089 -0.179,-42.118 -0.25,-1.492 -0.7,-2.956 -0.864,-4.454 C 37.05,9.081 30.089,3.645 20.165,1.097 13.787,-0.54 7.323,-0.829 0,0"
             style="fill:#fbb03b;fill-opacity:1;fill-rule:nonzero;stroke:none"
             id="path50"
             inkscape:connector-curvature="0" /></g><g
           id="g52"
           transform="translate(544.6891,396.1771)"><path
             d="M 0,0 C 0,2.593 -3.457,4.321 -3.457,4.321 -0.864,5.186 0,8.644 0,8.644 0,8.644 0.865,5.186 3.458,4.321 3.458,4.321 0,2.593 0,0 m -17.099,6.453 c 0,6.742 -8.989,11.237 -8.989,11.237 6.742,2.247 8.989,11.237 8.989,11.237 0,0 2.247,-8.99 8.99,-11.237 0,0 -8.99,-4.495 -8.99,-11.237"
             style="fill:#fbb03b;fill-opacity:1;fill-rule:nonzero;stroke:none"
             id="path54"
             inkscape:connector-curvature="0" /></g><g
           id="g56"
           transform="translate(485.0861,429.7923)"><path
             d="m 0,0 c 0,0 -2.214,3.359 -9.736,2.059 0,0 5.987,28.738 36.298,38.806 C 26.562,40.865 -2.82,24.275 0,0 M 0.583,-33.208 0.58,-33.211 c -1.297,-2.026 -2.821,-3.578 -4.53,-4.615 -1.515,-0.934 -3.178,-1.425 -4.743,-1.425 -0.528,0 -1.044,0.056 -1.539,0.169 l -2.209,0.507 2.184,0.603 c 1.63,0.451 3.063,1.347 4.259,2.664 1.014,1.108 1.856,2.485 2.577,4.214 1.175,2.819 1.784,6.161 1.81,9.935 -0.049,3.719 -0.683,7.054 -1.886,9.902 -0.703,1.655 -1.585,3.057 -2.621,4.163 -1.227,1.311 -2.671,2.178 -4.294,2.576 l -2.187,0.538 2.179,0.572 c 0.48,0.127 0.998,0.196 1.539,0.209 l 0.031,10e-4 1.688,-0.154 c 1.045,-0.206 2.104,-0.615 3.061,-1.184 1.755,-1.032 3.302,-2.568 4.598,-4.565 2.155,-3.374 3.315,-7.537 3.357,-12.043 -0.028,-4.548 -1.159,-8.717 -3.271,-12.064 m 101.949,51.176 c 0,0 -0.075,0.051 -0.226,0.137 -0.541,0.326 -1.113,0.602 -1.715,0.814 -3.044,1.241 -9.881,3.187 -21.906,2.623 -0.029,0 -0.056,0 -0.085,-0.001 C 52.916,21.123 30.022,10.923 30.022,10.923 c 0,0 1.439,1.76 3.453,3.691 10e-4,10e-4 10e-4,10e-4 0.002,0.002 1.052,0.973 2.355,2.076 3.912,3.226 0.046,0.032 0.088,0.063 0.124,0.094 8.708,6.383 25.34,14.162 51.625,9.54 -0.989,1.124 -2.002,2.193 -3.036,3.215 -1.112,0.884 -2.231,1.694 -3.354,2.456 0.02,-0.012 0.039,-0.023 0.059,-0.036 0,0 -17.016,19.415 -48.683,15.891 C 30.19,48.622 25.983,47.868 21.66,46.564 21.653,46.563 21.646,46.562 21.64,46.56 L 21.638,46.558 C 11.48,43.492 0.683,37.387 -8.719,25.911 c -0.571,-0.718 -1.122,-1.431 -1.657,-2.14 -0.065,-0.1 -0.141,-0.202 -0.226,-0.307 -1.182,-1.582 -2.271,-3.141 -3.279,-4.674 -3.266,-5.427 -5.631,-11.666 -6.311,-13.546 -10.58,-32.401 2.586,-57.549 5.144,-61.967 8.93,-15.157 24.565,-32.355 50.771,-37.327 0.197,-0.046 0.382,-0.101 0.582,-0.146 1.723,-0.367 4.864,-0.929 8.908,-1.197 1.524,-0.069 3.088,-0.094 4.699,-0.066 1.548,-0.01 2.999,0.017 4.335,0.064 0.396,0.027 0.74,0.041 1.044,0.044 5.102,0.237 8.272,0.774 8.272,0.774 -26.543,1.3 -39.847,13.41 -45.691,21.142 -1.325,1.648 -2.46,3.421 -3.377,5.316 -0.361,0.711 -0.523,1.115 -0.523,1.115 8.459,-7.18 20.294,-13.361 20.294,-13.361 10.611,-4.993 21.737,-7.452 33.524,-5.838 0,0 24.645,2.264 34.464,25.09 -0.423,0.322 -0.366,0.278 -0.79,0.6 -0.652,-0.526 -1.294,-1.022 -1.926,-1.496 -0.991,-0.65 -1.964,-1.357 -2.937,-2.07 -5.265,-3.485 -9.561,-5.127 -12.12,-5.879 -19.359,-4.887 -37.273,-1.252 -52.93,12.455 -7.253,6.349 -11.754,14.353 -11.944,24.291 -0.124,6.466 -0.19,12.935 -0.136,19.4 0.085,10.181 7.246,17.921 17.394,19.284 20.561,2.759 41.234,3.71 61.947,4.193 3.174,0.074 5.981,0.037 7.458,-3.356 0.025,-0.058 0.363,0.02 0.552,0.035 1.4,4.462 -0.617,9.27 -4.29,11.624"
             style="fill:#ffffff;fill-opacity:1;fill-rule:nonzero;stroke:none"
             id="path58"
             inkscape:connector-curvature="0" /></g></g></g></g></svg>