<?xml version="1.0" encoding="UTF-8" standalone="no"?>
<!-- Created with Inkscape (http://www.inkscape.org/) -->

<svg
   xmlns:dc="http://purl.org/dc/elements/1.1/"
   xmlns:cc="http://creativecommons.org/ns#"
   xmlns:rdf="http://www.w3.org/1999/02/22-rdf-syntax-ns#"
   xmlns:svg="http://www.w3.org/2000/svg"
   xmlns="http://www.w3.org/2000/svg"
   xmlns:sodipodi="http://sodipodi.sourceforge.net/DTD/sodipodi-0.dtd"
   xmlns:inkscape="http://www.inkscape.org/namespaces/inkscape"
   version="1.1"
   id="svg2"
   xml:space="preserve"
   width="607.64587"
   height="207.92123"
   viewBox="0 0 607.64589 207.92124"
   sodipodi:docname="logo_with_text_on_white_bordered.svg"
   inkscape:version="0.92.3 (2405546, 2018-03-11)"><metadata
     id="metadata8"><rdf:RDF><cc:Work
         rdf:about=""><dc:format>image/svg+xml</dc:format><dc:type
           rdf:resource="http://purl.org/dc/dcmitype/StillImage" /><dc:title></dc:title></cc:Work></rdf:RDF></metadata><defs
     id="defs6"><clipPath
       clipPathUnits="userSpaceOnUse"
       id="clipPath18"><path
         d="M 0,821.614 H 1366 V 0 H 0 Z"
         id="path16"
         inkscape:connector-curvature="0" /></clipPath></defs><sodipodi:namedview
     pagecolor="#ffffff"
     bordercolor="#666666"
     borderopacity="1"
     objecttolerance="10"
     gridtolerance="10"
     guidetolerance="10"
     inkscape:pageopacity="0"
     inkscape:pageshadow="2"
     inkscape:window-width="640"
     inkscape:window-height="480"
     id="namedview4"
     showgrid="false"
     fit-margin-top="0"
     fit-margin-left="0"
     fit-margin-right="0"
     fit-margin-bottom="0"
     inkscape:zoom="0.21542963"
     inkscape:cx="298.55736"
     inkscape:cy="108.65533"
     inkscape:window-x="0"
     inkscape:window-y="0"
     inkscape:window-maximized="0"
     inkscape:current-layer="g10" /><g
     id="g10"
     inkscape:groupmode="layer"
     inkscape:label="gvisor_final-logo_20190313"
     transform="matrix(1.3333333,0,0,-1.3333333,-612.10927,647.00852)"><g
       id="g12"><g
         id="g14"
         clip-path="url(#clipPath18)"><g
           id="g20"
           transform="translate(670.7226,400.7367)"><path
             d="m 0,0 c -0.687,-5.153 -4.294,-8.246 -10.821,-9.275 -8.933,0.342 -13.571,5.324 -13.914,14.943 0.687,8.245 5.325,12.522 13.914,12.832 C -4.294,17.503 -0.687,14.12 0,8.348 Z m 0,25.715 c -2.404,2.782 -6.527,4.345 -12.367,4.688 -7.902,0 -14,-2.404 -18.294,-7.214 -4.295,-4.81 -6.442,-10.994 -6.442,-18.55 0,-7.903 1.976,-14.172 5.927,-18.811 3.949,-4.638 9.876,-6.956 17.778,-6.956 5.085,0 9.55,1.545 13.398,4.638 v -2.577 c 0,-3.092 -0.971,-5.926 -2.911,-8.502 -1.942,-2.577 -5.66,-3.866 -11.156,-3.866 -5.395,0.344 -9.981,1.89 -13.76,4.638 l -6.699,-7.729 c 5.496,-5.496 13.226,-8.349 23.19,-8.555 l 3.091,0.309 c 6.527,0.275 11.938,2.834 16.233,7.678 4.294,4.844 6.441,10.873 6.441,18.088 V 28.857 L 0,30.403 Z"
             style="fill:#262262;fill-opacity:1;fill-rule:nonzero;stroke:none"
             id="path22"
             inkscape:connector-curvature="0" /></g><g
           id="g24"
           transform="translate(721.3339,400.388)"><path
             d="M 0,0 -19.678,50.387 H -36.935 L -8.326,-20.779 H 8.754 L 37.291,50.387 H 20.034 Z"
             style="fill:#262262;fill-opacity:1;fill-rule:nonzero;stroke:none"
             id="path26"
             inkscape:connector-curvature="0" /></g><path
           d="m 762.901,379.609 h 14.429 v 51.583 h -14.429 z"
           style="fill:#262262;fill-opacity:1;fill-rule:nonzero;stroke:none"
           id="path28"
           inkscape:connector-curvature="0" /><g
           id="g30"
           transform="translate(770.0126,450.7747)"><path
             d="m 0,0 c -2.337,0 -4.191,-0.696 -5.565,-2.088 -1.375,-1.391 -2.062,-3.117 -2.062,-5.179 0,-2.061 0.687,-3.779 2.062,-5.153 1.374,-1.374 3.263,-2.061 5.669,-2.061 2.404,0 4.293,0.687 5.667,2.061 1.375,1.374 2.062,3.092 2.062,5.153 0,2.062 -0.687,3.788 -2.062,5.179 C 4.397,-0.696 2.474,0 0,0"
             style="fill:#262262;fill-opacity:1;fill-rule:nonzero;stroke:none"
             id="path32"
             inkscape:connector-curvature="0" /></g><g
           id="g34"
           transform="translate(816.4667,407.1781)"><path
             d="m 0,0 c -3.264,2.438 -7.455,3.898 -12.573,4.381 -3.471,0.686 -5.789,1.554 -6.957,2.601 -1.168,1.048 -1.168,2.216 0,3.504 1.168,1.289 3.486,1.933 6.957,1.933 3.504,0 6.424,-1.391 8.76,-4.174 l 8.039,9.069 c -2.336,2.302 -4.844,4.038 -7.524,5.206 -2.68,1.167 -6.441,1.751 -11.285,1.751 -4.192,0 -8.271,-1.4 -12.239,-4.199 -3.968,-2.801 -5.951,-6.863 -5.951,-12.187 0,-5.807 1.742,-9.758 5.229,-11.854 3.486,-2.094 7.326,-3.383 11.518,-3.863 4.638,-0.447 7.36,-1.315 8.168,-2.604 0.807,-1.288 0.635,-2.576 -0.515,-3.864 -1.152,-1.289 -3.703,-1.932 -7.653,-1.932 -4.913,0.446 -8.537,2.06 -10.873,4.843 l -7.988,-9.017 c 2.336,-2.337 5.127,-4.201 8.374,-5.592 3.247,-1.392 7.309,-2.087 12.187,-2.087 5.119,0 9.602,1.339 13.45,4.02 3.848,2.679 5.772,6.458 5.772,11.336 C 4.896,-6.683 3.264,-2.44 0,0"
             style="fill:#262262;fill-opacity:1;fill-rule:nonzero;stroke:none"
             id="path36"
             inkscape:connector-curvature="0" /></g><g
           id="g38"
           transform="translate(861.0429,395.5062)"><path
             d="m 0,0 c -2.439,-2.628 -5.616,-3.942 -9.533,-3.942 -3.916,0 -7.095,1.314 -9.533,3.942 -2.44,2.628 -3.66,5.9 -3.66,9.816 0,3.917 1.22,7.198 3.66,9.843 2.438,2.646 5.598,3.968 9.482,3.968 3.949,0 7.145,-1.322 9.584,-3.968 C 2.439,17.014 3.659,13.733 3.659,9.816 3.659,5.9 2.439,2.628 0,0 m -9.481,36.149 c -7.491,0 -13.743,-2.507 -18.758,-7.523 -5.017,-5.017 -7.524,-11.269 -7.524,-18.757 0,-7.456 2.507,-13.7 7.524,-18.732 5.015,-5.034 11.267,-7.55 18.758,-7.55 7.489,0 13.741,2.508 18.757,7.523 5.016,5.016 7.524,11.269 7.524,18.759 0,7.488 -2.508,13.74 -7.524,18.757 -5.016,5.016 -11.268,7.523 -18.757,7.523"
             style="fill:#262262;fill-opacity:1;fill-rule:nonzero;stroke:none"
             id="path40"
             inkscape:connector-curvature="0" /></g><g
           id="g42"
           transform="translate(910.0244,431.14)"><path
             d="m 0,0 c -5.291,0 -9.773,-1.89 -13.449,-5.668 v 5.72 l -14.43,-1.546 v -50.037 h 14.43 v 31.691 c 2.335,4.845 5.255,7.387 8.76,7.627 3.126,-0.102 5.531,-0.91 7.214,-2.422 L 4.792,-0.412 C 3.28,-0.138 1.683,0 0,0"
             style="fill:#262262;fill-opacity:1;fill-rule:nonzero;stroke:none"
             id="path44"
             inkscape:connector-curvature="0" /></g><g
           id="g46"
           transform="translate(594.4321,453.1439)"><path
             d="m 0,0 c 0,0 -0.204,0.139 -0.45,0.277 -0.906,0.547 -1.856,1 -2.744,1.321 -1.685,0.679 -3.62,1.262 -5.761,1.738 l -2.063,2.533 c -1.793,2.283 -6.09,7.358 -13.132,13.334 -8.142,6.209 -24.212,15.045 -47.595,12.442 -4.578,-0.444 -9.077,-1.318 -13.368,-2.597 l -0.232,-0.068 c -12.978,-3.918 -24.155,-11.512 -33.24,-22.601 -0.6,-0.754 -1.179,-1.504 -1.783,-2.307 l -0.134,-0.191 -0.062,-0.074 c -1.194,-1.596 -2.36,-3.258 -3.485,-4.969 l -0.125,-0.198 c -3.559,-5.915 -6.126,-12.72 -6.85,-14.73 -11.284,-34.556 2.735,-61.502 5.669,-66.567 8.482,-14.4 23.945,-32.461 50.005,-38.975 1.42,-0.354 2.872,-0.676 4.356,-0.96 0.016,-0.004 0.036,-0.009 0.053,-0.013 6.537,-1.118 16.647,-1.928 29.969,-0.317 3.21,0.621 8.236,2.535 8.646,8.445 2.209,0.842 10.261,3.812 10.261,3.812 8.572,3.874 18.586,11.106 24.334,24.546 1.21,2.83 0.277,6.128 -2.171,7.994 l -0.202,0.152 c 0.639,1.557 1.125,3.209 1.488,4.93 l 0.019,0.009 c 0,0 0.063,0.325 0.164,0.854 0.013,0.073 0.028,0.144 0.041,0.215 0.402,2.114 1.294,6.91 1.719,10.035 0.02,0.149 0.029,0.268 0.033,0.371 2.136,14.686 2.099,26.608 -0.156,37.847 1.443,0.114 2.672,1.095 3.106,2.477 l 0.655,2.086 C 9.188,-12.066 6.243,-4.003 0,0"
             style="fill:#262262;fill-opacity:1;fill-rule:nonzero;stroke:none"
             id="path48"
             inkscape:connector-curvature="0" /></g><g
           id="g50"
           transform="translate(551.9267,364.2689)"><path
             d="m 0,0 c 16.398,20.796 22.346,43.748 18.045,69.9 3.02,0 5.654,-0.022 8.288,0.007 2.187,0.025 4.374,0.101 6.56,0.172 4.716,0.152 4.743,0.163 5.79,-4.512 C 41.779,51.734 40.83,37.911 38.507,24.1 38.26,22.631 37.817,21.189 37.656,19.715 36.479,8.941 29.625,3.588 19.853,1.08 13.574,-0.531 7.209,-0.816 0,0"
             style="fill:#fbb03b;fill-opacity:1;fill-rule:nonzero;stroke:none"
             id="path52"
             inkscape:connector-curvature="0" /></g><g
           id="g54"
           transform="translate(548.4282,396.6898)"><path
             d="M 0,0 C 0,2.553 -3.404,4.255 -3.404,4.255 -0.851,5.105 0,8.51 0,8.51 0,8.51 0.851,5.105 3.404,4.255 3.404,4.255 0,2.553 0,0 m -16.835,6.354 c 0,6.638 -8.851,11.063 -8.851,11.063 6.638,2.213 8.851,11.063 8.851,11.063 0,0 2.212,-8.85 8.85,-11.063 0,0 -8.85,-4.425 -8.85,-11.063"
             style="fill:#fbb03b;fill-opacity:1;fill-rule:nonzero;stroke:none"
             id="path56"
             inkscape:connector-curvature="0" /></g><g
           id="g58"
           transform="translate(489.744,429.7865)"><path
             d="m 0,0 c 0,0 -2.18,3.308 -9.585,2.026 0,0 5.894,28.296 35.737,38.209 C 26.152,40.235 -2.777,23.901 0,0 m 0.574,-32.696 -0.003,-0.003 c -1.277,-1.994 -2.778,-3.523 -4.46,-4.544 -1.492,-0.919 -3.13,-1.403 -4.67,-1.403 -0.519,0 -1.028,0.055 -1.516,0.167 l -2.174,0.5 2.15,0.593 c 1.605,0.443 3.016,1.325 4.194,2.623 0.997,1.09 1.826,2.447 2.536,4.149 1.158,2.775 1.757,6.066 1.783,9.781 -0.048,3.661 -0.673,6.945 -1.857,9.75 -0.693,1.629 -1.56,3.009 -2.58,4.099 -1.208,1.29 -2.63,2.143 -4.228,2.536 l -2.154,0.529 2.145,0.564 c 0.473,0.125 0.983,0.193 1.516,0.205 l 0.031,0.002 1.662,-0.152 c 1.029,-0.203 2.071,-0.605 3.014,-1.167 1.727,-1.015 3.25,-2.527 4.526,-4.493 2.122,-3.323 3.264,-7.421 3.305,-11.857 C 3.767,-25.296 2.653,-29.4 0.574,-32.696 M 100.951,17.69 c 0,0 -0.074,0.05 -0.223,0.136 -0.532,0.32 -1.095,0.593 -1.688,0.801 -2.997,1.223 -9.729,3.139 -21.568,2.583 -0.029,0 -0.055,0 -0.084,-0.001 C 52.1,20.798 29.559,10.754 29.559,10.754 c 0,0 1.417,1.733 3.4,3.636 0,0 10e-4,0 10e-4,10e-4 1.036,0.958 2.319,2.044 3.853,3.176 0.044,0.031 0.086,0.062 0.122,0.091 8.573,6.286 24.949,13.945 50.829,9.394 -0.615,0.698 -1.254,1.341 -1.887,1.998 l 0.057,-0.009 c 0,0 -5.858,6.886 -16.555,12.616 -0.613,0.331 -1.252,0.659 -1.91,0.985 -0.038,0.018 -0.073,0.038 -0.112,0.057 -0.067,0.033 -0.128,0.057 -0.195,0.089 -8.007,3.888 -19.263,7.05 -33.564,5.458 -3.873,-0.374 -8.015,-1.116 -12.272,-2.399 -0.007,-0.002 -0.013,-0.003 -0.02,-0.005 L 21.304,45.84 c -10,-3.018 -20.632,-9.029 -29.888,-20.328 -0.563,-0.707 -1.105,-1.409 -1.632,-2.109 -0.064,-0.096 -0.138,-0.198 -0.222,-0.301 -1.164,-1.557 -2.236,-3.091 -3.229,-4.602 -3.216,-5.343 -5.544,-11.486 -6.214,-13.337 -10.417,-31.901 2.546,-56.661 5.065,-61.011 8.793,-14.923 24.186,-31.856 49.988,-36.751 0.195,-0.046 0.377,-0.101 0.573,-0.145 1.697,-0.361 4.79,-0.914 8.771,-1.178 1.5,-0.067 3.04,-0.093 4.626,-0.065 1.525,-0.01 2.953,0.016 4.268,0.063 0.39,0.027 0.729,0.04 1.029,0.044 5.023,0.233 8.144,0.762 8.144,0.762 -26.133,1.279 -39.232,13.203 -44.987,20.816 -1.304,1.622 -2.422,3.367 -3.324,5.234 -0.356,0.699 -0.515,1.097 -0.515,1.097 8.328,-7.069 19.98,-13.155 19.98,-13.155 10.449,-4.917 21.402,-7.337 33.008,-5.747 0,0 24.264,2.227 33.932,24.702 -0.417,0.317 -0.361,0.275 -0.777,0.592 -0.642,-0.518 -1.274,-1.007 -1.898,-1.474 -0.975,-0.64 -1.933,-1.336 -2.89,-2.038 -5.184,-3.431 -9.414,-5.048 -11.934,-5.788 -19.06,-4.811 -36.698,-1.232 -52.114,12.263 -7.14,6.251 -11.572,14.131 -11.759,23.917 -0.122,6.365 -0.188,12.734 -0.135,19.101 0.084,10.023 7.135,17.645 17.126,18.986 20.245,2.716 40.598,3.652 60.993,4.129 3.125,0.072 5.888,0.036 7.342,-3.306 0.025,-0.057 0.358,0.021 0.543,0.035 1.379,4.393 -0.607,9.127 -4.223,11.444"
             style="fill:#ffffff;fill-opacity:1;fill-rule:nonzero;stroke:none"
             id="path60"
             inkscape:connector-curvature="0" /></g></g></g></g></svg>