<?xml version="1.0" encoding="UTF-8" standalone="no"?>
<svg
   xmlns:dc="http://purl.org/dc/elements/1.1/"
   xmlns:cc="http://creativecommons.org/ns#"
   xmlns:rdf="http://www.w3.org/1999/02/22-rdf-syntax-ns#"
   xmlns:svg="http://www.w3.org/2000/svg"
   xmlns="http://www.w3.org/2000/svg"
   xmlns:sodipodi="http://sodipodi.sourceforge.net/DTD/sodipodi-0.dtd"
   xmlns:inkscape="http://www.inkscape.org/namespaces/inkscape"
   version="1.1"
   viewBox="0 0 462.84253 272.49213"
   stroke-miterlimit="10"
   id="svg96"
   sodipodi:docname="Layers.svg"
   width="462.84253"
   height="272.49213"
   style="fill:none;stroke:none;stroke-linecap:square;stroke-miterlimit:10"
   inkscape:version="0.92.2pre0 (973e216, 2017-07-25)"
   inkscape:export-filename="/google/src/cloud/ascannell/gvisor_readme/google3/third_party/golang/gvisor/g3doc/gVisor.png"
   inkscape:export-xdpi="96"
   inkscape:export-ydpi="96">
  <metadata
     id="metadata102">
    <rdf:RDF>
      <cc:Work
         rdf:about="">
        <dc:format>image/svg+xml</dc:format>
        <dc:type
           rdf:resource="http://purl.org/dc/dcmitype/StillImage" />
        <dc:title></dc:title>
      </cc:Work>
    </rdf:RDF>
  </metadata>
  <defs
     id="defs100" />
  <sodipodi:namedview
     pagecolor="#ffffff"
     bordercolor="#666666"
     borderopacity="1"
     objecttolerance="10"
     gridtolerance="10"
     guidetolerance="10"
     inkscape:pageopacity="0"
     inkscape:pageshadow="2"
     inkscape:window-width="953"
     inkscape:window-height="636"
     id="namedview98"
     showgrid="false"
     fit-margin-top="0"
     fit-margin-left="0"
     fit-margin-right="0"
     fit-margin-bottom="0"
     inkscape:zoom="1.4142136"
     inkscape:cx="194.94941"
     inkscape:cy="129.51913"
     inkscape:window-x="443"
     inkscape:window-y="220"
     inkscape:window-maximized="0"
     inkscape:current-layer="g94" />
  <clipPath
     id="p.0">
    <path
       d="M 0,0 H 1280 V 960 H 0 Z"
       id="path2"
       inkscape:connector-curvature="0"
       style="clip-rule:nonzero" />
  </clipPath>
  <g
     clip-path="url(#p.0)"
     id="g94"
     transform="translate(-84,-76.05643)">
    <path
       d="M 0,0 H 1280 V 960 H 0 Z"
       id="path5"
       inkscape:connector-curvature="0"
       style="fill:#000000;fill-opacity:0;fill-rule:evenodd" />
    <path
       d="m 154,76.55643 h 178.01575 v 64 H 154 Z"
       id="path7"
       inkscape:connector-curvature="0"
       style="fill:#f4cccc;fill-rule:evenodd" />
    <path
       d="m 154,76.55643 h 178.01575 v 64 H 154 Z"
       id="path9"
       inkscape:connector-curvature="0"
       style="fill-rule:evenodd;stroke:#000000;stroke-width:1;stroke-linecap:butt;stroke-linejoin:round" />
    <path
       d="m 189.3541,112.03893 h -4.4375 l -1.0625,3.4375 h -1.6875 l 4.28125,-13.26563 h 1.42187 l 4.20313,13.26563 h -1.67188 z m -3.98438,-1.46875 h 3.53125 l -1.75,-5.75 z m 17.16434,0.0937 q 0,1.04687 -0.26562,1.96875 -0.25,0.90625 -0.75,1.59375 -0.48438,0.67187 -1.21875,1.0625 -0.71875,0.375 -1.64063,0.375 -0.90625,0 -1.59375,-0.29688 -0.6875,-0.29687 -1.17187,-0.84375 v 4.75 h -1.6875 V 105.617 h 1.53125 l 0.0937,1.07813 q 0.48437,-0.60938 1.17187,-0.92188 0.70313,-0.32812 1.625,-0.32812 0.95313,0 1.67188,0.375 0.73437,0.35937 1.21875,1.03125 0.5,0.65625 0.75,1.59375 0.26562,0.92187 0.26562,2.01562 z m -1.6875,-0.20313 q 0,-0.71875 -0.17187,-1.35937 -0.15625,-0.65625 -0.48438,-1.15625 -0.32812,-0.5 -0.84375,-0.78125 -0.5,-0.29688 -1.21875,-0.29688 -0.8125,0 -1.35937,0.375 -0.54688,0.375 -0.875,0.96875 v 4.75 q 0.32812,0.57813 0.875,0.95313 0.54687,0.375 1.375,0.375 0.70312,0 1.20312,-0.29688 0.51563,-0.29687 0.84375,-0.79687 0.32813,-0.5 0.48438,-1.15625 0.17187,-0.65625 0.17187,-1.375 z m 12.88306,0.20313 q 0,1.04687 -0.26563,1.96875 -0.25,0.90625 -0.75,1.59375 -0.48437,0.67187 -1.21875,1.0625 -0.71875,0.375 -1.64062,0.375 -0.90625,0 -1.59375,-0.29688 -0.6875,-0.29687 -1.17188,-0.84375 v 4.75 h -1.6875 V 105.617 h 1.53125 l 0.0937,1.07813 q 0.48438,-0.60938 1.17188,-0.92188 0.70312,-0.32812 1.625,-0.32812 0.95312,0 1.67187,0.375 0.73438,0.35937 1.21875,1.03125 0.5,0.65625 0.75,1.59375 0.26563,0.92187 0.26563,2.01562 z m -1.6875,-0.20313 q 0,-0.71875 -0.17188,-1.35937 -0.15625,-0.65625 -0.48437,-1.15625 -0.32813,-0.5 -0.84375,-0.78125 -0.5,-0.29688 -1.21875,-0.29688 -0.8125,0 -1.35938,0.375 -0.54687,0.375 -0.875,0.96875 v 4.75 q 0.32813,0.57813 0.875,0.95313 0.54688,0.375 1.375,0.375 0.70313,0 1.20313,-0.29688 0.51562,-0.29687 0.84375,-0.79687 0.32812,-0.5 0.48437,-1.15625 0.17188,-0.65625 0.17188,-1.375 z m 4.82059,-8.98437 h 5.04687 v 12.54687 h 3.21875 v 1.45313 h -8.26562 v -1.45313 h 3.35937 v -11.07812 h -3.35937 z m 11.19555,4.14062 h 5.04688 v 8.40625 h 3.21875 v 1.45313 h -8.26563 v -1.45313 h 3.35938 v -6.9375 h -3.35938 z m 3.14063,-2.57812 q 0,-0.42188 0.25,-0.70313 0.25,-0.29687 0.76562,-0.29687 0.5,0 0.75,0.29687 0.25,0.28125 0.25,0.70313 0,0.40625 -0.25,0.6875 -0.25,0.26562 -0.75,0.26562 -0.51562,0 -0.76562,-0.26562 -0.25,-0.28125 -0.25,-0.6875 z m 11.99246,11.25 q 0.45312,0 0.89062,-0.14063 0.4375,-0.14062 0.76563,-0.40625 0.34375,-0.26562 0.54687,-0.60937 0.20313,-0.35938 0.21875,-0.76563 h 1.59375 q -0.0156,0.65625 -0.34375,1.26563 -0.32812,0.59375 -0.89062,1.04687 -0.5625,0.4375 -1.28125,0.71875 -0.71875,0.26563 -1.5,0.26563 -1.10938,0 -1.95313,-0.40625 -0.84375,-0.40625 -1.40625,-1.07813 -0.54687,-0.6875 -0.84375,-1.5625 -0.28125,-0.89062 -0.28125,-1.875 v -0.39062 q 0,-0.96875 0.28125,-1.85938 0.29688,-0.89062 0.84375,-1.5625 0.5625,-0.6875 1.40625,-1.07812 0.84375,-0.40625 1.95313,-0.40625 0.875,0 1.60937,0.28125 0.73438,0.26562 1.26563,0.75 0.53125,0.46875 0.82812,1.125 0.3125,0.65625 0.3125,1.40625 h -1.59375 q -0.0156,-0.45313 -0.20312,-0.84375 -0.1875,-0.39063 -0.51563,-0.6875 -0.3125,-0.3125 -0.75,-0.48438 -0.4375,-0.17187 -0.95312,-0.17187 -0.78125,0 -1.3125,0.3125 -0.53125,0.3125 -0.85938,0.82812 -0.32812,0.5 -0.46875,1.14063 -0.14062,0.625 -0.14062,1.25 v 0.39062 q 0,0.64063 0.14062,1.28125 0.14063,0.625 0.45313,1.14063 0.32812,0.5 0.85937,0.8125 0.53125,0.3125 1.32813,0.3125 z m 13.47681,1.1875 q -0.0937,-0.1875 -0.15625,-0.46875 -0.0625,-0.29688 -0.0937,-0.60938 -0.25,0.26563 -0.5625,0.5 -0.3125,0.21875 -0.70313,0.39063 -0.375,0.17187 -0.8125,0.26562 -0.42187,0.10938 -0.89062,0.10938 -0.79688,0 -1.4375,-0.21875 -0.625,-0.23438 -1.0625,-0.625 -0.4375,-0.39063 -0.6875,-0.92188 -0.23438,-0.53125 -0.23438,-1.15625 0,-0.8125 0.3125,-1.42187 0.32813,-0.60938 0.92188,-1.01563 0.59375,-0.40625 1.42187,-0.59375 0.84375,-0.20312 1.875,-0.20312 h 1.82813 v -0.78125 q 0,-0.45313 -0.17188,-0.79688 -0.15625,-0.35937 -0.45312,-0.60937 -0.29688,-0.25 -0.73438,-0.39063 -0.42187,-0.14062 -0.96875,-0.14062 -0.5,0 -0.90625,0.14062 -0.39062,0.125 -0.67187,0.34375 -0.26563,0.20313 -0.42188,0.48438 -0.14062,0.28125 -0.14062,0.59375 h -1.6875 q 0,-0.53125 0.26562,-1.04688 0.28125,-0.53125 0.78125,-0.9375 0.5,-0.42187 1.21875,-0.67187 0.73438,-0.25 1.65625,-0.25 0.84375,0 1.5625,0.20312 0.71875,0.20313 1.23438,0.625 0.53125,0.40625 0.82812,1.03125 0.29688,0.60938 0.29688,1.4375 v 4.57813 q 0,0.5 0.0937,1.04687 0.0937,0.54688 0.25,0.96875 v 0.14063 z m -2.98438,-1.28125 q 0.5,0 0.92188,-0.125 0.4375,-0.14063 0.78125,-0.34375 0.34375,-0.20313 0.59375,-0.46875 0.26562,-0.28125 0.40625,-0.5625 v -2 h -1.5625 q -1.46875,0 -2.29688,0.4375 -0.8125,0.4375 -0.8125,1.375 0,0.35937 0.125,0.67187 0.125,0.3125 0.35938,0.53125 0.25,0.21875 0.625,0.35938 0.375,0.125 0.85937,0.125 z m 11.69559,-10.96875 v 2.39062 h 3.75 v 1.3125 h -3.75 v 5.34375 q 0,0.57813 0.14062,0.95313 0.14063,0.375 0.39063,0.59375 0.26562,0.21875 0.59375,0.3125 0.34375,0.0937 0.71875,0.0937 0.26562,0 0.54687,-0.0312 0.29688,-0.0312 0.57813,-0.0781 0.28125,-0.0469 0.51562,-0.0937 0.25,-0.0469 0.40625,-0.0937 l 0.23438,1.20313 q -0.21875,0.125 -0.51563,0.21875 -0.29687,0.0937 -0.65625,0.15625 -0.34375,0.0781 -0.75,0.10937 -0.39062,0.0469 -0.78125,0.0469 -0.65625,0 -1.23437,-0.1875 -0.5625,-0.1875 -0.98438,-0.59375 -0.42187,-0.40625 -0.67187,-1.04688 -0.23438,-0.64062 -0.23438,-1.5625 v -5.34375 h -2.57812 v -1.3125 h 2.57812 v -2.39062 z m 7.46118,2.39062 h 5.04688 v 8.40625 h 3.21875 v 1.45313 h -8.26563 v -1.45313 h 3.35938 v -6.9375 h -3.35938 z m 3.14063,-2.57812 q 0,-0.42188 0.25,-0.70313 0.25,-0.29687 0.76562,-0.29687 0.5,0 0.75,0.29687 0.25,0.28125 0.25,0.70313 0,0.40625 -0.25,0.6875 -0.25,0.26562 -0.75,0.26562 -0.51562,0 -0.76562,-0.26562 -0.25,-0.28125 -0.25,-0.6875 z m 7.32058,7.42187 q 0,-1.0625 0.3125,-1.98437 0.3125,-0.92188 0.89063,-1.59375 0.57812,-0.67188 1.40625,-1.04688 0.82812,-0.39062 1.85937,-0.39062 1.04688,0 1.875,0.39062 0.84375,0.375 1.42188,1.04688 0.57812,0.67187 0.89062,1.59375 0.3125,0.92187 0.3125,1.98437 v 0.20313 q 0,1.0625 -0.3125,1.96875 -0.3125,0.90625 -0.89062,1.59375 -0.57813,0.67187 -1.40625,1.0625 -0.82813,0.375 -1.85938,0.375 -1.04687,0 -1.89062,-0.375 -0.82813,-0.39063 -1.40625,-1.0625 -0.57813,-0.6875 -0.89063,-1.59375 -0.3125,-0.90625 -0.3125,-1.96875 z m 1.6875,0.20313 q 0,0.71875 0.17188,1.39062 0.17187,0.65625 0.51562,1.15625 0.35938,0.5 0.89063,0.79688 0.53125,0.28125 1.23437,0.28125 0.6875,0 1.20313,-0.28125 0.53125,-0.29688 0.875,-0.79688 0.35937,-0.5 0.53125,-1.15625 0.17187,-0.67187 0.17187,-1.39062 v -0.20313 q 0,-0.71875 -0.1875,-1.375 -0.17187,-0.67187 -0.53125,-1.17187 -0.34375,-0.5 -0.875,-0.79688 -0.51562,-0.29687 -1.21875,-0.29687 -0.70312,0 -1.21875,0.29687 -0.51562,0.29688 -0.875,0.79688 -0.34375,0.5 -0.51562,1.17187 -0.17188,0.65625 -0.17188,1.375 z m 11.49243,-5.04688 0.125,1.45313 q 0.53125,-0.76563 1.3125,-1.1875 0.78125,-0.4375 1.75,-0.4375 0.78125,0 1.40625,0.21875 0.64063,0.21875 1.07813,0.6875 0.45312,0.45312 0.6875,1.17187 0.25,0.71875 0.25,1.6875 v 6.26563 h -1.6875 v -6.21875 q 0,-0.65625 -0.15625,-1.10938 -0.14063,-0.45312 -0.42188,-0.73437 -0.28125,-0.29688 -0.70312,-0.42188 -0.40625,-0.125 -0.95313,-0.125 -0.84375,0 -1.48437,0.42188 -0.64063,0.42187 -1.03125,1.125 v 7.0625 h -1.6875 V 105.617 Z"
       id="path11"
       inkscape:connector-curvature="0"
       style="fill:#000000;fill-rule:nonzero" />
    <path
       d="m 154,252.55643 h 178.01575 v 64 H 154 Z"
       id="path13"
       inkscape:connector-curvature="0"
       style="fill:#cfe2f3;fill-rule:evenodd" />
    <path
       d="m 154,252.55643 h 178.01575 v 64 H 154 Z"
       id="path15"
       inkscape:connector-curvature="0"
       style="fill-rule:evenodd;stroke:#000000;stroke-width:1;stroke-linecap:butt;stroke-linejoin:round" />
    <path
       d="m 191.33847,291.47644 h -1.59375 v -6.125 h -5.4375 v 6.125 h -1.59375 v -13.26562 h 1.59375 v 5.70312 h 5.4375 v -5.70312 h 1.59375 z m 2.39871,-5.01562 q 0,-1.0625 0.3125,-1.98438 0.3125,-0.92187 0.89063,-1.59375 0.57812,-0.67187 1.40625,-1.04687 0.82812,-0.39063 1.85937,-0.39063 1.04688,0 1.875,0.39063 0.84375,0.375 1.42188,1.04687 0.57812,0.67188 0.89062,1.59375 0.3125,0.92188 0.3125,1.98438 v 0.20312 q 0,1.0625 -0.3125,1.96875 -0.3125,0.90625 -0.89062,1.59375 -0.57813,0.67188 -1.40625,1.0625 -0.82813,0.375 -1.85938,0.375 -1.04687,0 -1.89062,-0.375 -0.82813,-0.39062 -1.40625,-1.0625 -0.57813,-0.6875 -0.89063,-1.59375 -0.3125,-0.90625 -0.3125,-1.96875 z m 1.6875,0.20312 q 0,0.71875 0.17188,1.39063 0.17187,0.65625 0.51562,1.15625 0.35938,0.5 0.89063,0.79687 0.53125,0.28125 1.23437,0.28125 0.6875,0 1.20313,-0.28125 0.53125,-0.29687 0.875,-0.79687 0.35937,-0.5 0.53125,-1.15625 0.17187,-0.67188 0.17187,-1.39063 v -0.20312 q 0,-0.71875 -0.1875,-1.375 -0.17187,-0.67188 -0.53125,-1.17188 -0.34375,-0.5 -0.875,-0.79687 -0.51562,-0.29688 -1.21875,-0.29688 -0.70312,0 -1.21875,0.29688 -0.51562,0.29687 -0.875,0.79687 -0.34375,0.5 -0.51562,1.17188 -0.17188,0.65625 -0.17188,1.375 z m 16.53931,2.20313 q 0,-0.3125 -0.125,-0.54688 -0.125,-0.23437 -0.40625,-0.4375 -0.28125,-0.20312 -0.75,-0.375 -0.45313,-0.17187 -1.14063,-0.29687 -0.85937,-0.1875 -1.5625,-0.42188 -0.6875,-0.25 -1.1875,-0.59375 -0.48437,-0.34375 -0.76562,-0.79687 -0.26563,-0.46875 -0.26563,-1.07813 0,-0.59375 0.28125,-1.10937 0.28125,-0.53125 0.78125,-0.92188 0.51563,-0.39062 1.21875,-0.60937 0.70313,-0.23438 1.5625,-0.23438 0.90625,0 1.625,0.23438 0.73438,0.23437 1.25,0.65625 0.51563,0.40625 0.78125,0.96875 0.28125,0.5625 0.28125,1.21875 h -1.6875 q 0,-0.32813 -0.17187,-0.625 -0.15625,-0.3125 -0.45313,-0.54688 -0.28125,-0.23437 -0.70312,-0.375 -0.40625,-0.15625 -0.92188,-0.15625 -0.54687,0 -0.95312,0.125 -0.40625,0.10938 -0.67188,0.3125 -0.26562,0.20313 -0.40625,0.46875 -0.14062,0.26563 -0.14062,0.54688 0,0.28125 0.10937,0.51562 0.10938,0.23438 0.375,0.42188 0.28125,0.17187 0.73438,0.32812 0.45312,0.14063 1.14062,0.26563 0.90625,0.20312 1.625,0.45312 0.71875,0.25 1.20313,0.60938 0.5,0.34375 0.75,0.8125 0.26562,0.45312 0.26562,1.0625 0,0.65625 -0.29687,1.20312 -0.28125,0.53125 -0.8125,0.92188 -0.53125,0.375 -1.26563,0.59375 -0.73437,0.20312 -1.60937,0.20312 -1.01563,0 -1.79688,-0.26562 -0.78125,-0.28125 -1.32812,-0.71875 -0.53125,-0.4375 -0.82813,-1.01563 -0.28125,-0.59375 -0.28125,-1.21875 h 1.6875 q 0.0312,0.51563 0.26563,0.875 0.25,0.35938 0.60937,0.57813 0.35938,0.21875 0.79688,0.3125 0.4375,0.0781 0.875,0.0781 1.0625,0 1.67187,-0.39062 0.625,-0.39063 0.64063,-1.03125 z m 8.63309,-9.64063 v 2.39063 h 3.75 v 1.3125 h -3.75 v 5.34375 q 0,0.57812 0.14062,0.95312 0.14063,0.375 0.39063,0.59375 0.26562,0.21875 0.59375,0.3125 0.34375,0.0937 0.71875,0.0937 0.26562,0 0.54687,-0.0312 0.29688,-0.0312 0.57813,-0.0781 0.28125,-0.0469 0.51562,-0.0937 0.25,-0.0469 0.40625,-0.0937 l 0.23438,1.20312 q -0.21875,0.125 -0.51563,0.21875 -0.29687,0.0937 -0.65625,0.15625 -0.34375,0.0781 -0.75,0.10938 -0.39062,0.0469 -0.78125,0.0469 -0.65625,0 -1.23437,-0.1875 -0.5625,-0.1875 -0.98438,-0.59375 -0.42187,-0.40625 -0.67187,-1.04687 -0.23438,-0.64063 -0.23438,-1.5625 v -5.34375 h -2.57812 v -1.3125 h 2.57812 v -2.39063 z m 21.57864,6.09375 -1.48437,1.67188 v 4.48437 h -1.71875 v -13.26562 h 1.71875 v 6.48437 l 1.29687,-1.60937 3.89063,-4.875 h 2.04687 l -4.64062,5.8125 4.95312,7.45312 h -2.0625 z m 12.36743,6.34375 q -1.03125,0 -1.90625,-0.35937 -0.875,-0.35938 -1.5,-0.98438 -0.60937,-0.64062 -0.95312,-1.51562 -0.34375,-0.875 -0.34375,-1.90625 v -0.39063 q 0,-1.1875 0.375,-2.125 0.39062,-0.95312 1.01562,-1.59375 0.64063,-0.65625 1.4375,-1 0.8125,-0.34375 1.65625,-0.34375 1.0625,0 1.85938,0.375 0.79687,0.35938 1.32812,1.01563 0.53125,0.64062 0.78125,1.53125 0.26563,0.875 0.26563,1.90625 v 0.75 h -7.03125 q 0.0156,0.6875 0.25,1.28125 0.23437,0.57812 0.64062,1.03125 0.40625,0.4375 0.96875,0.70312 0.5625,0.25 1.25,0.25 0.90625,0 1.59375,-0.35937 0.70313,-0.375 1.17188,-0.96875 l 1.03125,0.79687 q -0.25,0.375 -0.625,0.71875 -0.35938,0.32813 -0.84375,0.59375 -0.48438,0.26563 -1.09375,0.42188 -0.60938,0.17187 -1.32813,0.17187 z m -0.21875,-8.84375 q -0.51562,0 -0.96875,0.1875 -0.45312,0.1875 -0.8125,0.54688 -0.35937,0.35937 -0.625,0.89062 -0.25,0.51563 -0.34375,1.20313 h 5.29688 v -0.125 q -0.0156,-0.5 -0.1875,-0.98438 -0.15625,-0.48437 -0.46875,-0.85937 -0.29688,-0.39063 -0.76563,-0.625 -0.46875,-0.23438 -1.125,-0.23438 z m 13.52371,-1.375 q 0.23438,0 0.48438,0.0156 0.26562,0 0.48437,0.0312 0.23438,0.0312 0.42188,0.0781 0.20312,0.0469 0.34375,0.10938 l -0.23438,1.64062 q -0.48437,-0.10937 -0.9375,-0.15625 -0.4375,-0.0469 -0.92187,-0.0469 -1.1875,0 -1.92188,0.54687 -0.73437,0.53125 -1.07812,1.48438 v 6.32812 h -1.6875 v -9.85937 h 1.59375 l 0.0937,1.5625 q 0.59375,-0.79688 1.4375,-1.26563 0.84375,-0.46875 1.92187,-0.46875 z m 6.24244,0.17188 0.125,1.45312 q 0.53125,-0.76562 1.3125,-1.1875 0.78125,-0.4375 1.75,-0.4375 0.78125,0 1.40625,0.21875 0.64062,0.21875 1.07812,0.6875 0.45313,0.45313 0.6875,1.17188 0.25,0.71875 0.25,1.6875 v 6.26562 h -1.6875 v -6.21875 q 0,-0.65625 -0.15625,-1.10937 -0.14062,-0.45313 -0.42187,-0.73438 -0.28125,-0.29687 -0.70313,-0.42187 -0.40625,-0.125 -0.95312,-0.125 -0.84375,0 -1.48438,0.42187 -0.64062,0.42188 -1.03125,1.125 v 7.0625 h -1.6875 v -9.85937 z m 14.03933,10.04687 q -1.03125,0 -1.90625,-0.35937 -0.875,-0.35938 -1.5,-0.98438 -0.60937,-0.64062 -0.95312,-1.51562 -0.34375,-0.875 -0.34375,-1.90625 v -0.39063 q 0,-1.1875 0.375,-2.125 0.39062,-0.95312 1.01562,-1.59375 0.64063,-0.65625 1.4375,-1 0.8125,-0.34375 1.65625,-0.34375 1.0625,0 1.85938,0.375 0.79687,0.35938 1.32812,1.01563 0.53125,0.64062 0.78125,1.53125 0.26563,0.875 0.26563,1.90625 v 0.75 h -7.03125 q 0.0156,0.6875 0.25,1.28125 0.23437,0.57812 0.64062,1.03125 0.40625,0.4375 0.96875,0.70312 0.5625,0.25 1.25,0.25 0.90625,0 1.59375,-0.35937 0.70313,-0.375 1.17188,-0.96875 l 1.03125,0.79687 q -0.25,0.375 -0.625,0.71875 -0.35938,0.32813 -0.84375,0.59375 -0.48438,0.26563 -1.09375,0.42188 -0.60938,0.17187 -1.32813,0.17187 z m -0.21875,-8.84375 q -0.51562,0 -0.96875,0.1875 -0.45312,0.1875 -0.8125,0.54688 -0.35937,0.35937 -0.625,0.89062 -0.25,0.51563 -0.34375,1.20313 h 5.29688 v -0.125 q -0.0156,-0.5 -0.1875,-0.98438 -0.15625,-0.48437 -0.46875,-0.85937 -0.29688,-0.39063 -0.76563,-0.625 -0.46875,-0.23438 -1.125,-0.23438 z m 7.32056,-5.34375 h 5.04687 v 12.54688 h 3.21875 v 1.45312 h -8.26562 v -1.45312 h 3.35937 v -11.07813 h -3.35937 z"
       id="path17"
       inkscape:connector-curvature="0"
       style="fill:#000000;fill-rule:nonzero" />
    <path
       d="M 88.03937,239.55643 H 135.0315"
       id="path19"
       inkscape:connector-curvature="0"
       style="fill:#000000;fill-opacity:0;fill-rule:evenodd" />
    <path
       d="M 88.03937,239.55643 H 135.0315"
       id="path21"
       inkscape:connector-curvature="0"
       style="fill-rule:evenodd;stroke:#ff0000;stroke-width:2;stroke-linecap:butt;stroke-linejoin:round;stroke-dasharray:8, 6" />
    <path
       d="M 349.04724,239.55643 H 423"
       id="path23"
       inkscape:connector-curvature="0"
       style="fill:#000000;fill-opacity:0;fill-rule:evenodd" />
    <path
       d="M 349.04724,239.55643 H 423"
       id="path25"
       inkscape:connector-curvature="0"
       style="fill-rule:evenodd;stroke:#ff0000;stroke-width:2;stroke-linecap:butt;stroke-linejoin:round;stroke-dasharray:8, 6" />
    <path
       d="m 135.0315,218.5643 h 214.01575 v 41.98425 H 135.0315 Z"
       id="path27"
       inkscape:connector-curvature="0"
       style="fill:#000000;fill-opacity:0;fill-rule:evenodd" />
    <path
       d="m 149.02374,241.68993 h 5.5625 v 1.23437 h -7.01563 v -11.375 h 1.45313 z m 8.19531,-7.21875 h 4.3125 v 7.20312 h 2.76563 v 1.25 h -7.07813 v -1.25 h 2.875 v -5.95312 h -2.875 z m 2.6875,-2.21875 q 0,-0.35938 0.20313,-0.60938 0.21875,-0.25 0.65625,-0.25 0.4375,0 0.65625,0.25 0.21875,0.25 0.21875,0.60938 0,0.34375 -0.21875,0.57812 -0.21875,0.23438 -0.65625,0.23438 -0.4375,0 -0.65625,-0.23438 -0.20313,-0.23437 -0.20313,-0.57812 z m 7.35156,2.21875 0.0312,0.79687 q 0.26563,-0.45312 0.67188,-0.70312 0.42187,-0.25 1.01562,-0.25 1.17188,0 1.5625,0.90625 0.25,-0.40625 0.65625,-0.65625 0.40625,-0.25 1,-0.25 0.92188,0 1.42188,0.57812 0.5,0.5625 0.5,1.71875 v 6.3125 h -1.375 v -6.32812 q 0,-1.0625 -0.96875,-1.0625 -0.26563,0 -0.45313,0.0781 -0.1875,0.0625 -0.3125,0.1875 -0.125,0.125 -0.20312,0.28125 -0.0625,0.15625 -0.0781,0.32813 v 6.51562 h -1.375 v -6.34375 q 0,-0.5 -0.23437,-0.76562 -0.21875,-0.28125 -0.71875,-0.28125 -0.45313,0 -0.70313,0.1875 -0.25,0.17187 -0.35937,0.46875 v 6.73437 h -1.375 v -8.45312 z m 9.16407,0 h 4.3125 v 7.20312 h 2.76562 v 1.25 h -7.07812 v -1.25 h 2.875 v -5.95312 h -2.875 z m 2.6875,-2.21875 q 0,-0.35938 0.20312,-0.60938 0.21875,-0.25 0.65625,-0.25 0.4375,0 0.65625,0.25 0.21875,0.25 0.21875,0.60938 0,0.34375 -0.21875,0.57812 -0.21875,0.23438 -0.65625,0.23438 -0.4375,0 -0.65625,-0.23438 -0.20312,-0.23437 -0.20312,-0.57812 z m 10.10156,0.17187 v 2.04688 h 3.21875 v 1.10937 h -3.21875 v 4.59375 q 0,0.5 0.125,0.82813 0.125,0.3125 0.34375,0.5 0.21875,0.1875 0.5,0.26562 0.29687,0.0781 0.60937,0.0781 0.23438,0 0.48438,-0.0156 0.25,-0.0312 0.48437,-0.0625 0.25,-0.0469 0.45313,-0.0937 0.20312,-0.0469 0.34375,-0.0781 l 0.20312,1.03125 q -0.1875,0.10937 -0.45312,0.1875 -0.25,0.0781 -0.5625,0.14062 -0.29688,0.0625 -0.64063,0.0937 -0.32812,0.0312 -0.67187,0.0312 -0.5625,0 -1.04688,-0.15625 -0.48437,-0.17187 -0.84375,-0.51562 -0.35937,-0.34375 -0.57812,-0.89063 -0.20313,-0.5625 -0.20313,-1.34375 v -4.59375 h -2.21875 v -1.10937 h 2.21875 v -2.04688 z m 9.91406,10.65625 q -0.89062,0 -1.64062,-0.29687 -0.73438,-0.3125 -1.26563,-0.85938 -0.53125,-0.54687 -0.82812,-1.29687 -0.29688,-0.75 -0.29688,-1.64063 v -0.32812 q 0,-1.01563 0.32813,-1.82813 0.32812,-0.8125 0.85937,-1.35937 0.54688,-0.5625 1.23438,-0.85938 0.70312,-0.29687 1.42187,-0.29687 0.92188,0 1.59375,0.3125 0.6875,0.3125 1.14063,0.875 0.45312,0.5625 0.67187,1.32812 0.23438,0.75 0.23438,1.625 v 0.65625 h -6.04688 q 0.0312,0.57813 0.21875,1.09375 0.20313,0.5 0.54688,0.875 0.35937,0.375 0.84375,0.59375 0.48437,0.21875 1.0625,0.21875 0.78125,0 1.375,-0.3125 0.60937,-0.3125 1,-0.82812 l 0.89062,0.6875 q -0.21875,0.32812 -0.53125,0.625 -0.3125,0.28125 -0.73437,0.51562 -0.40625,0.21875 -0.9375,0.35938 -0.51563,0.14062 -1.14063,0.14062 z m -0.1875,-7.57812 q -0.4375,0 -0.82812,0.15625 -0.39063,0.15625 -0.70313,0.46875 -0.3125,0.3125 -0.53125,0.76562 -0.20312,0.4375 -0.29687,1.03125 h 4.54687 v -0.10937 q -0.0156,-0.42188 -0.15625,-0.82813 -0.14062,-0.42187 -0.40625,-0.75 -0.26562,-0.32812 -0.67187,-0.53125 -0.39063,-0.20312 -0.95313,-0.20312 z m 5.78906,3.125 q 0,-0.95313 0.23438,-1.73438 0.23437,-0.79687 0.67187,-1.35937 0.45313,-0.57813 1.07813,-0.89063 0.625,-0.32812 1.39062,-0.32812 0.76563,0 1.32813,0.25 0.5625,0.25 0.98437,0.73437 v -4.375 h 1.4375 v 12 h -1.32812 l -0.0625,-0.89062 q -0.42188,0.51562 -1.01563,0.78125 -0.57812,0.26562 -1.35937,0.26562 -0.76563,0 -1.39063,-0.32812 -0.60937,-0.32813 -1.04687,-0.90625 -0.4375,-0.57813 -0.6875,-1.35938 -0.23438,-0.79687 -0.23438,-1.70312 z m 1.4375,0.15625 q 0,0.625 0.125,1.1875 0.14063,0.54687 0.42188,0.96875 0.28125,0.42187 0.70312,0.67187 0.4375,0.23438 1.03125,0.23438 0.375,0 0.67188,-0.0781 0.29687,-0.0937 0.53125,-0.25 0.25,-0.15625 0.4375,-0.375 0.1875,-0.23437 0.32812,-0.5 v -3.92187 q -0.28125,-0.51563 -0.76562,-0.84375 -0.46875,-0.34375 -1.1875,-0.34375 -0.60938,0 -1.04688,0.25 -0.42187,0.25 -0.70312,0.6875 -0.28125,0.42187 -0.42188,0.98437 -0.125,0.54688 -0.125,1.17188 z m 23.65625,1.89062 q 0,-0.25 -0.10937,-0.45312 -0.0937,-0.21875 -0.34375,-0.39063 -0.23438,-0.17187 -0.64063,-0.3125 -0.39062,-0.14062 -0.98437,-0.26562 -0.73438,-0.14063 -1.32813,-0.34375 -0.59375,-0.21875 -1.03125,-0.51563 -0.42187,-0.29687 -0.65625,-0.6875 -0.23437,-0.39062 -0.23437,-0.92187 0,-0.51563 0.23437,-0.95313 0.25,-0.45312 0.6875,-0.78125 0.4375,-0.34375 1.04688,-0.53125 0.60937,-0.20312 1.32812,-0.20312 0.78125,0 1.40625,0.20312 0.625,0.20313 1.0625,0.5625 0.4375,0.35938 0.67188,0.84375 0.25,0.46875 0.25,1.03125 h -1.45313 q 0,-0.28125 -0.14062,-0.53125 -0.14063,-0.26562 -0.39063,-0.46875 -0.25,-0.20312 -0.60937,-0.32812 -0.34375,-0.125 -0.79688,-0.125 -0.45312,0 -0.8125,0.10937 -0.34375,0.0937 -0.57812,0.26563 -0.21875,0.17187 -0.34375,0.40625 -0.10938,0.21875 -0.10938,0.45312 0,0.25 0.0937,0.45313 0.0937,0.1875 0.3125,0.34375 0.23438,0.15625 0.625,0.28125 0.39063,0.125 0.98438,0.25 0.78125,0.15625 1.39062,0.375 0.625,0.21875 1.04688,0.51562 0.42187,0.29688 0.64062,0.70313 0.21875,0.39062 0.21875,0.92187 0,0.5625 -0.25,1.03125 -0.25,0.45313 -0.70312,0.78125 -0.45313,0.32813 -1.09375,0.51563 -0.625,0.17187 -1.375,0.17187 -0.85938,0 -1.53125,-0.23437 -0.67188,-0.23438 -1.14063,-0.60938 -0.46875,-0.375 -0.71875,-0.875 -0.23437,-0.5 -0.23437,-1.04687 h 1.4375 q 0.0312,0.45312 0.23437,0.76562 0.21875,0.29688 0.51563,0.48438 0.3125,0.1875 0.6875,0.26562 0.375,0.0781 0.75,0.0781 0.90625,0 1.4375,-0.32813 0.53125,-0.34375 0.54687,-0.90625 z m 7.08594,-0.75 0.375,1.01563 2.57813,-6.46875 h 1.625 l -4.29688,9.76562 q -0.14062,0.32813 -0.375,0.6875 -0.23437,0.375 -0.5625,0.6875 -0.32812,0.3125 -0.76562,0.51563 -0.4375,0.21875 -1,0.21875 -0.10938,0 -0.23438,-0.0156 -0.125,-0.0156 -0.25,-0.0312 -0.125,-0.0156 -0.23437,-0.0469 -0.10938,-0.0156 -0.17188,-0.0312 l 0.23438,-1.1875 q 0.0469,0 0.14062,0 0.0937,0.0156 0.1875,0.0156 0.10938,0.0156 0.20313,0.0156 0.0937,0.0156 0.15625,0.0156 0.29687,0 0.53125,-0.17187 0.25,-0.15625 0.4375,-0.39063 0.20312,-0.21875 0.32812,-0.46875 0.14063,-0.23437 0.21875,-0.39062 l 0.57813,-1.14063 -3.64063,-8.04687 h 1.625 z m 12.11719,0.75 q 0,-0.25 -0.10938,-0.45312 -0.0937,-0.21875 -0.34375,-0.39063 -0.23437,-0.17187 -0.64062,-0.3125 -0.39063,-0.14062 -0.98438,-0.26562 -0.73437,-0.14063 -1.32812,-0.34375 -0.59375,-0.21875 -1.03125,-0.51563 -0.42188,-0.29687 -0.65625,-0.6875 -0.23438,-0.39062 -0.23438,-0.92187 0,-0.51563 0.23438,-0.95313 0.25,-0.45312 0.6875,-0.78125 0.4375,-0.34375 1.04687,-0.53125 0.60938,-0.20312 1.32813,-0.20312 0.78125,0 1.40625,0.20312 0.625,0.20313 1.0625,0.5625 0.4375,0.35938 0.67187,0.84375 0.25,0.46875 0.25,1.03125 h -1.45312 q 0,-0.28125 -0.14063,-0.53125 -0.14062,-0.26562 -0.39062,-0.46875 -0.25,-0.20312 -0.60938,-0.32812 -0.34375,-0.125 -0.79687,-0.125 -0.45313,0 -0.8125,0.10937 -0.34375,0.0937 -0.57813,0.26563 -0.21875,0.17187 -0.34375,0.40625 -0.10937,0.21875 -0.10937,0.45312 0,0.25 0.0937,0.45313 0.0937,0.1875 0.3125,0.34375 0.23437,0.15625 0.625,0.28125 0.39062,0.125 0.98437,0.25 0.78125,0.15625 1.39063,0.375 0.625,0.21875 1.04687,0.51562 0.42188,0.29688 0.64063,0.70313 0.21875,0.39062 0.21875,0.92187 0,0.5625 -0.25,1.03125 -0.25,0.45313 -0.70313,0.78125 -0.45312,0.32813 -1.09375,0.51563 -0.625,0.17187 -1.375,0.17187 -0.85937,0 -1.53125,-0.23437 -0.67187,-0.23438 -1.14062,-0.60938 -0.46875,-0.375 -0.71875,-0.875 -0.23438,-0.5 -0.23438,-1.04687 h 1.4375 q 0.0312,0.45312 0.23438,0.76562 0.21875,0.29688 0.51562,0.48438 0.3125,0.1875 0.6875,0.26562 0.375,0.0781 0.75,0.0781 0.90625,0 1.4375,-0.32813 0.53125,-0.34375 0.54688,-0.90625 z m 7.39844,-8.25 v 2.04688 h 3.21875 v 1.10937 h -3.21875 v 4.59375 q 0,0.5 0.125,0.82813 0.125,0.3125 0.34375,0.5 0.21875,0.1875 0.5,0.26562 0.29687,0.0781 0.60937,0.0781 0.23438,0 0.48438,-0.0156 0.25,-0.0312 0.48437,-0.0625 0.25,-0.0469 0.45313,-0.0937 0.20312,-0.0469 0.34375,-0.0781 l 0.20312,1.03125 q -0.1875,0.10937 -0.45312,0.1875 -0.25,0.0781 -0.5625,0.14062 -0.29688,0.0625 -0.64063,0.0937 -0.32812,0.0312 -0.67187,0.0312 -0.5625,0 -1.04688,-0.15625 -0.48437,-0.17187 -0.84375,-0.51562 -0.35937,-0.34375 -0.57812,-0.89063 -0.20313,-0.5625 -0.20313,-1.34375 v -4.59375 h -2.21875 v -1.10937 h 2.21875 v -2.04688 z m 9.91406,10.65625 q -0.89063,0 -1.64063,-0.29687 -0.73437,-0.3125 -1.26562,-0.85938 -0.53125,-0.54687 -0.82813,-1.29687 -0.29687,-0.75 -0.29687,-1.64063 v -0.32812 q 0,-1.01563 0.32812,-1.82813 0.32813,-0.8125 0.85938,-1.35937 0.54687,-0.5625 1.23437,-0.85938 0.70313,-0.29687 1.42188,-0.29687 0.92187,0 1.59375,0.3125 0.6875,0.3125 1.14062,0.875 0.45313,0.5625 0.67188,1.32812 0.23437,0.75 0.23437,1.625 v 0.65625 h -6.04687 q 0.0312,0.57813 0.21875,1.09375 0.20312,0.5 0.54687,0.875 0.35938,0.375 0.84375,0.59375 0.48438,0.21875 1.0625,0.21875 0.78125,0 1.375,-0.3125 0.60938,-0.3125 1,-0.82812 l 0.89063,0.6875 q -0.21875,0.32812 -0.53125,0.625 -0.3125,0.28125 -0.73438,0.51562 -0.40625,0.21875 -0.9375,0.35938 -0.51562,0.14062 -1.14062,0.14062 z m -0.1875,-7.57812 q -0.4375,0 -0.82813,0.15625 -0.39062,0.15625 -0.70312,0.46875 -0.3125,0.3125 -0.53125,0.76562 -0.20313,0.4375 -0.29688,1.03125 h 4.54688 v -0.10937 q -0.0156,-0.42188 -0.15625,-0.82813 -0.14063,-0.42187 -0.40625,-0.75 -0.26563,-0.32812 -0.67188,-0.53125 -0.39062,-0.20312 -0.95312,-0.20312 z m 6.72656,-1.03125 0.0312,0.79687 q 0.26563,-0.45312 0.67188,-0.70312 0.42187,-0.25 1.01562,-0.25 1.17188,0 1.5625,0.90625 0.25,-0.40625 0.65625,-0.65625 0.40625,-0.25 1,-0.25 0.92188,0 1.42188,0.57812 0.5,0.5625 0.5,1.71875 v 6.3125 h -1.375 v -6.32812 q 0,-1.0625 -0.96875,-1.0625 -0.26563,0 -0.45313,0.0781 -0.1875,0.0625 -0.3125,0.1875 -0.125,0.125 -0.20312,0.28125 -0.0625,0.15625 -0.0781,0.32813 v 6.51562 h -1.375 v -6.34375 q 0,-0.5 -0.23437,-0.76562 -0.21875,-0.28125 -0.71875,-0.28125 -0.45313,0 -0.70313,0.1875 -0.25,0.17187 -0.35937,0.46875 v 6.73437 h -1.375 v -8.45312 z m 22.14063,7.4375 q 0.39062,0 0.75,-0.125 0.375,-0.125 0.65625,-0.34375 0.29687,-0.23438 0.46875,-0.53125 0.1875,-0.29688 0.1875,-0.65625 h 1.375 q -0.0156,0.5625 -0.29688,1.07812 -0.28125,0.51563 -0.76562,0.90625 -0.46875,0.375 -1.09375,0.60938 -0.60938,0.23437 -1.28125,0.23437 -0.96875,0 -1.6875,-0.34375 -0.71875,-0.34375 -1.20313,-0.92187 -0.46875,-0.59375 -0.71875,-1.34375 -0.23437,-0.76563 -0.23437,-1.60938 v -0.32812 q 0,-0.84375 0.23437,-1.60938 0.25,-0.76562 0.71875,-1.34375 0.48438,-0.57812 1.20313,-0.92187 0.71875,-0.34375 1.6875,-0.34375 0.75,0 1.375,0.23437 0.625,0.23438 1.07812,0.65625 0.46875,0.40625 0.71875,0.96875 0.26563,0.5625 0.26563,1.20313 h -1.375 q 0,-0.39063 -0.17188,-0.71875 -0.15625,-0.34375 -0.4375,-0.59375 -0.26562,-0.26563 -0.64062,-0.40625 -0.375,-0.15625 -0.8125,-0.15625 -0.67188,0 -1.14063,0.26562 -0.45312,0.26563 -0.73437,0.70313 -0.28125,0.4375 -0.40625,0.98437 -0.10938,0.53125 -0.10938,1.07813 v 0.32812 q 0,0.54688 0.10938,1.09375 0.125,0.54688 0.40625,0.98438 0.28125,0.42187 0.73437,0.70312 0.45313,0.26563 1.14063,0.26563 z m 11.55468,1.01562 q -0.0937,-0.17187 -0.14062,-0.40625 -0.0469,-0.25 -0.0781,-0.51562 -0.21875,0.21875 -0.48437,0.42187 -0.26563,0.1875 -0.59375,0.34375 -0.32813,0.14063 -0.70313,0.21875 -0.35937,0.0937 -0.76562,0.0937 -0.67188,0 -1.21875,-0.1875 -0.54688,-0.20312 -0.92188,-0.53125 -0.375,-0.34375 -0.59375,-0.79687 -0.20312,-0.45313 -0.20312,-0.98438 0,-0.70312 0.28125,-1.21875 0.28125,-0.53125 0.78125,-0.875 0.51562,-0.34375 1.21875,-0.51562 0.71875,-0.17188 1.60937,-0.17188 h 1.57813 v -0.67187 q 0,-0.375 -0.14063,-0.67188 -0.14062,-0.3125 -0.40625,-0.53125 -0.25,-0.21875 -0.625,-0.32812 -0.375,-0.125 -0.82812,-0.125 -0.4375,0 -0.78125,0.10937 -0.32813,0.10938 -0.5625,0.29688 -0.23438,0.17187 -0.375,0.42187 -0.125,0.25 -0.125,0.51563 h -1.45313 q 0.0156,-0.46875 0.23438,-0.90625 0.23437,-0.45313 0.67187,-0.79688 0.4375,-0.35937 1.04688,-0.57812 0.625,-0.21875 1.42187,-0.21875 0.71875,0 1.32813,0.17187 0.625,0.17188 1.0625,0.53125 0.45312,0.35938 0.70312,0.89063 0.26563,0.53125 0.26563,1.23437 v 3.9375 q 0,0.42188 0.0781,0.89063 0.0781,0.46875 0.21875,0.82812 v 0.125 z m -2.5625,-1.10937 q 0.42188,0 0.78125,-0.10938 0.375,-0.10937 0.67188,-0.28125 0.3125,-0.1875 0.53125,-0.40625 0.21875,-0.23437 0.34375,-0.48437 v -1.71875 h -1.34375 q -1.26563,0 -1.96875,0.375 -0.70313,0.375 -0.70313,1.1875 0,0.3125 0.0937,0.57812 0.10938,0.26563 0.3125,0.45313 0.21875,0.1875 0.53125,0.29687 0.32813,0.10938 0.75,0.10938 z m 6.83594,-10.89063 h 4.3125 v 10.75 h 2.76563 v 1.25 h -7.07813 v -1.25 h 2.875 v -9.5 h -2.875 z m 9.60156,0 h 4.3125 v 10.75 h 2.76563 v 1.25 h -7.07813 v -1.25 h 2.875 v -9.5 h -2.875 z m 14.99219,9.75 q 0,-0.25 -0.10937,-0.45312 -0.0937,-0.21875 -0.34375,-0.39063 -0.23438,-0.17187 -0.64063,-0.3125 -0.39062,-0.14062 -0.98437,-0.26562 -0.73438,-0.14063 -1.32813,-0.34375 -0.59375,-0.21875 -1.03125,-0.51563 -0.42187,-0.29687 -0.65625,-0.6875 -0.23437,-0.39062 -0.23437,-0.92187 0,-0.51563 0.23437,-0.95313 0.25,-0.45312 0.6875,-0.78125 0.4375,-0.34375 1.04688,-0.53125 0.60937,-0.20312 1.32812,-0.20312 0.78125,0 1.40625,0.20312 0.625,0.20313 1.0625,0.5625 0.4375,0.35938 0.67188,0.84375 0.25,0.46875 0.25,1.03125 h -1.45313 q 0,-0.28125 -0.14062,-0.53125 -0.14063,-0.26562 -0.39063,-0.46875 -0.25,-0.20312 -0.60937,-0.32812 -0.34375,-0.125 -0.79688,-0.125 -0.45312,0 -0.8125,0.10937 -0.34375,0.0937 -0.57812,0.26563 -0.21875,0.17187 -0.34375,0.40625 -0.10938,0.21875 -0.10938,0.45312 0,0.25 0.0937,0.45313 0.0937,0.1875 0.3125,0.34375 0.23438,0.15625 0.625,0.28125 0.39063,0.125 0.98438,0.25 0.78125,0.15625 1.39062,0.375 0.625,0.21875 1.04688,0.51562 0.42187,0.29688 0.64062,0.70313 0.21875,0.39062 0.21875,0.92187 0,0.5625 -0.25,1.03125 -0.25,0.45313 -0.70312,0.78125 -0.45313,0.32813 -1.09375,0.51563 -0.625,0.17187 -1.375,0.17187 -0.85938,0 -1.53125,-0.23437 -0.67188,-0.23438 -1.14063,-0.60938 -0.46875,-0.375 -0.71875,-0.875 -0.23437,-0.5 -0.23437,-1.04687 h 1.4375 q 0.0312,0.45312 0.23437,0.76562 0.21875,0.29688 0.51563,0.48438 0.3125,0.1875 0.6875,0.26562 0.375,0.0781 0.75,0.0781 0.90625,0 1.4375,-0.32813 0.53125,-0.34375 0.54687,-0.90625 z"
       id="path29"
       inkscape:connector-curvature="0"
       style="fill:#000000;fill-rule:nonzero" />
    <defs
       id="defs36">
      <linearGradient
         id="p.1"
         gradientUnits="userSpaceOnUse"
         gradientTransform="scale(5.7891087)"
         spreadMethod="pad"
         x1="57.351791"
         y1="49.415241"
         x2="57.351852"
         y2="43.626133">
        <stop
           offset="0.0"
           stop-color="#ff0000"
           stop-opacity="0.0"
           id="stop31" />
        <stop
           offset="1.0"
           stop-color="#ff0000"
           id="stop33" />
      </linearGradient>
    </defs>
    <path
       d="m 154,252.55643 h 178.01575 v 33.51181 H 154 Z"
       id="path38"
       inkscape:connector-curvature="0"
       style="fill:url(#p.1);fill-rule:evenodd" />
    <path
       d="m 337,256.64572 c 7.30142,5.37808 30.80841,27.79364 43.8085,32.26849 13.00006,4.47486 28.49332,-4.51617 34.19199,-5.4194"
       id="path40"
       inkscape:connector-curvature="0"
       style="fill:#000000;fill-opacity:0;fill-rule:evenodd" />
    <path
       d="m 342.32022,260.96716 0.31995,0.27008 c 0.77743,0.6586 1.59863,1.35809 2.45706,2.09003 3.43365,2.92767 7.4628,6.37365 11.66998,9.79141 8.41446,6.83551 17.54123,13.5581 24.04126,15.79553 13.00009,4.47485 28.49338,-4.51617 34.19202,-5.4194"
       id="path42"
       inkscape:connector-curvature="0"
       style="fill-rule:evenodd;stroke:#000000;stroke-width:2;stroke-linecap:butt;stroke-linejoin:round" />
    <path
       d="m 342.32022,260.96716 3.16388,-0.32776 -6.21463,-2.15027 3.37851,5.64191 z"
       id="path44"
       inkscape:connector-curvature="0"
       style="fill:#000000;fill-rule:evenodd;stroke:#000000;stroke-width:2;stroke-linecap:butt" />
    <path
       d="m 399.78217,258.97394 95.90549,-60.0945 22.29923,35.59055 -95.90553,60.0945 z"
       id="path46"
       inkscape:connector-curvature="0"
       style="fill:#000000;fill-opacity:0;fill-rule:evenodd" />
    <path
       d="m 425.01248,268.51898 q -0.28207,-0.4502 -0.67148,-0.63028 -0.38943,-0.18011 -0.83163,-0.1796 -0.4505,-0.0127 -0.91745,0.0955 -0.47522,0.0949 -0.89414,0.1915 -0.61593,0.16467 -1.28659,0.27142 -0.66568,0.0852 -1.31003,0.028 -0.65261,-0.0705 -1.22103,-0.35965 -0.55518,-0.29752 -0.94507,-0.91983 -0.38993,-0.62232 -0.43207,-1.27814 -0.0289,-0.66415 0.20065,-1.26895 0.23447,-0.62634 0.68271,-1.14691 0.46149,-0.52887 1.03085,-0.88562 0.63553,-0.39826 1.35083,-0.55142 0.70704,-0.16645 1.3978,-0.0645 0.68247,0.0887 1.28738,0.46561 0.6099,0.35541 1.03794,1.00915 l -1.25784,0.78815 q -0.31012,-0.37729 -0.68473,-0.62198 -0.36133,-0.25299 -0.7622,-0.33371 -0.40921,-0.0939 -0.84968,-0.002 -0.42718,0.0833 -0.86413,0.35709 -0.34424,0.2157 -0.62213,0.53732 -0.27295,0.30011 -0.4133,0.66464 -0.12714,0.35624 -0.10352,0.74711 0.0236,0.39086 0.26422,0.77484 0.27042,0.40216 0.65152,0.569 0.39438,0.15857 0.82334,0.16635 0.4422,-4.9e-4 0.8959,-0.1004 0.45368,-0.0999 0.82953,-0.20633 0.43216,-0.10483 0.88092,-0.18317 0.45368,-0.0999 0.90082,-0.12195 0.46042,-0.0303 0.90103,0.0255 0.43231,0.0426 0.83496,0.21436 0.40762,0.15027 0.75076,0.43307 0.34812,0.26133 0.62186,0.69825 0.40653,0.6488 0.42218,1.32122 0.007,0.65921 -0.25696,1.26737 -0.25106,0.59985 -0.7258,1.13702 -0.46978,0.51563 -1.03912,0.87238 -0.64877,0.40652 -1.39551,0.59787 -0.73352,0.18301 -1.45569,0.11923 -0.71725,-0.0853 -1.3536,-0.4241 -0.64469,-0.35205 -1.10254,-1.02399 l 1.25784,-0.78818 q 0.33502,0.41703 0.73608,0.64511 0.40107,0.22812 0.84998,0.29718 0.44061,0.0558 0.89926,-0.0656 0.45862,-0.12146 0.90878,-0.40353 0.35752,-0.224 0.65198,-0.51914 0.2862,-0.30841 0.43485,-0.6597 0.15362,-0.37283 0.15152,-0.75875 -0.0104,-0.39914 -0.25925,-0.79636 z m 1.94284,-10.21567 1.08679,1.73456 2.72751,-1.70908 0.58902,0.9401 -2.72754,1.70907 2.43903,3.89277 q 0.26547,0.4237 0.54562,0.6354 0.27182,0.19843 0.55676,0.24118 0.28492,0.0427 0.56473,-0.0404 0.29303,-0.0914 0.55783,-0.25736 0.19861,-0.12445 0.40216,-0.27041 0.19525,-0.15924 0.37729,-0.31018 0.18695,-0.17246 0.3342,-0.32004 0.14722,-0.14756 0.24979,-0.24872 l 0.71966,0.76605 q -0.1008,0.19223 -0.28442,0.39948 -0.17035,0.19894 -0.40198,0.41784 -0.21838,0.21057 -0.49307,0.41959 -0.26148,0.20071 -0.55277,0.38324 -0.47665,0.29867 -0.97006,0.42346 -0.50171,0.11154 -0.98877,0.011 -0.48703,-0.10047 -0.96274,-0.44776 -0.47079,-0.3688 -0.88559,-1.03085 l -2.43902,-3.89276 -1.88013,1.1781 -0.58902,-0.94009 1.88013,-1.1781 -1.08676,-1.73456 z m 10.94077,-4.62436 q 0.17211,-0.10785 0.36578,-0.21075 0.18536,-0.11617 0.36084,-0.18924 0.18872,-0.0814 0.35925,-0.1329 0.16223,-0.0648 0.27982,-0.0831 l 0.57452,1.29951 q -0.40729,0.14456 -0.74164,0.3172 -0.34265,0.15939 -0.70016,0.38339 -0.86063,0.53928 -1.14136,1.26836 -0.28903,0.71585 -0.10092,1.57522 l 2.87872,4.59455 -1.23138,0.77157 -4.4881,-7.16324 1.16513,-0.7301 0.76642,1.10553 q 0.0636,-0.86963 0.4653,-1.58227 0.40659,-0.73421 1.18778,-1.2237 z m 5.37304,1.70398 q -0.48117,-0.76796 -0.6709,-1.57104 -0.19799,-0.81632 -0.0812,-1.5717 0.11673,-0.7554 0.53833,-1.4068 0.43484,-0.65969 1.18954,-1.13259 0.7547,-0.4729 1.538,-0.57649 0.78326,-0.10358 1.50067,0.12914 0.73065,0.22442 1.37881,0.75866 0.63989,0.521 1.12106,1.28896 l 0.0913,0.14564 q 0.48947,0.78121 0.6792,1.58429 0.1897,0.80307 0.073,1.55848 -0.10352,0.7471 -0.53836,1.40678 -0.4216,0.65141 -1.1763,1.12431 -0.76795,0.48117 -1.55124,0.58478 -0.77002,0.0953 -1.50067,-0.12915 -0.73065,-0.22443 -1.37055,-0.74542 -0.63986,-0.521 -1.12933,-1.3022 z m 1.3226,-0.62591 q 0.33185,0.52963 0.75797,0.94487 0.43106,0.39369 0.91492,0.60679 0.47555,0.19989 0.99224,0.17115 0.51673,-0.0288 1.03312,-0.35233 0.50311,-0.31526 0.74112,-0.75941 0.25125,-0.45246 0.2788,-0.96758 0.0325,-0.53668 -0.14697,-1.08801 -0.17453,-0.57288 -0.50638,-1.10251 l -0.0912,-0.14565 q -0.32355,-0.51638 -0.75461,-0.91009 -0.43936,-0.40694 -0.91492,-0.6068 -0.48386,-0.21312 -1.00055,-0.18437 -0.51672,0.0288 -1.01987,0.34401 -0.51635,0.32356 -0.7676,0.77602 -0.23801,0.44415 -0.25727,0.97253 -0.0276,0.51512 0.14698,1.088 0.17947,0.55133 0.50302,1.06772 z m 6.05841,-8.88538 0.75638,1.00119 q 0.0355,-0.79672 0.40576,-1.47124 0.37024,-0.67453 1.072,-1.11424 0.56933,-0.35675 1.11904,-0.47993 0.56296,-0.1315 1.09644,0.0136 0.53842,0.1236 1.03409,0.53214 0.50891,0.40024 0.95688,1.11523 l 2.85382,4.55483 -1.23136,0.77157 -2.83722,-4.52833 q -0.29867,-0.47667 -0.61199,-0.74132 -0.31333,-0.26465 -0.6496,-0.33052 -0.33133,-0.0874 -0.69394,0.0107 -0.36261,0.0981 -0.74658,0.33873 -0.62229,0.38993 -0.8866,0.99809 -0.27261,0.59491 -0.23541,1.27229 l 3.21881,5.13741 -1.23136,0.77157 -4.48812,-7.16325 z m 9.01896,-0.74649 q -0.50608,-0.80769 -0.72226,-1.59418 -0.22449,-0.79973 -0.15241,-1.50869 0.0638,-0.7222 0.42746,-1.31888 0.35541,-0.60991 1.01743,-1.02474 0.66201,-0.41482 1.31448,-0.49176 0.6442,-0.0902 1.27051,0.14431 l -0.42328,-0.82268 1.11221,-0.69692 4.38855,7.00437 q 0.448,0.71499 0.56305,1.39891 0.12332,0.69714 -0.0333,1.33003 -0.15662,0.63287 -0.58829,1.17993 -0.43167,0.54706 -1.10693,0.97019 -0.27805,0.17422 -0.67701,0.33203 -0.39068,0.17103 -0.85266,0.25769 -0.462,0.0866 -0.95556,0.064 -0.48035,-0.0309 -0.9476,-0.21754 l 0.17095,-1.13971 q 0.3993,0.13701 0.75379,0.17305 0.35446,0.036 0.65915,-0.007 0.32623,-0.0385 0.59775,-0.13484 0.28476,-0.10466 0.53631,-0.2623 0.43695,-0.27379 0.69824,-0.6219 0.28281,-0.34317 0.36353,-0.74408 0.10223,-0.39596 0.0106,-0.83642 -0.0916,-0.44048 -0.38196,-0.9039 l -0.38989,-0.62232 q -0.10031,0.63448 -0.44919,1.16654 -0.34393,0.51052 -0.99271,0.91705 -0.64877,0.40652 -1.3526,0.46033 -0.70385,0.0538 -1.38153,-0.2038 -0.67767,-0.25761 -1.29107,-0.7952 -0.62171,-0.55084 -1.10288,-1.3188 z m 1.3143,-0.63917 q 0.33184,0.52963 0.73642,0.93992 0.3963,0.39707 0.85861,0.60523 0.46231,0.20816 0.95254,0.19601 0.49518,-0.0337 0.99829,-0.34897 0.31778,-0.19911 0.52787,-0.42294 0.21502,-0.24538 0.33068,-0.50223 0.10737,-0.2701 0.15009,-0.55502 0.0344,-0.29817 0.004,-0.61118 l -2.0574,-3.2837 q -0.26019,-0.15043 -0.53525,-0.23624 -0.27502,-0.0858 -0.56982,-0.0855 -0.28156,-0.008 -0.58292,0.0702 -0.30133,0.0782 -0.60586,0.26899 -0.51639,0.32357 -0.75437,0.76772 -0.22476,0.43587 -0.2308,0.95595 -0.0143,0.50683 0.17837,1.04986 0.18445,0.5298 0.5163,1.05943 z"
       id="path48"
       inkscape:connector-curvature="0"
       style="fill:#000000;fill-rule:nonzero" />
    <path
       d="m 427.2927,282.9293 3.65439,-2.28983 3.82443,6.10398 2.34357,-1.46848 0.66366,1.05927 -5.99792,3.7583 -0.66367,-1.05927 2.43625,-1.52655 -3.16076,-5.04474 -2.43625,1.52655 z m 1.09933,-3.30719 q -0.19079,-0.30453 -0.15139,-0.62424 0.0526,-0.328 0.42334,-0.5603 0.37072,-0.2323 0.68884,-0.1366 0.31811,0.0957 0.50891,0.40024 0.1825,0.29129 0.12158,0.60605 -0.0609,0.31476 -0.43167,0.54706 -0.37073,0.2323 -0.68051,0.14984 -0.29657,-0.0908 -0.4791,-0.38205 z m 14.89838,0.6033 q -0.13272,-0.21185 -0.33325,-0.32593 -0.19559,-0.13559 -0.49869,-0.14849 -0.28989,-0.0212 -0.7088,0.0753 -0.40567,0.0883 -0.97516,0.29758 -0.69696,0.27078 -1.30795,0.41391 -0.6193,0.12991 -1.14765,0.11063 -0.5151,-0.0276 -0.92111,-0.23413 -0.406,-0.20658 -0.68808,-0.65677 -0.27377,-0.43695 -0.30743,-0.93213 -0.0288,-0.51673 0.16778,-1.02707 0.18821,-0.52362 0.60505,-1.00607 0.4085,-0.49567 1.01757,-0.87732 0.66202,-0.41483 1.2995,-0.57456 0.63745,-0.15973 1.19901,-0.0875 0.56152,0.0722 1.0173,0.35824 0.46073,0.2645 0.7594,0.74115 l -1.23138,0.77158 q -0.14933,-0.23834 -0.40122,-0.37552 -0.26019,-0.15042 -0.57989,-0.18982 -0.31971,-0.0394 -0.69059,0.0455 -0.35766,0.0766 -0.74163,0.31717 -0.38398,0.2406 -0.63044,0.52411 -0.24151,0.26197 -0.34884,0.53208 -0.0941,0.26178 -0.0756,0.52676 0.0234,0.24347 0.14788,0.44208 0.13273,0.21185 0.32004,0.3342 0.17899,0.1091 0.4473,0.12536 0.28158,0.008 0.67895,-0.0935 0.39737,-0.10148 0.96689,-0.31083 0.74497,-0.28241 1.3775,-0.42059 0.64576,-0.14651 1.16086,-0.11893 0.51514,0.0276 0.9162,0.25568 0.39276,0.21487 0.67481,0.66504 0.29867,0.47668 0.33569,1.00665 0.0288,0.51673 -0.181,1.03537 -0.20978,0.51865 -0.65308,1.0177 -0.43835,0.47751 -1.07391,0.87573 -0.72821,0.4563 -1.422,0.61445 -0.69378,0.15814 -1.2901,0.0893 -0.59631,-0.0689 -1.07364,-0.35983 -0.46405,-0.29929 -0.75442,-0.7627 l 1.21811,-0.76327 q 0.26709,0.36737 0.60513,0.52435 0.34299,0.13541 0.69409,0.13669 0.36438,-0.007 0.72364,-0.13996 0.35922,-0.13293 0.677,-0.33203 0.76794,-0.4812 1.04391,-1.04135 0.26767,-0.57336 -0.0178,-1.05832 z m 1.93039,-3.64352 q -0.48117,-0.76798 -0.6709,-1.57105 -0.198,-0.81631 -0.0813,-1.57171 0.11676,-0.75541 0.53836,-1.4068 0.43485,-0.6597 1.18955,-1.1326 0.7547,-0.4729 1.53799,-0.57648 0.78327,-0.10358 1.50067,0.12915 0.73066,0.22443 1.37882,0.75867 0.63989,0.52099 1.12106,1.28894 l 0.0913,0.14566 q 0.48947,0.78119 0.67917,1.58429 0.18973,0.80307 0.073,1.55847 -0.10349,0.74707 -0.53833,1.40677 -0.4216,0.6514 -1.1763,1.1243 -0.76795,0.4812 -1.55124,0.58478 -0.77002,0.0953 -1.50067,-0.12912 -0.73066,-0.22443 -1.37055,-0.74543 -0.63986,-0.52099 -1.12933,-1.30221 z m 1.3226,-0.62595 q 0.33185,0.52963 0.75797,0.94489 0.43106,0.3937 0.91491,0.60681 0.47556,0.19986 0.99225,0.17111 0.51673,-0.0288 1.03308,-0.35229 0.50315,-0.31528 0.74115,-0.75943 0.25122,-0.45246 0.27881,-0.96759 0.0325,-0.53666 -0.14697,-1.08799 -0.17453,-0.57287 -0.50638,-1.10251 l -0.0913,-0.14566 q -0.32354,-0.51638 -0.75461,-0.91009 -0.43936,-0.40692 -0.91491,-0.60681 -0.48386,-0.21311 -1.00058,-0.18436 -0.51669,0.0288 -1.01984,0.34403 -0.51639,0.32354 -0.76761,0.776 -0.238,0.44415 -0.25729,0.97253 -0.0276,0.51514 0.14697,1.08801 0.17951,0.55133 0.50305,1.06772 z m 3.27487,-11.32684 3.65436,-2.28983 5.70764,9.10962 2.34354,-1.46847 0.6637,1.05926 -5.99793,3.7583 -0.66367,-1.05926 2.43622,-1.52655 -5.04394,-8.05036 -2.43625,1.52655 z m 19.02256,2.24161 q -0.17072,-0.0959 -0.33487,-0.2696 -0.17246,-0.18695 -0.33997,-0.39544 -0.0692,0.30151 -0.18646,0.61468 -0.12555,0.29993 -0.32062,0.60657 -0.2034,0.2934 -0.47968,0.55872 -0.25476,0.27026 -0.59899,0.48596 -0.56937,0.35675 -1.13233,0.48822 -0.57126,0.11825 -1.06323,0.0393 -0.50031,-0.0922 -0.92624,-0.35998 -0.41272,-0.27615 -0.69476,-0.72632 -0.37332,-0.59586 -0.40879,-1.18213 -0.0437,-0.59952 0.19745,-1.15631 0.25443,-0.56506 0.75901,-1.08404 0.51779,-0.52732 1.27249,-1.00022 l 1.33731,-0.83792 -0.35675,-0.56937 q -0.1991,-0.31778 -0.47589,-0.49469 -0.28507,-0.19012 -0.62632,-0.23446 -0.32797,-0.0526 -0.70382,0.0538 -0.38413,0.0932 -0.7681,0.3338 -0.37076,0.2323 -0.60397,0.50751 -0.21997,0.26691 -0.31903,0.55023 -0.10733,0.27011 -0.0938,0.55661 0.0268,0.27823 0.16784,0.50333 l -1.23135,0.77157 q -0.23563,-0.40551 -0.28256,-0.89242 -0.042,-0.50843 0.14624,-1.03202 0.17993,-0.53683 0.58017,-1.04577 0.41348,-0.51721 1.08874,-0.94034 0.60904,-0.38165 1.21668,-0.55957 0.62088,-0.18619 1.1824,-0.11395 0.5748,0.0639 1.06869,0.38138 0.50718,0.30914 0.8805,0.90496 l 2.09057,3.33667 q 0.224,0.35752 0.53907,0.71323 0.31509,0.35574 0.62506,0.58563 l 0.0664,0.10593 z m -2.76044,0.42053 q 0.35748,-0.224 0.60394,-0.50751 0.25971,-0.29181 0.42001,-0.59509 0.16526,-0.3248 0.23447,-0.62634 0.0609,-0.31476 0.0341,-0.59299 l -0.91257,-1.45648 -1.13867,0.7135 q -1.07248,0.67203 -1.46918,1.36313 -0.39673,0.69113 0.0347,1.37964 0.16593,0.26483 0.38638,0.44015 0.23374,0.16699 0.50541,0.21805 0.28491,0.0427 0.60778,-0.0305 0.33612,-0.0815 0.69364,-0.30554 z m 3.50784,-13.27988 1.08676,1.73454 2.72754,-1.70907 0.58902,0.94009 -2.72754,1.70906 2.43903,3.89279 q 0.26547,0.42371 0.54562,0.63538 0.27182,0.19846 0.55673,0.24118 0.28495,0.0428 0.56473,-0.0404 0.29306,-0.0914 0.55786,-0.25736 0.19861,-0.12445 0.40216,-0.27044 0.19526,-0.15922 0.37729,-0.31016 0.18695,-0.17245 0.33417,-0.32003 0.14725,-0.14759 0.24982,-0.24872 l 0.71966,0.76602 q -0.1008,0.19223 -0.28442,0.39948 -0.17035,0.19897 -0.40198,0.41784 -0.21838,0.2106 -0.4931,0.41962 -0.26145,0.20068 -0.55274,0.38321 -0.47665,0.29867 -0.97006,0.42346 -0.50171,0.11154 -0.98877,0.0111 -0.48703,-0.1005 -0.96277,-0.44776 -0.47076,-0.36883 -0.88556,-1.03085 l -2.43902,-3.89279 -1.88013,1.1781 -0.58902,-0.94009 1.88013,-1.1781 -1.08676,-1.73453 z m 6.52197,-1.67116 3.65436,-2.28982 3.82446,6.10399 2.34354,-1.46849 0.6637,1.05926 -5.99793,3.75832 -0.66369,-1.05927 2.43625,-1.52655 -3.16077,-5.04474 -2.43625,1.52655 z m 1.09934,-3.30719 q -0.19083,-0.30453 -0.15143,-0.62423 0.0526,-0.32801 0.42337,-0.56031 0.37073,-0.2323 0.68884,-0.13659 0.31809,0.0957 0.50891,0.40024 0.1825,0.29129 0.12159,0.60604 -0.0609,0.31478 -0.43167,0.54708 -0.37073,0.2323 -0.68055,0.14984 -0.29657,-0.0908 -0.47906,-0.38207 z m 8.6925,2.05796 q -0.48117,-0.76796 -0.67089,-1.57103 -0.198,-0.81633 -0.0813,-1.57172 0.11676,-0.7554 0.53836,-1.4068 0.43484,-0.65968 1.18954,-1.13258 0.7547,-0.4729 1.538,-0.57649 0.78326,-0.10358 1.50067,0.12913 0.73065,0.22443 1.37881,0.75867 0.6399,0.52099 1.12107,1.28895 l 0.0912,0.14565 q 0.48947,0.7812 0.67917,1.58429 0.18973,0.80307 0.073,1.55847 -0.10349,0.7471 -0.53833,1.4068 -0.4216,0.65138 -1.1763,1.12428 -0.76794,0.4812 -1.55124,0.58478 -0.77002,0.0953 -1.50067,-0.12914 -0.73065,-0.22441 -1.37055,-0.7454 -0.63986,-0.521 -1.12933,-1.3022 z m 1.3226,-0.62592 q 0.33185,0.52963 0.75797,0.94487 0.43106,0.39369 0.91492,0.60681 0.47555,0.19986 0.99225,0.17111 0.51672,-0.0287 1.03308,-0.35231 0.50314,-0.31526 0.74115,-0.75941 0.25122,-0.45245 0.27881,-0.96758 0.0325,-0.53668 -0.14698,-1.08801 -0.17453,-0.57287 -0.50638,-1.10251 l -0.0912,-0.14564 q -0.32355,-0.51639 -0.75461,-0.91008 -0.43936,-0.40695 -0.91492,-0.60681 -0.48385,-0.21312 -1.00058,-0.18437 -0.51669,0.0287 -1.01983,0.344 -0.51636,0.32357 -0.76761,0.77602 -0.23801,0.44415 -0.2573,0.97254 -0.0275,0.51512 0.14698,1.08799 0.1795,0.55133 0.50305,1.06774 z m 6.05842,-8.88537 0.75634,1.00119 q 0.0356,-0.79671 0.4058,-1.47124 0.37023,-0.67453 1.07199,-1.11424 0.56933,-0.35675 1.11905,-0.47994 0.56295,-0.13148 1.09643,0.0137 0.53842,0.12359 1.03409,0.53213 0.50891,0.40024 0.95688,1.11524 l 2.85382,4.55482 -1.23136,0.77158 -2.83721,-4.52834 q -0.29868,-0.47667 -0.612,-0.74132 -0.31333,-0.26464 -0.6496,-0.33052 -0.33136,-0.0874 -0.69394,0.0107 -0.36261,0.0982 -0.74658,0.33875 -0.62232,0.38992 -0.88663,0.99807 -0.27258,0.59493 -0.23541,1.2723 l 3.21884,5.1374 -1.23135,0.77158 -4.48813,-7.16324 z"
       id="path50"
       inkscape:connector-curvature="0"
       style="fill:#000000;fill-rule:nonzero" />
    <path
       d="m 154,164.55643 h 178.01575 v 64 H 154 Z"
       id="path52"
       inkscape:connector-curvature="0"
       style="fill:#fcbcfb;fill-rule:evenodd" />
    <path
       d="m 154,164.55643 h 178.01575 v 64 H 154 Z"
       id="path54"
       inkscape:connector-curvature="0"
       style="fill-rule:evenodd;stroke:#000000;stroke-width:1;stroke-linecap:butt;stroke-linejoin:round" />
    <path
       d="M 87.98425,151.55643 H 138"
       id="path58"
       inkscape:connector-curvature="0"
       style="fill:#000000;fill-opacity:0;fill-rule:evenodd" />
    <path
       d="m 354,151.55643 h 65.00787"
       id="path62"
       inkscape:connector-curvature="0"
       style="fill:#000000;fill-opacity:0;fill-rule:evenodd" />
    <path
       d="m 138,130.5643 h 216 v 41.98425 H 138 Z"
       id="path66"
       inkscape:connector-curvature="0"
       style="fill:#000000;fill-opacity:0;fill-rule:evenodd" />
    <path
       d="m 336.99994,187.75853 c 8.05035,2.31046 33.96857,11.94028 48.30212,13.8627 14.33353,1.92241 31.41599,-1.94017 37.69919,-2.3282"
       id="path70"
       inkscape:connector-curvature="0"
       style="fill:#000000;fill-opacity:0;fill-rule:evenodd" />
    <path
       d="m 343.53204,189.83495 2.39569,0.79401 c 3.78589,1.25775 8.2283,2.73816 12.8671,4.20643 9.27752,2.93657 19.34042,5.82463 26.5072,6.78585 14.33359,1.9224 31.41602,-1.94017 37.69925,-2.32822"
       id="path72"
       inkscape:connector-curvature="0"
       style="fill-rule:evenodd;stroke:#000000;stroke-width:2;stroke-linecap:butt;stroke-linejoin:round" />
    <path
       d="m 343.53204,189.83495 2.82486,-1.46211 -6.57053,0.27144 5.2078,4.01551 z"
       id="path74"
       inkscape:connector-curvature="0"
       style="fill:#000000;fill-rule:evenodd;stroke:#000000;stroke-width:2;stroke-linecap:butt" />
    <path
       d="m 415,176.97379 109.54333,-68.62992 22.2992,35.59055 -109.54331,68.62991 z"
       id="path76"
       inkscape:connector-curvature="0"
       style="fill:#000000;fill-opacity:0;fill-rule:evenodd" />
    <path
       d="m 430.67307,182.47739 5.82602,-3.65006 0.6637,1.05925 -2.30393,1.44344 4.7121,7.52075 2.30392,-1.44343 0.6637,1.05926 -5.82605,3.65006 -0.66367,-1.05925 2.26419,-1.41855 -4.71209,-7.52075 -2.26422,1.41855 z m 10.78693,-3.31015 0.75637,1.00119 q 0.0356,-0.79669 0.40583,-1.47118 0.37024,-0.67448 1.07202,-1.11415 0.56936,-0.35672 1.11911,-0.47987 0.56299,-0.13147 1.09646,0.0137 0.53843,0.12363 1.03409,0.53218 0.50891,0.40024 0.95691,1.11525 l 2.85382,4.55481 -1.23141,0.7715 -2.83722,-4.52833 q -0.29868,-0.47667 -0.612,-0.74134 -0.31332,-0.26465 -0.64963,-0.33053 -0.33133,-0.0874 -0.69397,0.0107 -0.36261,0.0981 -0.74658,0.3387 -0.62235,0.3899 -0.88666,0.99802 -0.27264,0.59488 -0.23544,1.27223 l 3.21884,5.13741 -1.23141,0.7715 -4.48813,-7.16326 z m 9.01922,-0.74605 q -0.50607,-0.80769 -0.72223,-1.59416 -0.22448,-0.79971 -0.1524,-1.50865 0.077,-0.73049 0.44076,-1.32712 0.35541,-0.60989 1.00421,-1.01637 0.64884,-0.40648 1.25824,-0.49327 0.60941,-0.0868 1.2241,0.0997 l -2.32288,-3.70741 1.21817,-0.76318 6.37131,10.16888 -1.12549,0.70514 -0.52582,-0.72154 q -0.0837,0.66092 -0.44586,1.20125 -0.34891,0.53202 -1.01096,0.9468 -0.6488,0.40648 -1.35266,0.46025 -0.69061,0.0455 -1.36831,-0.21215 -0.67771,-0.25763 -1.30436,-0.78695 -0.6217,-0.55084 -1.10287,-1.3188 z m 1.30112,-0.6308 q 0.33185,0.52964 0.73642,0.93994 0.40954,0.38877 0.87186,0.59694 0.46234,0.20818 0.95257,0.19605 0.49518,-0.0337 0.99835,-0.34889 0.31778,-0.1991 0.5279,-0.42292 0.20178,-0.23706 0.31744,-0.49391 0.12891,-0.26513 0.17163,-0.55005 0.0345,-0.29815 0.0126,-0.59791 l -2.08227,-3.32343 q -0.51212,-0.28763 -1.0968,-0.30851 -0.57974,-0.0424 -1.18885,0.33917 -0.51638,0.32353 -0.75439,0.76765 -0.22476,0.43584 -0.23083,0.9559 -0.0143,0.50682 0.16516,1.05816 0.18441,0.52978 0.51626,1.05941 z m 12.58951,-2.81691 q -0.75473,0.47284 -1.54795,0.61946 -0.78823,0.12508 -1.52877,-0.0563 -0.74057,-0.18137 -1.39035,-0.65932 -0.64978,-0.47793 -1.12265,-1.23265 l -0.17423,-0.27806 q -0.53921,-0.86064 -0.69257,-1.72337 -0.15332,-0.86273 0.007,-1.6082 0.1648,-0.76702 0.58979,-1.38361 0.4382,-0.62486 1.0473,-1.00647 0.78122,-0.48944 1.51648,-0.58133 0.74853,-0.10019 1.43118,0.1359 0.68265,0.2361 1.27451,0.76875 0.59683,0.51112 1.0614,1.25261 l 0.34845,0.55611 -5.12427,3.2104 q 0.33344,0.47331 0.76608,0.81071 0.4376,0.31586 0.92801,0.45113 0.50367,0.12698 1.03028,0.0552 0.52661,-0.0718 1.01651,-0.37872 0.66204,-0.41478 0.99929,-0.99483 0.35047,-0.58835 0.40775,-1.23268 l 1.11975,0.10974 q -0.0112,0.3942 -0.11835,0.81168 -0.11551,0.40425 -0.34857,0.82684 -0.22812,0.40106 -0.60364,0.80228 -0.3623,0.39291 -0.89193,0.72474 z m -4.18244,-6.32222 q -0.37076,0.23227 -0.6188,0.57207 -0.24808,0.3398 -0.34699,0.77052 -0.0989,0.43074 -0.0437,0.93085 0.0601,0.47859 0.29593,1.03151 l 3.85315,-2.41402 -0.0581,-0.0927 q -0.23725,-0.34921 -0.57212,-0.6188 -0.34314,-0.28284 -0.74246,-0.41988 -0.39932,-0.13702 -0.85144,-0.0935 -0.43887,0.0353 -0.91553,0.3339 z m 12.92417,-4.22508 q 0.48117,0.76796 0.71887,1.55939 0.22943,0.77817 0.17886,1.49206 -0.0505,0.71389 -0.40597,1.32376 -0.35541,0.60988 -1.0307,1.03296 -0.64881,0.40648 -1.2847,0.50986 -0.6359,0.10339 -1.24228,-0.0699 l 2.15695,3.44259 -1.21817,0.7632 -6.21368,-9.91733 1.11224,-0.69682 0.55566,0.73972 q 0.0754,-0.67417 0.43757,-1.2145 0.35382,-0.55355 1.02911,-0.97664 0.68854,-0.43136 1.39239,-0.48513 0.69556,-0.067 1.36002,0.19891 0.65616,0.25269 1.26465,0.81183 0.60016,0.5459 1.1062,1.35359 z m -1.3144,0.63909 q -0.33181,-0.52964 -0.74136,-0.9184 -0.40457,-0.41029 -0.88013,-0.61018 -0.47064,-0.22142 -0.97412,-0.20099 -0.50348,0.0204 -1.01989,0.34395 -0.58258,0.365 -0.81885,0.90022 -0.22302,0.52693 -0.19589,1.09994 l 2.16525,3.45584 q 0.50381,0.27439 1.06695,0.29033 0.56318,0.016 1.17225,-0.36564 0.51641,-0.32354 0.75442,-0.76766 0.23801,-0.44414 0.25235,-0.95096 0.006,-0.52006 -0.18668,-1.06309 -0.17947,-0.55133 -0.51132,-1.08095 z m 8.84583,-0.28708 q -0.75473,0.47284 -1.54791,0.61946 -0.78827,0.12507 -1.52881,-0.0563 -0.74054,-0.18138 -1.39035,-0.65932 -0.64978,-0.47795 -1.12265,-1.23267 l -0.17423,-0.27806 q -0.53921,-0.86064 -0.69256,-1.72337 -0.15332,-0.86273 0.007,-1.6082 0.16476,-0.76701 0.58975,-1.38359 0.4382,-0.62488 1.0473,-1.00649 0.78122,-0.48944 1.51651,-0.58132 0.74851,-0.10019 1.43116,0.13589 0.68264,0.2361 1.2745,0.76875 0.59683,0.51113 1.0614,1.25261 l 0.34845,0.55611 -5.12427,3.2104 q 0.33344,0.47331 0.76609,0.81072 0.43762,0.31585 0.92801,0.45114 0.50366,0.12697 1.03027,0.0552 0.52661,-0.0718 1.01651,-0.37872 0.66205,-0.41478 0.9993,-0.99483 0.35049,-0.58834 0.40774,-1.23268 l 1.11975,0.10974 q -0.0112,0.3942 -0.11834,0.81168 -0.11551,0.40425 -0.34858,0.82684 -0.22811,0.40106 -0.60363,0.80228 -0.36231,0.39291 -0.89194,0.72475 z m -4.18243,-6.32222 q -0.37076,0.23228 -0.61881,0.57208 -0.24808,0.3398 -0.34698,0.77052 -0.0989,0.43073 -0.0437,0.93085 0.0602,0.47858 0.29595,1.03149 l 3.85312,-2.41401 -0.0581,-0.0927 q -0.23724,-0.34919 -0.57211,-0.6188 -0.34314,-0.28284 -0.74247,-0.41988 -0.39932,-0.13702 -0.85141,-0.0935 -0.43887,0.0353 -0.91555,0.33391 z m 5.68234,-4.77697 0.75638,1.00119 q 0.0356,-0.79669 0.40579,-1.47117 0.37027,-0.67449 1.07205,-1.11415 0.56937,-0.35672 1.11911,-0.47988 0.56299,-0.13147 1.09647,0.0137 0.53842,0.12362 1.03409,0.53218 0.50891,0.40023 0.9569,1.11525 l 2.85383,4.55481 -1.23142,0.7715 -2.83725,-4.52834 q -0.29864,-0.47667 -0.61197,-0.74133 -0.31332,-0.26465 -0.64963,-0.33054 -0.33133,-0.0874 -0.69397,0.0107 -0.36261,0.0981 -0.74658,0.3387 -0.62234,0.38989 -0.88666,0.99801 -0.27264,0.59488 -0.23544,1.27224 l 3.21884,5.1374 -1.23141,0.7715 -4.48813,-7.16325 z m 9.01922,-0.74604 q -0.50607,-0.8077 -0.72226,-1.59417 -0.22445,-0.79971 -0.15237,-1.50865 0.077,-0.73048 0.44077,-1.32712 0.3554,-0.60989 1.00421,-1.01637 0.64883,-0.40648 1.25824,-0.49327 0.6094,-0.0868 1.22409,0.0997 l -2.32288,-3.7074 1.21817,-0.7632 6.37131,10.16888 -1.12549,0.70514 -0.52582,-0.72154 q -0.0837,0.66092 -0.44589,1.20125 -0.34888,0.53203 -1.01092,0.94681 -0.64881,0.40648 -1.35267,0.46025 -0.69061,0.0455 -1.36831,-0.21216 -0.67771,-0.25763 -1.30435,-0.78694 -0.62171,-0.55084 -1.10288,-1.3188 z m 1.30112,-0.6308 q 0.33185,0.52963 0.73642,0.93994 0.40955,0.38876 0.87186,0.59694 0.46234,0.20817 0.95257,0.19604 0.49518,-0.0337 0.99836,-0.34889 0.31778,-0.1991 0.52786,-0.42291 0.20181,-0.23706 0.31747,-0.4939 0.12891,-0.26515 0.17163,-0.55006 0.0345,-0.29816 0.0126,-0.59792 l -2.08231,-3.32342 q -0.51208,-0.28763 -1.09677,-0.30852 -0.57974,-0.0424 -1.18884,0.33917 -0.51639,0.32353 -0.7544,0.76766 -0.22476,0.43583 -0.23083,0.9559 -0.0143,0.50682 0.16516,1.05815 0.18442,0.52978 0.51626,1.05942 z m 12.58951,-2.81691 q -0.75473,0.47284 -1.54794,0.61946 -0.78824,0.12508 -1.52878,-0.0563 -0.74057,-0.18136 -1.39035,-0.65931 -0.64978,-0.47794 -1.12265,-1.23265 l -0.17423,-0.27806 q -0.53924,-0.86065 -0.69256,-1.72338 -0.15332,-0.86273 0.007,-1.6082 0.16479,-0.76701 0.58978,-1.3836 0.4382,-0.62487 1.0473,-1.00647 0.78122,-0.48944 1.51648,-0.58133 0.74854,-0.10019 1.43118,0.13589 0.68265,0.2361 1.27451,0.76875 0.59683,0.51113 1.0614,1.25261 l 0.34842,0.55611 -5.12424,3.2104 q 0.33344,0.47332 0.76609,0.81072 0.43759,0.31586 0.92801,0.45112 0.50363,0.12699 1.03027,0.0552 0.52661,-0.0718 1.01651,-0.37873 0.66205,-0.41478 0.9993,-0.99482 0.35046,-0.58835 0.40774,-1.23269 l 1.11975,0.10975 q -0.0112,0.39419 -0.11834,0.81167 -0.11551,0.40425 -0.34858,0.82684 -0.22811,0.40107 -0.60363,0.80228 -0.36231,0.39291 -0.89194,0.72475 z m -4.18243,-6.32222 q -0.37076,0.23227 -0.61884,0.57207 -0.24805,0.33979 -0.34695,0.77052 -0.0989,0.43074 -0.0437,0.93085 0.0602,0.47859 0.29596,1.0315 l 3.85315,-2.41401 -0.0581,-0.0927 q -0.23725,-0.34922 -0.57211,-0.61881 -0.34317,-0.28284 -0.74247,-0.41987 -0.39932,-0.13703 -0.85144,-0.0935 -0.43887,0.0353 -0.91552,0.33391 z m 5.68234,-4.77698 0.75635,1.00119 q 0.0356,-0.79668 0.40582,-1.47116 0.37027,-0.6745 1.07205,-1.11417 0.56934,-0.3567 1.11908,-0.47987 0.56299,-0.13145 1.09647,0.0137 0.53842,0.12362 1.03411,0.53216 0.50892,0.40026 0.95691,1.11527 l 2.85382,4.55481 -1.23144,0.7715 -2.83722,-4.52835 q -0.29864,-0.47666 -0.61197,-0.74132 -0.31332,-0.26465 -0.64963,-0.33054 -0.33136,-0.0874 -0.69397,0.0107 -0.36261,0.0981 -0.74661,0.33868 -0.62231,0.3899 -0.88666,0.99802 -0.27261,0.59489 -0.23541,1.27225 l 3.21881,5.1374 -1.23138,0.7715 -4.48813,-7.16325 z m 8.85058,-7.96039 1.0868,1.73455 2.7276,-1.7089 0.58905,0.9401 -2.72766,1.70889 2.43902,3.89278 q 0.26544,0.4237 0.54559,0.6354 0.27185,0.19844 0.55677,0.2412 0.28497,0.0428 0.56476,-0.0404 0.29309,-0.0914 0.55786,-0.25732 0.1986,-0.12442 0.40222,-0.2704 0.19525,-0.15921 0.37726,-0.31012 0.18695,-0.17246 0.33423,-0.32002 0.14721,-0.14757 0.24981,-0.24871 l 0.71967,0.76605 q -0.10083,0.19224 -0.28443,0.39946 -0.17041,0.19893 -0.40203,0.41781 -0.21839,0.21058 -0.49311,0.41957 -0.26147,0.20068 -0.55273,0.38319 -0.47669,0.29863 -0.97016,0.42339 -0.50171,0.11152 -0.98877,0.011 -0.48706,-0.10049 -0.96276,-0.44778 -0.47083,-0.36882 -0.88562,-1.03085 l -2.43897,-3.89278 -1.88025,1.17796 -0.58899,-0.94009 1.88019,-1.17797 -1.08679,-1.73454 z"
       id="path78"
       inkscape:connector-curvature="0"
       style="fill:#000000;fill-rule:nonzero" />
    <path
       d="m 446.8466,203.5236 -0.35284,1.438 1.55136,2.47602 -1.23142,0.77148 -6.37131,-10.16888 1.23142,-0.7715 3.89908,6.22316 0.26846,-1.36669 0.86697,-3.82518 1.49625,-0.93739 -1.03317,4.7959 5.95825,2.09358 -1.54919,0.9706 z m 11.33798,-2.25409 q -0.75473,0.47286 -1.54791,0.61946 -0.78824,0.12509 -1.52881,-0.0563 -0.74054,-0.18138 -1.39035,-0.65932 -0.64978,-0.47793 -1.12265,-1.23266 l -0.17419,-0.27805 q -0.53925,-0.86065 -0.69257,-1.72339 -0.15335,-0.86271 0.007,-1.6082 0.16476,-0.76701 0.58975,-1.38359 0.43824,-0.62487 1.0473,-1.00647 0.78122,-0.48944 1.51651,-0.58134 0.74851,-0.10019 1.43116,0.13591 0.68264,0.2361 1.27453,0.76875 0.5968,0.51113 1.06137,1.25261 l 0.34845,0.55611 -5.12426,3.21039 q 0.33343,0.47332 0.76608,0.81071 0.43762,0.31587 0.92801,0.45114 0.50366,0.12699 1.03027,0.0552 0.52661,-0.0718 1.01654,-0.37873 0.66205,-0.41478 0.99927,-0.99483 0.35049,-0.58834 0.40774,-1.23268 l 1.11976,0.10975 q -0.0111,0.39418 -0.11835,0.81168 -0.11551,0.40425 -0.34857,0.82684 -0.22812,0.40105 -0.60364,0.80226 -0.36231,0.39293 -0.89194,0.72475 z m -4.18243,-6.32222 q -0.37076,0.23229 -0.61881,0.57208 -0.24807,0.3398 -0.34698,0.77053 -0.0989,0.43072 -0.0437,0.93084 0.0602,0.4786 0.29596,1.03151 l 3.85312,-2.41401 -0.0581,-0.0927 q -0.23724,-0.3492 -0.57208,-0.61881 -0.34317,-0.28283 -0.74249,-0.41986 -0.3993,-0.13704 -0.85141,-0.0935 -0.43888,0.0353 -0.91556,0.33389 z m 9.20093,-7.16577 q 0.17215,-0.10785 0.36581,-0.21074 0.18536,-0.11613 0.36084,-0.18921 0.18875,-0.0814 0.35928,-0.13289 0.16223,-0.0648 0.27982,-0.0831 l 0.57449,1.29951 q -0.40729,0.14453 -0.74164,0.31714 -0.34268,0.15938 -0.70019,0.38336 -0.86066,0.53922 -1.14142,1.26825 -0.28906,0.71581 -0.10095,1.5752 l 2.87869,4.59453 -1.23138,0.7715 -4.48813,-7.16326 1.16519,-0.73001 0.76642,1.10553 q 0.0636,-0.8696 0.46533,-1.58221 0.40662,-0.73415 1.18784,-1.22359 z m 4.61801,-2.70883 0.75635,1.00119 q 0.0356,-0.79669 0.40582,-1.47118 0.37027,-0.67448 1.07202,-1.11415 0.56937,-0.35672 1.11911,-0.47987 0.56299,-0.13147 1.09647,0.0137 0.53842,0.12363 1.03411,0.53218 0.50892,0.40024 0.95688,1.11525 l 2.85382,4.55481 -1.23141,0.7715 -2.83722,-4.52834 q -0.29865,-0.47667 -0.61197,-0.74133 -0.31332,-0.26465 -0.64963,-0.33054 -0.33136,-0.0874 -0.69397,0.0107 -0.36261,0.0981 -0.74661,0.3387 -0.62231,0.38989 -0.88666,0.99802 -0.27261,0.59488 -0.23541,1.27223 l 3.21881,5.1374 -1.23141,0.7715 -4.4881,-7.16325 z m 14.77325,0.90388 q -0.75473,0.47286 -1.54794,0.61946 -0.78824,0.12508 -1.52878,-0.0563 -0.74057,-0.18138 -1.39035,-0.65931 -0.64978,-0.47794 -1.12265,-1.23267 l -0.17422,-0.27806 q -0.53922,-0.86064 -0.69257,-1.72337 -0.15332,-0.86272 0.007,-1.6082 0.16479,-0.76702 0.58978,-1.38359 0.4382,-0.62488 1.0473,-1.00647 0.78122,-0.48945 1.51648,-0.58135 0.74854,-0.10019 1.43119,0.13591 0.68264,0.23609 1.2745,0.76875 0.59683,0.51113 1.0614,1.2526 l 0.34845,0.55612 -5.12426,3.21039 q 0.33343,0.47333 0.76608,0.81071 0.43762,0.31588 0.92801,0.45114 0.50366,0.12699 1.03027,0.0552 0.52661,-0.0718 1.01651,-0.37874 0.66205,-0.41478 0.9993,-0.99483 0.35046,-0.58835 0.40774,-1.23268 l 1.11976,0.10974 q -0.0112,0.3942 -0.11835,0.81169 -0.11551,0.40424 -0.34857,0.82683 -0.22812,0.40106 -0.60364,0.80228 -0.36231,0.39292 -0.89194,0.72474 z m -4.18243,-6.32222 q -0.37076,0.23229 -0.61881,0.57208 -0.24807,0.3398 -0.34698,0.77053 -0.0989,0.43072 -0.0437,0.93084 0.0602,0.47858 0.29593,1.03151 l 3.85315,-2.41403 -0.0581,-0.0927 q -0.23724,-0.3492 -0.57211,-0.6188 -0.34314,-0.28284 -0.74246,-0.41987 -0.39933,-0.13703 -0.85145,-0.0935 -0.43887,0.0353 -0.91552,0.33389 z m 2.89877,-7.21852 3.65451,-2.28958 5.70761,9.10963 2.34366,-1.46832 0.6637,1.05927 -5.99817,3.7579 -0.6637,-1.05925 2.43634,-1.5264 -5.04394,-8.05037 -2.43634,1.52639 z"
       id="path80"
       inkscape:connector-curvature="0"
       style="fill:#000000;fill-rule:nonzero" />
    <path
       d="M 84,327.55643 H 206.99213"
       id="path82"
       inkscape:connector-curvature="0"
       style="fill:#000000;fill-opacity:0;fill-rule:evenodd" />
    <path
       d="M 84,327.55643 H 206.99213"
       id="path84"
       inkscape:connector-curvature="0"
       style="fill-rule:evenodd;stroke:#000000;stroke-width:1;stroke-linecap:butt;stroke-linejoin:round" />
    <path
       d="M 293,327.55643 H 418.98425"
       id="path86"
       inkscape:connector-curvature="0"
       style="fill:#000000;fill-opacity:0;fill-rule:evenodd" />
    <path
       d="M 293,327.55643 H 418.98425"
       id="path88"
       inkscape:connector-curvature="0"
       style="fill-rule:evenodd;stroke:#000000;stroke-width:1;stroke-linecap:butt;stroke-linejoin:round" />
    <path
       d="m 186.99213,306.5643 h 126.99213 v 41.98425 H 186.99213 Z"
       id="path90"
       inkscape:connector-curvature="0"
       style="fill:#000000;fill-opacity:0;fill-rule:evenodd" />
    <path
       d="m 220.58194,330.92432 h -1.375 v -5.26562 h -4.65625 v 5.26562 h -1.35938 v -11.375 h 1.35938 v 4.89063 h 4.65625 v -4.89063 h 1.375 z m 8.02344,0 q -0.0937,-0.17187 -0.14063,-0.40625 -0.0469,-0.25 -0.0781,-0.51562 -0.21875,0.21875 -0.48438,0.42187 -0.26562,0.1875 -0.59375,0.34375 -0.32812,0.14063 -0.70312,0.21875 -0.35938,0.0937 -0.76563,0.0937 -0.67187,0 -1.21875,-0.1875 -0.54687,-0.20312 -0.92187,-0.53125 -0.375,-0.34375 -0.59375,-0.79687 -0.20313,-0.45313 -0.20313,-0.98438 0,-0.70312 0.28125,-1.21875 0.28125,-0.53125 0.78125,-0.875 0.51563,-0.34375 1.21875,-0.51562 0.71875,-0.17188 1.60938,-0.17188 h 1.57812 v -0.67187 q 0,-0.375 -0.14062,-0.67188 -0.14063,-0.3125 -0.40625,-0.53125 -0.25,-0.21875 -0.625,-0.32812 -0.375,-0.125 -0.82813,-0.125 -0.4375,0 -0.78125,0.10937 -0.32812,0.10938 -0.5625,0.29688 -0.23437,0.17187 -0.375,0.42187 -0.125,0.25 -0.125,0.51563 h -1.45312 q 0.0156,-0.46875 0.23437,-0.90625 0.23438,-0.45313 0.67188,-0.79688 0.4375,-0.35937 1.04687,-0.57812 0.625,-0.21875 1.42188,-0.21875 0.71875,0 1.32812,0.17187 0.625,0.17188 1.0625,0.53125 0.45313,0.35938 0.70313,0.89063 0.26562,0.53125 0.26562,1.23437 v 3.9375 q 0,0.42188 0.0781,0.89063 0.0781,0.46875 0.21875,0.82812 v 0.125 z m -2.5625,-1.10937 q 0.42187,0 0.78125,-0.10938 0.375,-0.10937 0.67187,-0.28125 0.3125,-0.1875 0.53125,-0.40625 0.21875,-0.23437 0.34375,-0.48437 v -1.71875 h -1.34375 q -1.26562,0 -1.96875,0.375 -0.70312,0.375 -0.70312,1.1875 0,0.3125 0.0937,0.57812 0.10937,0.26563 0.3125,0.45313 0.21875,0.1875 0.53125,0.29687 0.32812,0.10938 0.75,0.10938 z m 12.14843,-7.5 q 0.20313,0 0.42188,0.0156 0.21875,0 0.40625,0.0312 0.20312,0.0312 0.375,0.0781 0.17187,0.0312 0.28125,0.0781 l -0.20313,1.40625 q -0.42187,-0.0937 -0.79687,-0.125 -0.375,-0.0469 -0.79688,-0.0469 -1.01562,0 -1.64062,0.46875 -0.625,0.45312 -0.92188,1.28125 v 5.42187 h -1.45312 v -8.45312 h 1.375 l 0.0625,1.34375 q 0.51562,-0.70313 1.23437,-1.09375 0.73438,-0.40625 1.65625,-0.40625 z m 3.78907,4.3125 q 0,-0.95313 0.23437,-1.73438 0.23438,-0.79687 0.67188,-1.35937 0.45312,-0.57813 1.07812,-0.89063 0.625,-0.32812 1.39063,-0.32812 0.76562,0 1.32812,0.25 0.5625,0.25 0.98438,0.73437 v -4.375 h 1.4375 v 12 h -1.32813 l -0.0625,-0.89062 q -0.42187,0.51562 -1.01562,0.78125 -0.57813,0.26562 -1.35938,0.26562 -0.76562,0 -1.39062,-0.32812 -0.60938,-0.32813 -1.04688,-0.90625 -0.4375,-0.57813 -0.6875,-1.35938 -0.23437,-0.79687 -0.23437,-1.70312 z m 1.4375,0.15625 q 0,0.625 0.125,1.1875 0.14062,0.54687 0.42187,0.96875 0.28125,0.42187 0.70313,0.67187 0.4375,0.23438 1.03125,0.23438 0.375,0 0.67187,-0.0781 0.29688,-0.0937 0.53125,-0.25 0.25,-0.15625 0.4375,-0.375 0.1875,-0.23437 0.32813,-0.5 v -3.92187 q -0.28125,-0.51563 -0.76563,-0.84375 -0.46875,-0.34375 -1.1875,-0.34375 -0.60937,0 -1.04687,0.25 -0.42188,0.25 -0.70313,0.6875 -0.28125,0.42187 -0.42187,0.98437 -0.125,0.54688 -0.125,1.17188 z m 9.71093,1.07812 0.17188,1.20313 0.21875,-1.20313 1.34375,-5.39062 h 0.9375 l 1.34375,5.39062 0.21875,1.32813 0.21875,-1.32813 0.9375,-5.39062 h 1.28125 l -1.79687,8.45312 h -1.14063 l -1.32812,-5.1875 -0.21875,-1.3125 -0.20313,1.3125 -1.3125,5.1875 h -1.14062 l -1.79688,-8.45312 h 1.28125 z m 13.88282,3.0625 q -0.0937,-0.17187 -0.14063,-0.40625 -0.0469,-0.25 -0.0781,-0.51562 -0.21875,0.21875 -0.48438,0.42187 -0.26562,0.1875 -0.59375,0.34375 -0.32812,0.14063 -0.70312,0.21875 -0.35938,0.0937 -0.76563,0.0937 -0.67187,0 -1.21875,-0.1875 -0.54687,-0.20312 -0.92187,-0.53125 -0.375,-0.34375 -0.59375,-0.79687 -0.20313,-0.45313 -0.20313,-0.98438 0,-0.70312 0.28125,-1.21875 0.28125,-0.53125 0.78125,-0.875 0.51563,-0.34375 1.21875,-0.51562 0.71875,-0.17188 1.60938,-0.17188 h 1.57812 v -0.67187 q 0,-0.375 -0.14062,-0.67188 -0.14063,-0.3125 -0.40625,-0.53125 -0.25,-0.21875 -0.625,-0.32812 -0.375,-0.125 -0.82813,-0.125 -0.4375,0 -0.78125,0.10937 -0.32812,0.10938 -0.5625,0.29688 -0.23437,0.17187 -0.375,0.42187 -0.125,0.25 -0.125,0.51563 h -1.45312 q 0.0156,-0.46875 0.23437,-0.90625 0.23438,-0.45313 0.67188,-0.79688 0.4375,-0.35937 1.04687,-0.57812 0.625,-0.21875 1.42188,-0.21875 0.71875,0 1.32812,0.17187 0.625,0.17188 1.0625,0.53125 0.45313,0.35938 0.70313,0.89063 0.26562,0.53125 0.26562,1.23437 v 3.9375 q 0,0.42188 0.0781,0.89063 0.0781,0.46875 0.21875,0.82812 v 0.125 z m -2.5625,-1.10937 q 0.42187,0 0.78125,-0.10938 0.375,-0.10937 0.67187,-0.28125 0.3125,-0.1875 0.53125,-0.40625 0.21875,-0.23437 0.34375,-0.48437 v -1.71875 h -1.34375 q -1.26562,0 -1.96875,0.375 -0.70312,0.375 -0.70312,1.1875 0,0.3125 0.0937,0.57812 0.10937,0.26563 0.3125,0.45313 0.21875,0.1875 0.53125,0.29687 0.32812,0.10938 0.75,0.10938 z m 12.14844,-7.5 q 0.20312,0 0.42187,0.0156 0.21875,0 0.40625,0.0312 0.20313,0.0312 0.375,0.0781 0.17188,0.0312 0.28125,0.0781 l -0.20312,1.40625 q -0.42188,-0.0937 -0.79688,-0.125 -0.375,-0.0469 -0.79687,-0.0469 -1.01563,0 -1.64063,0.46875 -0.625,0.45312 -0.92187,1.28125 v 5.42187 h -1.45313 v -8.45312 h 1.375 l 0.0625,1.34375 q 0.51563,-0.70313 1.23438,-1.09375 0.73437,-0.40625 1.65625,-0.40625 z m 7.78906,8.76562 q -0.89063,0 -1.64063,-0.29687 -0.73437,-0.3125 -1.26562,-0.85938 -0.53125,-0.54687 -0.82813,-1.29687 -0.29687,-0.75 -0.29687,-1.64063 v -0.32812 q 0,-1.01563 0.32812,-1.82813 0.32813,-0.8125 0.85938,-1.35937 0.54687,-0.5625 1.23437,-0.85938 0.70313,-0.29687 1.42188,-0.29687 0.92187,0 1.59375,0.3125 0.6875,0.3125 1.14062,0.875 0.45313,0.5625 0.67188,1.32812 0.23437,0.75 0.23437,1.625 v 0.65625 h -6.04687 q 0.0312,0.57813 0.21875,1.09375 0.20312,0.5 0.54687,0.875 0.35938,0.375 0.84375,0.59375 0.48438,0.21875 1.0625,0.21875 0.78125,0 1.375,-0.3125 0.60938,-0.3125 1,-0.82812 l 0.89063,0.6875 q -0.21875,0.32812 -0.53125,0.625 -0.3125,0.28125 -0.73438,0.51562 -0.40625,0.21875 -0.9375,0.35938 -0.51562,0.14062 -1.14062,0.14062 z m -0.1875,-7.57812 q -0.4375,0 -0.82813,0.15625 -0.39062,0.15625 -0.70312,0.46875 -0.3125,0.3125 -0.53125,0.76562 -0.20313,0.4375 -0.29688,1.03125 h 4.54688 v -0.10937 q -0.0156,-0.42188 -0.15625,-0.82813 -0.14063,-0.42187 -0.40625,-0.75 -0.26563,-0.32812 -0.67188,-0.53125 -0.39062,-0.20312 -0.95312,-0.20312 z"
       id="path92"
       inkscape:connector-curvature="0"
       style="fill:#000000;fill-rule:nonzero" />
    <text
       xml:space="preserve"
       style="font-style:normal;font-weight:normal;font-size:40px;line-height:1.25;font-family:sans-serif;letter-spacing:0px;word-spacing:0px;fill:#000000;fill-opacity:1;stroke:none"
       x="209.86667"
       y="202.41522"
       id="text3745"><tspan
         sodipodi:role="line"
         id="tspan3743"
         x="209.86667"
         y="202.41522"
         style="font-style:normal;font-variant:normal;font-weight:normal;font-stretch:normal;font-size:24px;font-family:Roboto;-inkscape-font-specification:Roboto">gVisor</tspan></text>
    <path
       d="m 197.51503,153.57876 q 0,-0.46875 -0.21875,-0.79687 -0.21875,-0.32813 -0.5625,-0.54688 -0.34375,-0.23437 -0.76563,-0.375 -0.40625,-0.15625 -0.78125,-0.28125 -0.54687,-0.1875 -1.125,-0.4375 -0.5625,-0.25 -1.03125,-0.60937 -0.46875,-0.35938 -0.76562,-0.85938 -0.29688,-0.5 -0.29688,-1.17187 0,-0.67188 0.29688,-1.20313 0.29687,-0.53125 0.76562,-0.89062 0.48438,-0.375 1.09375,-0.5625 0.60938,-0.1875 1.21875,-0.1875 0.6875,0 1.3125,0.23437 0.625,0.21875 1.10938,0.625 0.5,0.40625 0.78125,0.98438 0.29687,0.57812 0.3125,1.29687 h -1.35938 q -0.0469,-0.45312 -0.21875,-0.8125 -0.15625,-0.375 -0.4375,-0.64062 -0.26562,-0.26563 -0.64062,-0.40625 -0.375,-0.15625 -0.85938,-0.15625 -0.375,0 -0.73437,0.10937 -0.35938,0.10938 -0.64063,0.32813 -0.28125,0.21875 -0.45312,0.53125 -0.17188,0.3125 -0.17188,0.71875 0.0156,0.45312 0.23438,0.76562 0.21875,0.3125 0.5625,0.53125 0.34375,0.21875 0.73437,0.35938 0.39063,0.14062 0.75,0.25 0.39063,0.125 0.78125,0.28125 0.39063,0.14062 0.75,0.34375 0.375,0.20312 0.6875,0.45312 0.3125,0.25 0.54688,0.57813 0.23437,0.3125 0.35937,0.70312 0.14063,0.375 0.14063,0.84375 0,0.6875 -0.3125,1.21875 -0.3125,0.51563 -0.8125,0.875 -0.48438,0.34375 -1.10938,0.51563 -0.625,0.17187 -1.25,0.17187 -0.6875,0 -1.35937,-0.20312 -0.65625,-0.21875 -1.1875,-0.625 -0.51563,-0.40625 -0.85938,-0.98438 -0.32812,-0.59375 -0.34375,-1.32812 h 1.35938 q 0.0625,0.48437 0.25,0.85937 0.20312,0.375 0.51562,0.64063 0.32813,0.25 0.73438,0.39062 0.40625,0.125 0.89062,0.125 0.39063,0 0.76563,-0.0937 0.375,-0.0937 0.67187,-0.29687 0.29688,-0.20313 0.48438,-0.51563 0.1875,-0.3125 0.1875,-0.75 z m 6.18581,-0.10937 0.34375,0.9375 2.35937,-5.9375 h 1.48438 l -3.9375,8.9375 q -0.125,0.3125 -0.34375,0.64062 -0.20313,0.34375 -0.51563,0.625 -0.29687,0.28125 -0.70312,0.46875 -0.39063,0.20313 -0.90625,0.20313 -0.0937,0 -0.21875,-0.0156 -0.10938,0 -0.23438,-0.0312 -0.10937,-0.0156 -0.21875,-0.0312 -0.0937,-0.0156 -0.15625,-0.0312 l 0.21875,-1.07813 q 0.0469,0 0.125,0 0.0937,0.0156 0.1875,0.0156 0.0937,0 0.17188,0 0.0937,0.0156 0.14062,0.0156 0.28125,0 0.5,-0.15625 0.23438,-0.14062 0.40625,-0.35937 0.17188,-0.20313 0.29688,-0.42188 0.125,-0.21875 0.20312,-0.35937 l 0.53125,-1.03125 -3.34375,-7.39063 h 1.48438 z m 11.09205,0.70312 q 0,-0.25 -0.0937,-0.4375 -0.0937,-0.1875 -0.3125,-0.34375 -0.21875,-0.15625 -0.59375,-0.28125 -0.35937,-0.14062 -0.90625,-0.25 -0.65625,-0.14062 -1.20312,-0.32812 -0.54688,-0.1875 -0.9375,-0.45313 -0.39063,-0.28125 -0.60938,-0.64062 -0.21875,-0.35938 -0.21875,-0.84375 0,-0.46875 0.21875,-0.875 0.21875,-0.40625 0.625,-0.71875 0.40625,-0.3125 0.95313,-0.48438 0.5625,-0.1875 1.21875,-0.1875 0.71875,0 1.28125,0.1875 0.57812,0.1875 0.98437,0.51563 0.40625,0.32812 0.625,0.78125 0.21875,0.4375 0.21875,0.9375 h -1.32812 q 0,-0.25 -0.14063,-0.48438 -0.125,-0.25 -0.35937,-0.42187 -0.21875,-0.1875 -0.54688,-0.29688 -0.32812,-0.125 -0.73437,-0.125 -0.42188,0 -0.73438,0.0937 -0.3125,0.0937 -0.53125,0.25 -0.20312,0.15625 -0.3125,0.375 -0.10937,0.20313 -0.10937,0.42188 0,0.21875 0.0781,0.40625 0.0937,0.17187 0.29688,0.32812 0.21875,0.14063 0.5625,0.25 0.35937,0.10938 0.90625,0.21875 0.71875,0.15625 1.28125,0.35938 0.5625,0.1875 0.95312,0.46875 0.39063,0.26562 0.59375,0.64062 0.20313,0.35938 0.20313,0.84375 0,0.51563 -0.23438,0.9375 -0.23437,0.42188 -0.65625,0.71875 -0.40625,0.29688 -0.98437,0.46875 -0.57813,0.15625 -1.26563,0.15625 -0.79687,0 -1.40625,-0.20312 -0.60937,-0.21875 -1.04687,-0.5625 -0.42188,-0.34375 -0.65625,-0.79688 -0.21875,-0.46875 -0.21875,-0.96875 h 1.32812 q 0.0312,0.42188 0.21875,0.70313 0.1875,0.26562 0.46875,0.4375 0.28125,0.17187 0.625,0.25 0.34375,0.0625 0.6875,0.0625 0.82813,0 1.3125,-0.29688 0.5,-0.3125 0.5,-0.8125 z m 6.77956,-7.57812 v 1.875 h 2.95312 v 1.03125 h -2.95312 v 4.20312 q 0,0.45313 0.10937,0.75 0.125,0.29688 0.32813,0.46875 0.20312,0.17188 0.45312,0.25 0.26563,0.0625 0.5625,0.0625 0.21875,0 0.4375,-0.0156 0.23438,-0.0312 0.45313,-0.0625 0.21875,-0.0469 0.40625,-0.0781 0.1875,-0.0469 0.3125,-0.0625 l 0.1875,0.9375 q -0.17188,0.0937 -0.40625,0.17188 -0.23438,0.0781 -0.51563,0.125 -0.28125,0.0469 -0.59375,0.0781 -0.3125,0.0312 -0.60937,0.0312 -0.51563,0 -0.96875,-0.14063 -0.4375,-0.15625 -0.78125,-0.46875 -0.32813,-0.3125 -0.51563,-0.8125 -0.1875,-0.51562 -0.1875,-1.23437 v -4.20313 h -2.03125 v -1.03125 h 2.03125 v -1.875 z m 9.09205,9.76562 q -0.82812,0 -1.51562,-0.28125 -0.67188,-0.28125 -1.15625,-0.78125 -0.48438,-0.5 -0.76563,-1.1875 -0.26562,-0.6875 -0.26562,-1.48437 v -0.3125 q 0,-0.9375 0.29687,-1.67188 0.29688,-0.73437 0.79688,-1.25 0.5,-0.51562 1.125,-0.78125 0.64062,-0.28125 1.3125,-0.28125 0.82812,0 1.45312,0.29688 0.625,0.28125 1.03125,0.79687 0.42188,0.51563 0.625,1.21875 0.21875,0.6875 0.21875,1.48438 v 0.59375 h -5.53125 q 0.0156,0.53125 0.1875,1 0.1875,0.46875 0.5,0.8125 0.32813,0.34375 0.76563,0.54687 0.45312,0.20313 0.98437,0.20313 0.71875,0 1.26563,-0.28125 0.54687,-0.29688 0.90625,-0.76563 l 0.8125,0.625 q -0.1875,0.29688 -0.48438,0.57813 -0.28125,0.26562 -0.67187,0.46875 -0.375,0.20312 -0.85938,0.32812 -0.46875,0.125 -1.03125,0.125 z m -0.17187,-6.9375 q -0.40625,0 -0.76563,0.15625 -0.35937,0.14063 -0.64062,0.42188 -0.28125,0.28125 -0.48438,0.70312 -0.20312,0.40625 -0.28125,0.9375 h 4.17188 v -0.10937 q -0.0312,-0.375 -0.15625,-0.75 -0.125,-0.39063 -0.375,-0.6875 -0.23438,-0.29688 -0.60938,-0.48438 -0.35937,-0.1875 -0.85937,-0.1875 z m 6.15456,-0.95312 0.0312,0.73437 q 0.23437,-0.40625 0.60937,-0.625 0.39063,-0.23437 0.9375,-0.25 1.0625,0 1.42188,0.82813 0.23437,-0.35938 0.60937,-0.57813 0.375,-0.23437 0.90625,-0.25 0.85938,0 1.3125,0.53125 0.45313,0.51563 0.45313,1.57813 v 5.78125 h -1.25 v -5.79688 q 0,-0.96875 -0.90625,-0.96875 -0.23438,0 -0.40625,0.0625 -0.17188,0.0625 -0.28125,0.1875 -0.10938,0.10938 -0.1875,0.25 -0.0625,0.14063 -0.0781,0.29688 v 5.96875 h -1.26562 v -5.79688 q 0,-0.46875 -0.20313,-0.71875 -0.20312,-0.25 -0.65625,-0.25 -0.42187,0 -0.65625,0.17188 -0.21875,0.15625 -0.32812,0.4375 v 6.15625 h -1.25 v -7.75 z m 20.27786,6.8125 q 0.35937,0 0.6875,-0.10938 0.34375,-0.10937 0.60937,-0.3125 0.26563,-0.20312 0.42188,-0.48437 0.17187,-0.28125 0.17187,-0.59375 h 1.25 q 0,0.51562 -0.26562,0.98437 -0.26563,0.46875 -0.70313,0.82813 -0.42187,0.34375 -1,0.5625 -0.5625,0.20312 -1.17187,0.20312 -0.875,0 -1.54688,-0.3125 -0.65625,-0.3125 -1.09375,-0.84375 -0.4375,-0.53125 -0.67187,-1.23437 -0.21875,-0.70313 -0.21875,-1.46875 v -0.29688 q 0,-0.76562 0.21875,-1.46875 0.23437,-0.70312 0.67187,-1.23437 0.4375,-0.53125 1.09375,-0.84375 0.67188,-0.32813 1.54688,-0.32813 0.6875,0 1.26562,0.21875 0.57813,0.21875 0.98438,0.59375 0.42187,0.375 0.65625,0.89063 0.23437,0.51562 0.23437,1.10937 h -1.25 q 0,-0.35937 -0.15625,-0.65625 -0.14062,-0.3125 -0.39062,-0.54687 -0.25,-0.25 -0.60938,-0.375 -0.34375,-0.14063 -0.73437,-0.14063 -0.625,0 -1.04688,0.25 -0.40625,0.23438 -0.67187,0.64063 -0.25,0.39062 -0.35938,0.89062 -0.10937,0.5 -0.10937,1 v 0.29688 q 0,0.5 0.10937,1 0.10938,0.5 0.35938,0.90625 0.25,0.39062 0.67187,0.64062 0.42188,0.23438 1.04688,0.23438 z m 10.57643,0.9375 q -0.0781,-0.15625 -0.125,-0.375 -0.0469,-0.21875 -0.0625,-0.46875 -0.20313,0.20312 -0.45313,0.39062 -0.23437,0.17188 -0.53125,0.3125 -0.29687,0.125 -0.64062,0.20313 -0.34375,0.0781 -0.71875,0.0781 -0.60938,0 -1.10938,-0.17188 -0.5,-0.1875 -0.84375,-0.48437 -0.34375,-0.3125 -0.54687,-0.71875 -0.1875,-0.42188 -0.1875,-0.90625 0,-0.64063 0.25,-1.125 0.26562,-0.48438 0.73437,-0.79688 0.46875,-0.3125 1.10938,-0.46875 0.65625,-0.15625 1.46875,-0.15625 h 1.45312 v -0.60938 q 0,-0.35937 -0.14062,-0.64062 -0.125,-0.28125 -0.35938,-0.46875 -0.23437,-0.20313 -0.57812,-0.29688 -0.34375,-0.10937 -0.76563,-0.10937 -0.39062,0 -0.70312,0.0937 -0.3125,0.0937 -0.53125,0.26562 -0.20313,0.15625 -0.32813,0.39063 -0.10937,0.21875 -0.10937,0.46875 h -1.32813 q 0,-0.42188 0.20313,-0.82813 0.21875,-0.40625 0.60937,-0.73437 0.40625,-0.32813 0.96875,-0.53125 0.57813,-0.20313 1.29688,-0.20313 0.65625,0 1.21875,0.17188 0.5625,0.15625 0.96875,0.48437 0.42187,0.32813 0.65625,0.8125 0.23437,0.48438 0.23437,1.14063 v 3.59375 q 0,0.39062 0.0625,0.82812 0.0781,0.42188 0.21875,0.75 v 0.10938 z m -2.32813,-1.01563 q 0.375,0 0.70313,-0.0937 0.34375,-0.0937 0.625,-0.25 0.28125,-0.17187 0.46875,-0.375 0.20312,-0.21875 0.32812,-0.45312 v -1.5625 h -1.23437 q -1.15625,0 -1.8125,0.34375 -0.64063,0.34375 -0.64063,1.07812 0,0.28125 0.0937,0.53125 0.10938,0.23438 0.29688,0.42188 0.1875,0.17187 0.48437,0.26562 0.29688,0.0937 0.6875,0.0937 z m 6.24831,-9.98437 h 3.95313 v 9.85937 h 2.53125 v 1.14063 h -6.48438 v -1.14063 h 2.64063 v -8.70312 h -2.64063 z m 8.79518,0 h 3.95313 v 9.85937 h 2.53125 v 1.14063 h -6.48438 v -1.14063 h 2.64063 v -8.70312 h -2.64063 z m 13.73268,8.95312 q 0,-0.25 -0.0937,-0.4375 -0.0937,-0.1875 -0.3125,-0.34375 -0.21875,-0.15625 -0.59375,-0.28125 -0.35937,-0.14062 -0.90625,-0.25 -0.65625,-0.14062 -1.20312,-0.32812 -0.54688,-0.1875 -0.9375,-0.45313 -0.39063,-0.28125 -0.60938,-0.64062 -0.21875,-0.35938 -0.21875,-0.84375 0,-0.46875 0.21875,-0.875 0.21875,-0.40625 0.625,-0.71875 0.40625,-0.3125 0.95313,-0.48438 0.5625,-0.1875 1.21875,-0.1875 0.71875,0 1.28125,0.1875 0.57812,0.1875 0.98437,0.51563 0.40625,0.32812 0.625,0.78125 0.21875,0.4375 0.21875,0.9375 h -1.32812 q 0,-0.25 -0.14063,-0.48438 -0.125,-0.25 -0.35937,-0.42187 -0.21875,-0.1875 -0.54688,-0.29688 -0.32812,-0.125 -0.73437,-0.125 -0.42188,0 -0.73438,0.0937 -0.3125,0.0937 -0.53125,0.25 -0.20312,0.15625 -0.3125,0.375 -0.10937,0.20313 -0.10937,0.42188 0,0.21875 0.0781,0.40625 0.0937,0.17187 0.29688,0.32812 0.21875,0.14063 0.5625,0.25 0.35937,0.10938 0.90625,0.21875 0.71875,0.15625 1.28125,0.35938 0.5625,0.1875 0.95312,0.46875 0.39063,0.26562 0.59375,0.64062 0.20313,0.35938 0.20313,0.84375 0,0.51563 -0.23438,0.9375 -0.23437,0.42188 -0.65625,0.71875 -0.40625,0.29688 -0.98437,0.46875 -0.57813,0.15625 -1.26563,0.15625 -0.79687,0 -1.40625,-0.20312 -0.60937,-0.21875 -1.04687,-0.5625 -0.42188,-0.34375 -0.65625,-0.79688 -0.21875,-0.46875 -0.21875,-0.96875 h 1.32812 q 0.0312,0.42188 0.21875,0.70313 0.1875,0.26562 0.46875,0.4375 0.28125,0.17187 0.625,0.25 0.34375,0.0625 0.6875,0.0625 0.82813,0 1.3125,-0.29688 0.5,-0.3125 0.5,-0.8125 z"
       id="path41"
       inkscape:connector-curvature="0"
       style="fill:#000000;fill-rule:nonzero;stroke:none;stroke-linecap:square;stroke-miterlimit:10" />
    <path
       d="m 87.98425,151.55643 h 76.97638"
       id="path45"
       inkscape:connector-curvature="0"
       style="fill:none;fill-rule:evenodd;stroke:#ff0000;stroke-width:2;stroke-linecap:butt;stroke-linejoin:round;stroke-miterlimit:10;stroke-dasharray:8, 6" />
    <path
       d="m 335.00787,151.55643 h 84"
       id="path49"
       inkscape:connector-curvature="0"
       style="fill:none;fill-rule:evenodd;stroke:#ff0000;stroke-width:2;stroke-linecap:butt;stroke-linejoin:round;stroke-miterlimit:10;stroke-dasharray:8, 6" />
    <path
       d="m 101.96507,151.54659 h 76.97638"
       id="path45-3"
       inkscape:connector-curvature="0"
       style="fill:none;fill-rule:evenodd;stroke:#ff0000;stroke-width:2;stroke-linecap:butt;stroke-linejoin:round;stroke-miterlimit:10;stroke-dasharray:8, 6" />
    <path
       d="m 307.03235,151.50975 h 84"
       id="path49-6"
       inkscape:connector-curvature="0"
       style="fill:none;fill-rule:evenodd;stroke:#ff0000;stroke-width:2;stroke-linecap:butt;stroke-linejoin:round;stroke-miterlimit:10;stroke-dasharray:8, 6" />
  </g>
</svg>
