<svg version="1.1" viewBox="0.0 0.0 387.7034120734908 336.4225721784777" fill="none" stroke="none" stroke-linecap="square" stroke-miterlimit="10" xmlns:xlink="http://www.w3.org/1999/xlink" xmlns="http://www.w3.org/2000/svg"><clipPath id="p.0"><path d="m0 0l387.7034 0l0 336.42258l-387.7034 0l0 -336.42258z" clip-rule="nonzero"/></clipPath><g clip-path="url(#p.0)"><path fill="#000000" fill-opacity="0.0" d="m0 0l387.7034 0l0 336.42258l-387.7034 0z" fill-rule="evenodd"/><path fill="#f4cccc" d="m44.454067 14.643044l174.83464 0l0 48.850395l-174.83464 0z" fill-rule="evenodd"/><path stroke="#cc4125" stroke-width="1.0" stroke-linejoin="round" stroke-linecap="butt" d="m44.454067 14.643044l174.83464 0l0 48.850395l-174.83464 0z" fill-rule="evenodd"/><path fill="#000000" d="m86.206116 45.98824l5.125 -13.359375l1.90625 0l5.46875 13.359375l-2.015625 0l-1.546875 -4.046875l-5.59375 0l-1.46875 4.046875l-1.875 0zm3.859375 -5.484375l4.53125 0l-1.40625 -3.703125q-0.625 -1.6875 -0.9375 -2.765625q-0.265625 1.28125 -0.71875 2.546875l-1.46875 3.921875zm9.849823 9.1875l0 -13.375l1.484375 0l0 1.25q0.53125 -0.734375 1.1875 -1.09375q0.671875 -0.375 1.625 -0.375q1.234375 0 2.171875 0.640625q0.953125 0.625 1.4375 1.796875q0.484375 1.15625 0.484375 2.546875q0 1.484375 -0.53125 2.671875q-0.53125 1.1875 -1.546875 1.828125q-1.015625 0.625 -2.140625 0.625q-0.8125 0 -1.46875 -0.34375q-0.65625 -0.34375 -1.0625 -0.875l0 4.703125l-1.640625 0zm1.484375 -8.484375q0 1.859375 0.75 2.765625q0.765625 0.890625 1.828125 0.890625q1.09375 0 1.875 -0.921875q0.78125 -0.9375 0.78125 -2.875q0 -1.84375 -0.765625 -2.765625q-0.75 -0.921875 -1.8125 -0.921875q-1.046875 0 -1.859375 0.984375q-0.796875 0.96875 -0.796875 2.84375zm8.891342 8.484375l0 -13.375l1.484375 0l0 1.25q0.53125 -0.734375 1.1875 -1.09375q0.671875 -0.375 1.625 -0.375q1.234375 0 2.171875 0.640625q0.953125 0.625 1.4375 1.796875q0.484375 1.15625 0.484375 2.546875q0 1.484375 -0.53125 2.671875q-0.53125 1.1875 -1.546875 1.828125q-1.015625 0.625 -2.140625 0.625q-0.8125 0 -1.46875 -0.34375q-0.65625 -0.34375 -1.0625 -0.875l0 4.703125l-1.640625 0zm1.484375 -8.484375q0 1.859375 0.75 2.765625q0.765625 0.890625 1.828125 0.890625q1.09375 0 1.875 -0.921875q0.78125 -0.9375 0.78125 -2.875q0 -1.84375 -0.765625 -2.765625q-0.75 -0.921875 -1.8125 -0.921875q-1.046875 0 -1.859375 0.984375q-0.796875 0.96875 -0.796875 2.84375zm8.844467 4.78125l0 -13.359375l1.640625 0l0 13.359375l-1.640625 0zm4.191696 -11.46875l0 -1.890625l1.640625 0l0 1.890625l-1.640625 0zm0 11.46875l0 -9.671875l1.640625 0l0 9.671875l-1.640625 0zm10.457321 -3.546875l1.609375 0.21875q-0.265625 1.65625 -1.359375 2.609375q-1.078125 0.9375 -2.671875 0.9375q-1.984375 0 -3.1875 -1.296875q-1.203125 -1.296875 -1.203125 -3.71875q0 -1.578125 0.515625 -2.75q0.515625 -1.171875 1.578125 -1.75q1.0625 -0.59375 2.3125 -0.59375q1.578125 0 2.578125 0.796875q1.0 0.796875 1.28125 2.265625l-1.59375 0.234375q-0.234375 -0.96875 -0.8125 -1.453125q-0.578125 -0.5 -1.390625 -0.5q-1.234375 0 -2.015625 0.890625q-0.78125 0.890625 -0.78125 2.8125q0 1.953125 0.75 2.84375q0.75 0.875 1.953125 0.875q0.96875 0 1.609375 -0.59375q0.65625 -0.59375 0.828125 -1.828125zm9.328125 2.359375q-0.921875 0.765625 -1.765625 1.09375q-0.828125 0.3125 -1.796875 0.3125q-1.59375 0 -2.453125 -0.78125q-0.859375 -0.78125 -0.859375 -1.984375q0 -0.71875 0.328125 -1.296875q0.328125 -0.59375 0.84375 -0.9375q0.53125 -0.359375 1.1875 -0.546875q0.46875 -0.125 1.453125 -0.25q1.984375 -0.234375 2.921875 -0.5625q0.015625 -0.34375 0.015625 -0.421875q0 -1.0 -0.46875 -1.421875q-0.625 -0.546875 -1.875 -0.546875q-1.15625 0 -1.703125 0.40625q-0.546875 0.40625 -0.8125 1.421875l-1.609375 -0.21875q0.21875 -1.015625 0.71875 -1.640625q0.5 -0.640625 1.453125 -0.984375q0.953125 -0.34375 2.1875 -0.34375q1.25 0 2.015625 0.296875q0.78125 0.28125 1.140625 0.734375q0.375 0.4375 0.515625 1.109375q0.078125 0.421875 0.078125 1.515625l0 2.1875q0 2.28125 0.109375 2.890625q0.109375 0.59375 0.40625 1.15625l-1.703125 0q-0.265625 -0.515625 -0.328125 -1.1875zm-0.140625 -3.671875q-0.890625 0.375 -2.671875 0.625q-1.015625 0.140625 -1.4375 0.328125q-0.421875 0.1875 -0.65625 0.53125q-0.21875 0.34375 -0.21875 0.78125q0 0.65625 0.5 1.09375q0.5 0.4375 1.453125 0.4375q0.9375 0 1.671875 -0.40625q0.75 -0.421875 1.09375 -1.140625q0.265625 -0.5625 0.265625 -1.640625l0 -0.609375zm7.781967 3.390625l0.234375 1.453125q-0.6875 0.140625 -1.234375 0.140625q-0.890625 0 -1.390625 -0.28125q-0.484375 -0.28125 -0.6875 -0.734375q-0.203125 -0.46875 -0.203125 -1.9375l0 -5.578125l-1.203125 0l0 -1.265625l1.203125 0l0 -2.390625l1.625 -0.984375l0 3.375l1.65625 0l0 1.265625l-1.65625 0l0 5.671875q0 0.6875 0.078125 0.890625q0.09375 0.203125 0.28125 0.328125q0.203125 0.109375 0.578125 0.109375q0.265625 0 0.71875 -0.0625zm1.6051788 -10.0l0 -1.890625l1.640625 0l0 1.890625l-1.640625 0zm0 11.46875l0 -9.671875l1.640625 0l0 9.671875l-1.640625 0zm3.5354462 -4.84375q0 -2.6875 1.484375 -3.96875q1.25 -1.078125 3.046875 -1.078125q2.0 0 3.265625 1.3125q1.265625 1.296875 1.265625 3.609375q0 1.859375 -0.5625 2.9375q-0.5625 1.0625 -1.640625 1.65625q-1.0625 0.59375 -2.328125 0.59375q-2.03125 0 -3.28125 -1.296875q-1.25 -1.3125 -1.25 -3.765625zm1.6875 0q0 1.859375 0.796875 2.796875q0.8125 0.921875 2.046875 0.921875q1.21875 0 2.03125 -0.921875q0.8125 -0.9375 0.8125 -2.84375q0 -1.796875 -0.8125 -2.71875q-0.8125 -0.921875 -2.03125 -0.921875q-1.234375 0 -2.046875 0.921875q-0.796875 0.90625 -0.796875 2.765625zm9.297592 4.84375l0 -9.671875l1.46875 0l0 1.375q1.0625 -1.59375 3.078125 -1.59375q0.875 0 1.609375 0.3125q0.734375 0.3125 1.09375 0.828125q0.375 0.5 0.515625 1.203125q0.09375 0.453125 0.09375 1.59375l0 5.953125l-1.640625 0l0 -5.890625q0 -1.0 -0.203125 -1.484375q-0.1875 -0.5 -0.671875 -0.796875q-0.484375 -0.296875 -1.140625 -0.296875q-1.046875 0 -1.8125 0.671875q-0.75 0.65625 -0.75 2.515625l0 5.28125l-1.640625 0z" fill-rule="nonzero"/><path fill="#000000" fill-opacity="0.0" d="m12.454068 81.068245l74.04724 0" fill-rule="evenodd"/><path stroke="#000000" stroke-width="1.0" stroke-linejoin="round" stroke-linecap="butt" d="m12.454068 81.068245l74.04724 0" fill-rule="evenodd"/><path fill="#000000" fill-opacity="0.0" d="m180.45407 81.068245l74.04724 0" fill-rule="evenodd"/><path stroke="#000000" stroke-width="1.0" stroke-linejoin="round" stroke-linecap="butt" d="m180.45407 81.068245l74.04724 0" fill-rule="evenodd"/><path fill="#000000" fill-opacity="0.0" d="m81.43044 64.70238l100.88189 0l0 32.06299l-100.88189 0z" fill-rule="evenodd"/><path fill="#000000" d="m95.06437 82.471375l1.203125 -0.109375q0.078125 0.71875 0.390625 1.1875q0.3125 0.453125 0.953125 0.734375q0.65625 0.28125 1.46875 0.28125q0.71875 0 1.265625 -0.21875q0.5625 -0.21875 0.828125 -0.578125q0.265625 -0.375 0.265625 -0.828125q0 -0.453125 -0.265625 -0.78125q-0.25 -0.328125 -0.84375 -0.5625q-0.390625 -0.15625 -1.703125 -0.46875q-1.3125 -0.3125 -1.84375 -0.59375q-0.671875 -0.359375 -1.015625 -0.890625q-0.328125 -0.53125 -0.328125 -1.1875q0 -0.71875 0.40625 -1.34375q0.40625 -0.625 1.1875 -0.953125q0.796875 -0.328125 1.765625 -0.328125q1.046875 0 1.859375 0.34375q0.8125 0.34375 1.25 1.015625q0.4375 0.65625 0.46875 1.484375l-1.203125 0.09375q-0.109375 -0.90625 -0.671875 -1.359375q-0.5625 -0.46875 -1.65625 -0.46875q-1.140625 0 -1.671875 0.421875q-0.515625 0.421875 -0.515625 1.015625q0 0.515625 0.359375 0.84375q0.375 0.328125 1.90625 0.6875q1.546875 0.34375 2.109375 0.59375q0.84375 0.390625 1.234375 0.984375q0.390625 0.578125 0.390625 1.359375q0 0.75 -0.4375 1.4375q-0.421875 0.671875 -1.25 1.046875q-0.8125 0.359375 -1.828125 0.359375q-1.296875 0 -2.171875 -0.375q-0.875 -0.375 -1.375 -1.125q-0.5 -0.765625 -0.53125 -1.71875zm9.12413 5.71875l-0.125 -1.09375q0.375 0.109375 0.65625 0.109375q0.390625 0 0.625 -0.140625q0.234375 -0.125 0.390625 -0.359375q0.109375 -0.171875 0.359375 -0.875q0.03125 -0.09375 0.109375 -0.28125l-2.625 -6.921875l1.265625 0l1.4375 4.0q0.28125 0.765625 0.5 1.59375q0.203125 -0.796875 0.46875 -1.578125l1.484375 -4.015625l1.171875 0l-2.625 7.015625q-0.421875 1.140625 -0.65625 1.578125q-0.3125 0.578125 -0.71875 0.84375q-0.40625 0.28125 -0.96875 0.28125q-0.328125 0 -0.75 -0.15625zm6.2421875 -4.71875l1.15625 -0.1875q0.109375 0.703125 0.546875 1.078125q0.453125 0.359375 1.25 0.359375q0.8125 0 1.203125 -0.328125q0.390625 -0.328125 0.390625 -0.765625q0 -0.390625 -0.359375 -0.625q-0.234375 -0.15625 -1.1875 -0.390625q-1.296875 -0.328125 -1.796875 -0.5625q-0.484375 -0.25 -0.75 -0.65625q-0.25 -0.421875 -0.25 -0.9375q0 -0.453125 0.203125 -0.84375q0.21875 -0.40625 0.578125 -0.671875q0.28125 -0.1875 0.75 -0.328125q0.46875 -0.140625 1.015625 -0.140625q0.8125 0 1.421875 0.234375q0.609375 0.234375 0.90625 0.640625q0.296875 0.390625 0.40625 1.0625l-1.140625 0.15625q-0.078125 -0.53125 -0.453125 -0.828125q-0.375 -0.3125 -1.0625 -0.3125q-0.8125 0 -1.15625 0.265625q-0.34375 0.265625 -0.34375 0.625q0 0.234375 0.140625 0.421875q0.15625 0.1875 0.453125 0.3125q0.171875 0.0625 1.03125 0.296875q1.25 0.328125 1.734375 0.546875q0.5 0.203125 0.78125 0.609375q0.28125 0.40625 0.28125 1.0q0 0.59375 -0.34375 1.109375q-0.34375 0.515625 -1.0 0.796875q-0.640625 0.28125 -1.453125 0.28125q-1.34375 0 -2.046875 -0.5625q-0.703125 -0.5625 -0.90625 -1.65625zm9.6953125 1.015625l0.171875 1.03125q-0.5 0.109375 -0.890625 0.109375q-0.640625 0 -1.0 -0.203125q-0.34375 -0.203125 -0.484375 -0.53125q-0.140625 -0.328125 -0.140625 -1.390625l0 -3.96875l-0.859375 0l0 -0.90625l0.859375 0l0 -1.71875l1.171875 -0.703125l0 2.421875l1.171875 0l0 0.90625l-1.171875 0l0 4.046875q0 0.5 0.046875 0.640625q0.0625 0.140625 0.203125 0.234375q0.140625 0.078125 0.40625 0.078125q0.203125 0 0.515625 -0.046875zm5.8748627 -1.171875l1.203125 0.140625q-0.28125 1.0625 -1.0625 1.65625q-0.765625 0.578125 -1.96875 0.578125q-1.515625 0 -2.40625 -0.9375q-0.890625 -0.9375 -0.890625 -2.609375q0 -1.75 0.890625 -2.703125q0.90625 -0.96875 2.34375 -0.96875q1.390625 0 2.265625 0.9375q0.875 0.9375 0.875 2.65625q0 0.109375 0 0.3125l-5.15625 0q0.0625 1.140625 0.640625 1.75q0.578125 0.59375 1.4375 0.59375q0.65625 0 1.109375 -0.328125q0.453125 -0.34375 0.71875 -1.078125zm-3.84375 -1.90625l3.859375 0q-0.078125 -0.859375 -0.4375 -1.296875q-0.5625 -0.6875 -1.453125 -0.6875q-0.8125 0 -1.359375 0.546875q-0.546875 0.53125 -0.609375 1.4375zm6.521843 4.125l0 -6.90625l1.046875 0l0 0.96875q0.328125 -0.515625 0.859375 -0.8125q0.546875 -0.3125 1.234375 -0.3125q0.78125 0 1.265625 0.3125q0.484375 0.3125 0.6875 0.890625q0.828125 -1.203125 2.140625 -1.203125q1.03125 0 1.578125 0.578125q0.5625 0.5625 0.5625 1.734375l0 4.75l-1.171875 0l0 -4.359375q0 -0.703125 -0.125 -1.0q-0.109375 -0.3125 -0.40625 -0.5q-0.296875 -0.1875 -0.703125 -0.1875q-0.71875 0 -1.203125 0.484375q-0.484375 0.484375 -0.484375 1.546875l0 4.015625l-1.171875 0l0 -4.484375q0 -0.78125 -0.296875 -1.171875q-0.28125 -0.390625 -0.921875 -0.390625q-0.5 0 -0.921875 0.265625q-0.421875 0.25 -0.609375 0.75q-0.1875 0.5 -0.1875 1.453125l0 3.578125l-1.171875 0zm19.32106 -2.53125l1.15625 0.15625q-0.1875 1.1875 -0.96875 1.859375q-0.78125 0.671875 -1.921875 0.671875q-1.4062653 0 -2.2812653 -0.921875q-0.859375 -0.9375 -0.859375 -2.65625q0 -1.125 0.375 -1.96875q0.375 -0.84375 1.125 -1.25q0.765625 -0.421875 1.6562653 -0.421875q1.125 0 1.84375 0.578125q0.71875 0.5625 0.921875 1.609375l-1.140625 0.171875q-0.171875 -0.703125 -0.59375 -1.046875q-0.40625 -0.359375 -0.984375 -0.359375q-0.890625 0 -1.4531403 0.640625q-0.546875 0.640625 -0.546875 2.0q0 1.40625 0.53125 2.03125q0.546875 0.625 1.4062653 0.625q0.6875 0 1.140625 -0.421875q0.46875 -0.421875 0.59375 -1.296875zm6.6640625 1.671875q-0.65625 0.5625 -1.265625 0.796875q-0.59375 0.21875 -1.28125 0.21875q-1.140625 0 -1.75 -0.546875q-0.609375 -0.5625 -0.609375 -1.4375q0 -0.5 0.21875 -0.921875q0.234375 -0.421875 0.609375 -0.671875q0.375 -0.25 0.84375 -0.390625q0.34375 -0.078125 1.046875 -0.171875q1.421875 -0.171875 2.09375 -0.40625q0 -0.234375 0 -0.296875q0 -0.71875 -0.328125 -1.015625q-0.453125 -0.390625 -1.34375 -0.390625q-0.8125 0 -1.21875 0.296875q-0.390625 0.28125 -0.578125 1.015625l-1.140625 -0.15625q0.15625 -0.734375 0.515625 -1.1875q0.359375 -0.453125 1.03125 -0.6875q0.671875 -0.25 1.5625 -0.25q0.890625 0 1.4375 0.203125q0.5625 0.203125 0.8125 0.53125q0.265625 0.3125 0.375 0.796875q0.046875 0.296875 0.046875 1.078125l0 1.5625q0 1.625 0.078125 2.0625q0.078125 0.4375 0.296875 0.828125l-1.21875 0q-0.1875 -0.359375 -0.234375 -0.859375zm-0.09375 -2.609375q-0.640625 0.265625 -1.921875 0.4375q-0.71875 0.109375 -1.015625 0.25q-0.296875 0.125 -0.46875 0.375q-0.15625 0.25 -0.15625 0.546875q0 0.46875 0.34375 0.78125q0.359375 0.3125 1.046875 0.3125q0.671875 0 1.203125 -0.296875q0.53125 -0.296875 0.78125 -0.8125q0.1875 -0.390625 0.1875 -1.171875l0 -0.421875zm2.9749756 3.46875l0 -9.546875l1.171875 0l0 9.546875l-1.171875 0zm2.96109 0l0 -9.546875l1.171875 0l0 9.546875l-1.171875 0zm2.507965 -2.0625l1.15625 -0.1875q0.109375 0.703125 0.546875 1.078125q0.453125 0.359375 1.25 0.359375q0.8125 0 1.203125 -0.328125q0.390625 -0.328125 0.390625 -0.765625q0 -0.390625 -0.359375 -0.625q-0.234375 -0.15625 -1.1875 -0.390625q-1.296875 -0.328125 -1.796875 -0.5625q-0.484375 -0.25 -0.75 -0.65625q-0.25 -0.421875 -0.25 -0.9375q0 -0.453125 0.203125 -0.84375q0.21875 -0.40625 0.578125 -0.671875q0.28125 -0.1875 0.75 -0.328125q0.46875 -0.140625 1.015625 -0.140625q0.8125 0 1.421875 0.234375q0.609375 0.234375 0.90625 0.640625q0.296875 0.390625 0.40625 1.0625l-1.140625 0.15625q-0.078125 -0.53125 -0.453125 -0.828125q-0.375 -0.3125 -1.0625 -0.3125q-0.8125 0 -1.15625 0.265625q-0.34375 0.265625 -0.34375 0.625q0 0.234375 0.140625 0.421875q0.15625 0.1875 0.453125 0.3125q0.171875 0.0625 1.03125 0.296875q1.25 0.328125 1.734375 0.546875q0.5 0.203125 0.78125 0.609375q0.28125 0.40625 0.28125 1.0q0 0.59375 -0.34375 1.109375q-0.34375 0.515625 -1.0 0.796875q-0.640625 0.28125 -1.453125 0.28125q-1.34375 0 -2.046875 -0.5625q-0.703125 -0.5625 -0.90625 -1.65625z" fill-rule="nonzero"/><path fill="#fff2cc" d="m44.454067 95.40656l174.83464 0l0 48.850395l-174.83464 0z" fill-rule="evenodd"/><path stroke="#f1c232" stroke-width="1.0" stroke-linejoin="round" stroke-linecap="butt" d="m44.454067 95.40656l174.83464 0l0 48.850395l-174.83464 0z" fill-rule="evenodd"/><path fill="#000000" d="m85.11598 121.51739l0 -1.578125l5.65625 0l0 4.953125q-1.296875 1.046875 -2.6875 1.578125q-1.375 0.515625 -2.84375 0.515625q-1.96875 0 -3.578125 -0.84375q-1.609375 -0.84375 -2.421875 -2.4375q-0.8125 -1.59375 -0.8125 -3.5625q0 -1.953125 0.8125 -3.640625q0.8125 -1.6875 2.34375 -2.5q1.53125 -0.828125 3.515625 -0.828125q1.453125 0 2.625 0.46875q1.171875 0.46875 1.828125 1.3125q0.671875 0.828125 1.015625 2.171875l-1.59375 0.4375q-0.296875 -1.015625 -0.75 -1.59375q-0.4375 -0.59375 -1.265625 -0.9375q-0.828125 -0.34375 -1.84375 -0.34375q-1.203125 0 -2.09375 0.375q-0.890625 0.359375 -1.4375 0.96875q-0.53125 0.59375 -0.828125 1.3125q-0.515625 1.234375 -0.515625 2.6875q0 1.78125 0.609375 2.984375q0.625 1.203125 1.796875 1.796875q1.171875 0.578125 2.5 0.578125q1.140625 0 2.234375 -0.4375q1.09375 -0.453125 1.65625 -0.953125l0 -2.484375l-3.921875 0zm14.386429 5.234375l0 -1.421875q-1.125 1.640625 -3.0625 1.640625q-0.859375 0 -1.609375 -0.328125q-0.734375 -0.328125 -1.09375 -0.828125q-0.359375 -0.5 -0.5 -1.21875q-0.109375 -0.46875 -0.109375 -1.53125l0 -5.984375l1.640625 0l0 5.359375q0 1.28125 0.109375 1.734375q0.15625 0.640625 0.65625 1.015625q0.5 0.375 1.234375 0.375q0.734375 0 1.375 -0.375q0.65625 -0.390625 0.921875 -1.03125q0.265625 -0.65625 0.265625 -1.890625l0 -5.1875l1.640625 0l0 9.671875l-1.46875 0zm10.672592 -3.109375l1.6875 0.203125q-0.40625 1.484375 -1.484375 2.3125q-1.078125 0.8125 -2.765625 0.8125q-2.125 0 -3.375 -1.296875q-1.234375 -1.3125 -1.234375 -3.671875q0 -2.453125 1.25 -3.796875q1.265625 -1.34375 3.265625 -1.34375q1.9375 0 3.15625 1.328125q1.234375 1.3125 1.234375 3.703125q0 0.15625 0 0.4375l-7.21875 0q0.09375 1.59375 0.90625 2.453125q0.8125 0.84375 2.015625 0.84375q0.90625 0 1.546875 -0.46875q0.640625 -0.484375 1.015625 -1.515625zm-5.390625 -2.65625l5.40625 0q-0.109375 -1.21875 -0.625 -1.828125q-0.78125 -0.953125 -2.03125 -0.953125q-1.125 0 -1.90625 0.765625q-0.765625 0.75 -0.84375 2.015625zm8.485092 2.875l1.625 -0.25q0.125 0.96875 0.75 1.5q0.625 0.515625 1.75 0.515625q1.125 0 1.671875 -0.453125q0.546875 -0.46875 0.546875 -1.09375q0 -0.546875 -0.484375 -0.875q-0.328125 -0.21875 -1.671875 -0.546875q-1.8125 -0.46875 -2.515625 -0.796875q-0.6875 -0.328125 -1.046875 -0.90625q-0.359375 -0.59375 -0.359375 -1.3125q0 -0.640625 0.296875 -1.1875q0.296875 -0.5625 0.8125 -0.921875q0.375 -0.28125 1.03125 -0.46875q0.671875 -0.203125 1.421875 -0.203125q1.140625 0 2.0 0.328125q0.859375 0.328125 1.265625 0.890625q0.421875 0.5625 0.578125 1.5l-1.609375 0.21875q-0.109375 -0.75 -0.640625 -1.171875q-0.515625 -0.421875 -1.46875 -0.421875q-1.140625 0 -1.625 0.375q-0.46875 0.375 -0.46875 0.875q0 0.3125 0.1875 0.578125q0.203125 0.265625 0.640625 0.4375q0.234375 0.09375 1.4375 0.421875q1.75 0.453125 2.4375 0.75q0.6875 0.296875 1.078125 0.859375q0.390625 0.5625 0.390625 1.40625q0 0.828125 -0.484375 1.546875q-0.46875 0.71875 -1.375 1.125q-0.90625 0.390625 -2.046875 0.390625q-1.875 0 -2.875 -0.78125q-0.984375 -0.78125 -1.25 -2.328125zm13.5625 1.421875l0.234375 1.453125q-0.6875 0.140625 -1.234375 0.140625q-0.890625 0 -1.390625 -0.28125q-0.484375 -0.28125 -0.6875 -0.734375q-0.203125 -0.46875 -0.203125 -1.9375l0 -5.578125l-1.203125 0l0 -1.265625l1.203125 0l0 -2.390625l1.625 -0.984375l0 3.375l1.65625 0l0 1.265625l-1.65625 0l0 5.671875q0 0.6875 0.078125 0.890625q0.09375 0.203125 0.28125 0.328125q0.203125 0.109375 0.578125 0.109375q0.265625 0 0.71875 -0.0625zm6.9134827 1.46875l0 -13.359375l1.78125 0l0 6.625l6.625 -6.625l2.390625 0l-5.59375 5.421875l5.84375 7.9375l-2.328125 0l-4.765625 -6.765625l-2.171875 2.140625l0 4.625l-1.78125 0zm18.943573 -3.109375l1.6875 0.203125q-0.40625 1.484375 -1.484375 2.3125q-1.078125 0.8125 -2.765625 0.8125q-2.125 0 -3.375 -1.296875q-1.234375 -1.3125 -1.234375 -3.671875q0 -2.453125 1.25 -3.796875q1.265625 -1.34375 3.265625 -1.34375q1.9375 0 3.15625 1.328125q1.234375 1.3125 1.234375 3.703125q0 0.15625 0 0.4375l-7.21875 0q0.09375 1.59375 0.90625 2.453125q0.8125 0.84375 2.015625 0.84375q0.90625 0 1.546875 -0.46875q0.640625 -0.484375 1.015625 -1.515625zm-5.390625 -2.65625l5.40625 0q-0.109375 -1.21875 -0.625 -1.828125q-0.78125 -0.953125 -2.03125 -0.953125q-1.125 0 -1.90625 0.765625q-0.765625 0.75 -0.84375 2.015625zm9.125717 5.765625l0 -9.671875l1.46875 0l0 1.46875q0.5625 -1.03125 1.03125 -1.359375q0.484375 -0.328125 1.0625 -0.328125q0.828125 0 1.6875 0.53125l-0.5625 1.515625q-0.609375 -0.359375 -1.203125 -0.359375q-0.546875 0 -0.96875 0.328125q-0.421875 0.328125 -0.609375 0.890625q-0.28125 0.875 -0.28125 1.921875l0 5.0625l-1.625 0zm6.228302 0l0 -9.671875l1.46875 0l0 1.375q1.0625 -1.59375 3.078125 -1.59375q0.875 0 1.609375 0.3125q0.734375 0.3125 1.09375 0.828125q0.375 0.5 0.515625 1.203125q0.09375 0.453125 0.09375 1.59375l0 5.953125l-1.640625 0l0 -5.890625q0 -1.0 -0.203125 -1.484375q-0.1875 -0.5 -0.671875 -0.796875q-0.484375 -0.296875 -1.140625 -0.296875q-1.046875 0 -1.8125 0.671875q-0.75 0.65625 -0.75 2.515625l0 5.28125l-1.640625 0zm17.000717 -3.109375l1.6875 0.203125q-0.40625 1.484375 -1.484375 2.3125q-1.078125 0.8125 -2.765625 0.8125q-2.125 0 -3.375 -1.296875q-1.234375 -1.3125 -1.234375 -3.671875q0 -2.453125 1.25 -3.796875q1.265625 -1.34375 3.265625 -1.34375q1.9375 0 3.15625 1.328125q1.234375 1.3125 1.234375 3.703125q0 0.15625 0 0.4375l-7.21875 0q0.09375 1.59375 0.90625 2.453125q0.8125 0.84375 2.015625 0.84375q0.90625 0 1.546875 -0.46875q0.640625 -0.484375 1.015625 -1.515625zm-5.390625 -2.65625l5.40625 0q-0.109375 -1.21875 -0.625 -1.828125q-0.78125 -0.953125 -2.03125 -0.953125q-1.125 0 -1.90625 0.765625q-0.765625 0.75 -0.84375 2.015625zm9.094467 5.765625l0 -13.359375l1.640625 0l0 13.359375l-1.640625 0z" fill-rule="nonzero"/><path fill="#000000" fill-opacity="0.0" d="m12.454068 161.83176l57.574802 0" fill-rule="evenodd"/><path stroke="#ff0000" stroke-width="2.0" stroke-linejoin="round" stroke-linecap="butt" d="m12.454068 161.83176l57.574802 0" fill-rule="evenodd"/><path fill="#000000" fill-opacity="0.0" d="m193.71391 161.83176l60.7874 0" fill-rule="evenodd"/><path stroke="#ff0000" stroke-width="2.0" stroke-linejoin="round" stroke-linecap="butt" d="m193.71391 161.83176l60.7874 0" fill-rule="evenodd"/><path fill="#000000" fill-opacity="0.0" d="m70.02887 145.80026l123.68504 0l0 32.06299l-123.68504 0z" fill-rule="evenodd"/><path fill="#000000" d="m87.09864 166.63176l-3.6875 -9.546875l1.359375 0l2.484375 6.9375q0.296875 0.828125 0.5 1.5625q0.21875 -0.78125 0.515625 -1.5625l2.578125 -6.9375l1.28125 0l-3.734375 9.546875l-1.296875 0zm6.0303802 -8.1875l0 -1.359375l1.171875 0l0 1.359375l-1.171875 0zm0 8.1875l0 -6.90625l1.171875 0l0 6.90625l-1.171875 0zm2.92984 0l0 -6.90625l1.0625 0l0 1.046875q0.40625 -0.734375 0.734375 -0.96875q0.34375 -0.234375 0.765625 -0.234375q0.59375 0 1.203125 0.375l-0.40625 1.078125q-0.4375 -0.25 -0.859375 -0.25q-0.390625 0 -0.703125 0.234375q-0.296875 0.234375 -0.421875 0.640625q-0.203125 0.625 -0.203125 1.359375l0 3.625l-1.171875 0zm7.0164948 -1.046875l0.171875 1.03125q-0.5 0.109375 -0.890625 0.109375q-0.640625 0 -1.0 -0.203125q-0.34375 -0.203125 -0.484375 -0.53125q-0.140625 -0.328125 -0.140625 -1.390625l0 -3.96875l-0.859375 0l0 -0.90625l0.859375 0l0 -1.71875l1.171875 -0.703125l0 2.421875l1.171875 0l0 0.90625l-1.171875 0l0 4.046875q0 0.5 0.046875 0.640625q0.0625 0.140625 0.203125 0.234375q0.140625 0.078125 0.40625 0.078125q0.203125 0 0.515625 -0.046875zm5.6717377 1.046875l0 -1.015625q-0.8125 1.171875 -2.1875 1.171875q-0.609375 0 -1.140625 -0.234375q-0.53125 -0.234375 -0.796875 -0.578125q-0.25 -0.359375 -0.359375 -0.875q-0.0625 -0.34375 -0.0625 -1.09375l0 -4.28125l1.171875 0l0 3.828125q0 0.921875 0.0625 1.234375q0.109375 0.46875 0.46875 0.734375q0.359375 0.25 0.890625 0.25q0.515625 0 0.984375 -0.265625q0.46875 -0.265625 0.65625 -0.734375q0.1875 -0.46875 0.1875 -1.34375l0 -3.703125l1.171875 0l0 6.90625l-1.046875 0zm7.3968506 -0.859375q-0.65625 0.5625 -1.265625 0.796875q-0.59375 0.21875 -1.28125 0.21875q-1.140625 0 -1.75 -0.546875q-0.609375 -0.5625 -0.609375 -1.4375q0 -0.5 0.21875 -0.921875q0.234375 -0.421875 0.609375 -0.671875q0.375 -0.25 0.84375 -0.390625q0.34375 -0.078125 1.046875 -0.171875q1.421875 -0.171875 2.09375 -0.40625q0 -0.234375 0 -0.296875q0 -0.71875 -0.328125 -1.015625q-0.453125 -0.390625 -1.34375 -0.390625q-0.8125 0 -1.21875 0.296875q-0.390625 0.28125 -0.578125 1.015625l-1.140625 -0.15625q0.15625 -0.734375 0.515625 -1.1875q0.359375 -0.453125 1.03125 -0.6875q0.671875 -0.25 1.5625 -0.25q0.890625 0 1.4375 0.203125q0.5625 0.203125 0.8125 0.53125q0.265625 0.3125 0.375 0.796875q0.046875 0.296875 0.046875 1.078125l0 1.5625q0 1.625 0.078125 2.0625q0.078125 0.4375 0.296875 0.828125l-1.21875 0q-0.1875 -0.359375 -0.234375 -0.859375zm-0.09375 -2.609375q-0.640625 0.265625 -1.921875 0.4375q-0.71875 0.109375 -1.015625 0.25q-0.296875 0.125 -0.46875 0.375q-0.15625 0.25 -0.15625 0.546875q0 0.46875 0.34375 0.78125q0.359375 0.3125 1.046875 0.3125q0.671875 0 1.203125 -0.296875q0.53125 -0.296875 0.78125 -0.8125q0.1875 -0.390625 0.1875 -1.171875l0 -0.421875zm2.9749756 3.46875l0 -9.546875l1.171875 0l0 9.546875l-1.171875 0zm6.6797028 0l0 -9.546875l1.171875 0l0 3.421875q0.828125 -0.9375 2.0781174 -0.9375q0.765625 0 1.328125 0.296875q0.5625 0.296875 0.8125 0.84375q0.25 0.53125 0.25 1.546875l0 4.375l-1.171875 0l0 -4.375q0 -0.890625 -0.390625 -1.28125q-0.375 -0.40625 -1.078125 -0.40625q-0.515625 0 -0.9843674 0.28125q-0.453125 0.265625 -0.65625 0.734375q-0.1875 0.453125 -0.1875 1.265625l0 3.78125l-1.171875 0zm11.928093 -0.859375q-0.65625 0.5625 -1.265625 0.796875q-0.59375 0.21875 -1.28125 0.21875q-1.140625 0 -1.75 -0.546875q-0.609375 -0.5625 -0.609375 -1.4375q0 -0.5 0.21875 -0.921875q0.234375 -0.421875 0.609375 -0.671875q0.375 -0.25 0.84375 -0.390625q0.34375 -0.078125 1.046875 -0.171875q1.421875 -0.171875 2.09375 -0.40625q0 -0.234375 0 -0.296875q0 -0.71875 -0.328125 -1.015625q-0.453125 -0.390625 -1.34375 -0.390625q-0.8125 0 -1.21875 0.296875q-0.390625 0.28125 -0.578125 1.015625l-1.140625 -0.15625q0.15625 -0.734375 0.515625 -1.1875q0.359375 -0.453125 1.03125 -0.6875q0.671875 -0.25 1.5625 -0.25q0.890625 0 1.4375 0.203125q0.5625 0.203125 0.8125 0.53125q0.265625 0.3125 0.375 0.796875q0.046875 0.296875 0.046875 1.078125l0 1.5625q0 1.625 0.078125 2.0625q0.078125 0.4375 0.296875 0.828125l-1.21875 0q-0.1875 -0.359375 -0.234375 -0.859375zm-0.09375 -2.609375q-0.640625 0.265625 -1.921875 0.4375q-0.71875 0.109375 -1.015625 0.25q-0.296875 0.125 -0.46875 0.375q-0.15625 0.25 -0.15625 0.546875q0 0.46875 0.34375 0.78125q0.359375 0.3125 1.046875 0.3125q0.671875 0 1.203125 -0.296875q0.53125 -0.296875 0.78125 -0.8125q0.1875 -0.390625 0.1875 -1.171875l0 -0.421875zm2.9749756 3.46875l0 -6.90625l1.0625 0l0 1.046875q0.40625 -0.734375 0.734375 -0.96875q0.34375 -0.234375 0.765625 -0.234375q0.59375 0 1.203125 0.375l-0.40625 1.078125q-0.4375 -0.25 -0.859375 -0.25q-0.390625 0 -0.703125 0.234375q-0.296875 0.234375 -0.421875 0.640625q-0.203125 0.625 -0.203125 1.359375l0 3.625l-1.171875 0zm8.93837 0l0 -0.875q-0.65625 1.03125 -1.9375 1.03125q-0.8125 0 -1.515625 -0.453125q-0.6875 -0.453125 -1.078125 -1.265625q-0.375 -0.828125 -0.375 -1.890625q0 -1.03125 0.34375 -1.875q0.34375 -0.84375 1.03125 -1.28125q0.703125 -0.453125 1.546875 -0.453125q0.625 0 1.109375 0.265625q0.5 0.25 0.796875 0.671875l0 -3.421875l1.171875 0l0 9.546875l-1.09375 0zm-3.703125 -3.453125q0 1.328125 0.5625 1.984375q0.5625 0.65625 1.328125 0.65625q0.765625 0 1.296875 -0.625q0.53125 -0.625 0.53125 -1.90625q0 -1.421875 -0.546875 -2.078125q-0.546875 -0.671875 -1.34375 -0.671875q-0.78125 0 -1.3125 0.640625q-0.515625 0.625 -0.515625 2.0zm7.9124756 3.453125l-2.125 -6.90625l1.21875 0l1.09375 3.984375l0.421875 1.484375q0.015625 -0.109375 0.359375 -1.421875l1.09375 -4.046875l1.203125 0l1.03125 4.0l0.34375 1.328125l0.40625 -1.34375l1.171875 -3.984375l1.140625 0l-2.15625 6.90625l-1.21875 0l-1.09375 -4.140625l-0.265625 -1.171875l-1.40625 5.3125l-1.21875 0zm12.859528 -0.859375q-0.65625 0.5625 -1.265625 0.796875q-0.59375 0.21875 -1.28125 0.21875q-1.140625 0 -1.75 -0.546875q-0.609375 -0.5625 -0.609375 -1.4375q0 -0.5 0.21875 -0.921875q0.234375 -0.421875 0.609375 -0.671875q0.375 -0.25 0.84375 -0.390625q0.34375 -0.078125 1.046875 -0.171875q1.421875 -0.171875 2.09375 -0.40625q0 -0.234375 0 -0.296875q0 -0.71875 -0.328125 -1.015625q-0.453125 -0.390625 -1.34375 -0.390625q-0.8125 0 -1.21875 0.296875q-0.390625 0.28125 -0.578125 1.015625l-1.140625 -0.15625q0.15625 -0.734375 0.515625 -1.1875q0.359375 -0.453125 1.03125 -0.6875q0.671875 -0.25 1.5625 -0.25q0.890625 0 1.4375 0.203125q0.5625 0.203125 0.8125 0.53125q0.265625 0.3125 0.375 0.796875q0.046875 0.296875 0.046875 1.078125l0 1.5625q0 1.625 0.078125 2.0625q0.078125 0.4375 0.296875 0.828125l-1.21875 0q-0.1875 -0.359375 -0.234375 -0.859375zm-0.09375 -2.609375q-0.640625 0.265625 -1.921875 0.4375q-0.71875 0.109375 -1.015625 0.25q-0.296875 0.125 -0.46875 0.375q-0.15625 0.25 -0.15625 0.546875q0 0.46875 0.34375 0.78125q0.359375 0.3125 1.046875 0.3125q0.671875 0 1.203125 -0.296875q0.53125 -0.296875 0.78125 -0.8125q0.1875 -0.390625 0.1875 -1.171875l0 -0.421875zm2.9749756 3.46875l0 -6.90625l1.0625 0l0 1.046875q0.40625 -0.734375 0.734375 -0.96875q0.34375 -0.234375 0.765625 -0.234375q0.59375 0 1.203125 0.375l-0.40625 1.078125q-0.4375 -0.25 -0.859375 -0.25q-0.390625 0 -0.703125 0.234375q-0.296875 0.234375 -0.421875 0.640625q-0.203125 0.625 -0.203125 1.359375l0 3.625l-1.171875 0zm9.18837 -2.21875l1.203125 0.140625q-0.28125 1.0625 -1.0625 1.65625q-0.765625 0.578125 -1.96875 0.578125q-1.515625 0 -2.40625 -0.9375q-0.890625 -0.9375 -0.890625 -2.609375q0 -1.75 0.890625 -2.703125q0.90625 -0.96875 2.34375 -0.96875q1.390625 0 2.265625 0.9375q0.875 0.9375 0.875 2.65625q0 0.109375 0 0.3125l-5.15625 0q0.0625 1.140625 0.640625 1.75q0.578125 0.59375 1.4375 0.59375q0.65625 0 1.109375 -0.328125q0.453125 -0.34375 0.71875 -1.078125zm-3.84375 -1.90625l3.859375 0q-0.078125 -0.859375 -0.4375 -1.296875q-0.5625 -0.6875 -1.453125 -0.6875q-0.8125 0 -1.359375 0.546875q-0.546875 0.53125 -0.609375 1.4375z" fill-rule="nonzero"/><path fill="#d9ead3" d="m44.454067 175.40657l174.83464 0l0 48.850388l-174.83464 0z" fill-rule="evenodd"/><path stroke="#93c47d" stroke-width="1.0" stroke-linejoin="round" stroke-linecap="butt" d="m44.454067 175.40657l174.83464 0l0 48.850388l-174.83464 0z" fill-rule="evenodd"/><path fill="#000000" d="m115.3588 206.75175l-5.171875 -13.359375l1.921875 0l3.46875 9.703125q0.421875 1.171875 0.703125 2.1875q0.3125 -1.09375 0.71875 -2.1875l3.609375 -9.703125l1.796875 0l-5.234375 13.359375l-1.8125 0zm8.584198 0l0 -13.359375l2.65625 0l3.1562424 9.453125q0.4375 1.328125 0.640625 1.984375q0.234375 -0.734375 0.703125 -2.140625l3.203125 -9.296875l2.375 0l0 13.359375l-1.703125 0l0 -11.171875l-3.875 11.171875l-1.59375 0l-3.8593674 -11.375l0 11.375l-1.703125 0zm15.540794 0l0 -13.359375l2.65625 0l3.15625 9.453125q0.4375 1.328125 0.640625 1.984375q0.234375 -0.734375 0.703125 -2.140625l3.203125 -9.296875l2.375 0l0 13.359375l-1.703125 0l0 -11.171875l-3.875 11.171875l-1.59375 0l-3.859375 -11.375l0 11.375l-1.703125 0z" fill-rule="nonzero"/><path fill="#000000" fill-opacity="0.0" d="m12.454068 239.1764l74.04724 0" fill-rule="evenodd"/><path stroke="#000000" stroke-width="1.0" stroke-linejoin="round" stroke-linecap="butt" d="m12.454068 239.1764l74.04724 0" fill-rule="evenodd"/><path fill="#000000" fill-opacity="0.0" d="m180.45407 239.1764l74.04724 0" fill-rule="evenodd"/><path stroke="#000000" stroke-width="1.0" stroke-linejoin="round" stroke-linecap="butt" d="m180.45407 239.1764l74.04724 0" fill-rule="evenodd"/><path fill="#000000" fill-opacity="0.0" d="m81.43044 222.81055l100.88189 0l0 32.06299l-100.88189 0z" fill-rule="evenodd"/><path fill="#000000" d="m95.06437 240.57954l1.203125 -0.109375q0.078125 0.71875 0.390625 1.1875q0.3125 0.453125 0.953125 0.734375q0.65625 0.28125 1.46875 0.28125q0.71875 0 1.265625 -0.21875q0.5625 -0.21875 0.828125 -0.578125q0.265625 -0.375 0.265625 -0.828125q0 -0.453125 -0.265625 -0.78125q-0.25 -0.328125 -0.84375 -0.5625q-0.390625 -0.15625 -1.703125 -0.46875q-1.3125 -0.3125 -1.84375 -0.59375q-0.671875 -0.359375 -1.015625 -0.890625q-0.328125 -0.53125 -0.328125 -1.1875q0 -0.71875 0.40625 -1.34375q0.40625 -0.625 1.1875 -0.953125q0.796875 -0.328125 1.765625 -0.328125q1.046875 0 1.859375 0.34375q0.8125 0.34375 1.25 1.015625q0.4375 0.65625 0.46875 1.484375l-1.203125 0.09375q-0.109375 -0.90625 -0.671875 -1.359375q-0.5625 -0.46875 -1.65625 -0.46875q-1.140625 0 -1.671875 0.421875q-0.515625 0.421875 -0.515625 1.015625q0 0.515625 0.359375 0.84375q0.375 0.328125 1.90625 0.6875q1.546875 0.34375 2.109375 0.59375q0.84375 0.390625 1.234375 0.984375q0.390625 0.578125 0.390625 1.359375q0 0.75 -0.4375 1.4375q-0.421875 0.671875 -1.25 1.046875q-0.8125 0.359375 -1.828125 0.359375q-1.296875 0 -2.171875 -0.375q-0.875 -0.375 -1.375 -1.125q-0.5 -0.765625 -0.53125 -1.71875zm9.12413 5.71875l-0.125 -1.09375q0.375 0.109375 0.65625 0.109375q0.390625 0 0.625 -0.140625q0.234375 -0.125 0.390625 -0.359375q0.109375 -0.171875 0.359375 -0.875q0.03125 -0.09375 0.109375 -0.28125l-2.625 -6.921875l1.265625 0l1.4375 4.0q0.28125 0.765625 0.5 1.59375q0.203125 -0.796875 0.46875 -1.578125l1.484375 -4.015625l1.171875 0l-2.625 7.015625q-0.421875 1.140625 -0.65625 1.578125q-0.3125 0.578125 -0.71875 0.84375q-0.40625 0.28125 -0.96875 0.28125q-0.328125 0 -0.75 -0.15625zm6.2421875 -4.71875l1.15625 -0.1875q0.109375 0.703125 0.546875 1.078125q0.453125 0.359375 1.25 0.359375q0.8125 0 1.203125 -0.328125q0.390625 -0.328125 0.390625 -0.765625q0 -0.390625 -0.359375 -0.625q-0.234375 -0.15625 -1.1875 -0.390625q-1.296875 -0.328125 -1.796875 -0.5625q-0.484375 -0.25 -0.75 -0.65625q-0.25 -0.421875 -0.25 -0.9375q0 -0.453125 0.203125 -0.84375q0.21875 -0.40625 0.578125 -0.671875q0.28125 -0.1875 0.75 -0.328125q0.46875 -0.140625 1.015625 -0.140625q0.8125 0 1.421875 0.234375q0.609375 0.234375 0.90625 0.640625q0.296875 0.390625 0.40625 1.0625l-1.140625 0.15625q-0.078125 -0.53125 -0.453125 -0.828125q-0.375 -0.3125 -1.0625 -0.3125q-0.8125 0 -1.15625 0.265625q-0.34375 0.265625 -0.34375 0.625q0 0.234375 0.140625 0.421875q0.15625 0.1875 0.453125 0.3125q0.171875 0.0625 1.03125 0.296875q1.25 0.328125 1.734375 0.546875q0.5 0.203125 0.78125 0.609375q0.28125 0.40625 0.28125 1.0q0 0.59375 -0.34375 1.109375q-0.34375 0.515625 -1.0 0.796875q-0.640625 0.28125 -1.453125 0.28125q-1.34375 0 -2.046875 -0.5625q-0.703125 -0.5625 -0.90625 -1.65625zm9.6953125 1.015625l0.171875 1.03125q-0.5 0.109375 -0.890625 0.109375q-0.640625 0 -1.0 -0.203125q-0.34375 -0.203125 -0.484375 -0.53125q-0.140625 -0.328125 -0.140625 -1.390625l0 -3.96875l-0.859375 0l0 -0.90625l0.859375 0l0 -1.71875l1.171875 -0.703125l0 2.421875l1.171875 0l0 0.90625l-1.171875 0l0 4.046875q0 0.5 0.046875 0.640625q0.0625 0.140625 0.203125 0.234375q0.140625 0.078125 0.40625 0.078125q0.203125 0 0.515625 -0.046875zm5.8748627 -1.171875l1.203125 0.140625q-0.28125 1.0625 -1.0625 1.65625q-0.765625 0.578125 -1.96875 0.578125q-1.515625 0 -2.40625 -0.9375q-0.890625 -0.9375 -0.890625 -2.609375q0 -1.75 0.890625 -2.703125q0.90625 -0.96875 2.34375 -0.96875q1.390625 0 2.265625 0.9375q0.875 0.9375 0.875 2.65625q0 0.109375 0 0.3125l-5.15625 0q0.0625 1.140625 0.640625 1.75q0.578125 0.59375 1.4375 0.59375q0.65625 0 1.109375 -0.328125q0.453125 -0.34375 0.71875 -1.078125zm-3.84375 -1.90625l3.859375 0q-0.078125 -0.859375 -0.4375 -1.296875q-0.5625 -0.6875 -1.453125 -0.6875q-0.8125 0 -1.359375 0.546875q-0.546875 0.53125 -0.609375 1.4375zm6.521843 4.125l0 -6.90625l1.046875 0l0 0.96875q0.328125 -0.515625 0.859375 -0.8125q0.546875 -0.3125 1.234375 -0.3125q0.78125 0 1.265625 0.3125q0.484375 0.3125 0.6875 0.890625q0.828125 -1.203125 2.140625 -1.203125q1.03125 0 1.578125 0.578125q0.5625 0.5625 0.5625 1.734375l0 4.75l-1.171875 0l0 -4.359375q0 -0.703125 -0.125 -1.0q-0.109375 -0.3125 -0.40625 -0.5q-0.296875 -0.1875 -0.703125 -0.1875q-0.71875 0 -1.203125 0.484375q-0.484375 0.484375 -0.484375 1.546875l0 4.015625l-1.171875 0l0 -4.484375q0 -0.78125 -0.296875 -1.171875q-0.28125 -0.390625 -0.921875 -0.390625q-0.5 0 -0.921875 0.265625q-0.421875 0.25 -0.609375 0.75q-0.1875 0.5 -0.1875 1.453125l0 3.578125l-1.171875 0zm19.32106 -2.53125l1.15625 0.15625q-0.1875 1.1875 -0.96875 1.859375q-0.78125 0.671875 -1.921875 0.671875q-1.4062653 0 -2.2812653 -0.921875q-0.859375 -0.9375 -0.859375 -2.65625q0 -1.125 0.375 -1.96875q0.375 -0.84375 1.125 -1.25q0.765625 -0.421875 1.6562653 -0.421875q1.125 0 1.84375 0.578125q0.71875 0.5625 0.921875 1.609375l-1.140625 0.171875q-0.171875 -0.703125 -0.59375 -1.046875q-0.40625 -0.359375 -0.984375 -0.359375q-0.890625 0 -1.4531403 0.640625q-0.546875 0.640625 -0.546875 2.0q0 1.40625 0.53125 2.03125q0.546875 0.625 1.4062653 0.625q0.6875 0 1.140625 -0.421875q0.46875 -0.421875 0.59375 -1.296875zm6.6640625 1.671875q-0.65625 0.5625 -1.265625 0.796875q-0.59375 0.21875 -1.28125 0.21875q-1.140625 0 -1.75 -0.546875q-0.609375 -0.5625 -0.609375 -1.4375q0 -0.5 0.21875 -0.921875q0.234375 -0.421875 0.609375 -0.671875q0.375 -0.25 0.84375 -0.390625q0.34375 -0.078125 1.046875 -0.171875q1.421875 -0.171875 2.09375 -0.40625q0 -0.234375 0 -0.296875q0 -0.71875 -0.328125 -1.015625q-0.453125 -0.390625 -1.34375 -0.390625q-0.8125 0 -1.21875 0.296875q-0.390625 0.28125 -0.578125 1.015625l-1.140625 -0.15625q0.15625 -0.734375 0.515625 -1.1875q0.359375 -0.453125 1.03125 -0.6875q0.671875 -0.25 1.5625 -0.25q0.890625 0 1.4375 0.203125q0.5625 0.203125 0.8125 0.53125q0.265625 0.3125 0.375 0.796875q0.046875 0.296875 0.046875 1.078125l0 1.5625q0 1.625 0.078125 2.0625q0.078125 0.4375 0.296875 0.828125l-1.21875 0q-0.1875 -0.359375 -0.234375 -0.859375zm-0.09375 -2.609375q-0.640625 0.265625 -1.921875 0.4375q-0.71875 0.109375 -1.015625 0.25q-0.296875 0.125 -0.46875 0.375q-0.15625 0.25 -0.15625 0.546875q0 0.46875 0.34375 0.78125q0.359375 0.3125 1.046875 0.3125q0.671875 0 1.203125 -0.296875q0.53125 -0.296875 0.78125 -0.8125q0.1875 -0.390625 0.1875 -1.171875l0 -0.421875zm2.9749756 3.46875l0 -9.546875l1.171875 0l0 9.546875l-1.171875 0zm2.96109 0l0 -9.546875l1.171875 0l0 9.546875l-1.171875 0zm2.507965 -2.0625l1.15625 -0.1875q0.109375 0.703125 0.546875 1.078125q0.453125 0.359375 1.25 0.359375q0.8125 0 1.203125 -0.328125q0.390625 -0.328125 0.390625 -0.765625q0 -0.390625 -0.359375 -0.625q-0.234375 -0.15625 -1.1875 -0.390625q-1.296875 -0.328125 -1.796875 -0.5625q-0.484375 -0.25 -0.75 -0.65625q-0.25 -0.421875 -0.25 -0.9375q0 -0.453125 0.203125 -0.84375q0.21875 -0.40625 0.578125 -0.671875q0.28125 -0.1875 0.75 -0.328125q0.46875 -0.140625 1.015625 -0.140625q0.8125 0 1.421875 0.234375q0.609375 0.234375 0.90625 0.640625q0.296875 0.390625 0.40625 1.0625l-1.140625 0.15625q-0.078125 -0.53125 -0.453125 -0.828125q-0.375 -0.3125 -1.0625 -0.3125q-0.8125 0 -1.15625 0.265625q-0.34375 0.265625 -0.34375 0.625q0 0.234375 0.140625 0.421875q0.15625 0.1875 0.453125 0.3125q0.171875 0.0625 1.03125 0.296875q1.25 0.328125 1.734375 0.546875q0.5 0.203125 0.78125 0.609375q0.28125 0.40625 0.28125 1.0q0 0.59375 -0.34375 1.109375q-0.34375 0.515625 -1.0 0.796875q-0.640625 0.28125 -1.453125 0.28125q-1.34375 0 -2.046875 -0.5625q-0.703125 -0.5625 -0.90625 -1.65625z" fill-rule="nonzero"/><path fill="#cfe2f3" d="m44.454067 252.7512l174.83464 0l0 48.850388l-174.83464 0z" fill-rule="evenodd"/><path stroke="#6d9eeb" stroke-width="1.0" stroke-linejoin="round" stroke-linecap="butt" d="m44.454067 252.7512l174.83464 0l0 48.850388l-174.83464 0z" fill-rule="evenodd"/><path fill="#000000" d="m84.63558 284.0964l0 -13.359375l1.765625 0l0 5.484375l6.9375 0l0 -5.484375l1.765625 0l0 13.359375l-1.765625 0l0 -6.296875l-6.9375 0l0 6.296875l-1.765625 0zm12.597946 -4.84375q0 -2.6875 1.484375 -3.96875q1.25 -1.078125 3.046875 -1.078125q2.0 0 3.265625 1.3125q1.265625 1.296875 1.265625 3.609375q0 1.859375 -0.5625 2.9375q-0.5625 1.0625 -1.640625 1.65625q-1.0625 0.59375 -2.328125 0.59375q-2.03125 0 -3.28125 -1.296875q-1.25 -1.3125 -1.25 -3.765625zm1.6875 0q0 1.859375 0.796875 2.796875q0.8125 0.921875 2.046875 0.921875q1.21875 0 2.03125 -0.921875q0.8125 -0.9375 0.8125 -2.84375q0 -1.796875 -0.8125 -2.71875q-0.8125 -0.921875 -2.03125 -0.921875q-1.234375 0 -2.046875 0.921875q-0.796875 0.90625 -0.796875 2.765625zm8.641342 1.953125l1.625 -0.25q0.125 0.96875 0.75 1.5q0.625 0.515625 1.75 0.515625q1.125 0 1.671875 -0.453125q0.546875 -0.46875 0.546875 -1.09375q0 -0.546875 -0.484375 -0.875q-0.328125 -0.21875 -1.671875 -0.546875q-1.8125 -0.46875 -2.515625 -0.796875q-0.6875 -0.328125 -1.046875 -0.90625q-0.359375 -0.59375 -0.359375 -1.3125q0 -0.640625 0.296875 -1.1875q0.296875 -0.5625 0.8125 -0.921875q0.375 -0.28125 1.03125 -0.46875q0.671875 -0.203125 1.421875 -0.203125q1.140625 0 2.0 0.328125q0.859375 0.328125 1.265625 0.890625q0.421875 0.5625 0.578125 1.5l-1.609375 0.21875q-0.109375 -0.75 -0.640625 -1.171875q-0.515625 -0.421875 -1.46875 -0.421875q-1.140625 0 -1.625 0.375q-0.46875 0.375 -0.46875 0.875q0 0.3125 0.1875 0.578125q0.203125 0.265625 0.640625 0.4375q0.234375 0.09375 1.4375 0.421875q1.75 0.453125 2.4375 0.75q0.6875 0.296875 1.078125 0.859375q0.390625 0.5625 0.390625 1.40625q0 0.828125 -0.484375 1.546875q-0.46875 0.71875 -1.375 1.125q-0.90625 0.390625 -2.046875 0.390625q-1.875 0 -2.875 -0.78125q-0.984375 -0.78125 -1.25 -2.328125zm13.5625 1.421875l0.234375 1.453125q-0.6875 0.140625 -1.234375 0.140625q-0.890625 0 -1.390625 -0.28125q-0.484375 -0.28125 -0.6875 -0.734375q-0.203125 -0.46875 -0.203125 -1.9375l0 -5.578125l-1.203125 0l0 -1.265625l1.203125 0l0 -2.390625l1.625 -0.984375l0 3.375l1.65625 0l0 1.265625l-1.65625 0l0 5.671875q0 0.6875 0.078125 0.890625q0.09375 0.203125 0.28125 0.328125q0.203125 0.109375 0.578125 0.109375q0.265625 0 0.71875 -0.0625zm6.913475 1.46875l0 -13.359375l1.78125 0l0 6.625l6.625 -6.625l2.390625 0l-5.59375 5.421875l5.84375 7.9375l-2.328125 0l-4.765625 -6.765625l-2.171875 2.140625l0 4.625l-1.78125 0zm18.943573 -3.109375l1.6875 0.203125q-0.40625 1.484375 -1.484375 2.3125q-1.078125 0.8125 -2.765625 0.8125q-2.125 0 -3.375 -1.296875q-1.234375 -1.3125 -1.234375 -3.671875q0 -2.453125 1.25 -3.796875q1.265625 -1.34375 3.265625 -1.34375q1.9375 0 3.15625 1.328125q1.234375 1.3125 1.234375 3.703125q0 0.15625 0 0.4375l-7.21875 0q0.09375 1.59375 0.90625 2.453125q0.8125 0.84375 2.015625 0.84375q0.90625 0 1.546875 -0.46875q0.640625 -0.484375 1.015625 -1.515625zm-5.390625 -2.65625l5.40625 0q-0.109375 -1.21875 -0.625 -1.828125q-0.78125 -0.953125 -2.03125 -0.953125q-1.125 0 -1.90625 0.765625q-0.765625 0.75 -0.84375 2.015625zm9.125717 5.765625l0 -9.671875l1.46875 0l0 1.46875q0.5625 -1.03125 1.03125 -1.359375q0.484375 -0.328125 1.0625 -0.328125q0.828125 0 1.6875 0.53125l-0.5625 1.515625q-0.609375 -0.359375 -1.203125 -0.359375q-0.546875 0 -0.96875 0.328125q-0.421875 0.328125 -0.609375 0.890625q-0.28125 0.875 -0.28125 1.921875l0 5.0625l-1.625 0zm6.228302 0l0 -9.671875l1.46875 0l0 1.375q1.0625 -1.59375 3.078125 -1.59375q0.875 0 1.609375 0.3125q0.734375 0.3125 1.09375 0.828125q0.375 0.5 0.515625 1.203125q0.09375 0.453125 0.09375 1.59375l0 5.953125l-1.640625 0l0 -5.890625q0 -1.0 -0.203125 -1.484375q-0.1875 -0.5 -0.671875 -0.796875q-0.484375 -0.296875 -1.140625 -0.296875q-1.046875 0 -1.8125 0.671875q-0.75 0.65625 -0.75 2.515625l0 5.28125l-1.640625 0zm17.000732 -3.109375l1.6875 0.203125q-0.40625 1.484375 -1.484375 2.3125q-1.078125 0.8125 -2.7656403 0.8125q-2.125 0 -3.375 -1.296875q-1.234375 -1.3125 -1.234375 -3.671875q0 -2.453125 1.25 -3.796875q1.265625 -1.34375 3.265625 -1.34375q1.9375153 0 3.1562653 1.328125q1.234375 1.3125 1.234375 3.703125q0 0.15625 0 0.4375l-7.2187653 0q0.09375 1.59375 0.90625 2.453125q0.8125 0.84375 2.015625 0.84375q0.90625 0 1.5468903 -0.46875q0.640625 -0.484375 1.015625 -1.515625zm-5.3906403 -2.65625l5.4062653 0q-0.109375 -1.21875 -0.625 -1.828125q-0.78125 -0.953125 -2.0312653 -0.953125q-1.125 0 -1.90625 0.765625q-0.765625 0.75 -0.84375 2.015625zm9.094467 5.765625l0 -13.359375l1.640625 0l0 13.359375l-1.640625 0z" fill-rule="nonzero"/><path fill="#000000" fill-opacity="0.0" d="m12.454068 319.17642l74.04724 0" fill-rule="evenodd"/><path stroke="#000000" stroke-width="1.0" stroke-linejoin="round" stroke-linecap="butt" d="m12.454068 319.17642l74.04724 0" fill-rule="evenodd"/><path fill="#000000" fill-opacity="0.0" d="m180.45407 319.17642l74.04724 0" fill-rule="evenodd"/><path stroke="#000000" stroke-width="1.0" stroke-linejoin="round" stroke-linecap="butt" d="m180.45407 319.17642l74.04724 0" fill-rule="evenodd"/><path fill="#000000" fill-opacity="0.0" d="m81.43044 302.81055l100.88189 0l0 32.06299l-100.88189 0z" fill-rule="evenodd"/><path fill="#000000" d="m104.04542 323.64203l0 -9.546875l1.265625 0l0 3.921875l4.953125 0l0 -3.921875l1.265625 0l0 9.546875l-1.265625 0l0 -4.5l-4.953125 0l0 4.5l-1.265625 0zm13.953278 -0.859375q-0.65625 0.5625 -1.265625 0.796875q-0.59375 0.21875 -1.28125 0.21875q-1.140625 0 -1.75 -0.546875q-0.609375 -0.5625 -0.609375 -1.4375q0 -0.5 0.21875 -0.921875q0.234375 -0.421875 0.609375 -0.671875q0.375 -0.25 0.84375 -0.390625q0.34375 -0.078125 1.046875 -0.171875q1.421875 -0.171875 2.09375 -0.40625q0 -0.234375 0 -0.296875q0 -0.71875 -0.328125 -1.015625q-0.453125 -0.390625 -1.34375 -0.390625q-0.8125 0 -1.21875 0.296875q-0.390625 0.28125 -0.578125 1.015625l-1.140625 -0.15625q0.15625 -0.734375 0.515625 -1.1875q0.359375 -0.453125 1.03125 -0.6875q0.671875 -0.25 1.5625 -0.25q0.890625 0 1.4375 0.203125q0.5625 0.203125 0.8125 0.53125q0.265625 0.3125 0.375 0.796875q0.046875 0.296875 0.046875 1.078125l0 1.5625q0 1.625 0.078125 2.0625q0.078125 0.4375 0.296875 0.828125l-1.21875 0q-0.1875 -0.359375 -0.234375 -0.859375zm-0.09375 -2.609375q-0.640625 0.265625 -1.921875 0.4375q-0.71875 0.109375 -1.015625 0.25q-0.296875 0.125 -0.46875 0.375q-0.15625 0.25 -0.15625 0.546875q0 0.46875 0.34375 0.78125q0.359375 0.3125 1.046875 0.3125q0.671875 0 1.203125 -0.296875q0.53125 -0.296875 0.78125 -0.8125q0.1875 -0.390625 0.1875 -1.171875l0 -0.421875zm2.9749756 3.46875l0 -6.90625l1.0625 0l0 1.046875q0.40625 -0.734375 0.734375 -0.96875q0.34375 -0.234375 0.765625 -0.234375q0.59375 0 1.203125 0.375l-0.40625 1.078125q-0.4375 -0.25 -0.859375 -0.25q-0.390625 0 -0.703125 0.234375q-0.296875 0.234375 -0.421875 0.640625q-0.203125 0.625 -0.203125 1.359375l0 3.625l-1.171875 0zm8.938362 0l0 -0.875q-0.65625 1.03125 -1.9374924 1.03125q-0.8125 0 -1.515625 -0.453125q-0.6875 -0.453125 -1.078125 -1.265625q-0.375 -0.828125 -0.375 -1.890625q0 -1.03125 0.34375 -1.875q0.34375 -0.84375 1.03125 -1.28125q0.703125 -0.453125 1.546875 -0.453125q0.6249924 0 1.1093674 0.265625q0.5 0.25 0.796875 0.671875l0 -3.421875l1.171875 0l0 9.546875l-1.09375 0zm-3.7031174 -3.453125q0 1.328125 0.5625 1.984375q0.5625 0.65625 1.3281174 0.65625q0.765625 0 1.296875 -0.625q0.53125 -0.625 0.53125 -1.90625q0 -1.421875 -0.546875 -2.078125q-0.546875 -0.671875 -1.3437424 -0.671875q-0.78125 0 -1.3125 0.640625q-0.515625 0.625 -0.515625 2.0zm7.912468 3.453125l-2.125 -6.90625l1.21875 0l1.09375 3.984375l0.421875 1.484375q0.015625 -0.109375 0.359375 -1.421875l1.09375 -4.046875l1.203125 0l1.03125 4.0l0.34375 1.328125l0.40625 -1.34375l1.171875 -3.984375l1.140625 0l-2.15625 6.90625l-1.21875 0l-1.09375 -4.140625l-0.265625 -1.171875l-1.40625 5.3125l-1.21875 0zm12.859543 -0.859375q-0.65625 0.5625 -1.265625 0.796875q-0.59376526 0.21875 -1.2812653 0.21875q-1.140625 0 -1.75 -0.546875q-0.609375 -0.5625 -0.609375 -1.4375q0 -0.5 0.21875 -0.921875q0.234375 -0.421875 0.609375 -0.671875q0.375 -0.25 0.84375 -0.390625q0.34375 -0.078125 1.046875 -0.171875q1.4218903 -0.171875 2.0937653 -0.40625q0 -0.234375 0 -0.296875q0 -0.71875 -0.328125 -1.015625q-0.453125 -0.390625 -1.3437653 -0.390625q-0.8125 0 -1.21875 0.296875q-0.390625 0.28125 -0.578125 1.015625l-1.140625 -0.15625q0.15625 -0.734375 0.515625 -1.1875q0.359375 -0.453125 1.03125 -0.6875q0.671875 -0.25 1.5625 -0.25q0.89064026 0 1.4375153 0.203125q0.5625 0.203125 0.8125 0.53125q0.265625 0.3125 0.375 0.796875q0.046875 0.296875 0.046875 1.078125l0 1.5625q0 1.625 0.078125 2.0625q0.078125 0.4375 0.296875 0.828125l-1.21875 0q-0.1875 -0.359375 -0.234375 -0.859375zm-0.09375 -2.609375q-0.640625 0.265625 -1.9218903 0.4375q-0.71875 0.109375 -1.015625 0.25q-0.296875 0.125 -0.46875 0.375q-0.15625 0.25 -0.15625 0.546875q0 0.46875 0.34375 0.78125q0.359375 0.3125 1.046875 0.3125q0.671875 0 1.2031403 -0.296875q0.53125 -0.296875 0.78125 -0.8125q0.1875 -0.390625 0.1875 -1.171875l0 -0.421875zm2.9749756 3.46875l0 -6.90625l1.0625 0l0 1.046875q0.40625 -0.734375 0.734375 -0.96875q0.34375 -0.234375 0.765625 -0.234375q0.59375 0 1.203125 0.375l-0.40625 1.078125q-0.4375 -0.25 -0.859375 -0.25q-0.390625 0 -0.703125 0.234375q-0.296875 0.234375 -0.421875 0.640625q-0.203125 0.625 -0.203125 1.359375l0 3.625l-1.171875 0zm9.18837 -2.21875l1.203125 0.140625q-0.28125 1.0625 -1.0625 1.65625q-0.765625 0.578125 -1.96875 0.578125q-1.515625 0 -2.40625 -0.9375q-0.890625 -0.9375 -0.890625 -2.609375q0 -1.75 0.890625 -2.703125q0.90625 -0.96875 2.34375 -0.96875q1.390625 0 2.265625 0.9375q0.875 0.9375 0.875 2.65625q0 0.109375 0 0.3125l-5.15625 0q0.0625 1.140625 0.640625 1.75q0.578125 0.59375 1.4375 0.59375q0.65625 0 1.109375 -0.328125q0.453125 -0.34375 0.71875 -1.078125zm-3.84375 -1.90625l3.859375 0q-0.078125 -0.859375 -0.4375 -1.296875q-0.5625 -0.6875 -1.453125 -0.6875q-0.8125 0 -1.359375 0.546875q-0.546875 0.53125 -0.609375 1.4375z" fill-rule="nonzero"/><defs><linearGradient id="p.1" gradientUnits="userSpaceOnUse" gradientTransform="matrix(4.545553100086654 0.0 0.0 4.545553100086654 0.0 0.0)" spreadMethod="pad" x1="9.954639806354566" y1="38.70166210013951" x2="9.95462288989064" y2="43.24721520019468"><stop offset="0.0" stop-color="#ff0000"/><stop offset="0.51" stop-color="#dab7a6"/><stop offset="0.99999994" stop-color="#dab7a6" stop-opacity="0.0"/><stop offset="1.0" stop-color="#ffffff" stop-opacity="0.0"/></linearGradient></defs><path fill="url(#p.1)" d="m45.249344 175.92108l173.29134 0l0 20.661423l-173.29134 0z" fill-rule="evenodd"/><path fill="#000000" fill-opacity="0.0" d="m280.4455 190.06865l129.5748 -74.83464l20.629913 35.74803l-129.5748 74.83464z" fill-rule="evenodd"/><path fill="#000000" d="m295.51392 196.73558l1.1823425 -0.82717896q0.51071167 0.6974335 1.1166077 0.9970703q0.5980835 0.28611755 1.4464111 0.1931305q0.84054565 -0.10652161 1.6794434 -0.5910187q0.75772095 -0.4376068 1.2010193 -0.9823456q0.44906616 -0.5660858 0.50097656 -1.1013031q0.057678223 -0.55656433 -0.20785522 -1.0166931q-0.27334595 -0.47366333 -0.7392273 -0.6557007q-0.47366333 -0.1955719 -1.2366333 -0.079711914q-0.478302 0.07775879 -2.032318 0.54222107q-1.5618286 0.45092773 -2.2805786 0.48712158q-0.9222717 0.027420044 -1.5864563 -0.31072998q-0.6719971 -0.35168457 -1.0703125 -1.0418701q-0.4295349 -0.74432373 -0.38497925 -1.6361694q0.05029297 -0.9131775 0.6668701 -1.7203827q0.63012695 -0.81500244 1.6313782 -1.3932648q1.1095276 -0.64079285 2.1592712 -0.7598877q1.0419617 -0.1326294 1.8867493 0.29968262q0.8583679 0.4244995 1.3987732 1.2671814l-1.2036743 0.82147217q-0.64712524 -0.87127686 -1.5022583 -1.0089111q-0.8629761 -0.15116882 -2.013092 0.51304626q-1.1906738 0.68766785 -1.4819641 1.4333191q-0.2913208 0.745636 0.06793213 1.3681641q0.30459595 0.52778625 0.8865051 0.6608429q0.5740967 0.119522095 2.3815613 -0.43717957q1.8210144 -0.5645294 2.5725403 -0.6376953q1.0924377 -0.107666016 1.857605 0.28042603q0.77090454 0.366745 1.2316895 1.1652069q0.4529724 0.78492737 0.39904785 1.7543335q-0.040405273 0.9616089 -0.6663208 1.8463745q-0.62594604 0.8847656 -1.6813354 1.4942932q-1.3530579 0.78144836 -2.486084 0.9125519q-1.1408386 0.11756897 -2.1214905 -0.3625946q-0.96713257 -0.48797607 -1.5721436 -1.4738007zm13.40155 -4.9431458l0.8006897 0.98106384q-0.45169067 0.4052124 -0.857605 0.6396332q-0.6629944 0.3829193 -1.1454773 0.39089966q-0.4902649 -0.0055389404 -0.8343506 -0.25790405q-0.3518982 -0.26589966 -0.9844971 -1.3620911l-2.382019 -4.1276093l-0.8930054 0.5157471l-0.5466919 -0.9473114l0.8930054 -0.5157623l-1.0308838 -1.786377l0.79599 -1.434082l1.4526367 2.5171661l1.2177734 -0.7033081l0.5466919 0.94732666l-1.2177734 0.70329285l2.4210815 4.195282q0.30456543 0.5278015 0.4446106 0.645401q0.15356445 0.109802246 0.35705566 0.11857605q0.19570923 -0.004760742 0.4663086 -0.16105652q0.20297241 -0.11721802 0.49645996 -0.35888672zm1.8165283 0.41241455l-4.147064 -7.1861115l1.0959778 -0.6329651l0.6247864 1.0826569q-0.0178833 -1.0001068 0.19332886 -1.4468842q0.21121216 -0.44676208 0.64419556 -0.6968231q0.6088562 -0.35165405 1.471283 -0.3264618l0.22875977 1.3654938q-0.59487915 7.4768066E-4 -1.0413818 0.25862122q-0.39239502 0.22662354 -0.5765381 0.6577606q-0.17843628 0.40979004 -0.06384277 0.92100525q0.17193604 0.7667999 0.61709595 1.5381927l2.1711426 3.7622223l-1.2177429 0.70329285zm2.0899658 -6.006668q-1.1480408 -1.9893646 -0.5930481 -3.5910034q0.47280884 -1.3376465 1.7988281 -2.1034698q1.4883423 -0.8595886 2.984253 -0.4243927q1.501648 0.41384888 2.4934998 2.132553q0.79660034 1.3803864 0.83795166 2.4210815q0.04135132 1.0407104 -0.49923706 1.948349q-0.5348511 0.88630676 -1.4819946 1.4333191q-1.5018921 0.8674011 -2.9899902 0.44573975q-1.4959106 -0.43519592 -2.5502625 -2.2621765zm1.2583313 -0.72673035q0.79663086 1.3803711 1.7902527 1.7267303q1.0072021 0.33854675 1.9137268 -0.18502808q0.9065552 -0.5235596 1.1036072 -1.5575867q0.21057129 -1.0418396 -0.60946655 -2.4628143q-0.76538086 -1.3262482 -1.7725525 -1.6647949q-0.99365234 -0.34635925 -1.9002075 0.17720032q-0.90652466 0.5235748 -1.117096 1.5654144q-0.2048645 1.0204926 0.59173584 2.400879zm8.984772 -0.38945007l-4.1470337 -7.1861115l1.0959778 -0.6329651l0.5857239 1.0149841q0.10531616 -1.6306152 1.6072083 -2.4980164q0.6494751 -0.37509155 1.3234558 -0.45761108q0.6739807 -0.08250427 1.163269 0.14013672q0.48928833 0.22264099 0.9021301 0.687912q0.26287842 0.29925537 0.74710083 1.1383057l2.553833 4.425354l-1.2177429 0.70329285l-2.522583 -4.371216q-0.42956543 -0.74432373 -0.7892456 -1.0237579q-0.3540039 -0.30078125 -0.8442688 -0.3063202q-0.47677612 -0.01335144 -0.9638672 0.2679596q-0.7847595 0.45324707 -1.0640869 1.2821655q-0.2735901 0.80758667 0.52301025 2.187973l2.264862 3.9246216l-1.2177429 0.70329285zm7.819275 -3.7220154l1.2922058 -0.511734q0.3878479 0.51579285 0.8666992 0.5640259q0.65527344 0.072631836 1.4400635 -0.38059998q0.8388977 -0.48449707 1.1036682 -1.0885162q0.26480103 -0.60401917 0.07571411 -1.306778q-0.1161499 -0.42010498 -0.81121826 -1.6245575q-0.25161743 1.408371 -1.4423218 2.096054q-1.4883423 0.85957336 -2.9171448 0.25932312q-1.428833 -0.60025024 -2.2957153 -2.1024323q-0.5935669 -1.0285187 -0.72805786 -2.1056366q-0.12097168 -1.0849152 0.30926514 -1.9649353q0.4437561 -0.8878174 1.3908997 -1.4348297q1.2718811 -0.7345581 2.690796 -0.182724l-0.4998474 -0.8661194l1.1230469 -0.6485901l3.5847168 6.2117157q0.9684448 1.6781158 1.0362854 2.5771942q0.067840576 0.8990936 -0.4420166 1.7348785q-0.5098877 0.8357849 -1.5923462 1.4609375q-1.2854004 0.7423706 -2.4195251 0.62150574q-1.1206055 -0.12869263 -1.7651672 -1.3081818zm-1.4765625 -4.9031525q0.81222534 1.4074402 1.7418518 1.7366486q0.94314575 0.32138062 1.7820435 -0.16311646q0.8388977 -0.4844818 1.0401001 -1.4487457q0.19342041 -0.97779846 -0.60317993 -2.3581848q-0.76538086 -1.3262482 -1.7298889 -1.6533508q-0.97229004 -0.3406372 -1.7976685 0.1360321q-0.8118286 0.46887207 -0.9974365 1.4602051q-0.1855774 0.991333 0.56417847 2.290512z" fill-rule="nonzero"/><path fill="#000000" d="m302.23132 207.68793l-0.80441284 -1.3939209l1.2177429 -0.70329285l0.80441284 1.3939056l-1.2177429 0.7033081zm4.920227 8.525894l-4.147064 -7.1861115l1.2177734 -0.7033081l4.1470337 7.1861115l-1.2177429 0.7033081zm1.3493347 -3.6482391l1.0948792 -0.88494873q0.51641846 0.6760864 1.2029724 0.80285645q0.6922302 0.10542297 1.5176086 -0.3712616q0.8388672 -0.4844818 1.0495605 -1.057251q0.20285034 -0.58628845 -0.062683105 -1.0464172q-0.23431396 -0.4059906 -0.7266846 -0.4464264q-0.35079956 -0.013916016 -1.4790955 0.3129425q-1.5347595 0.43530273 -2.2030334 0.49645996q-0.66256714 0.03982544 -1.183075 -0.23695374q-0.5069885 -0.28459167 -0.8115845 -0.8123779q-0.28115845 -0.48719788 -0.2989807 -1.018219q-0.017791748 -0.5310211 0.2048645 -1.0204926q0.15917969 -0.3806305 0.56817627 -0.797287q0.4147339 -0.43800354 0.9694824 -0.75839233q0.852417 -0.49230957 1.6289368 -0.61598206q0.7765198 -0.123687744 1.3162842 0.123931885q0.5455017 0.22625732 1.0733948 0.85964966l-1.0969849 0.85006714q-0.4013672 -0.5079651 -0.9733887 -0.59262085q-0.5720215 -0.0846405 -1.2756042 0.3217163q-0.8388977 0.4844818 -1.0402222 0.9796753q-0.19558716 0.47383118 0.015289307 0.8392334q0.14056396 0.24359131 0.39874268 0.34710693q0.2581787 0.103500366 0.64749146 0.05909729q0.22845459 -0.041732788 1.2620544 -0.31388855q1.4806519 -0.40403748 2.127594 -0.470932q0.6390991 -0.08041382 1.1653442 0.17501831q0.5397949 0.24760437 0.89904785 0.87013245q0.35144043 0.60899353 0.29852295 1.3613129q-0.047210693 0.73095703 -0.5519409 1.4194183q-0.49118042 0.68063354 -1.3300476 1.1651306q-1.407196 0.81269836 -2.4736633 0.6527405q-1.0664673 -0.15994263 -1.933258 -1.193039zm6.1190186 -5.4646606q-1.1480408 -1.9893799 -0.5930481 -3.5910187q0.47283936 -1.3376465 1.7988281 -2.1034698q1.4883423 -0.85957336 2.984253 -0.4243927q1.501648 0.41384888 2.4934998 2.132553q0.79663086 1.3803864 0.83795166 2.4210968q0.04135132 1.0406952 -0.49923706 1.948349q-0.5348511 0.8862915 -1.4819946 1.4333038q-1.5018921 0.8674011 -2.9899902 0.44573975q-1.4959106 -0.43519592 -2.5502625 -2.2621613zm1.2583313 -0.7267456q0.79663086 1.3803864 1.7902832 1.7267303q1.0071716 0.33854675 1.9136963 -0.18501282q0.9065552 -0.5235748 1.1036072 -1.5576019q0.21057129 -1.0418396 -0.60946655 -2.4628143q-0.76538086 -1.3262482 -1.7725525 -1.6647949q-0.99365234 -0.34635925 -1.9002075 0.17721558q-0.90652466 0.5235596 -1.117096 1.5653992q-0.2048645 1.0204926 0.59173584 2.400879zm8.957733 -0.3738098l-5.7246704 -9.919815l1.2177734 -0.70329285l5.72464 9.9198l-1.2177429 0.7033081zm7.2713623 -5.390396q-0.34069824 0.972641 -0.8225403 1.5756989q-0.48962402 0.5895386 -1.2067566 1.0036926q-1.1906738 0.6876831 -2.162445 0.47302246q-0.9717407 -0.21464539 -1.4872131 -1.1078339q-0.30456543 -0.52778625 -0.3109436 -1.1015167q-0.014190674 -0.58724976 0.21627808 -1.0631866q0.23620605 -0.49728394 0.64520264 -0.9139252q0.31063843 -0.3057251 0.980896 -0.8010864q1.3733215 -1.02771 1.9363098 -1.6776581q-0.14837646 -0.25712585 -0.18740845 -0.32478333q-0.42956543 -0.74432373 -0.93963623 -0.84669495q-0.7156677 -0.14602661 -1.6357422 0.38536072q-0.8524475 0.49230957 -1.0922546 1.0458069q-0.23410034 0.5321655 0.013824463 1.3994293l-1.2843933 0.52526855q-0.2749939 -0.85162354 -0.18301392 -1.5362854q0.10549927 -0.6924591 0.66851807 -1.3424072q0.5552063 -0.66348267 1.4752808 -1.1948547q0.92007446 -0.5313873 1.6133118 -0.6430664q0.7067566 -0.11949158 1.1648254 0.04902649q0.45803833 0.16850281 0.8552551 0.60672q0.24728394 0.27218628 0.71588135 1.0841675l0.9371643 1.6239929q0.9840393 1.7051697 1.3094177 2.1126862q0.33892822 0.39971924 0.81103516 0.68640137l-1.2718506 0.7345581q-0.40811157 -0.26953125 -0.7590027 -0.75253296zm-1.6645203 -2.6654663q-0.5067749 0.65356445 -1.7234497 1.6088562q-0.69522095 0.5458679 -0.9283142 0.8609314q-0.23312378 0.31506348 -0.25280762 0.6873169q-0.013977051 0.3508911 0.16564941 0.66215515q0.28115845 0.48719788 0.83392334 0.6010132q0.5662842 0.10598755 1.269867 -0.30036926q0.70358276 -0.40634155 1.072998 -1.0166473q0.37512207 -0.63165283 0.3197937 -1.3214569q-0.031341553 -0.5232086 -0.49990845 -1.3352051l-0.25775146 -0.44659424zm7.223419 -0.8156891l0.8006897 0.98106384q-0.45169067 0.4052124 -0.857605 0.63964844q-0.6629944 0.38290405 -1.1454468 0.39089966q-0.4902954 -0.0055389404 -0.8343811 -0.25790405q-0.3518982 -0.26591492 -0.9844971 -1.3620911l-2.382019 -4.1276093l-0.8930054 0.5157471l-0.5466919 -0.94732666l0.8930054 -0.5157471l-1.0308838 -1.786377l0.7960205 -1.434082l1.4526367 2.5171661l1.2177429 -0.7033081l0.5466919 0.94732666l-1.2177429 0.70329285l2.421051 4.195282q0.30459595 0.52778625 0.4446106 0.645401q0.15356445 0.10978699 0.35708618 0.11856079q0.19567871 -0.004760742 0.46627808 -0.16104126q0.20297241 -0.11721802 0.49645996 -0.35890198zm-3.0901794 -8.121277l-0.80441284 -1.3939209l1.2177429 -0.70329285l0.80444336 1.3939209l-1.2177734 0.70329285zm4.920227 8.525894l-4.1470337 -7.1861115l1.2177429 -0.70329285l4.147064 7.186096l-1.2177734 0.7033081zm0.54074097 -5.111908q-1.1480408 -1.9893799 -0.5930481 -3.5910187q0.47280884 -1.3376465 1.7988281 -2.1034698q1.4883423 -0.8595886 2.984253 -0.4243927q1.501648 0.41384888 2.4934998 2.132553q0.79660034 1.3803864 0.83795166 2.4210968q0.0413208 1.0406952 -0.49923706 1.948349q-0.5348511 0.8862915 -1.4819946 1.4333038q-1.5018921 0.8674011 -2.9899902 0.44573975q-1.4959412 -0.43519592 -2.5502625 -2.2621613zm1.2583313 -0.7267456q0.79663086 1.3803864 1.7902527 1.7267303q1.0072021 0.33854675 1.9137268 -0.18501282q0.9065552 -0.5235748 1.1036072 -1.5576019q0.21057129 -1.0418396 -0.60946655 -2.4628143q-0.76538086 -1.3262482 -1.7725525 -1.6647949q-0.99365234 -0.34635925 -1.9002075 0.17721558q-0.9065552 0.5235596 -1.117096 1.5653992q-0.2048645 1.0204926 0.59173584 2.400879zm8.984772 -0.38945007l-4.1470337 -7.1861115l1.0959473 -0.6329651l0.5857544 1.0149841q0.10531616 -1.6306152 1.6072083 -2.4980164q0.6494446 -0.37509155 1.3234558 -0.45761108q0.6739807 -0.08250427 1.163269 0.14013672q0.48928833 0.22264099 0.9021301 0.687912q0.26287842 0.29925537 0.74710083 1.1383057l2.553833 4.425354l-1.2177429 0.70329285l-2.5226135 -4.371216q-0.4295349 -0.74432373 -0.7892456 -1.0237579q-0.3539734 -0.30078125 -0.8442383 -0.3063202q-0.47677612 -0.01335144 -0.9638672 0.2679596q-0.7847595 0.45324707 -1.0640869 1.2821808q-0.2735901 0.8075714 0.52301025 2.1879578l2.264862 3.9246216l-1.2177429 0.70329285z" fill-rule="nonzero"/><path fill="#000000" fill-opacity="0.0" d="m290.76047 207.94267c-17.003845 0 -26.795105 -5.566925 -34.00769 -11.133865c-7.212616 -5.566925 -11.846558 -11.13385 -23.693115 -11.13385" fill-rule="evenodd"/><path stroke="#000000" stroke-width="2.0" stroke-linejoin="round" stroke-linecap="butt" d="m290.76047 207.94267c-17.003876 0 -26.795105 -5.5669403 -34.00769 -11.133865c-3.606308 -2.7834625 -6.5679474 -5.566925 -10.108826 -7.6545258c-0.4426117 -0.2609558 -0.8942871 -0.5110321 -1.3573761 -0.74887085c-0.11578369 -0.0594635 -0.23228455 -0.1181488 -0.34950256 -0.17605591l-0.13806152 -0.066833496" fill-rule="evenodd"/><path fill="#000000" stroke="#000000" stroke-width="2.0" stroke-linecap="butt" d="m245.48381 184.93082l-9.563843 1.350235l8.194244 5.1131744z" fill-rule="evenodd"/><path fill="#000000" fill-opacity="0.0" d="m280.4455 126.06866l129.5748 -74.83465l20.629913 35.74803l-129.5748 74.83464z" fill-rule="evenodd"/><path fill="#000000" d="m298.03357 135.5387l-5.72464 -9.919807l1.3124695 -0.75800323l5.72464 9.9198l-1.3124695 0.75801086zm3.470581 -2.0044098l-4.1470337 -7.186104l1.0959778 -0.6329651l0.5857239 1.0149841q0.10531616 -1.6306229 1.6072083 -2.498024q0.6494751 -0.37509155 1.3234558 -0.45760345q0.6739807 -0.0825119 1.163269 0.14012146q0.48928833 0.22264099 0.9021301 0.6879196q0.26290894 0.29925537 0.74710083 1.1383133l2.553833 4.4253464l-1.2177429 0.70329285l-2.522583 -4.371208q-0.4295349 -0.74432373 -0.7892456 -1.0237579q-0.3540039 -0.30078888 -0.8442688 -0.30632782q-0.4767456 -0.01335144 -0.9638672 0.26796722q-0.7847595 0.4532318 -1.0640869 1.2821655q-0.2735901 0.80758667 0.52301025 2.1879654l2.2648926 3.9246216l-1.2177734 0.70329285zm12.360168 -7.1384735l-0.5232849 -0.906723q-0.059539795 1.4598389 -1.3855286 2.2256546q-0.8659668 0.5001297 -1.8564148 0.44062042q-0.9904785 -0.05949402 -1.8883972 -0.6776428q-0.88442993 -0.62597656 -1.5170288 -1.7221603q-0.6247864 -1.0826492 -0.77282715 -2.151947q-0.14230347 -1.0906448 0.30926514 -1.9649353q0.44378662 -0.887825 1.336792 -1.4035797q0.6494751 -0.37509155 1.3063049 -0.39356232q0.6703491 -0.026283264 1.2392883 0.2405777l-2.054016 -3.5592194l1.2177429 -0.7033005l5.7246704 9.919807l-1.1365662 0.6564102zm-5.9122925 -1.3669891q0.79660034 1.3803787 1.7767029 1.7345505q0.97232056 0.3406372 1.7570801 -0.112602234q0.7983093 -0.4610443 0.97817993 -1.4310303q0.18560791 -0.991333 -0.58758545 -2.3311157q-0.8512573 -1.4751129 -1.8178406 -1.8370972q-0.96658325 -0.36198425 -1.805481 0.12251282q-0.8118286 0.46886444 -0.97036743 1.4445648q-0.15853882 0.9757004 0.6693115 2.4102173zm12.53952 -5.5459747l1.3442383 -0.57787323q0.34274292 1.2816315 -0.11764526 2.3594894q-0.4468689 1.0700455 -1.6916809 1.788971q-1.5830688 0.9142914 -3.0654602 0.47128296q-1.4823914 -0.44300842 -2.4898376 -2.1887817q-1.0465393 -1.813446 -0.69085693 -3.3540955q0.35568237 -1.5406494 1.8440247 -2.4002304q1.4342346 -0.828331 2.9109192 -0.36397552q1.4823608 0.4430008 2.5054626 2.2158508q0.0625 0.10826111 0.18743896 0.32479095l-5.3580933 3.094513q0.75494385 1.1518478 1.7173462 1.4440689q0.96810913 0.27088165 1.861145 -0.24487305q0.6765137 -0.39072418 0.9470215 -1.0160904q0.2705078 -0.6253662 0.09597778 -1.5530472zm-5.131775 0.32941437l4.005066 -2.3130646q-0.60446167 -0.8598404 -1.2410278 -1.0876312q-0.98794556 -0.36769867 -1.90802 0.16368103q-0.8388977 0.48449707 -1.0926819 1.3889084q-0.2480774 0.88306427 0.23666382 1.8481064zm10.854523 3.1318436l-5.740265 -9.946869l1.1094971 -0.6407852l0.5388794 0.9337845q0.07220459 -0.78147125 0.4031067 -1.333458q0.3444214 -0.5597992 1.0480042 -0.9661484q0.92007446 -0.5313797 1.8970032 -0.46406555q0.9769592 0.06730652 1.8285828 0.7302551q0.8573303 0.64160156 1.4508972 1.6701202q0.6404114 1.1097183 0.74212646 2.2238083q0.11526489 1.1062698 -0.3691101 2.01754q-0.4708252 0.90345 -1.3097229 1.3879471q-0.6088867 0.35164642 -1.2443542 0.37583923q-0.62197876 0.01637268 -1.159668 -0.19635773l2.022766 3.5050888l-1.2177429 0.7033005zm-2.551239 -6.952957q0.80441284 1.3939209 1.7418518 1.7366486q0.95095825 0.3349228 1.7492676 -0.12612915q0.8118286 -0.46886444 0.9953308 -1.495079q0.18353271 -1.026207 -0.6443176 -2.4607239q-0.79663086 -1.3803787 -1.7554016 -1.728836q-0.96658325 -0.36198425 -1.7513428 0.09125519q-0.77124023 0.4454193 -0.958374 1.5278625q-0.1736145 1.0746231 0.62298584 2.4550018zm12.239746 -5.408928l1.3442688 -0.57788086q0.34274292 1.2816391 -0.11764526 2.359497q-0.4468689 1.0700455 -1.6916809 1.788971q-1.5830688 0.91428375 -3.0654602 0.47128296q-1.4823914 -0.44300842 -2.4898682 -2.1887894q-1.0465088 -1.8134384 -0.6908264 -3.3540878q0.35565186 -1.5406494 1.8440247 -2.400238q1.4342346 -0.828331 2.9108887 -0.36397552q1.4823914 0.44300842 2.5054932 2.2158508q0.062469482 0.10826874 0.18743896 0.32479858l-5.3580933 3.094513q0.75491333 1.1518402 1.7173462 1.4440689q0.96810913 0.27087402 1.861145 -0.24488068q0.6765137 -0.39071655 0.9470215 -1.0160828q0.2705078 -0.62537384 0.095947266 -1.5530472zm-5.1317444 0.32941437l4.0050354 -2.3130722q-0.60443115 -0.85983276 -1.2410278 -1.0876236q-0.98791504 -0.3677063 -1.9079895 0.1636734q-0.8388977 0.48449707 -1.0926819 1.3889084q-0.2480774 0.88306427 0.23666382 1.848114zm9.2612915 0.3710785l-4.1470337 -7.1861115l1.0959778 -0.6329651l0.5857239 1.0149841q0.10531616 -1.6306229 1.6072083 -2.498024q0.6494751 -0.37509155 1.3234558 -0.45760345q0.6739807 -0.0825119 1.163269 0.14012909q0.48928833 0.22263336 0.9021301 0.687912q0.26290894 0.29925537 0.74710083 1.1383133l2.553833 4.4253464l-1.2177429 0.70329285l-2.522583 -4.371208q-0.42956543 -0.74432373 -0.7892456 -1.0237579q-0.3540039 -0.30078888 -0.8442688 -0.30632782q-0.4767456 -0.01335144 -0.9638672 0.26796722q-0.7847595 0.4532318 -1.0640869 1.2821655q-0.2735901 0.80758667 0.52301025 2.187973l2.2648926 3.924614l-1.2177734 0.7033005zm12.360168 -7.138481l-0.5232849 -0.906723q-0.059539795 1.4598389 -1.3855286 2.2256546q-0.8659668 0.5001221 -1.8564148 0.44062805q-0.9904785 -0.05949402 -1.8883972 -0.67765045q-0.88442993 -0.62596893 -1.5170288 -1.7221603q-0.6247864 -1.0826492 -0.77282715 -2.151947q-0.14230347 -1.0906448 0.30926514 -1.9649353q0.44378662 -0.887825 1.336792 -1.4035797q0.6494751 -0.37509155 1.3063049 -0.39356232q0.6703491 -0.026283264 1.2392883 0.2405777l-2.054016 -3.5592194l1.2177429 -0.7033005l5.7246704 9.919807l-1.1365662 0.6564102zm-5.9122925 -1.3669891q0.79660034 1.3803787 1.7767029 1.7345505q0.97232056 0.3406372 1.7570801 -0.112602234q0.7983093 -0.4610443 0.97817993 -1.4310303q0.18560791 -0.991333 -0.58758545 -2.3311157q-0.8512573 -1.4751129 -1.8178406 -1.8370972q-0.96658325 -0.36198425 -1.805481 0.12251282q-0.8118286 0.46886444 -0.97036743 1.4445648q-0.15853882 0.9757004 0.6693115 2.4102173zm12.53952 -5.5459747l1.3442383 -0.57787323q0.34274292 1.2816391 -0.11764526 2.3594894q-0.4468689 1.0700455 -1.6916809 1.788971q-1.5830688 0.9142914 -3.0654602 0.47128296q-1.4823914 -0.4430008 -2.4898682 -2.1887817q-1.0465088 -1.813446 -0.6908264 -3.3540955q0.35568237 -1.5406494 1.8440247 -2.4002304q1.4342346 -0.828331 2.9109192 -0.36397552q1.4823608 0.4430008 2.5054626 2.2158508q0.0625 0.10826111 0.18743896 0.32479095l-5.3580933 3.094513q0.75494385 1.1518478 1.7173462 1.4440689q0.96810913 0.27088165 1.861145 -0.24487305q0.6765137 -0.39072418 0.9470215 -1.0160904q0.2705078 -0.6253662 0.09597778 -1.5530472zm-5.131775 0.32941437l4.005066 -2.3130646q-0.60446167 -0.8598404 -1.2410278 -1.0876312q-0.98794556 -0.36769867 -1.90802 0.16368103q-0.8388977 0.48449707 -1.0926819 1.3889084q-0.2480774 0.88306427 0.23666382 1.8481064zm9.261322 0.3710785l-4.147064 -7.186104l1.0959778 -0.6329727l0.5857544 1.0149918q0.105285645 -1.6306229 1.6071777 -2.498024q0.6494751 -0.37509155 1.3234558 -0.45761108q0.67401123 -0.0825119 1.163269 0.14012909q0.48928833 0.22264099 0.9021301 0.6879196q0.26290894 0.29925537 0.74710083 1.1383133l2.553833 4.4253387l-1.2177429 0.7033005l-2.522583 -4.371208q-0.4295349 -0.74432373 -0.7892456 -1.0237656q-0.3539734 -0.30078125 -0.8442688 -0.3063202q-0.4767456 -0.01335907 -0.96383667 0.2679596q-0.78479004 0.45323944 -1.0640869 1.2821732q-0.2736206 0.80758667 0.52301025 2.1879654l2.264862 3.924614l-1.2177429 0.7033005zm9.725006 -7.078125l0.8006897 0.98106384q-0.45169067 0.4052124 -0.857605 0.6396408q-0.6629944 0.38291168 -1.1454468 0.39089966q-0.4902954 -0.0055389404 -0.8343811 -0.25791168q-0.3518982 -0.26589966 -0.9844971 -1.3620834l-2.382019 -4.127617l-0.8930054 0.5157547l-0.5466919 -0.94731903l0.8930054 -0.5157547l-1.0308838 -1.786377l0.79599 -1.4340897l1.4526672 2.5171661l1.2177429 -0.7033005l0.5466919 0.94732666l-1.2177429 0.70329285l2.421051 4.195282q0.30459595 0.5277939 0.4446106 0.645401q0.15356445 0.10979462 0.35708618 0.11856842q0.19567871 -0.004760742 0.46627808 -0.16104889q0.20297241 -0.11721802 0.49645996 -0.35889435z" fill-rule="nonzero"/><path fill="#000000" d="m307.15155 152.21382l-5.72464 -9.919815l1.2177429 -0.70329285l3.2645264 5.6568604l1.1950684 -4.587631l1.5830688 -0.9142914l-1.2081604 4.252365l5.625824 2.7774506l-1.5018921 0.8674011l-4.4921265 -2.3134918l-0.38955688 1.3256378l1.6478882 2.8554993l-1.2177429 0.7033081zm10.503723 -9.151794l1.3442383 -0.57788086q0.34274292 1.2816315 -0.11764526 2.359497q-0.44683838 1.0700378 -1.6916504 1.788971q-1.5830688 0.9142761 -3.0654602 0.47128296q-1.4823914 -0.44300842 -2.4898682 -2.188797q-1.0465393 -1.8134308 -0.69085693 -3.3540802q0.35568237 -1.5406494 1.8440247 -2.400238q1.4342346 -0.8283386 2.9109192 -0.36398315q1.4823914 0.44300842 2.5054932 2.2158508q0.062469482 0.10827637 0.18743896 0.32479858l-5.3580933 3.094513q0.75491333 1.1518402 1.7173157 1.4440765q0.96813965 0.27087402 1.861145 -0.2448883q0.6765137 -0.39071655 0.947052 -1.0160828q0.2705078 -0.6253662 0.095947266 -1.5530396zm-5.1317444 0.32940674l4.0050354 -2.3130646q-0.60446167 -0.85983276 -1.2410278 -1.0876312q-0.98791504 -0.3677063 -1.90802 0.16368103q-0.8388672 0.48449707 -1.0926819 1.3889008q-0.2480774 0.8830719 0.23669434 1.848114zm9.247772 0.378891l-4.147064 -7.1861115l1.0959778 -0.6329651l0.6247864 1.0826569q-0.017913818 -1.0001068 0.19329834 -1.4468842q0.21124268 -0.44676208 0.64419556 -0.6968231q0.6088867 -0.35165405 1.4713135 -0.3264618l0.22875977 1.3654938q-0.59487915 7.4768066E-4 -1.0413818 0.25862122q-0.39239502 0.22662354 -0.5765686 0.6577606q-0.17840576 0.40979004 -0.063812256 0.92100525q0.17190552 0.7667999 0.61709595 1.5381927l2.1711426 3.7622223l-1.2177429 0.70329285zm4.6274414 -2.6725311l-4.147064 -7.1861115l1.0959778 -0.6329651l0.5857544 1.0149841q0.105285645 -1.6306152 1.6071777 -2.4980164q0.6494751 -0.37509155 1.3234558 -0.45761108q0.67401123 -0.08250427 1.1632996 0.14012146q0.4892578 0.22264099 0.9020996 0.68792725q0.26290894 0.29925537 0.74710083 1.1383057l2.553833 4.425354l-1.2177429 0.70329285l-2.522583 -4.371216q-0.4295349 -0.74432373 -0.7892456 -1.0237579q-0.3539734 -0.30078125 -0.8442688 -0.3063202q-0.4767456 -0.01335144 -0.96383667 0.2679596q-0.78479004 0.4532318 -1.0640869 1.2821655q-0.2736206 0.80758667 0.52301025 2.187973l2.264862 3.9246216l-1.2177429 0.70329285zm11.281708 -9.60112l1.3442688 -0.57788086q0.34274292 1.2816315 -0.11764526 2.359497q-0.4468689 1.0700378 -1.6916809 1.788971q-1.5830688 0.9142914 -3.0654602 0.47128296q-1.4823914 -0.44300842 -2.4898682 -2.1887817q-1.0465088 -1.813446 -0.6908264 -3.3540955q0.35565186 -1.5406494 1.8440247 -2.400238q1.4342346 -0.828331 2.9108887 -0.36397552q1.4823914 0.44300842 2.5054932 2.2158432q0.062469482 0.10827637 0.18743896 0.32479858l-5.3580933 3.094513q0.75491333 1.1518555 1.7173462 1.4440765q0.96810913 0.27087402 1.861145 -0.24487305q0.6765137 -0.3907318 0.9470215 -1.016098q0.2705078 -0.6253662 0.095947266 -1.5530396zm-5.1317444 0.32940674l4.0050354 -2.3130646q-0.60443115 -0.85983276 -1.2410278 -1.0876312q-0.98791504 -0.3677063 -1.9079895 0.16368103q-0.8388977 0.48449707 -1.0926819 1.388916q-0.2480774 0.88305664 0.23666382 1.8480988zm9.234253 0.3867035l-5.7246704 -9.9198l1.2177734 -0.7033005l5.72464 9.919807l-1.2177429 0.70329285z" fill-rule="nonzero"/><path fill="#000000" fill-opacity="0.0" d="m290.76047 143.94267c-17.003845 0 -26.795105 -5.566925 -34.00769 -11.133865c-7.212616 -5.566925 -11.846558 -11.13385 -23.693115 -11.13385" fill-rule="evenodd"/><path stroke="#000000" stroke-width="2.0" stroke-linejoin="round" stroke-linecap="butt" d="m290.76047 143.94267c-17.003876 0 -26.795105 -5.5669403 -34.00769 -11.133865c-3.606308 -2.7834625 -6.5679474 -5.566925 -10.108826 -7.6545258c-0.4426117 -0.26094818 -0.8942871 -0.5110321 -1.3573761 -0.74887085c-0.11578369 -0.0594635 -0.23228455 -0.11816406 -0.34950256 -0.17607117l-0.13806152 -0.06682587" fill-rule="evenodd"/><path fill="#000000" stroke="#000000" stroke-width="2.0" stroke-linecap="butt" d="m245.48381 120.93081l-9.563843 1.350235l8.194244 5.113182z" fill-rule="evenodd"/></g></svg>