<?xml version="1.0" encoding="UTF-8" standalone="no"?>
<svg
   xmlns:dc="http://purl.org/dc/elements/1.1/"
   xmlns:cc="http://creativecommons.org/ns#"
   xmlns:rdf="http://www.w3.org/1999/02/22-rdf-syntax-ns#"
   xmlns:svg="http://www.w3.org/2000/svg"
   xmlns="http://www.w3.org/2000/svg"
   xmlns:sodipodi="http://sodipodi.sourceforge.net/DTD/sodipodi-0.dtd"
   xmlns:inkscape="http://www.inkscape.org/namespaces/inkscape"
   version="1.1"
   viewBox="0 0 464.8504 360.49213"
   stroke-miterlimit="10"
   id="svg114"
   sodipodi:docname="Machine-Virtualization.svg"
   width="464.8504"
   height="360.49213"
   style="fill:none;stroke:none;stroke-linecap:square;stroke-miterlimit:10"
   inkscape:version="0.92.2pre0 (973e216, 2017-07-25)">
  <metadata
     id="metadata120">
    <rdf:RDF>
      <cc:Work
         rdf:about="">
        <dc:format>image/svg+xml</dc:format>
        <dc:type
           rdf:resource="http://purl.org/dc/dcmitype/StillImage" />
        <dc:title></dc:title>
      </cc:Work>
    </rdf:RDF>
  </metadata>
  <defs
     id="defs118" />
  <sodipodi:namedview
     pagecolor="#ffffff"
     bordercolor="#666666"
     borderopacity="1"
     objecttolerance="10"
     gridtolerance="10"
     guidetolerance="10"
     inkscape:pageopacity="0"
     inkscape:pageshadow="2"
     inkscape:window-width="640"
     inkscape:window-height="480"
     id="namedview116"
     showgrid="false"
     fit-margin-top="0"
     fit-margin-left="0"
     fit-margin-right="0"
     fit-margin-bottom="0"
     inkscape:zoom="0.234375"
     inkscape:cx="620"
     inkscape:cy="-104.00788"
     inkscape:window-x="0"
     inkscape:window-y="0"
     inkscape:window-maximized="0"
     inkscape:current-layer="g112" />
  <clipPath
     id="p.0">
    <path
       d="M 0,0 H 1280 V 960 H 0 Z"
       id="path2"
       inkscape:connector-curvature="0"
       style="clip-rule:nonzero" />
  </clipPath>
  <g
     clip-path="url(#p.0)"
     id="g112"
     transform="translate(-20,-15.5)">
    <path
       d="M 0,0 H 1280 V 960 H 0 Z"
       id="path5"
       inkscape:connector-curvature="0"
       style="fill:#000000;fill-opacity:0;fill-rule:evenodd" />
    <path
       d="M 90.00787,16 H 268.02362 V 80 H 90.00787 Z"
       id="path7"
       inkscape:connector-curvature="0"
       style="fill:#f4cccc;fill-rule:evenodd" />
    <path
       d="M 90.00787,16 H 268.02362 V 80 H 90.00787 Z"
       id="path9"
       inkscape:connector-curvature="0"
       style="fill-rule:evenodd;stroke:#000000;stroke-width:1;stroke-linecap:butt;stroke-linejoin:round" />
    <path
       d="m 125.36198,51.4825 h -4.4375 l -1.0625,3.4375 h -1.6875 l 4.28125,-13.265625 h 1.42188 L 128.08074,54.92 h -1.67189 z m -3.98437,-1.46875 h 3.53125 l -1.75,-5.75 z m 17.16432,0.09375 q 0,1.046875 -0.26562,1.96875 -0.25,0.90625 -0.75,1.59375 -0.48438,0.671875 -1.21875,1.0625 -0.71875,0.375 -1.64063,0.375 -0.90625,0 -1.59375,-0.296875 -0.6875,-0.296875 -1.17187,-0.84375 v 4.75 h -1.6875 v -13.65625 h 1.53125 l 0.0937,1.078125 q 0.48437,-0.609375 1.17187,-0.921875 0.70313,-0.328125 1.625,-0.328125 0.95313,0 1.67188,0.375 0.73437,0.359375 1.21875,1.03125 0.5,0.65625 0.75,1.59375 0.26562,0.921875 0.26562,2.015625 z m -1.6875,-0.203125 q 0,-0.71875 -0.17187,-1.359375 -0.15625,-0.65625 -0.48438,-1.15625 -0.32812,-0.5 -0.84375,-0.78125 -0.5,-0.296875 -1.21875,-0.296875 -0.8125,0 -1.35937,0.375 -0.54688,0.375 -0.875,0.96875 v 4.75 q 0.32812,0.578125 0.875,0.953125 0.54687,0.375 1.375,0.375 0.70312,0 1.20312,-0.296875 0.51563,-0.296875 0.84375,-0.796875 0.32813,-0.5 0.48438,-1.15625 0.17187,-0.65625 0.17187,-1.375 z m 12.88308,0.203125 q 0,1.046875 -0.26563,1.96875 -0.25,0.90625 -0.75,1.59375 -0.48437,0.671875 -1.21875,1.0625 -0.71875,0.375 -1.64062,0.375 -0.90625,0 -1.59375,-0.296875 -0.6875,-0.296875 -1.17188,-0.84375 v 4.75 h -1.6875 v -13.65625 h 1.53125 l 0.0937,1.078125 q 0.48438,-0.609375 1.17188,-0.921875 0.70312,-0.328125 1.625,-0.328125 0.95312,0 1.67187,0.375 0.73438,0.359375 1.21875,1.03125 0.5,0.65625 0.75,1.59375 0.26563,0.921875 0.26563,2.015625 z m -1.6875,-0.203125 q 0,-0.71875 -0.17188,-1.359375 -0.15625,-0.65625 -0.48437,-1.15625 -0.32813,-0.5 -0.84375,-0.78125 -0.5,-0.296875 -1.21875,-0.296875 -0.8125,0 -1.35938,0.375 -0.54687,0.375 -0.875,0.96875 v 4.75 q 0.32813,0.578125 0.875,0.953125 0.54688,0.375 1.375,0.375 0.70313,0 1.20313,-0.296875 0.51562,-0.296875 0.84375,-0.796875 0.32812,-0.5 0.48437,-1.15625 0.17188,-0.65625 0.17188,-1.375 z M 152.87058,40.92 h 5.04687 v 12.546875 h 3.21875 V 54.92 h -8.26562 v -1.453125 h 3.35937 V 42.38875 h -3.35937 z m 11.19557,4.140625 h 5.04688 v 8.40625 h 3.21875 V 54.92 h -8.26563 v -1.453125 h 3.35938 v -6.9375 h -3.35938 z m 3.14063,-2.578125 q 0,-0.421875 0.25,-0.703125 0.25,-0.296875 0.76562,-0.296875 0.5,0 0.75,0.296875 0.25,0.28125 0.25,0.703125 0,0.40625 -0.25,0.6875 -0.25,0.265625 -0.75,0.265625 -0.51562,0 -0.76562,-0.265625 -0.25,-0.28125 -0.25,-0.6875 z m 11.99244,11.25 q 0.45313,0 0.89063,-0.140625 0.4375,-0.140625 0.76562,-0.40625 0.34375,-0.265625 0.54688,-0.609375 0.20312,-0.359375 0.21875,-0.765625 h 1.59375 q -0.0156,0.65625 -0.34375,1.265625 -0.32813,0.59375 -0.89063,1.046875 -0.5625,0.4375 -1.28125,0.71875 -0.71875,0.265625 -1.5,0.265625 -1.10937,0 -1.95312,-0.40625 -0.84375,-0.40625 -1.40625,-1.078125 -0.54688,-0.6875 -0.84375,-1.5625 -0.28125,-0.890625 -0.28125,-1.875 V 49.795 q 0,-0.96875 0.28125,-1.859375 0.29687,-0.890625 0.84375,-1.5625 0.5625,-0.6875 1.40625,-1.078125 0.84375,-0.40625 1.95312,-0.40625 0.875,0 1.60938,0.28125 0.73437,0.265625 1.26562,0.75 0.53125,0.46875 0.82813,1.125 0.3125,0.65625 0.3125,1.40625 h -1.59375 q -0.0156,-0.453125 -0.20313,-0.84375 -0.1875,-0.390625 -0.51562,-0.6875 -0.3125,-0.3125 -0.75,-0.484375 -0.4375,-0.171875 -0.95313,-0.171875 -0.78125,0 -1.3125,0.3125 -0.53125,0.3125 -0.85937,0.828125 -0.32813,0.5 -0.46875,1.140625 -0.14063,0.625 -0.14063,1.25 v 0.390625 q 0,0.640625 0.14063,1.28125 0.14062,0.625 0.45312,1.140625 0.32813,0.5 0.85938,0.8125 0.53125,0.3125 1.32812,0.3125 z m 13.47682,1.1875 q -0.0937,-0.1875 -0.15625,-0.46875 -0.0625,-0.296875 -0.0937,-0.609375 -0.25,0.265625 -0.5625,0.5 -0.3125,0.21875 -0.70312,0.390625 -0.375,0.171875 -0.8125,0.265625 -0.42188,0.109375 -0.89063,0.109375 -0.79687,0 -1.4375,-0.21875 -0.625,-0.234375 -1.0625,-0.625 -0.4375,-0.390625 -0.6875,-0.921875 -0.23437,-0.53125 -0.23437,-1.15625 0,-0.8125 0.3125,-1.421875 0.32812,-0.609375 0.92187,-1.015625 0.59375,-0.40625 1.42188,-0.59375 0.84375,-0.203125 1.875,-0.203125 h 1.82812 V 48.17 q 0,-0.453125 -0.17187,-0.796875 -0.15625,-0.359375 -0.45313,-0.609375 -0.29687,-0.25 -0.73437,-0.390625 -0.42188,-0.140625 -0.96875,-0.140625 -0.5,0 -0.90625,0.140625 -0.39063,0.125 -0.67188,0.34375 -0.26562,0.203125 -0.42187,0.484375 -0.14063,0.28125 -0.14063,0.59375 h -1.6875 q 0,-0.53125 0.26563,-1.046875 0.28125,-0.53125 0.78125,-0.9375 0.5,-0.421875 1.21875,-0.671875 0.73437,-0.25 1.65625,-0.25 0.84375,0 1.5625,0.203125 0.71875,0.203125 1.23437,0.625 0.53125,0.40625 0.82813,1.03125 0.29687,0.609375 0.29687,1.4375 v 4.578125 q 0,0.5 0.0937,1.046875 0.0937,0.546875 0.25,0.96875 V 54.92 Z m -2.98437,-1.28125 q 0.5,0 0.92187,-0.125 0.4375,-0.140625 0.78125,-0.34375 0.34375,-0.203125 0.59375,-0.46875 0.26563,-0.28125 0.40625,-0.5625 v -2 h -1.5625 q -1.46875,0 -2.29687,0.4375 -0.8125,0.4375 -0.8125,1.375 0,0.359375 0.125,0.671875 0.125,0.3125 0.35937,0.53125 0.25,0.21875 0.625,0.359375 0.375,0.125 0.85938,0.125 z M 201.38724,42.67 v 2.390625 h 3.75 v 1.3125 h -3.75 v 5.34375 q 0,0.578125 0.14063,0.953125 0.14062,0.375 0.39062,0.59375 0.26563,0.21875 0.59375,0.3125 0.34375,0.09375 0.71875,0.09375 0.26563,0 0.54688,-0.03125 0.29687,-0.03125 0.57812,-0.07813 0.28125,-0.04687 0.51563,-0.09375 0.25,-0.04687 0.40625,-0.09375 l 0.23437,1.203125 q -0.21875,0.125 -0.51562,0.21875 -0.29688,0.09375 -0.65625,0.15625 -0.34375,0.07813 -0.75,0.109375 -0.39063,0.04687 -0.78125,0.04687 -0.65625,0 -1.23438,-0.1875 -0.5625,-0.1875 -0.98437,-0.59375 -0.42188,-0.40625 -0.67188,-1.046875 -0.23437,-0.640625 -0.23437,-1.5625 v -5.34375 h -2.57813 v -1.3125 h 2.57813 V 42.67 Z m 7.4612,2.390625 h 5.04687 v 8.40625 h 3.21875 V 54.92 h -8.26562 v -1.453125 h 3.35937 v -6.9375 h -3.35937 z m 3.14062,-2.578125 q 0,-0.421875 0.25,-0.703125 0.25,-0.296875 0.76563,-0.296875 0.5,0 0.75,0.296875 0.25,0.28125 0.25,0.703125 0,0.40625 -0.25,0.6875 -0.25,0.265625 -0.75,0.265625 -0.51563,0 -0.76563,-0.265625 -0.25,-0.28125 -0.25,-0.6875 z m 7.32058,7.421875 q 0,-1.0625 0.3125,-1.984375 0.3125,-0.921875 0.89062,-1.59375 0.57813,-0.671875 1.40625,-1.046875 0.82813,-0.390625 1.85938,-0.390625 1.04687,0 1.875,0.390625 0.84375,0.375 1.42187,1.046875 0.57813,0.671875 0.89063,1.59375 0.3125,0.921875 0.3125,1.984375 V 50.1075 q 0,1.0625 -0.3125,1.96875 -0.3125,0.90625 -0.89063,1.59375 -0.57812,0.671875 -1.40625,1.0625 -0.82812,0.375 -1.85937,0.375 -1.04688,0 -1.89063,-0.375 -0.82812,-0.390625 -1.40625,-1.0625 -0.57812,-0.6875 -0.89062,-1.59375 -0.3125,-0.90625 -0.3125,-1.96875 z m 1.6875,0.203125 q 0,0.71875 0.17187,1.390625 0.17188,0.65625 0.51563,1.15625 0.35937,0.5 0.89062,0.796875 0.53125,0.28125 1.23438,0.28125 0.6875,0 1.20312,-0.28125 0.53125,-0.296875 0.875,-0.796875 0.35938,-0.5 0.53125,-1.15625 0.17188,-0.671875 0.17188,-1.390625 v -0.203125 q 0,-0.71875 -0.1875,-1.375 -0.17188,-0.671875 -0.53125,-1.171875 -0.34375,-0.5 -0.875,-0.796875 -0.51563,-0.296875 -1.21875,-0.296875 -0.70313,0 -1.21875,0.296875 -0.51563,0.296875 -0.875,0.796875 -0.34375,0.5 -0.51563,1.171875 -0.17187,0.65625 -0.17187,1.375 z m 11.49243,-5.046875 0.125,1.453125 q 0.53125,-0.765625 1.3125,-1.1875 0.78125,-0.4375 1.75,-0.4375 0.78125,0 1.40625,0.21875 0.64062,0.21875 1.07812,0.6875 0.45313,0.453125 0.6875,1.171875 0.25,0.71875 0.25,1.6875 V 54.92 h -1.6875 v -6.21875 q 0,-0.65625 -0.15625,-1.109375 -0.14062,-0.453125 -0.42187,-0.734375 -0.28125,-0.296875 -0.70313,-0.421875 -0.40625,-0.125 -0.95312,-0.125 -0.84375,0 -1.48438,0.421875 -0.64062,0.421875 -1.03125,1.125 V 54.92 h -1.6875 v -9.859375 z"
       id="path11"
       inkscape:connector-curvature="0"
       style="fill:#000000;fill-rule:nonzero" />
    <path
       d="m 90.00787,104 h 178.01575 v 64 H 90.00787 Z"
       id="path13"
       inkscape:connector-curvature="0"
       style="fill:#fff2cc;fill-rule:evenodd" />
    <path
       d="m 90.00787,104 h 178.01575 v 64 H 90.00787 Z"
       id="path15"
       inkscape:connector-curvature="0"
       style="fill-rule:evenodd;stroke:#000000;stroke-width:1;stroke-linecap:butt;stroke-linejoin:round" />
    <path
       d="m 122.01419,141.18562 q -0.84375,0.98437 -1.9375,1.45312 -1.07812,0.46875 -2.375,0.46875 -0.8125,-0.0156 -1.5,-0.25 -0.6875,-0.25 -1.23437,-0.67187 -0.54688,-0.42188 -0.95313,-1 -0.40625,-0.57813 -0.6875,-1.23438 -0.28125,-0.67187 -0.42187,-1.40625 -0.14063,-0.73437 -0.15625,-1.48437 v -1.53125 q 0.0156,-0.75 0.14062,-1.46875 0.125,-0.73438 0.375,-1.40625 0.25,-0.6875 0.625,-1.26563 0.39063,-0.57812 0.92188,-1 0.53125,-0.42187 1.20312,-0.67187 0.6875,-0.25 1.51563,-0.25 0.9375,0 1.71875,0.29687 0.78125,0.28125 1.35937,0.8125 0.59375,0.53125 0.9375,1.29688 0.35938,0.75 0.4375,1.67187 h -1.65625 q -0.10937,-0.57812 -0.3125,-1.0625 -0.20312,-0.48437 -0.54687,-0.82812 -0.34375,-0.34375 -0.82813,-0.53125 -0.46875,-0.20313 -1.09375,-0.20313 -0.60937,0 -1.07812,0.20313 -0.45313,0.20312 -0.79688,0.54687 -0.34375,0.34375 -0.57812,0.8125 -0.21875,0.45313 -0.375,0.96875 -0.14063,0.5 -0.20313,1.03125 -0.0625,0.53125 -0.0625,1.01563 v 1.5625 q 0,0.5 0.0781,1.03125 0.0781,0.53125 0.23437,1.04687 0.17188,0.51563 0.42188,0.96875 0.26562,0.45313 0.625,0.79688 0.35937,0.34375 0.82812,0.5625 0.48438,0.20312 1.07813,0.20312 0.34375,0.0156 0.71875,-0.0156 0.39062,-0.0469 0.73437,-0.15625 0.35938,-0.10938 0.67188,-0.29688 0.3125,-0.1875 0.51562,-0.48437 l 0.0156,-2.98438 h -2.6875 v -1.42187 h 4.29687 z m 9.00807,0.375 q -0.5,0.73437 -1.23437,1.14062 -0.73438,0.40625 -1.70313,0.40625 -0.78125,0 -1.40625,-0.23437 -0.625,-0.25 -1.07812,-0.76563 -0.4375,-0.51562 -0.6875,-1.29687 -0.23438,-0.78125 -0.23438,-1.89063 v -5.85937 h 1.6875 v 5.875 q 0,0.8125 0.125,1.34375 0.125,0.51562 0.375,0.82812 0.26563,0.3125 0.625,0.45313 0.375,0.125 0.85938,0.125 1.03125,0 1.65625,-0.42188 0.64062,-0.42187 0.95312,-1.125 v -7.07812 h 1.6875 v 9.85937 h -1.53125 z m 9.1487,1.54687 q -1.03125,0 -1.90625,-0.35937 -0.875,-0.35938 -1.5,-0.98438 -0.60938,-0.64062 -0.95313,-1.51562 -0.34375,-0.875 -0.34375,-1.90625 v -0.39063 q 0,-1.1875 0.375,-2.125 0.39063,-0.95312 1.01563,-1.59375 0.64062,-0.65625 1.4375,-1 0.8125,-0.34375 1.65625,-0.34375 1.0625,0 1.85937,0.375 0.79688,0.35938 1.32813,1.01563 0.53125,0.64062 0.78125,1.53125 0.26562,0.875 0.26562,1.90625 v 0.75 h -7.03125 q 0.0156,0.6875 0.25,1.28125 0.23438,0.57812 0.64063,1.03125 0.40625,0.4375 0.96875,0.70312 0.5625,0.25 1.25,0.25 0.90625,0 1.59375,-0.35937 0.70312,-0.375 1.17187,-0.96875 l 1.03125,0.79687 q -0.25,0.375 -0.625,0.71875 -0.35937,0.32813 -0.84375,0.59375 -0.48437,0.26563 -1.09375,0.42188 -0.60937,0.17187 -1.32812,0.17187 z m -0.21875,-8.84375 q -0.51563,0 -0.96875,0.1875 -0.45313,0.1875 -0.8125,0.54688 -0.35938,0.35937 -0.625,0.89062 -0.25,0.51563 -0.34375,1.20313 h 5.29687 v -0.125 q -0.0156,-0.5 -0.1875,-0.98438 -0.15625,-0.48437 -0.46875,-0.85937 -0.29687,-0.39063 -0.76562,-0.625 -0.46875,-0.23438 -1.125,-0.23438 z m 13.61745,6.04688 q 0,-0.3125 -0.125,-0.54688 -0.125,-0.23437 -0.40625,-0.4375 -0.28125,-0.20312 -0.75,-0.375 -0.45313,-0.17187 -1.14063,-0.29687 -0.85937,-0.1875 -1.5625,-0.42188 -0.6875,-0.25 -1.1875,-0.59375 -0.48437,-0.34375 -0.76562,-0.79687 -0.26563,-0.46875 -0.26563,-1.07813 0,-0.59375 0.28125,-1.10937 0.28125,-0.53125 0.78125,-0.92188 0.51563,-0.39062 1.21875,-0.60937 0.70313,-0.23438 1.5625,-0.23438 0.90625,0 1.625,0.23438 0.73438,0.23437 1.25,0.65625 0.51563,0.40625 0.78125,0.96875 0.28125,0.5625 0.28125,1.21875 h -1.6875 q 0,-0.32813 -0.17187,-0.625 -0.15625,-0.3125 -0.45313,-0.54688 -0.28125,-0.23437 -0.70312,-0.375 -0.40625,-0.15625 -0.92188,-0.15625 -0.54687,0 -0.95312,0.125 -0.40625,0.10938 -0.67188,0.3125 -0.26562,0.20313 -0.40625,0.46875 -0.14062,0.26563 -0.14062,0.54688 0,0.28125 0.10937,0.51562 0.10938,0.23438 0.375,0.42188 0.28125,0.17187 0.73438,0.32812 0.45312,0.14063 1.14062,0.26563 0.90625,0.20312 1.625,0.45312 0.71875,0.25 1.20313,0.60938 0.5,0.34375 0.75,0.8125 0.26562,0.45312 0.26562,1.0625 0,0.65625 -0.29687,1.20312 -0.28125,0.53125 -0.8125,0.92188 -0.53125,0.375 -1.26563,0.59375 -0.73437,0.20312 -1.60937,0.20312 -1.01563,0 -1.79688,-0.26562 -0.78125,-0.28125 -1.32812,-0.71875 -0.53125,-0.4375 -0.82813,-1.01563 -0.28125,-0.59375 -0.28125,-1.21875 h 1.6875 q 0.0312,0.51563 0.26563,0.875 0.25,0.35938 0.60937,0.57813 0.35938,0.21875 0.79688,0.3125 0.4375,0.0781 0.875,0.0781 1.0625,0 1.67187,-0.39062 0.625,-0.39063 0.64063,-1.03125 z m 8.63307,-9.64063 v 2.39063 h 3.75 v 1.3125 h -3.75 v 5.34375 q 0,0.57812 0.14062,0.95312 0.14063,0.375 0.39063,0.59375 0.26562,0.21875 0.59375,0.3125 0.34375,0.0937 0.71875,0.0937 0.26562,0 0.54687,-0.0312 0.29688,-0.0312 0.57813,-0.0781 0.28125,-0.0469 0.51562,-0.0937 0.25,-0.0469 0.40625,-0.0937 l 0.23438,1.20312 q -0.21875,0.125 -0.51563,0.21875 -0.29687,0.0937 -0.65625,0.15625 -0.34375,0.0781 -0.75,0.10938 -0.39062,0.0469 -0.78125,0.0469 -0.65625,0 -1.23437,-0.1875 -0.5625,-0.1875 -0.98438,-0.59375 -0.42187,-0.40625 -0.67187,-1.04687 -0.23438,-0.64063 -0.23438,-1.5625 v -5.34375 h -2.57812 v -1.3125 h 2.57812 v -2.39063 z m 21.57864,6.09375 -1.48437,1.67188 v 4.48437 h -1.71875 v -13.26562 h 1.71875 v 6.48437 l 1.29687,-1.60937 3.89063,-4.875 h 2.04687 l -4.64062,5.8125 4.95312,7.45312 h -2.0625 z m 12.36745,6.34375 q -1.03125,0 -1.90625,-0.35937 -0.875,-0.35938 -1.5,-0.98438 -0.60938,-0.64062 -0.95313,-1.51562 -0.34375,-0.875 -0.34375,-1.90625 v -0.39063 q 0,-1.1875 0.375,-2.125 0.39063,-0.95312 1.01563,-1.59375 0.64062,-0.65625 1.4375,-1 0.8125,-0.34375 1.65625,-0.34375 1.0625,0 1.85937,0.375 0.79688,0.35938 1.32813,1.01563 0.53125,0.64062 0.78125,1.53125 0.26562,0.875 0.26562,1.90625 v 0.75 h -7.03125 q 0.0156,0.6875 0.25,1.28125 0.23438,0.57812 0.64063,1.03125 0.40625,0.4375 0.96875,0.70312 0.5625,0.25 1.25,0.25 0.90625,0 1.59375,-0.35937 0.70312,-0.375 1.17187,-0.96875 l 1.03125,0.79687 q -0.25,0.375 -0.625,0.71875 -0.35937,0.32813 -0.84375,0.59375 -0.48437,0.26563 -1.09375,0.42188 -0.60937,0.17187 -1.32812,0.17187 z m -0.21875,-8.84375 q -0.51563,0 -0.96875,0.1875 -0.45313,0.1875 -0.8125,0.54688 -0.35938,0.35937 -0.625,0.89062 -0.25,0.51563 -0.34375,1.20313 h 5.29687 v -0.125 q -0.0156,-0.5 -0.1875,-0.98438 -0.15625,-0.48437 -0.46875,-0.85937 -0.29687,-0.39063 -0.76562,-0.625 -0.46875,-0.23438 -1.125,-0.23438 z m 13.5237,-1.375 q 0.23437,0 0.48437,0.0156 0.26563,0 0.48438,0.0312 0.23437,0.0312 0.42187,0.0781 0.20313,0.0469 0.34375,0.10938 l -0.23437,1.64062 q -0.48438,-0.10937 -0.9375,-0.15625 -0.4375,-0.0469 -0.92188,-0.0469 -1.1875,0 -1.92187,0.54687 -0.73438,0.53125 -1.07813,1.48438 v 6.32812 h -1.6875 v -9.85937 h 1.59375 l 0.0937,1.5625 q 0.59375,-0.79688 1.4375,-1.26563 0.84375,-0.46875 1.92188,-0.46875 z m 6.24244,0.17188 0.125,1.45312 q 0.53125,-0.76562 1.3125,-1.1875 0.78125,-0.4375 1.75,-0.4375 0.78125,0 1.40625,0.21875 0.64063,0.21875 1.07813,0.6875 0.45312,0.45313 0.6875,1.17188 0.25,0.71875 0.25,1.6875 v 6.26562 h -1.6875 v -6.21875 q 0,-0.65625 -0.15625,-1.10937 -0.14063,-0.45313 -0.42188,-0.73438 -0.28125,-0.29687 -0.70312,-0.42187 -0.40625,-0.125 -0.95313,-0.125 -0.84375,0 -1.48437,0.42187 -0.64063,0.42188 -1.03125,1.125 v 7.0625 h -1.6875 v -9.85937 z m 14.03932,10.04687 q -1.03125,0 -1.90625,-0.35937 -0.875,-0.35938 -1.5,-0.98438 -0.60937,-0.64062 -0.95312,-1.51562 -0.34375,-0.875 -0.34375,-1.90625 v -0.39063 q 0,-1.1875 0.375,-2.125 0.39062,-0.95312 1.01562,-1.59375 0.64063,-0.65625 1.4375,-1 0.8125,-0.34375 1.65625,-0.34375 1.0625,0 1.85938,0.375 0.79687,0.35938 1.32812,1.01563 0.53125,0.64062 0.78125,1.53125 0.26563,0.875 0.26563,1.90625 v 0.75 h -7.03125 q 0.0156,0.6875 0.25,1.28125 0.23437,0.57812 0.64062,1.03125 0.40625,0.4375 0.96875,0.70312 0.5625,0.25 1.25,0.25 0.90625,0 1.59375,-0.35937 0.70313,-0.375 1.17188,-0.96875 l 1.03125,0.79687 q -0.25,0.375 -0.625,0.71875 -0.35938,0.32813 -0.84375,0.59375 -0.48438,0.26563 -1.09375,0.42188 -0.60938,0.17187 -1.32813,0.17187 z m -0.21875,-8.84375 q -0.51562,0 -0.96875,0.1875 -0.45312,0.1875 -0.8125,0.54688 -0.35937,0.35937 -0.625,0.89062 -0.25,0.51563 -0.34375,1.20313 h 5.29688 v -0.125 q -0.0156,-0.5 -0.1875,-0.98438 -0.15625,-0.48437 -0.46875,-0.85937 -0.29688,-0.39063 -0.76563,-0.625 -0.46875,-0.23438 -1.125,-0.23438 z m 7.32058,-5.34375 h 5.04687 v 12.54688 h 3.21875 v 1.45312 h -8.26562 v -1.45312 h 3.35937 v -11.07813 h -3.35937 z"
       id="path17"
       inkscape:connector-curvature="0"
       style="fill:#000000;fill-rule:nonzero" />
    <path
       d="m 90.00787,192 h 178.01575 v 64 H 90.00787 Z"
       id="path19"
       inkscape:connector-curvature="0"
       style="fill:#d9ead3;fill-rule:evenodd" />
    <path
       d="m 90.00787,192 h 178.01575 v 64 H 90.00787 Z"
       id="path21"
       inkscape:connector-curvature="0"
       style="fill-rule:evenodd;stroke:#000000;stroke-width:1;stroke-linecap:butt;stroke-linejoin:round" />
    <path
       d="m 167.7849,228.20125 3.125,-10.54688 h 1.79687 l -4.1875,13.26563 h -1.45312 l -4.20313,-13.26563 h 1.8125 z m 9.07057,-10.54688 2.15625,6.64063 2.32813,-6.64063 h 2.09375 V 230.92 h -1.64063 v -5.29688 l 0.14063,-5.53125 -2.45313,7.14063 h -0.96875 l -2.25,-6.95313 0.14063,5.34375 V 230.92 h -1.64063 v -13.26563 z m 11.19557,0 2.15625,6.64063 2.32813,-6.64063 h 2.09375 V 230.92 h -1.64063 v -5.29688 l 0.14063,-5.53125 -2.45313,7.14063 h -0.96875 l -2.25,-6.95313 0.14063,5.34375 V 230.92 h -1.64063 v -13.26563 z"
       id="path23"
       inkscape:connector-curvature="0"
       style="fill:#000000;fill-rule:nonzero" />
    <path
       d="m 90.00787,280 h 178.01575 v 64 H 90.00787 Z"
       id="path25"
       inkscape:connector-curvature="0"
       style="fill:#cfe2f3;fill-rule:evenodd" />
    <path
       d="m 90.00787,280 h 178.01575 v 64 H 90.00787 Z"
       id="path27"
       inkscape:connector-curvature="0"
       style="fill-rule:evenodd;stroke:#000000;stroke-width:1;stroke-linecap:butt;stroke-linejoin:round" />
    <path
       d="m 127.34635,318.91998 h -1.59375 v -6.125 h -5.4375 v 6.125 h -1.59375 v -13.26563 h 1.59375 v 5.70313 h 5.4375 v -5.70313 h 1.59375 z m 2.3987,-5.01563 q 0,-1.0625 0.3125,-1.98437 0.3125,-0.92188 0.89063,-1.59375 0.57812,-0.67188 1.40625,-1.04688 0.82812,-0.39062 1.85937,-0.39062 1.04688,0 1.875,0.39062 0.84375,0.375 1.42188,1.04688 0.57812,0.67187 0.89062,1.59375 0.3125,0.92187 0.3125,1.98437 v 0.20313 q 0,1.0625 -0.3125,1.96875 -0.3125,0.90625 -0.89062,1.59375 -0.57813,0.67187 -1.40625,1.0625 -0.82813,0.375 -1.85938,0.375 -1.04687,0 -1.89062,-0.375 -0.82813,-0.39063 -1.40625,-1.0625 -0.57813,-0.6875 -0.89063,-1.59375 -0.3125,-0.90625 -0.3125,-1.96875 z m 1.6875,0.20313 q 0,0.71875 0.17188,1.39062 0.17187,0.65625 0.51562,1.15625 0.35938,0.5 0.89063,0.79688 0.53125,0.28125 1.23437,0.28125 0.6875,0 1.20313,-0.28125 0.53125,-0.29688 0.875,-0.79688 0.35937,-0.5 0.53125,-1.15625 0.17187,-0.67187 0.17187,-1.39062 v -0.20313 q 0,-0.71875 -0.1875,-1.375 -0.17187,-0.67187 -0.53125,-1.17187 -0.34375,-0.5 -0.875,-0.79688 -0.51562,-0.29687 -1.21875,-0.29687 -0.70312,0 -1.21875,0.29687 -0.51562,0.29688 -0.875,0.79688 -0.34375,0.5 -0.51562,1.17187 -0.17188,0.65625 -0.17188,1.375 z m 16.53933,2.20312 q 0,-0.3125 -0.125,-0.54687 -0.125,-0.23438 -0.40625,-0.4375 -0.28125,-0.20313 -0.75,-0.375 -0.45313,-0.17188 -1.14063,-0.29688 -0.85937,-0.1875 -1.5625,-0.42187 -0.6875,-0.25 -1.1875,-0.59375 -0.48437,-0.34375 -0.76562,-0.79688 -0.26563,-0.46875 -0.26563,-1.07812 0,-0.59375 0.28125,-1.10938 0.28125,-0.53125 0.78125,-0.92187 0.51563,-0.39063 1.21875,-0.60938 0.70313,-0.23437 1.5625,-0.23437 0.90625,0 1.625,0.23437 0.73438,0.23438 1.25,0.65625 0.51563,0.40625 0.78125,0.96875 0.28125,0.5625 0.28125,1.21875 h -1.6875 q 0,-0.32812 -0.17187,-0.625 -0.15625,-0.3125 -0.45313,-0.54687 -0.28125,-0.23438 -0.70312,-0.375 -0.40625,-0.15625 -0.92188,-0.15625 -0.54687,0 -0.95312,0.125 -0.40625,0.10937 -0.67188,0.3125 -0.26562,0.20312 -0.40625,0.46875 -0.14062,0.26562 -0.14062,0.54687 0,0.28125 0.10937,0.51563 0.10938,0.23437 0.375,0.42187 0.28125,0.17188 0.73438,0.32813 0.45312,0.14062 1.14062,0.26562 0.90625,0.20313 1.625,0.45313 0.71875,0.25 1.20313,0.60937 0.5,0.34375 0.75,0.8125 0.26562,0.45313 0.26562,1.0625 0,0.65625 -0.29687,1.20313 -0.28125,0.53125 -0.8125,0.92187 -0.53125,0.375 -1.26563,0.59375 -0.73437,0.20313 -1.60937,0.20313 -1.01563,0 -1.79688,-0.26563 -0.78125,-0.28125 -1.32812,-0.71875 -0.53125,-0.4375 -0.82813,-1.01562 -0.28125,-0.59375 -0.28125,-1.21875 h 1.6875 q 0.0312,0.51562 0.26563,0.875 0.25,0.35937 0.60937,0.57812 0.35938,0.21875 0.79688,0.3125 0.4375,0.0781 0.875,0.0781 1.0625,0 1.67187,-0.39063 0.625,-0.39062 0.64063,-1.03125 z m 8.63307,-9.64062 v 2.39062 h 3.75 v 1.3125 h -3.75 v 5.34375 q 0,0.57813 0.14062,0.95313 0.14063,0.375 0.39063,0.59375 0.26562,0.21875 0.59375,0.3125 0.34375,0.0937 0.71875,0.0937 0.26562,0 0.54687,-0.0312 0.29688,-0.0312 0.57813,-0.0781 0.28125,-0.0469 0.51562,-0.0937 0.25,-0.0469 0.40625,-0.0937 l 0.23438,1.20313 q -0.21875,0.125 -0.51563,0.21875 -0.29687,0.0937 -0.65625,0.15625 -0.34375,0.0781 -0.75,0.10937 -0.39062,0.0469 -0.78125,0.0469 -0.65625,0 -1.23437,-0.1875 -0.5625,-0.1875 -0.98438,-0.59375 -0.42187,-0.40625 -0.67187,-1.04688 -0.23438,-0.64062 -0.23438,-1.5625 v -5.34375 h -2.57812 v -1.3125 h 2.57812 v -2.39062 z m 21.57864,6.09375 -1.48437,1.67187 v 4.48438 h -1.71875 v -13.26563 h 1.71875 v 6.48438 l 1.29687,-1.60938 3.89063,-4.875 h 2.04687 l -4.64062,5.8125 4.95312,7.45313 h -2.0625 z m 12.36745,6.34375 q -1.03125,0 -1.90625,-0.35938 -0.875,-0.35937 -1.5,-0.98437 -0.60938,-0.64063 -0.95313,-1.51563 -0.34375,-0.875 -0.34375,-1.90625 v -0.39062 q 0,-1.1875 0.375,-2.125 0.39063,-0.95313 1.01563,-1.59375 0.64062,-0.65625 1.4375,-1 0.8125,-0.34375 1.65625,-0.34375 1.0625,0 1.85937,0.375 0.79688,0.35937 1.32813,1.01562 0.53125,0.64063 0.78125,1.53125 0.26562,0.875 0.26562,1.90625 v 0.75 h -7.03125 q 0.0156,0.6875 0.25,1.28125 0.23438,0.57813 0.64063,1.03125 0.40625,0.4375 0.96875,0.70313 0.5625,0.25 1.25,0.25 0.90625,0 1.59375,-0.35938 0.70312,-0.375 1.17187,-0.96875 l 1.03125,0.79688 q -0.25,0.375 -0.625,0.71875 -0.35937,0.32812 -0.84375,0.59375 -0.48437,0.26562 -1.09375,0.42187 -0.60937,0.17188 -1.32812,0.17188 z m -0.21875,-8.84375 q -0.51563,0 -0.96875,0.1875 -0.45313,0.1875 -0.8125,0.54687 -0.35938,0.35938 -0.625,0.89063 -0.25,0.51562 -0.34375,1.20312 h 5.29687 v -0.125 q -0.0156,-0.5 -0.1875,-0.98437 -0.15625,-0.48438 -0.46875,-0.85938 -0.29687,-0.39062 -0.76562,-0.625 -0.46875,-0.23437 -1.125,-0.23437 z m 13.5237,-1.375 q 0.23437,0 0.48437,0.0156 0.26563,0 0.48438,0.0312 0.23437,0.0312 0.42187,0.0781 0.20313,0.0469 0.34375,0.10937 l -0.23437,1.64063 q -0.48438,-0.10938 -0.9375,-0.15625 -0.4375,-0.0469 -0.92188,-0.0469 -1.1875,0 -1.92187,0.54688 -0.73438,0.53125 -1.07813,1.48437 v 6.32813 h -1.6875 v -9.85938 h 1.59375 l 0.0937,1.5625 q 0.59375,-0.79687 1.4375,-1.26562 0.84375,-0.46875 1.92188,-0.46875 z m 6.24244,0.17187 0.125,1.45313 q 0.53125,-0.76563 1.3125,-1.1875 0.78125,-0.4375 1.75,-0.4375 0.78125,0 1.40625,0.21875 0.64063,0.21875 1.07813,0.6875 0.45312,0.45312 0.6875,1.17187 0.25,0.71875 0.25,1.6875 v 6.26563 h -1.6875 v -6.21875 q 0,-0.65625 -0.15625,-1.10938 -0.14063,-0.45312 -0.42188,-0.73437 -0.28125,-0.29688 -0.70312,-0.42188 -0.40625,-0.125 -0.95313,-0.125 -0.84375,0 -1.48437,0.42188 -0.64063,0.42187 -1.03125,1.125 v 7.0625 h -1.6875 v -9.85938 z m 14.03933,10.04688 q -1.03125,0 -1.90625,-0.35938 -0.875,-0.35937 -1.5,-0.98437 -0.60938,-0.64063 -0.95313,-1.51563 -0.34375,-0.875 -0.34375,-1.90625 v -0.39062 q 0,-1.1875 0.375,-2.125 0.39063,-0.95313 1.01563,-1.59375 0.64062,-0.65625 1.4375,-1 0.8125,-0.34375 1.65625,-0.34375 1.0625,0 1.85937,0.375 0.79688,0.35937 1.32813,1.01562 0.53125,0.64063 0.78125,1.53125 0.26562,0.875 0.26562,1.90625 v 0.75 h -7.03125 q 0.0156,0.6875 0.25,1.28125 0.23438,0.57813 0.64063,1.03125 0.40625,0.4375 0.96875,0.70313 0.5625,0.25 1.25,0.25 0.90625,0 1.59375,-0.35938 0.70312,-0.375 1.17187,-0.96875 l 1.03125,0.79688 q -0.25,0.375 -0.625,0.71875 -0.35937,0.32812 -0.84375,0.59375 -0.48437,0.26562 -1.09375,0.42187 -0.60937,0.17188 -1.32812,0.17188 z m -0.21875,-8.84375 q -0.51563,0 -0.96875,0.1875 -0.45313,0.1875 -0.8125,0.54687 -0.35938,0.35938 -0.625,0.89063 -0.25,0.51562 -0.34375,1.20312 h 5.29687 v -0.125 q -0.0156,-0.5 -0.1875,-0.98437 -0.15625,-0.48438 -0.46875,-0.85938 -0.29687,-0.39062 -0.76562,-0.625 -0.46875,-0.23437 -1.125,-0.23437 z m 7.32055,-5.34375 h 5.04688 v 12.54687 h 3.21875 v 1.45313 h -8.26563 v -1.45313 h 3.35938 v -11.07812 h -3.35938 z"
       id="path29"
       inkscape:connector-curvature="0"
       style="fill:#000000;fill-rule:nonzero" />
    <path
       d="M 20.007874,91 H 131"
       id="path31"
       inkscape:connector-curvature="0"
       style="fill:#000000;fill-opacity:0;fill-rule:evenodd" />
    <path
       d="M 20.007874,91 H 131"
       id="path33"
       inkscape:connector-curvature="0"
       style="fill-rule:evenodd;stroke:#000000;stroke-width:1;stroke-linecap:butt;stroke-linejoin:round" />
    <path
       d="M 244.00787,91 H 355"
       id="path35"
       inkscape:connector-curvature="0"
       style="fill:#000000;fill-opacity:0;fill-rule:evenodd" />
    <path
       d="M 244.00787,91 H 355"
       id="path37"
       inkscape:connector-curvature="0"
       style="fill-rule:evenodd;stroke:#000000;stroke-width:1;stroke-linecap:butt;stroke-linejoin:round" />
    <path
       d="m 123,70.00787 h 126.99213 v 41.98425 H 123 Z"
       id="path39"
       inkscape:connector-curvature="0"
       style="fill:#000000;fill-opacity:0;fill-rule:evenodd" />
    <path
       d="m 140.4281,90.44725 q 0,-0.46875 -0.21875,-0.796875 -0.21875,-0.328125 -0.5625,-0.546875 -0.34375,-0.234375 -0.76563,-0.375 -0.40625,-0.15625 -0.78125,-0.28125 -0.54687,-0.1875 -1.125,-0.4375 -0.5625,-0.25 -1.03125,-0.609375 Q 135.47497,87.041 135.1781,86.541 q -0.29688,-0.5 -0.29688,-1.171875 0,-0.671875 0.29688,-1.203125 0.29687,-0.53125 0.76562,-0.890625 0.48438,-0.375 1.09375,-0.5625 0.60938,-0.1875 1.21875,-0.1875 0.6875,0 1.3125,0.234375 0.625,0.21875 1.10938,0.625 0.5,0.40625 0.78125,0.984375 0.29687,0.578125 0.3125,1.296875 h -1.35938 q -0.0469,-0.453125 -0.21875,-0.8125 -0.15625,-0.375 -0.4375,-0.640625 -0.26562,-0.265625 -0.64062,-0.40625 -0.375,-0.15625 -0.85938,-0.15625 -0.375,0 -0.73437,0.109375 -0.35938,0.109375 -0.64063,0.328125 -0.28125,0.21875 -0.45312,0.53125 -0.17188,0.3125 -0.17188,0.71875 0.0156,0.453125 0.23438,0.765625 0.21875,0.3125 0.5625,0.53125 0.34375,0.21875 0.73437,0.359375 0.39063,0.140625 0.75,0.25 0.39063,0.125 0.78125,0.28125 0.39063,0.140625 0.75,0.34375 0.375,0.203125 0.6875,0.453125 0.3125,0.25 0.54688,0.578125 0.23437,0.3125 0.35937,0.703125 0.14063,0.375 0.14063,0.84375 0,0.6875 -0.3125,1.21875 -0.3125,0.515625 -0.8125,0.875 -0.48438,0.34375 -1.10938,0.515625 -0.625,0.171875 -1.25,0.171875 -0.6875,0 -1.35937,-0.203125 -0.65625,-0.21875 -1.1875,-0.625 -0.51563,-0.40625 -0.85938,-0.984375 -0.32812,-0.59375 -0.34375,-1.328125 h 1.35938 q 0.0625,0.484375 0.25,0.859375 0.20312,0.375 0.51562,0.640625 0.32813,0.25 0.73438,0.390625 0.40625,0.125 0.89062,0.125 0.39063,0 0.76563,-0.09375 0.375,-0.09375 0.67187,-0.296875 0.29688,-0.203125 0.48438,-0.515625 0.1875,-0.3125 0.1875,-0.75 z m 6.18581,-0.109375 0.34375,0.9375 2.35937,-5.9375 h 1.48438 l -3.9375,8.9375 q -0.125,0.3125 -0.34375,0.640625 -0.20313,0.34375 -0.51563,0.625 -0.29687,0.28125 -0.70312,0.46875 -0.39063,0.203125 -0.90625,0.203125 -0.0937,0 -0.21875,-0.01563 -0.10938,0 -0.23438,-0.03125 -0.10937,-0.01563 -0.21875,-0.03125 -0.0937,-0.01563 -0.15625,-0.03125 l 0.21875,-1.078125 q 0.0469,0 0.125,0 0.0937,0.01563 0.1875,0.01563 0.0937,0 0.17188,0 0.0937,0.01563 0.14062,0.01563 0.28125,0 0.5,-0.15625 0.23438,-0.140625 0.40625,-0.359375 0.17188,-0.203125 0.29688,-0.421875 0.125,-0.21875 0.20312,-0.359375 l 0.53125,-1.03125 -3.34375,-7.390625 h 1.48438 z M 157.70596,91.041 q 0,-0.25 -0.0937,-0.4375 -0.0937,-0.1875 -0.3125,-0.34375 -0.21875,-0.15625 -0.59375,-0.28125 -0.35937,-0.140625 -0.90625,-0.25 -0.65625,-0.140625 -1.20312,-0.328125 -0.54688,-0.1875 -0.9375,-0.453125 -0.39063,-0.28125 -0.60938,-0.640625 -0.21875,-0.359375 -0.21875,-0.84375 0,-0.46875 0.21875,-0.875 0.21875,-0.40625 0.625,-0.71875 0.40625,-0.3125 0.95313,-0.484375 0.5625,-0.1875 1.21875,-0.1875 0.71875,0 1.28125,0.1875 0.57812,0.1875 0.98437,0.515625 0.40625,0.328125 0.625,0.78125 0.21875,0.4375 0.21875,0.9375 h -1.32812 q 0,-0.25 -0.14063,-0.484375 -0.125,-0.25 -0.35937,-0.421875 -0.21875,-0.1875 -0.54688,-0.296875 -0.32812,-0.125 -0.73437,-0.125 -0.42188,0 -0.73438,0.09375 -0.3125,0.09375 -0.53125,0.25 -0.20312,0.15625 -0.3125,0.375 -0.10937,0.203125 -0.10937,0.421875 0,0.21875 0.0781,0.40625 0.0937,0.171875 0.29688,0.328125 0.21875,0.140625 0.5625,0.25 0.35937,0.109375 0.90625,0.21875 0.71875,0.15625 1.28125,0.359375 0.5625,0.1875 0.95312,0.46875 0.39063,0.265625 0.59375,0.640625 0.20313,0.359375 0.20313,0.84375 0,0.515625 -0.23438,0.9375 -0.23437,0.421875 -0.65625,0.71875 -0.40625,0.296875 -0.98437,0.46875 -0.57813,0.15625 -1.26563,0.15625 -0.79687,0 -1.40625,-0.203125 -0.60937,-0.21875 -1.04687,-0.5625 -0.42188,-0.34375 -0.65625,-0.796875 -0.21875,-0.46875 -0.21875,-0.96875 h 1.32812 q 0.0312,0.421875 0.21875,0.703125 0.1875,0.265625 0.46875,0.4375 0.28125,0.171875 0.625,0.25 0.34375,0.0625 0.6875,0.0625 0.82813,0 1.3125,-0.296875 0.5,-0.3125 0.5,-0.8125 z m 6.77956,-7.578125 v 1.875 h 2.95312 v 1.03125 h -2.95312 v 4.203125 q 0,0.453125 0.10937,0.75 0.125,0.296875 0.32813,0.46875 0.20312,0.171875 0.45312,0.25 0.26563,0.0625 0.5625,0.0625 0.21875,0 0.4375,-0.01563 0.23438,-0.03125 0.45313,-0.0625 0.21875,-0.04687 0.40625,-0.07813 0.1875,-0.04687 0.3125,-0.0625 l 0.1875,0.9375 q -0.17188,0.09375 -0.40625,0.171875 -0.23438,0.07813 -0.51563,0.125 -0.28125,0.04687 -0.59375,0.07813 -0.3125,0.03125 -0.60937,0.03125 -0.51563,0 -0.96875,-0.140625 -0.4375,-0.15625 -0.78125,-0.46875 -0.32813,-0.3125 -0.51563,-0.8125 -0.1875,-0.515625 -0.1875,-1.234375 V 86.36912 h -2.03125 v -1.03125 h 2.03125 v -1.875 z m 9.09205,9.765625 q -0.82812,0 -1.51562,-0.28125 -0.67188,-0.28125 -1.15625,-0.78125 -0.48438,-0.5 -0.76563,-1.1875 -0.26562,-0.6875 -0.26562,-1.484375 v -0.3125 q 0,-0.9375 0.29687,-1.671875 0.29688,-0.734375 0.79688,-1.25 0.5,-0.515625 1.125,-0.78125 0.64062,-0.28125 1.3125,-0.28125 0.82812,0 1.45312,0.296875 0.625,0.28125 1.03125,0.796875 0.42188,0.515625 0.625,1.21875 0.21875,0.6875 0.21875,1.484375 v 0.59375 h -5.53125 q 0.0156,0.53125 0.1875,1 0.1875,0.46875 0.5,0.8125 0.32813,0.34375 0.76563,0.546875 0.45312,0.203125 0.98437,0.203125 0.71875,0 1.26563,-0.28125 0.54687,-0.296875 0.90625,-0.765625 l 0.8125,0.625 q -0.1875,0.296875 -0.48438,0.578125 -0.28125,0.265625 -0.67187,0.46875 -0.375,0.203125 -0.85938,0.328125 -0.46875,0.125 -1.03125,0.125 z M 173.4057,86.291 q -0.40625,0 -0.76563,0.15625 -0.35937,0.140625 -0.64062,0.421875 -0.28125,0.28125 -0.48438,0.703125 -0.20312,0.40625 -0.28125,0.9375 h 4.17188 v -0.109375 q -0.0312,-0.375 -0.15625,-0.75 -0.125,-0.390625 -0.375,-0.6875 Q 174.64007,86.666 174.26507,86.4785 173.9057,86.291 173.4057,86.291 Z m 6.15456,-0.953125 0.0312,0.734375 q 0.23437,-0.40625 0.60937,-0.625 0.39063,-0.234375 0.9375,-0.25 1.0625,0 1.42188,0.828125 0.23437,-0.359375 0.60937,-0.578125 0.375,-0.234375 0.90625,-0.25 0.85938,0 1.3125,0.53125 0.45313,0.515625 0.45313,1.578125 v 5.78125 h -1.25 V 87.291 q 0,-0.96875 -0.90625,-0.96875 -0.23438,0 -0.40625,0.0625 -0.17188,0.0625 -0.28125,0.1875 -0.10938,0.109375 -0.1875,0.25 -0.0625,0.140625 -0.0781,0.296875 v 5.96875 h -1.26562 V 87.291 q 0,-0.46875 -0.20313,-0.71875 -0.20312,-0.25 -0.65625,-0.25 -0.42187,0 -0.65625,0.171875 -0.21875,0.15625 -0.32812,0.4375 v 6.15625 h -1.25 v -7.75 z m 20.27786,6.8125 q 0.35937,0 0.6875,-0.109375 0.34375,-0.109375 0.60937,-0.3125 0.26563,-0.203125 0.42188,-0.484375 0.17187,-0.28125 0.17187,-0.59375 h 1.25 q 0,0.515625 -0.26562,0.984375 -0.26563,0.46875 -0.70313,0.828125 -0.42187,0.34375 -1,0.5625 -0.5625,0.203125 -1.17187,0.203125 -0.875,0 -1.54688,-0.3125 -0.65625,-0.3125 -1.09375,-0.84375 -0.4375,-0.53125 -0.67187,-1.234375 -0.21875,-0.703125 -0.21875,-1.46875 V 89.07225 q 0,-0.765625 0.21875,-1.46875 0.23437,-0.703125 0.67187,-1.234375 0.4375,-0.53125 1.09375,-0.84375 0.67188,-0.328125 1.54688,-0.328125 0.6875,0 1.26562,0.21875 0.57813,0.21875 0.98438,0.59375 0.42187,0.375 0.65625,0.890625 0.23437,0.515625 0.23437,1.109375 h -1.25 q 0,-0.359375 -0.15625,-0.65625 -0.14062,-0.3125 -0.39062,-0.546875 -0.25,-0.25 -0.60938,-0.375 -0.34375,-0.140625 -0.73437,-0.140625 -0.625,0 -1.04688,0.25 -0.40625,0.234375 -0.67187,0.640625 -0.25,0.390625 -0.35938,0.890625 -0.10937,0.5 -0.10937,1 v 0.296875 q 0,0.5 0.10937,1 0.10938,0.5 0.35938,0.90625 0.25,0.390625 0.67187,0.640625 0.42188,0.234375 1.04688,0.234375 z m 10.57643,0.9375 q -0.0781,-0.15625 -0.125,-0.375 -0.0469,-0.21875 -0.0625,-0.46875 -0.20313,0.203125 -0.45313,0.390625 -0.23437,0.171875 -0.53125,0.3125 -0.29687,0.125 -0.64062,0.203125 -0.34375,0.07813 -0.71875,0.07813 -0.60938,0 -1.10938,-0.171875 -0.5,-0.1875 -0.84375,-0.484375 -0.34375,-0.3125 -0.54687,-0.71875 -0.1875,-0.421875 -0.1875,-0.90625 0,-0.640625 0.25,-1.125 0.26562,-0.484375 0.73437,-0.796875 0.46875,-0.3125 1.10938,-0.46875 0.65625,-0.15625 1.46875,-0.15625 h 1.45312 V 87.791 q 0,-0.359375 -0.14062,-0.640625 -0.125,-0.28125 -0.35938,-0.46875 -0.23437,-0.203125 -0.57812,-0.296875 -0.34375,-0.109375 -0.76563,-0.109375 -0.39062,0 -0.70312,0.09375 -0.3125,0.09375 -0.53125,0.265625 -0.20313,0.15625 -0.32813,0.390625 -0.10937,0.21875 -0.10937,0.46875 h -1.32813 q 0,-0.421875 0.20313,-0.828125 0.21875,-0.40625 0.60937,-0.734375 0.40625,-0.328125 0.96875,-0.53125 0.57813,-0.203125 1.29688,-0.203125 0.65625,0 1.21875,0.171875 0.5625,0.15625 0.96875,0.484375 0.42187,0.328125 0.65625,0.8125 0.23437,0.484375 0.23437,1.140625 v 3.59375 q 0,0.390625 0.0625,0.828125 0.0781,0.421875 0.21875,0.75 v 0.109375 z m -2.32813,-1.015625 q 0.375,0 0.70313,-0.09375 0.34375,-0.09375 0.625,-0.25 0.28125,-0.171875 0.46875,-0.375 0.20312,-0.21875 0.32812,-0.453125 v -1.5625 h -1.23437 q -1.15625,0 -1.8125,0.34375 -0.64063,0.34375 -0.64063,1.078125 0,0.28125 0.0937,0.53125 0.10938,0.234375 0.29688,0.421875 0.1875,0.171875 0.48437,0.265625 0.29688,0.09375 0.6875,0.09375 z m 6.24831,-9.984375 h 3.95313 v 9.859375 h 2.53125 v 1.140625 h -6.48438 V 91.94725 h 2.64063 v -8.703125 h -2.64063 z m 8.79518,0 h 3.95313 v 9.859375 h 2.53125 v 1.140625 h -6.48438 V 91.94725 h 2.64063 v -8.703125 h -2.64063 z M 236.86259,91.041 q 0,-0.25 -0.0937,-0.4375 -0.0937,-0.1875 -0.3125,-0.34375 -0.21875,-0.15625 -0.59375,-0.28125 -0.35937,-0.140625 -0.90625,-0.25 -0.65625,-0.140625 -1.20312,-0.328125 -0.54688,-0.1875 -0.9375,-0.453125 -0.39063,-0.28125 -0.60938,-0.640625 -0.21875,-0.359375 -0.21875,-0.84375 0,-0.46875 0.21875,-0.875 0.21875,-0.40625 0.625,-0.71875 0.40625,-0.3125 0.95313,-0.484375 0.5625,-0.1875 1.21875,-0.1875 0.71875,0 1.28125,0.1875 0.57812,0.1875 0.98437,0.515625 0.40625,0.328125 0.625,0.78125 0.21875,0.4375 0.21875,0.9375 h -1.32812 q 0,-0.25 -0.14063,-0.484375 -0.125,-0.25 -0.35937,-0.421875 -0.21875,-0.1875 -0.54688,-0.296875 -0.32812,-0.125 -0.73437,-0.125 -0.42188,0 -0.73438,0.09375 -0.3125,0.09375 -0.53125,0.25 -0.20312,0.15625 -0.3125,0.375 -0.10937,0.203125 -0.10937,0.421875 0,0.21875 0.0781,0.40625 0.0937,0.171875 0.29688,0.328125 0.21875,0.140625 0.5625,0.25 0.35937,0.109375 0.90625,0.21875 0.71875,0.15625 1.28125,0.359375 0.5625,0.1875 0.95312,0.46875 0.39063,0.265625 0.59375,0.640625 0.20313,0.359375 0.20313,0.84375 0,0.515625 -0.23438,0.9375 -0.23437,0.421875 -0.65625,0.71875 -0.40625,0.296875 -0.98437,0.46875 -0.57813,0.15625 -1.26563,0.15625 -0.79687,0 -1.40625,-0.203125 -0.60937,-0.21875 -1.04687,-0.5625 -0.42188,-0.34375 -0.65625,-0.796875 -0.21875,-0.46875 -0.21875,-0.96875 h 1.32812 q 0.0312,0.421875 0.21875,0.703125 0.1875,0.265625 0.46875,0.4375 0.28125,0.171875 0.625,0.25 0.34375,0.0625 0.6875,0.0625 0.82813,0 1.3125,-0.296875 0.5,-0.3125 0.5,-0.8125 z"
       id="path41"
       inkscape:connector-curvature="0"
       style="fill:#000000;fill-rule:nonzero" />
    <path
       d="M 20,179 H 96.97638"
       id="path43"
       inkscape:connector-curvature="0"
       style="fill:#000000;fill-opacity:0;fill-rule:evenodd" />
    <path
       d="M 20,179 H 96.97638"
       id="path45"
       inkscape:connector-curvature="0"
       style="fill-rule:evenodd;stroke:#ff0000;stroke-width:2;stroke-linecap:butt;stroke-linejoin:round;stroke-dasharray:8, 6" />
    <path
       d="m 274.99213,179 h 84"
       id="path47"
       inkscape:connector-curvature="0"
       style="fill:#000000;fill-opacity:0;fill-rule:evenodd" />
    <path
       d="m 274.99213,179 h 84"
       id="path49"
       inkscape:connector-curvature="0"
       style="fill-rule:evenodd;stroke:#ff0000;stroke-width:2;stroke-linecap:butt;stroke-linejoin:round;stroke-dasharray:8, 6" />
    <path
       d="m 96.97638,158.00787 h 178.01575 v 41.98425 H 96.97638 Z"
       id="path51"
       inkscape:connector-curvature="0"
       style="fill:#000000;fill-opacity:0;fill-rule:evenodd" />
    <path
       d="m 119.98218,178.96288 2.46875,-8.29688 h 1.40625 l -3.28125,10.42188 h -1.15625 L 116.13843,170.666 h 1.40625 z m 5.88893,-5.625 h 3.95313 v 6.60937 h 2.53125 v 1.14063 h -6.48438 v -1.14063 h 2.64063 v -5.45312 h -2.64063 z m 2.46875,-2.03125 q 0,-0.32813 0.1875,-0.54688 0.20313,-0.23437 0.59375,-0.23437 0.40625,0 0.59375,0.23437 0.20313,0.21875 0.20313,0.54688 0,0.32812 -0.20313,0.54687 -0.1875,0.20313 -0.59375,0.20313 -0.39062,0 -0.59375,-0.20313 -0.1875,-0.21875 -0.1875,-0.54687 z m 11.18581,1.89062 q 0.1875,0 0.39062,0.0156 0.20313,0.0156 0.375,0.0469 0.1875,0.0156 0.34375,0.0469 0.15625,0.0312 0.25,0.0781 l -0.17187,1.29688 q -0.39063,-0.0781 -0.73438,-0.10938 -0.34375,-0.0469 -0.71875,-0.0469 -0.9375,0 -1.51562,0.42187 -0.57813,0.42188 -0.84375,1.17188 v 4.96875 h -1.32813 v -7.75 h 1.25 l 0.0625,1.23437 q 0.48438,-0.64062 1.14063,-1 0.65625,-0.375 1.5,-0.375 z m 6.85768,-1.73437 v 1.875 h 2.95312 v 1.03125 h -2.95312 v 4.20312 q 0,0.45313 0.10937,0.75 0.125,0.29688 0.32813,0.46875 0.20312,0.17188 0.45312,0.25 0.26563,0.0625 0.5625,0.0625 0.21875,0 0.4375,-0.0156 0.23438,-0.0312 0.45313,-0.0625 0.21875,-0.0469 0.40625,-0.0781 0.1875,-0.0469 0.3125,-0.0625 l 0.1875,0.9375 q -0.17188,0.0937 -0.40625,0.17188 -0.23438,0.0781 -0.51563,0.125 -0.28125,0.0469 -0.59375,0.0781 -0.3125,0.0312 -0.60937,0.0312 -0.51563,0 -0.96875,-0.14062 -0.4375,-0.15625 -0.78125,-0.46875 -0.32813,-0.3125 -0.51563,-0.8125 -0.1875,-0.51563 -0.1875,-1.23438 v -4.20312 h -2.03125 v -1.03125 h 2.03125 v -1.875 z m 10.6858,8.5625 q -0.39062,0.5625 -0.96875,0.89062 -0.57812,0.3125 -1.32812,0.3125 -0.60938,0 -1.10938,-0.1875 -0.48437,-0.1875 -0.84375,-0.57812 -0.34375,-0.40625 -0.54687,-1.03125 -0.1875,-0.625 -0.1875,-1.48438 v -4.60937 h 1.32812 v 4.625 q 0,0.625 0.0937,1.04687 0.10938,0.40625 0.3125,0.65625 0.20313,0.25 0.48438,0.35938 0.29687,0.0937 0.67187,0.0937 0.8125,0 1.29688,-0.32813 0.5,-0.32812 0.75,-0.89062 v -5.5625 h 1.32812 v 7.75 h -1.20312 z m 8.85769,1.0625 q -0.0781,-0.15625 -0.125,-0.375 -0.0469,-0.21875 -0.0625,-0.46875 -0.20313,0.20312 -0.45313,0.39062 -0.23437,0.17188 -0.53125,0.3125 -0.29687,0.125 -0.64062,0.20313 -0.34375,0.0781 -0.71875,0.0781 -0.60938,0 -1.10938,-0.17187 -0.5,-0.1875 -0.84375,-0.48438 -0.34375,-0.3125 -0.54687,-0.71875 -0.1875,-0.42187 -0.1875,-0.90625 0,-0.64062 0.25,-1.125 0.26562,-0.48437 0.73437,-0.79687 0.46875,-0.3125 1.10938,-0.46875 0.65625,-0.15625 1.46875,-0.15625 h 1.45312 V 175.791 q 0,-0.35937 -0.14062,-0.64062 -0.125,-0.28125 -0.35938,-0.46875 -0.23437,-0.20313 -0.57812,-0.29688 -0.34375,-0.10937 -0.76563,-0.10937 -0.39062,0 -0.70312,0.0937 -0.3125,0.0937 -0.53125,0.26562 -0.20313,0.15625 -0.32813,0.39063 -0.10937,0.21875 -0.10937,0.46875 h -1.32813 q 0,-0.42188 0.20313,-0.82813 0.21875,-0.40625 0.60937,-0.73437 0.40625,-0.32813 0.96875,-0.53125 0.57813,-0.20313 1.29688,-0.20313 0.65625,0 1.21875,0.17188 0.5625,0.15625 0.96875,0.48437 0.42187,0.32813 0.65625,0.8125 0.23437,0.48438 0.23437,1.14063 v 3.59375 q 0,0.39062 0.0625,0.82812 0.0781,0.42188 0.21875,0.75 v 0.10938 z m -2.32813,-1.01563 q 0.375,0 0.70313,-0.0937 0.34375,-0.0937 0.625,-0.25 0.28125,-0.17187 0.46875,-0.375 0.20312,-0.21875 0.32812,-0.45312 v -1.5625 h -1.23437 q -1.15625,0 -1.8125,0.34375 -0.64063,0.34375 -0.64063,1.07812 0,0.28125 0.0937,0.53125 0.10938,0.23438 0.29688,0.42188 0.1875,0.17187 0.48437,0.26562 0.29688,0.0937 0.6875,0.0937 z m 6.24831,-9.98437 h 3.95312 v 9.85937 h 2.53125 v 1.14063 h -6.48437 v -1.14063 h 2.64062 v -8.70312 h -2.64062 z m 23.91848,11 h -1.25 v -4.8125 h -4.28125 v 4.8125 h -1.23437 V 170.666 h 1.23437 v 4.48438 h 4.28125 V 170.666 h 1.25 z m 7.34206,0 q -0.0781,-0.15625 -0.125,-0.375 -0.0469,-0.21875 -0.0625,-0.46875 -0.20312,0.20312 -0.45312,0.39062 -0.23438,0.17188 -0.53125,0.3125 -0.29688,0.125 -0.64063,0.20313 -0.34375,0.0781 -0.71875,0.0781 -0.60937,0 -1.10937,-0.17187 -0.5,-0.1875 -0.84375,-0.48438 -0.34375,-0.3125 -0.54688,-0.71875 -0.1875,-0.42187 -0.1875,-0.90625 0,-0.64062 0.25,-1.125 0.26563,-0.48437 0.73438,-0.79687 0.46875,-0.3125 1.10937,-0.46875 0.65625,-0.15625 1.46875,-0.15625 h 1.45313 V 175.791 q 0,-0.35937 -0.14063,-0.64062 -0.125,-0.28125 -0.35937,-0.46875 -0.23438,-0.20313 -0.57813,-0.29688 -0.34375,-0.10937 -0.76562,-0.10937 -0.39063,0 -0.70313,0.0937 -0.3125,0.0937 -0.53125,0.26562 -0.20312,0.15625 -0.32812,0.39063 -0.10938,0.21875 -0.10938,0.46875 h -1.32812 q 0,-0.42188 0.20312,-0.82813 0.21875,-0.40625 0.60938,-0.73437 0.40625,-0.32813 0.96875,-0.53125 0.57812,-0.20313 1.29687,-0.20313 0.65625,0 1.21875,0.17188 0.5625,0.15625 0.96875,0.48437 0.42188,0.32813 0.65625,0.8125 0.23438,0.48438 0.23438,1.14063 v 3.59375 q 0,0.39062 0.0625,0.82812 0.0781,0.42188 0.21875,0.75 v 0.10938 z m -2.32812,-1.01563 q 0.375,0 0.70312,-0.0937 0.34375,-0.0937 0.625,-0.25 0.28125,-0.17187 0.46875,-0.375 0.20313,-0.21875 0.32813,-0.45312 v -1.5625 h -1.23438 q -1.15625,0 -1.8125,0.34375 -0.64062,0.34375 -0.64062,1.07812 0,0.28125 0.0937,0.53125 0.10937,0.23438 0.29687,0.42188 0.1875,0.17187 0.48438,0.26562 0.29687,0.0937 0.6875,0.0937 z m 11.10768,-6.875 q 0.1875,0 0.39062,0.0156 0.20313,0.0156 0.375,0.0469 0.1875,0.0156 0.34375,0.0469 0.15625,0.0312 0.25,0.0781 l -0.17187,1.29688 q -0.39063,-0.0781 -0.73438,-0.10938 -0.34375,-0.0469 -0.71875,-0.0469 -0.9375,0 -1.51562,0.42187 -0.57813,0.42188 -0.84375,1.17188 v 4.96875 h -1.32813 v -7.75 h 1.25 l 0.0625,1.23437 q 0.48438,-0.64062 1.14063,-1 0.65625,-0.375 1.5,-0.375 z m 3.48268,3.95313 q 0,-0.85938 0.21875,-1.57813 0.21875,-0.73437 0.60937,-1.25 0.40625,-0.53125 0.98438,-0.82812 0.57812,-0.29688 1.28125,-0.29688 0.6875,0 1.20312,0.23438 0.53125,0.23437 0.90625,0.67187 v -4.01562 h 1.32813 v 11 h -1.21875 l -0.0625,-0.8125 q -0.375,0.46875 -0.92188,0.71875 -0.53125,0.23437 -1.25,0.23437 -0.70312,0 -1.28125,-0.29687 -0.5625,-0.29688 -0.96875,-0.82813 -0.39062,-0.53125 -0.60937,-1.25 -0.21875,-0.71875 -0.21875,-1.54687 z m 1.3125,0.15625 q 0,0.5625 0.125,1.07812 0.125,0.5 0.375,0.89063 0.25,0.375 0.64062,0.60937 0.40625,0.21875 0.95313,0.21875 0.34375,0 0.60937,-0.0781 0.26563,-0.0781 0.48438,-0.21875 0.23437,-0.15625 0.40625,-0.35938 0.17187,-0.20312 0.29687,-0.45312 v -3.59375 q -0.25,-0.46875 -0.6875,-0.76563 -0.4375,-0.3125 -1.09375,-0.3125 -0.5625,0 -0.96875,0.23438 -0.39062,0.21875 -0.64062,0.60937 -0.25,0.39063 -0.375,0.90625 -0.125,0.51563 -0.125,1.07813 z m 8.90455,0.96875 0.15625,1.10937 0.1875,-1.10937 1.23438,-4.9375 h 0.85937 l 1.23438,4.9375 0.20312,1.21875 0.1875,-1.21875 0.85938,-4.9375 h 1.17187 l -1.64062,7.75 h -1.04688 l -1.20312,-4.75 -0.20313,-1.20313 -0.1875,1.20313 -1.20312,4.75 h -1.04688 l -1.64062,-7.75 h 1.17187 z m 12.70144,2.8125 q -0.0781,-0.15625 -0.125,-0.375 -0.0469,-0.21875 -0.0625,-0.46875 -0.20313,0.20312 -0.45313,0.39062 -0.23437,0.17188 -0.53125,0.3125 -0.29687,0.125 -0.64062,0.20313 -0.34375,0.0781 -0.71875,0.0781 -0.60938,0 -1.10938,-0.17187 -0.5,-0.1875 -0.84375,-0.48438 -0.34375,-0.3125 -0.54687,-0.71875 -0.1875,-0.42187 -0.1875,-0.90625 0,-0.64062 0.25,-1.125 0.26562,-0.48437 0.73437,-0.79687 0.46875,-0.3125 1.10938,-0.46875 0.65625,-0.15625 1.46875,-0.15625 h 1.45312 V 175.791 q 0,-0.35937 -0.14062,-0.64062 -0.125,-0.28125 -0.35938,-0.46875 -0.23437,-0.20313 -0.57812,-0.29688 -0.34375,-0.10937 -0.76563,-0.10937 -0.39062,0 -0.70312,0.0937 -0.3125,0.0937 -0.53125,0.26562 -0.20313,0.15625 -0.32813,0.39063 -0.10937,0.21875 -0.10937,0.46875 h -1.32813 q 0,-0.42188 0.20313,-0.82813 0.21875,-0.40625 0.60937,-0.73437 0.40625,-0.32813 0.96875,-0.53125 0.57813,-0.20313 1.29688,-0.20313 0.65625,0 1.21875,0.17188 0.5625,0.15625 0.96875,0.48437 0.42187,0.32813 0.65625,0.8125 0.23437,0.48438 0.23437,1.14063 v 3.59375 q 0,0.39062 0.0625,0.82812 0.0781,0.42188 0.21875,0.75 v 0.10938 z m -2.32813,-1.01563 q 0.375,0 0.70313,-0.0937 0.34375,-0.0937 0.625,-0.25 0.28125,-0.17187 0.46875,-0.375 0.20312,-0.21875 0.32812,-0.45312 v -1.5625 h -1.23437 q -1.15625,0 -1.8125,0.34375 -0.64063,0.34375 -0.64063,1.07812 0,0.28125 0.0937,0.53125 0.10938,0.23438 0.29688,0.42188 0.1875,0.17187 0.48437,0.26562 0.29688,0.0937 0.6875,0.0937 z m 11.10768,-6.875 q 0.1875,0 0.39063,0.0156 0.20312,0.0156 0.375,0.0469 0.1875,0.0156 0.34375,0.0469 0.15625,0.0312 0.25,0.0781 l -0.17188,1.29688 q -0.39062,-0.0781 -0.73437,-0.10938 -0.34375,-0.0469 -0.71875,-0.0469 -0.9375,0 -1.51563,0.42187 -0.57812,0.42188 -0.84375,1.17188 v 4.96875 h -1.32812 v -7.75 h 1.25 l 0.0625,1.23437 q 0.48437,-0.64062 1.14062,-1 0.65625,-0.375 1.5,-0.375 z m 7.15456,8.03125 q -0.82813,0 -1.51563,-0.28125 -0.67187,-0.28125 -1.15625,-0.78125 -0.48437,-0.5 -0.76562,-1.1875 -0.26563,-0.6875 -0.26563,-1.48437 v -0.3125 q 0,-0.9375 0.29688,-1.67188 0.29687,-0.73437 0.79687,-1.25 0.5,-0.51562 1.125,-0.78125 0.64063,-0.28125 1.3125,-0.28125 0.82813,0 1.45313,0.29688 0.625,0.28125 1.03125,0.79687 0.42187,0.51563 0.625,1.21875 0.21875,0.6875 0.21875,1.48438 v 0.59375 h -5.53125 q 0.0156,0.53125 0.1875,1 0.1875,0.46875 0.5,0.8125 0.32812,0.34375 0.76562,0.54687 0.45313,0.20313 0.98438,0.20313 0.71875,0 1.26562,-0.28125 0.54688,-0.29688 0.90625,-0.76563 l 0.8125,0.625 q -0.1875,0.29688 -0.48437,0.57813 -0.28125,0.26562 -0.67188,0.46875 -0.375,0.20312 -0.85937,0.32812 -0.46875,0.125 -1.03125,0.125 z m -0.17188,-6.9375 q -0.40625,0 -0.76562,0.15625 -0.35938,0.14063 -0.64063,0.42188 -0.28125,0.28125 -0.48437,0.70312 -0.20313,0.40625 -0.28125,0.9375 h 4.17187 v -0.10937 q -0.0312,-0.375 -0.15625,-0.75 -0.125,-0.39063 -0.375,-0.6875 -0.23437,-0.29688 -0.60937,-0.48438 -0.35938,-0.1875 -0.85938,-0.1875 z"
       id="path53"
       inkscape:connector-curvature="0"
       style="fill:#000000;fill-rule:nonzero" />
    <path
       d="M 20.007874,267 H 131"
       id="path55"
       inkscape:connector-curvature="0"
       style="fill:#000000;fill-opacity:0;fill-rule:evenodd" />
    <path
       d="M 20.007874,267 H 131"
       id="path57"
       inkscape:connector-curvature="0"
       style="fill-rule:evenodd;stroke:#000000;stroke-width:1;stroke-linecap:butt;stroke-linejoin:round" />
    <path
       d="M 244.00787,267 H 355"
       id="path59"
       inkscape:connector-curvature="0"
       style="fill:#000000;fill-opacity:0;fill-rule:evenodd" />
    <path
       d="M 244.00787,267 H 355"
       id="path61"
       inkscape:connector-curvature="0"
       style="fill-rule:evenodd;stroke:#000000;stroke-width:1;stroke-linecap:butt;stroke-linejoin:round" />
    <path
       d="m 123,246.00787 h 126.99213 v 41.98425 H 123 Z"
       id="path63"
       inkscape:connector-curvature="0"
       style="fill:#000000;fill-opacity:0;fill-rule:evenodd" />
    <path
       d="m 140.4281,266.44724 q 0,-0.46875 -0.21875,-0.79687 -0.21875,-0.32813 -0.5625,-0.54688 -0.34375,-0.23437 -0.76563,-0.375 -0.40625,-0.15625 -0.78125,-0.28125 -0.54687,-0.1875 -1.125,-0.4375 -0.5625,-0.25 -1.03125,-0.60937 -0.46875,-0.35938 -0.76562,-0.85938 -0.29688,-0.5 -0.29688,-1.17187 0,-0.67188 0.29688,-1.20313 0.29687,-0.53125 0.76562,-0.89062 0.48438,-0.375 1.09375,-0.5625 0.60938,-0.1875 1.21875,-0.1875 0.6875,0 1.3125,0.23437 0.625,0.21875 1.10938,0.625 0.5,0.40625 0.78125,0.98438 0.29687,0.57812 0.3125,1.29687 h -1.35938 q -0.0469,-0.45312 -0.21875,-0.8125 -0.15625,-0.375 -0.4375,-0.64062 -0.26562,-0.26563 -0.64062,-0.40625 -0.375,-0.15625 -0.85938,-0.15625 -0.375,0 -0.73437,0.10937 -0.35938,0.10938 -0.64063,0.32813 -0.28125,0.21875 -0.45312,0.53125 -0.17188,0.3125 -0.17188,0.71875 0.0156,0.45312 0.23438,0.76562 0.21875,0.3125 0.5625,0.53125 0.34375,0.21875 0.73437,0.35938 0.39063,0.14062 0.75,0.25 0.39063,0.125 0.78125,0.28125 0.39063,0.14062 0.75,0.34375 0.375,0.20312 0.6875,0.45312 0.3125,0.25 0.54688,0.57813 0.23437,0.3125 0.35937,0.70312 0.14063,0.375 0.14063,0.84375 0,0.6875 -0.3125,1.21875 -0.3125,0.51563 -0.8125,0.875 -0.48438,0.34375 -1.10938,0.51563 -0.625,0.17187 -1.25,0.17187 -0.6875,0 -1.35937,-0.20312 -0.65625,-0.21875 -1.1875,-0.625 -0.51563,-0.40625 -0.85938,-0.98438 -0.32812,-0.59375 -0.34375,-1.32812 h 1.35938 q 0.0625,0.48437 0.25,0.85937 0.20312,0.375 0.51562,0.64063 0.32813,0.25 0.73438,0.39062 0.40625,0.125 0.89062,0.125 0.39063,0 0.76563,-0.0937 0.375,-0.0937 0.67187,-0.29687 0.29688,-0.20313 0.48438,-0.51563 0.1875,-0.3125 0.1875,-0.75 z m 6.18581,-0.10937 0.34375,0.9375 2.35937,-5.9375 h 1.48438 l -3.9375,8.9375 q -0.125,0.3125 -0.34375,0.64062 -0.20313,0.34375 -0.51563,0.625 -0.29687,0.28125 -0.70312,0.46875 -0.39063,0.20313 -0.90625,0.20313 -0.0937,0 -0.21875,-0.0156 -0.10938,0 -0.23438,-0.0312 -0.10937,-0.0156 -0.21875,-0.0312 -0.0937,-0.0156 -0.15625,-0.0312 l 0.21875,-1.07812 q 0.0469,0 0.125,0 0.0937,0.0156 0.1875,0.0156 0.0937,0 0.17188,0 0.0937,0.0156 0.14062,0.0156 0.28125,0 0.5,-0.15625 0.23438,-0.14063 0.40625,-0.35938 0.17188,-0.20312 0.29688,-0.42187 0.125,-0.21875 0.20312,-0.35938 l 0.53125,-1.03125 -3.34375,-7.39062 h 1.48438 z m 11.09205,0.70312 q 0,-0.25 -0.0937,-0.4375 -0.0937,-0.1875 -0.3125,-0.34375 -0.21875,-0.15625 -0.59375,-0.28125 -0.35937,-0.14062 -0.90625,-0.25 -0.65625,-0.14062 -1.20312,-0.32812 -0.54688,-0.1875 -0.9375,-0.45313 -0.39063,-0.28125 -0.60938,-0.64062 -0.21875,-0.35938 -0.21875,-0.84375 0,-0.46875 0.21875,-0.875 0.21875,-0.40625 0.625,-0.71875 0.40625,-0.3125 0.95313,-0.48438 0.5625,-0.1875 1.21875,-0.1875 0.71875,0 1.28125,0.1875 0.57812,0.1875 0.98437,0.51563 0.40625,0.32812 0.625,0.78125 0.21875,0.4375 0.21875,0.9375 h -1.32812 q 0,-0.25 -0.14063,-0.48438 -0.125,-0.25 -0.35937,-0.42187 -0.21875,-0.1875 -0.54688,-0.29688 -0.32812,-0.125 -0.73437,-0.125 -0.42188,0 -0.73438,0.0937 -0.3125,0.0937 -0.53125,0.25 -0.20312,0.15625 -0.3125,0.375 -0.10937,0.20313 -0.10937,0.42188 0,0.21875 0.0781,0.40625 0.0937,0.17187 0.29688,0.32812 0.21875,0.14063 0.5625,0.25 0.35937,0.10938 0.90625,0.21875 0.71875,0.15625 1.28125,0.35938 0.5625,0.1875 0.95312,0.46875 0.39063,0.26562 0.59375,0.64062 0.20313,0.35938 0.20313,0.84375 0,0.51563 -0.23438,0.9375 -0.23437,0.42188 -0.65625,0.71875 -0.40625,0.29688 -0.98437,0.46875 -0.57813,0.15625 -1.26563,0.15625 -0.79687,0 -1.40625,-0.20312 -0.60937,-0.21875 -1.04687,-0.5625 -0.42188,-0.34375 -0.65625,-0.79688 -0.21875,-0.46875 -0.21875,-0.96875 h 1.32812 q 0.0312,0.42188 0.21875,0.70313 0.1875,0.26562 0.46875,0.4375 0.28125,0.17187 0.625,0.25 0.34375,0.0625 0.6875,0.0625 0.82813,0 1.3125,-0.29688 0.5,-0.3125 0.5,-0.8125 z m 6.77956,-7.57812 v 1.875 h 2.95312 v 1.03125 h -2.95312 v 4.20312 q 0,0.45313 0.10937,0.75 0.125,0.29688 0.32813,0.46875 0.20312,0.17188 0.45312,0.25 0.26563,0.0625 0.5625,0.0625 0.21875,0 0.4375,-0.0156 0.23438,-0.0312 0.45313,-0.0625 0.21875,-0.0469 0.40625,-0.0781 0.1875,-0.0469 0.3125,-0.0625 l 0.1875,0.9375 q -0.17188,0.0937 -0.40625,0.17188 -0.23438,0.0781 -0.51563,0.125 -0.28125,0.0469 -0.59375,0.0781 -0.3125,0.0312 -0.60937,0.0312 -0.51563,0 -0.96875,-0.14062 -0.4375,-0.15625 -0.78125,-0.46875 -0.32813,-0.3125 -0.51563,-0.8125 -0.1875,-0.51563 -0.1875,-1.23438 v -4.20312 h -2.03125 v -1.03125 h 2.03125 v -1.875 z m 9.09205,9.76562 q -0.82812,0 -1.51562,-0.28125 -0.67188,-0.28125 -1.15625,-0.78125 -0.48438,-0.5 -0.76563,-1.1875 -0.26562,-0.6875 -0.26562,-1.48437 v -0.3125 q 0,-0.9375 0.29687,-1.67188 0.29688,-0.73437 0.79688,-1.25 0.5,-0.51562 1.125,-0.78125 0.64062,-0.28125 1.3125,-0.28125 0.82812,0 1.45312,0.29688 0.625,0.28125 1.03125,0.79687 0.42188,0.51563 0.625,1.21875 0.21875,0.6875 0.21875,1.48438 v 0.59375 h -5.53125 q 0.0156,0.53125 0.1875,1 0.1875,0.46875 0.5,0.8125 0.32813,0.34375 0.76563,0.54687 0.45312,0.20313 0.98437,0.20313 0.71875,0 1.26563,-0.28125 0.54687,-0.29688 0.90625,-0.76563 l 0.8125,0.625 q -0.1875,0.29688 -0.48438,0.57813 -0.28125,0.26562 -0.67187,0.46875 -0.375,0.20312 -0.85938,0.32812 -0.46875,0.125 -1.03125,0.125 z m -0.17187,-6.9375 q -0.40625,0 -0.76563,0.15625 -0.35937,0.14063 -0.64062,0.42188 -0.28125,0.28125 -0.48438,0.70312 -0.20312,0.40625 -0.28125,0.9375 h 4.17188 v -0.10937 q -0.0312,-0.375 -0.15625,-0.75 -0.125,-0.39063 -0.375,-0.6875 -0.23438,-0.29688 -0.60938,-0.48438 -0.35937,-0.1875 -0.85937,-0.1875 z m 6.15456,-0.95312 0.0312,0.73437 q 0.23437,-0.40625 0.60937,-0.625 0.39063,-0.23437 0.9375,-0.25 1.0625,0 1.42188,0.82813 0.23437,-0.35938 0.60937,-0.57813 0.375,-0.23437 0.90625,-0.25 0.85938,0 1.3125,0.53125 0.45313,0.51563 0.45313,1.57813 v 5.78125 h -1.25 v -5.79688 q 0,-0.96875 -0.90625,-0.96875 -0.23438,0 -0.40625,0.0625 -0.17188,0.0625 -0.28125,0.1875 -0.10938,0.10938 -0.1875,0.25 -0.0625,0.14063 -0.0781,0.29688 v 5.96875 h -1.26562 v -5.79688 q 0,-0.46875 -0.20313,-0.71875 -0.20312,-0.25 -0.65625,-0.25 -0.42187,0 -0.65625,0.17188 -0.21875,0.15625 -0.32812,0.4375 v 6.15625 h -1.25 v -7.75 z m 20.27786,6.8125 q 0.35937,0 0.6875,-0.10938 0.34375,-0.10937 0.60937,-0.3125 0.26563,-0.20312 0.42188,-0.48437 0.17187,-0.28125 0.17187,-0.59375 h 1.25 q 0,0.51562 -0.26562,0.98437 -0.26563,0.46875 -0.70313,0.82813 -0.42187,0.34375 -1,0.5625 -0.5625,0.20312 -1.17187,0.20312 -0.875,0 -1.54688,-0.3125 -0.65625,-0.3125 -1.09375,-0.84375 -0.4375,-0.53125 -0.67187,-1.23437 -0.21875,-0.70313 -0.21875,-1.46875 v -0.29688 q 0,-0.76562 0.21875,-1.46875 0.23437,-0.70312 0.67187,-1.23437 0.4375,-0.53125 1.09375,-0.84375 0.67188,-0.32813 1.54688,-0.32813 0.6875,0 1.26562,0.21875 0.57813,0.21875 0.98438,0.59375 0.42187,0.375 0.65625,0.89063 0.23437,0.51562 0.23437,1.10937 h -1.25 q 0,-0.35937 -0.15625,-0.65625 -0.14062,-0.3125 -0.39062,-0.54687 -0.25,-0.25 -0.60938,-0.375 -0.34375,-0.14063 -0.73437,-0.14063 -0.625,0 -1.04688,0.25 -0.40625,0.23438 -0.67187,0.64063 -0.25,0.39062 -0.35938,0.89062 -0.10937,0.5 -0.10937,1 v 0.29688 q 0,0.5 0.10937,1 0.10938,0.5 0.35938,0.90625 0.25,0.39062 0.67187,0.64062 0.42188,0.23438 1.04688,0.23438 z m 10.57643,0.9375 q -0.0781,-0.15625 -0.125,-0.375 -0.0469,-0.21875 -0.0625,-0.46875 -0.20313,0.20312 -0.45313,0.39062 -0.23437,0.17188 -0.53125,0.3125 -0.29687,0.125 -0.64062,0.20313 -0.34375,0.0781 -0.71875,0.0781 -0.60938,0 -1.10938,-0.17187 -0.5,-0.1875 -0.84375,-0.48438 -0.34375,-0.3125 -0.54687,-0.71875 -0.1875,-0.42187 -0.1875,-0.90625 0,-0.64062 0.25,-1.125 0.26562,-0.48437 0.73437,-0.79687 0.46875,-0.3125 1.10938,-0.46875 0.65625,-0.15625 1.46875,-0.15625 h 1.45312 v -0.60938 q 0,-0.35937 -0.14062,-0.64062 -0.125,-0.28125 -0.35938,-0.46875 -0.23437,-0.20313 -0.57812,-0.29688 -0.34375,-0.10937 -0.76563,-0.10937 -0.39062,0 -0.70312,0.0937 -0.3125,0.0937 -0.53125,0.26562 -0.20313,0.15625 -0.32813,0.39063 -0.10937,0.21875 -0.10937,0.46875 h -1.32813 q 0,-0.42188 0.20313,-0.82813 0.21875,-0.40625 0.60937,-0.73437 0.40625,-0.32813 0.96875,-0.53125 0.57813,-0.20313 1.29688,-0.20313 0.65625,0 1.21875,0.17188 0.5625,0.15625 0.96875,0.48437 0.42187,0.32813 0.65625,0.8125 0.23437,0.48438 0.23437,1.14063 v 3.59375 q 0,0.39062 0.0625,0.82812 0.0781,0.42188 0.21875,0.75 v 0.10938 z m -2.32813,-1.01563 q 0.375,0 0.70313,-0.0937 0.34375,-0.0937 0.625,-0.25 0.28125,-0.17187 0.46875,-0.375 0.20312,-0.21875 0.32812,-0.45312 v -1.5625 h -1.23437 q -1.15625,0 -1.8125,0.34375 -0.64063,0.34375 -0.64063,1.07812 0,0.28125 0.0937,0.53125 0.10938,0.23438 0.29688,0.42188 0.1875,0.17187 0.48437,0.26562 0.29688,0.0937 0.6875,0.0937 z m 6.24831,-9.98437 h 3.95313 v 9.85937 h 2.53125 v 1.14063 h -6.48438 v -1.14063 h 2.64063 v -8.70312 h -2.64063 z m 8.79518,0 h 3.95313 v 9.85937 h 2.53125 v 1.14063 h -6.48438 v -1.14063 h 2.64063 v -8.70312 h -2.64063 z m 13.73268,8.95312 q 0,-0.25 -0.0937,-0.4375 -0.0937,-0.1875 -0.3125,-0.34375 -0.21875,-0.15625 -0.59375,-0.28125 -0.35937,-0.14062 -0.90625,-0.25 -0.65625,-0.14062 -1.20312,-0.32812 -0.54688,-0.1875 -0.9375,-0.45313 -0.39063,-0.28125 -0.60938,-0.64062 -0.21875,-0.35938 -0.21875,-0.84375 0,-0.46875 0.21875,-0.875 0.21875,-0.40625 0.625,-0.71875 0.40625,-0.3125 0.95313,-0.48438 0.5625,-0.1875 1.21875,-0.1875 0.71875,0 1.28125,0.1875 0.57812,0.1875 0.98437,0.51563 0.40625,0.32812 0.625,0.78125 0.21875,0.4375 0.21875,0.9375 h -1.32812 q 0,-0.25 -0.14063,-0.48438 -0.125,-0.25 -0.35937,-0.42187 -0.21875,-0.1875 -0.54688,-0.29688 -0.32812,-0.125 -0.73437,-0.125 -0.42188,0 -0.73438,0.0937 -0.3125,0.0937 -0.53125,0.25 -0.20312,0.15625 -0.3125,0.375 -0.10937,0.20313 -0.10937,0.42188 0,0.21875 0.0781,0.40625 0.0937,0.17187 0.29688,0.32812 0.21875,0.14063 0.5625,0.25 0.35937,0.10938 0.90625,0.21875 0.71875,0.15625 1.28125,0.35938 0.5625,0.1875 0.95312,0.46875 0.39063,0.26562 0.59375,0.64062 0.20313,0.35938 0.20313,0.84375 0,0.51563 -0.23438,0.9375 -0.23437,0.42188 -0.65625,0.71875 -0.40625,0.29688 -0.98437,0.46875 -0.57813,0.15625 -1.26563,0.15625 -0.79687,0 -1.40625,-0.20312 -0.60937,-0.21875 -1.04687,-0.5625 -0.42188,-0.34375 -0.65625,-0.79688 -0.21875,-0.46875 -0.21875,-0.96875 h 1.32812 q 0.0312,0.42188 0.21875,0.70313 0.1875,0.26562 0.46875,0.4375 0.28125,0.17187 0.625,0.25 0.34375,0.0625 0.6875,0.0625 0.82813,0 1.3125,-0.29688 0.5,-0.3125 0.5,-0.8125 z"
       id="path65"
       inkscape:connector-curvature="0"
       style="fill:#000000;fill-rule:nonzero" />
    <path
       d="M 20.007874,355 H 143"
       id="path67"
       inkscape:connector-curvature="0"
       style="fill:#000000;fill-opacity:0;fill-rule:evenodd" />
    <path
       d="M 20.007874,355 H 143"
       id="path69"
       inkscape:connector-curvature="0"
       style="fill-rule:evenodd;stroke:#000000;stroke-width:1;stroke-linecap:butt;stroke-linejoin:round" />
    <path
       d="M 229.00787,355 H 354.99212"
       id="path71"
       inkscape:connector-curvature="0"
       style="fill:#000000;fill-opacity:0;fill-rule:evenodd" />
    <path
       d="M 229.00787,355 H 354.99212"
       id="path73"
       inkscape:connector-curvature="0"
       style="fill-rule:evenodd;stroke:#000000;stroke-width:1;stroke-linecap:butt;stroke-linejoin:round" />
    <path
       d="m 123,334.00787 h 126.99213 v 41.98425 H 123 Z"
       id="path75"
       inkscape:connector-curvature="0"
       style="fill:#000000;fill-opacity:0;fill-rule:evenodd" />
    <path
       d="m 156.58981,358.3679 h -1.375 v -5.26562 h -4.65625 v 5.26562 h -1.35938 v -11.375 h 1.35938 v 4.89063 h 4.65625 v -4.89063 h 1.375 z m 8.02344,0 q -0.0937,-0.17187 -0.14063,-0.40625 -0.0469,-0.25 -0.0781,-0.51562 -0.21875,0.21875 -0.48438,0.42187 -0.26562,0.1875 -0.59375,0.34375 -0.32812,0.14063 -0.70312,0.21875 -0.35938,0.0937 -0.76563,0.0937 -0.67187,0 -1.21875,-0.1875 -0.54687,-0.20312 -0.92187,-0.53125 -0.375,-0.34375 -0.59375,-0.79687 -0.20313,-0.45313 -0.20313,-0.98438 0,-0.70312 0.28125,-1.21875 0.28125,-0.53125 0.78125,-0.875 0.51563,-0.34375 1.21875,-0.51562 0.71875,-0.17188 1.60938,-0.17188 h 1.57812 v -0.67187 q 0,-0.375 -0.14062,-0.67188 -0.14063,-0.3125 -0.40625,-0.53125 -0.25,-0.21875 -0.625,-0.32812 -0.375,-0.125 -0.82813,-0.125 -0.4375,0 -0.78125,0.10937 -0.32812,0.10938 -0.5625,0.29688 -0.23437,0.17187 -0.375,0.42187 -0.125,0.25 -0.125,0.51563 H 159.082 q 0.0156,-0.46875 0.23437,-0.90625 0.23438,-0.45313 0.67188,-0.79688 0.4375,-0.35937 1.04687,-0.57812 0.625,-0.21875 1.42188,-0.21875 0.71875,0 1.32812,0.17187 0.625,0.17188 1.0625,0.53125 0.45313,0.35938 0.70313,0.89063 0.26562,0.53125 0.26562,1.23437 v 3.9375 q 0,0.42188 0.0781,0.89063 0.0781,0.46875 0.21875,0.82812 v 0.125 z m -2.5625,-1.10937 q 0.42187,0 0.78125,-0.10938 0.375,-0.10937 0.67187,-0.28125 0.3125,-0.1875 0.53125,-0.40625 0.21875,-0.23437 0.34375,-0.48437 v -1.71875 h -1.34375 q -1.26562,0 -1.96875,0.375 -0.70312,0.375 -0.70312,1.1875 0,0.3125 0.0937,0.57812 0.10937,0.26563 0.3125,0.45313 0.21875,0.1875 0.53125,0.29687 0.32812,0.10938 0.75,0.10938 z m 12.14843,-7.5 q 0.20313,0 0.42188,0.0156 0.21875,0 0.40625,0.0312 0.20312,0.0312 0.375,0.0781 0.17187,0.0312 0.28125,0.0781 l -0.20313,1.40625 q -0.42187,-0.0937 -0.79687,-0.125 -0.375,-0.0469 -0.79688,-0.0469 -1.01562,0 -1.64062,0.46875 -0.625,0.45312 -0.92188,1.28125 v 5.42187 h -1.45312 v -8.45312 h 1.375 l 0.0625,1.34375 q 0.51562,-0.70313 1.23437,-1.09375 0.73438,-0.40625 1.65625,-0.40625 z m 3.78907,4.3125 q 0,-0.95313 0.23437,-1.73438 0.23438,-0.79687 0.67188,-1.35937 0.45312,-0.57813 1.07812,-0.89063 0.625,-0.32812 1.39063,-0.32812 0.76562,0 1.32812,0.25 0.5625,0.25 0.98438,0.73437 v -4.375 h 1.4375 v 12 h -1.32813 l -0.0625,-0.89062 q -0.42187,0.51562 -1.01562,0.78125 -0.57813,0.26562 -1.35938,0.26562 -0.76562,0 -1.39062,-0.32812 -0.60938,-0.32813 -1.04688,-0.90625 -0.4375,-0.57813 -0.6875,-1.35938 -0.23437,-0.79687 -0.23437,-1.70312 z m 1.4375,0.15625 q 0,0.625 0.125,1.1875 0.14062,0.54687 0.42187,0.96875 0.28125,0.42187 0.70313,0.67187 0.4375,0.23438 1.03125,0.23438 0.375,0 0.67187,-0.0781 0.29688,-0.0937 0.53125,-0.25 0.25,-0.15625 0.4375,-0.375 0.1875,-0.23437 0.32813,-0.5 v -3.92187 q -0.28125,-0.51563 -0.76563,-0.84375 -0.46875,-0.34375 -1.1875,-0.34375 -0.60937,0 -1.04687,0.25 -0.42188,0.25 -0.70313,0.6875 -0.28125,0.42187 -0.42187,0.98437 -0.125,0.54688 -0.125,1.17188 z m 9.71093,1.07812 0.17188,1.20313 0.21875,-1.20313 1.34375,-5.39062 h 0.9375 l 1.34375,5.39062 0.21875,1.32813 0.21875,-1.32813 0.9375,-5.39062 h 1.28125 l -1.79688,8.45312 h -1.14062 l -1.32813,-5.1875 -0.21875,-1.3125 -0.20312,1.3125 -1.3125,5.1875 h -1.14063 l -1.79687,-8.45312 h 1.28125 z m 13.88282,3.0625 q -0.0937,-0.17187 -0.14063,-0.40625 -0.0469,-0.25 -0.0781,-0.51562 -0.21875,0.21875 -0.48438,0.42187 -0.26562,0.1875 -0.59375,0.34375 -0.32812,0.14063 -0.70312,0.21875 -0.35938,0.0937 -0.76563,0.0937 -0.67187,0 -1.21875,-0.1875 -0.54687,-0.20312 -0.92187,-0.53125 -0.375,-0.34375 -0.59375,-0.79687 -0.20313,-0.45313 -0.20313,-0.98438 0,-0.70312 0.28125,-1.21875 0.28125,-0.53125 0.78125,-0.875 0.51563,-0.34375 1.21875,-0.51562 0.71875,-0.17188 1.60938,-0.17188 h 1.57812 v -0.67187 q 0,-0.375 -0.14062,-0.67188 -0.14063,-0.3125 -0.40625,-0.53125 -0.25,-0.21875 -0.625,-0.32812 -0.375,-0.125 -0.82813,-0.125 -0.4375,0 -0.78125,0.10937 -0.32812,0.10938 -0.5625,0.29688 -0.23437,0.17187 -0.375,0.42187 -0.125,0.25 -0.125,0.51563 h -1.45312 q 0.0156,-0.46875 0.23437,-0.90625 0.23438,-0.45313 0.67188,-0.79688 0.4375,-0.35937 1.04687,-0.57812 0.625,-0.21875 1.42188,-0.21875 0.71875,0 1.32812,0.17187 0.625,0.17188 1.0625,0.53125 0.45313,0.35938 0.70313,0.89063 0.26562,0.53125 0.26562,1.23437 v 3.9375 q 0,0.42188 0.0781,0.89063 0.0781,0.46875 0.21875,0.82812 v 0.125 z m -2.5625,-1.10937 q 0.42187,0 0.78125,-0.10938 0.375,-0.10937 0.67187,-0.28125 0.3125,-0.1875 0.53125,-0.40625 0.21875,-0.23437 0.34375,-0.48437 v -1.71875 h -1.34375 q -1.26562,0 -1.96875,0.375 -0.70312,0.375 -0.70312,1.1875 0,0.3125 0.0937,0.57812 0.10937,0.26563 0.3125,0.45313 0.21875,0.1875 0.53125,0.29687 0.32812,0.10938 0.75,0.10938 z m 12.14843,-7.5 q 0.20313,0 0.42188,0.0156 0.21875,0 0.40625,0.0312 0.20312,0.0312 0.375,0.0781 0.17187,0.0312 0.28125,0.0781 l -0.20313,1.40625 q -0.42187,-0.0937 -0.79687,-0.125 -0.375,-0.0469 -0.79688,-0.0469 -1.01562,0 -1.64062,0.46875 -0.625,0.45312 -0.92188,1.28125 v 5.42187 h -1.45312 v -8.45312 h 1.375 l 0.0625,1.34375 q 0.51562,-0.70313 1.23437,-1.09375 0.73438,-0.40625 1.65625,-0.40625 z m 7.78907,8.76562 q -0.89063,0 -1.64063,-0.29687 -0.73437,-0.3125 -1.26562,-0.85938 -0.53125,-0.54687 -0.82813,-1.29687 -0.29687,-0.75 -0.29687,-1.64063 v -0.32812 q 0,-1.01563 0.32812,-1.82813 0.32813,-0.8125 0.85938,-1.35937 0.54687,-0.5625 1.23437,-0.85938 0.70313,-0.29687 1.42188,-0.29687 0.92187,0 1.59375,0.3125 0.6875,0.3125 1.14062,0.875 0.45313,0.5625 0.67188,1.32812 0.23437,0.75 0.23437,1.625 v 0.65625 h -6.04687 q 0.0312,0.57813 0.21875,1.09375 0.20312,0.5 0.54687,0.875 0.35938,0.375 0.84375,0.59375 0.48438,0.21875 1.0625,0.21875 0.78125,0 1.375,-0.3125 0.60938,-0.3125 1,-0.82812 l 0.89063,0.6875 q -0.21875,0.32812 -0.53125,0.625 -0.3125,0.28125 -0.73438,0.51562 -0.40625,0.21875 -0.9375,0.35938 -0.51562,0.14062 -1.14062,0.14062 z m -0.1875,-7.57812 q -0.4375,0 -0.82813,0.15625 -0.39062,0.15625 -0.70312,0.46875 -0.3125,0.3125 -0.53125,0.76562 -0.20313,0.4375 -0.29688,1.03125 h 4.54688 v -0.10937 q -0.0156,-0.42188 -0.15625,-0.82813 -0.14063,-0.42187 -0.40625,-0.75 -0.26563,-0.32812 -0.67188,-0.53125 -0.39062,-0.20312 -0.95312,-0.20312 z"
       id="path77"
       inkscape:connector-curvature="0"
       style="fill:#000000;fill-rule:nonzero" />
    <path
       d="m 275.00787,204.09186 c 7.86313,5.37808 33.17853,27.79365 47.17871,32.26849 14.00018,4.47486 30.68533,-4.51615 36.82239,-5.41938"
       id="path79"
       inkscape:connector-curvature="0"
       style="fill:#000000;fill-opacity:0;fill-rule:evenodd" />
    <path
       d="m 280.48364,208.21442 0.59827,0.46896 c 0.83728,0.65859 1.72165,1.35813 2.64611,2.09005 3.69782,2.92765 8.03693,6.37364 12.56781,9.79139 9.06177,6.83551 18.89063,13.55811 25.89075,15.79555 14.00018,4.47484 30.68533,-4.51619 36.82239,-5.4194"
       id="path81"
       inkscape:connector-curvature="0"
       style="fill-rule:evenodd;stroke:#000000;stroke-width:2;stroke-linecap:butt;stroke-linejoin:round" />
    <path
       d="m 280.48367,208.21442 3.14963,-0.44406 -6.28961,-1.91992 3.58401,5.51364 z"
       id="path83"
       inkscape:connector-curvature="0"
       style="fill:#000000;fill-rule:evenodd;stroke:#000000;stroke-width:2;stroke-linecap:butt" />
    <defs
       id="defs90">
      <linearGradient
         id="p.1"
         gradientUnits="userSpaceOnUse"
         gradientTransform="scale(5.7891087)"
         spreadMethod="pad"
         x1="46.299267"
         y1="38.954838"
         x2="46.299332"
         y2="33.165726">
        <stop
           offset="0.0"
           stop-color="#ff0000"
           stop-opacity="0.0"
           id="stop85" />
        <stop
           offset="1.0"
           stop-color="#ff0000"
           id="stop87" />
      </linearGradient>
    </defs>
    <path
       d="M 90.01575,192 H 268.0315 v 33.51181 H 90.01575 Z"
       id="path92"
       inkscape:connector-curvature="0"
       style="fill:url(#p.1);fill-rule:evenodd" />
    <path
       d="m 340.79,208.9998 89.85828,-56.31496 22.29919,35.59055 -89.85824,56.31497 z"
       id="path94"
       inkscape:connector-curvature="0"
       style="fill:#000000;fill-opacity:0;fill-rule:evenodd" />
    <path
       d="m 366.01965,218.54378 q -0.28207,-0.45018 -0.67148,-0.63026 -0.3894,-0.18007 -0.8316,-0.17954 -0.45047,-0.0127 -0.91739,0.0955 -0.47522,0.095 -0.89411,0.19154 -0.6159,0.16472 -1.28652,0.27151 -0.66568,0.0853 -1.31,0.0281 -0.65262,-0.0704 -1.22101,-0.35962 -0.55515,-0.29748 -0.94507,-0.9198 -0.38989,-0.62231 -0.43207,-1.27817 -0.0289,-0.66415 0.20063,-1.26899 0.23443,-0.62638 0.68267,-1.14699 0.46146,-0.52893 1.03077,-0.88573 0.63552,-0.39827 1.3508,-0.55151 0.707,-0.16648 1.39773,-0.0646 0.68243,0.0886 1.28735,0.46555 0.6099,0.35538 1.03794,1.00912 l -1.25778,0.78826 q -0.31015,-0.37728 -0.68473,-0.62197 -0.36133,-0.25297 -0.7622,-0.33366 -0.40918,-0.0939 -0.84961,-0.002 -0.42722,0.0833 -0.86411,0.35713 -0.34424,0.21575 -0.6221,0.5374 -0.27292,0.30013 -0.4133,0.66469 -0.12711,0.35626 -0.10348,0.74713 0.0236,0.39087 0.26422,0.77484 0.27041,0.40218 0.65152,0.569 0.39434,0.15854 0.8233,0.16631 0.4422,-5.2e-4 0.89587,-0.10045 0.45368,-0.0999 0.8295,-0.20638 0.43216,-0.10487 0.88089,-0.18325 0.45368,-0.0999 0.90079,-0.12198 0.46039,-0.0304 0.901,0.0254 0.43231,0.0425 0.83493,0.21432 0.40759,0.15024 0.75076,0.43306 0.34809,0.26129 0.62186,0.69823 0.40649,0.6488 0.42218,1.32126 0.007,0.65921 -0.25693,1.26739 -0.25103,0.5999 -0.72574,1.13712 -0.46975,0.51569 -1.03906,0.87247 -0.64877,0.40658 -1.39548,0.59794 -0.73345,0.18308 -1.45562,0.11936 -0.71723,-0.0853 -1.35358,-0.42408 -0.64465,-0.35202 -1.10251,-1.02394 l 1.25778,-0.78827 q 0.33503,0.417 0.73606,0.6451 0.40106,0.22809 0.84997,0.29712 0.44059,0.0558 0.8992,-0.0657 0.45862,-0.12146 0.90879,-0.40358 0.35748,-0.22403 0.65194,-0.51922 0.28617,-0.30841 0.43482,-0.65972 0.15359,-0.37287 0.15149,-0.75879 -0.0104,-0.39917 -0.25928,-0.79639 z m 1.94257,-10.2161 1.08679,1.73453 2.72738,-1.70927 0.58902,0.94009 -2.72741,1.70928 2.43902,3.89279 q 0.26548,0.42369 0.5456,0.63537 0.27185,0.19843 0.55676,0.24115 0.28491,0.0427 0.5647,-0.0404 0.29303,-0.0914 0.55783,-0.2574 0.19861,-0.12446 0.40213,-0.27046 0.19525,-0.15924 0.37726,-0.31018 0.18695,-0.17248 0.33419,-0.32008 0.14722,-0.14759 0.24979,-0.24875 l 0.71963,0.76602 q -0.10079,0.19226 -0.28439,0.39952 -0.17035,0.19896 -0.40198,0.41788 -0.21835,0.21061 -0.49304,0.41965 -0.26144,0.20072 -0.55273,0.38327 -0.47663,0.2987 -0.97,0.42352 -0.50171,0.11157 -0.98874,0.0111 -0.48703,-0.10045 -0.96274,-0.44772 -0.47076,-0.36879 -0.88556,-1.03084 l -2.43903,-3.89278 -1.88003,1.17826 -0.58902,-0.9401 1.88003,-1.17825 -1.08676,-1.73453 z m 10.94027,-4.62515 q 0.17212,-0.10786 0.36579,-0.21078 0.18536,-0.11617 0.36081,-0.18926 0.18872,-0.0814 0.35925,-0.13293 0.16223,-0.0648 0.27978,-0.0831 l 0.57453,1.29953 q -0.40726,0.1446 -0.74161,0.31725 -0.34262,0.15942 -0.7001,0.38345 -0.8606,0.53934 -1.1413,1.26846 -0.289,0.71589 -0.10089,1.57529 l 2.87872,4.59455 -1.23132,0.77166 -4.4881,-7.16325 1.1651,-0.73018 0.76639,1.10551 q 0.0636,-0.86964 0.46524,-1.58235 0.40659,-0.73423 1.18771,-1.2238 z m 5.3729,1.70375 q -0.48117,-0.76796 -0.6709,-1.57106 -0.198,-0.81633 -0.0813,-1.57176 0.11673,-0.75543 0.5383,-1.40687 0.43481,-0.65975 1.18948,-1.1327 0.75467,-0.47296 1.53794,-0.57658 0.78323,-0.10364 1.50061,0.12904 0.73062,0.2244 1.37881,0.75863 0.63986,0.52098 1.12103,1.28894 l 0.0913,0.14564 q 0.48947,0.78121 0.6792,1.58431 0.18973,0.80308 0.073,1.55851 -0.10349,0.74713 -0.5383,1.40688 -0.42157,0.65144 -1.17624,1.12439 -0.76791,0.48126 -1.55115,0.58488 -0.77002,0.0953 -1.50064,-0.12906 -0.73062,-0.22438 -1.37051,-0.74536 -0.63986,-0.52098 -1.12934,-1.30218 z m 1.32257,-0.62602 q 0.33182,0.52963 0.75793,0.94486 0.43106,0.39369 0.91489,0.60678 0.47555,0.19986 0.99225,0.17108 0.51669,-0.0288 1.03305,-0.35239 0.50311,-0.31529 0.74109,-0.75947 0.25122,-0.45249 0.27878,-0.96764 0.0325,-0.5367 -0.14701,-1.08804 -0.17453,-0.57288 -0.50638,-1.10251 l -0.0912,-0.14565 q -0.32355,-0.51639 -0.75461,-0.91008 -0.43936,-0.40693 -0.91489,-0.60678 -0.48385,-0.21309 -1.00055,-0.18431 -0.51669,0.0288 -1.0198,0.34407 -0.51633,0.32361 -0.76755,0.77609 -0.23798,0.44419 -0.25726,0.97257 -0.0276,0.51515 0.147,1.08804 0.17947,0.55135 0.50302,1.06774 z m 6.05798,-8.88602 0.75635,1.00118 q 0.0355,-0.79674 0.40573,-1.47131 0.37021,-0.67457 1.07193,-1.11434 0.56931,-0.3568 1.11902,-0.48001 0.56293,-0.13153 1.0964,0.0136 0.53839,0.12358 1.03403,0.5321 0.50891,0.40022 0.95691,1.11522 l 2.85379,4.55482 -1.23129,0.77167 -2.83722,-4.52833 q -0.29865,-0.47667 -0.61197,-0.74132 -0.31332,-0.26463 -0.6496,-0.33049 -0.33133,-0.0874 -0.69391,0.0108 -0.36261,0.0982 -0.74655,0.33879 -0.62228,0.38997 -0.88656,0.99817 -0.27259,0.59494 -0.23539,1.27234 l 3.21885,5.13742 -1.2313,0.77167 -4.48813,-7.16326 z m 9.01862,-0.74702 q -0.50608,-0.80768 -0.72226,-1.59418 -0.22449,-0.79974 -0.15244,-1.50874 0.0637,-0.72225 0.42743,-1.31896 0.35538,-0.60995 1.01737,-1.02482 0.66198,-0.41487 1.31442,-0.49185 0.64416,-0.0902 1.27045,0.14424 l -0.42325,-0.8227 1.11212,-0.69699 4.38858,7.00437 q 0.44797,0.71499 0.56305,1.39892 0.12335,0.69718 -0.0333,1.33008 -0.15661,0.63291 -0.58825,1.18001 -0.43161,0.5471 -1.10684,0.97028 -0.27805,0.17425 -0.67701,0.33207 -0.39065,0.17107 -0.85263,0.25775 -0.46197,0.0867 -0.95553,0.0641 -0.48032,-0.0309 -0.94757,-0.2175 l 0.17093,-1.13977 q 0.39929,0.137 0.75375,0.17302 0.35446,0.036 0.65915,-0.007 0.32623,-0.0385 0.59772,-0.13488 0.28475,-0.10469 0.53631,-0.26234 0.43689,-0.27382 0.69818,-0.62197 0.28281,-0.3432 0.3635,-0.74412 0.10223,-0.396 0.0107,-0.83647 -0.0916,-0.44048 -0.38196,-0.9039 l -0.38992,-0.62232 q -0.10028,0.63451 -0.44913,1.1666 -0.3439,0.51057 -0.99265,0.91714 -0.64874,0.40657 -1.35257,0.46042 -0.70379,0.0539 -1.38146,-0.20373 -0.67768,-0.25757 -1.29105,-0.79515 -0.62171,-0.55082 -1.10288,-1.31878 z m 1.31424,-0.63925 q 0.33185,0.52961 0.73642,0.93991 0.39627,0.39705 0.85858,0.60519 0.46231,0.20815 0.95251,0.19597 0.49518,-0.0337 0.99829,-0.34903 0.31775,-0.19914 0.52784,-0.42299 0.21499,-0.2454 0.33065,-0.50227 0.10733,-0.27011 0.15006,-0.55505 0.0344,-0.29818 0.004,-0.6112 l -2.0574,-3.2837 q -0.2602,-0.15041 -0.53522,-0.23621 -0.27502,-0.0858 -0.56979,-0.0855 -0.28156,-0.008 -0.58292,0.0703 -0.30133,0.0782 -0.60583,0.26906 -0.51636,0.32361 -0.75434,0.76778 -0.22473,0.4359 -0.23077,0.95599 -0.0143,0.50685 0.17843,1.0499 0.18442,0.5298 0.51627,1.05943 z"
       id="path96"
       inkscape:connector-curvature="0"
       style="fill:#000000;fill-rule:nonzero" />
    <path
       d="m 368.30014,232.95447 3.65417,-2.29012 3.82444,6.10399 2.34344,-1.46866 0.6637,1.05927 -5.99765,3.75876 -0.66367,-1.05925 2.43613,-1.52675 -3.16077,-5.04472 -2.43612,1.52674 z m 1.09921,-3.30736 q -0.19082,-0.30453 -0.15143,-0.62425 0.0526,-0.32802 0.42334,-0.56035 0.3707,-0.23233 0.68882,-0.13664 0.31808,0.0957 0.50888,0.40022 0.18252,0.29129 0.12161,0.60608 -0.0609,0.31477 -0.43164,0.5471 -0.37073,0.23234 -0.68051,0.14988 -0.29657,-0.0907 -0.47907,-0.38204 z m 14.89786,0.6025 q -0.13272,-0.21186 -0.33325,-0.32592 -0.19559,-0.13557 -0.49869,-0.14847 -0.28986,-0.0212 -0.70874,0.0754 -0.40567,0.0883 -0.97513,0.29766 -0.69696,0.27081 -1.30792,0.41398 -0.61923,0.12995 -1.14758,0.11071 -0.51511,-0.0275 -0.92108,-0.23411 -0.40601,-0.20655 -0.68808,-0.65675 -0.27375,-0.43693 -0.30744,-0.93214 -0.0287,-0.51674 0.16776,-1.02713 0.1882,-0.52362 0.60498,-1.00612 0.40851,-0.49573 1.01754,-0.87741 0.66199,-0.41487 1.29944,-0.57465 0.63742,-0.15977 1.19895,-0.0876 0.56152,0.0722 1.0173,0.3582 0.46072,0.26446 0.75937,0.74113 l -1.23129,0.77167 q -0.14936,-0.23834 -0.40125,-0.37552 -0.26019,-0.15041 -0.57986,-0.18977 -0.31967,-0.0394 -0.69055,0.0455 -0.35767,0.0766 -0.74161,0.31725 -0.38397,0.24062 -0.6304,0.52415 -0.24149,0.26198 -0.34885,0.53209 -0.0941,0.26183 -0.0756,0.52681 0.0234,0.24346 0.14789,0.44207 0.13275,0.21185 0.32003,0.33419 0.17899,0.1091 0.4473,0.12535 0.28156,0.008 0.67893,-0.0936 0.39736,-0.10152 0.96682,-0.3109 0.74497,-0.28246 1.37744,-0.4207 0.64576,-0.14652 1.16086,-0.11897 0.51508,0.0275 0.91614,0.25563 0.39276,0.21486 0.67484,0.66504 0.29864,0.47667 0.33569,1.00665 0.0288,0.51674 -0.181,1.03541 -0.20975,0.5187 -0.65302,1.01778 -0.43835,0.47754 -1.07385,0.87583 -0.72818,0.45636 -1.42193,0.61454 -0.69376,0.15818 -1.29004,0.0893 -0.59632,-0.0688 -1.07361,-0.3598 -0.46408,-0.29924 -0.75443,-0.76267 l 1.21805,-0.76337 q 0.26706,0.36739 0.6051,0.52434 0.34299,0.13541 0.69409,0.13664 0.36435,-0.007 0.72358,-0.14 0.35925,-0.13293 0.677,-0.33207 0.76791,-0.48125 1.04385,-1.04143 0.26764,-0.57341 -0.0178,-1.05836 z m 1.93024,-3.64377 q -0.48117,-0.76796 -0.6709,-1.57106 -0.19803,-0.81633 -0.0813,-1.57177 0.11673,-0.75541 0.5383,-1.40686 0.43481,-0.65974 1.18948,-1.1327 0.75467,-0.47296 1.53791,-0.57659 0.78326,-0.10362 1.50064,0.12906 0.73062,0.22438 1.37881,0.75861 0.63986,0.52098 1.12103,1.28894 l 0.0913,0.14565 q 0.48947,0.7812 0.6792,1.5843 0.1897,0.8031 0.073,1.55852 -0.10349,0.74713 -0.5383,1.40687 -0.42157,0.65145 -1.17624,1.12441 -0.76791,0.48125 -1.55118,0.58488 -0.76999,0.0953 -1.50061,-0.12906 -0.73062,-0.22439 -1.37051,-0.74537 -0.63986,-0.52097 -1.12934,-1.30217 z m 1.32254,-0.62601 q 0.33185,0.52962 0.75796,0.94485 0.43103,0.3937 0.91489,0.60679 0.47555,0.19984 0.99225,0.17106 0.51669,-0.0288 1.03302,-0.35237 0.50311,-0.31531 0.74109,-0.75949 0.25122,-0.45248 0.27881,-0.96764 0.0325,-0.53668 -0.14701,-1.08802 -0.17456,-0.57288 -0.50638,-1.10251 l -0.0913,-0.14566 q -0.32352,-0.51639 -0.75458,-0.91008 -0.43936,-0.40692 -0.91492,-0.60678 -0.48382,-0.21309 -1.00052,-0.18431 -0.51669,0.0288 -1.0198,0.34408 -0.51636,0.32361 -0.76758,0.77608 -0.23798,0.44418 -0.25723,0.97258 -0.0276,0.51515 0.14697,1.08803 0.1795,0.55134 0.50305,1.06773 z m 3.2745,-11.32744 3.65421,-2.29011 5.70761,9.10963 2.34344,-1.46866 0.6637,1.05927 -5.99765,3.75876 -0.66367,-1.05925 2.43613,-1.52675 -5.04394,-8.05037 -2.43613,1.52673 z m 19.02195,2.24063 q -0.17069,-0.0959 -0.33484,-0.26957 -0.17246,-0.18697 -0.33997,-0.39547 -0.0692,0.30153 -0.18646,0.61473 -0.12552,0.29995 -0.32059,0.6066 -0.20337,0.29341 -0.47964,0.55875 -0.25476,0.27029 -0.59897,0.48602 -0.56934,0.3568 -1.13227,0.48833 -0.57125,0.11827 -1.0632,0.0394 -0.50027,-0.0922 -0.92621,-0.35999 -0.41272,-0.27611 -0.69476,-0.72629 -0.37332,-0.59584 -0.40878,-1.18214 -0.0438,-0.59953 0.19742,-1.15636 0.25439,-0.56511 0.75894,-1.08415 0.51776,-0.52733 1.27243,-1.00029 l 1.33722,-0.83804 -0.35672,-0.56935 q -0.1991,-0.31778 -0.47589,-0.49468 -0.28507,-0.19014 -0.62629,-0.23445 -0.328,-0.0526 -0.70382,0.0539 -0.38413,0.0932 -0.76807,0.33385 -0.37073,0.23233 -0.60391,0.50755 -0.21997,0.26694 -0.31903,0.55028 -0.10733,0.27011 -0.0937,0.55664 0.0268,0.27824 0.16784,0.50332 l -1.23129,0.77167 q -0.23565,-0.40552 -0.28256,-0.89242 -0.042,-0.50844 0.14621,-1.03208 0.1799,-0.53686 0.58011,-1.04584 0.41345,-0.51727 1.08868,-0.94044 0.60901,-0.38168 1.21665,-0.55963 0.62085,-0.18625 1.18234,-0.11405 0.57477,0.0639 1.06866,0.38134 0.50714,0.30912 0.88047,0.90496 l 2.0906,3.33667 q 0.22397,0.3575 0.53907,0.71323 0.31506,0.35574 0.62503,0.5856 l 0.0664,0.10593 z m -2.76035,0.4207 q 0.35748,-0.22403 0.60391,-0.50757 0.25971,-0.29182 0.41999,-0.59512 0.16525,-0.32483 0.23446,-0.62637 0.0609,-0.31478 0.0341,-0.593 l -0.91257,-1.45649 -1.13861,0.71358 q -1.07245,0.67211 -1.46911,1.36327 -0.3967,0.69116 0.0347,1.37968 0.16593,0.26482 0.38639,0.44013 0.2337,0.167 0.50537,0.21803 0.28491,0.0427 0.60779,-0.0305 0.33612,-0.0816 0.69357,-0.30559 z m 3.50745,-13.28053 1.08679,1.73453 2.72738,-1.70928 0.58902,0.9401 -2.72738,1.70927 2.43899,3.89279 q 0.26548,0.42369 0.54563,0.63538 0.27182,0.19844 0.55673,0.24115 0.28491,0.0427 0.5647,-0.0404 0.29306,-0.0915 0.55783,-0.2574 0.19861,-0.12447 0.40216,-0.27046 0.19522,-0.15924 0.37723,-0.31018 0.18695,-0.17249 0.33419,-0.32007 0.14722,-0.1476 0.24979,-0.24875 l 0.71967,0.76602 q -0.10083,0.19225 -0.28443,0.39951 -0.17035,0.19897 -0.40195,0.41787 -0.21838,0.21062 -0.49307,0.41965 -0.26144,0.20073 -0.5527,0.38327 -0.47666,0.29871 -0.97003,0.42352 -0.50171,0.11158 -0.98871,0.0111 -0.48703,-0.10045 -0.96277,-0.44771 -0.47076,-0.36881 -0.88556,-1.03084 l -2.43903,-3.89279 -1.88003,1.17825 -0.58902,-0.94009 1.88003,-1.17825 -1.08676,-1.73453 z m 6.52172,-1.67158 3.65418,-2.29012 3.82443,6.10399 2.34345,-1.46866 0.66369,1.05926 -5.99765,3.75876 -0.66366,-1.05925 2.43612,-1.52675 -3.16076,-5.04472 -2.43613,1.52673 z m 1.09922,-3.30736 q -0.19083,-0.30454 -0.15143,-0.62426 0.0526,-0.32801 0.42334,-0.56034 0.3707,-0.23233 0.68881,-0.13665 0.31809,0.0957 0.50888,0.40023 0.18253,0.29129 0.12161,0.60606 -0.0609,0.31479 -0.43164,0.54712 -0.37072,0.23233 -0.68051,0.14987 -0.29657,-0.0907 -0.47906,-0.38203 z m 8.69223,2.05754 q -0.48117,-0.76796 -0.6709,-1.57106 -0.198,-0.81633 -0.0813,-1.57176 0.1167,-0.75544 0.5383,-1.40688 0.43481,-0.65973 1.18945,-1.13269 0.75467,-0.47296 1.53794,-0.57658 0.78323,-0.10364 1.50064,0.12905 0.73062,0.22439 1.37878,0.75861 0.63986,0.52098 1.12103,1.28894 l 0.0913,0.14565 q 0.48947,0.7812 0.6792,1.5843 0.18973,0.80309 0.073,1.55852 -0.10349,0.74713 -0.5383,1.40687 -0.42157,0.65145 -1.17624,1.12439 -0.76791,0.48127 -1.55115,0.58489 -0.77002,0.0953 -1.50064,-0.12904 -0.73062,-0.2244 -1.37048,-0.74538 -0.63989,-0.52098 -1.12937,-1.30219 z m 1.32257,-0.62602 q 0.33182,0.52963 0.75793,0.94487 0.43106,0.39369 0.91489,0.60678 0.47555,0.19984 0.99225,0.17106 0.51669,-0.0288 1.03305,-0.35238 0.50311,-0.3153 0.74109,-0.75948 0.25122,-0.45248 0.27878,-0.96764 0.0325,-0.53669 -0.14698,-1.08802 -0.17456,-0.57289 -0.50641,-1.10253 l -0.0912,-0.14564 q -0.32355,-0.51639 -0.75461,-0.91008 -0.43933,-0.40694 -0.91489,-0.60678 -0.48385,-0.21309 -1.00055,-0.18431 -0.51666,0.0288 -1.01977,0.34408 -0.51636,0.32359 -0.76758,0.77608 -0.23798,0.44418 -0.25726,0.97256 -0.0276,0.51517 0.147,1.08805 0.1795,0.55134 0.50302,1.06773 z m 6.05798,-8.88602 0.75638,1.00117 q 0.0355,-0.79673 0.40573,-1.47129 0.37021,-0.67458 1.0719,-1.11435 0.56931,-0.35678 1.11902,-0.48001 0.56296,-0.13154 1.0964,0.0136 0.53839,0.12358 1.03406,0.53211 0.50888,0.40022 0.95688,1.11521 l 2.85382,4.55483 -1.23132,0.77167 -2.83722,-4.52834 q -0.29865,-0.47667 -0.61197,-0.74132 -0.31332,-0.26463 -0.6496,-0.33049 -0.33133,-0.0874 -0.69391,0.0108 -0.36258,0.0982 -0.74655,0.33879 -0.62225,0.38998 -0.88656,0.99817 -0.27259,0.59495 -0.23536,1.27233 l 3.21882,5.13743 -1.2313,0.77166 -4.48813,-7.16325 z"
       id="path98"
       inkscape:connector-curvature="0"
       style="fill:#000000;fill-rule:nonzero" />
    <path
       d="m 275.0078,126.46195 c 8.05035,2.31043 33.96857,11.94027 48.30212,13.8627 14.33353,1.9224 31.41599,-1.94017 37.69919,-2.32821"
       id="path100"
       inkscape:connector-curvature="0"
       style="fill:#000000;fill-opacity:0;fill-rule:evenodd" />
    <path
       d="m 281.53992,128.53836 2.39569,0.79401 c 3.78589,1.25773 8.2283,2.73814 12.86707,4.20643 9.27755,2.93657 19.34048,5.82463 26.50723,6.78585 14.33356,1.9224 31.41602,-1.94017 37.69925,-2.32821"
       id="path102"
       inkscape:connector-curvature="0"
       style="fill-rule:evenodd;stroke:#000000;stroke-width:2;stroke-linecap:butt;stroke-linejoin:round" />
    <path
       d="m 281.53992,128.53836 2.82486,-1.46211 -6.57053,0.27144 5.2078,4.01551 z"
       id="path104"
       inkscape:connector-curvature="0"
       style="fill:#000000;fill-rule:evenodd;stroke:#000000;stroke-width:2;stroke-linecap:butt" />
    <path
       d="M 353.00787,115.67719 462.55117,47.04727 484.8504,82.637823 375.30709,151.26774 Z"
       id="path106"
       inkscape:connector-curvature="0"
       style="fill:#000000;fill-opacity:0;fill-rule:evenodd" />
    <path
       d="m 368.68094,121.1808 5.82602,-3.65006 0.6637,1.05925 -2.30393,1.44344 4.7121,7.52074 2.30392,-1.44343 0.6637,1.05926 -5.82605,3.65007 -0.66367,-1.05927 2.26419,-1.41855 -4.71209,-7.52073 -2.26422,1.41855 z m 10.78693,-3.31016 0.75637,1.00119 q 0.0356,-0.79668 0.40583,-1.47117 0.37024,-0.67449 1.07202,-1.11415 0.56936,-0.35672 1.11911,-0.47988 0.56299,-0.13146 1.09646,0.0137 0.53843,0.12363 1.03409,0.53217 0.50891,0.40025 0.95691,1.11525 l 2.85382,4.55482 -1.23141,0.77149 -2.83722,-4.52833 q -0.29868,-0.47667 -0.612,-0.74133 -0.31332,-0.26465 -0.64963,-0.33053 -0.33133,-0.0874 -0.69394,0.0107 -0.36264,0.0981 -0.74661,0.33869 -0.62235,0.3899 -0.88666,0.99802 -0.27264,0.59488 -0.23544,1.27224 l 3.21884,5.13741 -1.23141,0.77149 -4.48813,-7.16325 z m 9.01922,-0.74605 q -0.50607,-0.80768 -0.72223,-1.59416 -0.22448,-0.7997 -0.1524,-1.50865 0.077,-0.73048 0.44076,-1.32712 0.35541,-0.60988 1.00425,-1.01636 0.6488,-0.40649 1.2582,-0.49328 0.60941,-0.0868 1.2241,0.0997 l -2.32288,-3.7074 1.21817,-0.7632 6.37131,10.1689 -1.12549,0.70512 -0.52582,-0.72154 q -0.0837,0.66093 -0.44586,1.20126 -0.34891,0.53202 -1.01096,0.9468 -0.6488,0.40649 -1.35266,0.46025 -0.69061,0.0455 -1.36831,-0.21215 -0.67768,-0.25763 -1.30436,-0.78695 -0.6217,-0.55084 -1.10287,-1.3188 z m 1.30112,-0.63079 q 0.33185,0.52964 0.73642,0.93994 0.40954,0.38876 0.87186,0.59694 0.46234,0.20818 0.95257,0.19605 0.49518,-0.0337 0.99835,-0.34889 0.31778,-0.1991 0.5279,-0.42292 0.20178,-0.23706 0.31744,-0.4939 0.12891,-0.26514 0.17163,-0.55006 0.0345,-0.29815 0.0126,-0.59791 l -2.08227,-3.32343 q -0.51212,-0.28762 -1.0968,-0.30851 -0.57974,-0.0424 -1.18885,0.33917 -0.51638,0.32352 -0.75439,0.76765 -0.22476,0.43584 -0.23083,0.9559 -0.0143,0.50682 0.16516,1.05815 0.18441,0.52979 0.51626,1.05942 z m 12.58951,-2.81691 q -0.75473,0.47284 -1.54795,0.61946 -0.78823,0.12508 -1.52877,-0.0563 -0.74057,-0.18137 -1.39035,-0.65932 -0.64978,-0.47793 -1.12265,-1.23266 l -0.17423,-0.27805 q -0.53921,-0.86065 -0.69257,-1.72338 -0.15332,-0.86272 0.007,-1.6082 0.1648,-0.76701 0.58979,-1.38359 0.4382,-0.62488 1.0473,-1.00648 0.78122,-0.48944 1.51648,-0.58134 0.74853,-0.10018 1.43118,0.13591 0.68265,0.2361 1.27451,0.76875 0.59683,0.51112 1.0614,1.2526 l 0.34845,0.55612 -5.12427,3.21039 q 0.33344,0.47332 0.76608,0.81072 0.4376,0.31586 0.92801,0.45114 0.50367,0.12697 1.03028,0.0552 0.52661,-0.0718 1.01651,-0.37873 0.66204,-0.41478 0.99929,-0.99483 0.35047,-0.58834 0.40775,-1.23268 l 1.11975,0.10975 q -0.0112,0.39419 -0.11835,0.81168 -0.11551,0.40424 -0.34857,0.82683 -0.22812,0.40106 -0.60364,0.80228 -0.3623,0.39292 -0.89193,0.72475 z m -4.18244,-6.32222 q -0.37076,0.23227 -0.6188,0.57207 -0.24808,0.3398 -0.34699,0.77052 -0.0989,0.43074 -0.0437,0.93085 0.0602,0.47859 0.29593,1.03151 l 3.85315,-2.41402 -0.0581,-0.0927 q -0.23725,-0.3492 -0.57212,-0.6188 -0.34314,-0.28284 -0.74246,-0.41987 -0.39932,-0.13703 -0.85144,-0.0935 -0.43887,0.0353 -0.91553,0.3339 z m 12.92417,-4.22508 q 0.48117,0.76796 0.71887,1.55938 0.22943,0.77818 0.17886,1.49207 -0.0505,0.71389 -0.40597,1.32376 -0.35541,0.60988 -1.0307,1.03296 -0.64881,0.40648 -1.2847,0.50987 -0.6359,0.10338 -1.24228,-0.0699 l 2.15695,3.44259 -1.21817,0.76319 -6.21368,-9.91732 1.11224,-0.69683 0.55566,0.73973 q 0.0754,-0.67417 0.43757,-1.21449 0.35385,-0.55357 1.02911,-0.97665 0.68854,-0.43137 1.39239,-0.48513 0.69556,-0.067 1.36002,0.19891 0.65616,0.25269 1.26465,0.81183 0.60016,0.5459 1.1062,1.35358 z m -1.3144,0.63908 q -0.33181,-0.52963 -0.74136,-0.91839 -0.40457,-0.4103 -0.88013,-0.61018 -0.47064,-0.22143 -0.97412,-0.201 -0.50348,0.0204 -1.01989,0.34395 -0.58258,0.36501 -0.81885,0.90023 -0.22302,0.52692 -0.19586,1.09994 l 2.16522,3.45584 q 0.50381,0.27438 1.06695,0.29033 0.56318,0.016 1.17225,-0.36565 0.51641,-0.32353 0.75442,-0.76766 0.23801,-0.44413 0.25235,-0.95095 0.006,-0.52006 -0.18668,-1.06309 -0.17947,-0.55133 -0.51132,-1.08096 z m 8.84583,-0.28708 q -0.75473,0.47285 -1.54791,0.61947 -0.78827,0.12507 -1.52881,-0.0563 -0.74054,-0.18138 -1.39035,-0.65932 -0.64978,-0.47794 -1.12265,-1.23266 l -0.1742,-0.27806 q -0.53924,-0.86065 -0.69259,-1.72337 -0.15332,-0.862732 0.007,-1.608208 0.16476,-0.767013 0.58975,-1.38359 0.4382,-0.624878 1.0473,-1.006478 0.78122,-0.489441 1.51651,-0.581329 0.74851,-0.100197 1.43115,0.135902 0.68265,0.236092 1.27451,0.768753 0.59683,0.511116 1.0614,1.252602 l 0.34845,0.556114 -5.12427,3.210394 q 0.33344,0.47331 0.76609,0.81072 0.43762,0.31585 0.92801,0.45113 0.50366,0.12698 1.03027,0.0552 0.52661,-0.0718 1.01651,-0.37873 0.66208,-0.41478 0.9993,-0.99482 0.35049,-0.58834 0.40774,-1.23268 l 1.11975,0.10974 q -0.0112,0.3942 -0.11834,0.81169 -0.11551,0.40424 -0.34858,0.82683 -0.22811,0.40106 -0.60363,0.80227 -0.36231,0.39292 -0.89194,0.72475 z m -4.18243,-6.322214 q -0.37076,0.232277 -0.61881,0.572075 -0.24808,0.339798 -0.34698,0.770523 -0.0989,0.430726 -0.0437,0.930848 0.0602,0.478584 0.29595,1.031498 l 3.85312,-2.414013 -0.0581,-0.09268 q -0.23724,-0.349205 -0.57211,-0.618805 -0.34314,-0.282845 -0.74247,-0.419876 -0.39932,-0.137024 -0.85141,-0.09347 -0.43887,0.03526 -0.91555,0.3339 z m 5.68234,-4.77697 0.75638,1.001191 q 0.0356,-0.796685 0.40579,-1.471176 0.37027,-0.674485 1.07205,-1.114151 0.56937,-0.356713 1.11911,-0.479874 0.56299,-0.131455 1.09647,0.01371 0.53842,0.123627 1.03409,0.532173 0.50891,0.400253 0.9569,1.11525 l 2.85383,4.554817 -1.23142,0.771492 -2.83722,-4.528336 q -0.29867,-0.476669 -0.612,-0.741325 -0.31332,-0.264649 -0.64963,-0.330529 -0.33133,-0.08742 -0.69397,0.01069 -0.36261,0.09811 -0.74658,0.338692 -0.62234,0.389892 -0.88666,0.998016 -0.27264,0.594879 -0.23544,1.27224 l 3.21884,5.137405 -1.23141,0.771489 -4.48813,-7.163243 z m 9.01922,-0.746048 q -0.50607,-0.807685 -0.72226,-1.594162 -0.22445,-0.799705 -0.15237,-1.508651 0.077,-0.730484 0.44077,-1.327118 0.3554,-0.609879 1.00421,-1.016365 0.64883,-0.406487 1.25824,-0.493279 0.6094,-0.08678 1.22409,0.09969 l -2.32288,-3.707405 1.21817,-0.763199 6.37131,10.1689 -1.12549,0.705124 -0.52582,-0.721543 q -0.0837,0.660927 -0.44589,1.201256 -0.34888,0.532028 -1.01092,0.946808 -0.64881,0.406487 -1.35267,0.460251 -0.69061,0.04547 -1.36831,-0.212158 -0.67771,-0.25763 -1.30435,-0.786934 -0.62171,-0.55085 -1.10288,-1.31881 z m 1.30112,-0.63079 q 0.33185,0.529632 0.73642,0.939934 0.40955,0.388763 0.87186,0.596946 0.46234,0.208176 0.95257,0.196045 0.49518,-0.03366 0.99836,-0.348892 0.31778,-0.199097 0.52789,-0.42292 0.20178,-0.237061 0.31744,-0.493897 0.12891,-0.265136 0.17163,-0.550056 0.0345,-0.298157 0.0126,-0.597916 l -2.08231,-3.323425 q -0.51208,-0.287621 -1.09677,-0.308518 -0.57974,-0.04243 -1.18884,0.339173 -0.51639,0.323524 -0.7544,0.767654 -0.22476,0.435837 -0.23083,0.955895 -0.0143,0.50682 0.16516,1.058151 0.18442,0.529793 0.51626,1.059418 z m 12.58951,-2.816918 q -0.75473,0.472847 -1.54794,0.619461 -0.78824,0.125084 -1.52878,-0.0563 -0.74057,-0.181373 -1.39035,-0.659309 -0.64978,-0.477944 -1.12265,-1.232666 l -0.17423,-0.278054 q -0.53924,-0.860649 -0.69256,-1.723381 -0.15332,-0.862724 0.007,-1.6082 0.16479,-0.767013 0.58978,-1.38359 0.4382,-0.624878 1.0473,-1.006478 0.78122,-0.489441 1.51648,-0.581337 0.74854,-0.100189 1.43118,0.135903 0.68265,0.236099 1.27451,0.768753 0.59683,0.511123 1.0614,1.252609 l 0.34842,0.556107 -5.12424,3.210395 q 0.33344,0.47332 0.76609,0.810715 0.43759,0.315865 0.92801,0.451141 0.50363,0.126976 1.03027,0.05518 0.52661,-0.07179 1.01651,-0.378731 0.66205,-0.41478 0.9993,-0.994827 0.35046,-0.588341 0.40774,-1.232682 l 1.11975,0.109749 q -0.0112,0.394188 -0.11834,0.811676 -0.11551,0.404244 -0.34858,0.826844 -0.22811,0.401054 -0.60363,0.802269 -0.36231,0.392921 -0.89194,0.724746 z m -4.18243,-6.32222 q -0.37076,0.232277 -0.61884,0.572075 -0.24805,0.339798 -0.34695,0.770531 -0.0989,0.430725 -0.0437,0.930847 0.0602,0.478577 0.29596,1.031502 l 3.85315,-2.414017 -0.0581,-0.09269 q -0.23725,-0.349205 -0.57211,-0.618805 -0.34314,-0.282837 -0.74247,-0.419869 -0.39932,-0.137031 -0.85144,-0.09348 -0.43887,0.03526 -0.91552,0.3339 z m 5.68234,-4.77697 0.75635,1.001191 q 0.0356,-0.796677 0.40582,-1.471169 0.37027,-0.674492 1.07205,-1.114159 0.56934,-0.356704 1.11908,-0.479873 0.56299,-0.131455 1.09647,0.01371 0.53842,0.123627 1.03411,0.532173 0.50892,0.400253 0.95688,1.115257 l 2.85382,4.554817 -1.23141,0.771492 -2.83722,-4.528335 q -0.29864,-0.47667 -0.61197,-0.741326 -0.31332,-0.264656 -0.64963,-0.330536 -0.33136,-0.08742 -0.69397,0.0107 -0.36261,0.09811 -0.74661,0.338684 -0.62231,0.389892 -0.88666,0.998016 -0.27261,0.594887 -0.23541,1.27224 l 3.21881,5.137413 -1.23138,0.771492 -4.48813,-7.163246 z m 8.85058,-7.96038 1.08677,1.734535 2.72766,-1.708893 0.58899,0.940094 -2.72763,1.708893 2.43902,3.892776 q 0.26547,0.423707 0.54559,0.635399 0.27185,0.198448 0.5568,0.241204 0.28491,0.04275 0.56473,-0.04037 0.29306,-0.09142 0.55789,-0.257325 0.19861,-0.124435 0.40216,-0.270408 0.19528,-0.159211 0.37729,-0.310128 0.18698,-0.172447 0.33423,-0.320015 0.14724,-0.147567 0.24981,-0.24871 l 0.71967,0.766052 q -0.10083,0.19223 -0.28446,0.39946 -0.17035,0.198929 -0.402,0.417808 -0.21839,0.210579 -0.49311,0.419564 -0.26147,0.200691 -0.55276,0.383194 -0.47669,0.298637 -0.9701,0.423393 -0.50174,0.111519 -0.9888,0.01102 -0.48703,-0.100495 -0.96276,-0.447785 -0.4708,-0.36882 -0.88559,-1.030861 l -2.43903,-3.892776 -1.88022,1.177971 -0.58902,-0.940094 1.88022,-1.177971 -1.08676,-1.734543 z"
       id="path108"
       inkscape:connector-curvature="0"
       style="fill:#000000;fill-rule:nonzero" />
    <path
       d="m 384.85446,142.22702 -0.35284,1.43799 1.55136,2.47603 -1.23142,0.77148 -6.37131,-10.1689 1.23142,-0.77148 3.89908,6.22316 0.26846,-1.36669 0.86697,-3.82518 1.49625,-0.93741 -1.03317,4.79592 5.95825,2.09358 -1.54919,0.97058 z m 11.33798,-2.25409 q -0.75473,0.47286 -1.54791,0.61946 -0.78824,0.12508 -1.52881,-0.0563 -0.74054,-0.18138 -1.39032,-0.65932 -0.64981,-0.47793 -1.12268,-1.23266 l -0.17419,-0.27806 q -0.53925,-0.86064 -0.69257,-1.72338 -0.15335,-0.86271 0.007,-1.6082 0.16476,-0.76701 0.58975,-1.38359 0.43823,-0.62487 1.0473,-1.00647 0.78122,-0.48944 1.51651,-0.58134 0.74851,-0.10019 1.43116,0.13591 0.68264,0.23608 1.27453,0.76875 0.5968,0.51113 1.06137,1.2526 l 0.34845,0.55612 -5.12426,3.21039 q 0.33343,0.47332 0.76608,0.81071 0.43762,0.31587 0.92801,0.45114 0.50366,0.12699 1.03027,0.0552 0.52661,-0.0718 1.01654,-0.37873 0.66205,-0.41478 0.99927,-0.99483 0.35049,-0.58835 0.40774,-1.23268 l 1.11976,0.10974 q -0.0111,0.39419 -0.11835,0.81169 -0.11548,0.40424 -0.34857,0.82683 -0.22812,0.40106 -0.60364,0.80227 -0.36231,0.39293 -0.89194,0.72475 z m -4.18243,-6.32222 q -0.37076,0.23229 -0.61881,0.57208 -0.24807,0.3398 -0.34698,0.77053 -0.0989,0.43072 -0.0437,0.93084 0.0602,0.47858 0.29596,1.03151 l 3.85312,-2.41403 -0.0581,-0.0927 q -0.23724,-0.3492 -0.57208,-0.61881 -0.34317,-0.28283 -0.74249,-0.41986 -0.3993,-0.13704 -0.85141,-0.0935 -0.43888,0.0353 -0.91556,0.33389 z m 9.20093,-7.16578 q 0.17215,-0.10784 0.36581,-0.21074 0.18536,-0.11613 0.36087,-0.1892 0.18872,-0.0814 0.35925,-0.13289 0.16223,-0.0648 0.27982,-0.0831 l 0.57449,1.29951 q -0.40729,0.14454 -0.74164,0.31715 -0.34268,0.15937 -0.70019,0.38336 -0.86066,0.5392 -1.14142,1.26825 -0.28906,0.71581 -0.10095,1.57518 l 2.87872,4.59455 -1.23141,0.7715 -4.48813,-7.16326 1.16519,-0.73001 0.76642,1.10552 q 0.0636,-0.86959 0.46533,-1.5822 0.40662,-0.73416 1.18784,-1.2236 z m 4.61801,-2.70883 0.75635,1.00119 q 0.0356,-0.79668 0.40582,-1.47118 0.37027,-0.67448 1.07202,-1.11415 0.56937,-0.35671 1.11911,-0.47987 0.56299,-0.13146 1.09647,0.0137 0.53842,0.12363 1.03411,0.53217 0.50892,0.40026 0.95688,1.11525 l 2.85382,4.55482 -1.23141,0.7715 -2.83722,-4.52834 q -0.29865,-0.47667 -0.61197,-0.74132 -0.31332,-0.26466 -0.64963,-0.33054 -0.33136,-0.0874 -0.69397,0.0107 -0.36261,0.0981 -0.74661,0.33869 -0.62231,0.3899 -0.88666,0.99802 -0.27261,0.59488 -0.23541,1.27224 l 3.21881,5.1374 -1.23138,0.7715 -4.48813,-7.16325 z m 14.77325,0.90389 q -0.75473,0.47285 -1.54791,0.61946 -0.78827,0.12508 -1.52881,-0.0563 -0.74057,-0.18138 -1.39035,-0.65932 -0.64978,-0.47794 -1.12265,-1.23266 l -0.17422,-0.27806 q -0.53922,-0.86064 -0.69257,-1.72337 -0.15332,-0.86273 0.007,-1.6082 0.16479,-0.76702 0.58978,-1.3836 0.4382,-0.62487 1.0473,-1.00647 0.78122,-0.48944 1.51648,-0.58134 0.74854,-0.10019 1.43119,0.1359 0.68264,0.2361 1.2745,0.76876 0.59683,0.51112 1.0614,1.2526 l 0.34845,0.55611 -5.12426,3.2104 q 0.33343,0.47332 0.76608,0.81071 0.43762,0.31587 0.92801,0.45114 0.50366,0.12698 1.03027,0.0552 0.52661,-0.0718 1.01651,-0.37873 0.66205,-0.41478 0.9993,-0.99483 0.35046,-0.58835 0.40774,-1.23268 l 1.11976,0.10974 q -0.0112,0.3942 -0.11835,0.81168 -0.11551,0.40425 -0.34857,0.82684 -0.22812,0.40106 -0.60364,0.80228 -0.36231,0.39292 -0.89194,0.72474 z m -4.18243,-6.32222 q -0.37076,0.23228 -0.61881,0.57208 -0.24807,0.3398 -0.34698,0.77052 -0.0989,0.43073 -0.0437,0.93085 0.0602,0.47858 0.29593,1.03151 l 3.85315,-2.41403 -0.0581,-0.0927 q -0.23724,-0.3492 -0.57211,-0.6188 -0.34314,-0.28284 -0.74246,-0.41987 -0.39933,-0.13703 -0.85145,-0.0935 -0.43887,0.0353 -0.91552,0.3339 z m 2.89877,-7.21852 3.65451,-2.28958 5.70764,9.10963 2.34363,-1.46832 0.6637,1.05927 -5.99817,3.7579 -0.6637,-1.05926 2.43637,-1.52639 -5.04397,-8.05037 -2.43634,1.52639 z"
       id="path110"
       inkscape:connector-curvature="0"
       style="fill:#000000;fill-rule:nonzero" />
  </g>
</svg>
