<?xml version="1.0" encoding="UTF-8" standalone="no"?>
<svg
   xmlns:dc="http://purl.org/dc/elements/1.1/"
   xmlns:cc="http://creativecommons.org/ns#"
   xmlns:rdf="http://www.w3.org/1999/02/22-rdf-syntax-ns#"
   xmlns:svg="http://www.w3.org/2000/svg"
   xmlns="http://www.w3.org/2000/svg"
   xmlns:sodipodi="http://sodipodi.sourceforge.net/DTD/sodipodi-0.dtd"
   xmlns:inkscape="http://www.inkscape.org/namespaces/inkscape"
   version="1.1"
   viewBox="0 0 431.90808 192.49213"
   stroke-miterlimit="10"
   id="svg66"
   sodipodi:docname="OS-Security-Extensions.svg"
   width="431.90808"
   height="192.49213"
   style="fill:none;stroke:none;stroke-linecap:square;stroke-miterlimit:10"
   inkscape:version="0.92.2pre0 (973e216, 2017-07-25)">
  <metadata
     id="metadata72">
    <rdf:RDF>
      <cc:Work
         rdf:about="">
        <dc:format>image/svg+xml</dc:format>
        <dc:type
           rdf:resource="http://purl.org/dc/dcmitype/StillImage" />
        <dc:title></dc:title>
      </cc:Work>
    </rdf:RDF>
  </metadata>
  <defs
     id="defs70" />
  <sodipodi:namedview
     pagecolor="#ffffff"
     bordercolor="#666666"
     borderopacity="1"
     objecttolerance="10"
     gridtolerance="10"
     guidetolerance="10"
     inkscape:pageopacity="0"
     inkscape:pageshadow="2"
     inkscape:window-width="640"
     inkscape:window-height="480"
     id="namedview68"
     showgrid="false"
     fit-margin-top="0"
     fit-margin-left="0"
     fit-margin-right="0"
     fit-margin-bottom="0"
     inkscape:pagecheckerboard="false"
     inkscape:zoom="0.46875"
     inkscape:cx="385.30092"
     inkscape:cy="80.501336"
     inkscape:window-x="0"
     inkscape:window-y="0"
     inkscape:window-maximized="0"
     inkscape:current-layer="g64" />
  <clipPath
     id="p.0">
    <path
       d="M 0,0 H 1280 V 960 H 0 Z"
       id="path2"
       inkscape:connector-curvature="0"
       style="clip-rule:nonzero" />
  </clipPath>
  <g
     clip-path="url(#p.0)"
     id="g64"
     transform="translate(-84,-164.05643)">
    <path
       d="M 0,0 H 1280 V 960 H 0 Z"
       id="path5"
       inkscape:connector-curvature="0"
       style="fill:#000000;fill-opacity:0;fill-rule:evenodd" />
    <path
       d="m 154,164.55643 h 178.01575 v 64 H 154 Z"
       id="path7"
       inkscape:connector-curvature="0"
       style="fill:#f4cccc;fill-rule:evenodd" />
    <path
       d="m 154,164.55643 h 178.01575 v 64 H 154 Z"
       id="path9"
       inkscape:connector-curvature="0"
       style="fill-rule:evenodd;stroke:#000000;stroke-width:1;stroke-linecap:butt;stroke-linejoin:round" />
    <path
       d="m 189.3541,200.03893 h -4.4375 l -1.0625,3.4375 h -1.6875 l 4.28125,-13.26563 h 1.42187 l 4.20313,13.26563 h -1.67188 z m -3.98438,-1.46875 h 3.53125 l -1.75,-5.75 z m 17.16434,0.0937 q 0,1.04687 -0.26562,1.96875 -0.25,0.90625 -0.75,1.59375 -0.48438,0.67187 -1.21875,1.0625 -0.71875,0.375 -1.64063,0.375 -0.90625,0 -1.59375,-0.29688 -0.6875,-0.29687 -1.17187,-0.84375 v 4.75 h -1.6875 V 193.617 h 1.53125 l 0.0937,1.07813 q 0.48437,-0.60938 1.17187,-0.92188 0.70313,-0.32812 1.625,-0.32812 0.95313,0 1.67188,0.375 0.73437,0.35937 1.21875,1.03125 0.5,0.65625 0.75,1.59375 0.26562,0.92187 0.26562,2.01562 z m -1.6875,-0.20313 q 0,-0.71875 -0.17187,-1.35937 -0.15625,-0.65625 -0.48438,-1.15625 -0.32812,-0.5 -0.84375,-0.78125 -0.5,-0.29688 -1.21875,-0.29688 -0.8125,0 -1.35937,0.375 -0.54688,0.375 -0.875,0.96875 v 4.75 q 0.32812,0.57813 0.875,0.95313 0.54687,0.375 1.375,0.375 0.70312,0 1.20312,-0.29688 0.51563,-0.29687 0.84375,-0.79687 0.32813,-0.5 0.48438,-1.15625 0.17187,-0.65625 0.17187,-1.375 z m 12.88306,0.20313 q 0,1.04687 -0.26563,1.96875 -0.25,0.90625 -0.75,1.59375 -0.48437,0.67187 -1.21875,1.0625 -0.71875,0.375 -1.64062,0.375 -0.90625,0 -1.59375,-0.29688 -0.6875,-0.29687 -1.17188,-0.84375 v 4.75 h -1.6875 V 193.617 h 1.53125 l 0.0937,1.07813 q 0.48438,-0.60938 1.17188,-0.92188 0.70312,-0.32812 1.625,-0.32812 0.95312,0 1.67187,0.375 0.73438,0.35937 1.21875,1.03125 0.5,0.65625 0.75,1.59375 0.26563,0.92187 0.26563,2.01562 z m -1.6875,-0.20313 q 0,-0.71875 -0.17188,-1.35937 -0.15625,-0.65625 -0.48437,-1.15625 -0.32813,-0.5 -0.84375,-0.78125 -0.5,-0.29688 -1.21875,-0.29688 -0.8125,0 -1.35938,0.375 -0.54687,0.375 -0.875,0.96875 v 4.75 q 0.32813,0.57813 0.875,0.95313 0.54688,0.375 1.375,0.375 0.70313,0 1.20313,-0.29688 0.51562,-0.29687 0.84375,-0.79687 0.32812,-0.5 0.48437,-1.15625 0.17188,-0.65625 0.17188,-1.375 z m 4.82059,-8.98437 h 5.04687 v 12.54687 h 3.21875 v 1.45313 h -8.26562 v -1.45313 h 3.35937 v -11.07812 h -3.35937 z m 11.19555,4.14062 h 5.04688 v 8.40625 h 3.21875 v 1.45313 h -8.26563 v -1.45313 h 3.35938 v -6.9375 h -3.35938 z m 3.14063,-2.57812 q 0,-0.42188 0.25,-0.70313 0.25,-0.29687 0.76562,-0.29687 0.5,0 0.75,0.29687 0.25,0.28125 0.25,0.70313 0,0.40625 -0.25,0.6875 -0.25,0.26562 -0.75,0.26562 -0.51562,0 -0.76562,-0.26562 -0.25,-0.28125 -0.25,-0.6875 z m 11.99246,11.25 q 0.45312,0 0.89062,-0.14063 0.4375,-0.14062 0.76563,-0.40625 0.34375,-0.26562 0.54687,-0.60937 0.20313,-0.35938 0.21875,-0.76563 h 1.59375 q -0.0156,0.65625 -0.34375,1.26563 -0.32812,0.59375 -0.89062,1.04687 -0.5625,0.4375 -1.28125,0.71875 -0.71875,0.26563 -1.5,0.26563 -1.10938,0 -1.95313,-0.40625 -0.84375,-0.40625 -1.40625,-1.07813 -0.54687,-0.6875 -0.84375,-1.5625 -0.28125,-0.89062 -0.28125,-1.875 v -0.39062 q 0,-0.96875 0.28125,-1.85938 0.29688,-0.89062 0.84375,-1.5625 0.5625,-0.6875 1.40625,-1.07812 0.84375,-0.40625 1.95313,-0.40625 0.875,0 1.60937,0.28125 0.73438,0.26562 1.26563,0.75 0.53125,0.46875 0.82812,1.125 0.3125,0.65625 0.3125,1.40625 h -1.59375 q -0.0156,-0.45313 -0.20312,-0.84375 -0.1875,-0.39063 -0.51563,-0.6875 -0.3125,-0.3125 -0.75,-0.48438 -0.4375,-0.17187 -0.95312,-0.17187 -0.78125,0 -1.3125,0.3125 -0.53125,0.3125 -0.85938,0.82812 -0.32812,0.5 -0.46875,1.14063 -0.14062,0.625 -0.14062,1.25 v 0.39062 q 0,0.64063 0.14062,1.28125 0.14063,0.625 0.45313,1.14063 0.32812,0.5 0.85937,0.8125 0.53125,0.3125 1.32813,0.3125 z m 13.47681,1.1875 q -0.0937,-0.1875 -0.15625,-0.46875 -0.0625,-0.29688 -0.0937,-0.60938 -0.25,0.26563 -0.5625,0.5 -0.3125,0.21875 -0.70313,0.39063 -0.375,0.17187 -0.8125,0.26562 -0.42187,0.10938 -0.89062,0.10938 -0.79688,0 -1.4375,-0.21875 -0.625,-0.23438 -1.0625,-0.625 -0.4375,-0.39063 -0.6875,-0.92188 -0.23438,-0.53125 -0.23438,-1.15625 0,-0.8125 0.3125,-1.42187 0.32813,-0.60938 0.92188,-1.01563 0.59375,-0.40625 1.42187,-0.59375 0.84375,-0.20312 1.875,-0.20312 h 1.82813 v -0.78125 q 0,-0.45313 -0.17188,-0.79688 -0.15625,-0.35937 -0.45312,-0.60937 -0.29688,-0.25 -0.73438,-0.39063 -0.42187,-0.14062 -0.96875,-0.14062 -0.5,0 -0.90625,0.14062 -0.39062,0.125 -0.67187,0.34375 -0.26563,0.20313 -0.42188,0.48438 -0.14062,0.28125 -0.14062,0.59375 h -1.6875 q 0,-0.53125 0.26562,-1.04688 0.28125,-0.53125 0.78125,-0.9375 0.5,-0.42187 1.21875,-0.67187 0.73438,-0.25 1.65625,-0.25 0.84375,0 1.5625,0.20312 0.71875,0.20313 1.23438,0.625 0.53125,0.40625 0.82812,1.03125 0.29688,0.60938 0.29688,1.4375 v 4.57813 q 0,0.5 0.0937,1.04687 0.0937,0.54688 0.25,0.96875 v 0.14063 z m -2.98438,-1.28125 q 0.5,0 0.92188,-0.125 0.4375,-0.14063 0.78125,-0.34375 0.34375,-0.20313 0.59375,-0.46875 0.26562,-0.28125 0.40625,-0.5625 v -2 h -1.5625 q -1.46875,0 -2.29688,0.4375 -0.8125,0.4375 -0.8125,1.375 0,0.35937 0.125,0.67187 0.125,0.3125 0.35938,0.53125 0.25,0.21875 0.625,0.35938 0.375,0.125 0.85937,0.125 z m 11.69559,-10.96875 v 2.39062 h 3.75 v 1.3125 h -3.75 v 5.34375 q 0,0.57813 0.14062,0.95313 0.14063,0.375 0.39063,0.59375 0.26562,0.21875 0.59375,0.3125 0.34375,0.0937 0.71875,0.0937 0.26562,0 0.54687,-0.0312 0.29688,-0.0312 0.57813,-0.0781 0.28125,-0.0469 0.51562,-0.0937 0.25,-0.0469 0.40625,-0.0937 l 0.23438,1.20313 q -0.21875,0.125 -0.51563,0.21875 -0.29687,0.0937 -0.65625,0.15625 -0.34375,0.0781 -0.75,0.10937 -0.39062,0.0469 -0.78125,0.0469 -0.65625,0 -1.23437,-0.1875 -0.5625,-0.1875 -0.98438,-0.59375 -0.42187,-0.40625 -0.67187,-1.04688 -0.23438,-0.64062 -0.23438,-1.5625 v -5.34375 h -2.57812 v -1.3125 h 2.57812 v -2.39062 z m 7.46118,2.39062 h 5.04688 v 8.40625 h 3.21875 v 1.45313 h -8.26563 v -1.45313 h 3.35938 v -6.9375 h -3.35938 z m 3.14063,-2.57812 q 0,-0.42188 0.25,-0.70313 0.25,-0.29687 0.76562,-0.29687 0.5,0 0.75,0.29687 0.25,0.28125 0.25,0.70313 0,0.40625 -0.25,0.6875 -0.25,0.26562 -0.75,0.26562 -0.51562,0 -0.76562,-0.26562 -0.25,-0.28125 -0.25,-0.6875 z m 7.32058,7.42187 q 0,-1.0625 0.3125,-1.98437 0.3125,-0.92188 0.89063,-1.59375 0.57812,-0.67188 1.40625,-1.04688 0.82812,-0.39062 1.85937,-0.39062 1.04688,0 1.875,0.39062 0.84375,0.375 1.42188,1.04688 0.57812,0.67187 0.89062,1.59375 0.3125,0.92187 0.3125,1.98437 v 0.20313 q 0,1.0625 -0.3125,1.96875 -0.3125,0.90625 -0.89062,1.59375 -0.57813,0.67187 -1.40625,1.0625 -0.82813,0.375 -1.85938,0.375 -1.04687,0 -1.89062,-0.375 -0.82813,-0.39063 -1.40625,-1.0625 -0.57813,-0.6875 -0.89063,-1.59375 -0.3125,-0.90625 -0.3125,-1.96875 z m 1.6875,0.20313 q 0,0.71875 0.17188,1.39062 0.17187,0.65625 0.51562,1.15625 0.35938,0.5 0.89063,0.79688 0.53125,0.28125 1.23437,0.28125 0.6875,0 1.20313,-0.28125 0.53125,-0.29688 0.875,-0.79688 0.35937,-0.5 0.53125,-1.15625 0.17187,-0.67187 0.17187,-1.39062 v -0.20313 q 0,-0.71875 -0.1875,-1.375 -0.17187,-0.67187 -0.53125,-1.17187 -0.34375,-0.5 -0.875,-0.79688 -0.51562,-0.29687 -1.21875,-0.29687 -0.70312,0 -1.21875,0.29687 -0.51562,0.29688 -0.875,0.79688 -0.34375,0.5 -0.51562,1.17187 -0.17188,0.65625 -0.17188,1.375 z m 11.49243,-5.04688 0.125,1.45313 q 0.53125,-0.76563 1.3125,-1.1875 0.78125,-0.4375 1.75,-0.4375 0.78125,0 1.40625,0.21875 0.64063,0.21875 1.07813,0.6875 0.45312,0.45312 0.6875,1.17187 0.25,0.71875 0.25,1.6875 v 6.26563 h -1.6875 v -6.21875 q 0,-0.65625 -0.15625,-1.10938 -0.14063,-0.45312 -0.42188,-0.73437 -0.28125,-0.29688 -0.70312,-0.42188 -0.40625,-0.125 -0.95313,-0.125 -0.84375,0 -1.48437,0.42188 -0.64063,0.42187 -1.03125,1.125 v 7.0625 h -1.6875 V 193.617 Z"
       id="path11"
       inkscape:connector-curvature="0"
       style="fill:#000000;fill-rule:nonzero" />
    <path
       d="m 154,252.55643 h 178.01575 v 64 H 154 Z"
       id="path13"
       inkscape:connector-curvature="0"
       style="fill:#cfe2f3;fill-rule:evenodd" />
    <path
       d="m 154,252.55643 h 178.01575 v 64 H 154 Z"
       id="path15"
       inkscape:connector-curvature="0"
       style="fill-rule:evenodd;stroke:#000000;stroke-width:1;stroke-linecap:butt;stroke-linejoin:round" />
    <path
       d="m 191.33847,291.47644 h -1.59375 v -6.125 h -5.4375 v 6.125 h -1.59375 v -13.26562 h 1.59375 v 5.70312 h 5.4375 v -5.70312 h 1.59375 z m 2.39871,-5.01562 q 0,-1.0625 0.3125,-1.98438 0.3125,-0.92187 0.89063,-1.59375 0.57812,-0.67187 1.40625,-1.04687 0.82812,-0.39063 1.85937,-0.39063 1.04688,0 1.875,0.39063 0.84375,0.375 1.42188,1.04687 0.57812,0.67188 0.89062,1.59375 0.3125,0.92188 0.3125,1.98438 v 0.20312 q 0,1.0625 -0.3125,1.96875 -0.3125,0.90625 -0.89062,1.59375 -0.57813,0.67188 -1.40625,1.0625 -0.82813,0.375 -1.85938,0.375 -1.04687,0 -1.89062,-0.375 -0.82813,-0.39062 -1.40625,-1.0625 -0.57813,-0.6875 -0.89063,-1.59375 -0.3125,-0.90625 -0.3125,-1.96875 z m 1.6875,0.20312 q 0,0.71875 0.17188,1.39063 0.17187,0.65625 0.51562,1.15625 0.35938,0.5 0.89063,0.79687 0.53125,0.28125 1.23437,0.28125 0.6875,0 1.20313,-0.28125 0.53125,-0.29687 0.875,-0.79687 0.35937,-0.5 0.53125,-1.15625 0.17187,-0.67188 0.17187,-1.39063 v -0.20312 q 0,-0.71875 -0.1875,-1.375 -0.17187,-0.67188 -0.53125,-1.17188 -0.34375,-0.5 -0.875,-0.79687 -0.51562,-0.29688 -1.21875,-0.29688 -0.70312,0 -1.21875,0.29688 -0.51562,0.29687 -0.875,0.79687 -0.34375,0.5 -0.51562,1.17188 -0.17188,0.65625 -0.17188,1.375 z m 16.53931,2.20313 q 0,-0.3125 -0.125,-0.54688 -0.125,-0.23437 -0.40625,-0.4375 -0.28125,-0.20312 -0.75,-0.375 -0.45313,-0.17187 -1.14063,-0.29687 -0.85937,-0.1875 -1.5625,-0.42188 -0.6875,-0.25 -1.1875,-0.59375 -0.48437,-0.34375 -0.76562,-0.79687 -0.26563,-0.46875 -0.26563,-1.07813 0,-0.59375 0.28125,-1.10937 0.28125,-0.53125 0.78125,-0.92188 0.51563,-0.39062 1.21875,-0.60937 0.70313,-0.23438 1.5625,-0.23438 0.90625,0 1.625,0.23438 0.73438,0.23437 1.25,0.65625 0.51563,0.40625 0.78125,0.96875 0.28125,0.5625 0.28125,1.21875 h -1.6875 q 0,-0.32813 -0.17187,-0.625 -0.15625,-0.3125 -0.45313,-0.54688 -0.28125,-0.23437 -0.70312,-0.375 -0.40625,-0.15625 -0.92188,-0.15625 -0.54687,0 -0.95312,0.125 -0.40625,0.10938 -0.67188,0.3125 -0.26562,0.20313 -0.40625,0.46875 -0.14062,0.26563 -0.14062,0.54688 0,0.28125 0.10937,0.51562 0.10938,0.23438 0.375,0.42188 0.28125,0.17187 0.73438,0.32812 0.45312,0.14063 1.14062,0.26563 0.90625,0.20312 1.625,0.45312 0.71875,0.25 1.20313,0.60938 0.5,0.34375 0.75,0.8125 0.26562,0.45312 0.26562,1.0625 0,0.65625 -0.29687,1.20312 -0.28125,0.53125 -0.8125,0.92188 -0.53125,0.375 -1.26563,0.59375 -0.73437,0.20312 -1.60937,0.20312 -1.01563,0 -1.79688,-0.26562 -0.78125,-0.28125 -1.32812,-0.71875 -0.53125,-0.4375 -0.82813,-1.01563 -0.28125,-0.59375 -0.28125,-1.21875 h 1.6875 q 0.0312,0.51563 0.26563,0.875 0.25,0.35938 0.60937,0.57813 0.35938,0.21875 0.79688,0.3125 0.4375,0.0781 0.875,0.0781 1.0625,0 1.67187,-0.39062 0.625,-0.39063 0.64063,-1.03125 z m 8.63309,-9.64063 v 2.39063 h 3.75 v 1.3125 h -3.75 v 5.34375 q 0,0.57812 0.14062,0.95312 0.14063,0.375 0.39063,0.59375 0.26562,0.21875 0.59375,0.3125 0.34375,0.0937 0.71875,0.0937 0.26562,0 0.54687,-0.0312 0.29688,-0.0312 0.57813,-0.0781 0.28125,-0.0469 0.51562,-0.0937 0.25,-0.0469 0.40625,-0.0937 l 0.23438,1.20312 q -0.21875,0.125 -0.51563,0.21875 -0.29687,0.0937 -0.65625,0.15625 -0.34375,0.0781 -0.75,0.10938 -0.39062,0.0469 -0.78125,0.0469 -0.65625,0 -1.23437,-0.1875 -0.5625,-0.1875 -0.98438,-0.59375 -0.42187,-0.40625 -0.67187,-1.04687 -0.23438,-0.64063 -0.23438,-1.5625 v -5.34375 h -2.57812 v -1.3125 h 2.57812 v -2.39063 z m 21.57864,6.09375 -1.48437,1.67188 v 4.48437 h -1.71875 v -13.26562 h 1.71875 v 6.48437 l 1.29687,-1.60937 3.89063,-4.875 h 2.04687 l -4.64062,5.8125 4.95312,7.45312 h -2.0625 z m 12.36743,6.34375 q -1.03125,0 -1.90625,-0.35937 -0.875,-0.35938 -1.5,-0.98438 -0.60937,-0.64062 -0.95312,-1.51562 -0.34375,-0.875 -0.34375,-1.90625 v -0.39063 q 0,-1.1875 0.375,-2.125 0.39062,-0.95312 1.01562,-1.59375 0.64063,-0.65625 1.4375,-1 0.8125,-0.34375 1.65625,-0.34375 1.0625,0 1.85938,0.375 0.79687,0.35938 1.32812,1.01563 0.53125,0.64062 0.78125,1.53125 0.26563,0.875 0.26563,1.90625 v 0.75 h -7.03125 q 0.0156,0.6875 0.25,1.28125 0.23437,0.57812 0.64062,1.03125 0.40625,0.4375 0.96875,0.70312 0.5625,0.25 1.25,0.25 0.90625,0 1.59375,-0.35937 0.70313,-0.375 1.17188,-0.96875 l 1.03125,0.79687 q -0.25,0.375 -0.625,0.71875 -0.35938,0.32813 -0.84375,0.59375 -0.48438,0.26563 -1.09375,0.42188 -0.60938,0.17187 -1.32813,0.17187 z m -0.21875,-8.84375 q -0.51562,0 -0.96875,0.1875 -0.45312,0.1875 -0.8125,0.54688 -0.35937,0.35937 -0.625,0.89062 -0.25,0.51563 -0.34375,1.20313 h 5.29688 v -0.125 q -0.0156,-0.5 -0.1875,-0.98438 -0.15625,-0.48437 -0.46875,-0.85937 -0.29688,-0.39063 -0.76563,-0.625 -0.46875,-0.23438 -1.125,-0.23438 z m 13.52371,-1.375 q 0.23438,0 0.48438,0.0156 0.26562,0 0.48437,0.0312 0.23438,0.0312 0.42188,0.0781 0.20312,0.0469 0.34375,0.10938 l -0.23438,1.64062 q -0.48437,-0.10937 -0.9375,-0.15625 -0.4375,-0.0469 -0.92187,-0.0469 -1.1875,0 -1.92188,0.54687 -0.73437,0.53125 -1.07812,1.48438 v 6.32812 h -1.6875 v -9.85937 h 1.59375 l 0.0937,1.5625 q 0.59375,-0.79688 1.4375,-1.26563 0.84375,-0.46875 1.92187,-0.46875 z m 6.24244,0.17188 0.125,1.45312 q 0.53125,-0.76562 1.3125,-1.1875 0.78125,-0.4375 1.75,-0.4375 0.78125,0 1.40625,0.21875 0.64062,0.21875 1.07812,0.6875 0.45313,0.45313 0.6875,1.17188 0.25,0.71875 0.25,1.6875 v 6.26562 h -1.6875 v -6.21875 q 0,-0.65625 -0.15625,-1.10937 -0.14062,-0.45313 -0.42187,-0.73438 -0.28125,-0.29687 -0.70313,-0.42187 -0.40625,-0.125 -0.95312,-0.125 -0.84375,0 -1.48438,0.42187 -0.64062,0.42188 -1.03125,1.125 v 7.0625 h -1.6875 v -9.85937 z m 14.03933,10.04687 q -1.03125,0 -1.90625,-0.35937 -0.875,-0.35938 -1.5,-0.98438 -0.60937,-0.64062 -0.95312,-1.51562 -0.34375,-0.875 -0.34375,-1.90625 v -0.39063 q 0,-1.1875 0.375,-2.125 0.39062,-0.95312 1.01562,-1.59375 0.64063,-0.65625 1.4375,-1 0.8125,-0.34375 1.65625,-0.34375 1.0625,0 1.85938,0.375 0.79687,0.35938 1.32812,1.01563 0.53125,0.64062 0.78125,1.53125 0.26563,0.875 0.26563,1.90625 v 0.75 h -7.03125 q 0.0156,0.6875 0.25,1.28125 0.23437,0.57812 0.64062,1.03125 0.40625,0.4375 0.96875,0.70312 0.5625,0.25 1.25,0.25 0.90625,0 1.59375,-0.35937 0.70313,-0.375 1.17188,-0.96875 l 1.03125,0.79687 q -0.25,0.375 -0.625,0.71875 -0.35938,0.32813 -0.84375,0.59375 -0.48438,0.26563 -1.09375,0.42188 -0.60938,0.17187 -1.32813,0.17187 z m -0.21875,-8.84375 q -0.51562,0 -0.96875,0.1875 -0.45312,0.1875 -0.8125,0.54688 -0.35937,0.35937 -0.625,0.89062 -0.25,0.51563 -0.34375,1.20313 h 5.29688 v -0.125 q -0.0156,-0.5 -0.1875,-0.98438 -0.15625,-0.48437 -0.46875,-0.85937 -0.29688,-0.39063 -0.76563,-0.625 -0.46875,-0.23438 -1.125,-0.23438 z m 7.32056,-5.34375 h 5.04687 v 12.54688 h 3.21875 v 1.45312 h -8.26562 v -1.45312 h 3.35937 v -11.07813 h -3.35937 z"
       id="path17"
       inkscape:connector-curvature="0"
       style="fill:#000000;fill-rule:nonzero" />
    <path
       d="M 84.00787,239.55643 H 151"
       id="path19"
       inkscape:connector-curvature="0"
       style="fill:#000000;fill-opacity:0;fill-rule:evenodd" />
    <path
       d="M 84.00787,239.55643 H 151"
       id="path21"
       inkscape:connector-curvature="0"
       style="fill-rule:evenodd;stroke:#ff0000;stroke-width:3;stroke-linecap:butt;stroke-linejoin:round;stroke-dasharray:12, 9" />
    <path
       d="m 340,239.55643 h 78.96063"
       id="path23"
       inkscape:connector-curvature="0"
       style="fill:#000000;fill-opacity:0;fill-rule:evenodd" />
    <path
       d="m 340,239.55643 h 78.96063"
       id="path25"
       inkscape:connector-curvature="0"
       style="fill-rule:evenodd;stroke:#ff0000;stroke-width:3;stroke-linecap:butt;stroke-linejoin:round;stroke-dasharray:12, 9" />
    <path
       d="m 147,218.5643 h 197.00787 v 41.98425 H 147 Z"
       id="path27"
       inkscape:connector-curvature="0"
       style="fill:#000000;fill-opacity:0;fill-rule:evenodd" />
    <path
       d="m 160.2865,240.5193 h 5.10937 v 1.125 H 158.974 v -10.42188 h 1.3125 z m 7.51393,-6.625 h 3.95313 v 6.60937 h 2.53125 v 1.14063 h -6.48438 v -1.14063 h 2.64063 v -5.45312 h -2.64063 z m 2.46875,-2.03125 q 0,-0.32813 0.1875,-0.54688 0.20313,-0.23437 0.59375,-0.23437 0.40625,0 0.59375,0.23437 0.20313,0.21875 0.20313,0.54688 0,0.32812 -0.20313,0.54687 -0.1875,0.20313 -0.59375,0.20313 -0.39062,0 -0.59375,-0.20313 -0.1875,-0.21875 -0.1875,-0.54687 z m 6.73268,2.03125 0.0312,0.73437 q 0.23438,-0.40625 0.60938,-0.625 0.39062,-0.23437 0.9375,-0.25 1.0625,0 1.42187,0.82813 0.23438,-0.35938 0.60938,-0.57813 0.375,-0.23437 0.90625,-0.25 0.85937,0 1.3125,0.53125 0.45312,0.51563 0.45312,1.57813 v 5.78125 h -1.25 v -5.79688 q 0,-0.96875 -0.90625,-0.96875 -0.23437,0 -0.40625,0.0625 -0.17187,0.0625 -0.28125,0.1875 -0.10937,0.10938 -0.1875,0.25 -0.0625,0.14063 -0.0781,0.29688 v 5.96875 h -1.26563 v -5.79688 q 0,-0.46875 -0.20312,-0.71875 -0.20313,-0.25 -0.65625,-0.25 -0.42188,0 -0.65625,0.17188 -0.21875,0.15625 -0.32813,0.4375 v 6.15625 h -1.25 v -7.75 z m 8.38893,0 h 3.95313 v 6.60937 h 2.53125 v 1.14063 h -6.48438 v -1.14063 h 2.64063 v -5.45312 h -2.64063 z m 2.46875,-2.03125 q 0,-0.32813 0.1875,-0.54688 0.20313,-0.23437 0.59375,-0.23437 0.40625,0 0.59375,0.23437 0.20313,0.21875 0.20313,0.54688 0,0.32812 -0.20313,0.54687 -0.1875,0.20313 -0.59375,0.20313 -0.39062,0 -0.59375,-0.20313 -0.1875,-0.21875 -0.1875,-0.54687 z m 9.24831,0.15625 v 1.875 h 2.95312 v 1.03125 h -2.95312 v 4.20312 q 0,0.45313 0.10937,0.75 0.125,0.29688 0.32813,0.46875 0.20312,0.17188 0.45312,0.25 0.26563,0.0625 0.5625,0.0625 0.21875,0 0.4375,-0.0156 0.23438,-0.0312 0.45313,-0.0625 0.21875,-0.0469 0.40625,-0.0781 0.1875,-0.0469 0.3125,-0.0625 l 0.1875,0.9375 q -0.17188,0.0937 -0.40625,0.17188 -0.23438,0.0781 -0.51563,0.125 -0.28125,0.0469 -0.59375,0.0781 -0.3125,0.0312 -0.60937,0.0312 -0.51563,0 -0.96875,-0.14062 -0.4375,-0.15625 -0.78125,-0.46875 -0.32813,-0.3125 -0.51563,-0.8125 -0.1875,-0.51563 -0.1875,-1.23438 v -4.20312 h -2.03125 v -1.03125 h 2.03125 v -1.875 z m 9.09206,9.76562 q -0.82813,0 -1.51563,-0.28125 -0.67187,-0.28125 -1.15625,-0.78125 -0.48437,-0.5 -0.76562,-1.1875 -0.26563,-0.6875 -0.26563,-1.48437 v -0.3125 q 0,-0.9375 0.29688,-1.67188 0.29687,-0.73437 0.79687,-1.25 0.5,-0.51562 1.125,-0.78125 0.64063,-0.28125 1.3125,-0.28125 0.82813,0 1.45313,0.29688 0.625,0.28125 1.03125,0.79687 0.42187,0.51563 0.625,1.21875 0.21875,0.6875 0.21875,1.48438 v 0.59375 h -5.53125 q 0.0156,0.53125 0.1875,1 0.1875,0.46875 0.5,0.8125 0.32812,0.34375 0.76562,0.54687 0.45313,0.20313 0.98438,0.20313 0.71875,0 1.26562,-0.28125 0.54688,-0.29688 0.90625,-0.76563 l 0.8125,0.625 q -0.1875,0.29688 -0.48437,0.57813 -0.28125,0.26562 -0.67188,0.46875 -0.375,0.20312 -0.85937,0.32812 -0.46875,0.125 -1.03125,0.125 z m -0.17188,-6.9375 q -0.40625,0 -0.76562,0.15625 -0.35938,0.14063 -0.64063,0.42188 -0.28125,0.28125 -0.48437,0.70312 -0.20313,0.40625 -0.28125,0.9375 h 4.17187 v -0.10937 q -0.0312,-0.375 -0.15625,-0.75 -0.125,-0.39063 -0.375,-0.6875 -0.23437,-0.29688 -0.60937,-0.48438 -0.35938,-0.1875 -0.85938,-0.1875 z m 5.29518,2.85938 q 0,-0.85938 0.21875,-1.57813 0.21875,-0.73437 0.60938,-1.25 0.40625,-0.53125 0.98437,-0.82812 0.57813,-0.29688 1.28125,-0.29688 0.6875,0 1.20313,0.23438 0.53125,0.23437 0.90625,0.67187 v -4.01562 h 1.32812 v 11 h -1.21875 l -0.0625,-0.8125 q -0.375,0.46875 -0.92187,0.71875 -0.53125,0.23437 -1.25,0.23437 -0.70313,0 -1.28125,-0.29687 -0.5625,-0.29688 -0.96875,-0.82813 -0.39063,-0.53125 -0.60938,-1.25 -0.21875,-0.71875 -0.21875,-1.54687 z m 1.3125,0.15625 q 0,0.5625 0.125,1.07812 0.125,0.5 0.375,0.89063 0.25,0.375 0.64063,0.60937 0.40625,0.21875 0.95312,0.21875 0.34375,0 0.60938,-0.0781 0.26562,-0.0781 0.48437,-0.21875 0.23438,-0.15625 0.40625,-0.35938 0.17188,-0.20312 0.29688,-0.45312 v -3.59375 q -0.25,-0.46875 -0.6875,-0.76563 -0.4375,-0.3125 -1.09375,-0.3125 -0.5625,0 -0.96875,0.23438 -0.39063,0.21875 -0.64063,0.60937 -0.25,0.39063 -0.375,0.90625 -0.125,0.51563 -0.125,1.07813 z m 21.66849,1.73437 q 0,-0.25 -0.0937,-0.4375 -0.0937,-0.1875 -0.3125,-0.34375 -0.21875,-0.15625 -0.59375,-0.28125 -0.35938,-0.14062 -0.90625,-0.25 -0.65625,-0.14062 -1.20313,-0.32812 -0.54687,-0.1875 -0.9375,-0.45313 -0.39062,-0.28125 -0.60937,-0.64062 -0.21875,-0.35938 -0.21875,-0.84375 0,-0.46875 0.21875,-0.875 0.21875,-0.40625 0.625,-0.71875 0.40625,-0.3125 0.95312,-0.48438 0.5625,-0.1875 1.21875,-0.1875 0.71875,0 1.28125,0.1875 0.57813,0.1875 0.98438,0.51563 0.40625,0.32812 0.625,0.78125 0.21875,0.4375 0.21875,0.9375 h -1.32813 q 0,-0.25 -0.14062,-0.48438 -0.125,-0.25 -0.35938,-0.42187 -0.21875,-0.1875 -0.54687,-0.29688 -0.32813,-0.125 -0.73438,-0.125 -0.42187,0 -0.73437,0.0937 -0.3125,0.0937 -0.53125,0.25 -0.20313,0.15625 -0.3125,0.375 -0.10938,0.20313 -0.10938,0.42188 0,0.21875 0.0781,0.40625 0.0937,0.17187 0.29687,0.32812 0.21875,0.14063 0.5625,0.25 0.35938,0.10938 0.90625,0.21875 0.71875,0.15625 1.28125,0.35938 0.5625,0.1875 0.95313,0.46875 0.39062,0.26562 0.59375,0.64062 0.20312,0.35938 0.20312,0.84375 0,0.51563 -0.23437,0.9375 -0.23438,0.42188 -0.65625,0.71875 -0.40625,0.29688 -0.98438,0.46875 -0.57812,0.15625 -1.26562,0.15625 -0.79688,0 -1.40625,-0.20312 -0.60938,-0.21875 -1.04688,-0.5625 -0.42187,-0.34375 -0.65625,-0.79688 -0.21875,-0.46875 -0.21875,-0.96875 h 1.32813 q 0.0312,0.42188 0.21875,0.70313 0.1875,0.26562 0.46875,0.4375 0.28125,0.17187 0.625,0.25 0.34375,0.0625 0.6875,0.0625 0.82812,0 1.3125,-0.29688 0.5,-0.3125 0.5,-0.8125 z m 6.49831,-0.70312 0.34375,0.9375 2.35937,-5.9375 h 1.48438 l -3.9375,8.9375 q -0.125,0.3125 -0.34375,0.64062 -0.20313,0.34375 -0.51563,0.625 -0.29687,0.28125 -0.70312,0.46875 -0.39063,0.20313 -0.90625,0.20313 -0.0937,0 -0.21875,-0.0156 -0.10938,0 -0.23438,-0.0312 -0.10937,-0.0156 -0.21875,-0.0312 -0.0937,-0.0156 -0.15625,-0.0312 l 0.21875,-1.07812 q 0.0469,0 0.125,0 0.0937,0.0156 0.1875,0.0156 0.0937,0 0.17188,0 0.0937,0.0156 0.14062,0.0156 0.28125,0 0.5,-0.15625 0.23438,-0.14063 0.40625,-0.35938 0.17188,-0.20312 0.29688,-0.42187 0.125,-0.21875 0.20312,-0.35938 l 0.53125,-1.03125 -3.34375,-7.39062 h 1.48438 z m 11.09205,0.70312 q 0,-0.25 -0.0937,-0.4375 -0.0937,-0.1875 -0.3125,-0.34375 -0.21875,-0.15625 -0.59375,-0.28125 -0.35937,-0.14062 -0.90625,-0.25 -0.65625,-0.14062 -1.20312,-0.32812 -0.54688,-0.1875 -0.9375,-0.45313 -0.39063,-0.28125 -0.60938,-0.64062 -0.21875,-0.35938 -0.21875,-0.84375 0,-0.46875 0.21875,-0.875 0.21875,-0.40625 0.625,-0.71875 0.40625,-0.3125 0.95313,-0.48438 0.5625,-0.1875 1.21875,-0.1875 0.71875,0 1.28125,0.1875 0.57812,0.1875 0.98437,0.51563 0.40625,0.32812 0.625,0.78125 0.21875,0.4375 0.21875,0.9375 h -1.32812 q 0,-0.25 -0.14063,-0.48438 -0.125,-0.25 -0.35937,-0.42187 -0.21875,-0.1875 -0.54688,-0.29688 -0.32812,-0.125 -0.73437,-0.125 -0.42188,0 -0.73438,0.0937 -0.3125,0.0937 -0.53125,0.25 -0.20312,0.15625 -0.3125,0.375 -0.10937,0.20313 -0.10937,0.42188 0,0.21875 0.0781,0.40625 0.0937,0.17187 0.29688,0.32812 0.21875,0.14063 0.5625,0.25 0.35937,0.10938 0.90625,0.21875 0.71875,0.15625 1.28125,0.35938 0.5625,0.1875 0.95312,0.46875 0.39063,0.26562 0.59375,0.64062 0.20313,0.35938 0.20313,0.84375 0,0.51563 -0.23438,0.9375 -0.23437,0.42188 -0.65625,0.71875 -0.40625,0.29688 -0.98437,0.46875 -0.57813,0.15625 -1.26563,0.15625 -0.79687,0 -1.40625,-0.20312 -0.60937,-0.21875 -1.04687,-0.5625 -0.42188,-0.34375 -0.65625,-0.79688 -0.21875,-0.46875 -0.21875,-0.96875 h 1.32812 q 0.0312,0.42188 0.21875,0.70313 0.1875,0.26562 0.46875,0.4375 0.28125,0.17187 0.625,0.25 0.34375,0.0625 0.6875,0.0625 0.82813,0 1.3125,-0.29688 0.5,-0.3125 0.5,-0.8125 z m 6.77957,-7.57812 v 1.875 h 2.95313 v 1.03125 h -2.95313 v 4.20312 q 0,0.45313 0.10938,0.75 0.125,0.29688 0.32812,0.46875 0.20313,0.17188 0.45313,0.25 0.26562,0.0625 0.5625,0.0625 0.21875,0 0.4375,-0.0156 0.23437,-0.0312 0.45312,-0.0625 0.21875,-0.0469 0.40625,-0.0781 0.1875,-0.0469 0.3125,-0.0625 l 0.1875,0.9375 q -0.17187,0.0937 -0.40625,0.17188 -0.23437,0.0781 -0.51562,0.125 -0.28125,0.0469 -0.59375,0.0781 -0.3125,0.0312 -0.60938,0.0312 -0.51562,0 -0.96875,-0.14062 -0.4375,-0.15625 -0.78125,-0.46875 -0.32812,-0.3125 -0.51562,-0.8125 -0.1875,-0.51563 -0.1875,-1.23438 v -4.20312 h -2.03127 v -1.03125 h 2.03127 v -1.875 z m 9.09204,9.76562 q -0.82812,0 -1.51562,-0.28125 -0.67188,-0.28125 -1.15625,-0.78125 -0.48438,-0.5 -0.76563,-1.1875 -0.26562,-0.6875 -0.26562,-1.48437 v -0.3125 q 0,-0.9375 0.29687,-1.67188 0.29688,-0.73437 0.79688,-1.25 0.5,-0.51562 1.125,-0.78125 0.64062,-0.28125 1.3125,-0.28125 0.82812,0 1.45312,0.29688 0.625,0.28125 1.03125,0.79687 0.42188,0.51563 0.625,1.21875 0.21875,0.6875 0.21875,1.48438 v 0.59375 h -5.53125 q 0.0156,0.53125 0.1875,1 0.1875,0.46875 0.5,0.8125 0.32813,0.34375 0.76563,0.54687 0.45312,0.20313 0.98437,0.20313 0.71875,0 1.26563,-0.28125 0.54687,-0.29688 0.90625,-0.76563 l 0.8125,0.625 q -0.1875,0.29688 -0.48438,0.57813 -0.28125,0.26562 -0.67187,0.46875 -0.375,0.20312 -0.85938,0.32812 -0.46875,0.125 -1.03125,0.125 z m -0.17187,-6.9375 q -0.40625,0 -0.76563,0.15625 -0.35937,0.14063 -0.64062,0.42188 -0.28125,0.28125 -0.48438,0.70312 -0.20312,0.40625 -0.28125,0.9375 h 4.17188 v -0.10937 q -0.0312,-0.375 -0.15625,-0.75 -0.125,-0.39063 -0.375,-0.6875 -0.23438,-0.29688 -0.60938,-0.48438 -0.35937,-0.1875 -0.85937,-0.1875 z m 6.15454,-0.95312 0.0312,0.73437 q 0.23438,-0.40625 0.60938,-0.625 0.39062,-0.23437 0.9375,-0.25 1.0625,0 1.42187,0.82813 0.23438,-0.35938 0.60938,-0.57813 0.375,-0.23437 0.90625,-0.25 0.85937,0 1.3125,0.53125 0.45312,0.51563 0.45312,1.57813 v 5.78125 h -1.25 v -5.79688 q 0,-0.96875 -0.90625,-0.96875 -0.23437,0 -0.40625,0.0625 -0.17187,0.0625 -0.28125,0.1875 -0.10937,0.10938 -0.1875,0.25 -0.0625,0.14063 -0.0781,0.29688 v 5.96875 h -1.26563 v -5.79688 q 0,-0.46875 -0.20312,-0.71875 -0.20313,-0.25 -0.65625,-0.25 -0.42188,0 -0.65625,0.17188 -0.21875,0.15625 -0.32813,0.4375 v 6.15625 h -1.25 v -7.75 z m 20.27789,6.8125 q 0.35938,0 0.6875,-0.10938 0.34375,-0.10937 0.60938,-0.3125 0.26562,-0.20312 0.42187,-0.48437 0.17188,-0.28125 0.17188,-0.59375 h 1.25 q 0,0.51562 -0.26563,0.98437 -0.26562,0.46875 -0.70312,0.82813 -0.42188,0.34375 -1,0.5625 -0.5625,0.20312 -1.17188,0.20312 -0.875,0 -1.54687,-0.3125 -0.65625,-0.3125 -1.09375,-0.84375 -0.4375,-0.53125 -0.67188,-1.23437 -0.21875,-0.70313 -0.21875,-1.46875 v -0.29688 q 0,-0.76562 0.21875,-1.46875 0.23438,-0.70312 0.67188,-1.23437 0.4375,-0.53125 1.09375,-0.84375 0.67187,-0.32813 1.54687,-0.32813 0.6875,0 1.26563,0.21875 0.57812,0.21875 0.98437,0.59375 0.42188,0.375 0.65625,0.89063 0.23438,0.51562 0.23438,1.10937 h -1.25 q 0,-0.35937 -0.15625,-0.65625 -0.14063,-0.3125 -0.39063,-0.54687 -0.25,-0.25 -0.60937,-0.375 -0.34375,-0.14063 -0.73438,-0.14063 -0.625,0 -1.04687,0.25 -0.40625,0.23438 -0.67188,0.64063 -0.25,0.39062 -0.35937,0.89062 -0.10938,0.5 -0.10938,1 v 0.29688 q 0,0.5 0.10938,1 0.10937,0.5 0.35937,0.90625 0.25,0.39062 0.67188,0.64062 0.42187,0.23438 1.04687,0.23438 z m 10.57642,0.9375 q -0.0781,-0.15625 -0.125,-0.375 -0.0469,-0.21875 -0.0625,-0.46875 -0.20313,0.20312 -0.45313,0.39062 -0.23437,0.17188 -0.53125,0.3125 -0.29687,0.125 -0.64062,0.20313 -0.34375,0.0781 -0.71875,0.0781 -0.60938,0 -1.10938,-0.17187 -0.5,-0.1875 -0.84375,-0.48438 -0.34375,-0.3125 -0.54687,-0.71875 -0.1875,-0.42187 -0.1875,-0.90625 0,-0.64062 0.25,-1.125 0.26562,-0.48437 0.73437,-0.79687 0.46875,-0.3125 1.10938,-0.46875 0.65625,-0.15625 1.46875,-0.15625 h 1.45312 v -0.60938 q 0,-0.35937 -0.14062,-0.64062 -0.125,-0.28125 -0.35938,-0.46875 -0.23437,-0.20313 -0.57812,-0.29688 -0.34375,-0.10937 -0.76563,-0.10937 -0.39062,0 -0.70312,0.0937 -0.3125,0.0937 -0.53125,0.26562 -0.20313,0.15625 -0.32813,0.39063 -0.10937,0.21875 -0.10937,0.46875 h -1.32813 q 0,-0.42188 0.20313,-0.82813 0.21875,-0.40625 0.60937,-0.73437 0.40625,-0.32813 0.96875,-0.53125 0.57813,-0.20313 1.29688,-0.20313 0.65625,0 1.21875,0.17188 0.5625,0.15625 0.96875,0.48437 0.42187,0.32813 0.65625,0.8125 0.23437,0.48438 0.23437,1.14063 v 3.59375 q 0,0.39062 0.0625,0.82812 0.0781,0.42188 0.21875,0.75 v 0.10938 z m -2.32813,-1.01563 q 0.375,0 0.70313,-0.0937 0.34375,-0.0937 0.625,-0.25 0.28125,-0.17187 0.46875,-0.375 0.20312,-0.21875 0.32812,-0.45312 v -1.5625 h -1.23437 q -1.15625,0 -1.8125,0.34375 -0.64063,0.34375 -0.64063,1.07812 0,0.28125 0.0937,0.53125 0.10938,0.23438 0.29688,0.42188 0.1875,0.17187 0.48437,0.26562 0.29688,0.0937 0.6875,0.0937 z m 6.2483,-9.98437 h 3.95312 v 9.85937 h 2.53125 v 1.14063 h -6.48437 v -1.14063 h 2.64062 v -8.70312 h -2.64062 z m 8.79519,0 h 3.95313 v 9.85937 h 2.53125 v 1.14063 h -6.48438 v -1.14063 h 2.64063 v -8.70312 h -2.64063 z m 13.7327,8.95312 q 0,-0.25 -0.0937,-0.4375 -0.0937,-0.1875 -0.3125,-0.34375 -0.21875,-0.15625 -0.59375,-0.28125 -0.35938,-0.14062 -0.90625,-0.25 -0.65625,-0.14062 -1.20313,-0.32812 -0.54687,-0.1875 -0.9375,-0.45313 -0.39062,-0.28125 -0.60937,-0.64062 -0.21875,-0.35938 -0.21875,-0.84375 0,-0.46875 0.21875,-0.875 0.21875,-0.40625 0.625,-0.71875 0.40625,-0.3125 0.95312,-0.48438 0.5625,-0.1875 1.21875,-0.1875 0.71875,0 1.28125,0.1875 0.57813,0.1875 0.98438,0.51563 0.40625,0.32812 0.625,0.78125 0.21875,0.4375 0.21875,0.9375 h -1.32813 q 0,-0.25 -0.14062,-0.48438 -0.125,-0.25 -0.35938,-0.42187 -0.21875,-0.1875 -0.54687,-0.29688 -0.32813,-0.125 -0.73438,-0.125 -0.42187,0 -0.73437,0.0937 -0.3125,0.0937 -0.53125,0.25 -0.20313,0.15625 -0.3125,0.375 -0.10938,0.20313 -0.10938,0.42188 0,0.21875 0.0781,0.40625 0.0937,0.17187 0.29687,0.32812 0.21875,0.14063 0.5625,0.25 0.35938,0.10938 0.90625,0.21875 0.71875,0.15625 1.28125,0.35938 0.5625,0.1875 0.95313,0.46875 0.39062,0.26562 0.59375,0.64062 0.20312,0.35938 0.20312,0.84375 0,0.51563 -0.23437,0.9375 -0.23438,0.42188 -0.65625,0.71875 -0.40625,0.29688 -0.98438,0.46875 -0.57812,0.15625 -1.26562,0.15625 -0.79688,0 -1.40625,-0.20312 -0.60938,-0.21875 -1.04688,-0.5625 -0.42187,-0.34375 -0.65625,-0.79688 -0.21875,-0.46875 -0.21875,-0.96875 h 1.32813 q 0.0312,0.42188 0.21875,0.70313 0.1875,0.26562 0.46875,0.4375 0.28125,0.17187 0.625,0.25 0.34375,0.0625 0.6875,0.0625 0.82812,0 1.3125,-0.29688 0.5,-0.3125 0.5,-0.8125 z"
       id="path29"
       inkscape:connector-curvature="0"
       style="fill:#000000;fill-rule:nonzero" />
    <path
       d="m 399.7821,258.97388 93.82678,-58.80313 22.29919,35.59055 -93.82675,58.80316 z"
       id="path31"
       inkscape:connector-curvature="0"
       style="fill:#000000;fill-opacity:0;fill-rule:evenodd" />
    <path
       d="m 425.0117,268.51776 q -0.28207,-0.4502 -0.67148,-0.63028 -0.3894,-0.18005 -0.8316,-0.17953 -0.45047,-0.0127 -0.91739,0.0955 -0.47522,0.095 -0.89411,0.19155 -0.6159,0.16471 -1.28652,0.27152 -0.66568,0.0853 -1.31,0.0281 -0.65259,-0.0704 -1.22098,-0.35962 -0.55518,-0.29746 -0.94507,-0.91977 -0.38992,-0.62232 -0.43207,-1.2782 -0.0289,-0.66416 0.2006,-1.26898 0.23446,-0.62638 0.68267,-1.14701 0.46146,-0.52893 1.03077,-0.88574 0.63549,-0.39828 1.3508,-0.55151 0.70697,-0.16648 1.3977,-0.0646 0.68246,0.0886 1.28738,0.46555 0.60987,0.35537 1.03791,1.00912 l -1.25778,0.78827 q -0.31012,-0.37726 -0.6847,-0.62195 -0.36133,-0.25299 -0.7622,-0.33368 -0.40918,-0.0939 -0.84961,-0.002 -0.42722,0.0833 -0.86411,0.35715 -0.34424,0.21576 -0.6221,0.53742 -0.27292,0.30011 -0.41327,0.66467 -0.12714,0.35629 -0.10348,0.74716 0.0236,0.39084 0.26422,0.77484 0.27041,0.40216 0.65152,0.569 0.39435,0.15854 0.8233,0.16629 0.44217,-5.2e-4 0.89584,-0.10046 0.45368,-0.0999 0.8295,-0.20636 0.43216,-0.10489 0.88086,-0.18326 0.45368,-0.0999 0.90082,-0.12201 0.46039,-0.0304 0.90097,0.0254 0.43231,0.0425 0.83496,0.21433 0.40759,0.15024 0.75073,0.43304 0.34809,0.26129 0.62186,0.69824 0.40649,0.64881 0.42218,1.32126 0.007,0.65921 -0.2569,1.2674 -0.25103,0.59991 -0.72574,1.13711 -0.46975,0.51569 -1.03906,0.8725 -0.64877,0.40659 -1.39548,0.59796 -0.73345,0.18308 -1.45562,0.11936 -0.7172,-0.0853 -1.35355,-0.42408 -0.64465,-0.35202 -1.10254,-1.02395 l 1.25778,-0.78827 q 0.33503,0.41699 0.73609,0.64511 0.40103,0.22809 0.84994,0.29712 0.44062,0.0558 0.8992,-0.0657 0.45862,-0.12146 0.90879,-0.40357 0.35748,-0.22403 0.65191,-0.51923 0.28617,-0.30841 0.43482,-0.65972 0.15359,-0.37287 0.15152,-0.75879 -0.0104,-0.39917 -0.25928,-0.79639 z m 1.94254,-10.21616 1.08676,1.73453 2.72738,-1.70929 0.58902,0.9401 -2.72738,1.70929 2.43902,3.89279 q 0.26548,0.4237 0.5456,0.63537 0.27185,0.19843 0.55673,0.24115 0.28491,0.0427 0.56473,-0.0404 0.29303,-0.0914 0.55783,-0.25739 0.19857,-0.12448 0.40213,-0.27048 0.19525,-0.15924 0.37722,-0.31018 0.18696,-0.17248 0.3342,-0.32006 0.14722,-0.14762 0.24979,-0.24878 l 0.71963,0.76602 q -0.1008,0.19226 -0.28439,0.39953 -0.17035,0.19898 -0.40195,0.41788 -0.21838,0.2106 -0.49307,0.41965 -0.26144,0.20074 -0.5527,0.38327 -0.47663,0.29871 -0.97003,0.42355 -0.50168,0.11157 -0.98871,0.0111 -0.48703,-0.10046 -0.96274,-0.44772 -0.47077,-0.36878 -0.88556,-1.03083 l -2.43903,-3.89279 -1.88003,1.17829 -0.58902,-0.9401 1.88003,-1.17828 -1.08676,-1.73453 z m 10.94021,-4.62523 q 0.17212,-0.10786 0.36579,-0.2108 0.18533,-0.11616 0.3608,-0.18925 0.18873,-0.0814 0.35926,-0.13293 0.1622,-0.0648 0.27978,-0.0832 l 0.57453,1.29954 q -0.40726,0.14459 -0.74161,0.31725 -0.34262,0.15942 -0.70011,0.38345 -0.86059,0.53935 -1.14129,1.26848 -0.289,0.71588 -0.10086,1.57528 l 2.87869,4.59455 -1.23129,0.7717 -4.48813,-7.16327 1.1651,-0.73018 0.76642,1.10551 q 0.0636,-0.86966 0.46521,-1.58236 0.40658,-0.73424 1.18771,-1.22381 z m 5.37287,1.70373 q -0.48118,-0.76798 -0.67087,-1.57107 -0.19803,-0.81634 -0.0813,-1.57177 0.1167,-0.75543 0.53827,-1.40688 0.43481,-0.65974 1.18948,-1.1327 0.75467,-0.47297 1.5379,-0.5766 0.78327,-0.10364 1.50065,0.12904 0.73062,0.22438 1.37878,0.75861 0.63986,0.52098 1.12103,1.28894 l 0.0913,0.14564 q 0.48944,0.78121 0.67917,1.58431 0.18973,0.8031 0.073,1.55853 -0.10349,0.74713 -0.53827,1.40688 -0.4216,0.65144 -1.17624,1.1244 -0.76792,0.48126 -1.55115,0.5849 -0.77002,0.0953 -1.50064,-0.12906 -0.73062,-0.22436 -1.37048,-0.74536 -0.6399,-0.52097 -1.12934,-1.30217 z m 1.32257,-0.62604 q 0.33181,0.52963 0.75793,0.94487 0.43106,0.39369 0.91489,0.60676 0.47555,0.19986 0.99225,0.17108 0.51669,-0.0288 1.03302,-0.35238 0.50311,-0.31532 0.74108,-0.75951 0.25123,-0.45248 0.27878,-0.96763 0.0325,-0.5367 -0.14697,-1.08805 -0.17456,-0.57287 -0.50641,-1.10251 l -0.0912,-0.14564 q -0.32354,-0.51639 -0.75457,-0.91008 -0.43937,-0.40694 -0.91492,-0.60678 -0.48383,-0.21309 -1.00052,-0.18431 -0.51669,0.0288 -1.01981,0.34408 -0.51635,0.32361 -0.76754,0.7761 -0.23798,0.44418 -0.25727,0.97258 -0.0276,0.51515 0.14701,1.08804 0.1795,0.55134 0.50302,1.06773 z m 6.05795,-8.88608 0.75635,1.00117 q 0.0355,-0.79675 0.40573,-1.47132 0.37021,-0.67456 1.0719,-1.11434 0.5693,-0.35681 1.11902,-0.48002 0.56295,-0.13154 1.0964,0.0136 0.53839,0.12358 1.03403,0.5321 0.50891,0.40022 0.95691,1.11522 l 2.85379,4.55482 -1.2313,0.77167 -2.83721,-4.52833 q -0.29865,-0.47667 -0.61197,-0.74131 -0.31333,-0.26463 -0.6496,-0.33049 -0.33133,-0.0874 -0.69391,0.0108 -0.36258,0.0982 -0.74655,0.33879 -0.62225,0.38998 -0.88654,0.99818 -0.27258,0.59496 -0.23538,1.27236 l 3.21884,5.1374 -1.23129,0.77168 -4.48813,-7.16325 z m 9.01855,-0.74709 q -0.50604,-0.80767 -0.72226,-1.59419 -0.22448,-0.79974 -0.15243,-1.50874 0.0638,-0.72223 0.42743,-1.31896 0.35538,-0.60995 1.01736,-1.02484 0.66199,-0.41487 1.31443,-0.49185 0.64413,-0.0902 1.27044,0.14423 l -0.42328,-0.8227 1.11216,-0.69699 4.38855,7.00435 q 0.44799,0.71501 0.56305,1.39894 0.12335,0.69716 -0.0332,1.33008 -0.15661,0.6329 -0.58826,1.18002 -0.43161,0.54711 -1.10684,0.97028 -0.27804,0.17426 -0.677,0.33209 -0.39065,0.17107 -0.85263,0.25775 -0.46194,0.0867 -0.95551,0.0641 -0.48031,-0.0309 -0.94757,-0.2175 l 0.17093,-1.13977 q 0.39929,0.13701 0.75376,0.17302 0.35446,0.036 0.65912,-0.007 0.32623,-0.0385 0.59771,-0.13488 0.28476,-0.10469 0.53632,-0.26235 0.43689,-0.27382 0.69818,-0.62196 0.28281,-0.3432 0.36349,-0.74414 0.10224,-0.39598 0.0106,-0.83646 -0.0916,-0.44047 -0.38192,-0.9039 l -0.38993,-0.62231 q -0.10031,0.63449 -0.44912,1.16659 -0.34391,0.51056 -0.99265,0.91715 -0.64874,0.40658 -1.35257,0.46043 -0.70379,0.0538 -1.38144,-0.20372 -0.67767,-0.25758 -1.29107,-0.79515 -0.62168,-0.55081 -1.10285,-1.31879 z m 1.31427,-0.63926 q 0.33182,0.52963 0.73642,0.93991 0.39627,0.39705 0.85859,0.60519 0.46228,0.20815 0.95251,0.19596 0.49515,-0.0337 0.99826,-0.34903 0.31775,-0.19915 0.5278,-0.42301 0.21503,-0.24539 0.33066,-0.50226 0.10736,-0.27011 0.15009,-0.55505 0.0344,-0.29819 0.004,-0.61121 l -2.05741,-3.28369 q -0.26019,-0.15042 -0.53521,-0.23622 -0.27503,-0.0858 -0.56983,-0.0855 -0.28155,-0.008 -0.58288,0.0703 -0.30133,0.0782 -0.60584,0.26906 -0.51636,0.3236 -0.75433,0.76779 -0.22473,0.43588 -0.23074,0.95599 -0.0143,0.50685 0.1784,1.0499 0.18445,0.52981 0.51627,1.05943 z"
       id="path33"
       inkscape:connector-curvature="0"
       style="fill:#000000;fill-rule:nonzero" />
    <path
       d="m 427.29218,282.92847 3.65417,-2.29013 3.82444,6.104 2.34344,-1.46869 0.66367,1.05927 -5.99759,3.75882 -0.6637,-1.05927 2.43613,-1.52676 -3.16077,-5.04474 -2.43612,1.52676 z m 1.09921,-3.30737 q -0.19082,-0.30454 -0.15143,-0.62424 0.0526,-0.32803 0.42334,-0.56036 0.3707,-0.23233 0.68879,-0.13666 0.31811,0.0957 0.50891,0.40024 0.18252,0.29129 0.12158,0.60608 -0.0609,0.31475 -0.43161,0.54708 -0.37073,0.23237 -0.68051,0.14991 -0.29657,-0.0907 -0.47907,-0.38205 z m 14.8978,0.60241 q -0.13272,-0.21185 -0.33325,-0.32589 -0.19559,-0.13559 -0.49866,-0.14847 -0.28986,-0.0212 -0.70877,0.0754 -0.40564,0.0883 -0.97513,0.29764 -0.69693,0.27084 -1.30789,0.414 -0.61923,0.12994 -1.14758,0.11071 -0.51511,-0.0276 -0.92108,-0.2341 -0.40601,-0.20654 -0.68808,-0.65673 -0.27375,-0.43695 -0.30744,-0.93216 -0.0288,-0.51673 0.16773,-1.02713 0.1882,-0.52362 0.60501,-1.00614 0.40851,-0.49573 1.01751,-0.87741 0.66199,-0.41489 1.29944,-0.57464 0.63742,-0.15979 1.19895,-0.0876 0.56152,0.0722 1.0173,0.35822 0.46072,0.26446 0.75937,0.74111 l -1.23129,0.77167 q -0.14933,-0.23831 -0.40122,-0.37549 -0.26019,-0.15042 -0.57989,-0.18979 -0.31967,-0.0394 -0.69056,0.0456 -0.35763,0.0766 -0.7416,0.31723 -0.38394,0.24063 -0.63037,0.52417 -0.24152,0.26199 -0.34885,0.5321 -0.0941,0.26181 -0.0756,0.5268 0.0235,0.24347 0.14792,0.44207 0.13272,0.21186 0.32,0.3342 0.17902,0.1091 0.44733,0.12534 0.28156,0.008 0.67889,-0.0936 0.39737,-0.1015 0.96686,-0.31088 0.74494,-0.28247 1.37744,-0.42072 0.64573,-0.14654 1.16083,-0.11898 0.51508,0.0275 0.91614,0.25561 0.39276,0.21484 0.67483,0.66504 0.29865,0.47668 0.3357,1.00665 0.0288,0.51676 -0.181,1.03543 -0.20975,0.51868 -0.65302,1.01779 -0.43832,0.47754 -1.07382,0.87583 -0.72821,0.45636 -1.42194,0.61456 -0.69375,0.15817 -1.29003,0.0893 -0.59632,-0.0688 -1.07361,-0.35981 -0.46408,-0.29922 -0.75443,-0.76266 l 1.21805,-0.76337 q 0.26706,0.36737 0.6051,0.52433 0.34299,0.1354 0.69409,0.13665 0.36435,-0.007 0.72358,-0.14001 0.35922,-0.13294 0.67697,-0.33206 0.76791,-0.48127 1.04385,-1.04145 0.26764,-0.57342 -0.0178,-1.05838 z m 1.93024,-3.64379 q -0.48117,-0.76795 -0.6709,-1.57105 -0.19803,-0.81634 -0.0813,-1.57178 0.1167,-0.75543 0.5383,-1.40689 0.43478,-0.65973 1.18945,-1.13269 0.75467,-0.47296 1.5379,-0.5766 0.78327,-0.10364 1.50065,0.12906 0.73062,0.22437 1.37878,0.75858 0.63989,0.52099 1.12103,1.28897 l 0.0913,0.14563 q 0.48944,0.78122 0.67917,1.58429 0.18973,0.8031 0.073,1.55853 -0.10346,0.74713 -0.53827,1.40689 -0.42157,0.65146 -1.17624,1.12442 -0.76791,0.48126 -1.55115,0.5849 -0.77002,0.0953 -1.50064,-0.12906 -0.73062,-0.22439 -1.37048,-0.74536 -0.6399,-0.521 -1.12934,-1.30218 z m 1.32254,-0.62601 q 0.33184,0.52963 0.75793,0.94485 0.43106,0.39368 0.91492,0.60678 0.47552,0.19983 0.99222,0.17105 0.51669,-0.0288 1.03305,-0.35238 0.50308,-0.31531 0.74109,-0.75949 0.25119,-0.45249 0.27877,-0.96762 0.0325,-0.53672 -0.147,-1.08805 -0.17456,-0.5729 -0.50638,-1.10251 l -0.0913,-0.14566 q -0.32354,-0.51638 -0.75457,-0.91009 -0.43936,-0.40692 -0.91492,-0.60675 -0.48383,-0.21311 -1.00052,-0.18433 -0.51669,0.0288 -1.01981,0.34409 -0.51632,0.32361 -0.76754,0.77609 -0.23798,0.44418 -0.25727,0.9726 -0.0276,0.51513 0.14701,1.08801 0.1795,0.55136 0.50305,1.06775 z m 3.27447,-11.32752 3.65415,-2.29013 5.70764,9.10962 2.34344,-1.46866 0.66367,1.05927 -5.99759,3.75879 -0.6637,-1.05924 2.43613,-1.52676 -5.04395,-8.05039 -2.43612,1.52677 z m 19.02185,2.24054 q -0.17068,-0.0959 -0.33484,-0.26959 -0.17245,-0.18695 -0.33996,-0.39545 -0.0692,0.30155 -0.18647,0.61472 -0.12551,0.29996 -0.32058,0.6066 -0.20337,0.29342 -0.47965,0.55877 -0.25473,0.2703 -0.59897,0.48603 -0.5693,0.35681 -1.13223,0.48834 -0.57126,0.11829 -1.06323,0.0394 -0.50025,-0.0922 -0.92621,-0.35999 -0.41269,-0.27609 -0.69476,-0.72629 -0.37329,-0.59582 -0.40876,-1.18213 -0.0438,-0.59954 0.19742,-1.15637 0.2544,-0.56512 0.75891,-1.08416 0.5178,-0.52732 1.27247,-1.00031 l 1.33718,-0.83804 -0.35672,-0.56937 q -0.19909,-0.31778 -0.47589,-0.49466 -0.28506,-0.19012 -0.62628,-0.23444 -0.32797,-0.0526 -0.7038,0.0538 -0.38412,0.0932 -0.76809,0.33386 -0.3707,0.23233 -0.60391,0.50757 -0.21994,0.26691 -0.319,0.55026 -0.10734,0.27011 -0.0937,0.55664 0.0268,0.27826 0.16784,0.50333 l -1.23129,0.7717 q -0.23566,-0.40552 -0.28259,-0.89243 -0.042,-0.50845 0.14624,-1.03207 0.1799,-0.5369 0.58011,-1.04587 0.41342,-0.51727 1.08865,-0.94043 0.60904,-0.38171 1.21664,-0.55966 0.62085,-0.18625 1.18238,-0.11405 0.57473,0.0639 1.06863,0.38132 0.50714,0.30914 0.88046,0.90497 l 2.09058,3.33667 q 0.224,0.35748 0.53909,0.71322 0.31507,0.35575 0.62503,0.58561 l 0.0664,0.10592 z m -2.76031,0.42072 q 0.35745,-0.22403 0.60391,-0.50757 0.25967,-0.29184 0.41998,-0.59512 0.16522,-0.32486 0.23444,-0.62641 0.0609,-0.31476 0.0341,-0.59298 l -0.91257,-1.45649 -1.13861,0.7136 q -1.07242,0.67208 -1.46912,1.36328 -0.39666,0.69116 0.0347,1.37967 0.1659,0.26483 0.38638,0.44012 0.23371,0.16702 0.50538,0.21805 0.28491,0.0427 0.60778,-0.0306 0.33609,-0.0816 0.69358,-0.3056 z m 3.50738,-13.28061 1.08679,1.73454 2.72739,-1.70932 0.58899,0.9401 -2.72736,1.7093 2.439,3.89279 q 0.26547,0.42371 0.54562,0.63538 0.27182,0.19842 0.55674,0.24115 0.28491,0.0427 0.56469,-0.0404 0.29303,-0.0914 0.55783,-0.25738 0.19861,-0.12448 0.40213,-0.27048 0.19525,-0.15924 0.37726,-0.31018 0.18695,-0.17249 0.33417,-0.32007 0.14725,-0.14761 0.24982,-0.24875 l 0.71963,0.76602 q -0.1008,0.19223 -0.28439,0.39951 -0.17035,0.19897 -0.40198,0.41788 -0.21835,0.21063 -0.49304,0.41964 -0.26145,0.20075 -0.55274,0.38327 -0.47662,0.29874 -0.97,0.42356 -0.50171,0.11157 -0.98871,0.0111 -0.48703,-0.10044 -0.96273,-0.4477 -0.4708,-0.3688 -0.88559,-1.03085 l -2.43903,-3.89276 -1.88003,1.17825 -0.58902,-0.94009 1.88006,-1.17826 -1.08679,-1.73454 z m 6.5217,-1.67163 3.65414,-2.29015 3.82447,6.10399 2.34341,-1.46867 0.6637,1.05926 -5.99759,3.75881 -0.6637,-1.05927 2.43613,-1.52673 -3.16077,-5.04474 -2.43612,1.52676 z m 1.09921,-3.30737 q -0.19082,-0.30454 -0.15143,-0.62426 0.0526,-0.32803 0.42331,-0.56036 0.37073,-0.23233 0.68882,-0.13664 0.31808,0.0957 0.50891,0.40022 0.18249,0.29129 0.12158,0.60608 -0.0609,0.31477 -0.43161,0.5471 -0.37073,0.23233 -0.68051,0.14989 -0.29657,-0.0907 -0.47907,-0.38203 z m 8.6922,2.05749 q -0.48117,-0.76796 -0.6709,-1.57106 -0.19799,-0.81635 -0.0813,-1.57176 0.11673,-0.75543 0.53829,-1.40689 0.43482,-0.65975 1.18949,-1.13271 0.75467,-0.47296 1.5379,-0.5766 0.78323,-0.10364 1.50061,0.12905 0.73062,0.22439 1.37882,0.7586 0.63986,0.52098 1.12103,1.28894 l 0.0913,0.14566 q 0.48947,0.78121 0.6792,1.58429 0.18972,0.8031 0.073,1.55853 -0.10348,0.74714 -0.5383,1.40688 -0.42157,0.65144 -1.17623,1.12442 -0.76789,0.48126 -1.55115,0.58489 -0.76999,0.0953 -1.50061,-0.12905 -0.73062,-0.22438 -1.37052,-0.74536 -0.63986,-0.52098 -1.12933,-1.30218 z m 1.32254,-0.62602 q 0.33185,0.52962 0.75797,0.94485 0.43103,0.39369 0.91488,0.60678 0.47556,0.19985 0.99222,0.17107 0.5167,-0.0288 1.03305,-0.35239 0.50312,-0.3153 0.74109,-0.7595 0.25122,-0.45247 0.27878,-0.96764 0.0325,-0.53668 -0.147,-1.08803 -0.17453,-0.57289 -0.50638,-1.10252 l -0.0913,-0.14565 q -0.32355,-0.51638 -0.75461,-0.91008 -0.43933,-0.40693 -0.91488,-0.60678 -0.48386,-0.21307 -1.00055,-0.18429 -0.51667,0.0288 -1.01978,0.34408 -0.51636,0.32361 -0.76758,0.7761 -0.23797,0.44418 -0.25723,0.97258 -0.0276,0.51515 0.14697,1.08802 0.17951,0.55135 0.50306,1.06774 z m 6.05796,-8.8861 0.75637,1.00118 q 0.0355,-0.79674 0.40574,-1.47131 0.37017,-0.67458 1.07189,-1.11435 0.56931,-0.3568 1.11902,-0.48003 0.56293,-0.13153 1.09638,0.0136 0.53839,0.12358 1.03406,0.53211 0.50891,0.40022 0.95687,1.11521 l 2.85382,4.55483 -1.23129,0.77167 -2.83722,-4.52834 q -0.29867,-0.47665 -0.61197,-0.7413 -0.31332,-0.26463 -0.64959,-0.33049 -0.33133,-0.0874 -0.69394,0.0108 -0.36258,0.0982 -0.74652,0.33879 -0.62226,0.39 -0.88657,0.99819 -0.27258,0.59495 -0.23535,1.27235 l 3.21884,5.13741 -1.23129,0.77168 -4.48813,-7.16324 z"
       id="path35"
       inkscape:connector-curvature="0"
       style="fill:#000000;fill-rule:nonzero" />
    <defs
       id="defs42">
      <linearGradient
         id="p.1"
         gradientUnits="userSpaceOnUse"
         gradientTransform="scale(5.7891087)"
         spreadMethod="pad"
         x1="57.351791"
         y1="49.415241"
         x2="57.351852"
         y2="43.626133">
        <stop
           offset="0.0"
           stop-color="#ff0000"
           stop-opacity="0.0"
           id="stop37" />
        <stop
           offset="1.0"
           stop-color="#ff0000"
           id="stop39" />
      </linearGradient>
    </defs>
    <path
       d="m 154,252.55643 h 178.01575 v 33.51181 H 154 Z"
       id="path44"
       inkscape:connector-curvature="0"
       style="fill:url(#p.1);fill-rule:evenodd" />
    <path
       d="m 337,256.64572 c 7.30142,5.37808 30.80841,27.79364 43.8085,32.26849 13.00006,4.47486 28.49332,-4.51617 34.19199,-5.4194"
       id="path46"
       inkscape:connector-curvature="0"
       style="fill:#000000;fill-opacity:0;fill-rule:evenodd" />
    <path
       d="m 342.32022,260.96716 0.31995,0.27008 c 0.77743,0.6586 1.59863,1.35809 2.45706,2.09003 3.43365,2.92767 7.4628,6.37365 11.66998,9.79141 8.41446,6.83551 17.54123,13.5581 24.04126,15.79553 13.00009,4.47485 28.49338,-4.51617 34.19202,-5.4194"
       id="path48"
       inkscape:connector-curvature="0"
       style="fill-rule:evenodd;stroke:#000000;stroke-width:2;stroke-linecap:butt;stroke-linejoin:round" />
    <path
       d="m 342.32022,260.96716 3.16388,-0.32776 -6.21463,-2.15027 3.37851,5.64191 z"
       id="path50"
       inkscape:connector-curvature="0"
       style="fill:#000000;fill-rule:evenodd;stroke:#000000;stroke-width:2;stroke-linecap:butt" />
    <path
       d="M 84,335.55643 H 206.99213"
       id="path52"
       inkscape:connector-curvature="0"
       style="fill:#000000;fill-opacity:0;fill-rule:evenodd" />
    <path
       d="M 84,335.55643 H 206.99213"
       id="path54"
       inkscape:connector-curvature="0"
       style="fill-rule:evenodd;stroke:#000000;stroke-width:1;stroke-linecap:butt;stroke-linejoin:round" />
    <path
       d="M 293,335.55643 H 418.98425"
       id="path56"
       inkscape:connector-curvature="0"
       style="fill:#000000;fill-opacity:0;fill-rule:evenodd" />
    <path
       d="M 293,335.55643 H 418.98425"
       id="path58"
       inkscape:connector-curvature="0"
       style="fill-rule:evenodd;stroke:#000000;stroke-width:1;stroke-linecap:butt;stroke-linejoin:round" />
    <path
       d="m 186.99213,314.5643 h 126.99213 v 41.98425 H 186.99213 Z"
       id="path60"
       inkscape:connector-curvature="0"
       style="fill:#000000;fill-opacity:0;fill-rule:evenodd" />
    <path
       d="m 220.58194,338.92432 h -1.375 v -5.26562 h -4.65625 v 5.26562 h -1.35938 v -11.375 h 1.35938 v 4.89063 h 4.65625 v -4.89063 h 1.375 z m 8.02344,0 q -0.0937,-0.17187 -0.14063,-0.40625 -0.0469,-0.25 -0.0781,-0.51562 -0.21875,0.21875 -0.48438,0.42187 -0.26562,0.1875 -0.59375,0.34375 -0.32812,0.14063 -0.70312,0.21875 -0.35938,0.0937 -0.76563,0.0937 -0.67187,0 -1.21875,-0.1875 -0.54687,-0.20312 -0.92187,-0.53125 -0.375,-0.34375 -0.59375,-0.79687 -0.20313,-0.45313 -0.20313,-0.98438 0,-0.70312 0.28125,-1.21875 0.28125,-0.53125 0.78125,-0.875 0.51563,-0.34375 1.21875,-0.51562 0.71875,-0.17188 1.60938,-0.17188 h 1.57812 v -0.67187 q 0,-0.375 -0.14062,-0.67188 -0.14063,-0.3125 -0.40625,-0.53125 -0.25,-0.21875 -0.625,-0.32812 -0.375,-0.125 -0.82813,-0.125 -0.4375,0 -0.78125,0.10937 -0.32812,0.10938 -0.5625,0.29688 -0.23437,0.17187 -0.375,0.42187 -0.125,0.25 -0.125,0.51563 h -1.45312 q 0.0156,-0.46875 0.23437,-0.90625 0.23438,-0.45313 0.67188,-0.79688 0.4375,-0.35937 1.04687,-0.57812 0.625,-0.21875 1.42188,-0.21875 0.71875,0 1.32812,0.17187 0.625,0.17188 1.0625,0.53125 0.45313,0.35938 0.70313,0.89063 0.26562,0.53125 0.26562,1.23437 v 3.9375 q 0,0.42188 0.0781,0.89063 0.0781,0.46875 0.21875,0.82812 v 0.125 z m -2.5625,-1.10937 q 0.42187,0 0.78125,-0.10938 0.375,-0.10937 0.67187,-0.28125 0.3125,-0.1875 0.53125,-0.40625 0.21875,-0.23437 0.34375,-0.48437 v -1.71875 h -1.34375 q -1.26562,0 -1.96875,0.375 -0.70312,0.375 -0.70312,1.1875 0,0.3125 0.0937,0.57812 0.10937,0.26563 0.3125,0.45313 0.21875,0.1875 0.53125,0.29687 0.32812,0.10938 0.75,0.10938 z m 12.14843,-7.5 q 0.20313,0 0.42188,0.0156 0.21875,0 0.40625,0.0312 0.20312,0.0312 0.375,0.0781 0.17187,0.0312 0.28125,0.0781 l -0.20313,1.40625 q -0.42187,-0.0937 -0.79687,-0.125 -0.375,-0.0469 -0.79688,-0.0469 -1.01562,0 -1.64062,0.46875 -0.625,0.45312 -0.92188,1.28125 v 5.42187 h -1.45312 v -8.45312 h 1.375 l 0.0625,1.34375 q 0.51562,-0.70313 1.23437,-1.09375 0.73438,-0.40625 1.65625,-0.40625 z m 3.78907,4.3125 q 0,-0.95313 0.23437,-1.73438 0.23438,-0.79687 0.67188,-1.35937 0.45312,-0.57813 1.07812,-0.89063 0.625,-0.32812 1.39063,-0.32812 0.76562,0 1.32812,0.25 0.5625,0.25 0.98438,0.73437 v -4.375 h 1.4375 v 12 h -1.32813 l -0.0625,-0.89062 q -0.42187,0.51562 -1.01562,0.78125 -0.57813,0.26562 -1.35938,0.26562 -0.76562,0 -1.39062,-0.32812 -0.60938,-0.32813 -1.04688,-0.90625 -0.4375,-0.57813 -0.6875,-1.35938 -0.23437,-0.79687 -0.23437,-1.70312 z m 1.4375,0.15625 q 0,0.625 0.125,1.1875 0.14062,0.54687 0.42187,0.96875 0.28125,0.42187 0.70313,0.67187 0.4375,0.23438 1.03125,0.23438 0.375,0 0.67187,-0.0781 0.29688,-0.0937 0.53125,-0.25 0.25,-0.15625 0.4375,-0.375 0.1875,-0.23437 0.32813,-0.5 v -3.92187 q -0.28125,-0.51563 -0.76563,-0.84375 -0.46875,-0.34375 -1.1875,-0.34375 -0.60937,0 -1.04687,0.25 -0.42188,0.25 -0.70313,0.6875 -0.28125,0.42187 -0.42187,0.98437 -0.125,0.54688 -0.125,1.17188 z m 9.71093,1.07812 0.17188,1.20313 0.21875,-1.20313 1.34375,-5.39062 h 0.9375 l 1.34375,5.39062 0.21875,1.32813 0.21875,-1.32813 0.9375,-5.39062 h 1.28125 l -1.79687,8.45312 h -1.14063 l -1.32812,-5.1875 -0.21875,-1.3125 -0.20313,1.3125 -1.3125,5.1875 h -1.14062 l -1.79688,-8.45312 h 1.28125 z m 13.88282,3.0625 q -0.0937,-0.17187 -0.14063,-0.40625 -0.0469,-0.25 -0.0781,-0.51562 -0.21875,0.21875 -0.48438,0.42187 -0.26562,0.1875 -0.59375,0.34375 -0.32812,0.14063 -0.70312,0.21875 -0.35938,0.0937 -0.76563,0.0937 -0.67187,0 -1.21875,-0.1875 -0.54687,-0.20312 -0.92187,-0.53125 -0.375,-0.34375 -0.59375,-0.79687 -0.20313,-0.45313 -0.20313,-0.98438 0,-0.70312 0.28125,-1.21875 0.28125,-0.53125 0.78125,-0.875 0.51563,-0.34375 1.21875,-0.51562 0.71875,-0.17188 1.60938,-0.17188 h 1.57812 v -0.67187 q 0,-0.375 -0.14062,-0.67188 -0.14063,-0.3125 -0.40625,-0.53125 -0.25,-0.21875 -0.625,-0.32812 -0.375,-0.125 -0.82813,-0.125 -0.4375,0 -0.78125,0.10937 -0.32812,0.10938 -0.5625,0.29688 -0.23437,0.17187 -0.375,0.42187 -0.125,0.25 -0.125,0.51563 h -1.45312 q 0.0156,-0.46875 0.23437,-0.90625 0.23438,-0.45313 0.67188,-0.79688 0.4375,-0.35937 1.04687,-0.57812 0.625,-0.21875 1.42188,-0.21875 0.71875,0 1.32812,0.17187 0.625,0.17188 1.0625,0.53125 0.45313,0.35938 0.70313,0.89063 0.26562,0.53125 0.26562,1.23437 v 3.9375 q 0,0.42188 0.0781,0.89063 0.0781,0.46875 0.21875,0.82812 v 0.125 z m -2.5625,-1.10937 q 0.42187,0 0.78125,-0.10938 0.375,-0.10937 0.67187,-0.28125 0.3125,-0.1875 0.53125,-0.40625 0.21875,-0.23437 0.34375,-0.48437 v -1.71875 h -1.34375 q -1.26562,0 -1.96875,0.375 -0.70312,0.375 -0.70312,1.1875 0,0.3125 0.0937,0.57812 0.10937,0.26563 0.3125,0.45313 0.21875,0.1875 0.53125,0.29687 0.32812,0.10938 0.75,0.10938 z m 12.14844,-7.5 q 0.20312,0 0.42187,0.0156 0.21875,0 0.40625,0.0312 0.20313,0.0312 0.375,0.0781 0.17188,0.0312 0.28125,0.0781 l -0.20312,1.40625 q -0.42188,-0.0937 -0.79688,-0.125 -0.375,-0.0469 -0.79687,-0.0469 -1.01563,0 -1.64063,0.46875 -0.625,0.45312 -0.92187,1.28125 v 5.42187 h -1.45313 v -8.45312 h 1.375 l 0.0625,1.34375 q 0.51563,-0.70313 1.23438,-1.09375 0.73437,-0.40625 1.65625,-0.40625 z m 7.78906,8.76562 q -0.89063,0 -1.64063,-0.29687 -0.73437,-0.3125 -1.26562,-0.85938 -0.53125,-0.54687 -0.82813,-1.29687 -0.29687,-0.75 -0.29687,-1.64063 v -0.32812 q 0,-1.01563 0.32812,-1.82813 0.32813,-0.8125 0.85938,-1.35937 0.54687,-0.5625 1.23437,-0.85938 0.70313,-0.29687 1.42188,-0.29687 0.92187,0 1.59375,0.3125 0.6875,0.3125 1.14062,0.875 0.45313,0.5625 0.67188,1.32812 0.23437,0.75 0.23437,1.625 v 0.65625 h -6.04687 q 0.0312,0.57813 0.21875,1.09375 0.20312,0.5 0.54687,0.875 0.35938,0.375 0.84375,0.59375 0.48438,0.21875 1.0625,0.21875 0.78125,0 1.375,-0.3125 0.60938,-0.3125 1,-0.82812 l 0.89063,0.6875 q -0.21875,0.32812 -0.53125,0.625 -0.3125,0.28125 -0.73438,0.51562 -0.40625,0.21875 -0.9375,0.35938 -0.51562,0.14062 -1.14062,0.14062 z m -0.1875,-7.57812 q -0.4375,0 -0.82813,0.15625 -0.39062,0.15625 -0.70312,0.46875 -0.3125,0.3125 -0.53125,0.76562 -0.20313,0.4375 -0.29688,1.03125 h 4.54688 v -0.10937 q -0.0156,-0.42188 -0.15625,-0.82813 -0.14063,-0.42187 -0.40625,-0.75 -0.26563,-0.32812 -0.67188,-0.53125 -0.39062,-0.20312 -0.95312,-0.20312 z"
       id="path62"
       inkscape:connector-curvature="0"
       style="fill:#000000;fill-rule:nonzero" />
  </g>
</svg>
