<?xml version="1.0" encoding="UTF-8" standalone="no"?>
<svg
   xmlns:dc="http://purl.org/dc/elements/1.1/"
   xmlns:cc="http://creativecommons.org/ns#"
   xmlns:rdf="http://www.w3.org/1999/02/22-rdf-syntax-ns#"
   xmlns:svg="http://www.w3.org/2000/svg"
   xmlns="http://www.w3.org/2000/svg"
   xmlns:sodipodi="http://sodipodi.sourceforge.net/DTD/sodipodi-0.dtd"
   xmlns:inkscape="http://www.inkscape.org/namespaces/inkscape"
   version="1.1"
   viewBox="0 0 351.22226 318.84909"
   stroke-miterlimit="10"
   id="svg110"
   sodipodi:docname="Sentry-Gofer.svg"
   width="351.22226"
   height="318.84909"
   style="fill:none;stroke:none;stroke-linecap:square;stroke-miterlimit:10"
   inkscape:version="0.92.2pre0 (973e216, 2017-07-25)">
  <metadata
     id="metadata116">
    <rdf:RDF>
      <cc:Work
         rdf:about="">
        <dc:format>image/svg+xml</dc:format>
        <dc:type
           rdf:resource="http://purl.org/dc/dcmitype/StillImage" />
        <dc:title></dc:title>
      </cc:Work>
    </rdf:RDF>
  </metadata>
  <defs
     id="defs114" />
  <sodipodi:namedview
     pagecolor="#ffffff"
     bordercolor="#666666"
     borderopacity="1"
     objecttolerance="10"
     gridtolerance="10"
     guidetolerance="10"
     inkscape:pageopacity="0"
     inkscape:pageshadow="2"
     inkscape:window-width="640"
     inkscape:window-height="480"
     id="namedview112"
     showgrid="false"
     fit-margin-top="0"
     fit-margin-left="0"
     fit-margin-right="0"
     fit-margin-bottom="0"
     inkscape:zoom="0.234375"
     inkscape:cx="501.97726"
     inkscape:cy="-95.086607"
     inkscape:window-x="0"
     inkscape:window-y="0"
     inkscape:window-maximized="0"
     inkscape:current-layer="g108" />
  <clipPath
     id="p.0">
    <path
       d="M 0,0 H 1280 V 960 H 0 Z"
       id="path2"
       inkscape:connector-curvature="0"
       style="clip-rule:nonzero" />
  </clipPath>
  <g
     clip-path="url(#p.0)"
     id="g108"
     transform="translate(-138.02274,-66.06431)">
    <path
       d="M 0,0 H 1280 V 960 H 0 Z"
       id="path5"
       inkscape:connector-curvature="0"
       style="fill:#000000;fill-opacity:0;fill-rule:evenodd" />
    <path
       d="m 230.49738,284.92126 h 178.01575 v 64 H 230.49738 Z"
       id="path7"
       inkscape:connector-curvature="0"
       style="fill:#cfe2f3;fill-rule:evenodd" />
    <path
       d="m 230.49738,284.92126 h 178.01575 v 64 H 230.49738 Z"
       id="path9"
       inkscape:connector-curvature="0"
       style="fill-rule:evenodd;stroke:#000000;stroke-width:1;stroke-linecap:butt;stroke-linejoin:round" />
    <path
       d="m 267.83585,323.84125 h -1.59375 v -6.125 h -5.4375 v 6.125 h -1.59375 v -13.26563 h 1.59375 v 5.70313 h 5.4375 v -5.70313 h 1.59375 z m 2.39871,-5.01563 q 0,-1.0625 0.3125,-1.98437 0.3125,-0.92188 0.89063,-1.59375 0.57812,-0.67188 1.40625,-1.04688 0.82812,-0.39062 1.85937,-0.39062 1.04688,0 1.875,0.39062 0.84375,0.375 1.42188,1.04688 0.57812,0.67187 0.89062,1.59375 0.3125,0.92187 0.3125,1.98437 v 0.20313 q 0,1.0625 -0.3125,1.96875 -0.3125,0.90625 -0.89062,1.59375 -0.57813,0.67187 -1.40625,1.0625 -0.82813,0.375 -1.85938,0.375 -1.04687,0 -1.89062,-0.375 -0.82813,-0.39063 -1.40625,-1.0625 -0.57813,-0.6875 -0.89063,-1.59375 -0.3125,-0.90625 -0.3125,-1.96875 z m 1.6875,0.20313 q 0,0.71875 0.17188,1.39062 0.17187,0.65625 0.51562,1.15625 0.35938,0.5 0.89063,0.79688 0.53125,0.28125 1.23437,0.28125 0.6875,0 1.20313,-0.28125 0.53125,-0.29688 0.875,-0.79688 0.35937,-0.5 0.53125,-1.15625 0.17187,-0.67187 0.17187,-1.39062 v -0.20313 q 0,-0.71875 -0.1875,-1.375 -0.17187,-0.67187 -0.53125,-1.17187 -0.34375,-0.5 -0.875,-0.79688 -0.51562,-0.29687 -1.21875,-0.29687 -0.70312,0 -1.21875,0.29687 -0.51562,0.29688 -0.875,0.79688 -0.34375,0.5 -0.51562,1.17187 -0.17188,0.65625 -0.17188,1.375 z m 16.53931,2.20312 q 0,-0.3125 -0.125,-0.54687 -0.125,-0.23438 -0.40625,-0.4375 -0.28125,-0.20313 -0.75,-0.375 -0.45313,-0.17188 -1.14063,-0.29688 -0.85937,-0.1875 -1.5625,-0.42187 -0.6875,-0.25 -1.1875,-0.59375 -0.48437,-0.34375 -0.76562,-0.79688 -0.26563,-0.46875 -0.26563,-1.07812 0,-0.59375 0.28125,-1.10938 0.28125,-0.53125 0.78125,-0.92187 0.51563,-0.39063 1.21875,-0.60938 0.70313,-0.23437 1.5625,-0.23437 0.90625,0 1.625,0.23437 0.73438,0.23438 1.25,0.65625 0.51563,0.40625 0.78125,0.96875 0.28125,0.5625 0.28125,1.21875 h -1.6875 q 0,-0.32812 -0.17187,-0.625 -0.15625,-0.3125 -0.45313,-0.54687 -0.28125,-0.23438 -0.70312,-0.375 -0.40625,-0.15625 -0.92188,-0.15625 -0.54687,0 -0.95312,0.125 -0.40625,0.10937 -0.67188,0.3125 -0.26562,0.20312 -0.40625,0.46875 -0.14062,0.26562 -0.14062,0.54687 0,0.28125 0.10937,0.51563 0.10938,0.23437 0.375,0.42187 0.28125,0.17188 0.73438,0.32813 0.45312,0.14062 1.14062,0.26562 0.90625,0.20313 1.625,0.45313 0.71875,0.25 1.20313,0.60937 0.5,0.34375 0.75,0.8125 0.26562,0.45313 0.26562,1.0625 0,0.65625 -0.29687,1.20313 -0.28125,0.53125 -0.8125,0.92187 -0.53125,0.375 -1.26563,0.59375 -0.73437,0.20313 -1.60937,0.20313 -1.01563,0 -1.79688,-0.26563 -0.78125,-0.28125 -1.32812,-0.71875 -0.53125,-0.4375 -0.82813,-1.01562 -0.28125,-0.59375 -0.28125,-1.21875 h 1.6875 q 0.0312,0.51562 0.26563,0.875 0.25,0.35937 0.60937,0.57812 0.35938,0.21875 0.79688,0.3125 0.4375,0.0781 0.875,0.0781 1.0625,0 1.67187,-0.39063 0.625,-0.39062 0.64063,-1.03125 z m 8.63309,-9.64062 v 2.39062 h 3.75 v 1.3125 h -3.75 v 5.34375 q 0,0.57813 0.14062,0.95313 0.14063,0.375 0.39063,0.59375 0.26562,0.21875 0.59375,0.3125 0.34375,0.0937 0.71875,0.0937 0.26562,0 0.54687,-0.0312 0.29688,-0.0312 0.57813,-0.0781 0.28125,-0.0469 0.51562,-0.0937 0.25,-0.0469 0.40625,-0.0937 l 0.23438,1.20313 q -0.21875,0.125 -0.51563,0.21875 -0.29687,0.0937 -0.65625,0.15625 -0.34375,0.0781 -0.75,0.10937 -0.39062,0.0469 -0.78125,0.0469 -0.65625,0 -1.23437,-0.1875 -0.5625,-0.1875 -0.98438,-0.59375 -0.42187,-0.40625 -0.67187,-1.04688 -0.23438,-0.64062 -0.23438,-1.5625 v -5.34375 h -2.57812 v -1.3125 h 2.57812 v -2.39062 z m 21.57864,6.09375 -1.48437,1.67187 v 4.48438 h -1.71875 v -13.26563 h 1.71875 V 317.06 l 1.29687,-1.60938 3.89063,-4.875 h 2.04687 l -4.64062,5.8125 4.95312,7.45313 h -2.0625 z m 12.36743,6.34375 q -1.03125,0 -1.90625,-0.35938 -0.875,-0.35937 -1.5,-0.98437 -0.60937,-0.64063 -0.95312,-1.51563 -0.34375,-0.875 -0.34375,-1.90625 v -0.39062 q 0,-1.1875 0.375,-2.125 0.39062,-0.95313 1.01562,-1.59375 0.64063,-0.65625 1.4375,-1 0.8125,-0.34375 1.65625,-0.34375 1.0625,0 1.85938,0.375 0.79687,0.35937 1.32812,1.01562 0.53125,0.64063 0.78125,1.53125 0.26563,0.875 0.26563,1.90625 v 0.75 h -7.03125 q 0.0156,0.6875 0.25,1.28125 0.23437,0.57813 0.64062,1.03125 0.40625,0.4375 0.96875,0.70313 0.5625,0.25 1.25,0.25 0.90625,0 1.59375,-0.35938 0.70313,-0.375 1.17188,-0.96875 l 1.03125,0.79688 q -0.25,0.375 -0.625,0.71875 -0.35938,0.32812 -0.84375,0.59375 -0.48438,0.26562 -1.09375,0.42187 -0.60938,0.17188 -1.32813,0.17188 z m -0.21875,-8.84375 q -0.51562,0 -0.96875,0.1875 -0.45312,0.1875 -0.8125,0.54687 -0.35937,0.35938 -0.625,0.89063 -0.25,0.51562 -0.34375,1.20312 h 5.29688 v -0.125 q -0.0156,-0.5 -0.1875,-0.98437 -0.15625,-0.48438 -0.46875,-0.85938 -0.29688,-0.39062 -0.76563,-0.625 -0.46875,-0.23437 -1.125,-0.23437 z m 13.52371,-1.375 q 0.23438,0 0.48438,0.0156 0.26562,0 0.48437,0.0312 0.23438,0.0312 0.42188,0.0781 0.20312,0.0469 0.34375,0.10937 l -0.23438,1.64063 q -0.48437,-0.10938 -0.9375,-0.15625 -0.4375,-0.0469 -0.92187,-0.0469 -1.1875,0 -1.92188,0.54688 -0.73437,0.53125 -1.07812,1.48437 v 6.32813 h -1.6875 v -9.85938 h 1.59375 l 0.0937,1.5625 q 0.59375,-0.79687 1.4375,-1.26562 0.84375,-0.46875 1.92187,-0.46875 z m 6.24244,0.17187 0.125,1.45313 q 0.53125,-0.76563 1.3125,-1.1875 0.78125,-0.4375 1.75,-0.4375 0.78125,0 1.40625,0.21875 0.64062,0.21875 1.07812,0.6875 0.45313,0.45312 0.6875,1.17187 0.25,0.71875 0.25,1.6875 v 6.26563 h -1.6875 v -6.21875 q 0,-0.65625 -0.15625,-1.10938 -0.14062,-0.45312 -0.42187,-0.73437 -0.28125,-0.29688 -0.70313,-0.42188 -0.40625,-0.125 -0.95312,-0.125 -0.84375,0 -1.48438,0.42188 -0.64062,0.42187 -1.03125,1.125 v 7.0625 h -1.6875 v -9.85938 z m 14.03933,10.04688 q -1.03125,0 -1.90625,-0.35938 -0.875,-0.35937 -1.5,-0.98437 -0.60937,-0.64063 -0.95312,-1.51563 -0.34375,-0.875 -0.34375,-1.90625 v -0.39062 q 0,-1.1875 0.375,-2.125 0.39062,-0.95313 1.01562,-1.59375 0.64063,-0.65625 1.4375,-1 0.8125,-0.34375 1.65625,-0.34375 1.0625,0 1.85938,0.375 0.79687,0.35937 1.32812,1.01562 0.53125,0.64063 0.78125,1.53125 0.26563,0.875 0.26563,1.90625 v 0.75 h -7.03125 q 0.0156,0.6875 0.25,1.28125 0.23437,0.57813 0.64062,1.03125 0.40625,0.4375 0.96875,0.70313 0.5625,0.25 1.25,0.25 0.90625,0 1.59375,-0.35938 0.70313,-0.375 1.17188,-0.96875 l 1.03125,0.79688 q -0.25,0.375 -0.625,0.71875 -0.35938,0.32812 -0.84375,0.59375 -0.48438,0.26562 -1.09375,0.42187 -0.60938,0.17188 -1.32813,0.17188 z m -0.21875,-8.84375 q -0.51562,0 -0.96875,0.1875 -0.45312,0.1875 -0.8125,0.54687 -0.35937,0.35938 -0.625,0.89063 -0.25,0.51562 -0.34375,1.20312 h 5.29688 v -0.125 q -0.0156,-0.5 -0.1875,-0.98437 -0.15625,-0.48438 -0.46875,-0.85938 -0.29688,-0.39062 -0.76563,-0.625 -0.46875,-0.23437 -1.125,-0.23437 z m 7.32056,-5.34375 h 5.04687 v 12.54687 h 3.21875 v 1.45313 h -8.26562 v -1.45313 h 3.35937 V 311.31 h -3.35937 z"
       id="path11"
       inkscape:connector-curvature="0"
       style="fill:#000000;fill-rule:nonzero" />
    <defs
       id="defs20">
      <linearGradient
         id="p.1"
         gradientUnits="userSpaceOnUse"
         gradientTransform="scale(13.081676)"
         spreadMethod="pad"
         x1="33.674061"
         y1="24.226397"
         x2="24.424004"
         y2="14.976169">
        <stop
           offset="0.0"
           stop-color="#ffffff"
           stop-opacity="0.0"
           id="stop13" />
        <stop
           offset="0.5"
           stop-color="#ff0000"
           stop-opacity="0.0"
           id="stop15" />
        <stop
           offset="1.0"
           stop-color="#ff0000"
           id="stop17" />
      </linearGradient>
    </defs>
    <path
       d="m 230.49738,284.92126 h 178.01575 v 64 H 230.49738 Z"
       id="path22"
       inkscape:connector-curvature="0"
       style="fill:url(#p.1);fill-rule:evenodd" />
    <path
       d="M 151.09842,66.56431 H 329.11417 V 130.5643 H 151.09842 Z"
       id="path24"
       inkscape:connector-curvature="0"
       style="fill:#f4cccc;fill-rule:evenodd" />
    <path
       d="M 151.09842,66.56431 H 329.11417 V 130.5643 H 151.09842 Z"
       id="path26"
       inkscape:connector-curvature="0"
       style="fill-rule:evenodd;stroke:#000000;stroke-width:1;stroke-linecap:butt;stroke-linejoin:round" />
    <path
       d="m 186.45253,102.04681 h -4.4375 l -1.0625,3.4375 h -1.6875 l 4.28125,-13.265625 h 1.42187 l 4.20313,13.265625 h -1.67188 z m -3.98438,-1.46875 h 3.53125 l -1.75,-5.75 z m 17.16433,0.0937 q 0,1.04687 -0.26563,1.96875 -0.25,0.90625 -0.75,1.59375 -0.48437,0.67187 -1.21875,1.0625 -0.71875,0.375 -1.64062,0.375 -0.90625,0 -1.59375,-0.29688 -0.6875,-0.29687 -1.17188,-0.84375 v 4.75 h -1.6875 V 95.624935 h 1.53125 l 0.0937,1.078125 q 0.48438,-0.609375 1.17188,-0.921875 0.70312,-0.328125 1.625,-0.328125 0.95312,0 1.67187,0.375 0.73438,0.359375 1.21875,1.03125 0.5,0.65625 0.75,1.59375 0.26563,0.921875 0.26563,2.01562 z m -1.6875,-0.20313 q 0,-0.718745 -0.17188,-1.35937 -0.15625,-0.65625 -0.48437,-1.15625 -0.32813,-0.5 -0.84375,-0.78125 -0.5,-0.296875 -1.21875,-0.296875 -0.8125,0 -1.35938,0.375 -0.54687,0.375 -0.875,0.96875 v 4.749995 q 0.32813,0.57813 0.875,0.95313 0.54688,0.375 1.375,0.375 0.70313,0 1.20313,-0.29688 0.51562,-0.29687 0.84375,-0.79687 0.32812,-0.5 0.48437,-1.15625 0.17188,-0.65625 0.17188,-1.375 z m 12.88307,0.20313 q 0,1.04687 -0.26563,1.96875 -0.25,0.90625 -0.75,1.59375 -0.48437,0.67187 -1.21875,1.0625 -0.71875,0.375 -1.64062,0.375 -0.90625,0 -1.59375,-0.29688 -0.6875,-0.29687 -1.17188,-0.84375 v 4.75 h -1.6875 V 95.624935 h 1.53125 l 0.0937,1.078125 q 0.48438,-0.609375 1.17188,-0.921875 0.70312,-0.328125 1.625,-0.328125 0.95312,0 1.67187,0.375 0.73438,0.359375 1.21875,1.03125 0.5,0.65625 0.75,1.59375 0.26563,0.921875 0.26563,2.01562 z m -1.6875,-0.20313 q 0,-0.718745 -0.17188,-1.35937 -0.15625,-0.65625 -0.48437,-1.15625 -0.32813,-0.5 -0.84375,-0.78125 -0.5,-0.296875 -1.21875,-0.296875 -0.8125,0 -1.35938,0.375 -0.54687,0.375 -0.875,0.96875 v 4.749995 q 0.32813,0.57813 0.875,0.95313 0.54688,0.375 1.375,0.375 0.70313,0 1.20313,-0.29688 0.51562,-0.29687 0.84375,-0.79687 0.32812,-0.5 0.48437,-1.15625 0.17188,-0.65625 0.17188,-1.375 z m 4.82057,-8.98437 h 5.04688 v 12.54687 h 3.21875 v 1.45313 h -8.26563 v -1.45313 h 3.35938 V 92.95306 h -3.35938 z m 11.19557,4.140625 h 5.04688 v 8.406245 h 3.21875 v 1.45313 h -8.26563 v -1.45313 h 3.35938 v -6.937495 h -3.35938 z m 3.14063,-2.578125 q 0,-0.421875 0.25,-0.703125 0.25,-0.296875 0.76562,-0.296875 0.5,0 0.75,0.296875 0.25,0.28125 0.25,0.703125 0,0.40625 -0.25,0.6875 -0.25,0.265625 -0.75,0.265625 -0.51562,0 -0.76562,-0.265625 -0.25,-0.28125 -0.25,-0.6875 z m 11.99244,11.25 q 0.45313,0 0.89063,-0.14063 0.4375,-0.14062 0.76562,-0.40625 0.34375,-0.26562 0.54688,-0.60937 0.20312,-0.35938 0.21875,-0.76563 h 1.59375 q -0.0156,0.65625 -0.34375,1.26563 -0.32813,0.59375 -0.89063,1.04687 -0.5625,0.4375 -1.28125,0.71875 -0.71875,0.26563 -1.5,0.26563 -1.10937,0 -1.95312,-0.40625 -0.84375,-0.40625 -1.40625,-1.07813 -0.54688,-0.6875 -0.84375,-1.5625 -0.28125,-0.89062 -0.28125,-1.875 v -0.39062 q 0,-0.96875 0.28125,-1.859375 0.29687,-0.890625 0.84375,-1.5625 0.5625,-0.6875 1.40625,-1.078125 0.84375,-0.40625 1.95312,-0.40625 0.875,0 1.60938,0.28125 0.73437,0.265625 1.26562,0.75 0.53125,0.46875 0.82813,1.125 0.3125,0.65625 0.3125,1.40625 h -1.59375 q -0.0156,-0.453125 -0.20313,-0.84375 -0.1875,-0.390625 -0.51562,-0.6875 -0.3125,-0.3125 -0.75,-0.484375 -0.4375,-0.171875 -0.95313,-0.171875 -0.78125,0 -1.3125,0.3125 -0.53125,0.3125 -0.85937,0.828125 -0.32813,0.5 -0.46875,1.140625 -0.14063,0.625 -0.14063,1.25 v 0.39062 q 0,0.64063 0.14063,1.28125 0.14062,0.625 0.45312,1.14063 0.32813,0.5 0.85938,0.8125 0.53125,0.3125 1.32812,0.3125 z m 13.47683,1.1875 q -0.0937,-0.1875 -0.15625,-0.46875 -0.0625,-0.29688 -0.0937,-0.60938 -0.25,0.26563 -0.5625,0.5 -0.3125,0.21875 -0.70313,0.39063 -0.375,0.17187 -0.8125,0.26562 -0.42187,0.10938 -0.89062,0.10938 -0.79688,0 -1.4375,-0.21875 -0.625,-0.23438 -1.0625,-0.625 -0.4375,-0.39063 -0.6875,-0.92188 -0.23438,-0.53125 -0.23438,-1.15625 0,-0.8125 0.3125,-1.42187 0.32813,-0.60938 0.92188,-1.01563 0.59375,-0.406245 1.42187,-0.593745 0.84375,-0.203125 1.875,-0.203125 h 1.82813 v -0.78125 q 0,-0.453125 -0.17188,-0.796875 -0.15625,-0.359375 -0.45312,-0.609375 -0.29688,-0.25 -0.73438,-0.390625 -0.42187,-0.140625 -0.96875,-0.140625 -0.5,0 -0.90625,0.140625 -0.39062,0.125 -0.67187,0.34375 -0.26563,0.203125 -0.42188,0.484375 -0.14062,0.28125 -0.14062,0.59375 h -1.6875 q 0,-0.53125 0.26562,-1.046875 0.28125,-0.53125 0.78125,-0.9375 0.5,-0.421875 1.21875,-0.671875 0.73438,-0.25 1.65625,-0.25 0.84375,0 1.5625,0.203125 0.71875,0.203125 1.23438,0.625 0.53125,0.40625 0.82812,1.03125 0.29688,0.609375 0.29688,1.4375 v 4.578125 q 0,0.5 0.0937,1.04687 0.0937,0.54688 0.25,0.96875 v 0.14063 z m -2.98438,-1.28125 q 0.5,0 0.92188,-0.125 0.4375,-0.14063 0.78125,-0.34375 0.34375,-0.20313 0.59375,-0.46875 0.26562,-0.28125 0.40625,-0.5625 v -2 h -1.5625 q -1.46875,0 -2.29688,0.4375 -0.8125,0.4375 -0.8125,1.375 0,0.35937 0.125,0.67187 0.125,0.3125 0.35938,0.53125 0.25,0.21875 0.625,0.35938 0.375,0.125 0.85937,0.125 z m 11.69557,-10.96875 v 2.390625 h 3.75 v 1.3125 h -3.75 v 5.343745 q 0,0.57813 0.14063,0.95313 0.14062,0.375 0.39062,0.59375 0.26563,0.21875 0.59375,0.3125 0.34375,0.0937 0.71875,0.0937 0.26563,0 0.54688,-0.0312 0.29687,-0.0312 0.57812,-0.0781 0.28125,-0.0469 0.51563,-0.0937 0.25,-0.0469 0.40625,-0.0937 l 0.23437,1.20313 q -0.21875,0.125 -0.51562,0.21875 -0.29688,0.0937 -0.65625,0.15625 -0.34375,0.0781 -0.75,0.10937 -0.39063,0.0469 -0.78125,0.0469 -0.65625,0 -1.23438,-0.1875 -0.5625,-0.1875 -0.98437,-0.59375 -0.42188,-0.40625 -0.67188,-1.04688 -0.23437,-0.64062 -0.23437,-1.5625 v -5.343745 h -2.57813 v -1.3125 h 2.57813 V 93.23431 Z m 7.46119,2.390625 h 5.04687 v 8.406245 h 3.21875 v 1.45313 h -8.26562 v -1.45313 h 3.35937 v -6.937495 h -3.35937 z m 3.14062,-2.578125 q 0,-0.421875 0.25,-0.703125 0.25,-0.296875 0.76563,-0.296875 0.5,0 0.75,0.296875 0.25,0.28125 0.25,0.703125 0,0.40625 -0.25,0.6875 -0.25,0.265625 -0.75,0.265625 -0.51563,0 -0.76563,-0.265625 -0.25,-0.28125 -0.25,-0.6875 z m 7.32059,7.42187 q 0,-1.062495 0.3125,-1.98437 0.3125,-0.921875 0.89062,-1.59375 0.57813,-0.671875 1.40625,-1.046875 0.82813,-0.390625 1.85938,-0.390625 1.04687,0 1.875,0.390625 0.84375,0.375 1.42187,1.046875 0.57813,0.671875 0.89063,1.59375 0.3125,0.921875 0.3125,1.98437 v 0.20313 q 0,1.0625 -0.3125,1.96875 -0.3125,0.90625 -0.89063,1.59375 -0.57812,0.67187 -1.40625,1.0625 -0.82812,0.375 -1.85937,0.375 -1.04688,0 -1.89063,-0.375 -0.82812,-0.39063 -1.40625,-1.0625 -0.57812,-0.6875 -0.89062,-1.59375 -0.3125,-0.90625 -0.3125,-1.96875 z m 1.6875,0.20313 q 0,0.71875 0.17187,1.39062 0.17188,0.65625 0.51563,1.15625 0.35937,0.5 0.89062,0.79688 0.53125,0.28125 1.23438,0.28125 0.6875,0 1.20312,-0.28125 0.53125,-0.29688 0.875,-0.79688 0.35938,-0.5 0.53125,-1.15625 0.17188,-0.67187 0.17188,-1.39062 v -0.20313 q 0,-0.718745 -0.1875,-1.374995 -0.17188,-0.671875 -0.53125,-1.171875 -0.34375,-0.5 -0.875,-0.796875 -0.51563,-0.296875 -1.21875,-0.296875 -0.70313,0 -1.21875,0.296875 -0.51563,0.296875 -0.875,0.796875 -0.34375,0.5 -0.51563,1.171875 -0.17187,0.65625 -0.17187,1.374995 z m 11.49243,-5.046875 0.125,1.453125 q 0.53125,-0.765625 1.3125,-1.1875 0.78125,-0.4375 1.75,-0.4375 0.78125,0 1.40625,0.21875 0.64062,0.21875 1.07812,0.6875 0.45313,0.453125 0.6875,1.171875 0.25,0.71875 0.25,1.6875 v 6.265625 h -1.6875 v -6.21875 q 0,-0.65625 -0.15625,-1.109375 -0.14062,-0.453125 -0.42187,-0.734375 -0.28125,-0.296875 -0.70313,-0.421875 -0.40625,-0.125 -0.95312,-0.125 -0.84375,0 -1.48438,0.421875 -0.64062,0.421875 -1.03125,1.125 v 7.0625 h -1.6875 v -9.859375 z"
       id="path28"
       inkscape:connector-curvature="0"
       style="fill:#000000;fill-rule:nonzero" />
    <path
       d="m 152.37212,257.54855 h 45.89334"
       id="path30"
       inkscape:connector-curvature="0"
       style="fill:#000000;fill-opacity:0;fill-rule:evenodd" />
    <path
       d="m 152.37212,257.54855 h 45.89334"
       id="path32"
       inkscape:connector-curvature="0"
       style="fill-rule:evenodd;stroke:#ff0000;stroke-width:2;stroke-linecap:butt;stroke-linejoin:round;stroke-dasharray:8, 6" />
    <path
       d="m 273.83743,257.55643 h 52.41684"
       id="path34"
       inkscape:connector-curvature="0"
       style="fill:#000000;fill-opacity:0;fill-rule:evenodd" />
    <path
       d="m 273.83743,257.55643 h 52.41684"
       id="path36"
       inkscape:connector-curvature="0"
       style="fill-rule:evenodd;stroke:#ff0000;stroke-width:2;stroke-linecap:butt;stroke-linejoin:round;stroke-dasharray:8, 6" />
    <path
       d="m 185.07132,236.55643 h 96.0376 v 41.98425 h -96.0376 z"
       id="path38"
       inkscape:connector-curvature="0"
       style="fill:#000000;fill-opacity:0;fill-rule:evenodd" />
    <path
       d="m 212.70836,254.98393 h 3.70312 v 0.8125 h -4.67187 v -7.57813 h 0.96875 z m 5.45729,-4.8125 h 2.875 v 4.79687 h 1.82813 v 0.82813 h -4.70313 v -0.82813 h 1.90625 v -3.96875 h -1.90625 z m 1.78125,-1.48438 q 0,-0.23437 0.14063,-0.39062 0.14062,-0.17188 0.4375,-0.17188 0.28125,0 0.42187,0.17188 0.15625,0.15625 0.15625,0.39062 0,0.23438 -0.15625,0.39063 -0.14062,0.15625 -0.42187,0.15625 -0.29688,0 -0.4375,-0.15625 -0.14063,-0.15625 -0.14063,-0.39063 z m 4.89479,1.48438 0.0312,0.53125 q 0.17188,-0.29688 0.45313,-0.46875 0.28125,-0.17188 0.67187,-0.17188 0.76563,0 1.03125,0.60938 0.17188,-0.28125 0.4375,-0.4375 0.28125,-0.17188 0.67188,-0.17188 0.60937,0 0.9375,0.39063 0.34375,0.375 0.34375,1.14062 v 4.20313 h -0.92188 v -4.21875 q 0,-0.70313 -0.64062,-0.70313 -0.17188,0 -0.29688,0.0469 -0.125,0.0469 -0.21875,0.14062 -0.0781,0.0781 -0.125,0.1875 -0.0469,0.0937 -0.0625,0.21875 v 4.32813 h -0.92187 v -4.21875 q 0,-0.34375 -0.15625,-0.51563 -0.14063,-0.1875 -0.46875,-0.1875 -0.29688,0 -0.46875,0.125 -0.15625,0.125 -0.23438,0.3125 v 4.48438 h -0.92187 v -5.625 z m 6.11354,0 h 2.875 v 4.79687 h 1.82813 v 0.82813 h -4.70313 v -0.82813 h 1.90625 v -3.96875 h -1.90625 z m 1.78125,-1.48438 q 0,-0.23437 0.14063,-0.39062 0.14062,-0.17188 0.4375,-0.17188 0.28125,0 0.42187,0.17188 0.15625,0.15625 0.15625,0.39062 0,0.23438 -0.15625,0.39063 -0.14062,0.15625 -0.42187,0.15625 -0.29688,0 -0.4375,-0.15625 -0.14063,-0.15625 -0.14063,-0.39063 z m 6.73854,0.10938 v 1.375 h 2.14063 v 0.73437 h -2.14063 v 3.0625 q 0,0.32813 0.0781,0.54688 0.0781,0.20312 0.21875,0.34375 0.15625,0.125 0.34375,0.17187 0.1875,0.0469 0.40625,0.0469 0.15625,0 0.3125,-0.0156 0.17187,-0.0156 0.32812,-0.0312 0.17188,-0.0312 0.29688,-0.0625 0.14062,-0.0312 0.23437,-0.0469 l 0.14063,0.67187 q -0.125,0.0781 -0.29688,0.14063 -0.17187,0.0469 -0.375,0.0781 -0.20312,0.0469 -0.4375,0.0625 -0.21875,0.0312 -0.4375,0.0312 -0.375,0 -0.70312,-0.10937 -0.32813,-0.10938 -0.5625,-0.34375 -0.23438,-0.23438 -0.375,-0.59375 -0.14063,-0.375 -0.14063,-0.89063 v -3.0625 h -1.48437 v -0.73437 h 1.48437 v -1.375 z m 6.59792,7.10937 q -0.59375,0 -1.09375,-0.20312 -0.48438,-0.20313 -0.84375,-0.5625 -0.35938,-0.375 -0.5625,-0.875 -0.1875,-0.5 -0.1875,-1.09375 v -0.20313 q 0,-0.6875 0.21875,-1.21875 0.21875,-0.54687 0.57812,-0.92187 0.35938,-0.375 0.8125,-0.5625 0.46875,-0.20313 0.95313,-0.20313 0.60937,0 1.0625,0.21875 0.45312,0.20313 0.75,0.57813 0.3125,0.375 0.45312,0.875 0.15625,0.5 0.15625,1.09375 v 0.42187 h -4.01562 q 0.0156,0.39063 0.14062,0.73438 0.14063,0.32812 0.35938,0.59375 0.23437,0.25 0.54687,0.39062 0.32813,0.14063 0.71875,0.14063 0.51563,0 0.92188,-0.20313 0.40625,-0.20312 0.67187,-0.54687 l 0.57813,0.45312 q -0.14063,0.21875 -0.35938,0.42188 -0.20312,0.1875 -0.48437,0.34375 -0.26563,0.14062 -0.625,0.23437 -0.34375,0.0937 -0.75,0.0937 z m -0.125,-5.04687 q -0.29688,0 -0.5625,0.10937 -0.25,0.0937 -0.45313,0.3125 -0.20312,0.20313 -0.35937,0.5 -0.14063,0.29688 -0.1875,0.6875 h 3.01562 v -0.0781 q -0.0156,-0.28125 -0.10937,-0.54688 -0.0781,-0.28125 -0.26563,-0.5 -0.17187,-0.21875 -0.4375,-0.34375 -0.26562,-0.14062 -0.64062,-0.14062 z m 3.8479,2.07812 q 0,-0.625 0.15625,-1.15625 0.17187,-0.53125 0.45312,-0.90625 0.29688,-0.39062 0.71875,-0.59375 0.42188,-0.21875 0.92188,-0.21875 0.51562,0 0.89062,0.17188 0.375,0.17187 0.65625,0.48437 v -2.92187 h 0.95313 v 8 h -0.875 l -0.0469,-0.59375 q -0.28125,0.34375 -0.67187,0.53125 -0.39063,0.17187 -0.90625,0.17187 -0.51563,0 -0.9375,-0.21875 -0.40625,-0.21875 -0.70313,-0.60937 -0.28125,-0.39063 -0.45312,-0.90625 -0.15625,-0.53125 -0.15625,-1.125 z m 0.96875,0.10938 q 0,0.40625 0.0781,0.78125 0.0937,0.35937 0.28125,0.64062 0.1875,0.28125 0.46875,0.45313 0.28125,0.15625 0.6875,0.15625 0.25,0 0.4375,-0.0469 0.20313,-0.0625 0.35938,-0.17187 0.17187,-0.10938 0.29687,-0.25 0.125,-0.15625 0.21875,-0.32813 v -2.60937 q -0.1875,-0.34375 -0.51562,-0.5625 -0.3125,-0.23438 -0.78125,-0.23438 -0.40625,0 -0.70313,0.17188 -0.28125,0.17187 -0.46875,0.45312 -0.1875,0.28125 -0.28125,0.65625 -0.0781,0.375 -0.0781,0.78125 z"
       id="path40"
       inkscape:connector-curvature="0"
       style="fill:#000000;fill-rule:nonzero" />
    <path
       d="m 199.362,267.29642 q 0,-0.17188 -0.0625,-0.29688 -0.0625,-0.14062 -0.23438,-0.25 -0.15625,-0.125 -0.42187,-0.21875 -0.26563,-0.0937 -0.65625,-0.17187 -0.48438,-0.10938 -0.89063,-0.23438 -0.39062,-0.14062 -0.67187,-0.32812 -0.28125,-0.20313 -0.4375,-0.46875 -0.15625,-0.26563 -0.15625,-0.60938 0,-0.34375 0.15625,-0.64062 0.15625,-0.3125 0.45312,-0.53125 0.29688,-0.21875 0.6875,-0.34375 0.40625,-0.14063 0.89063,-0.14063 0.51562,0 0.9375,0.14063 0.42187,0.125 0.70312,0.375 0.29688,0.23437 0.45313,0.5625 0.15625,0.3125 0.15625,0.6875 h -0.95313 q 0,-0.1875 -0.0937,-0.35938 -0.0937,-0.17187 -0.26562,-0.3125 -0.17188,-0.14062 -0.40625,-0.21875 -0.23438,-0.0781 -0.53125,-0.0781 -0.3125,0 -0.54688,0.0625 -0.21875,0.0625 -0.375,0.1875 -0.15625,0.10937 -0.23437,0.26562 -0.0781,0.14063 -0.0781,0.3125 0,0.15625 0.0625,0.29688 0.0625,0.125 0.21875,0.23437 0.15625,0.0937 0.40625,0.1875 0.26563,0.0781 0.65625,0.15625 0.51563,0.10938 0.92188,0.25 0.42187,0.14063 0.70312,0.34375 0.28125,0.20313 0.42188,0.46875 0.15625,0.26563 0.15625,0.60938 0,0.375 -0.17188,0.6875 -0.17187,0.29687 -0.46875,0.51562 -0.29687,0.21875 -0.71875,0.34375 -0.42187,0.125 -0.92187,0.125 -0.57813,0 -1.03125,-0.15625 -0.4375,-0.15625 -0.75,-0.40625 -0.3125,-0.25 -0.48438,-0.57812 -0.15625,-0.34375 -0.15625,-0.70313 h 0.96875 q 0.0156,0.29688 0.15625,0.5 0.14063,0.20313 0.34375,0.32813 0.20313,0.125 0.45313,0.1875 0.25,0.0469 0.5,0.0469 0.60937,0 0.95312,-0.21875 0.35938,-0.23437 0.35938,-0.60937 z m 4.72292,-0.5 0.25,0.6875 1.71875,-4.3125 h 1.07812 l -2.85937,6.5 q -0.0937,0.21875 -0.25,0.45312 -0.15625,0.25 -0.375,0.45313 -0.20313,0.21875 -0.5,0.35937 -0.29688,0.14063 -0.67188,0.14063 -0.0625,0 -0.15625,-0.0156 -0.0781,0 -0.17187,-0.0156 -0.0781,-0.0156 -0.15625,-0.0312 -0.0625,-0.0156 -0.10938,-0.0312 l 0.15625,-0.78125 q 0.0312,0 0.0937,0 0.0625,0.0156 0.125,0.0156 0.0781,0 0.14063,0 0.0625,0.0156 0.0937,0.0156 0.20312,0 0.35937,-0.10938 0.17188,-0.10937 0.29688,-0.26562 0.125,-0.15625 0.21875,-0.3125 0.0937,-0.15625 0.14062,-0.26563 l 0.39063,-0.75 -2.42188,-5.35937 h 1.07813 z m 8.06666,0.5 q 0,-0.17188 -0.0625,-0.29688 -0.0625,-0.14062 -0.23437,-0.25 -0.15625,-0.125 -0.42188,-0.21875 -0.26562,-0.0937 -0.65625,-0.17187 -0.48437,-0.10938 -0.89062,-0.23438 -0.39063,-0.14062 -0.67188,-0.32812 -0.28125,-0.20313 -0.4375,-0.46875 -0.15625,-0.26563 -0.15625,-0.60938 0,-0.34375 0.15625,-0.64062 0.15625,-0.3125 0.45313,-0.53125 0.29687,-0.21875 0.6875,-0.34375 0.40625,-0.14063 0.89062,-0.14063 0.51563,0 0.9375,0.14063 0.42188,0.125 0.70313,0.375 0.29687,0.23437 0.45312,0.5625 0.15625,0.3125 0.15625,0.6875 h -0.95312 q 0,-0.1875 -0.0937,-0.35938 -0.0937,-0.17187 -0.26563,-0.3125 -0.17187,-0.14062 -0.40625,-0.21875 -0.23437,-0.0781 -0.53125,-0.0781 -0.3125,0 -0.54687,0.0625 -0.21875,0.0625 -0.375,0.1875 -0.15625,0.10937 -0.23438,0.26562 -0.0781,0.14063 -0.0781,0.3125 0,0.15625 0.0625,0.29688 0.0625,0.125 0.21875,0.23437 0.15625,0.0937 0.40625,0.1875 0.26562,0.0781 0.65625,0.15625 0.51562,0.10938 0.92187,0.25 0.42188,0.14063 0.70313,0.34375 0.28125,0.20313 0.42187,0.46875 0.15625,0.26563 0.15625,0.60938 0,0.375 -0.17187,0.6875 -0.17188,0.29687 -0.46875,0.51562 -0.29688,0.21875 -0.71875,0.34375 -0.42188,0.125 -0.92188,0.125 -0.57812,0 -1.03125,-0.15625 -0.4375,-0.15625 -0.75,-0.40625 -0.3125,-0.25 -0.48437,-0.57812 -0.15625,-0.34375 -0.15625,-0.70313 h 0.96875 q 0.0156,0.29688 0.15625,0.5 0.14062,0.20313 0.34375,0.32813 0.20312,0.125 0.45312,0.1875 0.25,0.0469 0.5,0.0469 0.60938,0 0.95313,-0.21875 0.35937,-0.23437 0.35937,-0.60937 z m 4.94167,-5.5 v 1.375 h 2.14062 v 0.73437 h -2.14062 v 3.0625 q 0,0.32813 0.0781,0.54688 0.0781,0.20312 0.21875,0.34375 0.15625,0.125 0.34375,0.17187 0.1875,0.0469 0.40625,0.0469 0.15625,0 0.3125,-0.0156 0.17188,-0.0156 0.32813,-0.0312 0.17187,-0.0312 0.29687,-0.0625 0.14063,-0.0312 0.23438,-0.0469 l 0.14062,0.67187 q -0.125,0.0781 -0.29687,0.14063 -0.17188,0.0469 -0.375,0.0781 -0.20313,0.0469 -0.4375,0.0625 -0.21875,0.0312 -0.4375,0.0312 -0.375,0 -0.70313,-0.10937 -0.32812,-0.10938 -0.5625,-0.34375 -0.23437,-0.23438 -0.375,-0.59375 -0.14062,-0.375 -0.14062,-0.89063 v -3.0625 h -1.48438 v -0.73437 h 1.48438 v -1.375 z m 6.59791,7.10937 q -0.59375,0 -1.09375,-0.20312 -0.48437,-0.20313 -0.84375,-0.5625 -0.35937,-0.375 -0.5625,-0.875 -0.1875,-0.5 -0.1875,-1.09375 v -0.20313 q 0,-0.6875 0.21875,-1.21875 0.21875,-0.54687 0.57813,-0.92187 0.35937,-0.375 0.8125,-0.5625 0.46875,-0.20313 0.95312,-0.20313 0.60938,0 1.0625,0.21875 0.45313,0.20313 0.75,0.57813 0.3125,0.375 0.45313,0.875 0.15625,0.5 0.15625,1.09375 v 0.42187 h -4.01563 q 0.0156,0.39063 0.14063,0.73438 0.14062,0.32812 0.35937,0.59375 0.23438,0.25 0.54688,0.39062 0.32812,0.14063 0.71875,0.14063 0.51562,0 0.92187,-0.20313 0.40625,-0.20312 0.67188,-0.54687 l 0.57812,0.45312 q -0.14062,0.21875 -0.35937,0.42188 -0.20313,0.1875 -0.48438,0.34375 -0.26562,0.14062 -0.625,0.23437 -0.34375,0.0937 -0.75,0.0937 z m -0.125,-5.04687 q -0.29687,0 -0.5625,0.10937 -0.25,0.0937 -0.45312,0.3125 -0.20313,0.20313 -0.35938,0.5 -0.14062,0.29688 -0.1875,0.6875 h 3.01563 v -0.0781 q -0.0156,-0.28125 -0.10938,-0.54688 -0.0781,-0.28125 -0.26562,-0.5 -0.17188,-0.21875 -0.4375,-0.34375 -0.26563,-0.14062 -0.64063,-0.14062 z m 4.47292,-0.6875 0.0312,0.53125 q 0.17187,-0.29688 0.45312,-0.46875 0.28125,-0.17188 0.67188,-0.17188 0.76562,0 1.03125,0.60938 0.17187,-0.28125 0.4375,-0.4375 0.28125,-0.17188 0.67187,-0.17188 0.60938,0 0.9375,0.39063 0.34375,0.375 0.34375,1.14062 v 4.20313 h -0.92187 v -4.21875 q 0,-0.70313 -0.64063,-0.70313 -0.17187,0 -0.29687,0.0469 -0.125,0.0469 -0.21875,0.14062 -0.0781,0.0781 -0.125,0.1875 -0.0469,0.0937 -0.0625,0.21875 v 4.32813 h -0.92188 v -4.21875 q 0,-0.34375 -0.15625,-0.51563 -0.14062,-0.1875 -0.46875,-0.1875 -0.29687,0 -0.46875,0.125 -0.15625,0.125 -0.23437,0.3125 v 4.48438 h -0.92188 v -5.625 z m 14.7427,4.95312 q 0.26563,0 0.51563,-0.0781 0.25,-0.0937 0.4375,-0.23438 0.1875,-0.15625 0.29687,-0.35937 0.125,-0.20313 0.14063,-0.4375 h 0.90625 q 0,0.375 -0.20313,0.71875 -0.1875,0.34375 -0.5,0.60937 -0.3125,0.25 -0.73437,0.40625 -0.40625,0.15625 -0.85938,0.15625 -0.625,0 -1.10937,-0.23437 -0.48438,-0.23438 -0.8125,-0.60938 -0.3125,-0.39062 -0.46875,-0.89062 -0.15625,-0.51563 -0.15625,-1.07813 v -0.21875 q 0,-0.5625 0.15625,-1.0625 0.15625,-0.51562 0.46875,-0.90625 0.32812,-0.39062 0.8125,-0.60937 0.48437,-0.23438 1.10937,-0.23438 0.5,0 0.92188,0.15625 0.42187,0.15625 0.71875,0.4375 0.3125,0.26563 0.48437,0.64063 0.17188,0.375 0.17188,0.8125 h -0.90625 q -0.0156,-0.26563 -0.125,-0.48438 -0.0937,-0.23437 -0.28125,-0.40625 -0.1875,-0.17187 -0.4375,-0.26562 -0.25,-0.0937 -0.54688,-0.0937 -0.4375,0 -0.75,0.1875 -0.29687,0.17187 -0.48437,0.46875 -0.1875,0.28125 -0.26563,0.64062 -0.0781,0.35938 -0.0781,0.71875 v 0.21875 q 0,0.35938 0.0781,0.73438 0.0781,0.35937 0.26563,0.65625 0.1875,0.28125 0.48437,0.46875 0.29688,0.17187 0.75,0.17187 z m 7.70729,0.67188 q -0.0625,-0.10938 -0.0937,-0.26563 -0.0312,-0.17187 -0.0469,-0.34375 -0.15625,0.14063 -0.34375,0.28125 -0.17188,0.125 -0.39063,0.21875 -0.20312,0.0937 -0.45312,0.15625 -0.25,0.0625 -0.51563,0.0625 -0.45312,0 -0.8125,-0.125 -0.35937,-0.14062 -0.60937,-0.35937 -0.25,-0.21875 -0.39063,-0.51563 -0.14062,-0.3125 -0.14062,-0.67187 0,-0.46875 0.1875,-0.8125 0.1875,-0.34375 0.51562,-0.57813 0.34375,-0.23437 0.8125,-0.34375 0.48438,-0.10937 1.0625,-0.10937 h 1.0625 v -0.45313 q 0,-0.25 -0.0937,-0.45312 -0.0937,-0.20313 -0.26562,-0.34375 -0.17188,-0.14063 -0.42188,-0.21875 -0.25,-0.0781 -0.5625,-0.0781 -0.28125,0 -0.51562,0.0781 -0.21875,0.0625 -0.375,0.1875 -0.15625,0.10937 -0.25,0.28125 -0.0781,0.15625 -0.0781,0.34375 h -0.96875 q 0.0156,-0.3125 0.15625,-0.60938 0.15625,-0.29687 0.4375,-0.53125 0.29688,-0.23437 0.70313,-0.375 0.42187,-0.15625 0.95312,-0.15625 0.46875,0 0.875,0.125 0.42188,0.10938 0.71875,0.34375 0.29688,0.23438 0.46875,0.59375 0.17188,0.35938 0.17188,0.82813 v 2.60937 q 0,0.28125 0.0469,0.60938 0.0625,0.3125 0.15625,0.54687 v 0.0781 z m -1.70312,-0.73438 q 0.28125,0 0.51562,-0.0625 0.25,-0.0781 0.45313,-0.20312 0.20312,-0.125 0.34375,-0.26563 0.14062,-0.15625 0.23437,-0.32812 v -1.14063 h -0.90625 q -0.84375,0 -1.3125,0.25 -0.45312,0.25 -0.45312,0.78125 0,0.21875 0.0625,0.39063 0.0781,0.17187 0.21875,0.3125 0.14062,0.125 0.34375,0.20312 0.21875,0.0625 0.5,0.0625 z m 4.55104,-7.26562 h 2.87502 v 7.17187 h 1.82812 v 0.82813 h -4.70314 v -0.82813 h 1.90625 v -6.32812 h -1.90625 z m 6.39479,0 h 2.875 v 7.17187 h 1.82813 v 0.82813 h -4.70313 v -0.82813 h 1.90625 v -6.32812 h -1.90625 z m 9.97293,6.5 q 0,-0.17188 -0.0625,-0.29688 -0.0625,-0.14062 -0.23437,-0.25 -0.15625,-0.125 -0.42188,-0.21875 -0.26562,-0.0937 -0.65625,-0.17187 -0.48437,-0.10938 -0.89062,-0.23438 -0.39063,-0.14062 -0.67188,-0.32812 -0.28125,-0.20313 -0.4375,-0.46875 -0.15625,-0.26563 -0.15625,-0.60938 0,-0.34375 0.15625,-0.64062 0.15625,-0.3125 0.45313,-0.53125 0.29687,-0.21875 0.6875,-0.34375 0.40625,-0.14063 0.89062,-0.14063 0.51563,0 0.9375,0.14063 0.42188,0.125 0.70313,0.375 0.29687,0.23437 0.45312,0.5625 0.15625,0.3125 0.15625,0.6875 h -0.95312 q 0,-0.1875 -0.0937,-0.35938 -0.0937,-0.17187 -0.26563,-0.3125 -0.17187,-0.14062 -0.40625,-0.21875 -0.23437,-0.0781 -0.53125,-0.0781 -0.3125,0 -0.54687,0.0625 -0.21875,0.0625 -0.375,0.1875 -0.15625,0.10937 -0.23438,0.26562 -0.0781,0.14063 -0.0781,0.3125 0,0.15625 0.0625,0.29688 0.0625,0.125 0.21875,0.23437 0.15625,0.0937 0.40625,0.1875 0.26562,0.0781 0.65625,0.15625 0.51562,0.10938 0.92187,0.25 0.42188,0.14063 0.70313,0.34375 0.28125,0.20313 0.42187,0.46875 0.15625,0.26563 0.15625,0.60938 0,0.375 -0.17187,0.6875 -0.17188,0.29687 -0.46875,0.51562 -0.29688,0.21875 -0.71875,0.34375 -0.42188,0.125 -0.92188,0.125 -0.57812,0 -1.03125,-0.15625 -0.4375,-0.15625 -0.75,-0.40625 -0.3125,-0.25 -0.48437,-0.57812 -0.15625,-0.34375 -0.15625,-0.70313 h 0.96875 q 0.0156,0.29688 0.15625,0.5 0.14062,0.20313 0.34375,0.32813 0.20312,0.125 0.45312,0.1875 0.25,0.0469 0.5,0.0469 0.60938,0 0.95313,-0.21875 0.35937,-0.23437 0.35937,-0.60937 z"
       id="path42"
       inkscape:connector-curvature="0"
       style="fill:#000000;fill-rule:nonzero" />
    <path
       d="m 173,172.56036 h 125.98425 v 64 H 173 Z"
       id="path44"
       inkscape:connector-curvature="0"
       style="fill:#fcbcfb;fill-rule:evenodd" />
    <path
       d="m 173,172.56036 h 125.98425 v 64 H 173 Z"
       id="path46"
       inkscape:connector-curvature="0"
       style="fill-rule:evenodd;stroke:#000000;stroke-width:1;stroke-linecap:butt;stroke-linejoin:round" />
    <path
       d="m 210.93666,208.12099 q 0,-0.60938 -0.28125,-1.01563 -0.28125,-0.42187 -0.71875,-0.70312 -0.4375,-0.29688 -0.96875,-0.48438 -0.51563,-0.1875 -1,-0.34375 -0.70313,-0.23437 -1.42188,-0.54687 -0.71875,-0.32813 -1.32812,-0.78125 -0.59375,-0.46875 -0.96875,-1.09375 -0.375,-0.64063 -0.375,-1.5 0,-0.85938 0.375,-1.53125 0.375,-0.67188 0.98437,-1.14063 0.60938,-0.46875 1.375,-0.70312 0.78125,-0.25 1.57813,-0.25 0.85937,0 1.65625,0.29687 0.8125,0.28125 1.42187,0.8125 0.625,0.51563 1,1.25 0.375,0.73438 0.39063,1.64063 h -1.73438 q -0.0781,-0.5625 -0.28125,-1.03125 -0.20312,-0.46875 -0.5625,-0.8125 -0.34375,-0.34375 -0.82812,-0.51563 -0.46875,-0.1875 -1.0625,-0.1875 -0.48438,0 -0.95313,0.14063 -0.45312,0.125 -0.8125,0.40625 -0.35937,0.26562 -0.57812,0.67187 -0.21875,0.39063 -0.21875,0.92188 0.0156,0.57812 0.29687,0.98437 0.28125,0.39063 0.71875,0.67188 0.4375,0.26562 0.9375,0.45312 0.5,0.17188 0.95313,0.3125 0.48437,0.15625 0.98437,0.35938 0.5,0.1875 0.96875,0.4375 0.46875,0.25 0.85938,0.57812 0.40625,0.3125 0.70312,0.71875 0.3125,0.40625 0.46875,0.89063 0.17188,0.48437 0.17188,1.07812 0,0.89063 -0.40625,1.5625 -0.39063,0.67188 -1.01563,1.10938 -0.625,0.4375 -1.42187,0.67187 -0.78125,0.21875 -1.57813,0.21875 -0.89062,0 -1.73437,-0.26562 -0.84375,-0.28125 -1.51563,-0.79688 -0.67187,-0.51562 -1.09375,-1.25 -0.40625,-0.75 -0.4375,-1.70312 h 1.71875 q 0.0781,0.625 0.32813,1.10937 0.26562,0.46875 0.65625,0.8125 0.40625,0.32813 0.92187,0.5 0.53125,0.15625 1.15625,0.15625 0.48438,0 0.96875,-0.125 0.48438,-0.125 0.84375,-0.375 0.375,-0.26562 0.60938,-0.65625 0.25,-0.40625 0.25,-0.95312 z m 8.60182,3.54687 q -1.03125,0 -1.90625,-0.35937 -0.875,-0.35938 -1.5,-0.98438 -0.60937,-0.64062 -0.95312,-1.51562 -0.34375,-0.875 -0.34375,-1.90625 v -0.39063 q 0,-1.1875 0.375,-2.125 0.39062,-0.95312 1.01562,-1.59375 0.64063,-0.65625 1.4375,-1 0.8125,-0.34375 1.65625,-0.34375 1.0625,0 1.85938,0.375 0.79687,0.35938 1.32812,1.01563 0.53125,0.64062 0.78125,1.53125 0.26563,0.875 0.26563,1.90625 v 0.75 h -7.03125 q 0.0156,0.6875 0.25,1.28125 0.23437,0.57812 0.64062,1.03125 0.40625,0.4375 0.96875,0.70312 0.5625,0.25 1.25,0.25 0.90625,0 1.59375,-0.35937 0.70313,-0.375 1.17188,-0.96875 l 1.03125,0.79687 q -0.25,0.375 -0.625,0.71875 -0.35938,0.32813 -0.84375,0.59375 -0.48438,0.26563 -1.09375,0.42188 -0.60938,0.17187 -1.32813,0.17187 z m -0.21875,-8.84375 q -0.51562,0 -0.96875,0.1875 -0.45312,0.1875 -0.8125,0.54688 -0.35937,0.35937 -0.625,0.89062 -0.25,0.51563 -0.34375,1.20313 h 5.29688 v -0.125 q -0.0156,-0.5 -0.1875,-0.98438 -0.15625,-0.48437 -0.46875,-0.85937 -0.29688,-0.39063 -0.76563,-0.625 -0.46875,-0.23438 -1.125,-0.23438 z m 8.57057,-1.20312 0.125,1.45312 q 0.53125,-0.76562 1.3125,-1.1875 0.78125,-0.4375 1.75,-0.4375 0.78125,0 1.40625,0.21875 0.64063,0.21875 1.07813,0.6875 0.45312,0.45313 0.6875,1.17188 0.25,0.71875 0.25,1.6875 v 6.26562 h -1.6875 v -6.21875 q 0,-0.65625 -0.15625,-1.10937 -0.14063,-0.45313 -0.42188,-0.73438 -0.28125,-0.29687 -0.70312,-0.42187 -0.40625,-0.125 -0.95313,-0.125 -0.84375,0 -1.48437,0.42187 -0.64063,0.42188 -1.03125,1.125 v 7.0625 h -1.6875 v -9.85937 z m 13.67995,-2.39063 v 2.39063 h 3.75 v 1.3125 h -3.75 v 5.34375 q 0,0.57812 0.14063,0.95312 0.14062,0.375 0.39062,0.59375 0.26563,0.21875 0.59375,0.3125 0.34375,0.0937 0.71875,0.0937 0.26563,0 0.54688,-0.0312 0.29687,-0.0312 0.57812,-0.0781 0.28125,-0.0469 0.51563,-0.0937 0.25,-0.0469 0.40625,-0.0937 l 0.23437,1.20312 q -0.21875,0.125 -0.51562,0.21875 -0.29688,0.0937 -0.65625,0.15625 -0.34375,0.0781 -0.75,0.10938 -0.39063,0.0469 -0.78125,0.0469 -0.65625,0 -1.23438,-0.1875 -0.5625,-0.1875 -0.98437,-0.59375 -0.42188,-0.40625 -0.67188,-1.04687 -0.23437,-0.64063 -0.23437,-1.5625 v -5.34375 H 237.289 v -1.3125 h 2.57813 v -2.39063 z m 13.66432,2.21875 q 0.23438,0 0.48438,0.0156 0.26562,0 0.48436,0.0312 0.23437,0.0312 0.42187,0.0781 0.20313,0.0469 0.34375,0.10938 l -0.23437,1.64062 q -0.48438,-0.10937 -0.93749,-0.15625 -0.4375,-0.0469 -0.92187,-0.0469 -1.1875,0 -1.92188,0.54687 -0.73437,0.53125 -1.07812,1.48438 v 6.32812 h -1.6875 v -9.85937 h 1.59375 l 0.0937,1.5625 q 0.59375,-0.79688 1.4375,-1.26563 0.84375,-0.46875 1.92187,-0.46875 z m 8.35182,6.53125 0.4375,1.1875 3.01563,-7.54687 h 1.89062 l -5.01562,11.375 q -0.17188,0.39062 -0.4375,0.8125 -0.26563,0.4375 -0.65625,0.79687 -0.375,0.35938 -0.89063,0.60938 -0.5,0.25 -1.17187,0.25 -0.10938,0 -0.26563,-0.0156 -0.14062,-0.0156 -0.29687,-0.0469 -0.14063,-0.0156 -0.26563,-0.0469 -0.125,-0.0156 -0.20312,-0.0469 l 0.26562,-1.375 q 0.0625,0 0.17188,0.0156 0.10937,0.0156 0.21875,0.0156 0.125,0.0156 0.23437,0.0156 0.10938,0 0.17188,0 0.35937,0 0.64062,-0.1875 0.28125,-0.1875 0.5,-0.45312 0.23438,-0.26563 0.39063,-0.54688 0.15625,-0.28125 0.25,-0.46875 l 0.67187,-1.3125 -4.23437,-9.39062 h 1.875 z"
       id="path48"
       inkscape:connector-curvature="0"
       style="fill:#000000;fill-rule:nonzero" />
    <path
       d="m 138.02274,147.55643 h 53.97862"
       id="path50"
       inkscape:connector-curvature="0"
       style="fill:#000000;fill-opacity:0;fill-rule:evenodd" />
    <path
       d="m 138.02274,147.55643 h 53.97862"
       id="path52"
       inkscape:connector-curvature="0"
       style="fill-rule:evenodd;stroke:#ff0000;stroke-width:2;stroke-linecap:butt;stroke-linejoin:round;stroke-dasharray:8, 6" />
    <path
       d="m 291.22964,147.55643 h 50.96457"
       id="path54"
       inkscape:connector-curvature="0"
       style="fill:#000000;fill-opacity:0;fill-rule:evenodd" />
    <path
       d="m 291.22964,147.55643 h 50.96457"
       id="path56"
       inkscape:connector-curvature="0"
       style="fill-rule:evenodd;stroke:#ff0000;stroke-width:2;stroke-linecap:butt;stroke-linejoin:round;stroke-dasharray:8, 6" />
    <path
       d="m 192.00136,126.56431 h 99.22829 v 41.98425 h -99.22829 z"
       id="path58"
       inkscape:connector-curvature="0"
       style="fill:#000000;fill-opacity:0;fill-rule:evenodd" />
    <path
       d="m 227.30612,143.88243 q 0,-0.34375 -0.17188,-0.57813 -0.15625,-0.23437 -0.40625,-0.39062 -0.25,-0.17188 -0.54687,-0.28125 -0.29688,-0.10938 -0.57813,-0.20313 -0.39062,-0.125 -0.8125,-0.3125 -0.40625,-0.1875 -0.75,-0.45312 -0.34375,-0.26563 -0.5625,-0.625 -0.20312,-0.35938 -0.20312,-0.84375 0,-0.5 0.20312,-0.875 0.21875,-0.39063 0.5625,-0.65625 0.35938,-0.26563 0.79688,-0.40625 0.4375,-0.14063 0.89062,-0.14063 0.5,0 0.95313,0.17188 0.45312,0.15625 0.8125,0.45312 0.35937,0.29688 0.5625,0.71875 0.21875,0.42188 0.23437,0.95313 h -1 q -0.0312,-0.32813 -0.15625,-0.59375 -0.125,-0.28125 -0.32812,-0.46875 -0.1875,-0.1875 -0.46875,-0.29688 -0.26563,-0.10937 -0.60938,-0.10937 -0.28125,0 -0.54687,0.0781 -0.25,0.0781 -0.45313,0.23438 -0.20312,0.15625 -0.32812,0.39062 -0.125,0.21875 -0.125,0.53125 0,0.32813 0.15625,0.5625 0.17187,0.21875 0.42187,0.375 0.25,0.15625 0.53125,0.26563 0.28125,0.0937 0.54688,0.17187 0.28125,0.0937 0.5625,0.20313 0.28125,0.10937 0.54687,0.26562 0.26563,0.14063 0.5,0.32813 0.23438,0.17187 0.40625,0.40625 0.17188,0.23437 0.26563,0.51562 0.0937,0.26563 0.0937,0.60938 0,0.5 -0.23438,0.89062 -0.21875,0.375 -0.57812,0.625 -0.35938,0.25 -0.8125,0.39063 -0.45313,0.125 -0.90625,0.125 -0.5,0 -0.98438,-0.15625 -0.48437,-0.15625 -0.875,-0.45313 -0.375,-0.29687 -0.625,-0.71875 -0.23437,-0.42187 -0.25,-0.96875 h 0.98438 q 0.0469,0.35938 0.1875,0.64063 0.15625,0.26562 0.375,0.45312 0.23437,0.1875 0.53125,0.28125 0.29687,0.0937 0.65625,0.0937 0.28125,0 0.54687,-0.0625 0.28125,-0.0781 0.48438,-0.21875 0.21875,-0.15625 0.35937,-0.375 0.14063,-0.23437 0.14063,-0.54687 z m 3.39479,-2.875 q 0.29688,-0.4375 0.73438,-0.6875 0.4375,-0.25 1,-0.25 0.4375,0 0.79687,0.125 0.35938,0.125 0.60938,0.40625 0.26562,0.26562 0.40625,0.6875 0.14062,0.40625 0.14062,0.96875 v 3.54687 h -0.96875 v -3.54687 q 0,-0.70313 -0.32812,-1.03125 -0.32813,-0.34375 -0.95313,-0.34375 -0.45312,0 -0.82812,0.23437 -0.375,0.21875 -0.60938,0.59375 v 4.09375 h -0.96875 v -8 h 0.96875 z m 7.91042,4.90625 q -0.59375,0 -1.09375,-0.20313 -0.48438,-0.20312 -0.84375,-0.5625 -0.35938,-0.375 -0.5625,-0.875 -0.1875,-0.5 -0.1875,-1.09375 v -0.20312 q 0,-0.6875 0.21875,-1.21875 0.21875,-0.54688 0.57812,-0.92188 0.35938,-0.375 0.8125,-0.5625 0.46875,-0.20312 0.95313,-0.20312 0.60937,0 1.0625,0.21875 0.45312,0.20312 0.75,0.57812 0.3125,0.375 0.45312,0.875 0.15625,0.5 0.15625,1.09375 v 0.42188 h -4.01562 q 0.0156,0.39062 0.14062,0.73437 0.14063,0.32813 0.35938,0.59375 0.23437,0.25 0.54687,0.39063 0.32813,0.14062 0.71875,0.14062 0.51563,0 0.92188,-0.20312 0.40625,-0.20313 0.67187,-0.54688 l 0.57813,0.45313 q -0.14063,0.21875 -0.35938,0.42187 -0.20312,0.1875 -0.48437,0.34375 -0.26563,0.14063 -0.625,0.23438 -0.34375,0.0937 -0.75,0.0937 z m -0.125,-5.04688 q -0.29688,0 -0.5625,0.10938 -0.25,0.0937 -0.45313,0.3125 -0.20312,0.20312 -0.35937,0.5 -0.14063,0.29687 -0.1875,0.6875 h 3.01562 v -0.0781 q -0.0156,-0.28125 -0.10937,-0.54687 -0.0781,-0.28125 -0.26563,-0.5 -0.17187,-0.21875 -0.4375,-0.34375 -0.26562,-0.14063 -0.64062,-0.14063 z m 4.89479,-0.6875 0.0781,0.82813 q 0.29688,-0.4375 0.73438,-0.6875 0.45312,-0.25 1.01562,-0.25 0.4375,0 0.79688,0.125 0.35937,0.125 0.60937,0.39062 0.26563,0.26563 0.40625,0.67188 0.14063,0.40625 0.14063,0.96875 v 3.57812 h -0.96875 v -3.54687 q 0,-0.375 -0.0937,-0.64063 -0.0781,-0.26562 -0.25,-0.42187 -0.15625,-0.15625 -0.39063,-0.23438 -0.23437,-0.0781 -0.54687,-0.0781 -0.48438,0 -0.84375,0.25 -0.35938,0.23437 -0.57813,0.64062 v 4.03125 h -0.96875 v -5.625 z m 7.81666,-1.375 v 1.375 h 2.14063 v 0.73438 h -2.14063 v 3.0625 q 0,0.32812 0.0781,0.54687 0.0781,0.20313 0.21875,0.34375 0.15625,0.125 0.34375,0.17188 0.1875,0.0469 0.40625,0.0469 0.15625,0 0.3125,-0.0156 0.17187,-0.0156 0.32812,-0.0312 0.17188,-0.0312 0.29688,-0.0625 0.14062,-0.0312 0.23437,-0.0469 l 0.14063,0.67188 q -0.125,0.0781 -0.29688,0.14062 -0.17187,0.0469 -0.375,0.0781 -0.20312,0.0469 -0.4375,0.0625 -0.21875,0.0312 -0.4375,0.0312 -0.375,0 -0.70312,-0.10938 -0.32813,-0.10937 -0.5625,-0.34375 -0.23438,-0.23437 -0.375,-0.59375 -0.14063,-0.375 -0.14063,-0.89062 v -3.0625 h -1.48437 v -0.73438 h 1.48437 v -1.375 z m 7.76981,6.21875 q -0.28125,0.42188 -0.70313,0.65625 -0.42187,0.23438 -0.98437,0.23438 -0.4375,0 -0.79688,-0.14063 -0.35937,-0.14062 -0.60939,-0.42187 -0.25,-0.29688 -0.39062,-0.75 -0.14063,-0.45313 -0.14063,-1.07813 v -3.34375 h 0.96877 v 3.34375 q 0,0.46875 0.0625,0.76563 0.0781,0.29687 0.21875,0.48437 0.15625,0.17188 0.35937,0.25 0.20313,0.0781 0.48438,0.0781 0.59375,0 0.95312,-0.23438 0.35938,-0.25 0.53125,-0.65625 v -4.03125 h 0.96875 v 5.625 h -0.875 z"
       id="path60"
       inkscape:connector-curvature="0"
       style="fill:#000000;fill-rule:nonzero" />
    <path
       d="m 207.88737,157.3043 q 0,-0.17188 -0.0625,-0.29688 -0.0625,-0.14062 -0.23438,-0.25 -0.15625,-0.125 -0.42187,-0.21875 -0.26563,-0.0937 -0.65625,-0.17187 -0.48438,-0.10938 -0.89063,-0.23438 -0.39062,-0.14062 -0.67187,-0.32812 -0.28125,-0.20313 -0.4375,-0.46875 -0.15625,-0.26563 -0.15625,-0.60938 0,-0.34375 0.15625,-0.64062 0.15625,-0.3125 0.45312,-0.53125 0.29688,-0.21875 0.6875,-0.34375 0.40625,-0.14063 0.89063,-0.14063 0.51562,0 0.9375,0.14063 0.42187,0.125 0.70312,0.375 0.29688,0.23437 0.45313,0.5625 0.15625,0.3125 0.15625,0.6875 h -0.95313 q 0,-0.1875 -0.0937,-0.35938 -0.0937,-0.17187 -0.26562,-0.3125 -0.17188,-0.14062 -0.40625,-0.21875 -0.23438,-0.0781 -0.53125,-0.0781 -0.3125,0 -0.54688,0.0625 -0.21875,0.0625 -0.375,0.1875 -0.15625,0.10937 -0.23437,0.26562 -0.0781,0.14063 -0.0781,0.3125 0,0.15625 0.0625,0.29688 0.0625,0.125 0.21875,0.23437 0.15625,0.0937 0.40625,0.1875 0.26563,0.0781 0.65625,0.15625 0.51563,0.10938 0.92188,0.25 0.42187,0.14063 0.70312,0.34375 0.28125,0.20313 0.42188,0.46875 0.15625,0.26563 0.15625,0.60938 0,0.375 -0.17188,0.6875 -0.17187,0.29687 -0.46875,0.51562 -0.29687,0.21875 -0.71875,0.34375 -0.42187,0.125 -0.92187,0.125 -0.57813,0 -1.03125,-0.15625 -0.4375,-0.15625 -0.75,-0.40625 -0.3125,-0.25 -0.48438,-0.57812 -0.15625,-0.34375 -0.15625,-0.70313 h 0.96875 q 0.0156,0.29688 0.15625,0.5 0.14063,0.20313 0.34375,0.32813 0.20313,0.125 0.45313,0.1875 0.25,0.0469 0.5,0.0469 0.60937,0 0.95312,-0.21875 0.35938,-0.23437 0.35938,-0.60937 z m 4.72292,-0.5 0.25,0.6875 1.71875,-4.3125 h 1.07812 l -2.85937,6.5 q -0.0937,0.21875 -0.25,0.45312 -0.15625,0.25 -0.375,0.45313 -0.20313,0.21875 -0.5,0.35937 -0.29688,0.14063 -0.67188,0.14063 -0.0625,0 -0.15625,-0.0156 -0.0781,0 -0.17187,-0.0156 -0.0781,-0.0156 -0.15625,-0.0312 -0.0625,-0.0156 -0.10938,-0.0312 l 0.15625,-0.78125 q 0.0312,0 0.0937,0 0.0625,0.0156 0.125,0.0156 0.0781,0 0.14063,0 0.0625,0.0156 0.0937,0.0156 0.20312,0 0.35937,-0.10938 0.17188,-0.10937 0.29688,-0.26562 0.125,-0.15625 0.21875,-0.3125 0.0937,-0.15625 0.14062,-0.26563 l 0.39063,-0.75 -2.42188,-5.35937 h 1.07813 z m 8.06666,0.5 q 0,-0.17188 -0.0625,-0.29688 -0.0625,-0.14062 -0.23437,-0.25 -0.15625,-0.125 -0.42188,-0.21875 -0.26562,-0.0937 -0.65625,-0.17187 -0.48437,-0.10938 -0.89062,-0.23438 -0.39063,-0.14062 -0.67188,-0.32812 -0.28125,-0.20313 -0.4375,-0.46875 -0.15625,-0.26563 -0.15625,-0.60938 0,-0.34375 0.15625,-0.64062 0.15625,-0.3125 0.45313,-0.53125 0.29687,-0.21875 0.6875,-0.34375 0.40625,-0.14063 0.89062,-0.14063 0.51563,0 0.9375,0.14063 0.42188,0.125 0.70313,0.375 0.29687,0.23437 0.45312,0.5625 0.15625,0.3125 0.15625,0.6875 h -0.95312 q 0,-0.1875 -0.0937,-0.35938 -0.0937,-0.17187 -0.26563,-0.3125 -0.17187,-0.14062 -0.40625,-0.21875 -0.23437,-0.0781 -0.53125,-0.0781 -0.3125,0 -0.54687,0.0625 -0.21875,0.0625 -0.375,0.1875 -0.15625,0.10937 -0.23438,0.26562 -0.0781,0.14063 -0.0781,0.3125 0,0.15625 0.0625,0.29688 0.0625,0.125 0.21875,0.23437 0.15625,0.0937 0.40625,0.1875 0.26562,0.0781 0.65625,0.15625 0.51562,0.10938 0.92187,0.25 0.42188,0.14063 0.70313,0.34375 0.28125,0.20313 0.42187,0.46875 0.15625,0.26563 0.15625,0.60938 0,0.375 -0.17187,0.6875 -0.17188,0.29687 -0.46875,0.51562 -0.29688,0.21875 -0.71875,0.34375 -0.42188,0.125 -0.92188,0.125 -0.57812,0 -1.03125,-0.15625 -0.4375,-0.15625 -0.75,-0.40625 -0.3125,-0.25 -0.48437,-0.57812 -0.15625,-0.34375 -0.15625,-0.70313 h 0.96875 q 0.0156,0.29688 0.15625,0.5 0.14062,0.20313 0.34375,0.32813 0.20312,0.125 0.45312,0.1875 0.25,0.0469 0.5,0.0469 0.60938,0 0.95313,-0.21875 0.35937,-0.23437 0.35937,-0.60937 z m 4.94167,-5.5 v 1.375 h 2.14062 v 0.73437 h -2.14062 v 3.0625 q 0,0.32813 0.0781,0.54688 0.0781,0.20312 0.21875,0.34375 0.15625,0.125 0.34375,0.17187 0.1875,0.0469 0.40625,0.0469 0.15625,0 0.3125,-0.0156 0.17188,-0.0156 0.32813,-0.0312 0.17187,-0.0312 0.29687,-0.0625 0.14063,-0.0312 0.23438,-0.0469 l 0.14062,0.67187 q -0.125,0.0781 -0.29687,0.14063 -0.17188,0.0469 -0.375,0.0781 -0.20313,0.0469 -0.4375,0.0625 -0.21875,0.0312 -0.4375,0.0312 -0.375,0 -0.70313,-0.10937 -0.32812,-0.10938 -0.5625,-0.34375 -0.23437,-0.23438 -0.375,-0.59375 -0.14062,-0.375 -0.14062,-0.89063 v -3.0625 h -1.48438 v -0.73437 h 1.48438 v -1.375 z m 6.59791,7.10937 q -0.59375,0 -1.09375,-0.20312 -0.48437,-0.20313 -0.84375,-0.5625 -0.35937,-0.375 -0.5625,-0.875 -0.1875,-0.5 -0.1875,-1.09375 v -0.20313 q 0,-0.6875 0.21875,-1.21875 0.21875,-0.54687 0.57813,-0.92187 0.35937,-0.375 0.8125,-0.5625 0.46875,-0.20313 0.95312,-0.20313 0.60938,0 1.0625,0.21875 0.45313,0.20313 0.75,0.57813 0.3125,0.375 0.45313,0.875 0.15625,0.5 0.15625,1.09375 v 0.42187 h -4.01563 q 0.0156,0.39063 0.14063,0.73438 0.14062,0.32812 0.35937,0.59375 0.23438,0.25 0.54688,0.39062 0.32812,0.14063 0.71875,0.14063 0.51562,0 0.92187,-0.20313 0.40625,-0.20312 0.67188,-0.54687 l 0.57812,0.45312 q -0.14062,0.21875 -0.35937,0.42188 -0.20313,0.1875 -0.48438,0.34375 -0.26562,0.14062 -0.625,0.23437 -0.34375,0.0937 -0.75,0.0937 z m -0.125,-5.04687 q -0.29687,0 -0.5625,0.10937 -0.25,0.0937 -0.45312,0.3125 -0.20313,0.20313 -0.35938,0.5 -0.14062,0.29688 -0.1875,0.6875 h 3.01563 v -0.0781 q -0.0156,-0.28125 -0.10938,-0.54688 -0.0781,-0.28125 -0.26562,-0.5 -0.17188,-0.21875 -0.4375,-0.34375 -0.26563,-0.14062 -0.64063,-0.14062 z m 4.47292,-0.6875 0.0312,0.53125 q 0.17187,-0.29688 0.45312,-0.46875 0.28125,-0.17188 0.67188,-0.17188 0.76562,0 1.03125,0.60938 0.17187,-0.28125 0.4375,-0.4375 0.28125,-0.17188 0.67187,-0.17188 0.60938,0 0.9375,0.39063 0.34375,0.375 0.34375,1.14062 v 4.20313 h -0.92187 v -4.21875 q 0,-0.70313 -0.64063,-0.70313 -0.17187,0 -0.29687,0.0469 -0.125,0.0469 -0.21875,0.14062 -0.0781,0.0781 -0.125,0.1875 -0.0469,0.0937 -0.0625,0.21875 v 4.32813 h -0.92188 v -4.21875 q 0,-0.34375 -0.15625,-0.51563 -0.14062,-0.1875 -0.46875,-0.1875 -0.29687,0 -0.46875,0.125 -0.15625,0.125 -0.23437,0.3125 v 4.48438 h -0.92188 v -5.625 z m 14.7427,4.95312 q 0.26563,0 0.51563,-0.0781 0.25,-0.0937 0.4375,-0.23438 0.1875,-0.15625 0.29687,-0.35937 0.125,-0.20313 0.14063,-0.4375 h 0.90625 q 0,0.375 -0.20313,0.71875 -0.1875,0.34375 -0.5,0.60937 -0.3125,0.25 -0.73437,0.40625 -0.40625,0.15625 -0.85938,0.15625 -0.625,0 -1.10937,-0.23437 -0.48438,-0.23438 -0.8125,-0.60938 -0.3125,-0.39062 -0.46875,-0.89062 -0.15625,-0.51563 -0.15625,-1.07813 v -0.21875 q 0,-0.5625 0.15625,-1.0625 0.15625,-0.51562 0.46875,-0.90625 0.32812,-0.39062 0.8125,-0.60937 0.48437,-0.23438 1.10937,-0.23438 0.5,0 0.92188,0.15625 0.42187,0.15625 0.71875,0.4375 0.3125,0.26563 0.48437,0.64063 0.17188,0.375 0.17188,0.8125 h -0.90625 q -0.0156,-0.26563 -0.125,-0.48438 -0.0937,-0.23437 -0.28125,-0.40625 -0.1875,-0.17187 -0.4375,-0.26562 -0.25,-0.0937 -0.54688,-0.0937 -0.4375,0 -0.75,0.1875 -0.29687,0.17187 -0.48437,0.46875 -0.1875,0.28125 -0.26563,0.64062 -0.0781,0.35938 -0.0781,0.71875 v 0.21875 q 0,0.35938 0.0781,0.73438 0.0781,0.35937 0.26563,0.65625 0.1875,0.28125 0.48437,0.46875 0.29688,0.17187 0.75,0.17187 z m 7.70731,0.67188 q -0.0625,-0.10938 -0.0937,-0.26563 -0.0312,-0.17187 -0.0469,-0.34375 -0.15625,0.14063 -0.34375,0.28125 -0.17188,0.125 -0.39063,0.21875 -0.20312,0.0937 -0.45312,0.15625 -0.25,0.0625 -0.51563,0.0625 -0.45312,0 -0.8125,-0.125 -0.35939,-0.14062 -0.60939,-0.35937 -0.25,-0.21875 -0.39062,-0.51563 -0.14063,-0.3125 -0.14063,-0.67187 0,-0.46875 0.1875,-0.8125 0.1875,-0.34375 0.51563,-0.57813 0.34376,-0.23437 0.81251,-0.34375 0.48438,-0.10937 1.0625,-0.10937 h 1.0625 v -0.45313 q 0,-0.25 -0.0937,-0.45312 -0.0937,-0.20313 -0.26562,-0.34375 -0.17188,-0.14063 -0.42188,-0.21875 -0.25,-0.0781 -0.5625,-0.0781 -0.28125,0 -0.51562,0.0781 -0.21875,0.0625 -0.375,0.1875 -0.15625,0.10937 -0.25,0.28125 -0.0781,0.15625 -0.0781,0.34375 h -0.96876 q 0.0156,-0.3125 0.15625,-0.60938 0.15625,-0.29687 0.4375,-0.53125 0.29689,-0.23437 0.70314,-0.375 0.42187,-0.15625 0.95312,-0.15625 0.46875,0 0.875,0.125 0.42188,0.10938 0.71875,0.34375 0.29688,0.23438 0.46875,0.59375 0.17188,0.35938 0.17188,0.82813 v 2.60937 q 0,0.28125 0.0469,0.60938 0.0625,0.3125 0.15625,0.54687 v 0.0781 z m -1.70312,-0.73438 q 0.28125,0 0.51562,-0.0625 0.25,-0.0781 0.45313,-0.20312 0.20312,-0.125 0.34375,-0.26563 0.14062,-0.15625 0.23437,-0.32812 v -1.14063 h -0.90625 q -0.84375,0 -1.3125,0.25 -0.45312,0.25 -0.45312,0.78125 0,0.21875 0.0625,0.39063 0.0781,0.17187 0.21875,0.3125 0.14062,0.125 0.34375,0.20312 0.21875,0.0625 0.5,0.0625 z m 4.55102,-7.26562 h 2.875 v 7.17187 h 1.82813 v 0.82813 h -4.70313 v -0.82813 h 1.90625 v -6.32812 h -1.90625 z m 6.39481,0 h 2.875 v 7.17187 h 1.82812 v 0.82813 h -4.70312 v -0.82813 h 1.90625 v -6.32812 h -1.90625 z m 9.9729,6.5 q 0,-0.17188 -0.0625,-0.29688 -0.0625,-0.14062 -0.23438,-0.25 -0.15625,-0.125 -0.42187,-0.21875 -0.26563,-0.0937 -0.65625,-0.17187 -0.48438,-0.10938 -0.89063,-0.23438 -0.39062,-0.14062 -0.67187,-0.32812 -0.28125,-0.20313 -0.4375,-0.46875 -0.15625,-0.26563 -0.15625,-0.60938 0,-0.34375 0.15625,-0.64062 0.15625,-0.3125 0.45312,-0.53125 0.29688,-0.21875 0.6875,-0.34375 0.40625,-0.14063 0.89063,-0.14063 0.51562,0 0.9375,0.14063 0.42187,0.125 0.70312,0.375 0.29688,0.23437 0.45313,0.5625 0.15625,0.3125 0.15625,0.6875 h -0.95313 q 0,-0.1875 -0.0937,-0.35938 -0.0937,-0.17187 -0.26562,-0.3125 -0.17188,-0.14062 -0.40625,-0.21875 -0.23438,-0.0781 -0.53125,-0.0781 -0.3125,0 -0.54688,0.0625 -0.21875,0.0625 -0.375,0.1875 -0.15625,0.10937 -0.23437,0.26562 -0.0781,0.14063 -0.0781,0.3125 0,0.15625 0.0625,0.29688 0.0625,0.125 0.21875,0.23437 0.15625,0.0937 0.40625,0.1875 0.26563,0.0781 0.65625,0.15625 0.51563,0.10938 0.92188,0.25 0.42187,0.14063 0.70312,0.34375 0.28125,0.20313 0.42188,0.46875 0.15625,0.26563 0.15625,0.60938 0,0.375 -0.17188,0.6875 -0.17187,0.29687 -0.46875,0.51562 -0.29687,0.21875 -0.71875,0.34375 -0.42187,0.125 -0.92187,0.125 -0.57813,0 -1.03125,-0.15625 -0.4375,-0.15625 -0.75,-0.40625 -0.3125,-0.25 -0.48438,-0.57812 -0.15625,-0.34375 -0.15625,-0.70313 h 0.96875 q 0.0156,0.29688 0.15625,0.5 0.14063,0.20313 0.34375,0.32813 0.20313,0.125 0.45313,0.1875 0.25,0.0469 0.5,0.0469 0.60937,0 0.95312,-0.21875 0.35938,-0.23437 0.35938,-0.60937 z"
       id="path62"
       inkscape:connector-curvature="0"
       style="fill:#000000;fill-rule:nonzero" />
    <path
       d="m 340.0315,172.56036 h 125.98425 v 64 H 340.0315 Z"
       id="path64"
       inkscape:connector-curvature="0"
       style="fill:#fcbcfb;fill-rule:evenodd" />
    <path
       d="m 340.0315,172.56036 h 125.98425 v 64 H 340.0315 Z"
       id="path66"
       inkscape:connector-curvature="0"
       style="fill-rule:evenodd;stroke:#000000;stroke-width:1;stroke-linecap:butt;stroke-linejoin:round" />
    <path
       d="m 385.20203,209.74599 q -0.84375,0.98437 -1.9375,1.45312 -1.07813,0.46875 -2.375,0.46875 -0.8125,-0.0156 -1.5,-0.25 -0.6875,-0.25 -1.23438,-0.67187 -0.54687,-0.42188 -0.95312,-1 -0.40625,-0.57813 -0.6875,-1.23438 -0.28125,-0.67187 -0.42188,-1.40625 -0.14062,-0.73437 -0.15625,-1.48437 v -1.53125 q 0.0156,-0.75 0.14063,-1.46875 0.125,-0.73438 0.375,-1.40625 0.25,-0.6875 0.625,-1.26563 0.39062,-0.57812 0.92187,-1 0.53125,-0.42187 1.20313,-0.67187 0.6875,-0.25 1.51562,-0.25 0.9375,0 1.71875,0.29687 0.78125,0.28125 1.35938,0.8125 0.59375,0.53125 0.9375,1.29688 0.35937,0.75 0.4375,1.67187 h -1.65625 q -0.10938,-0.57812 -0.3125,-1.0625 -0.20313,-0.48437 -0.54688,-0.82812 -0.34375,-0.34375 -0.82812,-0.53125 -0.46875,-0.20313 -1.09375,-0.20313 -0.60938,0 -1.07813,0.20313 -0.45312,0.20312 -0.79687,0.54687 -0.34375,0.34375 -0.57813,0.8125 -0.21875,0.45313 -0.375,0.96875 -0.14062,0.5 -0.20312,1.03125 -0.0625,0.53125 -0.0625,1.01563 v 1.5625 q 0,0.5 0.0781,1.03125 0.0781,0.53125 0.23438,1.04687 0.17187,0.51563 0.42187,0.96875 0.26563,0.45313 0.625,0.79688 0.35938,0.34375 0.82813,0.5625 0.48437,0.20312 1.07812,0.20312 0.34375,0.0156 0.71875,-0.0156 0.39063,-0.0469 0.73438,-0.15625 0.35937,-0.10938 0.67187,-0.29688 0.3125,-0.1875 0.51563,-0.48437 l 0.0156,-2.98438 h -2.6875 v -1.42187 h 4.29688 z m 2.13306,-3.28125 q 0,-1.0625 0.3125,-1.98438 0.3125,-0.92187 0.89062,-1.59375 0.57813,-0.67187 1.40625,-1.04687 0.82813,-0.39063 1.85938,-0.39063 1.04687,0 1.875,0.39063 0.84375,0.375 1.42187,1.04687 0.57813,0.67188 0.89063,1.59375 0.3125,0.92188 0.3125,1.98438 v 0.20312 q 0,1.0625 -0.3125,1.96875 -0.3125,0.90625 -0.89063,1.59375 -0.57812,0.67188 -1.40625,1.0625 -0.82812,0.375 -1.85937,0.375 -1.04688,0 -1.89063,-0.375 -0.82812,-0.39062 -1.40625,-1.0625 -0.57812,-0.6875 -0.89062,-1.59375 -0.3125,-0.90625 -0.3125,-1.96875 z m 1.6875,0.20312 q 0,0.71875 0.17187,1.39063 0.17188,0.65625 0.51563,1.15625 0.35937,0.5 0.89062,0.79687 0.53125,0.28125 1.23438,0.28125 0.6875,0 1.20312,-0.28125 0.53125,-0.29687 0.875,-0.79687 0.35938,-0.5 0.53125,-1.15625 0.17188,-0.67188 0.17188,-1.39063 v -0.20312 q 0,-0.71875 -0.1875,-1.375 -0.17188,-0.67188 -0.53125,-1.17188 -0.34375,-0.5 -0.875,-0.79687 -0.51563,-0.29688 -1.21875,-0.29688 -0.70313,0 -1.21875,0.29688 -0.51563,0.29687 -0.875,0.79687 -0.34375,0.5 -0.51563,1.17188 -0.17187,0.65625 -0.17187,1.375 z m 12.49246,4.8125 v -8.54687 h -2.70313 v -1.3125 h 2.70313 v -0.6875 q 0,-0.95313 0.28125,-1.65625 0.28125,-0.71875 0.78125,-1.20313 0.51562,-0.48437 1.21875,-0.73437 0.71875,-0.25 1.59375,-0.25 0.59375,0 1.15625,0.10937 0.57812,0.0937 1.17187,0.25 l -0.1875,1.39063 q -0.375,-0.125 -0.875,-0.21875 -0.5,-0.0937 -1.0625,-0.0937 -1.1875,0.0156 -1.78125,0.60937 -0.59375,0.57813 -0.59375,1.79688 v 0.6875 h 3.79688 v 1.3125 h -3.79688 v 8.54687 z m 13.04843,0.1875 q -1.03125,0 -1.90625,-0.35937 -0.875,-0.35938 -1.5,-0.98438 -0.60938,-0.64062 -0.95313,-1.51562 -0.34375,-0.875 -0.34375,-1.90625 v -0.39063 q 0,-1.1875 0.375,-2.125 0.39063,-0.95312 1.01563,-1.59375 0.64062,-0.65625 1.4375,-1 0.8125,-0.34375 1.65625,-0.34375 1.0625,0 1.85937,0.375 0.79688,0.35938 1.32813,1.01563 0.53125,0.64062 0.78125,1.53125 0.26562,0.875 0.26562,1.90625 v 0.75 h -7.03125 q 0.0156,0.6875 0.25,1.28125 0.23438,0.57812 0.64063,1.03125 0.40625,0.4375 0.96875,0.70312 0.5625,0.25 1.25,0.25 0.90625,0 1.59375,-0.35937 0.70312,-0.375 1.17187,-0.96875 l 1.03125,0.79687 q -0.25,0.375 -0.625,0.71875 -0.35937,0.32813 -0.84375,0.59375 -0.48437,0.26563 -1.09375,0.42188 -0.60937,0.17187 -1.32812,0.17187 z m -0.21875,-8.84375 q -0.51563,0 -0.96875,0.1875 -0.45313,0.1875 -0.8125,0.54688 -0.35938,0.35937 -0.625,0.89062 -0.25,0.51563 -0.34375,1.20313 h 5.29687 v -0.125 q -0.0156,-0.5 -0.1875,-0.98438 -0.15625,-0.48437 -0.46875,-0.85937 -0.29687,-0.39063 -0.76562,-0.625 -0.46875,-0.23438 -1.125,-0.23438 z m 13.52368,-1.375 q 0.23438,0 0.48438,0.0156 0.26562,0 0.48437,0.0312 0.23438,0.0312 0.42188,0.0781 0.20312,0.0469 0.34375,0.10938 l -0.23438,1.64062 q -0.48437,-0.10937 -0.9375,-0.15625 -0.4375,-0.0469 -0.92187,-0.0469 -1.1875,0 -1.92188,0.54687 -0.73437,0.53125 -1.07812,1.48438 v 6.32812 h -1.6875 v -9.85937 h 1.59375 l 0.0937,1.5625 q 0.59375,-0.79688 1.4375,-1.26563 0.84375,-0.46875 1.92187,-0.46875 z"
       id="path68"
       inkscape:connector-curvature="0"
       style="fill:#000000;fill-rule:nonzero" />
    <path
       d="m 328.2409,257.54855 h 40.00714"
       id="path70"
       inkscape:connector-curvature="0"
       style="fill:#000000;fill-opacity:0;fill-rule:evenodd" />
    <path
       d="m 328.2409,257.54855 h 40.00714"
       id="path72"
       inkscape:connector-curvature="0"
       style="fill-rule:evenodd;stroke:#000000;stroke-width:1;stroke-linecap:butt;stroke-linejoin:round" />
    <path
       d="M 435.9022,257.54855 H 489.245"
       id="path74"
       inkscape:connector-curvature="0"
       style="fill:#000000;fill-opacity:0;fill-rule:evenodd" />
    <path
       d="M 435.9022,257.54855 H 489.245"
       id="path76"
       inkscape:connector-curvature="0"
       style="fill-rule:evenodd;stroke:#000000;stroke-width:1;stroke-linecap:butt;stroke-linejoin:round" />
    <path
       d="m 368.24805,236.55643 h 70.52331 v 41.98425 h -70.52331 z"
       id="path78"
       inkscape:connector-curvature="0"
       style="fill:#000000;fill-opacity:0;fill-rule:evenodd" />
    <path
       d="m 389.20032,253.87456 q 0,-0.34375 -0.17188,-0.57813 -0.15625,-0.23437 -0.40625,-0.39062 -0.25,-0.17188 -0.54687,-0.28125 -0.29688,-0.10938 -0.57813,-0.20313 -0.39062,-0.125 -0.8125,-0.3125 -0.40625,-0.1875 -0.75,-0.45312 -0.34375,-0.26563 -0.5625,-0.625 -0.20312,-0.35938 -0.20312,-0.84375 0,-0.5 0.20312,-0.875 0.21875,-0.39063 0.5625,-0.65625 0.35938,-0.26563 0.79688,-0.40625 0.4375,-0.14063 0.89062,-0.14063 0.5,0 0.95313,0.17188 0.45312,0.15625 0.8125,0.45312 0.35937,0.29688 0.5625,0.71875 0.21875,0.42188 0.23437,0.95313 h -1 q -0.0312,-0.32813 -0.15625,-0.59375 -0.125,-0.28125 -0.32812,-0.46875 -0.1875,-0.1875 -0.46875,-0.29688 -0.26563,-0.10937 -0.60938,-0.10937 -0.28125,0 -0.54687,0.0781 -0.25,0.0781 -0.45313,0.23438 -0.20312,0.15625 -0.32812,0.39062 -0.125,0.21875 -0.125,0.53125 0,0.32813 0.15625,0.5625 0.17187,0.21875 0.42187,0.375 0.25,0.15625 0.53125,0.26563 0.28125,0.0937 0.54688,0.17187 0.28125,0.0937 0.5625,0.20313 0.28125,0.10937 0.54687,0.26562 0.26563,0.14063 0.5,0.32813 0.23438,0.17187 0.40625,0.40625 0.17188,0.23437 0.26563,0.51562 0.0937,0.26563 0.0937,0.60938 0,0.5 -0.23438,0.89062 -0.21875,0.375 -0.57812,0.625 -0.35938,0.25 -0.8125,0.39063 -0.45313,0.125 -0.90625,0.125 -0.5,0 -0.98438,-0.15625 -0.48437,-0.15625 -0.875,-0.45313 -0.375,-0.29687 -0.625,-0.71875 -0.23437,-0.42187 -0.25,-0.96875 h 0.98438 q 0.0469,0.35938 0.1875,0.64063 0.15625,0.26562 0.375,0.45312 0.23437,0.1875 0.53125,0.28125 0.29687,0.0937 0.65625,0.0937 0.28125,0 0.54687,-0.0625 0.28125,-0.0781 0.48438,-0.21875 0.21875,-0.15625 0.35937,-0.375 0.14063,-0.23437 0.14063,-0.54687 z m 4.48856,-0.0781 0.25,0.6875 1.71875,-4.3125 h 1.07812 l -2.85937,6.49999 q -0.0937,0.21875 -0.25,0.45312 -0.15625,0.25 -0.375,0.45313 -0.20313,0.21875 -0.5,0.35937 -0.29688,0.14063 -0.67188,0.14063 -0.0625,0 -0.15625,-0.0156 -0.0781,0 -0.17187,-0.0156 -0.0781,-0.0156 -0.15625,-0.0312 -0.0625,-0.0156 -0.10938,-0.0312 l 0.15625,-0.78125 q 0.0312,0 0.0937,0 0.0625,0.0156 0.125,0.0156 0.0781,0 0.14063,0 0.0625,0.0156 0.0937,0.0156 0.20312,0 0.35937,-0.10938 0.17188,-0.10937 0.29688,-0.26562 0.125,-0.15625 0.21875,-0.3125 0.0937,-0.15625 0.14062,-0.26563 l 0.39063,-0.74998 -2.42188,-5.35938 h 1.07813 z m 8.06665,0.5 q 0,-0.17187 -0.0625,-0.29687 -0.0625,-0.14063 -0.23438,-0.25 -0.15625,-0.125 -0.42187,-0.21875 -0.26563,-0.0937 -0.65625,-0.17188 -0.48438,-0.10937 -0.89063,-0.23437 -0.39062,-0.14063 -0.67187,-0.32813 -0.28125,-0.20312 -0.4375,-0.46875 -0.15625,-0.26562 -0.15625,-0.60937 0,-0.34375 0.15625,-0.64063 0.15625,-0.3125 0.45312,-0.53125 0.29688,-0.21875 0.6875,-0.34375 0.40625,-0.14062 0.89063,-0.14062 0.51562,0 0.9375,0.14062 0.42187,0.125 0.70312,0.375 0.29688,0.23438 0.45313,0.5625 0.15625,0.3125 0.15625,0.6875 h -0.95313 q 0,-0.1875 -0.0937,-0.35937 -0.0937,-0.17188 -0.26562,-0.3125 -0.17188,-0.14063 -0.40625,-0.21875 -0.23438,-0.0781 -0.53125,-0.0781 -0.3125,0 -0.54688,0.0625 -0.21875,0.0625 -0.375,0.1875 -0.15625,0.10938 -0.23437,0.26563 -0.0781,0.14062 -0.0781,0.3125 0,0.15625 0.0625,0.29687 0.0625,0.125 0.21875,0.23438 0.15625,0.0937 0.40625,0.1875 0.26563,0.0781 0.65625,0.15625 0.51563,0.10937 0.92188,0.25 0.42187,0.14062 0.70312,0.34375 0.28125,0.20312 0.42188,0.46875 0.15625,0.26562 0.15625,0.60937 0,0.375 -0.17188,0.6875 -0.17187,0.29688 -0.46875,0.51563 -0.29687,0.21875 -0.71875,0.34375 -0.42187,0.125 -0.92187,0.125 -0.57813,0 -1.03125,-0.15625 -0.4375,-0.15625 -0.75,-0.40625 -0.3125,-0.25 -0.48438,-0.57813 -0.15625,-0.34375 -0.15625,-0.70312 h 0.96875 q 0.0156,0.29687 0.15625,0.5 0.14063,0.20312 0.34375,0.32812 0.20313,0.125 0.45313,0.1875 0.25,0.0469 0.5,0.0469 0.60937,0 0.95312,-0.21875 0.35938,-0.23438 0.35938,-0.60938 z m 4.94168,-5.5 v 1.375 h 2.14062 v 0.73438 h -2.14062 v 3.0625 q 0,0.32812 0.0781,0.54687 0.0781,0.20313 0.21875,0.34375 0.15625,0.125 0.34375,0.17188 0.1875,0.0469 0.40625,0.0469 0.15625,0 0.3125,-0.0156 0.17188,-0.0156 0.32813,-0.0312 0.17187,-0.0312 0.29687,-0.0625 0.14063,-0.0312 0.23438,-0.0469 l 0.14062,0.67188 q -0.125,0.0781 -0.29687,0.14062 -0.17188,0.0469 -0.375,0.0781 -0.20313,0.0469 -0.4375,0.0625 -0.21875,0.0312 -0.4375,0.0312 -0.375,0 -0.70313,-0.10938 -0.32812,-0.10937 -0.5625,-0.34375 -0.23437,-0.23437 -0.375,-0.59375 -0.14062,-0.375 -0.14062,-0.89062 v -3.0625 h -1.48438 v -0.73438 h 1.48438 v -1.375 z m 6.5979,7.10938 q -0.59375,0 -1.09375,-0.20313 -0.48438,-0.20312 -0.84375,-0.5625 -0.35938,-0.375 -0.5625,-0.875 -0.1875,-0.5 -0.1875,-1.09375 v -0.20312 q 0,-0.6875 0.21875,-1.21875 0.21875,-0.54688 0.57812,-0.92188 0.35938,-0.375 0.8125,-0.5625 0.46875,-0.20312 0.95313,-0.20312 0.60937,0 1.0625,0.21875 0.45312,0.20312 0.75,0.57812 0.3125,0.375 0.45312,0.875 0.15625,0.5 0.15625,1.09375 v 0.42188 h -4.01562 q 0.0156,0.39062 0.14062,0.73437 0.14063,0.32813 0.35938,0.59375 0.23437,0.25 0.54687,0.39063 0.32813,0.14062 0.71875,0.14062 0.51563,0 0.92188,-0.20312 0.40625,-0.20313 0.67187,-0.54688 l 0.57813,0.45313 q -0.14063,0.21875 -0.35938,0.42187 -0.20312,0.1875 -0.48437,0.34375 -0.26563,0.14063 -0.625,0.23438 -0.34375,0.0937 -0.75,0.0937 z m -0.125,-5.04688 q -0.29688,0 -0.5625,0.10938 -0.25,0.0937 -0.45313,0.3125 -0.20312,0.20312 -0.35937,0.5 -0.14063,0.29687 -0.1875,0.6875 h 3.01562 v -0.0781 q -0.0156,-0.28125 -0.10937,-0.54687 -0.0781,-0.28125 -0.26563,-0.5 -0.17187,-0.21875 -0.4375,-0.34375 -0.26562,-0.14063 -0.64062,-0.14063 z m 4.47293,-0.6875 0.0312,0.53125 q 0.17187,-0.29687 0.45312,-0.46875 0.28125,-0.17187 0.67188,-0.17187 0.76562,0 1.03125,0.60937 0.17187,-0.28125 0.4375,-0.4375 0.28125,-0.17187 0.67187,-0.17187 0.60938,0 0.9375,0.39062 0.34375,0.375 0.34375,1.14063 v 4.20312 h -0.92187 v -4.21875 q 0,-0.70312 -0.64063,-0.70312 -0.17187,0 -0.29687,0.0469 -0.125,0.0469 -0.21875,0.14063 -0.0781,0.0781 -0.125,0.1875 -0.0469,0.0937 -0.0625,0.21875 v 4.32812 h -0.92188 v -4.21875 q 0,-0.34375 -0.15625,-0.51562 -0.14062,-0.1875 -0.46875,-0.1875 -0.29687,0 -0.46875,0.125 -0.15625,0.125 -0.23437,0.3125 v 4.48437 h -0.92188 v -5.625 z"
       id="path80"
       inkscape:connector-curvature="0"
       style="fill:#000000;fill-rule:nonzero" />
    <path
       d="m 390.81958,268.12454 q 0.26562,0 0.51562,-0.0781 0.25,-0.0937 0.4375,-0.23438 0.1875,-0.15625 0.29688,-0.35937 0.125,-0.20313 0.14062,-0.4375 h 0.90625 q 0,0.375 -0.20312,0.71875 -0.1875,0.34375 -0.5,0.60937 -0.3125,0.25 -0.73438,0.40625 -0.40625,0.15625 -0.85937,0.15625 -0.625,0 -1.10938,-0.23437 -0.48437,-0.23438 -0.8125,-0.60938 -0.3125,-0.39062 -0.46875,-0.89062 -0.15625,-0.51563 -0.15625,-1.07813 v -0.21875 q 0,-0.5625 0.15625,-1.0625 0.15625,-0.51562 0.46875,-0.90625 0.32813,-0.39062 0.8125,-0.60937 0.48438,-0.23438 1.10938,-0.23438 0.5,0 0.92187,0.15625 0.42188,0.15625 0.71875,0.4375 0.3125,0.26563 0.48438,0.64063 0.17187,0.375 0.17187,0.8125 h -0.90625 q -0.0156,-0.26563 -0.125,-0.48438 -0.0937,-0.23437 -0.28125,-0.40625 -0.1875,-0.17187 -0.4375,-0.26562 -0.25,-0.0937 -0.54687,-0.0937 -0.4375,0 -0.75,0.1875 -0.29688,0.17187 -0.48438,0.46875 -0.1875,0.28125 -0.26562,0.64062 -0.0781,0.35938 -0.0781,0.71875 v 0.21875 q 0,0.35938 0.0781,0.73438 0.0781,0.35937 0.26562,0.65625 0.1875,0.28125 0.48438,0.46875 0.29687,0.17187 0.75,0.17187 z m 7.70731,0.67188 q -0.0625,-0.10938 -0.0937,-0.26563 -0.0312,-0.17187 -0.0469,-0.34375 -0.15625,0.14063 -0.34375,0.28125 -0.17187,0.125 -0.39062,0.21875 -0.20313,0.0937 -0.45313,0.15625 -0.25,0.0625 -0.51562,0.0625 -0.45313,0 -0.8125,-0.125 -0.35938,-0.14062 -0.60938,-0.35937 -0.25,-0.21875 -0.39062,-0.51563 -0.14063,-0.3125 -0.14063,-0.67187 0,-0.46875 0.1875,-0.8125 0.1875,-0.34375 0.51563,-0.57813 0.34375,-0.23437 0.8125,-0.34375 0.48437,-0.10937 1.0625,-0.10937 h 1.0625 v -0.45313 q 0,-0.25 -0.0937,-0.45312 -0.0937,-0.20313 -0.26563,-0.34375 -0.17187,-0.14063 -0.42187,-0.21875 -0.25,-0.0781 -0.5625,-0.0781 -0.28125,0 -0.51563,0.0781 -0.21875,0.0625 -0.375,0.1875 -0.15625,0.10937 -0.25,0.28125 -0.0781,0.15625 -0.0781,0.34375 h -0.96875 q 0.0156,-0.3125 0.15625,-0.60938 0.15625,-0.29687 0.4375,-0.53125 0.29687,-0.23437 0.70312,-0.375 0.42188,-0.15625 0.95313,-0.15625 0.46875,0 0.875,0.125 0.42187,0.10938 0.71875,0.34375 0.29687,0.23438 0.46875,0.59375 0.17187,0.35938 0.17187,0.82813 v 2.60937 q 0,0.28125 0.0469,0.60938 0.0625,0.3125 0.15625,0.54687 v 0.0781 z m -1.70313,-0.73438 q 0.28125,0 0.51563,-0.0625 0.25,-0.0781 0.45312,-0.20312 0.20313,-0.125 0.34375,-0.26563 0.14063,-0.15625 0.23438,-0.32812 v -1.14063 h -0.90625 q -0.84375,0 -1.3125,0.25 -0.45313,0.25 -0.45313,0.78125 0,0.21875 0.0625,0.39063 0.0781,0.17187 0.21875,0.3125 0.14063,0.125 0.34375,0.20312 0.21875,0.0625 0.5,0.0625 z m 4.55103,-7.26562 h 2.875 v 7.17187 h 1.82812 v 0.82813 h -4.70312 v -0.82813 h 1.90625 v -6.32812 h -1.90625 z m 6.3948,0 h 2.875 v 7.17187 h 1.82813 v 0.82813 h -4.70313 v -0.82813 h 1.90625 v -6.32812 h -1.90625 z m 9.9729,6.5 q 0,-0.17188 -0.0625,-0.29688 -0.0625,-0.14062 -0.23437,-0.25 -0.15625,-0.125 -0.42188,-0.21875 -0.26562,-0.0937 -0.65625,-0.17187 -0.48437,-0.10938 -0.89062,-0.23438 -0.39063,-0.14062 -0.67188,-0.32812 -0.28125,-0.20313 -0.4375,-0.46875 -0.15625,-0.26563 -0.15625,-0.60938 0,-0.34375 0.15625,-0.64062 0.15625,-0.3125 0.45313,-0.53125 0.29687,-0.21875 0.6875,-0.34375 0.40625,-0.14063 0.89062,-0.14063 0.51563,0 0.9375,0.14063 0.42188,0.125 0.70313,0.375 0.29687,0.23437 0.45312,0.5625 0.15625,0.3125 0.15625,0.6875 h -0.95312 q 0,-0.1875 -0.0937,-0.35938 -0.0937,-0.17187 -0.26563,-0.3125 -0.17187,-0.14062 -0.40625,-0.21875 -0.23437,-0.0781 -0.53125,-0.0781 -0.3125,0 -0.54687,0.0625 -0.21875,0.0625 -0.375,0.1875 -0.15625,0.10937 -0.23438,0.26562 -0.0781,0.14063 -0.0781,0.3125 0,0.15625 0.0625,0.29688 0.0625,0.125 0.21875,0.23437 0.15625,0.0937 0.40625,0.1875 0.26562,0.0781 0.65625,0.15625 0.51562,0.10938 0.92187,0.25 0.42188,0.14063 0.70313,0.34375 0.28125,0.20313 0.42187,0.46875 0.15625,0.26563 0.15625,0.60938 0,0.375 -0.17187,0.6875 -0.17188,0.29687 -0.46875,0.51562 -0.29688,0.21875 -0.71875,0.34375 -0.42188,0.125 -0.92188,0.125 -0.57812,0 -1.03125,-0.15625 -0.4375,-0.15625 -0.75,-0.40625 -0.3125,-0.25 -0.48437,-0.57812 -0.15625,-0.34375 -0.15625,-0.70313 h 0.96875 q 0.0156,0.29688 0.15625,0.5 0.14062,0.20313 0.34375,0.32813 0.20312,0.125 0.45312,0.1875 0.25,0.0469 0.5,0.0469 0.60938,0 0.95313,-0.21875 0.35937,-0.23437 0.35937,-0.60937 z"
       id="path82"
       inkscape:connector-curvature="0"
       style="fill:#000000;fill-rule:nonzero" />
    <path
       d="m 298.98425,204.56036 h 41.03937"
       id="path84"
       inkscape:connector-curvature="0"
       style="fill:#000000;fill-opacity:0;fill-rule:evenodd" />
    <path
       d="m 304.98425,204.56036 h 29.03937"
       id="path86"
       inkscape:connector-curvature="0"
       style="fill-rule:evenodd;stroke:#000000;stroke-width:1;stroke-linecap:butt;stroke-linejoin:round" />
    <path
       d="m 304.98425,202.90863 -4.53809,1.65173 4.53809,1.65174 z"
       id="path88"
       inkscape:connector-curvature="0"
       style="fill:#000000;fill-rule:evenodd;stroke:#000000;stroke-width:1;stroke-linecap:butt" />
    <path
       d="m 334.02362,206.2121 4.53809,-1.65173 -4.53809,-1.65174 z"
       id="path90"
       inkscape:connector-curvature="0"
       style="fill:#000000;fill-rule:evenodd;stroke:#000000;stroke-width:1;stroke-linecap:butt" />
    <path
       d="m 303.98425,172.55249 h 66.99213 v 51.62206 h -66.99213 z"
       id="path92"
       inkscape:connector-curvature="0"
       style="fill:#000000;fill-opacity:0;fill-rule:evenodd" />
    <path
       d="m 315.40613,193.29 q 0.65625,0 1.14063,-0.10938 0.48437,-0.125 0.84375,-0.32812 0.35937,-0.21875 0.59375,-0.5 0.25,-0.28125 0.40625,-0.625 0.15625,-0.34375 0.21875,-0.71875 0.0781,-0.375 0.0937,-0.78125 -0.15625,0.20312 -0.35938,0.375 -0.20312,0.17187 -0.45312,0.3125 -0.25,0.125 -0.5625,0.20312 -0.3125,0.0625 -0.67188,0.0625 -0.70312,0 -1.21875,-0.26562 -0.5,-0.28125 -0.84375,-0.73438 -0.32812,-0.45312 -0.48437,-1.01562 -0.15625,-0.5625 -0.15625,-1.14063 0,-0.67187 0.1875,-1.26562 0.1875,-0.59375 0.54687,-1.03125 0.375,-0.45313 0.92188,-0.71875 0.54687,-0.26563 1.28125,-0.26563 0.54687,0 0.98437,0.15625 0.4375,0.15625 0.76563,0.42188 0.34375,0.26562 0.57812,0.64062 0.25,0.35938 0.39063,0.79688 0.15625,0.42187 0.23437,0.89062 0.0781,0.46875 0.0781,0.9375 v 0.42188 q 0,0.60937 -0.0625,1.25 -0.0625,0.625 -0.23438,1.21875 -0.17187,0.59375 -0.48437,1.125 -0.3125,0.51562 -0.8125,0.90625 -0.5,0.39062 -1.21875,0.625 -0.71875,0.21875 -1.70313,0.21875 h -0.125 V 193.29 Z m 1.4375,-3.10938 q 0.3125,0 0.59375,-0.0937 0.29688,-0.0937 0.53125,-0.28125 0.25,-0.1875 0.4375,-0.4375 0.20313,-0.25 0.3125,-0.5625 V 188.415 q 0,-0.625 -0.15625,-1.125 -0.14062,-0.5 -0.39062,-0.82813 -0.25,-0.34375 -0.57813,-0.53125 -0.32812,-0.1875 -0.70312,-0.1875 -0.42188,0 -0.75,0.17188 -0.3125,0.17187 -0.54688,0.46875 -0.21875,0.29687 -0.34375,0.70312 -0.10937,0.40625 -0.10937,0.875 0,0.42188 0.0937,0.82813 0.10937,0.39062 0.3125,0.70312 0.21875,0.3125 0.53125,0.5 0.32812,0.1875 0.76562,0.1875 z m 6.59192,0.375 v 3.79688 h -1.20313 v -9.46875 h 3.0625 q 0.64063,0 1.20313,0.20312 0.57812,0.1875 1,0.54688 0.4375,0.34375 0.6875,0.875 0.25,0.53125 0.25,1.21875 0,0.67187 -0.25,1.20312 -0.25,0.51563 -0.6875,0.875 -0.42188,0.35938 -1,0.54688 -0.5625,0.1875 -1.20313,0.20312 z m 0,-1 h 1.85937 q 0.42188,0 0.76563,-0.125 0.35937,-0.125 0.60937,-0.35937 0.26563,-0.23438 0.40625,-0.5625 0.15625,-0.34375 0.15625,-0.78125 0,-0.42188 -0.15625,-0.76563 -0.14062,-0.34375 -0.40625,-0.57812 -0.25,-0.25 -0.60937,-0.375 -0.34375,-0.14063 -0.76563,-0.14063 h -1.85937 z"
       id="path94"
       inkscape:connector-curvature="0"
       style="fill:#000000;fill-rule:nonzero" />
    <path
       d="M 152.01181,363.92126 H 275.00394"
       id="path96"
       inkscape:connector-curvature="0"
       style="fill:#000000;fill-opacity:0;fill-rule:evenodd" />
    <path
       d="M 152.01181,363.92126 H 275.00394"
       id="path98"
       inkscape:connector-curvature="0"
       style="fill-rule:evenodd;stroke:#000000;stroke-width:1;stroke-linecap:butt;stroke-linejoin:round" />
    <path
       d="M 361.0118,363.92126 H 486.99605"
       id="path100"
       inkscape:connector-curvature="0"
       style="fill:#000000;fill-opacity:0;fill-rule:evenodd" />
    <path
       d="M 361.0118,363.92126 H 486.99605"
       id="path102"
       inkscape:connector-curvature="0"
       style="fill-rule:evenodd;stroke:#000000;stroke-width:1;stroke-linecap:butt;stroke-linejoin:round" />
    <path
       d="m 255.00394,342.92914 h 126.99213 v 41.98425 H 255.00394 Z"
       id="path104"
       inkscape:connector-curvature="0"
       style="fill:#000000;fill-opacity:0;fill-rule:evenodd" />
    <path
       d="m 288.59375,367.28912 h -1.375 v -5.26562 h -4.65625 v 5.26562 h -1.35938 v -11.375 h 1.35938 v 4.89063 h 4.65625 v -4.89063 h 1.375 z m 8.02344,0 q -0.0937,-0.17187 -0.14063,-0.40625 -0.0469,-0.25 -0.0781,-0.51562 -0.21875,0.21875 -0.48438,0.42187 -0.26562,0.1875 -0.59375,0.34375 -0.32812,0.14063 -0.70312,0.21875 -0.35938,0.0937 -0.76563,0.0937 -0.67187,0 -1.21875,-0.1875 -0.54687,-0.20312 -0.92187,-0.53125 -0.375,-0.34375 -0.59375,-0.79687 -0.20313,-0.45313 -0.20313,-0.98438 0,-0.70312 0.28125,-1.21875 0.28125,-0.53125 0.78125,-0.875 0.51563,-0.34375 1.21875,-0.51562 0.71875,-0.17188 1.60938,-0.17188 h 1.57812 v -0.67187 q 0,-0.375 -0.14062,-0.67188 -0.14063,-0.3125 -0.40625,-0.53125 -0.25,-0.21875 -0.625,-0.32812 -0.375,-0.125 -0.82813,-0.125 -0.4375,0 -0.78125,0.10937 -0.32812,0.10938 -0.5625,0.29688 -0.23437,0.17187 -0.375,0.42187 -0.125,0.25 -0.125,0.51563 h -1.45312 q 0.0156,-0.46875 0.23437,-0.90625 0.23438,-0.45313 0.67188,-0.79688 0.4375,-0.35937 1.04687,-0.57812 0.625,-0.21875 1.42188,-0.21875 0.71875,0 1.32812,0.17187 0.625,0.17188 1.0625,0.53125 0.45313,0.35938 0.70313,0.89063 0.26562,0.53125 0.26562,1.23437 v 3.9375 q 0,0.42188 0.0781,0.89063 0.0781,0.46875 0.21875,0.82812 v 0.125 z m -2.5625,-1.10937 q 0.42187,0 0.78125,-0.10938 0.375,-0.10937 0.67187,-0.28125 0.3125,-0.1875 0.53125,-0.40625 0.21875,-0.23437 0.34375,-0.48437 v -1.71875 h -1.34375 q -1.26562,0 -1.96875,0.375 -0.70312,0.375 -0.70312,1.1875 0,0.3125 0.0937,0.57812 0.10937,0.26563 0.3125,0.45313 0.21875,0.1875 0.53125,0.29687 0.32812,0.10938 0.75,0.10938 z m 12.14843,-7.5 q 0.20313,0 0.42188,0.0156 0.21875,0 0.40625,0.0312 0.20312,0.0312 0.375,0.0781 0.17187,0.0312 0.28125,0.0781 l -0.20313,1.40625 q -0.42187,-0.0937 -0.79687,-0.125 -0.375,-0.0469 -0.79688,-0.0469 -1.01562,0 -1.64062,0.46875 -0.625,0.45312 -0.92188,1.28125 v 5.42187 H 301.875 V 358.836 h 1.375 l 0.0625,1.34375 q 0.51562,-0.70313 1.23437,-1.09375 0.73438,-0.40625 1.65625,-0.40625 z m 3.78907,4.3125 q 0,-0.95313 0.23437,-1.73438 0.23438,-0.79687 0.67188,-1.35937 0.45312,-0.57813 1.07812,-0.89063 0.625,-0.32812 1.39063,-0.32812 0.76562,0 1.32812,0.25 0.5625,0.25 0.98438,0.73437 v -4.375 h 1.4375 v 12 h -1.32813 l -0.0625,-0.89062 q -0.42187,0.51562 -1.01562,0.78125 -0.57813,0.26562 -1.35938,0.26562 -0.76562,0 -1.39062,-0.32812 -0.60938,-0.32813 -1.04688,-0.90625 -0.4375,-0.57813 -0.6875,-1.35938 -0.23437,-0.79687 -0.23437,-1.70312 z m 1.4375,0.15625 q 0,0.625 0.125,1.1875 0.14062,0.54687 0.42187,0.96875 0.28125,0.42187 0.70313,0.67187 0.4375,0.23438 1.03125,0.23438 0.375,0 0.67187,-0.0781 0.29688,-0.0937 0.53125,-0.25 0.25,-0.15625 0.4375,-0.375 0.1875,-0.23437 0.32813,-0.5 v -3.9219 q -0.28125,-0.51563 -0.76563,-0.84375 -0.46875,-0.34375 -1.1875,-0.34375 -0.60937,0 -1.04687,0.25 -0.42188,0.25 -0.70313,0.6875 -0.28125,0.42187 -0.42187,0.98437 -0.125,0.54688 -0.125,1.17188 z m 9.71093,1.07812 0.17188,1.20313 0.21875,-1.20313 1.34375,-5.39062 h 0.9375 l 1.34375,5.39062 0.21875,1.32813 0.21875,-1.32813 0.9375,-5.39062 h 1.28125 l -1.79688,8.45312 H 324.875 l -1.32813,-5.1875 -0.21875,-1.3125 -0.20312,1.3125 -1.3125,5.1875 h -1.14063 L 318.875,358.836 h 1.28125 z m 13.88282,3.0625 q -0.0937,-0.17187 -0.14063,-0.40625 -0.0469,-0.25 -0.0781,-0.51562 -0.21875,0.21875 -0.48438,0.42187 -0.26562,0.1875 -0.59375,0.34375 -0.32812,0.14063 -0.70312,0.21875 -0.35938,0.0937 -0.76563,0.0937 -0.67187,0 -1.21875,-0.1875 -0.54687,-0.20312 -0.92187,-0.53125 -0.375,-0.34375 -0.59375,-0.79687 -0.20313,-0.45313 -0.20313,-0.98438 0,-0.70312 0.28125,-1.21875 0.28125,-0.53125 0.78125,-0.875 0.51563,-0.34375 1.21875,-0.51562 0.71875,-0.17188 1.60938,-0.17188 h 1.57812 v -0.67187 q 0,-0.375 -0.14062,-0.67188 -0.14063,-0.3125 -0.40625,-0.53125 -0.25,-0.21875 -0.625,-0.32812 -0.375,-0.125 -0.82813,-0.125 -0.4375,0 -0.78125,0.10937 -0.32812,0.10938 -0.5625,0.29688 -0.23437,0.17187 -0.375,0.42187 -0.125,0.25 -0.125,0.51563 h -1.45312 q 0.0156,-0.46875 0.23437,-0.90625 0.23438,-0.45313 0.67188,-0.79688 0.4375,-0.35937 1.04687,-0.57812 0.625,-0.21875 1.42188,-0.21875 0.71875,0 1.32812,0.17187 0.625,0.17188 1.0625,0.53125 0.45313,0.35938 0.70313,0.89063 0.26562,0.53125 0.26562,1.23437 v 3.9375 q 0,0.42188 0.0781,0.89063 0.0781,0.46875 0.21875,0.82812 v 0.125 z m -2.5625,-1.10937 q 0.42187,0 0.78125,-0.10938 0.375,-0.10937 0.67187,-0.28125 0.3125,-0.1875 0.53125,-0.40625 0.21875,-0.23437 0.34375,-0.48437 v -1.71875 h -1.34375 q -1.26562,0 -1.96875,0.375 -0.70312,0.375 -0.70312,1.1875 0,0.3125 0.0937,0.57812 0.10937,0.26563 0.3125,0.45313 0.21875,0.1875 0.53125,0.29687 0.32812,0.10938 0.75,0.10938 z m 12.14843,-7.5 q 0.20313,0 0.42188,0.0156 0.21875,0 0.40625,0.0312 0.20312,0.0312 0.375,0.0781 0.17187,0.0312 0.28125,0.0781 l -0.20313,1.40625 q -0.42187,-0.0937 -0.79687,-0.125 -0.375,-0.0469 -0.79688,-0.0469 -1.01562,0 -1.64062,0.46875 -0.625,0.45312 -0.92188,1.28125 v 5.42187 h -1.45312 V 358.836 h 1.375 l 0.0625,1.34375 q 0.51562,-0.70313 1.23437,-1.09375 0.73438,-0.40625 1.65625,-0.40625 z m 7.78907,8.76562 q -0.89063,0 -1.64063,-0.29687 -0.73437,-0.3125 -1.26562,-0.85938 -0.53125,-0.54687 -0.82813,-1.29687 -0.29687,-0.75 -0.29687,-1.64063 v -0.32812 q 0,-1.01563 0.32812,-1.82813 0.32813,-0.8125 0.85938,-1.35937 0.54687,-0.5625 1.23437,-0.85938 0.70313,-0.29687 1.42188,-0.29687 0.92187,0 1.59375,0.3125 0.6875,0.3125 1.14062,0.875 0.45313,0.5625 0.67188,1.32812 0.23437,0.75 0.23437,1.625 v 0.65625 h -6.04687 q 0.0312,0.57813 0.21875,1.09375 0.20312,0.5 0.54687,0.875 0.35938,0.375 0.84375,0.59375 0.48438,0.21875 1.0625,0.21875 0.78125,0 1.375,-0.3125 0.60938,-0.3125 1,-0.82812 l 0.89063,0.6875 q -0.21875,0.32812 -0.53125,0.625 -0.3125,0.28125 -0.73438,0.51562 -0.40625,0.21875 -0.9375,0.35938 -0.51562,0.14062 -1.14062,0.14062 z m -0.1875,-7.57812 q -0.4375,0 -0.82813,0.15625 -0.39062,0.15625 -0.70312,0.46875 -0.3125,0.3125 -0.53125,0.76562 -0.20313,0.4375 -0.29688,1.03125 h 4.54688 v -0.10937 q -0.0156,-0.42188 -0.15625,-0.82813 -0.14063,-0.42187 -0.40625,-0.75 -0.26563,-0.32812 -0.67188,-0.53125 -0.39062,-0.20312 -0.95312,-0.20312 z"
       id="path106"
       inkscape:connector-curvature="0"
       style="fill:#000000;fill-rule:nonzero" />
  </g>
</svg>
