<?xml version="1.0" encoding="UTF-8" standalone="no"?>
<!-- Created with Inkscape (http://www.inkscape.org/) -->

<svg
   xmlns:dc="http://purl.org/dc/elements/1.1/"
   xmlns:cc="http://creativecommons.org/ns#"
   xmlns:rdf="http://www.w3.org/1999/02/22-rdf-syntax-ns#"
   xmlns:svg="http://www.w3.org/2000/svg"
   xmlns="http://www.w3.org/2000/svg"
   xmlns:sodipodi="http://sodipodi.sourceforge.net/DTD/sodipodi-0.dtd"
   xmlns:inkscape="http://www.inkscape.org/namespaces/inkscape"
   version="1.1"
   id="svg2"
   xml:space="preserve"
   width="607.97211"
   height="193.20036"
   viewBox="0 0 607.97212 193.20037"
   sodipodi:docname="logo_with_text_on_white.svg"
   inkscape:version="0.92.3 (2405546, 2018-03-11)"><metadata
     id="metadata8"><rdf:RDF><cc:Work
         rdf:about=""><dc:format>image/svg+xml</dc:format><dc:type
           rdf:resource="http://purl.org/dc/dcmitype/StillImage" /><dc:title></dc:title></cc:Work></rdf:RDF></metadata><defs
     id="defs6"><clipPath
       clipPathUnits="userSpaceOnUse"
       id="clipPath18"><path
         d="M 0,821.614 H 1366 V 0 H 0 Z"
         id="path16"
         inkscape:connector-curvature="0" /></clipPath></defs><sodipodi:namedview
     pagecolor="#ffffff"
     bordercolor="#666666"
     borderopacity="1"
     objecttolerance="10"
     gridtolerance="10"
     guidetolerance="10"
     inkscape:pageopacity="0"
     inkscape:pageshadow="2"
     inkscape:window-width="640"
     inkscape:window-height="480"
     id="namedview4"
     showgrid="false"
     fit-margin-top="0"
     fit-margin-left="0"
     fit-margin-right="0"
     fit-margin-bottom="0"
     inkscape:zoom="0.43085925"
     inkscape:cx="325.455"
     inkscape:cy="50.910097"
     inkscape:window-x="0"
     inkscape:window-y="0"
     inkscape:window-maximized="0"
     inkscape:current-layer="g10" /><g
     id="g10"
     inkscape:groupmode="layer"
     inkscape:label="gvisor_final-logo_20190313"
     transform="matrix(1.3333333,0,0,-1.3333333,-614.45037,638.9628)"><g
       id="g12"><g
         id="g14"
         clip-path="url(#clipPath18)"><g
           id="g20"
           transform="translate(668.8995,400.2876)"><path
             d="m 0,0 c -0.698,-5.234 -4.362,-8.375 -10.991,-9.421 -9.072,0.349 -13.783,5.407 -14.132,15.178 0.698,8.374 5.408,12.719 14.132,13.033 C -4.362,17.776 -0.698,14.341 0,8.479 Z m 0,26.117 c -2.442,2.826 -6.629,4.413 -12.561,4.763 -8.026,0 -14.219,-2.443 -18.581,-7.327 -4.361,-4.886 -6.542,-11.167 -6.542,-18.842 0,-8.026 2.006,-14.395 6.019,-19.105 4.012,-4.71 10.031,-7.066 18.057,-7.066 5.164,0 9.7,1.57 13.608,4.711 v -2.617 c 0,-3.141 -0.986,-6.019 -2.957,-8.636 -1.972,-2.617 -5.749,-3.925 -11.331,-3.925 -5.479,0.349 -10.137,1.919 -13.975,4.71 l -6.804,-7.85 c 5.582,-5.582 13.433,-8.48 23.553,-8.689 l 3.14,0.314 c 6.629,0.279 12.124,2.879 16.487,7.798 4.361,4.92 6.542,11.044 6.542,18.372 V 29.31 L 0,30.88 Z"
             style="fill:#262262;fill-opacity:1;fill-rule:nonzero;stroke:none"
             id="path22"
             inkscape:connector-curvature="0" /></g><g
           id="g24"
           transform="translate(720.3033,399.9331)"><path
             d="M 0,0 -19.986,51.176 H -37.513 L -8.457,-21.105 H 8.891 L 37.875,51.176 H 20.348 Z"
             style="fill:#262262;fill-opacity:1;fill-rule:nonzero;stroke:none"
             id="path26"
             inkscape:connector-curvature="0" /></g><path
           d="m 762.522,378.828 h 14.655 v 52.392 h -14.655 z"
           style="fill:#262262;fill-opacity:1;fill-rule:nonzero;stroke:none"
           id="path28"
           inkscape:connector-curvature="0" /><g
           id="g30"
           transform="translate(769.7443,451.1089)"><path
             d="m 0,0 c -2.373,0 -4.257,-0.707 -5.652,-2.12 -1.397,-1.413 -2.094,-3.166 -2.094,-5.26 0,-2.094 0.697,-3.839 2.094,-5.234 1.395,-1.396 3.315,-2.094 5.757,-2.094 2.442,0 4.361,0.698 5.757,2.094 1.395,1.395 2.094,3.14 2.094,5.234 0,2.094 -0.699,3.847 -2.094,5.26 C 4.466,-0.707 2.512,0 0,0"
             style="fill:#262262;fill-opacity:1;fill-rule:nonzero;stroke:none"
             id="path32"
             inkscape:connector-curvature="0" /></g><g
           id="g34"
           transform="translate(816.9264,406.8296)"><path
             d="m 0,0 c -3.315,2.477 -7.572,3.96 -12.771,4.449 -3.524,0.697 -5.879,1.578 -7.065,2.643 -1.187,1.064 -1.187,2.251 0,3.559 1.186,1.309 3.541,1.962 7.065,1.962 3.56,0 6.525,-1.412 8.898,-4.239 l 8.165,9.212 c -2.374,2.338 -4.92,4.1 -7.642,5.286 -2.721,1.186 -6.542,1.78 -11.462,1.78 -4.257,0 -8.4,-1.423 -12.43,-4.265 -4.03,-2.845 -6.046,-6.971 -6.046,-12.379 0,-5.898 1.771,-9.91 5.313,-12.038 3.541,-2.129 7.44,-3.437 11.697,-3.925 4.712,-0.454 7.476,-1.335 8.297,-2.645 0.819,-1.307 0.645,-2.615 -0.523,-3.924 -1.171,-1.309 -3.761,-1.963 -7.774,-1.963 -4.99,0.453 -8.67,2.093 -11.043,4.921 l -8.113,-9.161 c 2.373,-2.373 5.208,-4.265 8.505,-5.678 3.298,-1.413 7.424,-2.12 12.379,-2.12 5.199,0 9.752,1.36 13.66,4.083 3.908,2.721 5.862,6.558 5.862,11.514 C 4.972,-6.787 3.315,-2.479 0,0"
             style="fill:#262262;fill-opacity:1;fill-rule:nonzero;stroke:none"
             id="path36"
             inkscape:connector-curvature="0" /></g><g
           id="g38"
           transform="translate(862.2008,394.9751)"><path
             d="m 0,0 c -2.478,-2.67 -5.705,-4.004 -9.683,-4.004 -3.977,0 -7.205,1.334 -9.682,4.004 -2.478,2.669 -3.717,5.992 -3.717,9.97 0,3.978 1.239,7.31 3.717,9.997 2.477,2.686 5.686,4.03 9.63,4.03 4.012,0 7.257,-1.344 9.735,-4.03 C 2.477,17.28 3.716,13.948 3.716,9.97 3.716,5.992 2.477,2.669 0,0 m -9.63,36.716 c -7.608,0 -13.957,-2.548 -19.052,-7.642 -5.095,-5.095 -7.641,-11.445 -7.641,-19.051 0,-7.573 2.546,-13.915 7.641,-19.025 5.095,-5.113 11.444,-7.669 19.052,-7.669 7.606,0 13.956,2.547 19.051,7.642 5.095,5.093 7.641,11.445 7.641,19.052 0,7.606 -2.546,13.956 -7.641,19.051 -5.095,5.094 -11.445,7.642 -19.051,7.642"
             style="fill:#262262;fill-opacity:1;fill-rule:nonzero;stroke:none"
             id="path40"
             inkscape:connector-curvature="0" /></g><g
           id="g42"
           transform="translate(911.9489,431.1675)"><path
             d="m 0,0 c -5.374,0 -9.927,-1.92 -13.66,-5.758 v 5.81 L -28.315,-1.519 V -52.34 h 14.655 v 32.19 c 2.372,4.92 5.338,7.501 8.898,7.746 3.175,-0.105 5.617,-0.925 7.327,-2.46 L 4.868,-0.419 C 3.332,-0.14 1.709,0 0,0"
             style="fill:#262262;fill-opacity:1;fill-rule:nonzero;stroke:none"
             id="path44"
             inkscape:connector-curvature="0" /></g><g
           id="g46"
           transform="translate(548.2428,363.2485)"><path
             d="m 0,0 c 16.655,21.121 22.696,44.433 18.328,70.995 3.068,0 5.742,-0.023 8.417,0.007 2.221,0.025 4.442,0.102 6.663,0.175 4.79,0.154 4.818,0.165 5.881,-4.582 C 42.434,52.544 41.469,38.505 39.11,24.477 38.859,22.985 38.409,21.521 38.246,20.023 37.05,9.081 30.089,3.645 20.164,1.097 13.786,-0.54 7.323,-0.829 0,0"
             style="fill:#fbb03b;fill-opacity:1;fill-rule:nonzero;stroke:none"
             id="path48"
             inkscape:connector-curvature="0" /></g><g
           id="g50"
           transform="translate(544.6891,396.1763)"><path
             d="M 0,0 C 0,2.594 -3.457,4.322 -3.457,4.322 -0.864,5.187 0,8.644 0,8.644 0,8.644 0.865,5.187 3.458,4.322 3.458,4.322 0,2.594 0,0 m -17.099,6.454 c 0,6.742 -8.989,11.236 -8.989,11.236 6.742,2.248 8.989,11.238 8.989,11.238 0,0 2.248,-8.99 8.99,-11.238 0,0 -8.99,-4.494 -8.99,-11.236"
             style="fill:#fbb03b;fill-opacity:1;fill-rule:nonzero;stroke:none"
             id="path52"
             inkscape:connector-curvature="0" /></g><g
           id="g54"
           transform="translate(485.0861,429.7925)"><path
             d="m 0,0 c 0,0 -2.214,3.359 -9.736,2.059 0,0 5.987,28.738 36.298,38.806 C 26.562,40.865 -2.82,24.275 0,0 M 0.583,-33.208 0.58,-33.211 c -1.297,-2.026 -2.821,-3.579 -4.53,-4.616 -1.515,-0.933 -3.178,-1.425 -4.743,-1.425 -0.528,0 -1.044,0.057 -1.539,0.17 l -2.209,0.507 2.184,0.603 c 1.63,0.451 3.063,1.347 4.259,2.664 1.014,1.108 1.856,2.485 2.577,4.213 1.175,2.82 1.784,6.162 1.81,9.936 -0.049,3.718 -0.683,7.054 -1.886,9.902 -0.703,1.654 -1.585,3.056 -2.621,4.163 -1.227,1.311 -2.671,2.178 -4.294,2.576 l -2.187,0.538 2.179,0.572 c 0.48,0.126 0.998,0.196 1.539,0.209 h 0.031 l 1.688,-0.153 c 1.045,-0.206 2.104,-0.616 3.061,-1.185 1.755,-1.031 3.302,-2.567 4.598,-4.565 2.155,-3.374 3.315,-7.536 3.357,-12.042 -0.028,-4.548 -1.159,-8.717 -3.271,-12.064 m 101.949,51.176 c 0,0 -0.075,0.05 -0.226,0.136 -0.541,0.327 -1.113,0.603 -1.715,0.815 -3.044,1.241 -9.881,3.186 -21.906,2.623 -0.029,0 -0.056,0 -0.085,-0.001 C 52.916,21.123 30.022,10.922 30.022,10.922 c 0,0 1.439,1.761 3.453,3.692 10e-4,0 10e-4,10e-4 0.002,10e-4 1.052,0.974 2.355,2.076 3.912,3.227 0.046,0.031 0.088,0.063 0.124,0.093 8.708,6.384 25.341,14.163 51.625,9.541 -0.989,1.124 -2.002,2.192 -3.036,3.215 -1.112,0.883 -2.231,1.693 -3.354,2.456 0.02,-0.012 0.039,-0.023 0.059,-0.036 0,0 -17.016,19.415 -48.683,15.891 C 30.19,48.622 25.983,47.867 21.66,46.564 21.653,46.563 21.646,46.562 21.64,46.56 L 21.638,46.558 C 11.48,43.492 0.683,37.387 -8.719,25.911 -9.29,25.193 -9.841,24.479 -10.376,23.77 c -0.065,-0.099 -0.141,-0.202 -0.226,-0.307 -1.182,-1.581 -2.271,-3.14 -3.279,-4.674 -3.266,-5.427 -5.631,-11.665 -6.311,-13.545 -10.58,-32.401 2.586,-57.55 5.144,-61.967 8.93,-15.158 24.565,-32.355 50.771,-37.327 0.197,-0.047 0.382,-0.101 0.582,-0.147 1.723,-0.367 4.864,-0.929 8.908,-1.196 1.524,-0.069 3.088,-0.094 4.699,-0.067 1.548,-0.009 2.999,0.017 4.335,0.064 0.396,0.028 0.74,0.041 1.044,0.044 5.102,0.238 8.272,0.775 8.272,0.775 -26.542,1.299 -39.847,13.409 -45.691,21.142 -1.325,1.648 -2.46,3.42 -3.377,5.316 -0.361,0.71 -0.523,1.115 -0.523,1.115 8.459,-7.181 20.294,-13.362 20.294,-13.362 10.611,-4.993 21.737,-7.451 33.525,-5.837 0,0 24.644,2.263 34.463,25.09 -0.423,0.322 -0.366,0.278 -0.79,0.6 -0.651,-0.526 -1.294,-1.023 -1.926,-1.496 -0.991,-0.651 -1.964,-1.357 -2.937,-2.07 -5.265,-3.485 -9.561,-5.128 -12.12,-5.879 -19.359,-4.887 -37.273,-1.252 -52.93,12.455 -7.253,6.349 -11.754,14.352 -11.944,24.291 -0.124,6.465 -0.19,12.935 -0.136,19.4 0.085,10.181 7.246,17.921 17.394,19.284 20.561,2.759 41.234,3.71 61.948,4.193 3.173,0.073 5.98,0.037 7.457,-3.356 0.025,-0.058 0.363,0.02 0.552,0.035 1.4,4.461 -0.617,9.27 -4.29,11.624"
             style="fill:#262262;fill-opacity:1;fill-rule:nonzero;stroke:none"
             id="path56"
             inkscape:connector-curvature="0" /></g></g></g></g></svg>