<?xml version="1.0" encoding="utf-8"?>
<!-- Generator: Adobe Illustrator 21.1.0, SVG Export Plug-In . SVG Version: 6.00 Build 0)  -->
<svg version="1.1" id="Icons" xmlns="http://www.w3.org/2000/svg" xmlns:xlink="http://www.w3.org/1999/xlink" x="0px" y="0px"
	 viewBox="0 0 48 48" style="enable-background:new 0 0 48 48;" xml:space="preserve">
<style type="text/css">
	.st0{opacity:0.15;fill:#45413C;}
	.st1{fill:#FFE500;}
	.st2{fill:#EBCB00;}
	.st3{fill:none;stroke:#45413C;stroke-linecap:round;stroke-linejoin:round;stroke-miterlimit:10;}
	.st4{fill:#FFAA54;}
	.st5{fill:#FF8A14;}
	.st6{fill:#FFB0CA;stroke:#45413C;stroke-linecap:round;stroke-linejoin:round;stroke-miterlimit:10;}
	.st7{fill:#FF87AF;stroke:#45413C;stroke-linecap:round;stroke-linejoin:round;stroke-miterlimit:10;}
	.st8{fill:#FFCC99;}
	.st9{fill:#FFFFFF;}
	.st10{fill:#F0F0F0;}
	.st11{fill:#BF8256;}
	.st12{fill:#915E3A;}
	.st13{fill:#DEA47A;}
	.st14{fill:#F0D5A8;}
	.st15{fill:#DEBB7E;}
	.st16{fill:#F7E5C6;}
	.st17{fill:#FF8A14;stroke:#45413C;stroke-linecap:round;stroke-linejoin:round;stroke-miterlimit:10;}
	.st18{fill:#FFF5E3;}
	.st19{fill:#FFF48C;}
	.st20{fill:#FFFACF;}
	.st21{fill:#FFFCE5;}
	.st22{fill:#FF87AF;}
	.st23{fill:#FFB0CA;}
	.st24{fill:#FFE500;stroke:#45413C;stroke-linecap:round;stroke-linejoin:round;stroke-miterlimit:10;}
	.st25{fill:#9CEB60;stroke:#45413C;stroke-linecap:round;stroke-linejoin:round;stroke-miterlimit:10;}
	.st26{fill:#FFFACF;stroke:#45413C;stroke-linecap:round;stroke-linejoin:round;stroke-miterlimit:10;}
	.st27{fill:#00F5BC;stroke:#45413C;stroke-linecap:round;stroke-linejoin:round;stroke-miterlimit:10;}
	.st28{fill:#BF8256;stroke:#45413C;stroke-linecap:round;stroke-linejoin:round;stroke-miterlimit:10;}
	.st29{fill:#FFE3CF;stroke:#45413C;stroke-linecap:round;stroke-linejoin:round;stroke-miterlimit:10;}
	.st30{fill:#FF6242;}
	.st31{fill:#FF866E;}
	.st32{fill:none;stroke:#E04122;stroke-linecap:round;stroke-linejoin:round;stroke-miterlimit:10;}
	.st33{fill:#FFFEF2;stroke:#45413C;stroke-linecap:round;stroke-linejoin:round;stroke-miterlimit:10;}
	.st34{fill:#FF6242;stroke:#45413C;stroke-linecap:round;stroke-linejoin:round;stroke-miterlimit:10;}
	.st35{fill:#FFA694;}
	.st36{fill:#FFFFFF;stroke:#45413C;stroke-linecap:round;stroke-linejoin:round;stroke-miterlimit:10;}
	.st37{fill:#FFFEF2;}
	.st38{fill:#FF6196;}
	.st39{fill:#B89558;}
	.st40{fill:none;stroke:#915E3A;stroke-linecap:round;stroke-linejoin:round;stroke-miterlimit:10;}
	.st41{fill:#DEBB7E;stroke:#45413C;stroke-linecap:round;stroke-linejoin:round;stroke-miterlimit:10;}
	.st42{fill:#6DD627;stroke:#45413C;stroke-linecap:round;stroke-linejoin:round;stroke-miterlimit:10;}
	.st43{fill:#E5F8FF;}
	.st44{fill:#E8F4FA;}
	.st45{fill:#E8F4FA;stroke:#45413C;stroke-linecap:round;stroke-linejoin:round;stroke-miterlimit:10;}
	.st46{fill:#FFCCDD;}
	.st47{fill:#E5F8FF;stroke:#45413C;stroke-linecap:round;stroke-linejoin:round;stroke-miterlimit:10;}
	.st48{fill:#00B8F0;stroke:#45413C;stroke-linecap:round;stroke-linejoin:round;stroke-miterlimit:10;}
	.st49{fill:#00B8F0;}
	.st50{fill:#4ACFFF;}
	.st51{fill:#E04122;}
	.st52{fill:#E04122;stroke:#45413C;stroke-linecap:round;stroke-linejoin:round;stroke-miterlimit:10;}
	.st53{fill:#87898C;}
	.st54{fill:#BDBEC0;}
	.st55{fill:#656769;}
	.st56{fill:#525252;}
	.st57{fill:#FFF48C;stroke:#45413C;stroke-linecap:round;stroke-linejoin:round;stroke-miterlimit:10;}
	.st58{fill:#6DD627;}
	.st59{fill:#EB6D00;}
	.st60{fill:#46B000;}
	.st61{fill:#80DDFF;}
	.st62{fill:#DAEDF7;}
	.st63{fill:#BF8DF2;stroke:#45413C;stroke-linecap:round;stroke-linejoin:round;stroke-miterlimit:10;}
	.st64{fill:#9F5AE5;stroke:#45413C;stroke-linecap:round;stroke-linejoin:round;stroke-miterlimit:10;}
	.st65{fill:#C8FFA1;}
	.st66{fill:#E4FFD1;}
	.st67{fill:#9CEB60;}
	.st68{fill:#E5FEFF;}
	.st69{fill:#B8ECFF;}
	.st70{fill:#E0E0E0;stroke:#45413C;stroke-linecap:round;stroke-linejoin:round;stroke-miterlimit:10;}
	.st71{fill:#E0E0E0;}
	.st72{fill:none;stroke:#4F4B45;stroke-linejoin:round;stroke-miterlimit:10;}
	.st73{fill:none;stroke:#4F4B45;stroke-linecap:round;stroke-linejoin:round;stroke-miterlimit:10;}
	.st74{fill:#E0366F;stroke:#45413C;stroke-linecap:round;stroke-linejoin:round;stroke-miterlimit:10;}
	.st75{fill:none;stroke:#45413C;stroke-miterlimit:10;}
	.st76{fill:#FF866E;stroke:#45413C;stroke-linecap:round;stroke-linejoin:round;stroke-miterlimit:10;}
	.st77{fill:#45413C;stroke:#45413C;stroke-linecap:round;stroke-linejoin:round;stroke-miterlimit:10;}
	.st78{fill:#9F5AE5;}
	.st79{fill:#803EC2;}
	.st80{fill:#803EC2;stroke:#45413C;stroke-linecap:round;stroke-linejoin:round;stroke-miterlimit:10;}
	.st81{fill:#BF8DF2;}
	.st82{fill:#FFAA54;stroke:#45413C;stroke-linecap:round;stroke-linejoin:round;stroke-miterlimit:10;}
	.st83{fill:none;stroke:#45413C;stroke-linejoin:round;stroke-miterlimit:10;}
	.st84{fill:#FFCCDD;stroke:#45413C;stroke-linecap:round;stroke-linejoin:round;stroke-miterlimit:10;}
	.st85{fill:#FF6196;stroke:#45413C;stroke-linecap:round;stroke-linejoin:round;stroke-miterlimit:10;}
	.st86{fill:#FFE5EE;}
	.st87{fill:#F7E5C6;stroke:#45413C;stroke-linecap:round;stroke-linejoin:round;stroke-miterlimit:10;}
	.st88{fill:#E5FFF9;}
	.st89{fill:none;stroke:#45413C;stroke-width:1.0064;stroke-linecap:round;stroke-linejoin:round;stroke-miterlimit:10;}
	.st90{fill:#4AEFF7;}
	.st91{fill:#A6FBFF;}
	.st92{fill:#E5FEFF;stroke:#45413C;stroke-linecap:round;stroke-linejoin:round;stroke-miterlimit:10;}
	.st93{fill:#46B000;stroke:#45413C;stroke-linecap:round;stroke-linejoin:round;stroke-miterlimit:10;}
	.st94{fill:#FFFFFF;stroke:#45413C;stroke-linejoin:round;stroke-miterlimit:10;}
	.st95{fill:#FFFFFF;stroke:#45413C;stroke-miterlimit:10;}
	.st96{fill:#009FD9;}
	.st97{fill:#00DFEB;}
	.st98{fill:#C0DCEB;stroke:#45413C;stroke-linecap:round;stroke-linejoin:round;stroke-miterlimit:10;}
	.st99{fill:#00DFEB;stroke:#45413C;stroke-linecap:round;stroke-linejoin:round;stroke-miterlimit:10;}
	.st100{fill:#FFE5EE;stroke:#45413C;stroke-linecap:round;stroke-linejoin:round;stroke-miterlimit:10;}
	.st101{fill:#8CA4B8;}
	.st102{fill:#ADC4D9;}
	.st103{fill:#656769;stroke:#45413C;stroke-linecap:round;stroke-linejoin:round;stroke-miterlimit:10;}
	.st104{fill:#F0F0F0;stroke:#45413C;stroke-linecap:round;stroke-linejoin:round;stroke-miterlimit:10;}
	.st105{fill:#C0DCEB;}
	.st106{fill:#45413C;}
	.st107{fill:#FFCABF;}
	.st108{fill:#87898C;stroke:#45413C;stroke-linecap:round;stroke-linejoin:round;stroke-miterlimit:10;}
	.st109{fill:#EBCB00;stroke:#45413C;stroke-linecap:round;stroke-linejoin:round;stroke-miterlimit:10;}
</style>
<g id="XMLID_14873_">
	<ellipse id="XMLID_14930_" class="st0" cx="24" cy="45.2" rx="20.3" ry="1.8"/>
	<path id="XMLID_14929_" class="st36" d="M41.9,44.5H6.1c-0.3,0-0.6-0.3-0.6-0.6v-8.6c0-0.7,0.6-1.2,1.2-1.2h34.5
		c0.7,0,1.2,0.6,1.2,1.2v8.6C42.5,44.2,42.2,44.5,41.9,44.5z"/>
	<rect id="XMLID_14928_" x="7.4" y="5.7" class="st9" width="33.3" height="28.4"/>
	<rect id="XMLID_14927_" x="7.4" y="5.7" class="st71" width="33.3" height="2.6"/>
	<rect id="XMLID_14926_" x="7.4" y="5.7" class="st3" width="33.3" height="28.4"/>
	<path id="XMLID_14925_" class="st53" d="M40.6,5.7H7.4c-0.7,0-1.2-0.6-1.2-1.2V3.8c0-0.7,0.6-1.2,1.2-1.2h33.3
		c0.7,0,1.2,0.6,1.2,1.2v0.6C41.9,5.1,41.3,5.7,40.6,5.7z"/>
	<path id="XMLID_14924_" class="st54" d="M40.6,2.6H7.4c-0.7,0-1.2,0.6-1.2,1.2v0.6c0,0.2,0,0.3,0.1,0.5c0.2-0.5,0.6-0.8,1.1-0.8
		h33.3c0.5,0,1,0.3,1.1,0.8c0.1-0.1,0.1-0.3,0.1-0.5V3.8C41.9,3.1,41.3,2.6,40.6,2.6z"/>
	<path id="XMLID_14923_" class="st3" d="M40.6,5.7H7.4c-0.7,0-1.2-0.6-1.2-1.2V3.8c0-0.7,0.6-1.2,1.2-1.2h33.3
		c0.7,0,1.2,0.6,1.2,1.2v0.6C41.9,5.1,41.3,5.7,40.6,5.7z"/>
	<rect id="XMLID_14922_" x="19.1" y="36.5" class="st49" width="9.9" height="8"/>
	<polygon id="XMLID_14921_" class="st50" points="21,44.5 25.7,44.5 28.9,36.5 28.9,36.5 24.2,36.5 	"/>
	<rect id="XMLID_14920_" x="19.1" y="36.5" class="st3" width="9.9" height="8"/>
	<rect id="XMLID_14919_" x="10.4" y="37.1" class="st49" width="3.7" height="4.3"/>
	<polygon id="XMLID_14918_" class="st50" points="11.7,41.4 14.1,41.4 14.1,37.1 13.4,37.1 	"/>
	<rect id="XMLID_14917_" x="11.1" y="26.6" class="st49" width="3.7" height="4.3"/>
	<polygon id="XMLID_14916_" class="st50" points="12.3,30.9 14.8,30.9 14.8,26.6 14.1,26.6 	"/>
	<rect id="XMLID_14915_" x="33.2" y="26.6" class="st49" width="3.7" height="4.3"/>
	<polygon id="XMLID_14914_" class="st50" points="34.5,30.9 36.9,30.9 36.9,26.6 36.3,26.6 	"/>
	<rect id="XMLID_14913_" x="25.8" y="26.6" class="st49" width="3.7" height="4.3"/>
	<polygon id="XMLID_14912_" class="st50" points="27.1,30.9 29.5,30.9 29.5,26.6 28.9,26.6 	"/>
	<rect id="XMLID_14911_" x="18.5" y="26.6" class="st49" width="3.7" height="4.3"/>
	<polygon id="XMLID_14910_" class="st50" points="19.7,30.9 22.2,30.9 22.2,26.6 21.5,26.6 	"/>
	<rect id="XMLID_14909_" x="11.1" y="18" class="st49" width="3.7" height="4.3"/>
	<polygon id="XMLID_14908_" class="st50" points="12.3,22.3 14.8,22.3 14.8,18 14.1,18 	"/>
	<rect id="XMLID_14907_" x="33.2" y="18" class="st49" width="3.7" height="4.3"/>
	<polygon id="XMLID_14906_" class="st50" points="34.5,22.3 36.9,22.3 36.9,18 36.3,18 	"/>
	<rect id="XMLID_14905_" x="25.8" y="18" class="st49" width="3.7" height="4.3"/>
	<polygon id="XMLID_14904_" class="st50" points="27.1,22.3 29.5,22.3 29.5,18 28.9,18 	"/>
	<rect id="XMLID_14903_" x="18.5" y="18" class="st49" width="3.7" height="4.3"/>
	<polygon id="XMLID_14902_" class="st50" points="19.7,22.3 22.2,22.3 22.2,18 21.5,18 	"/>
	<rect id="XMLID_14901_" x="11.1" y="9.4" class="st49" width="3.7" height="4.3"/>
	<polygon id="XMLID_14900_" class="st50" points="12.3,13.7 14.8,13.7 14.8,9.4 14.1,9.4 	"/>
	<rect id="XMLID_14899_" x="33.2" y="9.4" class="st49" width="3.7" height="4.3"/>
	<polygon id="XMLID_14898_" class="st50" points="34.5,13.7 36.9,13.7 36.9,9.4 36.3,9.4 	"/>
	<rect id="XMLID_14897_" x="25.8" y="9.4" class="st49" width="3.7" height="4.3"/>
	<polygon id="XMLID_14896_" class="st50" points="27.1,13.7 29.5,13.7 29.5,9.4 28.9,9.4 	"/>
	<rect id="XMLID_14895_" x="18.5" y="9.4" class="st49" width="3.7" height="4.3"/>
	<polygon id="XMLID_14894_" class="st50" points="19.7,13.7 22.2,13.7 22.2,9.4 21.5,9.4 	"/>
	<rect id="XMLID_14893_" x="11.1" y="26.6" class="st3" width="3.7" height="4.3"/>
	<rect id="XMLID_14892_" x="33.2" y="26.6" class="st3" width="3.7" height="4.3"/>
	<rect id="XMLID_14891_" x="25.8" y="26.6" class="st3" width="3.7" height="4.3"/>
	<rect id="XMLID_14890_" x="18.5" y="26.6" class="st3" width="3.7" height="4.3"/>
	<rect id="XMLID_14889_" x="11.1" y="18" class="st3" width="3.7" height="4.3"/>
	<rect id="XMLID_14888_" x="33.2" y="18" class="st3" width="3.7" height="4.3"/>
	<rect id="XMLID_14887_" x="25.8" y="18" class="st3" width="3.7" height="4.3"/>
	<rect id="XMLID_14886_" x="18.5" y="18" class="st3" width="3.7" height="4.3"/>
	<rect id="XMLID_14885_" x="11.1" y="9.4" class="st3" width="3.7" height="4.3"/>
	<rect id="XMLID_14884_" x="33.2" y="9.4" class="st3" width="3.7" height="4.3"/>
	<rect id="XMLID_14883_" x="25.8" y="9.4" class="st3" width="3.7" height="4.3"/>
	<rect id="XMLID_14882_" x="18.5" y="9.4" class="st3" width="3.7" height="4.3"/>
	<rect id="XMLID_14881_" x="33.9" y="37.1" class="st49" width="3.7" height="4.3"/>
	<polygon id="XMLID_14880_" class="st50" points="35.2,41.4 37.6,41.4 37.6,37.1 36.9,37.1 	"/>
	<rect id="XMLID_14879_" x="10.4" y="37.1" class="st3" width="3.7" height="4.3"/>
	<rect id="XMLID_14878_" x="33.9" y="37.1" class="st3" width="3.7" height="4.3"/>
	<line id="XMLID_14877_" class="st3" x1="24" y1="36.5" x2="24" y2="44.5"/>
	<path id="XMLID_14876_" class="st53" d="M29.2,36.5H18.8c-0.7,0-1.2-0.6-1.2-1.2v-0.6c0-0.7,0.6-1.2,1.2-1.2h10.3
		c0.7,0,1.2,0.6,1.2,1.2v0.6C30.4,35.9,29.8,36.5,29.2,36.5z"/>
	<path id="XMLID_14875_" class="st54" d="M29.2,33.4H18.8c-0.7,0-1.2,0.6-1.2,1.2v0.6c0,0.2,0,0.3,0.1,0.5c0.2-0.5,0.6-0.8,1.1-0.8
		h10.3c0.5,0,1,0.3,1.1,0.8c0.1-0.1,0.1-0.3,0.1-0.5v-0.6C30.4,34,29.8,33.4,29.2,33.4z"/>
	<path id="XMLID_14874_" class="st3" d="M29.2,36.5H18.8c-0.7,0-1.2-0.6-1.2-1.2v-0.6c0-0.7,0.6-1.2,1.2-1.2h10.3
		c0.7,0,1.2,0.6,1.2,1.2v0.6C30.4,35.9,29.8,36.5,29.2,36.5z"/>
</g>
</svg>
