<?xml version="1.0" encoding="UTF-8" standalone="no"?>
<!-- Generator: Adobe Illustrator 21.1.0, SVG Export Plug-In . SVG Version: 6.00 Build 0)  -->

<svg
   xmlns:dc="http://purl.org/dc/elements/1.1/"
   xmlns:cc="http://creativecommons.org/ns#"
   xmlns:rdf="http://www.w3.org/1999/02/22-rdf-syntax-ns#"
   xmlns:svg="http://www.w3.org/2000/svg"
   xmlns="http://www.w3.org/2000/svg"
   xmlns:sodipodi="http://sodipodi.sourceforge.net/DTD/sodipodi-0.dtd"
   xmlns:inkscape="http://www.inkscape.org/namespaces/inkscape"
   version="1.1"
   id="Icons"
   x="0px"
   y="0px"
   viewBox="0 0 182.37723 74.805046"
   xml:space="preserve"
   sodipodi:docname="office_clouds.svg"
   width="182.37723"
   height="74.805046"
   inkscape:version="0.92.3 (2405546, 2018-03-11)"><metadata
   id="metadata67"><rdf:RDF><cc:Work
       rdf:about=""><dc:format>image/svg+xml</dc:format><dc:type
         rdf:resource="http://purl.org/dc/dcmitype/StillImage" /><dc:title></dc:title></cc:Work></rdf:RDF></metadata><defs
   id="defs65" /><sodipodi:namedview
   pagecolor="#ffffff"
   bordercolor="#666666"
   borderopacity="1"
   objecttolerance="10"
   gridtolerance="10"
   guidetolerance="10"
   inkscape:pageopacity="0"
   inkscape:pageshadow="2"
   inkscape:window-width="1482"
   inkscape:window-height="1027"
   id="namedview63"
   showgrid="false"
   fit-margin-top="0"
   fit-margin-left="0"
   fit-margin-right="0"
   fit-margin-bottom="0"
   inkscape:zoom="1.6229947"
   inkscape:cx="43.124481"
   inkscape:cy="99.907287"
   inkscape:window-x="0"
   inkscape:window-y="0"
   inkscape:window-maximized="0"
   inkscape:current-layer="Icons" />
<style
   type="text/css"
   id="style2">
	.st0{opacity:0.15;fill:#45413C;}
	.st1{fill:#FFE500;}
	.st2{fill:#EBCB00;}
	.st3{fill:none;stroke:#45413C;stroke-linecap:round;stroke-linejoin:round;stroke-miterlimit:10;}
	.st4{fill:#FFAA54;}
	.st5{fill:#FF8A14;}
	.st6{fill:#FFB0CA;stroke:#45413C;stroke-linecap:round;stroke-linejoin:round;stroke-miterlimit:10;}
	.st7{fill:#FF87AF;stroke:#45413C;stroke-linecap:round;stroke-linejoin:round;stroke-miterlimit:10;}
	.st8{fill:#FFCC99;}
	.st9{fill:#FFFFFF;}
	.st10{fill:#F0F0F0;}
	.st11{fill:#BF8256;}
	.st12{fill:#915E3A;}
	.st13{fill:#DEA47A;}
	.st14{fill:#F0D5A8;}
	.st15{fill:#DEBB7E;}
	.st16{fill:#F7E5C6;}
	.st17{fill:#FF8A14;stroke:#45413C;stroke-linecap:round;stroke-linejoin:round;stroke-miterlimit:10;}
	.st18{fill:#FFF5E3;}
	.st19{fill:#FFF48C;}
	.st20{fill:#FFFACF;}
	.st21{fill:#FFFCE5;}
	.st22{fill:#FF87AF;}
	.st23{fill:#FFB0CA;}
	.st24{fill:#FFE500;stroke:#45413C;stroke-linecap:round;stroke-linejoin:round;stroke-miterlimit:10;}
	.st25{fill:#9CEB60;stroke:#45413C;stroke-linecap:round;stroke-linejoin:round;stroke-miterlimit:10;}
	.st26{fill:#FFFACF;stroke:#45413C;stroke-linecap:round;stroke-linejoin:round;stroke-miterlimit:10;}
	.st27{fill:#00F5BC;stroke:#45413C;stroke-linecap:round;stroke-linejoin:round;stroke-miterlimit:10;}
	.st28{fill:#BF8256;stroke:#45413C;stroke-linecap:round;stroke-linejoin:round;stroke-miterlimit:10;}
	.st29{fill:#FFE3CF;stroke:#45413C;stroke-linecap:round;stroke-linejoin:round;stroke-miterlimit:10;}
	.st30{fill:#FF6242;}
	.st31{fill:#FF866E;}
	.st32{fill:none;stroke:#E04122;stroke-linecap:round;stroke-linejoin:round;stroke-miterlimit:10;}
	.st33{fill:#FFFEF2;stroke:#45413C;stroke-linecap:round;stroke-linejoin:round;stroke-miterlimit:10;}
	.st34{fill:#FF6242;stroke:#45413C;stroke-linecap:round;stroke-linejoin:round;stroke-miterlimit:10;}
	.st35{fill:#FFA694;}
	.st36{fill:#FFFFFF;stroke:#45413C;stroke-linecap:round;stroke-linejoin:round;stroke-miterlimit:10;}
	.st37{fill:#FFFEF2;}
	.st38{fill:#FF6196;}
	.st39{fill:#B89558;}
	.st40{fill:none;stroke:#915E3A;stroke-linecap:round;stroke-linejoin:round;stroke-miterlimit:10;}
	.st41{fill:#DEBB7E;stroke:#45413C;stroke-linecap:round;stroke-linejoin:round;stroke-miterlimit:10;}
	.st42{fill:#6DD627;stroke:#45413C;stroke-linecap:round;stroke-linejoin:round;stroke-miterlimit:10;}
	.st43{fill:#E5F8FF;}
	.st44{fill:#E8F4FA;}
	.st45{fill:#E8F4FA;stroke:#45413C;stroke-linecap:round;stroke-linejoin:round;stroke-miterlimit:10;}
	.st46{fill:#FFCCDD;}
	.st47{fill:#E5F8FF;stroke:#45413C;stroke-linecap:round;stroke-linejoin:round;stroke-miterlimit:10;}
	.st48{fill:#00B8F0;stroke:#45413C;stroke-linecap:round;stroke-linejoin:round;stroke-miterlimit:10;}
	.st49{fill:#00B8F0;}
	.st50{fill:#4ACFFF;}
	.st51{fill:#E04122;}
	.st52{fill:#E04122;stroke:#45413C;stroke-linecap:round;stroke-linejoin:round;stroke-miterlimit:10;}
	.st53{fill:#87898C;}
	.st54{fill:#BDBEC0;}
	.st55{fill:#656769;}
	.st56{fill:#525252;}
	.st57{fill:#FFF48C;stroke:#45413C;stroke-linecap:round;stroke-linejoin:round;stroke-miterlimit:10;}
	.st58{fill:#6DD627;}
	.st59{fill:#EB6D00;}
	.st60{fill:#46B000;}
	.st61{fill:#80DDFF;}
	.st62{fill:#DAEDF7;}
	.st63{fill:#BF8DF2;stroke:#45413C;stroke-linecap:round;stroke-linejoin:round;stroke-miterlimit:10;}
	.st64{fill:#9F5AE5;stroke:#45413C;stroke-linecap:round;stroke-linejoin:round;stroke-miterlimit:10;}
	.st65{fill:#C8FFA1;}
	.st66{fill:#E4FFD1;}
	.st67{fill:#9CEB60;}
	.st68{fill:#E5FEFF;}
	.st69{fill:#B8ECFF;}
	.st70{fill:#E0E0E0;stroke:#45413C;stroke-linecap:round;stroke-linejoin:round;stroke-miterlimit:10;}
	.st71{fill:#E0E0E0;}
	.st72{fill:none;stroke:#4F4B45;stroke-linejoin:round;stroke-miterlimit:10;}
	.st73{fill:none;stroke:#4F4B45;stroke-linecap:round;stroke-linejoin:round;stroke-miterlimit:10;}
	.st74{fill:#E0366F;stroke:#45413C;stroke-linecap:round;stroke-linejoin:round;stroke-miterlimit:10;}
	.st75{fill:none;stroke:#45413C;stroke-miterlimit:10;}
	.st76{fill:#FF866E;stroke:#45413C;stroke-linecap:round;stroke-linejoin:round;stroke-miterlimit:10;}
	.st77{fill:#45413C;stroke:#45413C;stroke-linecap:round;stroke-linejoin:round;stroke-miterlimit:10;}
	.st78{fill:#9F5AE5;}
	.st79{fill:#803EC2;}
	.st80{fill:#803EC2;stroke:#45413C;stroke-linecap:round;stroke-linejoin:round;stroke-miterlimit:10;}
	.st81{fill:#BF8DF2;}
	.st82{fill:#FFAA54;stroke:#45413C;stroke-linecap:round;stroke-linejoin:round;stroke-miterlimit:10;}
	.st83{fill:none;stroke:#45413C;stroke-linejoin:round;stroke-miterlimit:10;}
	.st84{fill:#FFCCDD;stroke:#45413C;stroke-linecap:round;stroke-linejoin:round;stroke-miterlimit:10;}
	.st85{fill:#FF6196;stroke:#45413C;stroke-linecap:round;stroke-linejoin:round;stroke-miterlimit:10;}
	.st86{fill:#FFE5EE;}
	.st87{fill:#F7E5C6;stroke:#45413C;stroke-linecap:round;stroke-linejoin:round;stroke-miterlimit:10;}
	.st88{fill:#E5FFF9;}
	.st89{fill:none;stroke:#45413C;stroke-width:1.0064;stroke-linecap:round;stroke-linejoin:round;stroke-miterlimit:10;}
	.st90{fill:#4AEFF7;}
	.st91{fill:#A6FBFF;}
	.st92{fill:#E5FEFF;stroke:#45413C;stroke-linecap:round;stroke-linejoin:round;stroke-miterlimit:10;}
	.st93{fill:#46B000;stroke:#45413C;stroke-linecap:round;stroke-linejoin:round;stroke-miterlimit:10;}
	.st94{fill:#FFFFFF;stroke:#45413C;stroke-linejoin:round;stroke-miterlimit:10;}
	.st95{fill:#FFFFFF;stroke:#45413C;stroke-miterlimit:10;}
	.st96{fill:#009FD9;}
	.st97{fill:#00DFEB;}
	.st98{fill:#C0DCEB;stroke:#45413C;stroke-linecap:round;stroke-linejoin:round;stroke-miterlimit:10;}
	.st99{fill:#00DFEB;stroke:#45413C;stroke-linecap:round;stroke-linejoin:round;stroke-miterlimit:10;}
	.st100{fill:#FFE5EE;stroke:#45413C;stroke-linecap:round;stroke-linejoin:round;stroke-miterlimit:10;}
	.st101{fill:#8CA4B8;}
	.st102{fill:#ADC4D9;}
	.st103{fill:#656769;stroke:#45413C;stroke-linecap:round;stroke-linejoin:round;stroke-miterlimit:10;}
	.st104{fill:#F0F0F0;stroke:#45413C;stroke-linecap:round;stroke-linejoin:round;stroke-miterlimit:10;}
	.st105{fill:#C0DCEB;}
	.st106{fill:#45413C;}
	.st107{fill:#FFCABF;}
	.st108{fill:#87898C;stroke:#45413C;stroke-linecap:round;stroke-linejoin:round;stroke-miterlimit:10;}
	.st109{fill:#EBCB00;stroke:#45413C;stroke-linecap:round;stroke-linejoin:round;stroke-miterlimit:10;}
</style>
<g
   id="g482"
   transform="matrix(0.44760031,0,0,0.84600234,-144.0389,-256.60082)"
   inkscape:export-xdpi="105.23354"
   inkscape:export-ydpi="105.23354"><path
     style="fill:#ffffff"
     inkscape:connector-curvature="0"
     id="path7272"
     d="m 428.53654,312.60687 c -28.12635,-8.958 -40.96709,15.269 -52.71149,14.439 -11.49369,-0.813 -15.7685,7.874 -25.38255,7.874 -9.61553,0 -58.51137,6.039 8.39755,7.088 66.90967,1.05 69.05041,-0.262 69.69575,2.363 0.64608,2.625 -12.05002,1.575 -42.07455,2.363 -30.02304,0.787 -32.20161,0.524 -34.02933,3.148 -1.82697,2.626 -1.65488,4.201 58.90674,4.201 60.56162,0 81.7465,-3.412 89.42602,-3.937 7.67952,-0.527 56.23118,3.674 72.01451,3.937 15.78333,0.263 55.73346,-1.313 54.37379,-9.976 -1.3604,-8.663 -6.07359,-7.087 -22.33165,-9.188 -16.25806,-2.1 -40.30469,-9.187 -15.32715,-10.762 24.97606,-1.576 11.25114,-6.957 -16.71425,-5.316 -27.9639,1.641 -60.25972,-3.083 -46.42798,-5.446 13.831,-2.362 -1.81213,-3.675 -22.21149,-3.413 -6.70261,0.087 -17.87808,-6.407 -29.62694,-6.343 -24.01843,0.134 -50.44094,7.028 -45.97698,8.968" /><path
     style="fill:#e6f0f4"
     inkscape:connector-curvature="0"
     id="path7298"
     d="m 590.67744,350.206 c 13.671,-2.127 -6.605,-3.287 -32.623,-3.039 -9.034,0.087 -24.101,-6.407 -39.939,-6.342 -32.381,0.133 -68.003,7.027 -61.981,8.968 -17.857,-4.219 -31.143,-1.079 -41.855,3.338 7.639,0.045 16.329,0.068 26.217,0.068 81.645,0 110.205,-3.412 120.558,-3.937 3.877,-0.197 15.494,0.269 29.623,0.944 z" /><path
     style="fill:#6a8993"
     inkscape:connector-curvature="0"
     id="path7466"
     d="m 575.13585,355.32276 c -1.19511,0 -2.34101,-0.009 -3.40198,-0.0265 -7.41566,-0.12512 -22.08231,-1.12817 -36.26616,-2.09968 -14.64951,-1.00304 -28.48541,-1.95217 -34.29842,-1.95217 -0.72645,0 -1.31729,0.0163 -1.75464,0.0468 -1.30385,0.0895 -3.02721,0.26755 -5.20876,0.49237 -11.06649,1.13936 -34.09278,3.51269 -84.62697,3.51269 -24.00309,0 -39.37158,-0.2472 -48.36901,-0.7772 -9.10473,-0.5351 -11.14397,-1.30823 -11.48446,-2.38046 -0.20416,-0.64496 0.22351,-1.26754 0.5059,-1.67852 1.70619,-2.48116 3.4966,-2.52592 25.42393,-3.08035 2.66435,-0.0671 5.63121,-0.14242 8.9311,-0.23092 9.25747,-0.24618 16.85939,-0.31536 22.96819,-0.37131 11.4733,-0.10478 18.39795,-0.16785 19.04841,-1.40589 0.026,-0.0498 0.0379,-0.0987 0.0156,-0.18616 -0.37403,-1.54628 -1.98263,-1.5534 -21.67997,-1.66836 -10.16794,-0.058 -25.5342,-0.1475 -48.09633,-0.50559 -12.28466,-0.19532 -21.46612,-0.57375 -27.28584,-1.12715 -2.60029,-0.2472 -4.55833,-0.53306 -5.81824,-0.84842 -1.39476,-0.34995 -1.93791,-0.70701 -1.93568,-1.27771 0.002,-0.49847 0.009,-1.66632 11.20135,-3.23599 5.56192,-0.77925 12.32862,-1.39064 15.40574,-1.39064 4.42197,0 7.67494,-1.85654 11.12014,-3.82093 3.65902,-2.08645 7.44397,-4.24514 12.86954,-4.24514 0.49771,0 1.00882,0.0183 1.5192,0.0549 0.19221,0.0142 0.38967,0.0214 0.58561,0.0214 3.9891,0 8.19797,-2.8657 13.0722,-6.18511 6.90231,-4.70088 15.49294,-10.55028 27.08692,-10.55028 3.68808,0 7.53412,0.6002 11.44275,1.78432 0.002,-0.0153 0.003,-0.0295 0.005,-0.0458 0.0388,-0.34588 0.13038,-1.15666 4.47636,-2.64291 2.76198,-0.94404 6.51561,-1.9125 10.85712,-2.79958 10.28118,-2.10171 21.79396,-3.33772 31.58563,-3.39265 h 0.17732 c 6.65868,0 13.04763,2.07018 18.68406,3.89519 4.30128,1.39369 8.00277,2.59307 10.89513,2.55746 1.71588,-0.0224 3.42431,-0.0336 5.07911,-0.0336 6.42397,0 11.95684,0.1648 15.99883,0.47609 6.69592,0.51475 6.7287,1.23397 6.74881,1.66429 0.0223,0.47303 -0.36507,0.77924 -1.42978,1.12613 -0.88811,0.28891 -2.25158,0.5941 -4.05242,0.90539 -2.59878,0.44964 -3.02869,0.90233 -3.09947,1.01627 0.23321,0.49542 2.93109,1.66937 11.69383,2.74667 7.53188,0.92574 16.95623,1.45574 25.85383,1.45574 4.2141,0 8.30078,-0.11597 12.14534,-0.34384 3.49735,-0.20854 6.92018,-0.31333 10.17166,-0.31333 5.63047,0 10.7558,0.32554 14.43046,0.91658 5.54405,0.89114 5.56267,1.95828 5.57012,2.35909 0.0105,0.5707 -0.37774,1.24414 -3.32375,1.91047 -2.29405,0.51983 -5.6707,0.92471 -10.03754,1.20345 -9.80881,0.62665 -10.59561,2.03864 -10.6023,2.45675 -0.0142,0.78229 2.2501,2.36417 8.67556,4.24208 5.08881,1.48829 11.56866,2.82704 17.33473,3.58187 3.15163,0.412 5.84431,0.6826 8.21958,0.92065 4.9465,0.49643 8.21287,0.824 10.43467,1.93488 2.26798,1.13529 3.42581,3.09255 3.99207,6.75479 0.11846,0.76194 -0.0276,1.49439 -0.43438,2.17902 -1.78295,3.00304 -8.8581,5.27566 -21.03101,6.75276 -12.5976,1.52898 -26.13918,1.648 -29.98895,1.648 z m -73.9673,-4.74768 c 5.82419,0 19.66753,0.9471 34.32376,1.95116 14.17787,0.97151 28.8393,1.97456 36.24603,2.09968 1.06022,0.0183 2.2024,0.0265 3.39674,0.0265 3.84456,0 17.36753,-0.11902 29.94724,-1.64495 11.86445,-1.4415 19.02083,-3.69174 20.69201,-6.50759 0.31293,-0.52797 0.42171,-1.05594 0.33527,-1.61749 -1.06246,-6.86363 -4.31915,-7.19018 -13.98192,-8.15966 -2.379,-0.23804 -5.07465,-0.50966 -8.23152,-0.92166 -5.78394,-0.75788 -12.28466,-2.1007 -17.39134,-3.59408 -2.72472,-0.79653 -4.88019,-1.58493 -6.40906,-2.34281 -1.82542,-0.90538 -2.66885,-1.72227 -2.65394,-2.5717 0.0201,-1.11902 1.29567,-2.48422 11.06872,-3.10883 4.267,-0.27263 7.58403,-0.66531 9.85724,-1.16785 2.92737,-0.64597 3.03689,-1.25635 3.03689,-1.26245 -0.002,-0.006 -0.16466,-0.92065 -5.23409,-1.7243 -3.6486,-0.57782 -8.71805,-0.89522 -14.27549,-0.89522 -3.24403,0 -6.65942,0.10478 -10.15006,0.31231 -3.85273,0.22889 -7.94613,0.34486 -12.16694,0.34486 -9.05703,0 -18.61253,-0.54628 -26.21593,-1.49948 -11.74375,-1.46998 -11.80783,-2.87791 -11.82943,-3.34077 -0.0261,-0.56765 0.38444,-1.16886 3.53458,-1.71413 3.72162,-0.64394 4.72002,-1.11393 4.98676,-1.32756 -0.3025,-0.20854 -1.54528,-0.69786 -6.64601,-1.06713 -3.99431,-0.28993 -9.36923,-0.44252 -15.5436,-0.44252 -1.6533,0 -3.36099,0.0112 -5.07539,0.0336 -2.94303,0.0356 -6.67953,-1.1709 -11.01284,-2.57476 -5.61035,-1.81687 -11.97024,-3.8779 -18.5708,-3.8779 h -0.1751 c -9.72609,0.0539 -21.16809,1.27975 -31.39564,3.36112 -4.31617,0.87792 -8.0579,1.83824 -10.82284,2.77516 -3.71862,1.26042 -4.16194,1.98778 -4.21262,2.11494 0.0231,0.0336 0.10132,0.11902 0.32485,0.2177 l -0.13112,0.64496 c -4.14779,-1.33773 -8.23001,-2.01626 -12.13119,-2.01626 -11.47775,0 -20.01101,5.80972 -26.86935,10.47907 -4.92862,3.35603 -9.18519,6.25429 -13.29052,6.2553 -0.20415,0 -0.41127,-0.007 -0.6117,-0.0224 -0.50217,-0.0366 -1.00435,-0.0539 -1.49311,-0.0539 -5.32797,0 -9.06597,2.13223 -12.6803,4.19325 -3.49212,1.99185 -6.7898,3.87282 -11.31011,3.87282 -3.0205,0 -9.47279,0.57578 -15.01236,1.33875 -9.60987,1.32451 -10.91078,2.3774 -11.08512,2.61748 0.18776,0.24923 1.31802,0.92166 7.8396,1.50863 5.82791,0.52391 14.81044,0.88606 26.69577,1.07528 22.55988,0.35808 37.92541,0.44659 48.09258,0.50559 10.04128,0.059 15.57042,0.0895 18.45457,0.32858 2.83946,0.235 3.41242,0.65514 3.68959,1.79857 0.0679,0.28077 0.0388,0.5534 -0.0828,0.78534 -0.79648,1.51474 -6.25558,1.56561 -19.44551,1.68667 -6.10658,0.0559 -13.70775,0.12512 -22.96149,0.3713 -3.29989,0.0875 -6.26601,0.16074 -8.93187,0.22889 -21.28506,0.53815 -23.51132,0.59512 -25.07448,2.86977 -0.25332,0.37029 -0.48058,0.74262 -0.41351,0.95422 0.42842,1.35197 8.42746,1.82298 11.05604,1.97862 8.98925,0.52797 24.35178,0.77517 48.34742,0.77517 50.5163,0 73.52994,-2.37129 84.59046,-3.51065 2.18529,-0.22584 3.91011,-0.40285 5.21994,-0.49441 0.44928,-0.0295 1.04831,-0.0448 1.78294,-0.0448 z" /></g><g
   id="XMLID_14873_"
   transform="translate(58.084245,27.805043)"
   inkscape:export-xdpi="105.23354"
   inkscape:export-ydpi="105.23354">
	<ellipse
   id="XMLID_14930_"
   class="st0"
   cx="24"
   cy="45.200001"
   rx="20.299999"
   ry="1.8"
   style="opacity:0.15;fill:#45413c" />
	<path
   id="XMLID_14929_"
   class="st36"
   d="M 41.9,44.5 H 6.1 c -0.3,0 -0.6,-0.3 -0.6,-0.6 v -8.6 c 0,-0.7 0.6,-1.2 1.2,-1.2 h 34.5 c 0.7,0 1.2,0.6 1.2,1.2 v 8.6 c 0.1,0.3 -0.2,0.6 -0.5,0.6 z"
   inkscape:connector-curvature="0"
   style="fill:#ffffff;stroke:#45413c;stroke-linecap:round;stroke-linejoin:round;stroke-miterlimit:10" />
	<rect
   id="XMLID_14928_"
   x="7.4000001"
   y="5.6999998"
   class="st9"
   width="33.299999"
   height="28.4"
   style="fill:#ffffff" />
	<rect
   id="XMLID_14927_"
   x="7.4000001"
   y="5.6999998"
   class="st71"
   width="33.299999"
   height="2.5999999"
   style="fill:#e0e0e0" />
	<rect
   id="XMLID_14926_"
   x="7.4000001"
   y="5.6999998"
   class="st3"
   width="33.299999"
   height="28.4"
   style="fill:none;stroke:#45413c;stroke-linecap:round;stroke-linejoin:round;stroke-miterlimit:10" />
	<path
   id="XMLID_14925_"
   class="st53"
   d="M 40.6,5.7 H 7.4 C 6.7,5.7 6.2,5.1 6.2,4.5 V 3.8 C 6.2,3.1 6.8,2.6 7.4,2.6 h 33.3 c 0.7,0 1.2,0.6 1.2,1.2 v 0.6 c 0,0.7 -0.6,1.3 -1.3,1.3 z"
   inkscape:connector-curvature="0"
   style="fill:#87898c" />
	<path
   id="XMLID_14924_"
   class="st54"
   d="M 40.6,2.6 H 7.4 C 6.7,2.6 6.2,3.2 6.2,3.8 v 0.6 c 0,0.2 0,0.3 0.1,0.5 C 6.5,4.4 6.9,4.1 7.4,4.1 h 33.3 c 0.5,0 1,0.3 1.1,0.8 0.1,-0.1 0.1,-0.3 0.1,-0.5 V 3.8 c 0,-0.7 -0.6,-1.2 -1.3,-1.2 z"
   inkscape:connector-curvature="0"
   style="fill:#bdbec0" />
	<path
   id="XMLID_14923_"
   class="st3"
   d="M 40.6,5.7 H 7.4 C 6.7,5.7 6.2,5.1 6.2,4.5 V 3.8 C 6.2,3.1 6.8,2.6 7.4,2.6 h 33.3 c 0.7,0 1.2,0.6 1.2,1.2 v 0.6 c 0,0.7 -0.6,1.3 -1.3,1.3 z"
   inkscape:connector-curvature="0"
   style="fill:none;stroke:#45413c;stroke-linecap:round;stroke-linejoin:round;stroke-miterlimit:10" />
	<rect
   id="XMLID_14922_"
   x="19.1"
   y="36.5"
   class="st49"
   width="9.8999996"
   height="8"
   style="fill:#00b8f0" />
	<polygon
   id="XMLID_14921_"
   class="st50"
   points="28.9,36.5 28.9,36.5 24.2,36.5 21,44.5 25.7,44.5 "
   style="fill:#4acfff" />
	<rect
   id="XMLID_14920_"
   x="19.1"
   y="36.5"
   class="st3"
   width="9.8999996"
   height="8"
   style="fill:none;stroke:#45413c;stroke-linecap:round;stroke-linejoin:round;stroke-miterlimit:10" />
	<rect
   id="XMLID_14919_"
   x="10.4"
   y="37.099998"
   class="st49"
   width="3.7"
   height="4.3000002"
   style="fill:#00b8f0" />
	<polygon
   id="XMLID_14918_"
   class="st50"
   points="14.1,37.1 13.4,37.1 11.7,41.4 14.1,41.4 "
   style="fill:#4acfff" />
	<rect
   id="XMLID_14917_"
   x="11.1"
   y="26.6"
   class="st49"
   width="3.7"
   height="4.3000002"
   style="fill:#00b8f0" />
	<polygon
   id="XMLID_14916_"
   class="st50"
   points="14.8,26.6 14.1,26.6 12.3,30.9 14.8,30.9 "
   style="fill:#4acfff" />
	<rect
   id="XMLID_14915_"
   x="33.200001"
   y="26.6"
   class="st49"
   width="3.7"
   height="4.3000002"
   style="fill:#00b8f0" />
	<polygon
   id="XMLID_14914_"
   class="st50"
   points="36.9,26.6 36.3,26.6 34.5,30.9 36.9,30.9 "
   style="fill:#4acfff" />
	<rect
   id="XMLID_14913_"
   x="25.799999"
   y="26.6"
   class="st49"
   width="3.7"
   height="4.3000002"
   style="fill:#00b8f0" />
	<polygon
   id="XMLID_14912_"
   class="st50"
   points="29.5,26.6 28.9,26.6 27.1,30.9 29.5,30.9 "
   style="fill:#4acfff" />
	<rect
   id="XMLID_14911_"
   x="18.5"
   y="26.6"
   class="st49"
   width="3.7"
   height="4.3000002"
   style="fill:#00b8f0" />
	<polygon
   id="XMLID_14910_"
   class="st50"
   points="22.2,26.6 21.5,26.6 19.7,30.9 22.2,30.9 "
   style="fill:#4acfff" />
	<rect
   id="XMLID_14909_"
   x="11.1"
   y="18"
   class="st49"
   width="3.7"
   height="4.3000002"
   style="fill:#00b8f0" />
	<polygon
   id="XMLID_14908_"
   class="st50"
   points="14.8,18 14.1,18 12.3,22.3 14.8,22.3 "
   style="fill:#4acfff" />
	<rect
   id="XMLID_14907_"
   x="33.200001"
   y="18"
   class="st49"
   width="3.7"
   height="4.3000002"
   style="fill:#00b8f0" />
	<polygon
   id="XMLID_14906_"
   class="st50"
   points="36.9,18 36.3,18 34.5,22.3 36.9,22.3 "
   style="fill:#4acfff" />
	<rect
   id="XMLID_14905_"
   x="25.799999"
   y="18"
   class="st49"
   width="3.7"
   height="4.3000002"
   style="fill:#00b8f0" />
	<polygon
   id="XMLID_14904_"
   class="st50"
   points="29.5,18 28.9,18 27.1,22.3 29.5,22.3 "
   style="fill:#4acfff" />
	<rect
   id="XMLID_14903_"
   x="18.5"
   y="18"
   class="st49"
   width="3.7"
   height="4.3000002"
   style="fill:#00b8f0" />
	<polygon
   id="XMLID_14902_"
   class="st50"
   points="22.2,18 21.5,18 19.7,22.3 22.2,22.3 "
   style="fill:#4acfff" />
	<rect
   id="XMLID_14901_"
   x="11.1"
   y="9.3999996"
   class="st49"
   width="3.7"
   height="4.3000002"
   style="fill:#00b8f0" />
	<polygon
   id="XMLID_14900_"
   class="st50"
   points="14.8,9.4 14.1,9.4 12.3,13.7 14.8,13.7 "
   style="fill:#4acfff" />
	<rect
   id="XMLID_14899_"
   x="33.200001"
   y="9.3999996"
   class="st49"
   width="3.7"
   height="4.3000002"
   style="fill:#00b8f0" />
	<polygon
   id="XMLID_14898_"
   class="st50"
   points="36.9,9.4 36.3,9.4 34.5,13.7 36.9,13.7 "
   style="fill:#4acfff" />
	<rect
   id="XMLID_14897_"
   x="25.799999"
   y="9.3999996"
   class="st49"
   width="3.7"
   height="4.3000002"
   style="fill:#00b8f0" />
	<polygon
   id="XMLID_14896_"
   class="st50"
   points="29.5,9.4 28.9,9.4 27.1,13.7 29.5,13.7 "
   style="fill:#4acfff" />
	<rect
   id="XMLID_14895_"
   x="18.5"
   y="9.3999996"
   class="st49"
   width="3.7"
   height="4.3000002"
   style="fill:#00b8f0" />
	<polygon
   id="XMLID_14894_"
   class="st50"
   points="22.2,9.4 21.5,9.4 19.7,13.7 22.2,13.7 "
   style="fill:#4acfff" />
	<rect
   id="XMLID_14893_"
   x="11.1"
   y="26.6"
   class="st3"
   width="3.7"
   height="4.3000002"
   style="fill:none;stroke:#45413c;stroke-linecap:round;stroke-linejoin:round;stroke-miterlimit:10" />
	<rect
   id="XMLID_14892_"
   x="33.200001"
   y="26.6"
   class="st3"
   width="3.7"
   height="4.3000002"
   style="fill:none;stroke:#45413c;stroke-linecap:round;stroke-linejoin:round;stroke-miterlimit:10" />
	<rect
   id="XMLID_14891_"
   x="25.799999"
   y="26.6"
   class="st3"
   width="3.7"
   height="4.3000002"
   style="fill:none;stroke:#45413c;stroke-linecap:round;stroke-linejoin:round;stroke-miterlimit:10" />
	<rect
   id="XMLID_14890_"
   x="18.5"
   y="26.6"
   class="st3"
   width="3.7"
   height="4.3000002"
   style="fill:none;stroke:#45413c;stroke-linecap:round;stroke-linejoin:round;stroke-miterlimit:10" />
	<rect
   id="XMLID_14889_"
   x="11.1"
   y="18"
   class="st3"
   width="3.7"
   height="4.3000002"
   style="fill:none;stroke:#45413c;stroke-linecap:round;stroke-linejoin:round;stroke-miterlimit:10" />
	<rect
   id="XMLID_14888_"
   x="33.200001"
   y="18"
   class="st3"
   width="3.7"
   height="4.3000002"
   style="fill:none;stroke:#45413c;stroke-linecap:round;stroke-linejoin:round;stroke-miterlimit:10" />
	<rect
   id="XMLID_14887_"
   x="25.799999"
   y="18"
   class="st3"
   width="3.7"
   height="4.3000002"
   style="fill:none;stroke:#45413c;stroke-linecap:round;stroke-linejoin:round;stroke-miterlimit:10" />
	<rect
   id="XMLID_14886_"
   x="18.5"
   y="18"
   class="st3"
   width="3.7"
   height="4.3000002"
   style="fill:none;stroke:#45413c;stroke-linecap:round;stroke-linejoin:round;stroke-miterlimit:10" />
	<rect
   id="XMLID_14885_"
   x="11.1"
   y="9.3999996"
   class="st3"
   width="3.7"
   height="4.3000002"
   style="fill:none;stroke:#45413c;stroke-linecap:round;stroke-linejoin:round;stroke-miterlimit:10" />
	<rect
   id="XMLID_14884_"
   x="33.200001"
   y="9.3999996"
   class="st3"
   width="3.7"
   height="4.3000002"
   style="fill:none;stroke:#45413c;stroke-linecap:round;stroke-linejoin:round;stroke-miterlimit:10" />
	<rect
   id="XMLID_14883_"
   x="25.799999"
   y="9.3999996"
   class="st3"
   width="3.7"
   height="4.3000002"
   style="fill:none;stroke:#45413c;stroke-linecap:round;stroke-linejoin:round;stroke-miterlimit:10" />
	<rect
   id="XMLID_14882_"
   x="18.5"
   y="9.3999996"
   class="st3"
   width="3.7"
   height="4.3000002"
   style="fill:none;stroke:#45413c;stroke-linecap:round;stroke-linejoin:round;stroke-miterlimit:10" />
	<rect
   id="XMLID_14881_"
   x="33.900002"
   y="37.099998"
   class="st49"
   width="3.7"
   height="4.3000002"
   style="fill:#00b8f0" />
	<polygon
   id="XMLID_14880_"
   class="st50"
   points="37.6,37.1 36.9,37.1 35.2,41.4 37.6,41.4 "
   style="fill:#4acfff" />
	<rect
   id="XMLID_14879_"
   x="10.4"
   y="37.099998"
   class="st3"
   width="3.7"
   height="4.3000002"
   style="fill:none;stroke:#45413c;stroke-linecap:round;stroke-linejoin:round;stroke-miterlimit:10" />
	<rect
   id="XMLID_14878_"
   x="33.900002"
   y="37.099998"
   class="st3"
   width="3.7"
   height="4.3000002"
   style="fill:none;stroke:#45413c;stroke-linecap:round;stroke-linejoin:round;stroke-miterlimit:10" />
	<line
   id="XMLID_14877_"
   class="st3"
   x1="24"
   y1="36.5"
   x2="24"
   y2="44.5"
   style="fill:none;stroke:#45413c;stroke-linecap:round;stroke-linejoin:round;stroke-miterlimit:10" />
	<path
   id="XMLID_14876_"
   class="st53"
   d="M 29.2,36.5 H 18.8 c -0.7,0 -1.2,-0.6 -1.2,-1.2 v -0.6 c 0,-0.7 0.6,-1.2 1.2,-1.2 h 10.3 c 0.7,0 1.2,0.6 1.2,1.2 v 0.6 c 0.1,0.6 -0.5,1.2 -1.1,1.2 z"
   inkscape:connector-curvature="0"
   style="fill:#87898c" />
	<path
   id="XMLID_14875_"
   class="st54"
   d="M 29.2,33.4 H 18.8 c -0.7,0 -1.2,0.6 -1.2,1.2 v 0.6 c 0,0.2 0,0.3 0.1,0.5 0.2,-0.5 0.6,-0.8 1.1,-0.8 h 10.3 c 0.5,0 1,0.3 1.1,0.8 0.1,-0.1 0.1,-0.3 0.1,-0.5 V 34.6 C 30.4,34 29.8,33.4 29.2,33.4 Z"
   inkscape:connector-curvature="0"
   style="fill:#bdbec0" />
	<path
   id="XMLID_14874_"
   class="st3"
   d="M 29.2,36.5 H 18.8 c -0.7,0 -1.2,-0.6 -1.2,-1.2 v -0.6 c 0,-0.7 0.6,-1.2 1.2,-1.2 h 10.3 c 0.7,0 1.2,0.6 1.2,1.2 v 0.6 c 0.1,0.6 -0.5,1.2 -1.1,1.2 z"
   inkscape:connector-curvature="0"
   style="fill:none;stroke:#45413c;stroke-linecap:round;stroke-linejoin:round;stroke-miterlimit:10" />
</g>
<g
   id="g488"
   transform="matrix(0.51191957,0,0,0.52033611,-121.52178,-203.06352)"
   inkscape:export-xdpi="105.23354"
   inkscape:export-ydpi="105.23354"><path
     inkscape:connector-curvature="0"
     id="path7060"
     d="m 586.985,461.072 c 0.326,-0.883 0.502,-1.825 0.502,-2.805 0,-5.01 -4.617,-9.072 -10.312,-9.072 -1.045,0 -2.055,0.14 -3.005,0.393 -0.9,-7.752 -8.345,-13.801 -17.393,-13.801 -6.077,0 -11.431,2.727 -14.563,6.867 -0.09,0.011 -0.181,0.021 -0.27,0.032 -1.603,-1.384 -3.798,-2.239 -6.219,-2.239 -1.133,0 -2.214,0.189 -3.21,0.528 -3.203,-3.182 -7.883,-5.188 -13.094,-5.188 -1.18,0 -2.329,0.104 -3.44,0.302 -1.167,-9.046 -9.894,-16.074 -20.486,-16.074 -9.963,0 -18.275,6.214 -20.202,14.477 -0.701,-0.139 -1.431,-0.214 -2.182,-0.214 -5.324,0 -9.662,3.71 -9.862,8.35 -3.806,0.756 -6.96,3.019 -8.617,6.035 -2.343,-0.964 -4.957,-1.505 -7.714,-1.505 -6.464,0 -12.14,2.964 -15.369,7.433 -0.769,-0.128 -1.56,-0.197 -2.369,-0.197 -5.746,0 -10.603,3.342 -12.201,7.936 -1.185,-0.515 -2.517,-0.805 -3.927,-0.805 -4.901,0 -8.875,3.496 -8.875,7.809 0,4.313 3.974,7.811 8.875,7.811 3.042,0 5.726,-1.348 7.326,-3.4 2.289,1.922 5.388,3.104 8.802,3.104 2.209,0 4.286,-0.495 6.099,-1.363 3.155,2.312 7.212,3.703 11.64,3.703 4.564,0 8.736,-1.479 11.932,-3.92 4.37,4.732 11.038,7.76 18.511,7.76 7.408,0 14.027,-2.974 18.4,-7.64 0.245,0.158 0.495,0.314 0.75,0.464 4.368,4.396 10.792,7.176 17.952,7.176 7.348,0 13.919,-2.927 18.293,-7.525 0.056,-0.026 0.11,-0.05 0.165,-0.077 3.42,2.192 7.629,3.488 12.185,3.488 5.522,0 10.541,-1.904 14.254,-5.005 1.617,1.508 3.909,2.451 6.452,2.451 2.687,0 5.091,-1.05 6.719,-2.708 h 13.609 c 3.963,0 7.174,-2.826 7.174,-6.311 0,-3.237 -2.766,-5.902 -6.33,-6.27 z"
     style="fill:#ffffff" /><path
     inkscape:connector-curvature="0"
     id="path7302"
     d="m 549.454,478.508 c -2.186,-6.301 -8.847,-10.885 -16.725,-10.885 -6.077,0 -11.429,2.727 -14.563,6.866 -0.09,0.011 -0.18,0.021 -0.27,0.033 -1.6,-1.385 -3.796,-2.239 -6.22,-2.239 -1.132,0 -2.213,0.188 -3.208,0.527 -3.203,-3.183 -7.883,-5.188 -13.095,-5.188 -1.178,0 -2.328,0.104 -3.441,0.299 -1.166,-9.044 -9.893,-16.073 -20.486,-16.073 -9.962,0 -18.273,6.215 -20.201,14.479 -0.701,-0.14 -1.432,-0.214 -2.182,-0.214 -5.324,0 -9.663,3.709 -9.862,8.35 -1.283,0.254 -2.487,0.685 -3.591,1.253 3.105,2.17 7.034,3.471 11.309,3.471 4.564,0 8.736,-1.479 11.932,-3.92 4.37,4.732 11.038,7.76 18.511,7.76 7.408,0 14.027,-2.974 18.4,-7.64 0.245,0.158 0.495,0.314 0.75,0.464 4.368,4.396 10.792,7.176 17.952,7.176 7.348,0 13.919,-2.927 18.293,-7.525 0.056,-0.026 0.11,-0.05 0.165,-0.077 3.42,2.192 7.629,3.488 12.185,3.488 1.491,-0.001 2.945,-0.142 4.347,-0.405 z"
     style="fill:#e6f0f4" /><path
     inkscape:connector-curvature="0"
     id="path7398"
     d="m 514.465,483.354 c -6.949,0 -13.565,-2.64 -18.156,-7.242 -0.163,-0.097 -0.33,-0.198 -0.493,-0.302 -4.608,4.799 -11.316,7.544 -18.453,7.544 -7.196,0 -13.938,-2.784 -18.551,-7.647 -3.328,2.458 -7.539,3.808 -11.892,3.808 -4.248,0 -8.386,-1.295 -11.676,-3.65 -1.858,0.857 -3.951,1.312 -6.063,1.312 -3.25,0 -6.347,-1.053 -8.756,-2.969 -1.735,2.05 -4.466,3.265 -7.372,3.265 -5.075,0 -9.206,-3.651 -9.206,-8.14 0,-4.487 4.131,-8.138 9.206,-8.138 1.302,0 2.557,0.234 3.736,0.698 1.804,-4.697 6.735,-7.828 12.392,-7.828 0.735,0 1.481,0.057 2.222,0.168 3.441,-4.641 9.226,-7.404 15.517,-7.404 2.637,0 5.183,0.478 7.568,1.421 1.714,-2.926 4.838,-5.106 8.448,-5.893 0.353,-4.734 4.769,-8.408 10.177,-8.408 0.649,0 1.3,0.056 1.936,0.163 1.013,-3.988 3.538,-7.609 7.141,-10.224 3.733,-2.711 8.46,-4.203 13.308,-4.203 10.532,0 19.392,6.864 20.764,16.023 1.05,-0.167 2.113,-0.251 3.163,-0.251 5.016,0 9.808,1.872 13.181,5.144 1.004,-0.32 2.053,-0.483 3.123,-0.483 2.363,0 4.601,0.788 6.315,2.22 3.327,-4.312 8.822,-6.88 14.735,-6.88 4.431,0 8.677,1.443 11.957,4.066 3.163,2.526 5.182,5.944 5.715,9.655 0.886,-0.207 1.801,-0.313 2.726,-0.313 5.867,0 10.642,4.218 10.642,9.401 0,0.86 -0.131,1.709 -0.391,2.529 3.572,0.543 6.218,3.295 6.218,6.543 0,3.661 -3.364,6.64 -7.503,6.64 H 572.67 c -1.748,1.724 -4.238,2.708 -6.855,2.708 -2.446,0 -4.729,-0.83 -6.463,-2.345 -3.894,3.161 -8.939,4.897 -14.243,4.897 -4.407,0 -8.617,-1.186 -12.192,-3.431 -4.608,4.798 -11.325,7.546 -18.452,7.546 z m -18.756,-8.392 0.231,0.149 c 0.247,0.158 0.495,0.311 0.737,0.455 l 0.038,0.021 0.031,0.029 c 4.468,4.499 10.927,7.079 17.718,7.079 6.987,0 13.568,-2.706 18.054,-7.424 l 0.044,-0.047 0.116,-0.052 c 0.035,-0.015 0.069,-0.029 0.104,-0.046 l 0.166,-0.08 0.153,0.101 c 3.505,2.246 7.654,3.434 12.006,3.434 5.251,0 10.237,-1.749 14.042,-4.927 l 0.223,-0.187 0.212,0.198 c 1.635,1.523 3.848,2.362 6.229,2.362 2.492,0 4.855,-0.951 6.484,-2.609 l 0.095,-0.099 h 13.749 c 3.774,0 6.845,-2.684 6.845,-5.981 0,-3.032 -2.595,-5.585 -6.035,-5.939 l -0.423,-0.045 0.147,-0.397 c 0.321,-0.866 0.483,-1.771 0.483,-2.69 0,-4.82 -4.479,-8.741 -9.983,-8.741 -0.993,0 -1.976,0.128 -2.92,0.38 l -0.368,0.099 -0.044,-0.38 c -0.895,-7.701 -8.231,-13.509 -17.065,-13.509 -5.762,0 -11.108,2.519 -14.3,6.736 l -0.086,0.111 -0.22,0.026 c -0.061,0.007 -0.122,0.015 -0.183,0.022 l -0.146,0.021 -0.112,-0.097 c -1.611,-1.393 -3.743,-2.16 -6.004,-2.16 -1.066,0 -2.111,0.172 -3.104,0.512 l -0.193,0.065 -0.146,-0.144 c -3.257,-3.237 -7.944,-5.094 -12.86,-5.094 -1.125,0 -2.265,0.099 -3.385,0.296 l -0.34,0.061 -0.044,-0.343 c -1.16,-9 -9.827,-15.787 -20.158,-15.787 -9.599,0 -17.959,5.981 -19.881,14.222 l -0.073,0.312 -0.312,-0.063 c -0.692,-0.137 -1.405,-0.207 -2.118,-0.207 -5.152,0 -9.339,3.529 -9.533,8.035 l -0.012,0.26 -0.254,0.05 c -3.632,0.722 -6.771,2.916 -8.394,5.87 l -0.142,0.259 -0.272,-0.113 c -2.384,-0.982 -4.938,-1.48 -7.587,-1.48 -6.154,0 -11.801,2.728 -15.104,7.295 l -0.119,0.166 -0.2,-0.033 c -0.771,-0.128 -1.55,-0.192 -2.315,-0.192 -5.506,0 -10.285,3.101 -11.891,7.714 l -0.116,0.336 -0.326,-0.143 c -1.188,-0.515 -2.465,-0.776 -3.795,-0.776 -4.712,0 -8.546,3.354 -8.546,7.479 0,4.124 3.834,7.48 8.546,7.48 2.827,0 5.468,-1.224 7.064,-3.272 l 0.211,-0.269 0.261,0.22 c 2.327,1.952 5.377,3.026 8.592,3.026 2.082,0 4.141,-0.461 5.956,-1.331 l 0.178,-0.086 0.16,0.117 c 3.203,2.346 7.267,3.639 11.444,3.639 4.314,0 8.481,-1.368 11.73,-3.853 l 0.239,-0.182 0.202,0.22 c 4.492,4.864 11.149,7.654 18.271,7.654 7.053,0 13.672,-2.747 18.159,-7.533 z"
     style="fill:#6a8993" /></g></svg>