<svg version="1.1" viewBox="0.0 0.0 355.03674540682414 172.5564304461942" fill="none" stroke="none" stroke-linecap="square" stroke-miterlimit="10" xmlns:xlink="http://www.w3.org/1999/xlink" xmlns="http://www.w3.org/2000/svg"><clipPath id="p.0"><path d="m0 0l355.03674 0l0 172.55643l-355.03674 0l0 -172.55643z" clip-rule="nonzero"/></clipPath><g clip-path="url(#p.0)"><path fill="#000000" fill-opacity="0.0" d="m0 0l355.03674 0l0 172.55643l-355.03674 0z" fill-rule="evenodd"/><path fill="#f4cccc" d="m36.454067 6.6430445l174.83464 0l0 48.850395l-174.83464 0z" fill-rule="evenodd"/><path stroke="#cc4125" stroke-width="1.0" stroke-linejoin="round" stroke-linecap="butt" d="m36.454067 6.6430445l174.83464 0l0 48.850395l-174.83464 0z" fill-rule="evenodd"/><path fill="#000000" d="m78.206116 37.98824l5.125 -13.359373l1.90625 0l5.46875 13.359373l-2.015625 0l-1.546875 -4.046875l-5.59375 0l-1.46875 4.046875l-1.875 0zm3.859375 -5.484375l4.53125 0l-1.40625 -3.703123q-0.625 -1.6875 -0.9375 -2.765625q-0.265625 1.28125 -0.71875 2.546875l-1.46875 3.921873zm9.849823 9.1875l0 -13.374998l1.484375 0l0 1.25q0.53125 -0.734375 1.1875 -1.09375q0.671875 -0.375 1.625 -0.375q1.234375 0 2.171875 0.640625q0.953125 0.625 1.4375 1.796875q0.484375 1.15625 0.484375 2.546873q0 1.484375 -0.53125 2.671875q-0.53125 1.1875 -1.546875 1.828125q-1.015625 0.625 -2.140625 0.625q-0.8125 0 -1.46875 -0.34375q-0.65625 -0.34375 -1.0625 -0.875l0 4.703125l-1.640625 0zm1.484375 -8.484375q0 1.859375 0.75 2.765625q0.765625 0.890625 1.828125 0.890625q1.09375 0 1.875 -0.921875q0.78125 -0.9375 0.78125 -2.875q0 -1.8437481 -0.765625 -2.765623q-0.75 -0.921875 -1.8125 -0.921875q-1.046875 0 -1.859375 0.984375q-0.796875 0.96875 -0.796875 2.843748zm8.891342 8.484375l0 -13.374998l1.484375 0l0 1.25q0.53125 -0.734375 1.1875 -1.09375q0.671875 -0.375 1.625 -0.375q1.234375 0 2.171875 0.640625q0.953125 0.625 1.4375 1.796875q0.484375 1.15625 0.484375 2.546873q0 1.484375 -0.53125 2.671875q-0.53125 1.1875 -1.546875 1.828125q-1.015625 0.625 -2.140625 0.625q-0.8125 0 -1.46875 -0.34375q-0.65625 -0.34375 -1.0625 -0.875l0 4.703125l-1.640625 0zm1.484375 -8.484375q0 1.859375 0.75 2.765625q0.765625 0.890625 1.828125 0.890625q1.09375 0 1.875 -0.921875q0.78125 -0.9375 0.78125 -2.875q0 -1.8437481 -0.765625 -2.765623q-0.75 -0.921875 -1.8125 -0.921875q-1.046875 0 -1.859375 0.984375q-0.796875 0.96875 -0.796875 2.843748zm8.844467 4.78125l0 -13.359373l1.640625 0l0 13.359373l-1.640625 0zm4.191696 -11.468748l0 -1.890625l1.640625 0l0 1.890625l-1.640625 0zm0 11.468748l0 -9.671873l1.640625 0l0 9.671873l-1.640625 0zm10.457321 -3.546875l1.609375 0.21875q-0.265625 1.65625 -1.359375 2.609375q-1.078125 0.9375 -2.671875 0.9375q-1.984375 0 -3.1875 -1.296875q-1.203125 -1.296875 -1.203125 -3.71875q0 -1.5781231 0.515625 -2.749998q0.515625 -1.171875 1.578125 -1.75q1.0625 -0.59375 2.3125 -0.59375q1.578125 0 2.578125 0.796875q1.0 0.796875 1.28125 2.265625l-1.59375 0.234375q-0.234375 -0.96875 -0.8125 -1.453125q-0.578125 -0.5 -1.390625 -0.5q-1.234375 0 -2.015625 0.890625q-0.78125 0.890625 -0.78125 2.812498q0 1.953125 0.75 2.84375q0.75 0.875 1.953125 0.875q0.96875 0 1.609375 -0.59375q0.65625 -0.59375 0.828125 -1.828125zm9.328125 2.359375q-0.921875 0.765625 -1.765625 1.09375q-0.828125 0.3125 -1.796875 0.3125q-1.59375 0 -2.453125 -0.78125q-0.859375 -0.78125 -0.859375 -1.984375q0 -0.71875 0.328125 -1.296875q0.328125 -0.59375 0.84375 -0.9375q0.53125 -0.359375 1.1875 -0.546875q0.46875 -0.125 1.453125 -0.25q1.984375 -0.234375 2.921875 -0.5624981q0.015625 -0.34375 0.015625 -0.421875q0 -1.0 -0.46875 -1.421875q-0.625 -0.546875 -1.875 -0.546875q-1.15625 0 -1.703125 0.40625q-0.546875 0.40625 -0.8125 1.421875l-1.609375 -0.21875q0.21875 -1.015625 0.71875 -1.640625q0.5 -0.640625 1.453125 -0.984375q0.953125 -0.34375 2.1875 -0.34375q1.25 0 2.015625 0.296875q0.78125 0.28125 1.140625 0.734375q0.375 0.4375 0.515625 1.109375q0.078125 0.421875 0.078125 1.515625l0 2.187498q0 2.28125 0.109375 2.890625q0.109375 0.59375 0.40625 1.15625l-1.703125 0q-0.265625 -0.515625 -0.328125 -1.1875zm-0.140625 -3.671875q-0.890625 0.375 -2.671875 0.625q-1.015625 0.140625 -1.4375 0.328125q-0.421875 0.1875 -0.65625 0.53125q-0.21875 0.34375 -0.21875 0.78125q0 0.65625 0.5 1.09375q0.5 0.4375 1.453125 0.4375q0.9375 0 1.671875 -0.40625q0.75 -0.421875 1.09375 -1.140625q0.265625 -0.5625 0.265625 -1.640625l0 -0.609375zm7.781967 3.390625l0.234375 1.453125q-0.6875 0.140625 -1.234375 0.140625q-0.890625 0 -1.390625 -0.28125q-0.484375 -0.28125 -0.6875 -0.734375q-0.203125 -0.46875 -0.203125 -1.9375l0 -5.578123l-1.203125 0l0 -1.265625l1.203125 0l0 -2.390625l1.625 -0.984375l0 3.375l1.65625 0l0 1.265625l-1.65625 0l0 5.671873q0 0.6875 0.078125 0.890625q0.09375 0.203125 0.28125 0.328125q0.203125 0.109375 0.578125 0.109375q0.265625 0 0.71875 -0.0625zm1.6051788 -9.999998l0 -1.890625l1.640625 0l0 1.890625l-1.640625 0zm0 11.468748l0 -9.671873l1.640625 0l0 9.671873l-1.640625 0zm3.5354462 -4.84375q0 -2.687498 1.484375 -3.968748q1.25 -1.078125 3.046875 -1.078125q2.0 0 3.265625 1.3125q1.265625 1.296875 1.265625 3.609373q0 1.859375 -0.5625 2.9375q-0.5625 1.0625 -1.640625 1.65625q-1.0625 0.59375 -2.328125 0.59375q-2.03125 0 -3.28125 -1.296875q-1.25 -1.3125 -1.25 -3.765625zm1.6875 0q0 1.859375 0.796875 2.796875q0.8125 0.921875 2.046875 0.921875q1.21875 0 2.03125 -0.921875q0.8125 -0.9375 0.8125 -2.84375q0 -1.7968731 -0.8125 -2.718748q-0.8125 -0.921875 -2.03125 -0.921875q-1.234375 0 -2.046875 0.921875q-0.796875 0.90625 -0.796875 2.765623zm9.297592 4.84375l0 -9.671873l1.46875 0l0 1.375q1.0625 -1.59375 3.078125 -1.59375q0.875 0 1.609375 0.3125q0.734375 0.3125 1.09375 0.828125q0.375 0.5 0.515625 1.203125q0.09375 0.453125 0.09375 1.5937481l0 5.953125l-1.640625 0l0 -5.890625q0 -0.9999981 -0.203125 -1.4843731q-0.1875 -0.5 -0.671875 -0.796875q-0.484375 -0.296875 -1.140625 -0.296875q-1.046875 0 -1.8125 0.671875q-0.75 0.65625 -0.75 2.515623l0 5.28125l-1.640625 0z" fill-rule="nonzero"/><path fill="#000000" fill-opacity="0.0" d="m3.6351707 71.39028l48.850395 0" fill-rule="evenodd"/><path stroke="#ff0000" stroke-width="2.0" stroke-linejoin="round" stroke-linecap="butt" d="m3.6351707 71.39028l48.850395 0" fill-rule="evenodd"/><path fill="#000000" fill-opacity="0.0" d="m195.25722 71.39028l47.338577 0" fill-rule="evenodd"/><path stroke="#ff0000" stroke-width="2.0" stroke-linejoin="round" stroke-linecap="butt" d="m195.25722 71.39028l47.338577 0" fill-rule="evenodd"/><path fill="#000000" fill-opacity="0.0" d="m52.485565 55.358784l142.77165 0l0 32.062992l-142.77165 0z" fill-rule="evenodd"/><path fill="#000000" d="m65.21821 76.19028l0 -9.546875l1.265625 0l0 8.421875l4.703125 0l0 1.125l-5.96875 0zm7.3343506 -8.1875l0 -1.359375l1.171875 0l0 1.359375l-1.171875 0zm0 8.1875l0 -6.90625l1.171875 0l0 6.90625l-1.171875 0zm2.945465 0l0 -6.90625l1.046875 0l0 0.96875q0.328125 -0.515625 0.859375 -0.8125q0.546875 -0.3125 1.234375 -0.3125q0.78125 0 1.265625 0.3125q0.484375 0.3125 0.6875 0.890625q0.828125 -1.203125 2.140625 -1.203125q1.03125 0 1.578125 0.578125q0.5625 0.5625 0.5625 1.734375l0 4.75l-1.171875 0l0 -4.359375q0 -0.703125 -0.125 -1.0q-0.109375 -0.3125 -0.40625 -0.5q-0.296875 -0.1875 -0.703125 -0.1875q-0.71875 0 -1.203125 0.484375q-0.484375 0.484375 -0.484375 1.546875l0 4.015625l-1.171875 0l0 -4.484375q0 -0.78125 -0.296875 -1.171875q-0.28125 -0.390625 -0.921875 -0.390625q-0.5 0 -0.921875 0.265625q-0.421875 0.25 -0.609375 0.75q-0.1875 0.5 -0.1875 1.453125l0 3.578125l-1.171875 0zm11.118057 -8.1875l0 -1.359375l1.171875 0l0 1.359375l-1.171875 0zm0 8.1875l0 -6.90625l1.171875 0l0 6.90625l-1.171875 0zm5.507965 -1.046875l0.171875 1.03125q-0.5 0.109375 -0.890625 0.109375q-0.640625 0 -1.0 -0.203125q-0.34375 -0.203125 -0.484375 -0.53125q-0.140625 -0.328125 -0.140625 -1.390625l0 -3.96875l-0.859375 0l0 -0.90625l0.859375 0l0 -1.71875l1.171875 -0.703125l0 2.421875l1.171875 0l0 0.90625l-1.171875 0l0 4.046875q0 0.5 0.046875 0.640625q0.0625 0.140625 0.203125 0.234375q0.140625 0.078125 0.40625 0.078125q0.203125 0 0.515625 -0.046875zm5.8748627 -1.171875l1.203125 0.140625q-0.28125 1.0625 -1.0625 1.65625q-0.765625 0.578125 -1.96875 0.578125q-1.515625 0 -2.40625 -0.9375q-0.890625 -0.9375 -0.890625 -2.609375q0 -1.75 0.890625 -2.703125q0.90625 -0.96875 2.34375 -0.96875q1.390625 0 2.265625 0.9375q0.875 0.9375 0.875 2.65625q0 0.109375 0 0.3125l-5.15625 0q0.0625 1.140625 0.640625 1.75q0.578125 0.59375 1.4375 0.59375q0.65625 0 1.109375 -0.328125q0.453125 -0.34375 0.71875 -1.078125zm-3.84375 -1.90625l3.859375 0q-0.078125 -0.859375 -0.4375 -1.296875q-0.5625 -0.6875 -1.453125 -0.6875q-0.8125 0 -1.359375 0.546875q-0.546875 0.53125 -0.609375 1.4375zm11.006226 4.125l0 -0.875q-0.65625 1.03125 -1.9375 1.03125q-0.8125 0 -1.515625 -0.453125q-0.6875 -0.453125 -1.078125 -1.265625q-0.375 -0.828125 -0.375 -1.890625q0 -1.03125 0.34375 -1.875q0.34375 -0.84375 1.03125 -1.28125q0.703125 -0.453125 1.546875 -0.453125q0.625 0 1.109375 0.265625q0.5 0.25 0.796875 0.671875l0 -3.421875l1.171875 0l0 9.546875l-1.09375 0zm-3.703125 -3.453125q0 1.328125 0.5625 1.984375q0.5625 0.65625 1.328125 0.65625q0.765625 0 1.296875 -0.625q0.53125 -0.625 0.53125 -1.90625q0 -1.421875 -0.546875 -2.078125q-0.546875 -0.671875 -1.34375 -0.671875q-0.78125 0 -1.3125 0.640625q-0.515625 0.625 -0.515625 2.0zm9.865463 1.390625l1.15625 -0.1875q0.109375 0.703125 0.546875 1.078125q0.453125 0.359375 1.25 0.359375q0.8125 0 1.203125 -0.328125q0.390625 -0.328125 0.390625 -0.765625q0 -0.390625 -0.359375 -0.625q-0.234375 -0.15625 -1.1875 -0.390625q-1.296875 -0.328125 -1.796875 -0.5625q-0.484375 -0.25 -0.75 -0.65625q-0.25 -0.421875 -0.25 -0.9375q0 -0.453125 0.203125 -0.84375q0.21875 -0.40625 0.578125 -0.671875q0.28125 -0.1875 0.75 -0.328125q0.46875 -0.140625 1.015625 -0.140625q0.8125 0 1.421875 0.234375q0.609375 0.234375 0.90625 0.640625q0.296875 0.390625 0.40625 1.0625l-1.140625 0.15625q-0.078125 -0.53125 -0.453125 -0.828125q-0.375 -0.3125 -1.0625 -0.3125q-0.8125 0 -1.15625 0.265625q-0.34375 0.265625 -0.34375 0.625q0 0.234375 0.140625 0.421875q0.15625 0.1875 0.453125 0.3125q0.171875 0.0625 1.03125 0.296875q1.25 0.328125 1.734375 0.546875q0.5 0.203125 0.78125 0.609375q0.28125 0.40625 0.28125 1.0q0 0.59375 -0.34375 1.109375q-0.34375 0.515625 -1.0 0.796875q-0.640625 0.28125 -1.453125 0.28125q-1.34375 0 -2.046875 -0.5625q-0.703125 -0.5625 -0.90625 -1.65625zm7.0859375 4.71875l-0.125 -1.09375q0.375 0.109375 0.65625 0.109375q0.390625 0 0.625 -0.140625q0.234375 -0.125 0.390625 -0.359375q0.109375 -0.171875 0.359375 -0.875q0.03125 -0.09375 0.109375 -0.28125l-2.625 -6.921875l1.265625 0l1.4375 4.0q0.28125 0.765625 0.5 1.59375q0.203125 -0.796875 0.46875 -1.578125l1.484375 -4.015625l1.171875 0l-2.625 7.015625q-0.421875 1.140625 -0.65625 1.578125q-0.3125 0.578125 -0.71875 0.84375q-0.40625 0.28125 -0.96875 0.28125q-0.328125 0 -0.75 -0.15625zm6.2421875 -4.71875l1.15625 -0.1875q0.109375 0.703125 0.546875 1.078125q0.453125 0.359375 1.25 0.359375q0.8124924 0 1.2031174 -0.328125q0.390625 -0.328125 0.390625 -0.765625q0 -0.390625 -0.359375 -0.625q-0.234375 -0.15625 -1.1874924 -0.390625q-1.296875 -0.328125 -1.796875 -0.5625q-0.484375 -0.25 -0.75 -0.65625q-0.25 -0.421875 -0.25 -0.9375q0 -0.453125 0.203125 -0.84375q0.21875 -0.40625 0.578125 -0.671875q0.28125 -0.1875 0.75 -0.328125q0.46875 -0.140625 1.015625 -0.140625q0.8124924 0 1.4218674 0.234375q0.609375 0.234375 0.90625 0.640625q0.296875 0.390625 0.40625 1.0625l-1.140625 0.15625q-0.078125 -0.53125 -0.453125 -0.828125q-0.375 -0.3125 -1.0624924 -0.3125q-0.8125 0 -1.15625 0.265625q-0.34375 0.265625 -0.34375 0.625q0 0.234375 0.140625 0.421875q0.15625 0.1875 0.453125 0.3125q0.171875 0.0625 1.03125 0.296875q1.2499924 0.328125 1.7343674 0.546875q0.5 0.203125 0.78125 0.609375q0.28125 0.40625 0.28125 1.0q0 0.59375 -0.34375 1.109375q-0.34375 0.515625 -1.0 0.796875q-0.640625 0.28125 -1.4531174 0.28125q-1.34375 0 -2.046875 -0.5625q-0.703125 -0.5625 -0.90625 -1.65625zm9.695305 1.015625l0.171875 1.03125q-0.5 0.109375 -0.890625 0.109375q-0.640625 0 -1.0 -0.203125q-0.34375 -0.203125 -0.484375 -0.53125q-0.140625 -0.328125 -0.140625 -1.390625l0 -3.96875l-0.859375 0l0 -0.90625l0.859375 0l0 -1.71875l1.171875 -0.703125l0 2.421875l1.171875 0l0 0.90625l-1.171875 0l0 4.046875q0 0.5 0.046875 0.640625q0.0625 0.140625 0.203125 0.234375q0.140625 0.078125 0.40625 0.078125q0.203125 0 0.515625 -0.046875zm5.8748627 -1.171875l1.203125 0.140625q-0.28125 1.0625 -1.0625 1.65625q-0.765625 0.578125 -1.96875 0.578125q-1.515625 0 -2.40625 -0.9375q-0.890625 -0.9375 -0.890625 -2.609375q0 -1.75 0.890625 -2.703125q0.90625 -0.96875 2.34375 -0.96875q1.390625 0 2.265625 0.9375q0.875 0.9375 0.875 2.65625q0 0.109375 0 0.3125l-5.15625 0q0.0625 1.140625 0.640625 1.75q0.578125 0.59375 1.4375 0.59375q0.65625 0 1.109375 -0.328125q0.453125 -0.34375 0.71875 -1.078125zm-3.84375 -1.90625l3.859375 0q-0.078125 -0.859375 -0.4375 -1.296875q-0.5625 -0.6875 -1.453125 -0.6875q-0.8125 0 -1.359375 0.546875q-0.546875 0.53125 -0.609375 1.4375zm6.5218506 4.125l0 -6.90625l1.046875 0l0 0.96875q0.328125 -0.515625 0.859375 -0.8125q0.546875 -0.3125 1.234375 -0.3125q0.78125 0 1.265625 0.3125q0.484375 0.3125 0.6875 0.890625q0.828125 -1.203125 2.140625 -1.203125q1.03125 0 1.578125 0.578125q0.5625 0.5625 0.5625 1.734375l0 4.75l-1.171875 0l0 -4.359375q0 -0.703125 -0.125 -1.0q-0.109375 -0.3125 -0.40625 -0.5q-0.296875 -0.1875 -0.703125 -0.1875q-0.71875 0 -1.203125 0.484375q-0.484375 0.484375 -0.484375 1.546875l0 4.015625l-1.171875 0l0 -4.484375q0 -0.78125 -0.296875 -1.171875q-0.28125 -0.390625 -0.921875 -0.390625q-0.5 0 -0.921875 0.265625q-0.421875 0.25 -0.609375 0.75q-0.1875 0.5 -0.1875 1.453125l0 3.578125l-1.171875 0zm19.321045 -2.53125l1.15625 0.15625q-0.1875 1.1875 -0.96875 1.859375q-0.78125 0.671875 -1.921875 0.671875q-1.40625 0 -2.28125 -0.921875q-0.859375 -0.9375 -0.859375 -2.65625q0 -1.125 0.375 -1.96875q0.375 -0.84375 1.125 -1.25q0.765625 -0.421875 1.65625 -0.421875q1.125 0 1.84375 0.578125q0.71875 0.5625 0.921875 1.609375l-1.140625 0.171875q-0.171875 -0.703125 -0.59375 -1.046875q-0.40625 -0.359375 -0.984375 -0.359375q-0.890625 0 -1.453125 0.640625q-0.546875 0.640625 -0.546875 2.0q0 1.40625 0.53125 2.03125q0.546875 0.625 1.40625 0.625q0.6875 0 1.140625 -0.421875q0.46875 -0.421875 0.59375 -1.296875zm6.6640625 1.671875q-0.65625 0.5625 -1.265625 0.796875q-0.59375 0.21875 -1.28125 0.21875q-1.140625 0 -1.75 -0.546875q-0.609375 -0.5625 -0.609375 -1.4375q0 -0.5 0.21875 -0.921875q0.234375 -0.421875 0.609375 -0.671875q0.375 -0.25 0.84375 -0.390625q0.34375 -0.078125 1.046875 -0.171875q1.421875 -0.171875 2.09375 -0.40625q0 -0.234375 0 -0.296875q0 -0.71875 -0.328125 -1.015625q-0.453125 -0.390625 -1.34375 -0.390625q-0.8125 0 -1.21875 0.296875q-0.390625 0.28125 -0.578125 1.015625l-1.140625 -0.15625q0.15625 -0.734375 0.515625 -1.1875q0.359375 -0.453125 1.03125 -0.6875q0.671875 -0.25 1.5625 -0.25q0.890625 0 1.4375 0.203125q0.5625 0.203125 0.8125 0.53125q0.265625 0.3125 0.375 0.796875q0.046875 0.296875 0.046875 1.078125l0 1.5625q0 1.625 0.078125 2.0625q0.078125 0.4375 0.296875 0.828125l-1.21875 0q-0.1875 -0.359375 -0.234375 -0.859375zm-0.09375 -2.609375q-0.640625 0.265625 -1.921875 0.4375q-0.71875 0.109375 -1.015625 0.25q-0.296875 0.125 -0.46875 0.375q-0.15625 0.25 -0.15625 0.546875q0 0.46875 0.34375 0.78125q0.359375 0.3125 1.046875 0.3125q0.671875 0 1.203125 -0.296875q0.53125 -0.296875 0.78125 -0.8125q0.1875 -0.390625 0.1875 -1.171875l0 -0.421875zm2.9749756 3.46875l0 -9.546875l1.171875 0l0 9.546875l-1.171875 0zm2.96109 0l0 -9.546875l1.171875 0l0 9.546875l-1.171875 0zm2.507965 -2.0625l1.15625 -0.1875q0.109375 0.703125 0.546875 1.078125q0.453125 0.359375 1.25 0.359375q0.8125 0 1.203125 -0.328125q0.390625 -0.328125 0.390625 -0.765625q0 -0.390625 -0.359375 -0.625q-0.234375 -0.15625 -1.1875 -0.390625q-1.296875 -0.328125 -1.796875 -0.5625q-0.484375 -0.25 -0.75 -0.65625q-0.25 -0.421875 -0.25 -0.9375q0 -0.453125 0.203125 -0.84375q0.21875 -0.40625 0.578125 -0.671875q0.28125 -0.1875 0.75 -0.328125q0.46875 -0.140625 1.015625 -0.140625q0.8125 0 1.421875 0.234375q0.609375 0.234375 0.90625 0.640625q0.296875 0.390625 0.40625 1.0625l-1.140625 0.15625q-0.078125 -0.53125 -0.453125 -0.828125q-0.375 -0.3125 -1.0625 -0.3125q-0.8125 0 -1.15625 0.265625q-0.34375 0.265625 -0.34375 0.625q0 0.234375 0.140625 0.421875q0.15625 0.1875 0.453125 0.3125q0.171875 0.0625 1.03125 0.296875q1.25 0.328125 1.734375 0.546875q0.5 0.203125 0.78125 0.609375q0.28125 0.40625 0.28125 1.0q0 0.59375 -0.34375 1.109375q-0.34375 0.515625 -1.0 0.796875q-0.640625 0.28125 -1.453125 0.28125q-1.34375 0 -2.046875 -0.5625q-0.703125 -0.5625 -0.90625 -1.65625z" fill-rule="nonzero"/><path fill="#cfe2f3" d="m36.454067 85.4808l174.83464 0l0 48.850395l-174.83464 0z" fill-rule="evenodd"/><path stroke="#6d9eeb" stroke-width="1.0" stroke-linejoin="round" stroke-linecap="butt" d="m36.454067 85.4808l174.83464 0l0 48.850395l-174.83464 0z" fill-rule="evenodd"/><path fill="#000000" d="m76.63558 116.82599l0 -13.359375l1.765625 0l0 5.484375l6.9375 0l0 -5.484375l1.765625 0l0 13.359375l-1.765625 0l0 -6.296875l-6.9375 0l0 6.296875l-1.765625 0zm12.597946 -4.84375q0 -2.6875 1.484375 -3.96875q1.25 -1.078125 3.046875 -1.078125q2.0 0 3.265625 1.3125q1.265625 1.296875 1.265625 3.609375q0 1.859375 -0.5625 2.9375q-0.5625 1.0625 -1.640625 1.65625q-1.0625 0.59375 -2.328125 0.59375q-2.03125 0 -3.28125 -1.296875q-1.25 -1.3125 -1.25 -3.765625zm1.6875 0q0 1.859375 0.796875 2.796875q0.8125 0.921875 2.046875 0.921875q1.21875 0 2.03125 -0.921875q0.8125 -0.9375 0.8125 -2.84375q0 -1.796875 -0.8125 -2.71875q-0.8125 -0.921875 -2.03125 -0.921875q-1.234375 0 -2.046875 0.921875q-0.796875 0.90625 -0.796875 2.765625zm8.641342 1.953125l1.625 -0.25q0.125 0.96875 0.75 1.5q0.625 0.515625 1.75 0.515625q1.125 0 1.671875 -0.453125q0.546875 -0.46875 0.546875 -1.09375q0 -0.546875 -0.484375 -0.875q-0.328125 -0.21875 -1.671875 -0.546875q-1.8125 -0.46875 -2.515625 -0.796875q-0.6875 -0.328125 -1.046875 -0.90625q-0.359375 -0.59375 -0.359375 -1.3125q0 -0.640625 0.296875 -1.1875q0.296875 -0.5625 0.8125 -0.921875q0.375 -0.28125 1.03125 -0.46875q0.671875 -0.203125 1.421875 -0.203125q1.140625 0 2.0 0.328125q0.859375 0.328125 1.265625 0.890625q0.421875 0.5625 0.578125 1.5l-1.609375 0.21875q-0.109375 -0.75 -0.640625 -1.171875q-0.515625 -0.421875 -1.46875 -0.421875q-1.140625 0 -1.625 0.375q-0.46875 0.375 -0.46875 0.875q0 0.3125 0.1875 0.578125q0.203125 0.265625 0.640625 0.4375q0.234375 0.09375 1.4375 0.421875q1.75 0.453125 2.4375 0.75q0.6875 0.296875 1.078125 0.859375q0.390625 0.5625 0.390625 1.40625q0 0.828125 -0.484375 1.546875q-0.46875 0.71875 -1.375 1.125q-0.90625 0.390625 -2.046875 0.390625q-1.875 0 -2.875 -0.78125q-0.984375 -0.78125 -1.25 -2.328125zm13.5625 1.421875l0.234375 1.453125q-0.6875 0.140625 -1.234375 0.140625q-0.890625 0 -1.390625 -0.28125q-0.484375 -0.28125 -0.6875 -0.734375q-0.203125 -0.46875 -0.203125 -1.9375l0 -5.578125l-1.203125 0l0 -1.265625l1.203125 0l0 -2.390625l1.625 -0.984375l0 3.375l1.65625 0l0 1.265625l-1.65625 0l0 5.671875q0 0.6875 0.078125 0.890625q0.09375 0.203125 0.28125 0.328125q0.203125 0.109375 0.578125 0.109375q0.265625 0 0.71875 -0.0625zm6.9134827 1.46875l0 -13.359375l1.78125 0l0 6.625l6.6249924 -6.625l2.390625 0l-5.5937424 5.421875l5.8437424 7.9375l-2.328125 0l-4.7656174 -6.765625l-2.171875 2.140625l0 4.625l-1.78125 0zm18.943565 -3.109375l1.6875 0.203125q-0.40625 1.484375 -1.484375 2.3125q-1.078125 0.8125 -2.765625 0.8125q-2.125 0 -3.375 -1.296875q-1.234375 -1.3125 -1.234375 -3.671875q0 -2.453125 1.25 -3.796875q1.265625 -1.34375 3.265625 -1.34375q1.9375 0 3.15625 1.328125q1.234375 1.3125 1.234375 3.703125q0 0.15625 0 0.4375l-7.21875 0q0.09375 1.59375 0.90625 2.453125q0.8125 0.84375 2.015625 0.84375q0.90625 0 1.546875 -0.46875q0.640625 -0.484375 1.015625 -1.515625zm-5.390625 -2.65625l5.40625 0q-0.109375 -1.21875 -0.625 -1.828125q-0.78125 -0.953125 -2.03125 -0.953125q-1.125 0 -1.90625 0.765625q-0.765625 0.75 -0.84375 2.015625zm9.125717 5.765625l0 -9.671875l1.46875 0l0 1.46875q0.5625 -1.03125 1.03125 -1.359375q0.484375 -0.328125 1.0625 -0.328125q0.828125 0 1.6875 0.53125l-0.5625 1.515625q-0.609375 -0.359375 -1.203125 -0.359375q-0.546875 0 -0.96875 0.328125q-0.421875 0.328125 -0.609375 0.890625q-0.28125 0.875 -0.28125 1.921875l0 5.0625l-1.625 0zm6.228302 0l0 -9.671875l1.46875 0l0 1.375q1.0625 -1.59375 3.078125 -1.59375q0.875 0 1.609375 0.3125q0.734375 0.3125 1.09375 0.828125q0.375 0.5 0.515625 1.203125q0.09375 0.453125 0.09375 1.59375l0 5.953125l-1.640625 0l0 -5.890625q0 -1.0 -0.203125 -1.484375q-0.1875 -0.5 -0.671875 -0.796875q-0.484375 -0.296875 -1.140625 -0.296875q-1.046875 0 -1.8125 0.671875q-0.75 0.65625 -0.75 2.515625l0 5.28125l-1.640625 0zm17.000732 -3.109375l1.6875 0.203125q-0.40625 1.484375 -1.484375 2.3125q-1.078125 0.8125 -2.7656403 0.8125q-2.125 0 -3.375 -1.296875q-1.234375 -1.3125 -1.234375 -3.671875q0 -2.453125 1.25 -3.796875q1.265625 -1.34375 3.265625 -1.34375q1.9375153 0 3.1562653 1.328125q1.234375 1.3125 1.234375 3.703125q0 0.15625 0 0.4375l-7.2187653 0q0.09375 1.59375 0.90625 2.453125q0.8125 0.84375 2.015625 0.84375q0.90625 0 1.5468903 -0.46875q0.640625 -0.484375 1.015625 -1.515625zm-5.3906403 -2.65625l5.4062653 0q-0.109375 -1.21875 -0.625 -1.828125q-0.78125 -0.953125 -2.0312653 -0.953125q-1.125 0 -1.90625 0.765625q-0.765625 0.75 -0.84375 2.015625zm9.094467 5.765625l0 -13.359375l1.640625 0l0 13.359375l-1.640625 0z" fill-rule="nonzero"/><path fill="#000000" fill-opacity="0.0" d="m4.454068 151.90599l74.04724 0" fill-rule="evenodd"/><path stroke="#000000" stroke-width="1.0" stroke-linejoin="round" stroke-linecap="butt" d="m4.454068 151.90599l74.04724 0" fill-rule="evenodd"/><path fill="#000000" fill-opacity="0.0" d="m172.45407 151.90599l74.04724 0" fill-rule="evenodd"/><path stroke="#000000" stroke-width="1.0" stroke-linejoin="round" stroke-linecap="butt" d="m172.45407 151.90599l74.04724 0" fill-rule="evenodd"/><path fill="#000000" fill-opacity="0.0" d="m73.43044 135.54013l100.88189 0l0 32.06299l-100.88189 0z" fill-rule="evenodd"/><path fill="#000000" d="m96.04542 156.37163l0 -9.546875l1.265625 0l0 3.921875l4.953125 0l0 -3.921875l1.265625 0l0 9.546875l-1.265625 0l0 -4.5l-4.953125 0l0 4.5l-1.265625 0zm13.953278 -0.859375q-0.65625 0.5625 -1.265625 0.796875q-0.59375 0.21875 -1.28125 0.21875q-1.140625 0 -1.75 -0.546875q-0.609375 -0.5625 -0.609375 -1.4375q0 -0.5 0.21875 -0.921875q0.234375 -0.421875 0.609375 -0.671875q0.375 -0.25 0.84375 -0.390625q0.34375 -0.078125 1.046875 -0.171875q1.421875 -0.171875 2.09375 -0.40625q0 -0.234375 0 -0.296875q0 -0.71875 -0.328125 -1.015625q-0.453125 -0.390625 -1.34375 -0.390625q-0.8125 0 -1.21875 0.296875q-0.390625 0.28125 -0.578125 1.015625l-1.140625 -0.15625q0.15625 -0.734375 0.515625 -1.1875q0.359375 -0.453125 1.03125 -0.6875q0.671875 -0.25 1.5625 -0.25q0.890625 0 1.4375 0.203125q0.5625 0.203125 0.8125 0.53125q0.265625 0.3125 0.375 0.796875q0.046875 0.296875 0.046875 1.078125l0 1.5625q0 1.625 0.078125 2.0625q0.078125 0.4375 0.296875 0.828125l-1.21875 0q-0.1875 -0.359375 -0.234375 -0.859375zm-0.09375 -2.609375q-0.640625 0.265625 -1.921875 0.4375q-0.71875 0.109375 -1.015625 0.25q-0.296875 0.125 -0.46875 0.375q-0.15625 0.25 -0.15625 0.546875q0 0.46875 0.34375 0.78125q0.359375 0.3125 1.046875 0.3125q0.671875 0 1.203125 -0.296875q0.53125 -0.296875 0.78125 -0.8125q0.1875 -0.390625 0.1875 -1.171875l0 -0.421875zm2.9749756 3.46875l0 -6.90625l1.0625 0l0 1.046875q0.40625 -0.734375 0.734375 -0.96875q0.34375 -0.234375 0.765625 -0.234375q0.59375 0 1.203125 0.375l-0.40625 1.078125q-0.4375 -0.25 -0.859375 -0.25q-0.390625 0 -0.703125 0.234375q-0.296875 0.234375 -0.421875 0.640625q-0.203125 0.625 -0.203125 1.359375l0 3.625l-1.171875 0zm8.93837 0l0 -0.875q-0.65625 1.03125 -1.9375 1.03125q-0.8125 0 -1.515625 -0.453125q-0.6875 -0.453125 -1.078125 -1.265625q-0.375 -0.828125 -0.375 -1.890625q0 -1.03125 0.34375 -1.875q0.34375 -0.84375 1.03125 -1.28125q0.703125 -0.453125 1.546875 -0.453125q0.625 0 1.109375 0.265625q0.5 0.25 0.796875 0.671875l0 -3.421875l1.171875 0l0 9.546875l-1.09375 0zm-3.703125 -3.453125q0 1.328125 0.5625 1.984375q0.5625 0.65625 1.328125 0.65625q0.765625 0 1.296875 -0.625q0.53125 -0.625 0.53125 -1.90625q0 -1.421875 -0.546875 -2.078125q-0.546875 -0.671875 -1.34375 -0.671875q-0.78125 0 -1.3125 0.640625q-0.515625 0.625 -0.515625 2.0zm7.9124756 3.453125l-2.125 -6.90625l1.21875 0l1.09375 3.984375l0.421875 1.484375q0.015625 -0.109375 0.359375 -1.421875l1.0937424 -4.046875l1.203125 0l1.03125 4.0l0.34375 1.328125l0.40625 -1.34375l1.171875 -3.984375l1.140625 0l-2.15625 6.90625l-1.21875 0l-1.09375 -4.140625l-0.265625 -1.171875l-1.4062424 5.3125l-1.21875 0zm12.859535 -0.859375q-0.65625 0.5625 -1.265625 0.796875q-0.59376526 0.21875 -1.2812653 0.21875q-1.140625 0 -1.75 -0.546875q-0.609375 -0.5625 -0.609375 -1.4375q0 -0.5 0.21875 -0.921875q0.234375 -0.421875 0.609375 -0.671875q0.375 -0.25 0.84375 -0.390625q0.34375 -0.078125 1.046875 -0.171875q1.4218903 -0.171875 2.0937653 -0.40625q0 -0.234375 0 -0.296875q0 -0.71875 -0.328125 -1.015625q-0.453125 -0.390625 -1.3437653 -0.390625q-0.8125 0 -1.21875 0.296875q-0.390625 0.28125 -0.578125 1.015625l-1.140625 -0.15625q0.15625 -0.734375 0.515625 -1.1875q0.359375 -0.453125 1.03125 -0.6875q0.671875 -0.25 1.5625 -0.25q0.89064026 0 1.4375153 0.203125q0.5625 0.203125 0.8125 0.53125q0.265625 0.3125 0.375 0.796875q0.046875 0.296875 0.046875 1.078125l0 1.5625q0 1.625 0.078125 2.0625q0.078125 0.4375 0.296875 0.828125l-1.21875 0q-0.1875 -0.359375 -0.234375 -0.859375zm-0.09375 -2.609375q-0.640625 0.265625 -1.9218903 0.4375q-0.71875 0.109375 -1.015625 0.25q-0.296875 0.125 -0.46875 0.375q-0.15625 0.25 -0.15625 0.546875q0 0.46875 0.34375 0.78125q0.359375 0.3125 1.046875 0.3125q0.671875 0 1.2031403 -0.296875q0.53125 -0.296875 0.78125 -0.8125q0.1875 -0.390625 0.1875 -1.171875l0 -0.421875zm2.9749756 3.46875l0 -6.90625l1.0625 0l0 1.046875q0.40625 -0.734375 0.734375 -0.96875q0.34375 -0.234375 0.765625 -0.234375q0.59375 0 1.203125 0.375l-0.40625 1.078125q-0.4375 -0.25 -0.859375 -0.25q-0.390625 0 -0.703125 0.234375q-0.296875 0.234375 -0.421875 0.640625q-0.203125 0.625 -0.203125 1.359375l0 3.625l-1.171875 0zm9.18837 -2.21875l1.203125 0.140625q-0.28125 1.0625 -1.0625 1.65625q-0.765625 0.578125 -1.96875 0.578125q-1.515625 0 -2.40625 -0.9375q-0.890625 -0.9375 -0.890625 -2.609375q0 -1.75 0.890625 -2.703125q0.90625 -0.96875 2.34375 -0.96875q1.390625 0 2.265625 0.9375q0.875 0.9375 0.875 2.65625q0 0.109375 0 0.3125l-5.15625 0q0.0625 1.140625 0.640625 1.75q0.578125 0.59375 1.4375 0.59375q0.65625 0 1.109375 -0.328125q0.453125 -0.34375 0.71875 -1.078125zm-3.84375 -1.90625l3.859375 0q-0.078125 -0.859375 -0.4375 -1.296875q-0.5625 -0.6875 -1.453125 -0.6875q-0.8125 0 -1.359375 0.546875q-0.546875 0.53125 -0.609375 1.4375z" fill-rule="nonzero"/><defs><linearGradient id="p.1" gradientUnits="userSpaceOnUse" gradientTransform="matrix(4.54555197232122 0.0 0.0 4.54555197232122 0.0 0.0)" spreadMethod="pad" x1="8.189483259998303" y1="18.80511284496466" x2="8.189466907412452" y2="23.35066481725647"><stop offset="0.0" stop-color="#ff0000"/><stop offset="0.51" stop-color="#dab7a6"/><stop offset="0.99999994" stop-color="#dab7a6" stop-opacity="0.0"/><stop offset="1.0" stop-color="#ffffff" stop-opacity="0.0"/></linearGradient></defs><path fill="url(#p.1)" d="m37.225723 85.48025l173.29134 0l0 20.661415l-173.29134 0z" fill-rule="evenodd"/><path fill="#000000" fill-opacity="0.0" d="m272.4455 100.54161l129.5748 -74.83464l20.629913 35.74803l-129.5748 74.83464z" fill-rule="evenodd"/><path fill="#000000" d="m287.51392 107.20854l1.1823425 -0.8271866q0.51071167 0.6974335 1.1166077 0.9970856q0.5980835 0.28610992 1.4464111 0.19311523q0.84054565 -0.10652161 1.6794434 -0.5910187q0.75772095 -0.4376068 1.2010193 -0.98233795q0.44906616 -0.5660858 0.50097656 -1.1013031q0.057678223 -0.55656433 -0.20785522 -1.0166931q-0.27334595 -0.47366333 -0.7392273 -0.6557007q-0.47366333 -0.1955719 -1.2366333 -0.079704285q-0.478302 0.07775116 -2.032318 0.54221344q-1.5618286 0.45092773 -2.2805786 0.48712158q-0.9222717 0.027420044 -1.5864563 -0.31072998q-0.6719971 -0.35168457 -1.0703125 -1.0418777q-0.4295349 -0.74432373 -0.38497925 -1.6361618q0.05029297 -0.9131851 0.6668701 -1.7203751q0.63012695 -0.8150101 1.6313782 -1.39328q1.1095276 -0.6407852 2.1592712 -0.75988007q1.0419617 -0.13263702 1.8867493 0.29968262q0.8583679 0.4244995 1.3987732 1.2671738l-1.2036743 0.8214798q-0.64712524 -0.87127686 -1.5022583 -1.0089188q-0.8629761 -0.15116882 -2.013092 0.5130539q-1.1906738 0.6876755 -1.4819641 1.4333115q-0.2913208 0.745636 0.06793213 1.3681641q0.30459595 0.5277939 0.8865051 0.6608505q0.5740967 0.119522095 2.3815613 -0.43717957q1.8210144 -0.5645218 2.5725403 -0.6376953q1.0924377 -0.107666016 1.857605 0.28042603q0.77090454 0.366745 1.2316895 1.1652069q0.4529724 0.78491974 0.39904785 1.7543335q-0.040405273 0.96160126 -0.6663208 1.8463745q-0.62594604 0.8847656 -1.6813354 1.4942932q-1.3530579 0.78144073 -2.486084 0.9125519q-1.1408386 0.11756897 -2.1214905 -0.3625946q-0.96713257 -0.48797607 -1.5721436 -1.4738007zm13.40155 -4.9431534l0.8006897 0.98106384q-0.45169067 0.4052124 -0.857605 0.63964844q-0.6629944 0.38290405 -1.1454773 0.39089966q-0.4902649 -0.00554657 -0.8343506 -0.25791168q-0.3518982 -0.2659073 -0.9844971 -1.3620911l-2.382019 -4.127617l-0.8930054 0.5157547l-0.5466919 -0.94731903l0.8930054 -0.5157547l-1.0308838 -1.786377l0.79599 -1.4340897l1.4526367 2.5171661l1.2177734 -0.70329285l0.5466919 0.94731903l-1.2177734 0.7033005l2.4210815 4.1952744q0.30456543 0.5277939 0.4446106 0.645401q0.15356445 0.10979462 0.35705566 0.11856842q0.19570923 -0.004760742 0.4663086 -0.16104889q0.20297241 -0.11721802 0.49645996 -0.35889435zm1.8165283 0.41242218l-4.147064 -7.186104l1.0959778 -0.6329727l0.6247864 1.0826492q-0.0178833 -1.0000992 0.19332886 -1.4468689q0.21121216 -0.44677734 0.64419556 -0.6968384q0.6088562 -0.35164642 1.471283 -0.3264618l0.22875977 1.3654938q-0.59487915 7.4768066E-4 -1.0413818 0.25862885q-0.39239502 0.2266159 -0.5765381 0.6577606q-0.17843628 0.40979004 -0.06384277 0.9209976q0.17193604 0.76680756 0.61709595 1.5382004l2.1711426 3.7622147l-1.2177429 0.7033005zm2.0899658 -6.0066605q-1.1480408 -1.9893799 -0.5930481 -3.5910187q0.47280884 -1.3376465 1.7988281 -2.1034622q1.4883423 -0.8595886 2.984253 -0.4243927q1.501648 0.41384125 2.4934998 2.132553q0.79660034 1.3803787 0.83795166 2.4210892q0.04135132 1.0407028 -0.49923706 1.948349q-0.5348511 0.8862915 -1.4819946 1.4333038q-1.5018921 0.8674011 -2.9899902 0.44573975q-1.4959106 -0.4351883 -2.5502625 -2.2621613zm1.2583313 -0.7267456q0.79663086 1.3803787 1.7902527 1.726738q1.0072021 0.33853912 1.9137268 -0.18502045q0.9065552 -0.5235672 1.1036072 -1.5575943q0.21057129 -1.0418396 -0.60946655 -2.462822q-0.76538086 -1.3262482 -1.7725525 -1.6647949q-0.99365234 -0.34635162 -1.9002075 0.17721558q-0.90652466 0.5235672 -1.117096 1.5654068q-0.2048645 1.0204926 0.59173584 2.4008713zm8.984772 -0.38944244l-4.1470337 -7.1861115l1.0959778 -0.6329651l0.5857239 1.0149841q0.10531616 -1.6306229 1.6072083 -2.498024q0.6494751 -0.37509155 1.3234558 -0.45760345q0.6739807 -0.0825119 1.163269 0.14012909q0.48928833 0.22264099 0.9021301 0.6879196q0.26287842 0.29925537 0.74710083 1.1383057l2.553833 4.4253464l-1.2177429 0.7033005l-2.522583 -4.371216q-0.42956543 -0.74432373 -0.7892456 -1.0237579q-0.3540039 -0.30078125 -0.8442688 -0.30632782q-0.47677612 -0.01335144 -0.9638672 0.26796722q-0.7847595 0.45323944 -1.0640869 1.2821732q-0.2735901 0.80757904 0.52301025 2.1879654l2.264862 3.924614l-1.2177429 0.7033005zm7.819275 -3.7220154l1.2922058 -0.511734q0.3878479 0.5157852 0.8666992 0.56401825q0.65527344 0.072639465 1.4400635 -0.38059235q0.8388977 -0.48449707 1.1036682 -1.0885162q0.26480103 -0.60401917 0.07571411 -1.3067856q-0.1161499 -0.42009735 -0.81121826 -1.6245499q-0.25161743 1.408371 -1.4423218 2.0960464q-1.4883423 0.859581 -2.9171448 0.25933075q-1.428833 -0.60025024 -2.2957153 -2.1024323q-0.5935669 -1.0285187 -0.72805786 -2.1056366q-0.12097168 -1.0849228 0.30926514 -1.9649353q0.4437561 -0.887825 1.3908997 -1.4348297q1.2718811 -0.7345581 2.690796 -0.18271637l-0.4998474 -0.866127l1.1230469 -0.6485977l3.5847168 6.2117233q0.9684448 1.6781082 1.0362854 2.5771942q0.067840576 0.899086 -0.4420166 1.7348709q-0.5098877 0.83579254 -1.5923462 1.4609451q-1.2854004 0.7423706 -2.4195251 0.6214981q-1.1206055 -0.12869263 -1.7651672 -1.3081741zm-1.4765625 -4.90316q0.81222534 1.4074478 1.7418518 1.7366486q0.94314575 0.32138824 1.7820435 -0.16310883q0.8388977 -0.48448944 1.0401001 -1.4487534q0.19342041 -0.97779846 -0.60317993 -2.3581848q-0.76538086 -1.3262482 -1.7298889 -1.6533508q-0.97229004 -0.3406372 -1.7976685 0.13603973q-0.8118286 0.46886444 -0.9974365 1.4601974q-0.1855774 0.991333 0.56417847 2.290512z" fill-rule="nonzero"/><path fill="#000000" d="m294.23132 118.16088l-0.80441284 -1.3939133l1.2177429 -0.7033005l0.80441284 1.3939209l-1.2177429 0.70329285zm4.920227 8.525894l-4.147064 -7.1861115l1.2177734 -0.70329285l4.1470337 7.186104l-1.2177429 0.7033005zm1.3493347 -3.6482391l1.0948792 -0.88494873q0.51641846 0.67609406 1.2029724 0.8028641q0.6922302 0.10542297 1.5176086 -0.37125397q0.8388672 -0.48449707 1.0495605 -1.0572586q0.20285034 -0.5862961 -0.062683105 -1.0464249q-0.23431396 -0.4059906 -0.7266846 -0.44641113q-0.35079956 -0.013923645 -1.4790955 0.31292725q-1.5347595 0.43530273 -2.2030334 0.4964676q-0.66256714 0.03981781 -1.183075 -0.23695374q-0.5069885 -0.28459167 -0.8115845 -0.8123779q-0.28115845 -0.48719788 -0.2989807 -1.0182266q-0.017791748 -0.5310211 0.2048645 -1.0204926q0.15917969 -0.3806305 0.56817627 -0.79727936q0.4147339 -0.43800354 0.9694824 -0.75839233q0.852417 -0.49230957 1.6289368 -0.6159897q0.7765198 -0.123680115 1.3162842 0.123931885q0.5455017 0.22625732 1.0733948 0.8596573l-1.0969849 0.85006714q-0.4013672 -0.5079727 -0.9733887 -0.59262085q-0.5720215 -0.0846405 -1.2756042 0.32170868q-0.8388977 0.48449707 -1.0402222 0.9796829q-0.19558716 0.47383118 0.015289307 0.8392334q0.14056396 0.24359131 0.39874268 0.3470993q0.2581787 0.103507996 0.64749146 0.05910492q0.22845459 -0.041732788 1.2620544 -0.31388855q1.4806519 -0.4040451 2.127594 -0.470932q0.6390991 -0.08041382 1.1653442 0.17501068q0.5397949 0.247612 0.89904785 0.87013245q0.35144043 0.60899353 0.29852295 1.3613129q-0.047210693 0.73096466 -0.5519409 1.4194183q-0.49118042 0.68063354 -1.3300476 1.1651306q-1.407196 0.81269836 -2.4736633 0.65275574q-1.0664673 -0.15995026 -1.933258 -1.1930542zm6.1190186 -5.4646606q-1.1480408 -1.9893723 -0.5930481 -3.591011q0.47283936 -1.3376541 1.7988281 -2.1034698q1.4883423 -0.859581 2.984253 -0.4243927q1.501648 0.41384888 2.4934998 2.1325607q0.79663086 1.3803787 0.83795166 2.4210815q0.04135132 1.0407028 -0.49923706 1.948349q-0.5348511 0.88629913 -1.4819946 1.4333115q-1.5018921 0.8674011 -2.9899902 0.44573975q-1.4959106 -0.43519592 -2.5502625 -2.262169zm1.2583313 -0.7267456q0.79663086 1.3803864 1.7902832 1.7267456q1.0071716 0.33853912 1.9136963 -0.18502808q0.9065552 -0.5235672 1.1036072 -1.5575943q0.21057129 -1.0418396 -0.60946655 -2.462822q-0.76538086 -1.3262482 -1.7725525 -1.6647873q-0.99365234 -0.34635925 -1.9002075 0.17720795q-0.90652466 0.5235672 -1.117096 1.5654068q-0.2048645 1.0204926 0.59173584 2.4008713zm8.957733 -0.3738098l-5.7246704 -9.919807l1.2177734 -0.7033005l5.72464 9.919807l-1.2177429 0.7033005zm7.2713623 -5.390396q-0.34069824 0.9726486 -0.8225403 1.5757141q-0.48962402 0.5895233 -1.2067566 1.003685q-1.1906738 0.6876755 -2.162445 0.47302246q-0.9717407 -0.21464539 -1.4872131 -1.1078339q-0.30456543 -0.5277939 -0.3109436 -1.1015167q-0.014190674 -0.58724976 0.21627808 -1.0631866q0.23620605 -0.4972763 0.64520264 -0.9139328q0.31063843 -0.30571747 0.980896 -0.8010864q1.3733215 -1.0277023 1.9363098 -1.6776505q-0.14837646 -0.25712585 -0.18740845 -0.32479095q-0.42956543 -0.74432373 -0.93963623 -0.84669495q-0.7156677 -0.14601898 -1.6357422 0.38536072q-0.8524475 0.49230957 -1.0922546 1.0458145q-0.23410034 0.5321655 0.013824463 1.3994217l-1.2843933 0.5252762q-0.2749939 -0.85163116 -0.18301392 -1.5362854q0.10549927 -0.6924591 0.66851807 -1.3424072q0.5552063 -0.66348267 1.4752808 -1.1948624q0.92007446 -0.5313797 1.6133118 -0.6430588q0.7067566 -0.11948395 1.1648254 0.04901886q0.45803833 0.16851044 0.8552551 0.60672q0.24728394 0.27218628 0.71588135 1.0841827l0.9371643 1.6239777q0.9840393 1.7051773 1.3094177 2.1127014q0.33892822 0.39970398 0.81103516 0.6863861l-1.2718506 0.7345581q-0.40811157 -0.26953125 -0.7590027 -0.75253296zm-1.6645203 -2.6654587q-0.5067749 0.65356445 -1.7234497 1.6088486q-0.69522095 0.5458679 -0.9283142 0.8609314q-0.23312378 0.31506348 -0.25280762 0.6873169q-0.013977051 0.35090637 0.16564941 0.6621628q0.28115845 0.48719788 0.83392334 0.60100555q0.5662842 0.10598755 1.269867 -0.30036163q0.70358276 -0.40634918 1.072998 -1.016655q0.37512207 -0.63165283 0.3197937 -1.3214569q-0.031341553 -0.5232086 -0.49990845 -1.3351974l-0.25775146 -0.44659424zm7.223419 -0.8156891l0.8006897 0.98106384q-0.45169067 0.40522003 -0.857605 0.63964844q-0.6629944 0.38290405 -1.1454468 0.39089966q-0.4902954 -0.0055389404 -0.8343811 -0.25791168q-0.3518982 -0.26589966 -0.9844971 -1.3620911l-2.382019 -4.1276093l-0.8930054 0.5157471l-0.5466919 -0.94731903l0.8930054 -0.5157471l-1.0308838 -1.786377l0.7960205 -1.4340897l1.4526367 2.5171661l1.2177429 -0.7033005l0.5466919 0.94731903l-1.2177429 0.7033005l2.421051 4.195282q0.30459595 0.5277939 0.4446106 0.645401q0.15356445 0.10978699 0.35708618 0.11856079q0.19567871 -0.004760742 0.46627808 -0.16104889q0.20297241 -0.11721039 0.49645996 -0.35889435zm-3.0901794 -8.121277l-0.80441284 -1.3939209l1.2177429 -0.70329285l0.80444336 1.3939133l-1.2177734 0.7033005zm4.920227 8.525887l-4.1470337 -7.186104l1.2177429 -0.7033005l4.147064 7.186104l-1.2177734 0.7033005zm0.54074097 -5.111908q-1.1480408 -1.9893799 -0.5930481 -3.591011q0.47280884 -1.3376541 1.7988281 -2.1034698q1.4883423 -0.8595886 2.984253 -0.4243927q1.501648 0.41384125 2.4934998 2.132553q0.79660034 1.3803864 0.83795166 2.4210892q0.0413208 1.0407028 -0.49923706 1.948349q-0.5348511 0.88629913 -1.4819946 1.4333038q-1.5018921 0.8674011 -2.9899902 0.44574738q-1.4959412 -0.43519592 -2.5502625 -2.262169zm1.2583313 -0.7267456q0.79663086 1.3803864 1.7902527 1.726738q1.0072021 0.33854675 1.9137268 -0.18502045q0.9065552 -0.5235672 1.1036072 -1.5575943q0.21057129 -1.0418396 -0.60946655 -2.462822q-0.76538086 -1.3262482 -1.7725525 -1.6647949q-0.99365234 -0.34635162 -1.9002075 0.17721558q-0.9065552 0.5235672 -1.117096 1.5654068q-0.2048645 1.0204926 0.59173584 2.4008713zm8.984772 -0.38944244l-4.1470337 -7.1861115l1.0959473 -0.6329651l0.5857544 1.0149841q0.10531616 -1.6306152 1.6072083 -2.4980164q0.6494446 -0.37509918 1.3234558 -0.45761108q0.6739807 -0.0825119 1.163269 0.14012909q0.48928833 0.22264099 0.9021301 0.6879196q0.26287842 0.29925537 0.74710083 1.1383133l2.553833 4.4253387l-1.2177429 0.7033005l-2.5226135 -4.371208q-0.4295349 -0.74432373 -0.7892456 -1.0237656q-0.3539734 -0.30078125 -0.8442383 -0.3063202q-0.47677612 -0.01335907 -0.9638672 0.2679596q-0.7847595 0.45323944 -1.0640869 1.2821732q-0.2735901 0.80757904 0.52301025 2.1879654l2.264862 3.924614l-1.2177429 0.7033005z" fill-rule="nonzero"/><path fill="#000000" fill-opacity="0.0" d="m282.76047 118.41563c-17.003845 0 -26.795105 -5.566925 -34.007706 -11.133858c-7.2126007 -5.566925 -11.846542 -11.133858 -23.6931 -11.133858" fill-rule="evenodd"/><path stroke="#000000" stroke-width="2.0" stroke-linejoin="round" stroke-linecap="butt" d="m282.76047 118.415634c-17.003876 0 -26.795105 -5.5669327 -34.007706 -11.133858c-3.6062927 -2.7834702 -6.567932 -5.5669327 -10.10881 -7.6545334c-0.4426117 -0.26094818 -0.8942871 -0.51101685 -1.3573761 -0.74887085c-0.11578369 -0.0594635 -0.23228455 -0.11816406 -0.34950256 -0.17607117l-0.13806152 -0.06682587" fill-rule="evenodd"/><path fill="#000000" stroke="#000000" stroke-width="2.0" stroke-linecap="butt" d="m237.48381 95.40378l-9.563843 1.350235l8.194244 5.1131744z" fill-rule="evenodd"/></g></svg>